<svg xmlns="http://www.w3.org/2000/svg" xmlns:xlink="http://www.w3.org/1999/xlink" viewBox="0 0 375 245"><defs><style>.cls-1{fill:#fff;}.cls-12,.cls-2,.cls-3{fill:#3c3c41;}.cls-2{opacity:0.05;}.cls-2,.cls-3{isolation:isolate;}.cls-3{opacity:0.18;}.cls-4{fill:url(#Degradado_sin_nombre);}.cls-5{fill:#003067;}.cls-6{fill:#50e6ff;}.cls-7{fill:url(#Degradado_sin_nombre_2);}.cls-8{fill:url(#Degradado_sin_nombre_3);}.cls-10,.cls-11,.cls-13,.cls-14,.cls-15,.cls-16,.cls-9{fill:none;stroke:#3c3c41;stroke-linecap:round;stroke-miterlimit:10;}.cls-10{stroke-dasharray:0.96 2.88 3.84 2.88;}.cls-11{stroke-dasharray:3.84 2.88 0.96 2.88 3.84 2.88;}.cls-13{stroke-dasharray:0.95 2.86 3.81 2.86;}.cls-14{stroke-dasharray:3.81 2.86 0.95 2.86 3.81 2.86;}.cls-15{stroke-dasharray:0.86 2.58 3.44 2.58;}.cls-16{stroke-dasharray:3.44 2.58 0.86 2.58 3.44 2.58;}.cls-17{fill:url(#Degradado_sin_nombre_4);}.cls-18{fill:#b4ec36;}.cls-19{fill:#5ea0ef;}.cls-20{fill:#1e1e1e;}.cls-21{fill:#6ebcdb;}.cls-22{fill:#5db4d7;}.cls-23{fill:#e6e6e6;}.cls-24{fill:#86d633;}</style><linearGradient id="Degradado_sin_nombre" x1="240.52" y1="344.72" x2="240.52" y2="376.72" gradientTransform="translate(0 -298)" gradientUnits="userSpaceOnUse"><stop offset="0" stop-color="#b3b2b3"/><stop offset="0.38" stop-color="#afaeaf"/><stop offset="0.76" stop-color="#a2a2a2"/><stop offset="1" stop-color="#979797"/></linearGradient><linearGradient id="Degradado_sin_nombre_2" x1="240.52" y1="423.22" x2="240.52" y2="455.22" xlink:href="#Degradado_sin_nombre"/><linearGradient id="Degradado_sin_nombre_3" x1="240.52" y1="503.4" x2="240.52" y2="535.4" xlink:href="#Degradado_sin_nombre"/><linearGradient id="Degradado_sin_nombre_4" x1="144.48" y1="457.63" x2="144.48" y2="422.85" gradientTransform="translate(0 -298)" gradientUnits="userSpaceOnUse"><stop offset="0" stop-color="#5e9624"/><stop offset="0.02" stop-color="#5f9724"/><stop offset="1" stop-color="#76bc2d"/></linearGradient></defs><title>OJ105690781</title><g id="bg"><rect class="cls-1" y="35" width="375" height="210"/><rect class="cls-2" y="35" width="375" height="210"/><rect class="cls-1" width="375" height="35"/><rect class="cls-3" width="375" height="35"/></g><g id="shapes"><path class="cls-4" d="M250.91,77.63a1.16,1.16,0,0,1-1.2,1.09H231.33a1.16,1.16,0,0,1-1.2-1.09V47.81a1.16,1.16,0,0,1,1.2-1.09h18.38a1.16,1.16,0,0,1,1.2,1.09Z"/><path class="cls-5" d="M233.19,60.4a2.39,2.39,0,0,1,2.22-2.5h10.38A2.37,2.37,0,0,1,248,60.4h0a2.37,2.37,0,0,1-2.12,2.6H235.45a2.39,2.39,0,0,1-2.22-2.49Z"/><path class="cls-5" d="M233.19,53a2.38,2.38,0,0,1,2.22-2.49h10.38A2.38,2.38,0,0,1,248,53h0a2.4,2.4,0,0,1-2.21,2.5H235.45a2.4,2.4,0,0,1-2.22-2.5Z"/><circle class="cls-6" cx="236.1" cy="53" r="1.66"/><circle class="cls-6" cx="236.1" cy="60.4" r="1.66"/><path class="cls-7" d="M250.91,156.13a1.16,1.16,0,0,1-1.2,1.09H231.33a1.16,1.16,0,0,1-1.2-1.09V126.31a1.16,1.16,0,0,1,1.2-1.09h18.38a1.16,1.16,0,0,1,1.2,1.09Z"/><path class="cls-5" d="M233.19,138.9a2.39,2.39,0,0,1,2.22-2.5h10.38a2.37,2.37,0,0,1,2.21,2.5h0a2.37,2.37,0,0,1-2.13,2.59H235.45a2.39,2.39,0,0,1-2.22-2.49Z"/><path class="cls-5" d="M233.19,131.5a2.38,2.38,0,0,1,2.22-2.49h10.38A2.38,2.38,0,0,1,248,131.5h0a2.4,2.4,0,0,1-2.21,2.5H235.45a2.4,2.4,0,0,1-2.22-2.5Z"/><circle class="cls-6" cx="236.1" cy="131.5" r="1.66"/><circle class="cls-6" cx="236.1" cy="138.9" r="1.66"/><path class="cls-8" d="M250.91,236.31a1.16,1.16,0,0,1-1.2,1.09H231.33a1.16,1.16,0,0,1-1.2-1.09V206.48a1.15,1.15,0,0,1,1.2-1.08h18.38a1.15,1.15,0,0,1,1.2,1.08Z"/><path class="cls-5" d="M233.19,219.08a2.4,2.4,0,0,1,2.22-2.51h10.38a2.4,2.4,0,0,1,2.21,2.51h0a2.38,2.38,0,0,1-2.13,2.59H235.45a2.38,2.38,0,0,1-2.22-2.48Z"/><path class="cls-5" d="M233.19,211.67a2.38,2.38,0,0,1,2.22-2.48h10.38a2.36,2.36,0,0,1,2.21,2.48h0a2.4,2.4,0,0,1-2.21,2.51H235.45a2.4,2.4,0,0,1-2.22-2.51Z"/><circle class="cls-6" cx="236.1" cy="211.67" r="1.66"/><circle class="cls-6" cx="236.1" cy="219.08" r="1.66"/><line class="cls-9" x1="144.27" y1="160.45" x2="144.27" y2="158.45"/><line class="cls-10" x1="144.27" y1="155.57" x2="144.27" y2="146.44"/><path class="cls-11" d="M144.27,145V66.89a5,5,0,0,1,5-5h68.28"/><line class="cls-9" x1="218.99" y1="61.89" x2="220.99" y2="61.89"/><polygon class="cls-12" points="219.9 65.63 226.37 61.89 219.9 58.15 219.9 65.63"/><line class="cls-9" x1="143.77" y1="193.29" x2="143.77" y2="195.29"/><line class="cls-13" x1="143.77" y1="198.14" x2="143.77" y2="207.19"/><path class="cls-14" d="M143.77,208.62v7.62a5,5,0,0,0,5,5h68.79"/><line class="cls-9" x1="218.99" y1="221.24" x2="220.99" y2="221.24"/><polygon class="cls-12" points="219.9 224.98 226.37 221.24 219.9 217.5 219.9 224.98"/><line class="cls-9" x1="158.46" y1="142.11" x2="160.46" y2="142.11"/><line class="cls-15" x1="163.04" y1="142.11" x2="171.22" y2="142.11"/><line class="cls-16" x1="172.51" y1="142.11" x2="217.7" y2="142.11"/><line class="cls-9" x1="218.99" y1="142.11" x2="220.99" y2="142.11"/><polygon class="cls-12" points="219.9 145.85 226.37 142.11 219.9 138.37 219.9 145.85"/><path class="cls-17" d="M129.77,140.83l14-14a1,1,0,0,1,1.41,0h0l14,14a1,1,0,0,1,0,1.41h0l-14,14a1,1,0,0,1-1.4,0l-14-14a1,1,0,0,1,0-1.41Z"/><path class="cls-18" d="M148.13,133.22l-3.53-3.52a.2.2,0,0,0-.27,0l-3.53,3.52a.16.16,0,0,0,0,.21l0,0a.16.16,0,0,0,.17.07h2a.18.18,0,0,1,.18.18V137a.21.21,0,0,0,.19.19h2.2a.19.19,0,0,0,.18-.19v-3.3a.18.18,0,0,1,.18-.18H148a.17.17,0,0,0,.2-.13A.14.14,0,0,0,148.13,133.22Z"/><path class="cls-18" d="M136.13,137.57l-3.49,3.54a.17.17,0,0,0,0,.24h0l3.49,3.52a.19.19,0,0,0,.26,0,.2.2,0,0,0,.06-.14v-2a.19.19,0,0,1,.18-.19H140a.16.16,0,0,0,.16-.16h0v-2.22a.16.16,0,0,0,0-.23h-3.4a.17.17,0,0,1-.18-.15v-2a.2.2,0,0,0-.37-.13Z"/><path class="cls-18" d="M152.93,144.88l3.55-3.53a.18.18,0,0,0,0-.25l-3.55-3.53a.18.18,0,0,0-.25,0h0a.21.21,0,0,0,0,.11v2.08a.17.17,0,0,1-.16.17h-3.35a.16.16,0,0,0-.17.15h0v2.22a.17.17,0,0,0,.15.18h3.35a.19.19,0,0,1,.18.19v2.06a.18.18,0,0,0,.2.16h0Z"/><path class="cls-1" d="M149.12,141.55a4.65,4.65,0,1,0-5.9,4.45v1.58a2.86,2.86,0,1,0,2.61,0v-1.67A4.63,4.63,0,0,0,149.12,141.55Z"/><circle id="e99c3387-15c3-4f28-bd4b-cb209b430e06" class="cls-19" cx="144.48" cy="141.53" r="2.7"/></g><g id="txt"><path class="cls-20" d="M121.22,172.94h-2.06l-.6-1.87h-3l-.6,1.87h-2l3.06-8.41h2.25Zm-3.09-3.33-.9-2.82a3,3,0,0,1-.14-.76h0a3.24,3.24,0,0,1-.15.74l-.91,2.84Z"/><path class="cls-20" d="M126.84,172.94h-5.38v-.77l3-3.87h-2.71v-1.36h5.06v.91L124,171.57h2.87Z"/><path class="cls-20" d="M133.54,172.94h-1.85V172h0a2.09,2.09,0,0,1-1.84,1.06c-1.39,0-2.08-.84-2.08-2.52v-3.62h1.84v3.45c0,.85.34,1.27,1,1.27a1,1,0,0,0,.8-.34,1.42,1.42,0,0,0,.29-.95v-3.43h1.85Z"/><path class="cls-20" d="M139,168.61a1.5,1.5,0,0,0-.78-.19,1.12,1.12,0,0,0-.94.45,1.88,1.88,0,0,0-.34,1.2v2.87H135.1v-6H137v1.11h0a1.61,1.61,0,0,1,1.59-1.22,1.12,1.12,0,0,1,.45.07Z"/><path class="cls-20" d="M145.22,170.46H141.3c.07.87.62,1.31,1.65,1.31a3.24,3.24,0,0,0,1.74-.47v1.34a4.63,4.63,0,0,1-2.16.44,2.78,2.78,0,0,1-3.06-3.05,3.2,3.2,0,0,1,.87-2.37,2.9,2.9,0,0,1,2.13-.87,2.62,2.62,0,0,1,2,.78,3,3,0,0,1,.72,2.11Zm-1.72-1.13c0-.86-.35-1.29-1-1.29a1,1,0,0,0-.77.37,1.65,1.65,0,0,0-.4.92Z"/><path class="cls-20" d="M154.82,172.94h-5v-8.41h1.89v6.87h3.12Z"/><path class="cls-20" d="M158.62,173.08a3.2,3.2,0,0,1-2.35-.84,3.47,3.47,0,0,1,0-4.61,3.35,3.35,0,0,1,2.41-.84,3.19,3.19,0,0,1,2.34.84,3,3,0,0,1,.85,2.22,3.13,3.13,0,0,1-.88,2.36A3.24,3.24,0,0,1,158.62,173.08Zm0-4.87a1.23,1.23,0,0,0-1,.45,2,2,0,0,0-.36,1.28c0,1.15.46,1.72,1.39,1.72s1.33-.59,1.33-1.77S159.57,168.21,158.67,168.21Z"/><path class="cls-20" d="M168,172.94h-1.76v-.87h0a1.94,1.94,0,0,1-1.79,1,1.85,1.85,0,0,1-1.37-.49,1.79,1.79,0,0,1-.5-1.32c0-1.17.69-1.84,2.07-2l1.63-.22c0-.65-.36-1-1.07-1a3.59,3.59,0,0,0-2,.64v-1.4a4.67,4.67,0,0,1,1.06-.35,5.63,5.63,0,0,1,1.22-.15,2.27,2.27,0,0,1,2.57,2.56Zm-1.74-2.44v-.41l-1.09.14c-.61.08-.91.35-.91.82a.71.71,0,0,0,.22.52.89.89,0,0,0,.6.2,1.1,1.1,0,0,0,.85-.36A1.29,1.29,0,0,0,166.24,170.5Z"/><path class="cls-20" d="M175.31,172.94h-1.85v-.83h0a2.07,2.07,0,0,1-1.86,1,2.27,2.27,0,0,1-1.81-.79,3.28,3.28,0,0,1-.69-2.22,3.58,3.58,0,0,1,.76-2.38,2.45,2.45,0,0,1,2-.9,1.7,1.7,0,0,1,1.62.83h0v-3.57h1.85ZM173.5,170v-.45a1.48,1.48,0,0,0-.34-1,1.16,1.16,0,0,0-.89-.38,1.12,1.12,0,0,0-1,.48A2.26,2.26,0,0,0,171,170a2,2,0,0,0,.34,1.22,1.19,1.19,0,0,0,1.84,0A1.86,1.86,0,0,0,173.5,170Z"/><path class="cls-20" d="M121.29,186.14v-8.41h3.06a3.83,3.83,0,0,1,2.16.52,1.64,1.64,0,0,1,.76,1.45,1.74,1.74,0,0,1-.46,1.19,2.41,2.41,0,0,1-1.18.71v0a2.37,2.37,0,0,1,1.44.67,1.86,1.86,0,0,1,.53,1.34,2.24,2.24,0,0,1-.82,1.83,3.48,3.48,0,0,1-2.26.68Zm1.89-7v2H124a1.39,1.39,0,0,0,.92-.28,1,1,0,0,0,.34-.79c0-.61-.47-.92-1.39-.92Zm0,3.4v2.21h1a1.6,1.6,0,0,0,1-.3,1,1,0,0,0,.37-.84.94.94,0,0,0-.37-.79,1.61,1.61,0,0,0-1-.28Z"/><path class="cls-20" d="M133.8,186.14H132v-.87h0a1.94,1.94,0,0,1-1.79,1,1.85,1.85,0,0,1-1.37-.49,1.75,1.75,0,0,1-.5-1.32c0-1.17.69-1.84,2.07-2l1.63-.22c0-.65-.36-1-1.07-1a3.59,3.59,0,0,0-2,.64v-1.4a4.67,4.67,0,0,1,1.06-.35,5.56,5.56,0,0,1,1.22-.15,2.27,2.27,0,0,1,2.57,2.56Zm-1.74-2.44v-.41l-1.09.14c-.61.08-.91.35-.91.82a.71.71,0,0,0,.22.52.89.89,0,0,0,.6.2,1.1,1.1,0,0,0,.85-.36A1.29,1.29,0,0,0,132.06,183.7Z"/><path class="cls-20" d="M137.11,186.14h-1.85v-8.89h1.85Z"/><path class="cls-20" d="M143.66,186.14h-1.75v-.87h0a2,2,0,0,1-1.79,1,1.85,1.85,0,0,1-1.37-.49,1.75,1.75,0,0,1-.5-1.32c0-1.17.68-1.84,2.06-2l1.63-.22c0-.65-.35-1-1.06-1a3.59,3.59,0,0,0-2,.64v-1.4a4.57,4.57,0,0,1,1.05-.35,5.71,5.71,0,0,1,1.23-.15,2.26,2.26,0,0,1,2.56,2.56Zm-1.74-2.44v-.41l-1.09.14c-.6.08-.9.35-.9.82a.67.67,0,0,0,.22.52.86.86,0,0,0,.59.2,1.08,1.08,0,0,0,.85-.36A1.29,1.29,0,0,0,141.92,183.7Z"/><path class="cls-20" d="M150.92,186.14h-1.84V182.8c0-.93-.34-1.39-1-1.39a1,1,0,0,0-.79.37,1.36,1.36,0,0,0-.31.93v3.43h-1.85v-6H147v.94h0a2.12,2.12,0,0,1,1.93-1.09c1.33,0,2,.82,2,2.47Z"/><path class="cls-20" d="M156.93,185.92a3.66,3.66,0,0,1-1.81.36,3,3,0,0,1-2.23-.84,2.83,2.83,0,0,1-.86-2.16,3.19,3.19,0,0,1,.92-2.41,3.38,3.38,0,0,1,2.45-.88,3.07,3.07,0,0,1,1.53.28v1.57a2.07,2.07,0,0,0-1.29-.43,1.7,1.7,0,0,0-1.26.46,1.75,1.75,0,0,0-.47,1.29,1.69,1.69,0,0,0,.45,1.25,1.62,1.62,0,0,0,1.22.45,2.42,2.42,0,0,0,1.35-.43Z"/><path class="cls-20" d="M163.54,183.66h-3.92c.07.87.61,1.31,1.65,1.31a3.24,3.24,0,0,0,1.74-.47v1.34a4.66,4.66,0,0,1-2.16.44,2.78,2.78,0,0,1-3.06-3.05,3.2,3.2,0,0,1,.87-2.37,2.88,2.88,0,0,1,2.13-.87,2.63,2.63,0,0,1,2,.78,3,3,0,0,1,.72,2.11Zm-1.72-1.13c0-.86-.35-1.29-1-1.29a1,1,0,0,0-.77.37,1.65,1.65,0,0,0-.4.92Z"/><path class="cls-20" d="M168.55,181.81a1.5,1.5,0,0,0-.78-.19,1.12,1.12,0,0,0-.94.45,1.88,1.88,0,0,0-.34,1.2v2.87h-1.85v-6h1.85v1.11h0A1.61,1.61,0,0,1,168.1,180a1.12,1.12,0,0,1,.45.07Z"/><g id="ad94e297-0e86-4eaf-aac0-d146ee9aea65"><path class="cls-21" d="M104.56,24.14l-3.63-3.75a1.73,1.73,0,0,1-.6.11,1.88,1.88,0,1,1,0-3.76,1.86,1.86,0,0,1,1.76,1.18h3.58v1.26h-3.52c-.06.15-.13.29-.2.44l3.34,3.45,1.82-2.76V11.65h-2.44l3.1-3.12,3,3.12h-2.44v6.77l4.59-7-4.63-4.63a.8.8,0,0,0-1.13,0h0L96,18a.8.8,0,0,0,0,1.13h0l11.21,11.21-4-4Z"/><path class="cls-22" d="M107.08,24.3v-4l-1.82,2.77,1.34,1.43A1.2,1.2,0,0,1,107.08,24.3Z"/><path class="cls-22" d="M119.48,18l-6.56-6.57-4.59,7v5.89a1.27,1.27,0,0,1,.41.23l4.82-4.87a2.23,2.23,0,0,1-.24-.49h-3.61V17.92h3.66a1.87,1.87,0,1,1,1.74,2.58,3.12,3.12,0,0,1-.52-.08l-5.12,5.16a2.67,2.67,0,0,1,.08.48,1.88,1.88,0,0,1-3.76.15,1.83,1.83,0,0,1,.1-.7l-1.33-1.33-1.43,2.13,4,4a.79.79,0,0,0,1.12,0h0l11.21-11.2a.79.79,0,0,0,0-1.12h0Z"/><path class="cls-23" d="M113.37,17.92h-3.66v1.26h3.61a1.77,1.77,0,0,1-.09-.56A1.86,1.86,0,0,1,113.37,17.92Z"/><path class="cls-23" d="M102.12,19.18h3.52V17.92h-3.58a1.69,1.69,0,0,1,.15.7A1.77,1.77,0,0,1,102.12,19.18Z"/><path class="cls-23" d="M109.47,25.58l5.12-5.16a2.07,2.07,0,0,1-1-.75l-4.82,4.87A1.7,1.7,0,0,1,109.47,25.58Z"/><path class="cls-23" d="M106.64,24.5l-1.34-1.43-3.38-3.45a2,2,0,0,1-1,.77l3.63,3.75,1.33,1.33A1.79,1.79,0,0,1,106.64,24.5Z"/><path class="cls-1" d="M110.77,11.65l-3-3.12-3.08,3.12h2.44V24.3a1.35,1.35,0,0,0-.44.2,1.88,1.88,0,0,0-.51,2.6,1.93,1.93,0,0,0,1,.74,1.87,1.87,0,0,0,2.33-1.25,1.89,1.89,0,0,0,.08-.53,2.67,2.67,0,0,0-.08-.48,1.72,1.72,0,0,0-.73-1,1.27,1.27,0,0,0-.41-.23V11.65Zm-3,15.45a1,1,0,1,1,1-1h0A1,1,0,0,1,107.77,27.1Z"/><path class="cls-1" d="M101.92,19.62c.07-.15.14-.29.2-.44a1.77,1.77,0,0,0,.09-.56,1.69,1.69,0,0,0-.15-.7,1.87,1.87,0,1,0-1.73,2.58,1.73,1.73,0,0,0,.6-.11A1.9,1.9,0,0,0,101.92,19.62Zm-1.59,0a1,1,0,1,1,1-1h0a1.05,1.05,0,0,1-1,1.08h0Z"/><path class="cls-1" d="M114.59,20.42a3.12,3.12,0,0,0,.52.08,1.88,1.88,0,1,0-1.74-2.58,1.86,1.86,0,0,0-.14.7,1.77,1.77,0,0,0,.09.56,2.23,2.23,0,0,0,.24.49A2,2,0,0,0,114.59,20.42Zm.52-2.83a1,1,0,0,1,.92,1.08.17.17,0,0,1,0,.07,1,1,0,0,1-2.06,0,1,1,0,0,1,.84-1.14h.07a1,1,0,0,1,.24,0Z"/><path class="cls-24" d="M107.77,25a1,1,0,1,0,0,2.08,1,1,0,0,0,1-1h0a1,1,0,0,0-.92-1.08Z"/><circle class="cls-24" cx="100.33" cy="18.62" r="1.04"/><path class="cls-24" d="M115.11,19.66a1,1,0,1,0,0-2.08,1,1,0,0,0-1,1h0a1,1,0,0,0,.92,1.08Z"/></g><path class="cls-20" d="M133.4,21.86h-2.17l-1.31-2.16c-.1-.16-.19-.31-.28-.44a2.39,2.39,0,0,0-.27-.33,1.12,1.12,0,0,0-.29-.21.71.71,0,0,0-.32-.07h-.51v3.21h-1.9v-8.4h3c2,0,3.06.76,3.06,2.29a2.37,2.37,0,0,1-.13.81,2.33,2.33,0,0,1-.38.67,2.74,2.74,0,0,1-.6.52,3.47,3.47,0,0,1-.78.34v0a1.18,1.18,0,0,1,.37.19,2.45,2.45,0,0,1,.34.31,3.79,3.79,0,0,1,.31.37c.1.14.19.27.27.4Zm-5.15-7v2.34h.82a1.36,1.36,0,0,0,1-.35,1.19,1.19,0,0,0,.38-.89c0-.73-.44-1.1-1.32-1.1Z"/><path class="cls-20" d="M139.1,19.39h-3.92c.07.87.61,1.31,1.65,1.31a3.24,3.24,0,0,0,1.74-.47v1.34a4.66,4.66,0,0,1-2.16.44,3.09,3.09,0,0,1-2.26-.8,3.08,3.08,0,0,1-.8-2.25,3.2,3.2,0,0,1,.87-2.37,2.88,2.88,0,0,1,2.13-.87,2.63,2.63,0,0,1,2,.78,3,3,0,0,1,.72,2.11Zm-1.51-4.47h-1.33L134.42,13h1.64Zm-.21,3.34c0-.86-.35-1.29-1-1.29a1,1,0,0,0-.77.37,1.65,1.65,0,0,0-.4.92Z"/><path class="cls-20" d="M146.08,21.18a3.4,3.4,0,0,1-1,2.59,3.9,3.9,0,0,1-2.8.91,4.46,4.46,0,0,1-1.92-.34V22.78a3.68,3.68,0,0,0,1.87.54,2,2,0,0,0,1.45-.5,1.76,1.76,0,0,0,.52-1.34V21h0a2.07,2.07,0,0,1-1.87,1,2.22,2.22,0,0,1-1.82-.81,3.28,3.28,0,0,1-.68-2.17,3.67,3.67,0,0,1,.75-2.42,2.47,2.47,0,0,1,2-.89,1.83,1.83,0,0,1,1.64.84h0v-.7h1.85ZM144.25,19v-.47a1.48,1.48,0,0,0-.33-1,1.1,1.1,0,0,0-.88-.4,1.15,1.15,0,0,0-1,.48,2.28,2.28,0,0,0-.35,1.35,1.87,1.87,0,0,0,.34,1.19,1.07,1.07,0,0,0,.91.43,1.13,1.13,0,0,0,.93-.44A1.78,1.78,0,0,0,144.25,19Z"/><path class="cls-20" d="M149.48,21.86h-1.85V13h1.85Z"/><path class="cls-20" d="M156.43,19.39h-3.91c.06.87.61,1.31,1.64,1.31a3.24,3.24,0,0,0,1.74-.47v1.34a4.63,4.63,0,0,1-2.16.44,3.09,3.09,0,0,1-2.26-.8,3.08,3.08,0,0,1-.8-2.25,3.2,3.2,0,0,1,.87-2.37,2.9,2.9,0,0,1,2.13-.87,2.62,2.62,0,0,1,2,.78,3,3,0,0,1,.72,2.11Zm-1.72-1.13c0-.86-.35-1.29-1-1.29a1,1,0,0,0-.77.37,1.65,1.65,0,0,0-.4.92Z"/><path class="cls-20" d="M168.58,21.86h-1.91l-3.46-5.27a7.36,7.36,0,0,1-.42-.7h0c0,.3.05.75.05,1.36v4.61H161v-8.4h2l3.34,5.12c.15.23.29.46.42.68h0a8.94,8.94,0,0,1-.05-1.15V13.46h1.79Z"/><path class="cls-20" d="M177.89,21.86h-2.06l-.6-1.86h-3l-.59,1.86H169.6l3.06-8.4h2.24Zm-3.09-3.32-.9-2.82a3,3,0,0,1-.14-.76h0a3.06,3.06,0,0,1-.15.73l-.91,2.85Z"/><path class="cls-20" d="M184,15h-2.39v6.86h-1.9V15h-2.39V13.46H184Z"/><path class="cls-20" d="M194.13,21.86h-1.85V21h0a2.07,2.07,0,0,1-1.86,1,2.27,2.27,0,0,1-1.81-.79,3.28,3.28,0,0,1-.68-2.22,3.62,3.62,0,0,1,.75-2.39,2.5,2.5,0,0,1,2-.89,1.69,1.69,0,0,1,1.62.83h0V13h1.85ZM192.32,19V18.5a1.41,1.41,0,0,0-.34-1,1.15,1.15,0,0,0-.89-.38,1.12,1.12,0,0,0-1,.48,2.24,2.24,0,0,0-.34,1.33,2,2,0,0,0,.33,1.22,1.11,1.11,0,0,0,.93.42,1.1,1.1,0,0,0,.91-.45A1.86,1.86,0,0,0,192.32,19Z"/><path class="cls-20" d="M201.08,19.39h-3.91c.06.87.61,1.31,1.65,1.31a3.24,3.24,0,0,0,1.74-.47v1.34a4.7,4.7,0,0,1-2.17.44,3.06,3.06,0,0,1-2.25-.8,3,3,0,0,1-.8-2.25,3.24,3.24,0,0,1,.86-2.37,2.9,2.9,0,0,1,2.14-.87,2.63,2.63,0,0,1,2,.78,3,3,0,0,1,.71,2.11Zm-1.71-1.13q0-1.29-1.05-1.29a1,1,0,0,0-.77.37,1.71,1.71,0,0,0-.39.92Z"/><path class="cls-20" d="M209.12,21.79a2.62,2.62,0,0,1-1.23.22,1.76,1.76,0,0,1-2-2V17.23h-1V15.86h1V14.57l1.85-.53v1.82h1.34v1.37h-1.34v2.43c0,.62.24.93.74.93a1.17,1.17,0,0,0,.6-.17Z"/><path class="cls-20" d="M214.08,17.53a1.61,1.61,0,0,0-.78-.18,1.1,1.1,0,0,0-.94.45A1.88,1.88,0,0,0,212,19v2.86h-1.85v-6H212V17h0a1.6,1.6,0,0,1,1.58-1.22,1.14,1.14,0,0,1,.46.07Z"/><path class="cls-20" d="M219.93,21.86h-1.75V21h0a1.94,1.94,0,0,1-1.79,1,1.85,1.85,0,0,1-1.37-.49,1.76,1.76,0,0,1-.5-1.33c0-1.16.69-1.83,2.06-2l1.63-.22c0-.65-.35-1-1.06-1a3.59,3.59,0,0,0-2,.64v-1.4a4.67,4.67,0,0,1,1.06-.35,5.56,5.56,0,0,1,1.22-.15,2.26,2.26,0,0,1,2.56,2.56Zm-1.74-2.43V19l-1.09.14c-.6.08-.9.35-.9.82a.67.67,0,0,0,.22.52.89.89,0,0,0,.6.2,1.11,1.11,0,0,0,.85-.36A1.35,1.35,0,0,0,218.19,19.43Z"/><path class="cls-20" d="M225.31,14.4a1.92,1.92,0,0,0-.68-.14c-.6,0-.89.32-.89,1v.63h1.37v1.37h-1.37v4.63h-1.85V17.23h-1V15.86h1v-.74a2.15,2.15,0,0,1,.67-1.65,2.53,2.53,0,0,1,1.82-.63,3.09,3.09,0,0,1,.93.12Z"/><path class="cls-20" d="M226.94,14.92a1.1,1.1,0,0,1-.77-.28.92.92,0,0,1-.3-.69.88.88,0,0,1,.3-.68,1.14,1.14,0,0,1,.77-.26,1.16,1.16,0,0,1,.77.26A.91.91,0,0,1,228,14a.92.92,0,0,1-.29.7A1.11,1.11,0,0,1,226.94,14.92Zm.91,6.94H226v-6h1.85Z"/><path class="cls-20" d="M234,21.65a3.73,3.73,0,0,1-1.82.36,3,3,0,0,1-2.23-.84,2.9,2.9,0,0,1-.86-2.16A3.19,3.19,0,0,1,230,16.6a3.38,3.38,0,0,1,2.45-.88A3.14,3.14,0,0,1,234,16v1.57a2.12,2.12,0,0,0-1.3-.43,1.7,1.7,0,0,0-1.26.46,1.75,1.75,0,0,0-.47,1.29,1.69,1.69,0,0,0,.45,1.25,1.62,1.62,0,0,0,1.22.45,2.47,2.47,0,0,0,1.36-.43Z"/><path class="cls-20" d="M243.87,19.39H240c.06.87.61,1.31,1.64,1.31a3.24,3.24,0,0,0,1.74-.47v1.34a4.63,4.63,0,0,1-2.16.44,3.09,3.09,0,0,1-2.26-.8,3.08,3.08,0,0,1-.8-2.25,3.2,3.2,0,0,1,.87-2.37,2.9,2.9,0,0,1,2.13-.87,2.62,2.62,0,0,1,2,.78,3,3,0,0,1,.72,2.11Zm-1.72-1.13c0-.86-.35-1.29-1-1.29a1,1,0,0,0-.77.37,1.65,1.65,0,0,0-.4.92Z"/><path class="cls-20" d="M250.76,21.86h-1.84V18.53c0-.93-.33-1.39-1-1.39a1,1,0,0,0-.79.37,1.36,1.36,0,0,0-.31.93v3.42H245v-6h1.85v.95h0a2.13,2.13,0,0,1,1.93-1.09c1.33,0,2,.82,2,2.47Z"/><path class="cls-20" d="M255.86,21.79a2.7,2.7,0,0,1-1.24.22,1.77,1.77,0,0,1-2-2V17.23h-1V15.86h1V14.57l1.85-.53v1.82h1.35v1.37h-1.35v2.43c0,.62.25.93.74.93a1.2,1.2,0,0,0,.61-.17Z"/><path class="cls-20" d="M260.81,17.53a1.61,1.61,0,0,0-.78-.18,1.12,1.12,0,0,0-.94.45,1.88,1.88,0,0,0-.34,1.2v2.86H256.9v-6h1.85V17h0a1.61,1.61,0,0,1,1.59-1.22,1.12,1.12,0,0,1,.45.07Z"/><path class="cls-20" d="M266.67,21.86h-1.75V21h0a1.94,1.94,0,0,1-1.79,1,1.85,1.85,0,0,1-1.37-.49,1.8,1.8,0,0,1-.5-1.33q0-1.74,2.07-2l1.63-.22c0-.65-.36-1-1.07-1a3.64,3.64,0,0,0-2,.64v-1.4a4.67,4.67,0,0,1,1.06-.35,5.63,5.63,0,0,1,1.22-.15,2.27,2.27,0,0,1,2.57,2.56Zm-1.74-2.43V19l-1.09.14c-.6.08-.91.35-.91.82a.71.71,0,0,0,.22.52.89.89,0,0,0,.6.2,1.1,1.1,0,0,0,.85-.36A1.31,1.31,0,0,0,264.93,19.43Z"/><path class="cls-20" d="M273.93,21.86h-1.85V18.53c0-.93-.33-1.39-1-1.39a1,1,0,0,0-.79.37,1.41,1.41,0,0,0-.31.93v3.42h-1.85v-6H270v.95h0a2.11,2.11,0,0,1,1.92-1.09c1.33,0,2,.82,2,2.47Z"/><path class="cls-20" d="M279,21.79a2.67,2.67,0,0,1-1.24.22c-1.3,0-1.95-.68-1.95-2V17.23h-1V15.86h1V14.57l1.84-.53v1.82H279v1.37h-1.35v2.43q0,.93.75.93a1.19,1.19,0,0,0,.6-.17Z"/><path class="cls-20" d="M258.59,67.33v-8.4h2.67a3.18,3.18,0,0,1,1.93.53,1.65,1.65,0,0,1,.71,1.39,2,2,0,0,1-.4,1.24,2.19,2.19,0,0,1-1.12.75v0a2.13,2.13,0,0,1,1.38.64,1.93,1.93,0,0,1,.52,1.41,2.1,2.1,0,0,1-.85,1.74,3.32,3.32,0,0,1-2.14.67ZM260,60.05v2.39h.9a1.71,1.71,0,0,0,1.14-.35,1.16,1.16,0,0,0,.42-1q0-1.08-1.44-1.08Zm0,3.51v2.66h1.19a1.84,1.84,0,0,0,1.21-.36,1.24,1.24,0,0,0,.42-1c0-.87-.6-1.3-1.81-1.3Z"/><path class="cls-20" d="M270.05,67.33h-1.31v-.94h0a2,2,0,0,1-1.82,1.08A1.94,1.94,0,0,1,265.5,67a1.69,1.69,0,0,1-.5-1.27c0-1.13.66-1.79,2-2l1.78-.25c0-.86-.4-1.29-1.22-1.29a2.9,2.9,0,0,0-1.93.74V61.75a4.25,4.25,0,0,1,2.19-.56,2,2,0,0,1,2.27,2.24Zm-1.31-3-1.26.18a2,2,0,0,0-.88.28.94.94,0,0,0,0,1.36,1.05,1.05,0,0,0,.73.24,1.34,1.34,0,0,0,1-.44,1.5,1.5,0,0,0,.41-1.1Z"/><path class="cls-20" d="M275.77,67.05a3.33,3.33,0,0,1-1.71.42,2.89,2.89,0,0,1-2.15-.83,3,3,0,0,1-.82-2.17,3.24,3.24,0,0,1,.88-2.38,3.15,3.15,0,0,1,2.36-.9,3.43,3.43,0,0,1,1.44.29v1.26a2.18,2.18,0,0,0-1.33-.47,1.83,1.83,0,0,0-1.41.59,2.1,2.1,0,0,0-.55,1.52,2.05,2.05,0,0,0,.51,1.47,1.85,1.85,0,0,0,1.4.54,2.18,2.18,0,0,0,1.38-.52Z"/><path class="cls-20" d="M282.32,67.33H280.6l-2.34-2.88h0v2.88h-1.36V58.45h1.36v5.63h0l2.21-2.75h1.63l-2.48,2.89Z"/><path class="cls-20" d="M287.8,67.33h-4.71v-8.4h4.53v1.18h-3.14v2.38h2.89v1.18h-2.89v2.48h3.32Z"/><path class="cls-20" d="M294.25,67.33h-1.36V64c0-1.12-.4-1.68-1.19-1.68a1.31,1.31,0,0,0-1,.46,1.79,1.79,0,0,0-.4,1.18v3.42h-1.36v-6h1.36v1h0a2.14,2.14,0,0,1,1.95-1.14,1.79,1.79,0,0,1,1.49.64,2.79,2.79,0,0,1,.52,1.83Z"/><path class="cls-20" d="M301.12,67.33h-1.36v-1h0a2.35,2.35,0,0,1-3.79.36,3.32,3.32,0,0,1-.67-2.2,3.62,3.62,0,0,1,.74-2.38,2.4,2.4,0,0,1,2-.9,1.87,1.87,0,0,1,1.76,1h0V58.45h1.36Zm-1.34-2.74V63.8a1.56,1.56,0,0,0-.41-1.08,1.4,1.4,0,0,0-1.07-.45,1.42,1.42,0,0,0-1.19.57,2.56,2.56,0,0,0-.44,1.58,2.24,2.24,0,0,0,.42,1.44,1.34,1.34,0,0,0,1.13.53,1.42,1.42,0,0,0,1.13-.51A1.92,1.92,0,0,0,299.78,64.59Z"/><path class="cls-20" d="M306.28,62.82a.82.82,0,0,1-.6-.23.76.76,0,0,1,0-1.11.83.83,0,0,1,.6-.24.85.85,0,0,1,.61.24.76.76,0,0,1,0,1.11A.84.84,0,0,1,306.28,62.82Zm0,4.64a.86.86,0,0,1-.6-.23.76.76,0,0,1-.24-.56.77.77,0,0,1,.24-.56.86.86,0,0,1,.6-.23.89.89,0,0,1,.61.23.77.77,0,0,1,.24.56.76.76,0,0,1-.24.56A.89.89,0,0,1,306.28,67.46Z"/><path class="cls-20" d="M313,64.28v3h-1.39v-8.4h2.55a3.39,3.39,0,0,1,2.25.67,2.35,2.35,0,0,1,.79,1.9,2.59,2.59,0,0,1-.83,2,3.14,3.14,0,0,1-2.25.78Zm0-4.2v3.07h.9a2,2,0,0,0,1.37-.42,1.5,1.5,0,0,0,.47-1.17c0-1-.58-1.48-1.72-1.48Z"/><path class="cls-20" d="M320.46,67.47a3,3,0,0,1-2.22-.84,3,3,0,0,1-.83-2.23,3,3,0,0,1,3.2-3.21,2.86,2.86,0,0,1,2.19.83,3.66,3.66,0,0,1-.06,4.59A3.08,3.08,0,0,1,320.46,67.47Zm.06-5.2a1.56,1.56,0,0,0-1.26.56,2.38,2.38,0,0,0-.46,1.54,2.21,2.21,0,0,0,.47,1.48,1.57,1.57,0,0,0,1.25.54,1.52,1.52,0,0,0,1.24-.53,2.41,2.41,0,0,0,.43-1.52,2.44,2.44,0,0,0-.43-1.53A1.5,1.5,0,0,0,320.52,62.27Z"/><path class="cls-20" d="M328.21,62.63a1.13,1.13,0,0,0-.71-.2,1.2,1.2,0,0,0-1,.55,2.41,2.41,0,0,0-.41,1.48v2.87h-1.35v-6h1.35v1.24h0a2.09,2.09,0,0,1,.61-1,1.37,1.37,0,0,1,.92-.36,1.1,1.1,0,0,1,.57.12Z"/><path class="cls-20" d="M332.44,67.27a2.43,2.43,0,0,1-1.05.19c-1.17,0-1.75-.55-1.75-1.67V62.4h-1V61.33h1V59.94l1.36-.39v1.78h1.44V62.4H331v3a1.24,1.24,0,0,0,.19.76.83.83,0,0,0,.65.23,1,1,0,0,0,.6-.2Z"/><path class="cls-20" d="M337,62.82a.84.84,0,0,1-.6-.23.76.76,0,0,1,0-1.11.88.88,0,0,1,1.21,0,.74.74,0,0,1,0,1.11A.84.84,0,0,1,337,62.82Zm0,4.64a.88.88,0,0,1-.6-.23.76.76,0,0,1-.24-.56.77.77,0,0,1,.24-.56.91.91,0,0,1,1.21,0,.78.78,0,0,1,.25.56.77.77,0,0,1-.25.56A.89.89,0,0,1,337,67.46Z"/><path class="cls-20" d="M342,67V65.74a2.84,2.84,0,0,0,1.85.65,2.13,2.13,0,0,0,1.34-.38,1.23,1.23,0,0,0,.5-1c0-1-.73-1.43-2.19-1.43h-.65V62.46h.62c1.3,0,1.94-.45,1.94-1.35s-.5-1.24-1.51-1.24a2.51,2.51,0,0,0-1.59.6v-1.2a4.08,4.08,0,0,1,2-.48,2.69,2.69,0,0,1,1.8.56,1.79,1.79,0,0,1,.67,1.44,2,2,0,0,1-1.69,2.13v0a2.24,2.24,0,0,1,1.44.63,1.91,1.91,0,0,1,.53,1.37,2.27,2.27,0,0,1-.85,1.83,3.46,3.46,0,0,1-2.24.69A3.81,3.81,0,0,1,342,67Z"/><path class="cls-20" d="M348.4,67V65.74a2.86,2.86,0,0,0,1.85.65,2.11,2.11,0,0,0,1.34-.38,1.23,1.23,0,0,0,.5-1c0-1-.73-1.43-2.18-1.43h-.66V62.46h.63c1.29,0,1.94-.45,1.94-1.35s-.51-1.24-1.52-1.24a2.46,2.46,0,0,0-1.58.6v-1.2a4.05,4.05,0,0,1,2-.48,2.68,2.68,0,0,1,1.79.56,1.79,1.79,0,0,1,.67,1.44,2,2,0,0,1-1.68,2.13v0a2.23,2.23,0,0,1,1.43.63,1.91,1.91,0,0,1,.53,1.37,2.24,2.24,0,0,1-.85,1.83,3.44,3.44,0,0,1-2.24.69A3.83,3.83,0,0,1,348.4,67Z"/><path class="cls-20" d="M354.63,65a2.76,2.76,0,0,1,.09-.71,2.67,2.67,0,0,1,.28-.62,2,2,0,0,1,.45-.52,2.56,2.56,0,0,1,.65-.37,2.52,2.52,0,0,1-.87-.78,1.89,1.89,0,0,1-.32-1.06,1.86,1.86,0,0,1,.19-.85,2,2,0,0,1,.53-.68,2.54,2.54,0,0,1,.79-.45,3,3,0,0,1,1-.16,2.91,2.91,0,0,1,1,.16,2.6,2.6,0,0,1,.8.45,2,2,0,0,1,.52.68,1.95,1.95,0,0,1-.13,1.91,2.49,2.49,0,0,1-.86.78,2.34,2.34,0,0,1,.64.37,2.05,2.05,0,0,1,.47.51,2,2,0,0,1,.28.63,2.71,2.71,0,0,1,.1.71,2.36,2.36,0,0,1-.21,1,2.39,2.39,0,0,1-.57.79,2.75,2.75,0,0,1-.89.5,3.41,3.41,0,0,1-1.14.18,3.33,3.33,0,0,1-1.12-.18,2.75,2.75,0,0,1-.89-.5,2.28,2.28,0,0,1-.58-.79A2.36,2.36,0,0,1,354.63,65Zm1.33-.12a1.83,1.83,0,0,0,.1.64,1.27,1.27,0,0,0,.3.49,1.35,1.35,0,0,0,.47.3,1.46,1.46,0,0,0,.6.11,1.64,1.64,0,0,0,.6-.11,1.21,1.21,0,0,0,.46-.31,1.37,1.37,0,0,0,.31-.49,1.77,1.77,0,0,0,.11-.63,1.74,1.74,0,0,0-.1-.61,1.44,1.44,0,0,0-.3-.49,1.62,1.62,0,0,0-.47-.34,1.48,1.48,0,0,0-.61-.12,1.58,1.58,0,0,0-.58.11,1.33,1.33,0,0,0-.47.33,1.46,1.46,0,0,0-.31.49A1.81,1.81,0,0,0,356,64.87Zm.29-3.8a1.25,1.25,0,0,0,.34.88,1,1,0,0,0,.37.26,1.06,1.06,0,0,0,.46.1,1,1,0,0,0,.46-.1,1.12,1.12,0,0,0,.38-.26,1.14,1.14,0,0,0,.25-.39,1.16,1.16,0,0,0,.1-.49,1.33,1.33,0,0,0-.09-.49,1.3,1.3,0,0,0-.25-.39,1.12,1.12,0,0,0-.38-.26,1.19,1.19,0,0,0-.47-.09,1.28,1.28,0,0,0-.48.09,1.26,1.26,0,0,0-.37.27,1.28,1.28,0,0,0-.24.39A1.31,1.31,0,0,0,356.25,61.07Z"/><path class="cls-20" d="M366.66,62.67a7.33,7.33,0,0,1-.28,2.17,4.17,4.17,0,0,1-.75,1.49,3,3,0,0,1-1.11.87,3.54,3.54,0,0,1-1.38.28,4,4,0,0,1-.49,0l-.46-.08a3.33,3.33,0,0,1-.4-.1,1.79,1.79,0,0,1-.29-.11V65.94a2.09,2.09,0,0,0,.3.15,3.09,3.09,0,0,0,.4.14,3.13,3.13,0,0,0,.44.1,2.28,2.28,0,0,0,.45,0,2.2,2.2,0,0,0,.9-.19,1.78,1.78,0,0,0,.7-.58,2.73,2.73,0,0,0,.44-.94,5.16,5.16,0,0,0,.16-1.31h0a1.48,1.48,0,0,1-.28.35,1.65,1.65,0,0,1-.39.29,2.28,2.28,0,0,1-.5.21,2.15,2.15,0,0,1-.58.07,2.63,2.63,0,0,1-1-.18,2.39,2.39,0,0,1-.79-.53,2.3,2.3,0,0,1-.52-.82,2.94,2.94,0,0,1-.19-1.09,3.14,3.14,0,0,1,.21-1.18,2.77,2.77,0,0,1,.6-.91,2.61,2.61,0,0,1,.9-.57,2.9,2.9,0,0,1,1.12-.2,2.76,2.76,0,0,1,1.07.21,2.24,2.24,0,0,1,.89.68,3.38,3.38,0,0,1,.61,1.2A6.23,6.23,0,0,1,366.66,62.67Zm-1.42-.89a2.6,2.6,0,0,0-.11-.77,1.73,1.73,0,0,0-.3-.59,1.29,1.29,0,0,0-.46-.38,1.27,1.27,0,0,0-.58-.14,1.41,1.41,0,0,0-.54.11,1.45,1.45,0,0,0-.45.33,1.81,1.81,0,0,0-.3.51,2,2,0,0,0-.11.66,2.1,2.1,0,0,0,.11.7,1.4,1.4,0,0,0,.3.52,1.25,1.25,0,0,0,.47.31,1.46,1.46,0,0,0,.6.11,1.24,1.24,0,0,0,.54-.11,1.3,1.3,0,0,0,.43-.29,1.21,1.21,0,0,0,.29-.44A1.32,1.32,0,0,0,365.24,61.78Z"/><path class="cls-20" d="M258.59,144v-8.4h2.67a3.18,3.18,0,0,1,1.93.53,1.65,1.65,0,0,1,.71,1.39,2,2,0,0,1-.4,1.24,2.19,2.19,0,0,1-1.12.75v0a2.13,2.13,0,0,1,1.38.64,1.93,1.93,0,0,1,.52,1.41,2.1,2.1,0,0,1-.85,1.74,3.32,3.32,0,0,1-2.14.67Zm1.39-7.28v2.39h.9a1.71,1.71,0,0,0,1.14-.35,1.17,1.17,0,0,0,.42-1c0-.71-.48-1.07-1.44-1.07Zm0,3.51v2.66h1.19a1.84,1.84,0,0,0,1.21-.36,1.24,1.24,0,0,0,.42-1c0-.87-.6-1.3-1.81-1.3Z"/><path class="cls-20" d="M270.05,144h-1.31v-.94h0a2,2,0,0,1-1.82,1.08,1.94,1.94,0,0,1-1.39-.48,1.69,1.69,0,0,1-.5-1.27c0-1.13.66-1.79,2-2l1.78-.25c0-.86-.4-1.29-1.22-1.29a2.9,2.9,0,0,0-1.93.74v-1.19a4.25,4.25,0,0,1,2.19-.56,2,2,0,0,1,2.27,2.24Zm-1.31-2.95-1.26.18a2,2,0,0,0-.88.28.94.94,0,0,0,0,1.36,1.05,1.05,0,0,0,.73.24,1.34,1.34,0,0,0,1-.44,1.5,1.5,0,0,0,.41-1.1Z"/><path class="cls-20" d="M275.77,143.72a3.33,3.33,0,0,1-1.71.42,2.89,2.89,0,0,1-2.15-.83,3,3,0,0,1-.82-2.17,3.24,3.24,0,0,1,.88-2.38,3.15,3.15,0,0,1,2.36-.9,3.43,3.43,0,0,1,1.44.29v1.26a2.18,2.18,0,0,0-1.33-.47,1.83,1.83,0,0,0-1.41.59,2.1,2.1,0,0,0-.55,1.52,2.05,2.05,0,0,0,.51,1.47,1.85,1.85,0,0,0,1.4.54,2.18,2.18,0,0,0,1.38-.52Z"/><path class="cls-20" d="M282.32,144H280.6l-2.34-2.88h0V144h-1.36v-8.88h1.36v5.63h0l2.21-2.75h1.63l-2.48,2.89Z"/><path class="cls-20" d="M287.8,144h-4.71v-8.4h4.53v1.18h-3.14v2.38h2.89v1.18h-2.89v2.48h3.32Z"/><path class="cls-20" d="M294.25,144h-1.36v-3.38c0-1.12-.4-1.68-1.19-1.68a1.31,1.31,0,0,0-1,.46,1.79,1.79,0,0,0-.4,1.18V144h-1.36v-6h1.36v1h0a2.14,2.14,0,0,1,1.95-1.14,1.79,1.79,0,0,1,1.49.64,2.79,2.79,0,0,1,.52,1.83Z"/><path class="cls-20" d="M301.12,144h-1.36v-1h0a2.34,2.34,0,0,1-3.79.35,3.28,3.28,0,0,1-.67-2.19,3.62,3.62,0,0,1,.74-2.38,2.4,2.4,0,0,1,2-.9,1.87,1.87,0,0,1,1.76,1h0v-3.71h1.36Zm-1.34-2.74v-.79a1.56,1.56,0,0,0-.41-1.08,1.4,1.4,0,0,0-1.07-.45,1.42,1.42,0,0,0-1.19.57,2.56,2.56,0,0,0-.44,1.58,2.24,2.24,0,0,0,.42,1.44,1.34,1.34,0,0,0,1.13.53,1.42,1.42,0,0,0,1.13-.51A1.92,1.92,0,0,0,299.78,141.26Z"/><path class="cls-20" d="M306.28,139.49a.82.82,0,0,1-.6-.23.76.76,0,0,1,0-1.11.83.83,0,0,1,.6-.24.85.85,0,0,1,.61.24.76.76,0,0,1,0,1.11A.84.84,0,0,1,306.28,139.49Zm0,4.64a.86.86,0,0,1-.6-.23.76.76,0,0,1-.24-.56.77.77,0,0,1,.24-.56.86.86,0,0,1,.6-.23.89.89,0,0,1,.61.23.77.77,0,0,1,.24.56.76.76,0,0,1-.24.56A.89.89,0,0,1,306.28,144.13Z"/><path class="cls-20" d="M313,141V144h-1.39v-8.4h2.55a3.39,3.39,0,0,1,2.25.67,2.35,2.35,0,0,1,.79,1.9,2.59,2.59,0,0,1-.83,2,3.14,3.14,0,0,1-2.25.78Zm0-4.2v3.07h.9a2,2,0,0,0,1.37-.42,1.5,1.5,0,0,0,.47-1.17c0-1-.58-1.48-1.72-1.48Z"/><path class="cls-20" d="M320.46,144.14a3,3,0,0,1-2.22-.84,3,3,0,0,1-.83-2.23,3,3,0,0,1,3.2-3.21,2.86,2.86,0,0,1,2.19.83,3.66,3.66,0,0,1-.06,4.59A3.08,3.08,0,0,1,320.46,144.14Zm.06-5.2a1.56,1.56,0,0,0-1.26.56,2.38,2.38,0,0,0-.46,1.54,2.21,2.21,0,0,0,.47,1.48,1.57,1.57,0,0,0,1.25.54,1.52,1.52,0,0,0,1.24-.53,2.41,2.41,0,0,0,.43-1.52,2.44,2.44,0,0,0-.43-1.53A1.5,1.5,0,0,0,320.52,138.94Z"/><path class="cls-20" d="M328.21,139.29a1.28,1.28,0,0,0-1.72.36,2.41,2.41,0,0,0-.41,1.48V144h-1.35v-6h1.35v1.24h0a2.09,2.09,0,0,1,.61-1,1.37,1.37,0,0,1,.92-.36,1.1,1.1,0,0,1,.57.12Z"/><path class="cls-20" d="M332.44,143.94a2.43,2.43,0,0,1-1.05.19c-1.17,0-1.75-.55-1.75-1.67v-3.39h-1V138h1v-1.39l1.36-.39V138h1.44v1.07H331v3a1.24,1.24,0,0,0,.19.76.83.83,0,0,0,.65.23,1,1,0,0,0,.6-.2Z"/><path class="cls-20" d="M341,135.6V141h1.25v1.13H341V144h-1.32v-1.85h-3.8V141c.34-.38.69-.8,1.06-1.26s.7-.91,1-1.38.64-.94.93-1.41.52-.93.72-1.36ZM339.65,141V137.5a22,22,0,0,1-1.26,2c-.42.57-.81,1.08-1.17,1.52Z"/><path class="cls-20" d="M347.64,135.6V141h1.25v1.13h-1.25V144h-1.32v-1.85h-3.8V141c.35-.38.7-.8,1.06-1.26s.71-.91,1-1.38.65-.94.93-1.41a12.13,12.13,0,0,0,.72-1.36ZM346.32,141V137.5a18.36,18.36,0,0,1-1.26,2c-.41.57-.8,1.08-1.17,1.52Z"/><path class="cls-20" d="M349.61,143.69v-1.28a2.88,2.88,0,0,0,1.85.65,2.11,2.11,0,0,0,1.34-.38,1.21,1.21,0,0,0,.5-1c0-1-.73-1.43-2.18-1.43h-.65v-1.09h.62c1.29,0,1.94-.45,1.94-1.35s-.51-1.24-1.51-1.24a2.47,2.47,0,0,0-1.59.6v-1.2a4.05,4.05,0,0,1,2-.48,2.67,2.67,0,0,1,1.79.56,1.8,1.8,0,0,1,.68,1.44,2,2,0,0,1-1.69,2.13v0a2.23,2.23,0,0,1,1.43.63,1.87,1.87,0,0,1,.53,1.37,2.24,2.24,0,0,1-.85,1.83,3.43,3.43,0,0,1-2.24.69A3.83,3.83,0,0,1,349.61,143.69Z"/><path class="cls-20" d="M9.94,123.41H6.77V126H9.69v1.19H6.77v3.54H5.37v-8.46H9.94Z"/><path class="cls-20" d="M14.56,125.94a1.16,1.16,0,0,0-.72-.19,1.22,1.22,0,0,0-1,.54,2.43,2.43,0,0,0-.41,1.5v2.89H11.05v-6h1.37v1.24h0a2.16,2.16,0,0,1,.62-1,1.4,1.4,0,0,1,.93-.36,1.22,1.22,0,0,1,.57.11Z"/><path class="cls-20" d="M17.86,130.82a3,3,0,0,1-2.24-.84,3.07,3.07,0,0,1-.83-2.25A3,3,0,0,1,18,124.49a2.89,2.89,0,0,1,2.21.84,3.19,3.19,0,0,1,.79,2.31,3.15,3.15,0,0,1-.85,2.31A3.06,3.06,0,0,1,17.86,130.82Zm.06-5.23a1.55,1.55,0,0,0-1.27.56,2.34,2.34,0,0,0-.47,1.54,2.18,2.18,0,0,0,.48,1.5,1.58,1.58,0,0,0,1.26.55,1.5,1.5,0,0,0,1.24-.54,2.38,2.38,0,0,0,.44-1.53,2.41,2.41,0,0,0-.44-1.54A1.5,1.5,0,0,0,17.92,125.59Z"/><path class="cls-20" d="M27.54,130.68H26.17v-3.4c0-1.13-.4-1.7-1.2-1.7a1.31,1.31,0,0,0-1,.47,1.75,1.75,0,0,0-.41,1.18v3.45H22.15v-6h1.38v1h0a2.18,2.18,0,0,1,2-1.15,1.86,1.86,0,0,1,1.51.64,2.94,2.94,0,0,1,.52,1.86Z"/><path class="cls-20" d="M32.16,130.62a2.44,2.44,0,0,1-1.06.2c-1.17,0-1.76-.57-1.76-1.69v-3.42h-1v-1.07h1v-1.4l1.37-.39v1.79h1.45v1.07H30.71v3a1.19,1.19,0,0,0,.19.77.83.83,0,0,0,.65.23,1,1,0,0,0,.61-.2Z"/><path class="cls-20" d="M38.14,128H34a1.74,1.74,0,0,0,.52,1.29,1.89,1.89,0,0,0,1.35.46,3,3,0,0,0,1.78-.58v1.1a4,4,0,0,1-2.18.52,2.72,2.72,0,0,1-2.1-.82,3.32,3.32,0,0,1-.76-2.32,3.23,3.23,0,0,1,.84-2.3,2.75,2.75,0,0,1,2.07-.89,2.38,2.38,0,0,1,1.92.8,3.28,3.28,0,0,1,.68,2.22Zm-1.32-1a1.75,1.75,0,0,0-.35-1.15,1.17,1.17,0,0,0-.94-.41,1.34,1.34,0,0,0-1,.43,1.94,1.94,0,0,0-.51,1.13Z"/><path class="cls-20" d="M44.59,130.68H43.22v-3.4c0-1.13-.4-1.7-1.2-1.7a1.31,1.31,0,0,0-1,.47,1.75,1.75,0,0,0-.41,1.18v3.45H39.21v-6h1.37v1h0a2.18,2.18,0,0,1,2-1.15,1.86,1.86,0,0,1,1.51.64,2.88,2.88,0,0,1,.52,1.86Z"/><path class="cls-20" d="M51.51,130.68H50.14v-1h0a2.36,2.36,0,0,1-3.82.36,3.35,3.35,0,0,1-.67-2.21,3.68,3.68,0,0,1,.74-2.4,2.43,2.43,0,0,1,2-.91,1.9,1.9,0,0,1,1.78,1h0v-3.74h1.37Zm-1.35-2.76v-.79a1.52,1.52,0,0,0-.42-1.09,1.39,1.39,0,0,0-1.07-.45,1.43,1.43,0,0,0-1.2.57,2.51,2.51,0,0,0-.44,1.59,2.27,2.27,0,0,0,.42,1.45,1.37,1.37,0,0,0,1.14.54,1.46,1.46,0,0,0,1.14-.52A1.94,1.94,0,0,0,50.16,127.92Z"/><path class="cls-20" d="M56.71,126.14a.85.85,0,0,1-.6-.23.73.73,0,0,1-.25-.56.75.75,0,0,1,.25-.57.85.85,0,0,1,.6-.23.89.89,0,0,1,.61.23.75.75,0,0,1,.25.57.73.73,0,0,1-.25.56A.89.89,0,0,1,56.71,126.14Zm0,4.67a.85.85,0,0,1-.6-.23.73.73,0,0,1-.25-.56.75.75,0,0,1,.25-.57.85.85,0,0,1,.6-.23.89.89,0,0,1,.61.23.75.75,0,0,1,.25.57.73.73,0,0,1-.25.56A.89.89,0,0,1,56.71,130.81Z"/><path class="cls-20" d="M63.45,127.61v3.07h-1.4v-8.46h2.57a3.41,3.41,0,0,1,2.26.67,2.37,2.37,0,0,1,.81,1.92,2.66,2.66,0,0,1-.84,2,3.21,3.21,0,0,1-2.27.78Zm0-4.24v3.1h.91a2,2,0,0,0,1.38-.42,1.52,1.52,0,0,0,.47-1.18q0-1.5-1.74-1.5Z"/><path class="cls-20" d="M71,130.82a3,3,0,0,1-2.24-.84,3.11,3.11,0,0,1-.83-2.25,3,3,0,0,1,3.22-3.24,2.86,2.86,0,0,1,2.2.84,3.19,3.19,0,0,1,.8,2.31,3.16,3.16,0,0,1-.86,2.31A3.06,3.06,0,0,1,71,130.82Zm.06-5.23a1.55,1.55,0,0,0-1.27.56,2.34,2.34,0,0,0-.46,1.54,2.18,2.18,0,0,0,.47,1.5,1.6,1.6,0,0,0,1.26.55,1.52,1.52,0,0,0,1.25-.54,2.38,2.38,0,0,0,.43-1.53,2.41,2.41,0,0,0-.43-1.54A1.52,1.52,0,0,0,71.06,125.59Z"/><path class="cls-20" d="M78.8,125.94a1.11,1.11,0,0,0-.71-.19,1.23,1.23,0,0,0-1,.54,2.49,2.49,0,0,0-.4,1.5v2.89H75.3v-6h1.37v1.24h0a2.08,2.08,0,0,1,.62-1,1.36,1.36,0,0,1,.93-.36,1.21,1.21,0,0,1,.56.11Z"/><path class="cls-20" d="M83.07,130.62a2.44,2.44,0,0,1-1.06.2c-1.17,0-1.76-.57-1.76-1.69v-3.42h-1v-1.07h1v-1.4l1.37-.39v1.79h1.45v1.07H81.62v3a1.19,1.19,0,0,0,.19.77.83.83,0,0,0,.65.23,1,1,0,0,0,.61-.2Z"/><path class="cls-20" d="M87.65,126.14a.88.88,0,0,1-.6-.23.77.77,0,0,1-.25-.56.79.79,0,0,1,.25-.57.88.88,0,0,1,.6-.23.87.87,0,0,1,.61.23.76.76,0,0,1,.26.57.74.74,0,0,1-.26.56A.87.87,0,0,1,87.65,126.14Zm0,4.67a.88.88,0,0,1-.6-.23.77.77,0,0,1-.25-.56.79.79,0,0,1,.25-.57.88.88,0,0,1,.6-.23.87.87,0,0,1,.61.23.76.76,0,0,1,.26.57.74.74,0,0,1-.26.56A.87.87,0,0,1,87.65,130.81Z"/><path class="cls-20" d="M92.68,130.37v-1.29a2.9,2.9,0,0,0,1.86.66,2.13,2.13,0,0,0,1.35-.39,1.22,1.22,0,0,0,.51-1c0-1-.74-1.44-2.2-1.44h-.66v-1.09h.63c1.3,0,2-.46,2-1.36s-.51-1.25-1.52-1.25a2.51,2.51,0,0,0-1.6.6v-1.21a4.09,4.09,0,0,1,2-.49,2.71,2.71,0,0,1,1.81.57,1.81,1.81,0,0,1,.68,1.45,2.07,2.07,0,0,1-1.7,2.15v0a2.2,2.2,0,0,1,1.45.64,1.9,1.9,0,0,1,.53,1.38,2.25,2.25,0,0,1-.86,1.83,3.42,3.42,0,0,1-2.25.7A3.89,3.89,0,0,1,92.68,130.37Z"/><path class="cls-20" d="M99.15,130.37v-1.29a2.9,2.9,0,0,0,1.86.66,2.13,2.13,0,0,0,1.35-.39,1.22,1.22,0,0,0,.51-1c0-1-.74-1.44-2.2-1.44H100v-1.09h.63c1.3,0,2-.46,2-1.36s-.51-1.25-1.52-1.25a2.51,2.51,0,0,0-1.6.6v-1.21a4.09,4.09,0,0,1,2-.49,2.71,2.71,0,0,1,1.81.57,1.81,1.81,0,0,1,.68,1.45,2.07,2.07,0,0,1-1.7,2.15v0a2.2,2.2,0,0,1,1.45.64,1.9,1.9,0,0,1,.53,1.38,2.25,2.25,0,0,1-.86,1.83,3.42,3.42,0,0,1-2.25.7A3.89,3.89,0,0,1,99.15,130.37Z"/><path class="cls-20" d="M105.43,128.32a2.82,2.82,0,0,1,.09-.71,2,2,0,0,1,.28-.63,2,2,0,0,1,.46-.52,2.16,2.16,0,0,1,.65-.37,2.59,2.59,0,0,1-.88-.79,2,2,0,0,1-.13-1.93,2.19,2.19,0,0,1,.53-.68,2.41,2.41,0,0,1,.8-.45,3,3,0,0,1,1-.17,3,3,0,0,1,1,.17,2.6,2.6,0,0,1,.8.45,2.2,2.2,0,0,1,.53.69,2,2,0,0,1,.19.85,1.85,1.85,0,0,1-.33,1.07,2.52,2.52,0,0,1-.86.79,2.29,2.29,0,0,1,.65.37,2.52,2.52,0,0,1,.47.51,2.44,2.44,0,0,1,.28.64,2.71,2.71,0,0,1,.09.71,2.44,2.44,0,0,1-.2,1,2.24,2.24,0,0,1-.58.78,2.69,2.69,0,0,1-.89.51,3.27,3.27,0,0,1-1.15.19,3.15,3.15,0,0,1-1.13-.19,2.5,2.5,0,0,1-.89-.51,2.27,2.27,0,0,1-.59-.78A2.45,2.45,0,0,1,105.43,128.32Zm1.34-.12a1.89,1.89,0,0,0,.1.65,1.35,1.35,0,0,0,.3.49,1.25,1.25,0,0,0,.47.31,1.7,1.7,0,0,0,.61.1,1.64,1.64,0,0,0,.6-.1,1.4,1.4,0,0,0,.47-.32,1.52,1.52,0,0,0,.31-.49,1.83,1.83,0,0,0,.11-.64,1.57,1.57,0,0,0-.11-.61,1.48,1.48,0,0,0-.3-.5,1.5,1.5,0,0,0-1.08-.46,1.45,1.45,0,0,0-.59.12,1.27,1.27,0,0,0-.47.32,1.51,1.51,0,0,0-.31.5A1.61,1.61,0,0,0,106.77,128.2Zm.28-3.82a1.34,1.34,0,0,0,.1.49,1.3,1.3,0,0,0,.25.39,1.15,1.15,0,0,0,.38.27,1.18,1.18,0,0,0,.46.09,1,1,0,0,0,.46-.1,1.12,1.12,0,0,0,.38-.26,1.2,1.2,0,0,0,.26-.4,1.28,1.28,0,0,0,.09-.48,1.35,1.35,0,0,0-.09-.5,1.28,1.28,0,0,0-.25-.4,1.5,1.5,0,0,0-.38-.26,1.19,1.19,0,0,0-.47-.09,1.06,1.06,0,0,0-.48.1,1,1,0,0,0-.38.27,1.22,1.22,0,0,0-.24.4A1.28,1.28,0,0,0,107.05,124.38Z"/><path class="cls-20" d="M117.55,126a7.75,7.75,0,0,1-.28,2.18,4.36,4.36,0,0,1-.75,1.51,3.13,3.13,0,0,1-1.13.87,3.42,3.42,0,0,1-1.39.28,4,4,0,0,1-.49,0l-.47-.08-.4-.1a2.45,2.45,0,0,1-.3-.11v-1.23l.31.15a2.35,2.35,0,0,0,.4.14,2.11,2.11,0,0,0,.45.1,2.28,2.28,0,0,0,.45,0,2.09,2.09,0,0,0,.91-.19,1.78,1.78,0,0,0,.7-.58,3,3,0,0,0,.45-1,5.21,5.21,0,0,0,.15-1.32h0a1.48,1.48,0,0,1-.28.35,2,2,0,0,1-.4.3,2.27,2.27,0,0,1-.5.2,2.2,2.2,0,0,1-.58.08,2.46,2.46,0,0,1-1-.19,2.4,2.4,0,0,1-.8-.52,2.56,2.56,0,0,1-.53-.84,3.11,3.11,0,0,1-.19-1.09,3,3,0,0,1,.22-1.19,2.77,2.77,0,0,1,.6-.91,2.62,2.62,0,0,1,.91-.58,2.94,2.94,0,0,1,1.12-.21,2.83,2.83,0,0,1,1.09.22,2.24,2.24,0,0,1,.89.68,3.5,3.5,0,0,1,.62,1.22A6.2,6.2,0,0,1,117.55,126Zm-1.43-.91a2.65,2.65,0,0,0-.11-.77,2.12,2.12,0,0,0-.31-.6,1.4,1.4,0,0,0-.46-.38,1.28,1.28,0,0,0-.59-.13,1.24,1.24,0,0,0-.54.11,1.45,1.45,0,0,0-.45.33,1.6,1.6,0,0,0-.3.51,2,2,0,0,0-.11.67,2,2,0,0,0,.11.71,1.44,1.44,0,0,0,.3.51,1.27,1.27,0,0,0,.47.32,1.48,1.48,0,0,0,.61.11,1.24,1.24,0,0,0,.54-.11,1.31,1.31,0,0,0,.73-.73A1.42,1.42,0,0,0,116.12,125.08Z"/><path class="cls-20" d="M75.52,140.85v3.07h-1.4v-8.47h2.57a3.43,3.43,0,0,1,2.26.68,2.4,2.4,0,0,1,.8,1.92,2.62,2.62,0,0,1-.84,2,3.15,3.15,0,0,1-2.26.79Zm0-4.24v3.1h.91a2,2,0,0,0,1.37-.42,1.5,1.5,0,0,0,.48-1.19c0-1-.58-1.49-1.74-1.49Z"/><path class="cls-20" d="M83,144.06a3,3,0,0,1-2.23-.85,3,3,0,0,1-.84-2.24,3.18,3.18,0,0,1,.87-2.38,3.22,3.22,0,0,1,2.35-.86,2.89,2.89,0,0,1,2.21.84,3.66,3.66,0,0,1-.06,4.62A3.08,3.08,0,0,1,83,144.06Zm.07-5.23a1.54,1.54,0,0,0-1.27.56,2.34,2.34,0,0,0-.47,1.54,2.18,2.18,0,0,0,.48,1.5,1.58,1.58,0,0,0,1.26.55,1.5,1.5,0,0,0,1.24-.54,2.9,2.9,0,0,0,0-3.07A1.5,1.5,0,0,0,83.07,138.83Z"/><path class="cls-20" d="M90.75,139.18A1.16,1.16,0,0,0,90,139a1.23,1.23,0,0,0-1,.55,2.49,2.49,0,0,0-.41,1.5v2.89H87.24v-6h1.37v1.25h0a2.11,2.11,0,0,1,.62-1,1.4,1.4,0,0,1,.93-.36,1.22,1.22,0,0,1,.57.11Z"/><path class="cls-20" d="M95,143.85a2.3,2.3,0,0,1-1.06.21c-1.17,0-1.76-.57-1.76-1.69V139h-1v-1.08h1v-1.4l1.37-.39v1.79H95V139H93.5v3a1.19,1.19,0,0,0,.2.77.81.81,0,0,0,.65.23,1,1,0,0,0,.6-.2Z"/><path class="cls-20" d="M103.43,135.45v5.47h1.25v1.14h-1.25v1.86H102.1v-1.86H98.27v-1.15c.34-.39.7-.81,1.06-1.27s.72-.92,1-1.39.65-.95.94-1.43a12.15,12.15,0,0,0,.72-1.37Zm-1.33,5.47v-3.55a20.4,20.4,0,0,1-1.28,2c-.41.57-.81,1.08-1.17,1.53Z"/><path class="cls-20" d="M110.09,135.45v5.47h1.26v1.14h-1.26v1.86h-1.33v-1.86h-3.83v-1.15c.35-.39.7-.81,1.07-1.27s.71-.92,1-1.39.64-.95.93-1.43a12.3,12.3,0,0,0,.73-1.37Zm-1.33,5.47v-3.55a20.44,20.44,0,0,1-1.27,2c-.42.57-.81,1.08-1.18,1.53Z"/><path class="cls-20" d="M112,143.61v-1.29a2.93,2.93,0,0,0,1.87.66,2.16,2.16,0,0,0,1.35-.39,1.24,1.24,0,0,0,.5-1c0-1-.73-1.44-2.2-1.44h-.65V139h.62c1.3,0,2-.45,2-1.35s-.51-1.26-1.53-1.26a2.54,2.54,0,0,0-1.6.61V135.8a4.05,4.05,0,0,1,2-.49,2.74,2.74,0,0,1,1.81.57,1.81,1.81,0,0,1,.67,1.45,2.06,2.06,0,0,1-1.7,2.15v0a2.27,2.27,0,0,1,1.45.64,1.93,1.93,0,0,1,.53,1.38,2.25,2.25,0,0,1-.85,1.84,3.45,3.45,0,0,1-2.26.7A3.89,3.89,0,0,1,112,143.61Z"/><path class="cls-20" d="M82.19,154.05v3.07h-1.4v-8.47h2.57a3.43,3.43,0,0,1,2.26.68,2.4,2.4,0,0,1,.8,1.92,2.62,2.62,0,0,1-.84,2,3.15,3.15,0,0,1-2.27.79Zm0-4.24v3.1h.91a2,2,0,0,0,1.37-.42,1.5,1.5,0,0,0,.47-1.19c0-1-.58-1.49-1.73-1.49Z"/><path class="cls-20" d="M89.73,157.26a3,3,0,0,1-2.23-.84,3.07,3.07,0,0,1-.84-2.25,3.18,3.18,0,0,1,.87-2.38,3.22,3.22,0,0,1,2.35-.86,2.9,2.9,0,0,1,2.21.84,3.22,3.22,0,0,1,.79,2.3,3.16,3.16,0,0,1-.86,2.32A3,3,0,0,1,89.73,157.26ZM89.8,152a1.54,1.54,0,0,0-1.27.56,2.34,2.34,0,0,0-.47,1.54,2.23,2.23,0,0,0,.47,1.5,1.62,1.62,0,0,0,1.27.55,1.5,1.5,0,0,0,1.24-.54,3,3,0,0,0,0-3.07A1.5,1.5,0,0,0,89.8,152Z"/><path class="cls-20" d="M97.54,152.38a1.16,1.16,0,0,0-.72-.2,1.23,1.23,0,0,0-1,.55,2.49,2.49,0,0,0-.41,1.5v2.89H94v-6.05H95.4v1.25h0a2.11,2.11,0,0,1,.62-1A1.4,1.4,0,0,1,97,151a1.22,1.22,0,0,1,.57.11Z"/><path class="cls-20" d="M101.8,157.05a2.3,2.3,0,0,1-1.06.21c-1.17,0-1.76-.57-1.76-1.69v-3.42H98v-1.08h1v-1.4l1.37-.38v1.78h1.45v1.08h-1.45v3a1.19,1.19,0,0,0,.2.77.81.81,0,0,0,.65.23,1,1,0,0,0,.6-.2Z"/><path class="cls-20" d="M105.47,154.76a2.76,2.76,0,0,1,.09-.71,2.22,2.22,0,0,1,.27-.63,2.26,2.26,0,0,1,.46-.52,2.29,2.29,0,0,1,.65-.37,2.56,2.56,0,0,1-.87-.79,1.85,1.85,0,0,1-.33-1.07,2,2,0,0,1,.73-1.54,2.33,2.33,0,0,1,.8-.46,3.18,3.18,0,0,1,1-.16,3,3,0,0,1,1,.17,2.65,2.65,0,0,1,.81.45,2.06,2.06,0,0,1,.52.69,1.89,1.89,0,0,1,.19.85,1.92,1.92,0,0,1-.32,1.07,2.72,2.72,0,0,1-.86.79,2,2,0,0,1,.64.37,2.05,2.05,0,0,1,.47.51,2.56,2.56,0,0,1,.29.63,2.84,2.84,0,0,1,.09.72,2.37,2.37,0,0,1-.21,1,2.16,2.16,0,0,1-.58.79,2.5,2.5,0,0,1-.89.51,3.17,3.17,0,0,1-1.14.19,3.21,3.21,0,0,1-1.14-.19,2.69,2.69,0,0,1-.89-.51,2.28,2.28,0,0,1-.58-.79A2.37,2.37,0,0,1,105.47,154.76Zm1.33-.12a1.88,1.88,0,0,0,.11.65,1.35,1.35,0,0,0,.3.49,1.29,1.29,0,0,0,.47.31,1.66,1.66,0,0,0,.61.1,1.44,1.44,0,0,0,.59-.11,1.17,1.17,0,0,0,.47-.31,1.25,1.25,0,0,0,.31-.49,1.62,1.62,0,0,0,.12-.64,1.74,1.74,0,0,0-.11-.61,1.48,1.48,0,0,0-.3-.5,1.62,1.62,0,0,0-.47-.34,1.51,1.51,0,0,0-.61-.12,1.53,1.53,0,0,0-.6.12,1.27,1.27,0,0,0-.47.32,1.69,1.69,0,0,0-.31.5A1.81,1.81,0,0,0,106.8,154.64Zm.29-3.83a1.35,1.35,0,0,0,.09.5,1.33,1.33,0,0,0,.26.39,1.11,1.11,0,0,0,.37.27,1.23,1.23,0,0,0,.47.09,1,1,0,0,0,.46-.1,1.22,1.22,0,0,0,.38-.26,1.28,1.28,0,0,0,.25-.4,1.13,1.13,0,0,0,.1-.49,1.33,1.33,0,0,0-.09-.49,1.36,1.36,0,0,0-.25-.4,1.42,1.42,0,0,0-.38-.26,1.23,1.23,0,0,0-.47-.09,1.13,1.13,0,0,0-.49.1,1.08,1.08,0,0,0-.37.26,1.1,1.1,0,0,0-.24.4A1.36,1.36,0,0,0,107.09,150.81Z"/><path class="cls-20" d="M114.66,157.26a2.37,2.37,0,0,1-2.06-1.08,5.53,5.53,0,0,1-.74-3.12,6.18,6.18,0,0,1,.77-3.4,2.55,2.55,0,0,1,2.24-1.15q2.79,0,2.79,4.34a5.68,5.68,0,0,1-.79,3.28A2.55,2.55,0,0,1,114.66,157.26Zm.14-7.66c-1,0-1.54,1.14-1.54,3.4s.5,3.18,1.51,3.18,1.49-1.08,1.49-3.23S115.77,149.6,114.8,149.6Z"/><path class="cls-20" d="M258.59,224.9v-8.4h2.67a3.12,3.12,0,0,1,1.93.54,1.62,1.62,0,0,1,.71,1.38,2,2,0,0,1-.4,1.25,2.19,2.19,0,0,1-1.12.75v0a2.18,2.18,0,0,1,1.38.64,1.93,1.93,0,0,1,.52,1.41,2.12,2.12,0,0,1-.85,1.75,3.37,3.37,0,0,1-2.14.66Zm1.39-7.28V220h.9a1.71,1.71,0,0,0,1.14-.34,1.18,1.18,0,0,0,.42-1q0-1.08-1.44-1.08Zm0,3.51v2.66h1.19a1.84,1.84,0,0,0,1.21-.36,1.23,1.23,0,0,0,.42-1c0-.87-.6-1.31-1.81-1.31Z"/><path class="cls-20" d="M270.12,224.9H268.8V224h0A2,2,0,0,1,267,225a1.9,1.9,0,0,1-1.38-.48,1.66,1.66,0,0,1-.51-1.27c0-1.13.66-1.79,2-2l1.78-.25c0-.85-.4-1.28-1.22-1.28a2.85,2.85,0,0,0-1.93.74v-1.19a4.16,4.16,0,0,1,2.19-.57,2,2,0,0,1,2.28,2.24ZM268.8,222l-1.26.17a2,2,0,0,0-.88.29.82.82,0,0,0-.29.73.8.8,0,0,0,.27.62,1.05,1.05,0,0,0,.73.24,1.37,1.37,0,0,0,1-.43,1.55,1.55,0,0,0,.4-1.1Z"/><path class="cls-20" d="M275.89,224.63a3.33,3.33,0,0,1-1.71.41,2.85,2.85,0,0,1-2.15-.83,3,3,0,0,1-.82-2.17,3.26,3.26,0,0,1,.88-2.38,3.15,3.15,0,0,1,2.36-.9,3.43,3.43,0,0,1,1.44.29v1.27a2.12,2.12,0,0,0-1.33-.47,1.83,1.83,0,0,0-1.41.58,2.13,2.13,0,0,0-.55,1.53,2.05,2.05,0,0,0,.51,1.47,1.85,1.85,0,0,0,1.4.54,2.22,2.22,0,0,0,1.38-.52Z"/><path class="cls-20" d="M282.5,224.9h-1.72L278.44,222h0v2.88h-1.36V216h1.36v5.63h0l2.21-2.75h1.63l-2.48,2.9Z"/><path class="cls-20" d="M288,224.9h-4.71v-8.4h4.53v1.19h-3.14v2.37h2.89v1.18h-2.89v2.49H288Z"/><path class="cls-20" d="M294.55,224.9h-1.36v-3.38c0-1.12-.4-1.68-1.19-1.68a1.3,1.3,0,0,0-1,.47,1.72,1.72,0,0,0-.41,1.17v3.42h-1.36v-6h1.36v1h0a2.14,2.14,0,0,1,2-1.14,1.82,1.82,0,0,1,1.49.64,2.82,2.82,0,0,1,.52,1.84Z"/><path class="cls-20" d="M301.48,224.9h-1.36v-1h0a2.35,2.35,0,0,1-3.79.36,3.32,3.32,0,0,1-.67-2.2,3.64,3.64,0,0,1,.74-2.38,2.4,2.4,0,0,1,2-.9,1.89,1.89,0,0,1,1.76,1h0V216h1.36Zm-1.34-2.74v-.78a1.53,1.53,0,0,0-.42-1.09,1.39,1.39,0,0,0-1.06-.44,1.42,1.42,0,0,0-1.19.57A2.44,2.44,0,0,0,297,222a2.29,2.29,0,0,0,.42,1.45,1.37,1.37,0,0,0,1.13.53,1.4,1.4,0,0,0,1.13-.52A1.92,1.92,0,0,0,300.14,222.16Z"/><path class="cls-20" d="M306.76,220.4a.88.88,0,0,1-.6-.23.77.77,0,0,1,0-1.12.91.91,0,0,1,1.21,0,.75.75,0,0,1,0,1.12A.89.89,0,0,1,306.76,220.4Zm0,4.63a.84.84,0,0,1-.6-.23.76.76,0,0,1,0-1.11.88.88,0,0,1,1.21,0,.74.74,0,0,1,0,1.11A.84.84,0,0,1,306.76,225Z"/><path class="cls-20" d="M313.57,221.86v3h-1.39v-8.4h2.55a3.4,3.4,0,0,1,2.25.68,2.34,2.34,0,0,1,.79,1.89,2.61,2.61,0,0,1-.83,2,3.14,3.14,0,0,1-2.25.78Zm0-4.21v3.07h.9a2,2,0,0,0,1.37-.42,1.47,1.47,0,0,0,.47-1.17c0-1-.58-1.48-1.73-1.48Z"/><path class="cls-20" d="M321.12,225a3,3,0,0,1-2.22-.84,3,3,0,0,1-.83-2.23,3,3,0,0,1,3.2-3.21,2.9,2.9,0,0,1,2.19.83,3.19,3.19,0,0,1,.78,2.29,3.16,3.16,0,0,1-.84,2.3A3,3,0,0,1,321.12,225Zm.06-5.19a1.55,1.55,0,0,0-1.26.55,2.41,2.41,0,0,0-.46,1.54,2.19,2.19,0,0,0,.47,1.48,1.55,1.55,0,0,0,1.25.55,1.5,1.5,0,0,0,1.24-.54,2.32,2.32,0,0,0,.43-1.51,2.38,2.38,0,0,0-.43-1.53A1.5,1.5,0,0,0,321.18,219.85Z"/><path class="cls-20" d="M328.93,220.2a1.13,1.13,0,0,0-.71-.19,1.21,1.21,0,0,0-1,.54,2.43,2.43,0,0,0-.41,1.48v2.87h-1.35v-6h1.35v1.24h0a2.14,2.14,0,0,1,.61-1,1.41,1.41,0,0,1,.92-.35,1.22,1.22,0,0,1,.57.11Z"/><path class="cls-20" d="M333.22,224.84a2.42,2.42,0,0,1-1.05.2c-1.17,0-1.75-.56-1.75-1.68V220h-1V218.9h1v-1.38l1.36-.39v1.77h1.44V220h-1.44v3a1.22,1.22,0,0,0,.19.76.83.83,0,0,0,.65.23,1,1,0,0,0,.6-.2Z"/><path class="cls-20" d="M337,222.56a2.69,2.69,0,0,1,.09-.7,2.17,2.17,0,0,1,.73-1.15,2.09,2.09,0,0,1,.64-.36,2.65,2.65,0,0,1-.87-.79,1.86,1.86,0,0,1-.32-1.05,1.9,1.9,0,0,1,.19-.86A2.06,2.06,0,0,1,338,217a2.54,2.54,0,0,1,.79-.45,3.22,3.22,0,0,1,1-.16,2.91,2.91,0,0,1,1,.17,2.31,2.31,0,0,1,.8.45,1.82,1.82,0,0,1,.52.68,1.86,1.86,0,0,1,.19.85,1.78,1.78,0,0,1-.32,1.05,2.52,2.52,0,0,1-.86.79,2.27,2.27,0,0,1,.65.36,2.19,2.19,0,0,1,.74,1.14,2.55,2.55,0,0,1-.11,1.72,2.31,2.31,0,0,1-.57.78,2.59,2.59,0,0,1-.89.51,3.64,3.64,0,0,1-2.26,0,2.69,2.69,0,0,1-.89-.51,2.48,2.48,0,0,1-.58-.78A2.4,2.4,0,0,1,337,222.56Zm1.32-.12a1.67,1.67,0,0,0,.11.65,1.43,1.43,0,0,0,.29.48,1.25,1.25,0,0,0,.47.31,1.66,1.66,0,0,0,.61.1,1.63,1.63,0,0,0,.59-.1,1.49,1.49,0,0,0,.46-.31,1.46,1.46,0,0,0,.31-.49,1.62,1.62,0,0,0,.11-.64,1.72,1.72,0,0,0-.1-.6,1.48,1.48,0,0,0-.3-.5,1.43,1.43,0,0,0-.47-.33,1.47,1.47,0,0,0-.6-.13,1.45,1.45,0,0,0-.59.12,1.4,1.4,0,0,0-.47.32,1.69,1.69,0,0,0-.31.5A1.8,1.8,0,0,0,338.3,222.44Zm.29-3.79a1.33,1.33,0,0,0,.09.49,1.3,1.3,0,0,0,.25.39,1.18,1.18,0,0,0,.37.26,1.22,1.22,0,0,0,.46.09,1.14,1.14,0,0,0,.46-.09,1.31,1.31,0,0,0,.38-.27,1.14,1.14,0,0,0,.25-.39,1.12,1.12,0,0,0,.1-.48,1.39,1.39,0,0,0-.09-.5,1.3,1.3,0,0,0-.25-.39,1.28,1.28,0,0,0-.38-.26,1.19,1.19,0,0,0-.47-.09,1.12,1.12,0,0,0-.48.1,1.18,1.18,0,0,0-.37.26,1.47,1.47,0,0,0-.24.4A1.51,1.51,0,0,0,338.59,218.65Z"/><path class="cls-20" d="M346.17,225a2.33,2.33,0,0,1-2.05-1.07,5.46,5.46,0,0,1-.74-3.1,6.11,6.11,0,0,1,.77-3.37,2.5,2.5,0,0,1,2.21-1.14q2.77,0,2.78,4.31a5.59,5.59,0,0,1-.79,3.25A2.5,2.5,0,0,1,346.17,225Zm.13-7.59q-1.53,0-1.53,3.36c0,2.11.5,3.16,1.5,3.16s1.48-1.07,1.48-3.21S347.26,217.45,346.3,217.45Z"/></g></svg>