<svg id="svg1342" xmlns="http://www.w3.org/2000/svg" viewBox="0 0 224.94 200.3">
  <defs>
    <style>
      .cls-1, .cls-5 {
        fill: #008bfd;
      }

      .cls-1, .cls-10, .cls-2, .cls-6 {
        fill-rule: evenodd;
      }

      .cls-2, .cls-3 {
        fill: #0078d7;
      }

      .cls-4 {
        isolation: isolate;
      }

      .cls-6 {
        fill: gray;
      }

      .cls-7, .cls-9 {
        fill: none;
      }

      .cls-8 {
        fill: #00b0f0;
      }

      .cls-9 {
        stroke: #505050;
        stroke-miterlimit: 10;
      }

      .cls-10, .cls-11 {
        fill: #505050;
      }
    </style>
  </defs>
  <title>OJ104440668</title>
  <g id="shape1029-46">
    <path id="path1130" class="cls-1" d="M211.09,79h-20.5a1.09,1.09,0,0,0-1.09,1.1V96.88a1.09,1.09,0,0,0,1.09,1.1h5.28a3.29,3.29,0,0,0,3.21,2.27,3.38,3.38,0,0,0,0-6.75,3.29,3.29,0,0,0-3.21,2.27h-4.19v-12H210v12h-3.45a7.61,7.61,0,0,0-7.46-6.56,8.25,8.25,0,0,0-3.64.92l1,2a5.27,5.27,0,0,1,2.55-.67,5.46,5.46,0,0,1,0,10.91,5.27,5.27,0,0,1-2.55-.67l-1,2a7.51,7.51,0,0,0,3.64.92A7.61,7.61,0,0,0,206.54,98h4.55a1.09,1.09,0,0,0,1.09-1.1V80.13A1.14,1.14,0,0,0,211.09,79Z"/>
  </g>
  <g id="group1030-50">
    <g id="shape1031-51">
      <path id="path1143" class="cls-2" d="M73.65,106H59.44V77.6H73.65v7.67h.76V76.83H58.68v29.91H74.41v-2.32h-.76Z"/>
    </g>
    <g id="shape1032-53">
      <path id="path1148" class="cls-2" d="M72.88,78.39H60.24V83H72.88ZM63.3,80.31h6.53v.76H63.3Zm6.59,1.84H63.27v-.76h6.62Z"/>
    </g>
    <g id="shape1033-55">
      <path id="path1153" class="cls-2" d="M60.21,83.74V86.8h8.6V85.27h4.08V83.74Z"/>
    </g>
    <g id="shape1034-57">
      <rect id="rect1158" class="cls-3" x="60.21" y="87.57" width="8.6" height="2.68"/>
    </g>
    <g id="shape1035-59">
      <path id="path1163" class="cls-2" d="M60.21,105.21H72.86v-.8H68.78V91h-8.6v14.17Zm1.53-2.74H64v1.21H61.74Z"/>
    </g>
    <g id="shape1036-61">
      <path id="path1168" class="cls-2" d="M83.43,102.15H81v-1.87H78.46v1.87H76a1.32,1.32,0,0,0-1.31,1.15h10A1.29,1.29,0,0,0,83.43,102.15Z"/>
    </g>
    <g id="shape1037-63">
      <path id="path1173" class="cls-2" d="M88.27,88.17H71.17a.65.65,0,0,0-.67.61V98.91a.65.65,0,0,0,.67.6h17.1a.64.64,0,0,0,.67-.6V88.78A.63.63,0,0,0,88.27,88.17Zm-1,9.84H72.19V89.7H87.25Z"/>
    </g>
    <g id="shape1038-65">
      <path id="path1178" class="cls-2" d="M83.63,95.52V92.08l-3.51-1.84L76.62,92v3.54l3.5,1.81Zm-4.4-2.29.89-.45.86.45-.86.48Zm0-1.15.86-.44.86.44-.86.48Zm1.91,4.53-1,.51v-.93l1-.51Zm0-1.18-1,.51V95l1-.51Zm0-1.12-1,.51V93.9l1-.51Zm-.82-1.65.86-.45.89.45-.86.44Zm2,3.34-.95.51v-.92l.95-.51Zm0-1.18-.95.51v-.92l.95-.51Zm0-1.14-.95.51v-.9l.95-.51Zm1.05,1.75-.86.44V95l.86-.45Zm0-1.15-.86.45V93.8l.86-.44Zm0-1.14-.86.44v-.92l.86-.45Zm-.19-1.06-.89.45-.89-.45.86-.44Zm-1.11-.57-.89.45-.86-.45.86-.44Zm-2-1.05.86.45-.86.44-.89-.44ZM79,91.07l.86.44L79,92l-.86-.45Zm-1.08.57.89.44-.89.45-.9-.45Zm-.26,4.27-.86-.45v-.92l.86.44Zm0-1.18-.86-.45v-.92l.86.44Zm0-1.15-.86-.44v-.9l.86.45Zm1.18,2.93-1-.51v-.92l1,.51Zm0-1.18-1-.51V93.9l1,.51Zm0-1.14-1-.51v-.9l1,.51Zm-.7-1.53.89-.45.86.45-.89.48ZM80,97.12l-1-.51v-.89l1,.5ZM80,96l-1-.51v-.92l1,.51Zm0-1.15-1-.51v-.92l1,.51Z"/>
    </g>
  </g>
  <path id="path1241" class="cls-1" d="M84.06,154.79H63.56a1.09,1.09,0,0,0-1.09,1.1v16.75a1.09,1.09,0,0,0,1.09,1.1h5.28A3.29,3.29,0,0,0,72.05,176a3.38,3.38,0,0,0,0-6.75,3.29,3.29,0,0,0-3.21,2.27H64.65v-12H83v12H79.51A7.61,7.61,0,0,0,72.05,165a8.25,8.25,0,0,0-3.64.92l1,2a5.27,5.27,0,0,1,2.55-.67,5.46,5.46,0,0,1,0,10.91,5.27,5.27,0,0,1-2.55-.67l-1,2a7.51,7.51,0,0,0,3.64.92,7.61,7.61,0,0,0,7.46-6.56h4.55a1.09,1.09,0,0,0,1.09-1.1V155.89A1.14,1.14,0,0,0,84.06,154.79Z"/>
  <g id="text1243" class="cls-4">
    <path class="cls-5" d="M40.47,193.3h-.82L39,191.53H36.31l-.63,1.77h-.82l2.42-6.3H38Zm-1.73-2.43-1-2.69a2.85,2.85,0,0,1-.09-.42h0a2.17,2.17,0,0,1-.1.42l-1,2.69Z"/>
    <path class="cls-5" d="M42.13,190.92v2.38H41.4V187h1.73a2.26,2.26,0,0,1,1.56.49,1.76,1.76,0,0,1,.56,1.39,1.91,1.91,0,0,1-.62,1.46,2.37,2.37,0,0,1-1.67.58Zm0-3.26v2.59h.78a1.71,1.71,0,0,0,1.16-.35,1.23,1.23,0,0,0,.41-1c0-.83-.5-1.25-1.48-1.25Z"/>
    <path class="cls-5" d="M47.17,193.3h-.73V187h.73Z"/>
    <path class="cls-5" d="M56.87,188.8l-1.35,4.5h-.75l-.92-3.22a2.61,2.61,0,0,1-.08-.42h0a2.4,2.4,0,0,1-.09.41l-1,3.23h-.72l-1.36-4.5h.75l.93,3.38a1.89,1.89,0,0,1,.06.4h0a2.45,2.45,0,0,1,.08-.41l1-3.37h.66l.93,3.39a2,2,0,0,1,.06.4h0a1.68,1.68,0,0,1,.07-.4l.92-3.39Z"/>
    <path class="cls-5" d="M61.32,191.23H58.14a1.66,1.66,0,0,0,.41,1.16,1.4,1.4,0,0,0,1.06.41,2.2,2.2,0,0,0,1.4-.51V193a2.61,2.61,0,0,1-1.57.43,1.89,1.89,0,0,1-1.5-.61,2.53,2.53,0,0,1-.54-1.73,2.44,2.44,0,0,1,.59-1.71,1.92,1.92,0,0,1,1.48-.66,1.71,1.71,0,0,1,1.37.57,2.4,2.4,0,0,1,.48,1.59Zm-.74-.61a1.47,1.47,0,0,0-.3-1,1,1,0,0,0-.82-.34,1.19,1.19,0,0,0-.87.36,1.68,1.68,0,0,0-.44,1Z"/>
    <path class="cls-5" d="M63.15,192.65h0v.65h-.72v-6.67h.72v3h0a1.69,1.69,0,0,1,1.55-.9,1.64,1.64,0,0,1,1.36.61,2.47,2.47,0,0,1,.49,1.62,2.74,2.74,0,0,1-.55,1.8,1.82,1.82,0,0,1-1.5.68A1.47,1.47,0,0,1,63.15,192.65Zm0-1.82v.63a1.36,1.36,0,0,0,.36.95,1.29,1.29,0,0,0,1.95-.12,2.25,2.25,0,0,0,.37-1.39,1.79,1.79,0,0,0-.35-1.18,1.15,1.15,0,0,0-.94-.42,1.26,1.26,0,0,0-1,.44A1.61,1.61,0,0,0,63.13,190.83Z"/>
    <path class="cls-5" d="M74,193.3h-.72v-.77h0a1.82,1.82,0,0,1-2.9.27,2.47,2.47,0,0,1-.51-1.65,2.74,2.74,0,0,1,.56-1.79,1.89,1.89,0,0,1,1.5-.67,1.43,1.43,0,0,1,1.35.73h0v-2.79H74Zm-.72-2v-.66a1.28,1.28,0,0,0-.36-.92,1.19,1.19,0,0,0-.92-.38,1.23,1.23,0,0,0-1,.48,2.08,2.08,0,0,0-.38,1.34,1.94,1.94,0,0,0,.36,1.23,1.19,1.19,0,0,0,1,.45,1.24,1.24,0,0,0,1-.44A1.62,1.62,0,0,0,73.29,191.26Z"/>
    <path class="cls-5" d="M79.1,193.3h-.72v-.72h0a1.48,1.48,0,0,1-1.39.82c-1.07,0-1.61-.64-1.61-1.91V188.8h.72v2.57c0,.95.36,1.43,1.09,1.43a1.08,1.08,0,0,0,.86-.39,1.48,1.48,0,0,0,.34-1V188.8h.72Z"/>
    <path class="cls-5" d="M86.87,193.3h-.72v-.77h0a1.82,1.82,0,0,1-2.9.27,2.47,2.47,0,0,1-.51-1.65,2.68,2.68,0,0,1,.56-1.79,1.87,1.87,0,0,1,1.5-.67,1.43,1.43,0,0,1,1.35.73h0v-2.79h.72Zm-.72-2v-.66a1.29,1.29,0,0,0-.37-.92,1.17,1.17,0,0,0-.91-.38,1.26,1.26,0,0,0-1,.48,2.13,2.13,0,0,0-.37,1.34,1.94,1.94,0,0,0,.36,1.23,1.17,1.17,0,0,0,1,.45,1.24,1.24,0,0,0,1-.44A1.62,1.62,0,0,0,86.15,191.26Z"/>
    <path class="cls-5" d="M91.94,191.23H88.76a1.71,1.71,0,0,0,.41,1.16,1.4,1.4,0,0,0,1.06.41,2.2,2.2,0,0,0,1.4-.51V193a2.61,2.61,0,0,1-1.57.43,1.9,1.9,0,0,1-1.5-.61,2.53,2.53,0,0,1-.54-1.73,2.48,2.48,0,0,1,.59-1.71,1.92,1.92,0,0,1,1.48-.66,1.7,1.7,0,0,1,1.37.57,2.4,2.4,0,0,1,.48,1.59Zm-.74-.61a1.47,1.47,0,0,0-.3-1,1,1,0,0,0-.82-.34,1.19,1.19,0,0,0-.87.36,1.75,1.75,0,0,0-.44,1Zm-.11-4.12-1.15,1.44h-.56l1-1.44Z"/>
    <path class="cls-5" d="M99.42,193.3H98.7v-2.59a2,2,0,0,0-.23-1.08.88.88,0,0,0-.78-.33,1,1,0,0,0-.78.42,1.58,1.58,0,0,0-.32,1v2.57h-.72v-2.67c0-.89-.35-1.33-1-1.33a.94.94,0,0,0-.78.4,1.6,1.6,0,0,0-.31,1v2.57H93v-4.5h.72v.71h0a1.52,1.52,0,0,1,1.4-.82,1.32,1.32,0,0,1,.8.26,1.24,1.24,0,0,1,.47.67,1.61,1.61,0,0,1,1.5-.93c1,0,1.48.61,1.48,1.83Z"/>
    <path class="cls-5" d="M102.66,193.4a2.09,2.09,0,0,1-1.59-.63,2.32,2.32,0,0,1-.59-1.67,2.39,2.39,0,0,1,.62-1.77,2.2,2.2,0,0,1,1.67-.64,2,2,0,0,1,1.57.62,2.8,2.8,0,0,1,0,3.44A2.12,2.12,0,0,1,102.66,193.4Zm.06-4.1a1.38,1.38,0,0,0-1.1.47,1.93,1.93,0,0,0-.41,1.3,1.82,1.82,0,0,0,.41,1.26,1.41,1.41,0,0,0,1.1.47,1.3,1.3,0,0,0,1.07-.46,2,2,0,0,0,.38-1.28,2,2,0,0,0-.38-1.31A1.32,1.32,0,0,0,102.72,189.3Z"/>
    <path class="cls-5" d="M109.79,193.3h-.72v-2.57c0-.95-.35-1.43-1-1.43a1.15,1.15,0,0,0-.9.4,1.57,1.57,0,0,0-.35,1v2.57h-.72v-4.5h.72v.74h0a1.65,1.65,0,0,1,1.48-.85,1.38,1.38,0,0,1,1.13.48,2.14,2.14,0,0,1,.39,1.38Z"/>
  </g>
  <g id="group1060-114">
    <g id="shape1061-115">
      <path id="path1292" class="cls-6" d="M17.37,169.49H10.65a.59.59,0,0,1-.61-.57v-6.44H12v-1.77H24.4a.59.59,0,0,1,.62.57v.09a6.4,6.4,0,0,1,1,.33v-.42a1.53,1.53,0,0,0-1.58-1.46h-13L9.08,162v6.9a1.51,1.51,0,0,0,1.57,1.46h7.28A5.8,5.8,0,0,1,17.37,169.49Z"/>
    </g>
    <g id="group1062-117">
      <g id="group1063-118">
        <g id="shape1064-119">
          <path id="path1301" class="cls-6" d="M26,171l2.34,3.26-2.17-.54-.61,1.64-2.34-2.88-1.75,2.88-.8-1.74-2.17.54,2.14-3.42s.58.92,2.69.92S26,171,26,171Z"/>
        </g>
      </g>
      <g id="group1065-121">
        <g id="shape1066-122">
          <path id="path1309" class="cls-6" d="M23.43,170.42a3.43,3.43,0,1,1,0-6.83,3.43,3.43,0,1,1,0,6.83Zm0-6.06a2.66,2.66,0,1,0,2.9,2.65A2.78,2.78,0,0,0,23.43,164.36Z"/>
        </g>
      </g>
      <g id="group1067-124">
        <g id="shape1068-125">
          <path id="path1317" class="cls-6" d="M23.43,172.23a5.24,5.24,0,1,1,0-10.45,5.24,5.24,0,1,1,0,10.45Zm0-9.69a4.48,4.48,0,1,0,0,8.93,4.48,4.48,0,1,0,0-8.93Z"/>
        </g>
      </g>
    </g>
  </g>
  <g id="shape1215-134">
    <rect id="rect1335" class="cls-7" x="104.46" y="61.11" width="114.21" height="20"/>
    <g id="text1337" class="cls-4">
      <path class="cls-8" d="M116.71,53.85H114v2.42h2.53V57H114v3.1h-.82v-7h3.56Z"/>
      <path class="cls-8" d="M118.73,60.11h-.8v-7.4h.8Z"/>
      <path class="cls-8" d="M124.39,60.11h-.8v-.79h0a1.63,1.63,0,0,1-1.54.91c-1.19,0-1.79-.71-1.79-2.13v-3h.8V58c0,1.06.4,1.59,1.21,1.59a1.21,1.21,0,0,0,1-.44,1.61,1.61,0,0,0,.38-1.13V55.11h.8Z"/>
      <path class="cls-8" d="M129.66,55.11,128,57.64l1.65,2.47h-.93l-1-1.62c-.06-.1-.14-.23-.22-.38h0s-.09.16-.23.38l-1,1.62h-.92l1.7-2.45-1.63-2.55h.93l1,1.71.21.39h0l1.25-2.1Z"/>
      <path class="cls-8" d="M137.61,60.11h-.81v-.85h0a2,2,0,0,1-3.23.3,2.74,2.74,0,0,1-.56-1.83,3,3,0,0,1,.62-2,2.06,2.06,0,0,1,1.67-.74,1.62,1.62,0,0,1,1.5.81h0v-3.1h.81Zm-.81-2.26v-.74a1.41,1.41,0,0,0-.4-1,1.32,1.32,0,0,0-1-.42,1.37,1.37,0,0,0-1.15.54,2.33,2.33,0,0,0-.42,1.48,2.08,2.08,0,0,0,.4,1.36,1.31,1.31,0,0,0,1.08.51,1.38,1.38,0,0,0,1.09-.49A1.78,1.78,0,0,0,136.8,57.85Z"/>
      <path class="cls-8" d="M140.21,53l-.68,2.18H139L139.5,53Z"/>
      <path class="cls-8" d="M141.93,53.84a.53.53,0,0,1-.37-.14.51.51,0,0,1-.15-.37.52.52,0,0,1,.15-.38.5.5,0,0,1,.37-.15.51.51,0,0,1,.37.15.52.52,0,0,1,.15.38.49.49,0,0,1-.15.36A.51.51,0,0,1,141.93,53.84Zm.39,6.27h-.8v-5h.8Z"/>
      <path class="cls-8" d="M148.09,60.11h-.8V57.26c0-1.06-.39-1.59-1.16-1.59a1.27,1.27,0,0,0-1,.45,1.68,1.68,0,0,0-.39,1.14v2.85h-.8v-5h.8v.83h0A1.8,1.8,0,0,1,146.4,55a1.52,1.52,0,0,1,1.25.52,2.39,2.39,0,0,1,.44,1.54Z"/>
      <path class="cls-8" d="M152.07,53.41a1.19,1.19,0,0,0-.53-.13c-.56,0-.84.35-.84,1.06v.77h1.17v.69H150.7v4.31h-.8V55.8h-.85v-.69h.85V54.3a1.69,1.69,0,0,1,.45-1.24,1.53,1.53,0,0,1,1.14-.46,1.57,1.57,0,0,1,.58.09Z"/>
      <path class="cls-8" d="M154.82,60.23a2.31,2.31,0,0,1-1.77-.7,2.61,2.61,0,0,1-.66-1.86,2.74,2.74,0,0,1,.68-2,2.48,2.48,0,0,1,1.86-.7,2.24,2.24,0,0,1,1.75.68,2.73,2.73,0,0,1,.63,1.91,2.7,2.7,0,0,1-.68,1.92A2.36,2.36,0,0,1,154.82,60.23Zm.06-4.56a1.5,1.5,0,0,0-1.22.52,2.17,2.17,0,0,0-.45,1.45,2,2,0,0,0,.45,1.4,1.56,1.56,0,0,0,1.22.52,1.46,1.46,0,0,0,1.19-.51,2.16,2.16,0,0,0,.42-1.43,2.21,2.21,0,0,0-.42-1.44A1.46,1.46,0,0,0,154.88,55.67Z"/>
      <path class="cls-8" d="M161.19,55.92a1.07,1.07,0,0,0-1.46.33,2.21,2.21,0,0,0-.34,1.31v2.55h-.8v-5h.8v1h0a1.76,1.76,0,0,1,.52-.82,1.18,1.18,0,0,1,.79-.3,1.41,1.41,0,0,1,.47.07Z"/>
      <path class="cls-8" d="M169.16,60.11h-.8V57.24a2.19,2.19,0,0,0-.25-1.2,1,1,0,0,0-.87-.37,1.08,1.08,0,0,0-.87.47,1.77,1.77,0,0,0-.36,1.12v2.85h-.8v-3c0-1-.38-1.47-1.13-1.47a1,1,0,0,0-.87.44,1.83,1.83,0,0,0-.35,1.15v2.85h-.8v-5h.8v.79h0a1.72,1.72,0,0,1,1.56-.9,1.42,1.42,0,0,1,1.41,1,1.78,1.78,0,0,1,1.66-1c1.1,0,1.65.67,1.65,2Z"/>
      <path class="cls-8" d="M174.26,60.11h-.8v-.78h0a1.69,1.69,0,0,1-1.54.9,1.61,1.61,0,0,1-1.17-.4,1.36,1.36,0,0,1-.42-1c0-.93.55-1.47,1.65-1.63l1.5-.21c0-.85-.35-1.27-1-1.27a2.47,2.47,0,0,0-1.63.61v-.82a3.14,3.14,0,0,1,1.7-.46q1.77,0,1.77,1.86Zm-.8-2.53-1.21.17a2,2,0,0,0-.84.27.81.81,0,0,0-.28.71.73.73,0,0,0,.26.59,1,1,0,0,0,.69.24,1.29,1.29,0,0,0,1-.42,1.49,1.49,0,0,0,.39-1.06Z"/>
      <path class="cls-8" d="M178.08,60.06a1.45,1.45,0,0,1-.74.16q-1.32,0-1.32-1.47v-3h-.86v-.69H176V53.89l.8-.26v1.48h1.26v.69h-1.26v2.81a1.11,1.11,0,0,0,.18.72.68.68,0,0,0,.56.22.83.83,0,0,0,.52-.17Z"/>
      <path class="cls-8" d="M179.56,53.84a.52.52,0,0,1-.36-.14.51.51,0,0,1-.15-.37.52.52,0,0,1,.15-.38.49.49,0,0,1,.36-.15.54.54,0,0,1,.38.15.52.52,0,0,1,.15.38.49.49,0,0,1-.15.36A.54.54,0,0,1,179.56,53.84Zm.39,6.27h-.8v-5h.8Z"/>
      <path class="cls-8" d="M183.67,60.23a2.34,2.34,0,0,1-1.78-.7,2.61,2.61,0,0,1-.66-1.86,2.7,2.7,0,0,1,.69-2,2.48,2.48,0,0,1,1.86-.7,2.24,2.24,0,0,1,1.75.68,2.73,2.73,0,0,1,.63,1.91,2.7,2.7,0,0,1-.68,1.92A2.37,2.37,0,0,1,183.67,60.23Zm.05-4.56a1.52,1.52,0,0,0-1.22.52,2.17,2.17,0,0,0-.45,1.45,2.05,2.05,0,0,0,.46,1.4,1.55,1.55,0,0,0,1.21.52,1.47,1.47,0,0,0,1.2-.51,2.16,2.16,0,0,0,.41-1.43,2.21,2.21,0,0,0-.41-1.44A1.47,1.47,0,0,0,183.72,55.67Z"/>
      <path class="cls-8" d="M191.58,60.11h-.8V57.26c0-1.06-.38-1.59-1.16-1.59a1.25,1.25,0,0,0-1,.45,1.68,1.68,0,0,0-.39,1.14v2.85h-.81v-5h.81v.83h0A1.81,1.81,0,0,1,189.9,55a1.53,1.53,0,0,1,1.25.52,2.39,2.39,0,0,1,.43,1.54Z"/>
      <path class="cls-8" d="M192.79,59.93v-.86a2.41,2.41,0,0,0,1.44.49c.7,0,1.06-.24,1.06-.71a.64.64,0,0,0-.09-.34,1,1,0,0,0-.25-.24,2,2,0,0,0-.36-.2l-.45-.17c-.22-.09-.41-.18-.58-.27a1.74,1.74,0,0,1-.42-.3,1.08,1.08,0,0,1-.25-.39,1.28,1.28,0,0,1-.09-.5,1.17,1.17,0,0,1,.16-.62,1.57,1.57,0,0,1,.43-.46,2,2,0,0,1,.61-.27,2.82,2.82,0,0,1,.71-.09,2.87,2.87,0,0,1,1.17.22V56a2.27,2.27,0,0,0-1.27-.36,1.7,1.7,0,0,0-.41,0,1,1,0,0,0-.31.14.87.87,0,0,0-.2.23.53.53,0,0,0-.07.28.67.67,0,0,0,.07.33.66.66,0,0,0,.21.23,1.69,1.69,0,0,0,.33.19l.45.18a4.72,4.72,0,0,1,.59.26,2,2,0,0,1,.45.3,1.52,1.52,0,0,1,.29.39,1.38,1.38,0,0,1,.1.52,1.23,1.23,0,0,1-.17.65,1.42,1.42,0,0,1-.43.45,2.22,2.22,0,0,1-.63.27,3.08,3.08,0,0,1-.75.09A2.82,2.82,0,0,1,192.79,59.93Z"/>
      <path class="cls-8" d="M117.31,72.11h-.8v-.85h0a2,2,0,0,1-3.22.3,2.75,2.75,0,0,1-.57-1.83,3,3,0,0,1,.63-2A2,2,0,0,1,115,67a1.6,1.6,0,0,1,1.5.81h0v-3.1h.8Zm-.8-2.26v-.74a1.41,1.41,0,0,0-.4-1,1.34,1.34,0,0,0-1-.42,1.39,1.39,0,0,0-1.16.54,2.33,2.33,0,0,0-.42,1.48,2.08,2.08,0,0,0,.41,1.36,1.28,1.28,0,0,0,1.08.51,1.36,1.36,0,0,0,1.08-.49A1.79,1.79,0,0,0,116.51,69.85Z"/>
      <path class="cls-8" d="M119.92,65l-.68,2.18h-.58L119.2,65Z"/>
      <path class="cls-8" d="M121.63,65.84a.52.52,0,0,1-.36-.14.51.51,0,0,1-.15-.37.52.52,0,0,1,.15-.38.49.49,0,0,1,.36-.15A.54.54,0,0,1,122,65a.52.52,0,0,1,.15.38.49.49,0,0,1-.15.36A.54.54,0,0,1,121.63,65.84Zm.39,6.27h-.8v-5h.8Z"/>
      <path class="cls-8" d="M127.91,72.11h-.8v-.85h0a2,2,0,0,1-3.22.3,2.75,2.75,0,0,1-.57-1.83,3,3,0,0,1,.63-2,2,2,0,0,1,1.66-.74,1.6,1.6,0,0,1,1.5.81h0v-3.1h.8Zm-.8-2.26v-.74a1.41,1.41,0,0,0-.4-1,1.34,1.34,0,0,0-1-.42,1.39,1.39,0,0,0-1.16.54,2.33,2.33,0,0,0-.42,1.48,2.08,2.08,0,0,0,.41,1.36,1.3,1.3,0,0,0,1.08.51,1.36,1.36,0,0,0,1.08-.49A1.79,1.79,0,0,0,127.11,69.85Z"/>
      <path class="cls-8" d="M133.55,69.81H130a1.88,1.88,0,0,0,.45,1.29,1.57,1.57,0,0,0,1.18.46,2.49,2.49,0,0,0,1.56-.56v.75a2.9,2.9,0,0,1-1.75.48,2.12,2.12,0,0,1-1.66-.68,2.77,2.77,0,0,1-.61-1.92,2.73,2.73,0,0,1,.66-1.9A2.12,2.12,0,0,1,131.5,67a1.9,1.9,0,0,1,1.52.63,2.68,2.68,0,0,1,.53,1.76Zm-.82-.68a1.62,1.62,0,0,0-.33-1.08,1.17,1.17,0,0,0-.92-.38,1.28,1.28,0,0,0-1,.4,1.87,1.87,0,0,0-.49,1.06Z"/>
      <path class="cls-8" d="M138.91,72.11h-.8V69.26c0-1.06-.38-1.59-1.16-1.59a1.25,1.25,0,0,0-1,.45,1.68,1.68,0,0,0-.4,1.14v2.85h-.8v-5h.8v.83h0a1.81,1.81,0,0,1,1.64-.94,1.54,1.54,0,0,1,1.26.52,2.39,2.39,0,0,1,.43,1.54Z"/>
      <path class="cls-8" d="M142.74,72.06a1.48,1.48,0,0,1-.74.16q-1.32,0-1.32-1.47v-3h-.86v-.69h.86V65.89l.8-.26v1.48h1.26v.69h-1.26v2.81a1.19,1.19,0,0,0,.17.72.72.72,0,0,0,.57.22.83.83,0,0,0,.52-.17Z"/>
      <path class="cls-8" d="M144.22,65.84a.52.52,0,0,1-.36-.14.49.49,0,0,1-.16-.37.53.53,0,0,1,.52-.53.5.5,0,0,1,.37.15.49.49,0,0,1,.16.38.46.46,0,0,1-.16.36A.5.5,0,0,1,144.22,65.84Zm.39,6.27h-.8v-5h.8Z"/>
      <path class="cls-8" d="M148.7,65.41a1.12,1.12,0,0,0-.53-.13c-.56,0-.84.35-.84,1.06v.77h1.17v.69h-1.17v4.31h-.79V67.8h-.86v-.69h.86V66.3a1.69,1.69,0,0,1,.45-1.24,1.7,1.7,0,0,1,1.71-.37Z"/>
      <path class="cls-8" d="M149.77,65.84a.52.52,0,0,1-.36-.14.51.51,0,0,1-.15-.37.52.52,0,0,1,.15-.38.49.49,0,0,1,.36-.15.54.54,0,0,1,.38.15.52.52,0,0,1,.15.38.49.49,0,0,1-.15.36A.54.54,0,0,1,149.77,65.84Zm.39,6.27h-.8v-5h.8Z"/>
      <path class="cls-8" d="M155.19,71.88a2.6,2.6,0,0,1-1.36.35,2.25,2.25,0,0,1-1.73-.7,2.5,2.5,0,0,1-.66-1.8,2.8,2.8,0,0,1,.71-2A2.5,2.5,0,0,1,154,67a2.64,2.64,0,0,1,1.16.24v.82a2,2,0,0,0-1.19-.39,1.61,1.61,0,0,0-1.26.55,2.11,2.11,0,0,0-.49,1.44,2,2,0,0,0,.46,1.39,1.61,1.61,0,0,0,1.24.51,2,2,0,0,0,1.23-.44Z"/>
      <path class="cls-8" d="M160,72.11h-.8v-.78h0a1.67,1.67,0,0,1-1.53.9,1.61,1.61,0,0,1-1.17-.4,1.34,1.34,0,0,1-.43-1c0-.93.55-1.47,1.65-1.63l1.5-.21c0-.85-.34-1.27-1-1.27a2.47,2.47,0,0,0-1.63.61v-.82a3.12,3.12,0,0,1,1.7-.46c1.18,0,1.76.62,1.76,1.86Zm-.8-2.53-1.2.17a2,2,0,0,0-.84.27.82.82,0,0,0-.29.71.76.76,0,0,0,.26.59,1,1,0,0,0,.7.24,1.26,1.26,0,0,0,1-.42,1.49,1.49,0,0,0,.39-1.06Z"/>
      <path class="cls-8" d="M163.81,72.06a1.49,1.49,0,0,1-.75.16c-.87,0-1.31-.49-1.31-1.47v-3h-.86v-.69h.86V65.89l.8-.26v1.48h1.26v.69h-1.26v2.81a1.19,1.19,0,0,0,.17.72.72.72,0,0,0,.57.22.83.83,0,0,0,.52-.17Z"/>
      <path class="cls-8" d="M165.29,65.84a.57.57,0,0,1-.37-.14.51.51,0,0,1-.15-.37.52.52,0,0,1,.15-.38.53.53,0,0,1,.37-.15.5.5,0,0,1,.37.15.49.49,0,0,1,.16.38.46.46,0,0,1-.16.36A.5.5,0,0,1,165.29,65.84Zm.39,6.27h-.8v-5h.8Z"/>
      <path class="cls-8" d="M169.39,72.23a2.31,2.31,0,0,1-1.77-.7,2.61,2.61,0,0,1-.66-1.86,2.7,2.7,0,0,1,.69-2,2.48,2.48,0,0,1,1.86-.7,2.22,2.22,0,0,1,1.74.68,2.73,2.73,0,0,1,.63,1.91,2.69,2.69,0,0,1-.67,1.92A2.38,2.38,0,0,1,169.39,72.23Zm.06-4.56a1.52,1.52,0,0,0-1.22.52,2.17,2.17,0,0,0-.45,1.45,2,2,0,0,0,.46,1.4,1.54,1.54,0,0,0,1.21.52,1.43,1.43,0,0,0,1.19-.51,2.16,2.16,0,0,0,.42-1.43,2.21,2.21,0,0,0-.42-1.44A1.43,1.43,0,0,0,169.45,67.67Z"/>
      <path class="cls-8" d="M177.31,72.11h-.8V69.26c0-1.06-.39-1.59-1.16-1.59a1.25,1.25,0,0,0-1,.45,1.64,1.64,0,0,0-.4,1.14v2.85h-.8v-5h.8v.83h0a1.81,1.81,0,0,1,1.64-.94,1.54,1.54,0,0,1,1.26.52,2.39,2.39,0,0,1,.43,1.54Z"/>
      <path class="cls-8" d="M185.83,72.11H185v-.85h0a1.85,1.85,0,0,1-1.72,1,1.87,1.87,0,0,1-1.51-.67,2.8,2.8,0,0,1-.56-1.83,3,3,0,0,1,.62-2,2.07,2.07,0,0,1,1.67-.74,1.6,1.6,0,0,1,1.5.81h0v-3.1h.8Zm-.8-2.26v-.74a1.45,1.45,0,0,0-.4-1,1.36,1.36,0,0,0-1-.42,1.37,1.37,0,0,0-1.15.54,2.33,2.33,0,0,0-.42,1.48,2.08,2.08,0,0,0,.4,1.36,1.31,1.31,0,0,0,1.08.51,1.38,1.38,0,0,0,1.09-.49A1.79,1.79,0,0,0,185,69.85Z"/>
      <path class="cls-8" d="M191.49,72.11h-.8v-.79h0a1.63,1.63,0,0,1-1.54.91c-1.19,0-1.79-.71-1.79-2.13v-3h.8V70c0,1.06.4,1.59,1.21,1.59a1.21,1.21,0,0,0,1-.44,1.61,1.61,0,0,0,.38-1.13V67.11h.8Z"/>
      <path class="cls-8" d="M199.26,71.88a2.63,2.63,0,0,1-1.37.35,2.26,2.26,0,0,1-1.73-.7,2.49,2.49,0,0,1-.65-1.8,2.8,2.8,0,0,1,.7-2A2.53,2.53,0,0,1,198.1,67a2.72,2.72,0,0,1,1.17.24v.82a2.07,2.07,0,0,0-1.2-.39,1.57,1.57,0,0,0-1.25.55,2.06,2.06,0,0,0-.49,1.44,2,2,0,0,0,.46,1.39,1.58,1.58,0,0,0,1.24.51,2,2,0,0,0,1.23-.44Z"/>
      <path class="cls-8" d="M201.27,72.11h-.8v-7.4h.8Z"/>
      <path class="cls-8" d="M203.3,65.84a.55.55,0,0,1-.37-.14.51.51,0,0,1-.15-.37.52.52,0,0,1,.15-.38.51.51,0,0,1,.37-.15.5.5,0,0,1,.37.15.53.53,0,0,1,.16.38.53.53,0,0,1-.53.51Zm.39,6.27h-.8v-5h.8Z"/>
      <path class="cls-8" d="M209.33,69.81H205.8a1.83,1.83,0,0,0,.45,1.29,1.55,1.55,0,0,0,1.18.46A2.46,2.46,0,0,0,209,71v.75a2.89,2.89,0,0,1-1.74.48,2.14,2.14,0,0,1-1.67-.68,2.81,2.81,0,0,1-.6-1.92,2.73,2.73,0,0,1,.66-1.9,2.12,2.12,0,0,1,1.64-.73,1.88,1.88,0,0,1,1.52.63,2.63,2.63,0,0,1,.54,1.76Zm-.82-.68a1.68,1.68,0,0,0-.34-1.08,1.15,1.15,0,0,0-.91-.38,1.28,1.28,0,0,0-1,.4,1.81,1.81,0,0,0-.49,1.06Z"/>
      <path class="cls-8" d="M214.69,72.11h-.8V69.26c0-1.06-.39-1.59-1.16-1.59a1.29,1.29,0,0,0-1,.45,1.68,1.68,0,0,0-.39,1.14v2.85h-.8v-5h.8v.83h0A1.8,1.8,0,0,1,213,67a1.54,1.54,0,0,1,1.26.52,2.45,2.45,0,0,1,.43,1.54Z"/>
      <path class="cls-8" d="M218.52,72.06a1.49,1.49,0,0,1-.75.16c-.87,0-1.31-.49-1.31-1.47v-3h-.86v-.69h.86V65.89l.8-.26v1.48h1.26v.69h-1.26v2.81a1.19,1.19,0,0,0,.17.72.69.69,0,0,0,.57.22.85.85,0,0,0,.52-.17Z"/>
    </g>
  </g>
  <g>
    <path class="cls-5" d="M56.58,41.57h-.82l-.67-1.77H52.42l-.63,1.77H51l2.42-6.3h.76Zm-1.73-2.43-1-2.69a2.85,2.85,0,0,1-.09-.42h0a2.17,2.17,0,0,1-.1.42l-1,2.69Z"/>
    <path class="cls-5" d="M58.15,40.92h0v2.72h-.72V37.07h.72v.79h0A1.69,1.69,0,0,1,59.7,37a1.63,1.63,0,0,1,1.36.61,2.47,2.47,0,0,1,.49,1.62A2.74,2.74,0,0,1,61,41a1.82,1.82,0,0,1-1.5.68A1.49,1.49,0,0,1,58.15,40.92Zm0-1.82v.63a1.36,1.36,0,0,0,.36,1,1.2,1.2,0,0,0,.92.39,1.22,1.22,0,0,0,1-.5,2.31,2.31,0,0,0,.37-1.4A1.74,1.74,0,0,0,60.46,38a1.13,1.13,0,0,0-.94-.43,1.26,1.26,0,0,0-1,.44A1.61,1.61,0,0,0,58.13,39.1Z"/>
    <path class="cls-5" d="M63.44,40.92h0v2.72H62.7V37.07h.72v.79h0A1.7,1.7,0,0,1,65,37a1.61,1.61,0,0,1,1.35.61,2.47,2.47,0,0,1,.49,1.62,2.74,2.74,0,0,1-.55,1.8,1.82,1.82,0,0,1-1.5.68A1.49,1.49,0,0,1,63.44,40.92Zm0-1.82v.63a1.36,1.36,0,0,0,.36,1,1.3,1.3,0,0,0,2-.11,2.31,2.31,0,0,0,.37-1.4A1.74,1.74,0,0,0,65.75,38a1.12,1.12,0,0,0-.93-.43,1.28,1.28,0,0,0-1,.44A1.61,1.61,0,0,0,63.42,39.1Z"/>
    <path class="cls-5" d="M68.71,41.57H68V34.91h.72Z"/>
    <path class="cls-5" d="M70.54,35.93a.45.45,0,0,1-.33-.14.43.43,0,0,1-.13-.33.45.45,0,0,1,.13-.34.44.44,0,0,1,.33-.13.47.47,0,0,1,.34.13.46.46,0,0,1,.14.34.45.45,0,0,1-.14.33A.48.48,0,0,1,70.54,35.93Zm.35,5.64h-.72v-4.5h.72Z"/>
    <path class="cls-5" d="M75.42,41.36a2.34,2.34,0,0,1-1.23.31,2.09,2.09,0,0,1-1.56-.62A2.3,2.3,0,0,1,72,39.42a2.5,2.5,0,0,1,.64-1.78,2.24,2.24,0,0,1,1.7-.68,2.46,2.46,0,0,1,1.05.22v.74a1.87,1.87,0,0,0-1.07-.35,1.47,1.47,0,0,0-1.14.49,1.91,1.91,0,0,0-.44,1.3,1.77,1.77,0,0,0,.42,1.25,1.44,1.44,0,0,0,1.11.46,1.83,1.83,0,0,0,1.11-.39Z"/>
    <path class="cls-5" d="M79.73,41.57H79v-.71h0a1.5,1.5,0,0,1-1.38.81,1.54,1.54,0,0,1-1.06-.35,1.25,1.25,0,0,1-.38-1c0-.84.5-1.33,1.49-1.47L79,38.72c0-.77-.31-1.15-.93-1.15a2.22,2.22,0,0,0-1.47.55v-.74A2.84,2.84,0,0,1,78.14,37q1.59,0,1.59,1.68ZM79,39.29l-1.09.15a1.78,1.78,0,0,0-.75.25.72.72,0,0,0-.26.63.68.68,0,0,0,.24.54.88.88,0,0,0,.62.21,1.16,1.16,0,0,0,.89-.38,1.36,1.36,0,0,0,.35-.95Z"/>
    <path class="cls-5" d="M83.17,41.52a1.31,1.31,0,0,1-.67.14c-.79,0-1.18-.43-1.18-1.31V37.68h-.77v-.61h.77V36l.72-.23v1.33h1.13v.61H82v2.54a1,1,0,0,0,.16.64.61.61,0,0,0,.51.2.73.73,0,0,0,.46-.15Z"/>
    <path class="cls-5" d="M84.51,35.93a.45.45,0,0,1-.33-.14.44.44,0,0,1-.14-.33.46.46,0,0,1,.14-.34.48.48,0,0,1,.66,0,.42.42,0,0,1,.14.34.42.42,0,0,1-.14.33A.45.45,0,0,1,84.51,35.93Zm.35,5.64h-.72v-4.5h.72Z"/>
    <path class="cls-5" d="M88.2,41.67A2.06,2.06,0,0,1,86.61,41a2.33,2.33,0,0,1-.6-1.67,2.43,2.43,0,0,1,.62-1.77A2.2,2.2,0,0,1,88.3,37a2.06,2.06,0,0,1,1.58.62,2.51,2.51,0,0,1,.56,1.72A2.38,2.38,0,0,1,89.83,41,2.11,2.11,0,0,1,88.2,41.67Zm0-4.1a1.39,1.39,0,0,0-1.1.47,1.94,1.94,0,0,0-.4,1.3,1.82,1.82,0,0,0,.41,1.27,1.4,1.4,0,0,0,1.09.46,1.3,1.3,0,0,0,1.08-.46,2,2,0,0,0,.37-1.28,2,2,0,0,0-.37-1.3A1.3,1.3,0,0,0,88.25,37.57Z"/>
    <path class="cls-5" d="M95.33,41.57h-.72V39c0-1-.35-1.43-1-1.43a1.09,1.09,0,0,0-.89.41,1.48,1.48,0,0,0-.36,1v2.57h-.72v-4.5h.72v.74h0A1.64,1.64,0,0,1,93.81,37a1.39,1.39,0,0,1,1.13.48,2.14,2.14,0,0,1,.39,1.38Z"/>
    <path class="cls-5" d="M49.84,47.87l-1.35,4.5h-.75l-.93-3.22c0-.13-.05-.27-.07-.42h0a1.82,1.82,0,0,1-.1.41l-1,3.23h-.72l-1.37-4.5h.76l.93,3.38a1.89,1.89,0,0,1,.06.41h0a1.72,1.72,0,0,1,.08-.42l1-3.37h.65L48,51.26a2,2,0,0,1,.06.4h0a1.77,1.77,0,0,1,.07-.4l.92-3.39Z"/>
    <path class="cls-5" d="M54.29,50.3H51.11a1.66,1.66,0,0,0,.41,1.16,1.39,1.39,0,0,0,1.06.41,2.24,2.24,0,0,0,1.4-.5V52a2.61,2.61,0,0,1-1.57.43,1.89,1.89,0,0,1-1.5-.61,2.52,2.52,0,0,1-.54-1.72A2.46,2.46,0,0,1,51,48.42a1.92,1.92,0,0,1,1.48-.66,1.71,1.71,0,0,1,1.37.57,2.4,2.4,0,0,1,.48,1.59Zm-.74-.61a1.43,1.43,0,0,0-.3-1,1,1,0,0,0-.82-.35,1.19,1.19,0,0,0-.87.36,1.68,1.68,0,0,0-.44,1Z"/>
    <path class="cls-5" d="M56.12,51.72h0v.65h-.72V45.71h.72v2.95h0a1.69,1.69,0,0,1,1.55-.9,1.64,1.64,0,0,1,1.36.61A2.47,2.47,0,0,1,59.52,50a2.74,2.74,0,0,1-.55,1.8,1.82,1.82,0,0,1-1.5.68A1.47,1.47,0,0,1,56.12,51.72Zm0-1.82v.63a1.36,1.36,0,0,0,.36.95,1.2,1.2,0,0,0,.92.39,1.22,1.22,0,0,0,1-.5,2.31,2.31,0,0,0,.37-1.4,1.79,1.79,0,0,0-.35-1.18,1.15,1.15,0,0,0-.94-.42,1.26,1.26,0,0,0-1,.44A1.61,1.61,0,0,0,56.1,49.9Z"/>
    <path class="cls-5" d="M67,52.37h-.72V51.6h0a1.82,1.82,0,0,1-2.9.27,2.47,2.47,0,0,1-.51-1.65,2.74,2.74,0,0,1,.56-1.79,1.89,1.89,0,0,1,1.5-.67,1.45,1.45,0,0,1,1.35.73h0V45.71H67Zm-.72-2v-.66a1.28,1.28,0,0,0-.36-.92,1.19,1.19,0,0,0-.92-.38,1.26,1.26,0,0,0-1,.48,2.13,2.13,0,0,0-.37,1.34,1.92,1.92,0,0,0,.36,1.23,1.19,1.19,0,0,0,1,.45,1.24,1.24,0,0,0,1-.44A1.62,1.62,0,0,0,66.26,50.33Z"/>
    <path class="cls-5" d="M72.07,52.37h-.72v-.71h0a1.49,1.49,0,0,1-1.39.81c-1.07,0-1.61-.64-1.61-1.91V47.87h.72v2.57c0,1,.36,1.43,1.09,1.43a1.08,1.08,0,0,0,.86-.39,1.48,1.48,0,0,0,.34-1V47.87h.72Z"/>
    <path class="cls-5" d="M79.83,52.37h-.72V51.6h0a1.67,1.67,0,0,1-1.55.87,1.69,1.69,0,0,1-1.36-.6,2.52,2.52,0,0,1-.5-1.65,2.68,2.68,0,0,1,.56-1.79,1.87,1.87,0,0,1,1.5-.67,1.45,1.45,0,0,1,1.35.73h0V45.71h.72Zm-.72-2v-.66a1.28,1.28,0,0,0-.36-.92,1.17,1.17,0,0,0-.91-.38,1.25,1.25,0,0,0-1,.48,2.14,2.14,0,0,0-.38,1.34,1.92,1.92,0,0,0,.37,1.23,1.17,1.17,0,0,0,1,.45,1.24,1.24,0,0,0,1-.44A1.61,1.61,0,0,0,79.11,50.33Z"/>
    <path class="cls-5" d="M84.91,50.3H81.73a1.71,1.71,0,0,0,.41,1.16,1.4,1.4,0,0,0,1.06.41,2.24,2.24,0,0,0,1.4-.5V52a2.61,2.61,0,0,1-1.57.43,1.89,1.89,0,0,1-1.5-.61A2.52,2.52,0,0,1,81,50.14a2.46,2.46,0,0,1,.59-1.72,1.92,1.92,0,0,1,1.48-.66,1.71,1.71,0,0,1,1.37.57,2.4,2.4,0,0,1,.48,1.59Zm-.74-.61a1.43,1.43,0,0,0-.3-1,1,1,0,0,0-.82-.35,1.19,1.19,0,0,0-.87.36,1.68,1.68,0,0,0-.44,1Zm-.11-4.12L82.91,47h-.56l1-1.45Z"/>
    <path class="cls-5" d="M92.39,52.37h-.72V49.78a2,2,0,0,0-.23-1.08.89.89,0,0,0-.78-.33.94.94,0,0,0-.78.42,1.58,1.58,0,0,0-.32,1v2.57h-.73V49.7c0-.89-.34-1.33-1-1.33a.92.92,0,0,0-.78.4,1.6,1.6,0,0,0-.31,1v2.57H86v-4.5h.72v.71h0a1.52,1.52,0,0,1,1.4-.82,1.32,1.32,0,0,1,.8.26,1.27,1.27,0,0,1,.47.67,1.6,1.6,0,0,1,1.49-.93c1,0,1.49.61,1.49,1.83Z"/>
    <path class="cls-5" d="M95.63,52.47A2.09,2.09,0,0,1,94,51.84a2.33,2.33,0,0,1-.6-1.67,2.43,2.43,0,0,1,.62-1.77,2.24,2.24,0,0,1,1.68-.64,2,2,0,0,1,1.57.62,2.84,2.84,0,0,1,0,3.44A2.12,2.12,0,0,1,95.63,52.47Zm.06-4.1a1.38,1.38,0,0,0-1.1.47,2,2,0,0,0-.41,1.3,1.86,1.86,0,0,0,.41,1.27,1.42,1.42,0,0,0,1.1.46,1.3,1.3,0,0,0,1.07-.46,2,2,0,0,0,.38-1.28,2,2,0,0,0-.38-1.3A1.3,1.3,0,0,0,95.69,48.37Z"/>
    <path class="cls-5" d="M102.76,52.37H102V49.8c0-.95-.35-1.43-1.05-1.43a1.13,1.13,0,0,0-.89.4,1.52,1.52,0,0,0-.35,1v2.57H99v-4.5h.72v.74h0a1.65,1.65,0,0,1,1.48-.85,1.38,1.38,0,0,1,1.13.48,2.14,2.14,0,0,1,.39,1.38Z"/>
  </g>
  <g>
    <path class="cls-5" d="M183.24,116.65h-.82l-.66-1.76h-2.68l-.62,1.76h-.83l2.42-6.3h.77Zm-1.72-2.43-1-2.68a1.84,1.84,0,0,1-.1-.42h0a2.37,2.37,0,0,1-.1.42l-1,2.68Z"/>
    <path class="cls-5" d="M185,116h0v2.72h-.72v-6.57H185v.79h0a1.73,1.73,0,0,1,1.56-.89,1.66,1.66,0,0,1,1.36.6,2.52,2.52,0,0,1,.49,1.62,2.83,2.83,0,0,1-.55,1.81,1.85,1.85,0,0,1-1.51.68A1.51,1.51,0,0,1,185,116Zm0-1.81v.63a1.33,1.33,0,0,0,.36.94,1.3,1.3,0,0,0,1.95-.11,2.34,2.34,0,0,0,.37-1.39,1.82,1.82,0,0,0-.35-1.18,1.15,1.15,0,0,0-.94-.43,1.27,1.27,0,0,0-1,.44A1.59,1.59,0,0,0,185,114.19Z"/>
    <path class="cls-5" d="M190.41,116h0v2.72h-.72v-6.57h.72v.79h0a1.7,1.7,0,0,1,1.55-.89,1.65,1.65,0,0,1,1.36.6,2.47,2.47,0,0,1,.49,1.62,2.77,2.77,0,0,1-.55,1.81,1.84,1.84,0,0,1-1.5.68A1.48,1.48,0,0,1,190.41,116Zm0-1.81v.63a1.33,1.33,0,0,0,.36.94,1.22,1.22,0,0,0,.92.39,1.2,1.2,0,0,0,1-.5,2.27,2.27,0,0,0,.37-1.39,1.77,1.77,0,0,0-.35-1.18,1.15,1.15,0,0,0-.94-.43,1.29,1.29,0,0,0-1,.44A1.63,1.63,0,0,0,190.39,114.19Z"/>
    <path class="cls-5" d="M195.83,116.65h-.72V110h.72Z"/>
    <path class="cls-5" d="M197.82,111a.44.44,0,0,1-.33-.13.46.46,0,0,1-.14-.34.47.47,0,0,1,.8-.33.46.46,0,0,1,0,.66A.45.45,0,0,1,197.82,111Zm.35,5.64h-.72v-4.5h.72Z"/>
    <path class="cls-5" d="M202.85,116.45a2.44,2.44,0,0,1-1.23.31,2,2,0,0,1-1.56-.63,2.29,2.29,0,0,1-.59-1.62,2.49,2.49,0,0,1,.64-1.79,2.21,2.21,0,0,1,1.7-.67,2.35,2.35,0,0,1,1.05.22V113a1.84,1.84,0,0,0-1.08-.36,1.46,1.46,0,0,0-1.13.5,1.89,1.89,0,0,0-.44,1.3,1.8,1.8,0,0,0,.42,1.25,1.42,1.42,0,0,0,1.11.45,1.83,1.83,0,0,0,1.11-.39Z"/>
    <path class="cls-5" d="M207.31,116.65h-.72V116h0a1.5,1.5,0,0,1-1.38.81,1.45,1.45,0,0,1-1.05-.36,1.19,1.19,0,0,1-.38-.94c0-.84.49-1.33,1.48-1.47l1.35-.19c0-.76-.31-1.15-.93-1.15a2.19,2.19,0,0,0-1.46.56v-.74a2.78,2.78,0,0,1,1.52-.42q1.59,0,1.59,1.68Zm-.72-2.27-1.09.15a1.79,1.79,0,0,0-.75.24.73.73,0,0,0-.26.64.66.66,0,0,0,.24.53.9.9,0,0,0,.63.21,1.15,1.15,0,0,0,.88-.37,1.36,1.36,0,0,0,.35-1Z"/>
    <path class="cls-5" d="M210.91,116.61a1.42,1.42,0,0,1-.67.14c-.79,0-1.18-.44-1.18-1.32v-2.66h-.78v-.62h.78v-1.1l.72-.23v1.33h1.13v.62h-1.13v2.53a1.07,1.07,0,0,0,.15.65.6.6,0,0,0,.51.19.75.75,0,0,0,.47-.15Z"/>
    <path class="cls-5" d="M212.39,111a.44.44,0,0,1-.33-.13.45.45,0,0,1-.13-.34.44.44,0,0,1,.13-.33.45.45,0,0,1,.33-.14.46.46,0,0,1,.34.14.46.46,0,0,1,0,.66A.46.46,0,0,1,212.39,111Zm.36,5.64H212v-4.5h.73Z"/>
    <path class="cls-5" d="M216.24,116.76a2.06,2.06,0,0,1-1.59-.63,2.33,2.33,0,0,1-.6-1.67,2.47,2.47,0,0,1,.62-1.78,2.23,2.23,0,0,1,1.67-.63,2,2,0,0,1,1.58.62,2.47,2.47,0,0,1,.56,1.72,2.4,2.4,0,0,1-.61,1.72A2.15,2.15,0,0,1,216.24,116.76Zm0-4.11a1.37,1.37,0,0,0-1.1.48,1.93,1.93,0,0,0-.4,1.3,1.81,1.81,0,0,0,.41,1.26,1.36,1.36,0,0,0,1.09.46,1.33,1.33,0,0,0,1.08-.45,2,2,0,0,0,.37-1.29,2,2,0,0,0-.37-1.3A1.33,1.33,0,0,0,216.29,112.65Z"/>
    <path class="cls-5" d="M223.52,116.65h-.72v-2.56q0-1.44-1.05-1.44a1.12,1.12,0,0,0-.89.41,1.49,1.49,0,0,0-.36,1v2.56h-.72v-4.5h.72v.75h0a1.62,1.62,0,0,1,1.48-.85,1.4,1.4,0,0,1,1.13.47,2.14,2.14,0,0,1,.39,1.38Z"/>
    <path class="cls-5" d="M183.24,127.45h-.72v-.76h0a1.81,1.81,0,0,1-2.9.26,2.46,2.46,0,0,1-.51-1.64,2.67,2.67,0,0,1,.57-1.79,1.84,1.84,0,0,1,1.5-.67,1.43,1.43,0,0,1,1.34.73h0v-2.79h.72Zm-.72-2v-.67a1.28,1.28,0,0,0-.36-.92,1.21,1.21,0,0,0-.91-.38,1.26,1.26,0,0,0-1,.49,2.12,2.12,0,0,0-.38,1.33,1.92,1.92,0,0,0,.36,1.23,1.21,1.21,0,0,0,1,.45,1.23,1.23,0,0,0,1-.43A1.63,1.63,0,0,0,182.52,125.42Z"/>
    <path class="cls-5" d="M188.47,125.38h-3.18a1.71,1.71,0,0,0,.41,1.16,1.36,1.36,0,0,0,1.06.41,2.19,2.19,0,0,0,1.4-.5v.68a2.61,2.61,0,0,1-1.57.43,1.94,1.94,0,0,1-1.5-.61,2.54,2.54,0,0,1-.54-1.73,2.48,2.48,0,0,1,.59-1.71,1.92,1.92,0,0,1,1.48-.66,1.7,1.7,0,0,1,1.37.57,2.39,2.39,0,0,1,.48,1.58Zm-.74-.61a1.44,1.44,0,0,0-.3-1,1,1,0,0,0-.82-.35,1.19,1.19,0,0,0-.87.37,1.65,1.65,0,0,0-.44,1Z"/>
    <path class="cls-5" d="M193.05,127.45h-.72v-6.66h.72Z"/>
    <path class="cls-5" d="M195.55,121.05l-.61,2h-.52l.49-2Z"/>
    <path class="cls-5" d="M201.85,127.45H201l-.67-1.76H197.7l-.63,1.76h-.82l2.41-6.3h.77ZM200.13,125l-1-2.68a2.61,2.61,0,0,1-.1-.42h0a2.37,2.37,0,0,1-.1.42l-1,2.68Z"/>
    <path class="cls-5" d="M203.67,125.07v2.38h-.74v-6.3h1.74a2.31,2.31,0,0,1,1.56.49,1.76,1.76,0,0,1,.56,1.39,1.92,1.92,0,0,1-.62,1.47,2.37,2.37,0,0,1-1.67.57Zm0-3.25v2.58h.78a1.68,1.68,0,0,0,1.16-.35,1.22,1.22,0,0,0,.4-1c0-.83-.49-1.25-1.47-1.25Z"/>
    <path class="cls-5" d="M208.87,127.45h-.74v-6.3h.74Z"/>
    <path class="cls-5" d="M217,127.45h-.72v-.76h0a1.67,1.67,0,0,1-1.55.87,1.65,1.65,0,0,1-1.35-.61,2.46,2.46,0,0,1-.51-1.64,2.72,2.72,0,0,1,.56-1.79,1.86,1.86,0,0,1,1.5-.67,1.43,1.43,0,0,1,1.35.73h0v-2.79H217Zm-.72-2v-.67a1.28,1.28,0,0,0-.36-.92,1.23,1.23,0,0,0-.92-.38,1.27,1.27,0,0,0-1,.49,2.12,2.12,0,0,0-.37,1.33,1.92,1.92,0,0,0,.36,1.23,1.19,1.19,0,0,0,1,.45,1.23,1.23,0,0,0,1-.43A1.63,1.63,0,0,0,216.32,125.42Z"/>
    <path class="cls-5" d="M222.29,127.45h-.72v-.71h0a1.47,1.47,0,0,1-1.39.82c-1.07,0-1.61-.64-1.61-1.92V123h.72v2.58c0,1,.36,1.42,1.09,1.42a1.11,1.11,0,0,0,.87-.39,1.52,1.52,0,0,0,.34-1V123h.72Z"/>
    <path class="cls-5" d="M191,138.25h-.72v-.76h0a1.82,1.82,0,0,1-2.91.26,2.51,2.51,0,0,1-.5-1.64,2.67,2.67,0,0,1,.56-1.79,1.84,1.84,0,0,1,1.5-.67,1.43,1.43,0,0,1,1.35.73h0v-2.79H191Zm-.72-2v-.67a1.28,1.28,0,0,0-.36-.92,1.21,1.21,0,0,0-.91-.38,1.26,1.26,0,0,0-1,.49,2.1,2.1,0,0,0-.38,1.33,1.92,1.92,0,0,0,.37,1.23,1.17,1.17,0,0,0,1,.45,1.23,1.23,0,0,0,1-.43A1.63,1.63,0,0,0,190.32,136.22Z"/>
    <path class="cls-5" d="M196.27,136.18H193.1a1.66,1.66,0,0,0,.4,1.16,1.36,1.36,0,0,0,1.06.41,2.22,2.22,0,0,0,1.4-.5v.68a2.65,2.65,0,0,1-1.57.43,2,2,0,0,1-1.5-.61,2.54,2.54,0,0,1-.54-1.73,2.48,2.48,0,0,1,.59-1.71,1.92,1.92,0,0,1,1.48-.66,1.7,1.7,0,0,1,1.37.57,2.4,2.4,0,0,1,.48,1.59Zm-.74-.61a1.44,1.44,0,0,0-.3-1,1,1,0,0,0-.82-.35,1.19,1.19,0,0,0-.87.37,1.72,1.72,0,0,0-.44.95Zm-.11-4.11-1.15,1.44h-.56l1-1.44Z"/>
    <path class="cls-5" d="M203.91,138.25h-.73v-2.58a1.88,1.88,0,0,0-.23-1.08.87.87,0,0,0-.77-.34,1,1,0,0,0-.79.43,1.62,1.62,0,0,0-.32,1v2.56h-.72v-2.67c0-.88-.34-1.33-1-1.33a1,1,0,0,0-.79.4,1.69,1.69,0,0,0-.3,1v2.56h-.72v-4.5h.72v.71h0a1.54,1.54,0,0,1,1.4-.81,1.32,1.32,0,0,1,.81.25,1.42,1.42,0,0,1,.47.68,1.6,1.6,0,0,1,1.49-.93c1,0,1.49.61,1.49,1.83Z"/>
    <path class="cls-5" d="M207.3,138.36a2.09,2.09,0,0,1-1.59-.63,2.33,2.33,0,0,1-.6-1.67,2.43,2.43,0,0,1,.62-1.77,2.22,2.22,0,0,1,1.68-.64,2,2,0,0,1,1.57.62,2.47,2.47,0,0,1,.56,1.72,2.4,2.4,0,0,1-.61,1.72A2.13,2.13,0,0,1,207.3,138.36Zm0-4.11a1.35,1.35,0,0,0-1.09.48,1.93,1.93,0,0,0-.41,1.3,1.85,1.85,0,0,0,.41,1.26,1.38,1.38,0,0,0,1.09.46,1.33,1.33,0,0,0,1.08-.45,2,2,0,0,0,.37-1.29,2,2,0,0,0-.37-1.3A1.33,1.33,0,0,0,207.35,134.25Z"/>
    <path class="cls-5" d="M214.58,138.25h-.72v-2.56c0-1-.35-1.44-1-1.44a1.16,1.16,0,0,0-.9.41,1.53,1.53,0,0,0-.35,1v2.56h-.72v-4.5h.72v.75h0a1.61,1.61,0,0,1,1.47-.85,1.4,1.4,0,0,1,1.13.47,2.14,2.14,0,0,1,.39,1.38Z"/>
  </g>
  <g>
    <path class="cls-3" d="M56.74,116.65h-.82l-.66-1.76H52.58L52,116.65h-.83l2.42-6.3h.77ZM55,114.22l-1-2.68a1.84,1.84,0,0,1-.1-.42h0a2.37,2.37,0,0,1-.1.42l-1,2.68Z"/>
    <path class="cls-3" d="M58.31,116h0v2.72h-.72v-6.57h.72v.79h0a1.72,1.72,0,0,1,1.56-.89,1.63,1.63,0,0,1,1.35.6,2.47,2.47,0,0,1,.49,1.62,2.77,2.77,0,0,1-.55,1.81,1.83,1.83,0,0,1-1.5.68A1.51,1.51,0,0,1,58.31,116Zm0-1.81v.63a1.33,1.33,0,0,0,.36.94,1.22,1.22,0,0,0,.93.39,1.19,1.19,0,0,0,1-.5,2.27,2.27,0,0,0,.37-1.39,1.82,1.82,0,0,0-.34-1.18,1.18,1.18,0,0,0-.94-.43,1.31,1.31,0,0,0-1,.44A1.63,1.63,0,0,0,58.29,114.19Z"/>
    <path class="cls-3" d="M63.6,116h0v2.72h-.72v-6.57h.72v.79h0a1.72,1.72,0,0,1,1.56-.89,1.63,1.63,0,0,1,1.35.6,2.47,2.47,0,0,1,.49,1.62,2.77,2.77,0,0,1-.55,1.81,1.82,1.82,0,0,1-1.5.68A1.51,1.51,0,0,1,63.6,116Zm0-1.81v.63a1.34,1.34,0,0,0,.37.94,1.2,1.2,0,0,0,.92.39,1.18,1.18,0,0,0,1-.5,2.27,2.27,0,0,0,.37-1.39,1.82,1.82,0,0,0-.34-1.18,1.17,1.17,0,0,0-.94-.43,1.27,1.27,0,0,0-1,.44A1.59,1.59,0,0,0,63.58,114.19Z"/>
    <path class="cls-3" d="M68.88,116.65h-.73V110h.73Z"/>
    <path class="cls-3" d="M70.7,111a.44.44,0,0,1-.33-.13.45.45,0,0,1-.13-.34.44.44,0,0,1,.13-.33.45.45,0,0,1,.33-.14.48.48,0,0,1,.34.14.46.46,0,0,1,0,.66A.48.48,0,0,1,70.7,111Zm.35,5.64h-.72v-4.5h.72Z"/>
    <path class="cls-3" d="M75.58,116.45a2.39,2.39,0,0,1-1.23.31,2,2,0,0,1-1.55-.63,2.25,2.25,0,0,1-.59-1.62,2.52,2.52,0,0,1,.63-1.79,2.23,2.23,0,0,1,1.7-.67,2.32,2.32,0,0,1,1,.22V113a1.79,1.79,0,0,0-1.07-.36,1.44,1.44,0,0,0-1.13.5,1.85,1.85,0,0,0-.45,1.3,1.8,1.8,0,0,0,.42,1.25,1.45,1.45,0,0,0,1.11.45,1.79,1.79,0,0,0,1.11-.39Z"/>
    <path class="cls-3" d="M79.89,116.65h-.72V116h0a1.5,1.5,0,0,1-1.38.81,1.45,1.45,0,0,1-1-.36,1.19,1.19,0,0,1-.38-.94c0-.84.49-1.33,1.48-1.47l1.35-.19c0-.76-.31-1.15-.93-1.15a2.19,2.19,0,0,0-1.46.56v-.74a2.79,2.79,0,0,1,1.53-.42c1,0,1.58.56,1.58,1.68Zm-.72-2.27-1.08.15a1.79,1.79,0,0,0-.76.24.72.72,0,0,0-.25.64.66.66,0,0,0,.23.53.92.92,0,0,0,.63.21,1.15,1.15,0,0,0,.88-.37,1.36,1.36,0,0,0,.35-1Z"/>
    <path class="cls-3" d="M83.34,116.61a1.45,1.45,0,0,1-.67.14c-.79,0-1.19-.44-1.19-1.32v-2.66h-.77v-.62h.77v-1.1l.72-.23v1.33h1.14v.62H82.2v2.53a1,1,0,0,0,.16.65.6.6,0,0,0,.51.19.75.75,0,0,0,.47-.15Z"/>
    <path class="cls-3" d="M84.67,111a.44.44,0,0,1-.33-.13.46.46,0,0,1-.14-.34.47.47,0,0,1,.8-.33.46.46,0,0,1,0,.66A.45.45,0,0,1,84.67,111Zm.35,5.64H84.3v-4.5H85Z"/>
    <path class="cls-3" d="M88.36,116.76a2.08,2.08,0,0,1-1.59-.63,2.33,2.33,0,0,1-.6-1.67,2.47,2.47,0,0,1,.62-1.78,2.25,2.25,0,0,1,1.68-.63,2,2,0,0,1,1.57.62,2.47,2.47,0,0,1,.56,1.72,2.4,2.4,0,0,1-.61,1.72A2.13,2.13,0,0,1,88.36,116.76Zm0-4.11a1.37,1.37,0,0,0-1.1.48,1.93,1.93,0,0,0-.4,1.3,1.85,1.85,0,0,0,.41,1.26,1.38,1.38,0,0,0,1.09.46,1.33,1.33,0,0,0,1.08-.45,2,2,0,0,0,.37-1.29,2,2,0,0,0-.37-1.3A1.33,1.33,0,0,0,88.41,112.65Z"/>
    <path class="cls-3" d="M95.49,116.65h-.72v-2.56q0-1.44-1-1.44a1.12,1.12,0,0,0-.89.41,1.49,1.49,0,0,0-.36,1v2.56h-.72v-4.5h.72v.75h0a1.62,1.62,0,0,1,1.48-.85,1.4,1.4,0,0,1,1.13.47,2.14,2.14,0,0,1,.39,1.38Z"/>
    <path class="cls-3" d="M51.54,127.45h-.72v-.76h0a1.67,1.67,0,0,1-1.55.87A1.65,1.65,0,0,1,47.9,127a2.46,2.46,0,0,1-.51-1.64,2.72,2.72,0,0,1,.56-1.79,1.85,1.85,0,0,1,1.5-.67,1.43,1.43,0,0,1,1.35.73h0v-2.79h.72Zm-.72-2v-.67a1.28,1.28,0,0,0-.36-.92,1.24,1.24,0,0,0-.92-.38,1.27,1.27,0,0,0-1,.49,2.12,2.12,0,0,0-.37,1.33,1.92,1.92,0,0,0,.36,1.23,1.17,1.17,0,0,0,1,.45,1.23,1.23,0,0,0,1-.43A1.63,1.63,0,0,0,50.82,125.42Z"/>
    <path class="cls-3" d="M56.61,125.38H53.43a1.71,1.71,0,0,0,.41,1.16,1.36,1.36,0,0,0,1.06.41,2.17,2.17,0,0,0,1.4-.5v.68a2.61,2.61,0,0,1-1.57.43,2,2,0,0,1-1.5-.61,2.54,2.54,0,0,1-.54-1.73,2.48,2.48,0,0,1,.59-1.71,1.92,1.92,0,0,1,1.48-.66,1.7,1.7,0,0,1,1.37.57,2.39,2.39,0,0,1,.48,1.58Zm-.74-.61a1.44,1.44,0,0,0-.3-1,1,1,0,0,0-.82-.35,1.19,1.19,0,0,0-.87.37,1.72,1.72,0,0,0-.44,1Z"/>
    <path class="cls-3" d="M60.91,126.8h0v.65h-.72v-6.66h.72v2.95h0a1.7,1.7,0,0,1,1.55-.89,1.66,1.66,0,0,1,1.36.6,2.52,2.52,0,0,1,.49,1.62,2.83,2.83,0,0,1-.55,1.81,1.85,1.85,0,0,1-1.51.68A1.46,1.46,0,0,1,60.91,126.8Zm0-1.81v.63a1.33,1.33,0,0,0,.36.94,1.3,1.3,0,0,0,2-.11,2.34,2.34,0,0,0,.37-1.39,1.82,1.82,0,0,0-.35-1.18,1.15,1.15,0,0,0-.94-.43,1.29,1.29,0,0,0-1,.44A1.63,1.63,0,0,0,60.89,125Z"/>
    <path class="cls-3" d="M69.1,127.45h-.72v-.71h0a1.47,1.47,0,0,1-1.39.82c-1.07,0-1.61-.64-1.61-1.92V123h.72v2.58c0,1,.36,1.42,1.09,1.42a1.11,1.11,0,0,0,.87-.39,1.52,1.52,0,0,0,.34-1V123h.72Z"/>
    <path class="cls-3" d="M72.9,123.68a1,1,0,0,0-.55-.14.91.91,0,0,0-.77.43,2.07,2.07,0,0,0-.31,1.19v2.29h-.72V123h.72v.93h0a1.55,1.55,0,0,1,.47-.74,1.07,1.07,0,0,1,.71-.27,1,1,0,0,1,.43.07Z"/>
    <path class="cls-3" d="M77.3,125.38H74.12a1.71,1.71,0,0,0,.4,1.16,1.39,1.39,0,0,0,1.07.41,2.16,2.16,0,0,0,1.39-.5v.68a2.55,2.55,0,0,1-1.56.43,1.92,1.92,0,0,1-1.5-.61,2.5,2.5,0,0,1-.55-1.73,2.44,2.44,0,0,1,.6-1.71,1.9,1.9,0,0,1,1.48-.66,1.68,1.68,0,0,1,1.36.57A2.39,2.39,0,0,1,77.3,125Zm-.74-.61a1.5,1.5,0,0,0-.3-1,1.05,1.05,0,0,0-.83-.35,1.16,1.16,0,0,0-.86.37,1.59,1.59,0,0,0-.44,1Z"/>
    <path class="cls-3" d="M81.61,127.45h-.72v-.7h0a1.64,1.64,0,0,1-2.44.45,1.24,1.24,0,0,1-.38-.94c0-.84.5-1.33,1.49-1.47l1.35-.19c0-.76-.31-1.15-.93-1.15a2.23,2.23,0,0,0-1.47.56v-.74a2.79,2.79,0,0,1,1.53-.42q1.59,0,1.59,1.68Zm-.72-2.27-1.09.15a1.79,1.79,0,0,0-.75.24.73.73,0,0,0-.26.64.68.68,0,0,0,.24.53.88.88,0,0,0,.62.21,1.17,1.17,0,0,0,.89-.37,1.36,1.36,0,0,0,.35-1Z"/>
    <path class="cls-3" d="M86.6,127.45h-.72v-.71h0a1.48,1.48,0,0,1-1.39.82c-1.07,0-1.61-.64-1.61-1.92V123h.72v2.58c0,1,.36,1.42,1.09,1.42a1.08,1.08,0,0,0,.86-.39,1.47,1.47,0,0,0,.34-1V123h.72Z"/>
    <path class="cls-3" d="M94.36,127.45h-.72v-.76h0a1.82,1.82,0,0,1-2.91.26,2.45,2.45,0,0,1-.5-1.64,2.67,2.67,0,0,1,.56-1.79,1.84,1.84,0,0,1,1.5-.67,1.45,1.45,0,0,1,1.35.73h0v-2.79h.72Zm-.72-2v-.67a1.28,1.28,0,0,0-.36-.92,1.21,1.21,0,0,0-.91-.38,1.26,1.26,0,0,0-1,.49,2.12,2.12,0,0,0-.38,1.33,1.92,1.92,0,0,0,.37,1.23,1.17,1.17,0,0,0,1,.45,1.23,1.23,0,0,0,1-.43A1.63,1.63,0,0,0,93.64,125.42Z"/>
    <path class="cls-3" d="M99.46,127.45h-.72v-.71h0a1.47,1.47,0,0,1-1.39.82c-1.07,0-1.6-.64-1.6-1.92V123h.71v2.58c0,1,.37,1.42,1.09,1.42a1.11,1.11,0,0,0,.87-.39,1.47,1.47,0,0,0,.34-1V123h.72Z"/>
    <path class="cls-3" d="M64.08,138.25h-.72v-.76h0a1.82,1.82,0,0,1-2.91.26,2.51,2.51,0,0,1-.5-1.64,2.67,2.67,0,0,1,.56-1.79,1.84,1.84,0,0,1,1.5-.67,1.43,1.43,0,0,1,1.35.73h0v-2.79h.72Zm-.72-2v-.67a1.28,1.28,0,0,0-.36-.92,1.21,1.21,0,0,0-.91-.38,1.26,1.26,0,0,0-1,.49,2.1,2.1,0,0,0-.38,1.33A1.92,1.92,0,0,0,61,137.3a1.17,1.17,0,0,0,1,.45,1.23,1.23,0,0,0,1-.43A1.63,1.63,0,0,0,63.36,136.22Z"/>
    <path class="cls-3" d="M69.16,136.18H66a1.71,1.71,0,0,0,.41,1.16,1.36,1.36,0,0,0,1.06.41,2.24,2.24,0,0,0,1.4-.5v.68a2.68,2.68,0,0,1-1.57.43,1.92,1.92,0,0,1-1.5-.61,2.54,2.54,0,0,1-.54-1.73,2.44,2.44,0,0,1,.59-1.71,1.92,1.92,0,0,1,1.48-.66,1.71,1.71,0,0,1,1.37.57,2.4,2.4,0,0,1,.48,1.59Zm-.74-.61a1.44,1.44,0,0,0-.3-1,1,1,0,0,0-.82-.35,1.19,1.19,0,0,0-.87.37,1.65,1.65,0,0,0-.44.95Zm-.11-4.11-1.15,1.44H66.6l1-1.44Z"/>
    <path class="cls-3" d="M76.64,138.25h-.72v-2.58a2,2,0,0,0-.23-1.08.89.89,0,0,0-.78-.34.93.93,0,0,0-.78.43,1.57,1.57,0,0,0-.32,1v2.56h-.73v-2.67c0-.88-.34-1.33-1-1.33a1,1,0,0,0-.78.4,1.63,1.63,0,0,0-.31,1v2.56h-.72v-4.5H71v.71h0a1.53,1.53,0,0,1,1.4-.81,1.31,1.31,0,0,1,.8.25,1.3,1.3,0,0,1,.47.68,1.6,1.6,0,0,1,1.49-.93c1,0,1.49.61,1.49,1.83Z"/>
    <path class="cls-3" d="M79.88,138.36a2.09,2.09,0,0,1-1.59-.63,2.33,2.33,0,0,1-.6-1.67,2.43,2.43,0,0,1,.62-1.77,2.24,2.24,0,0,1,1.68-.64,2,2,0,0,1,1.57.62,2.84,2.84,0,0,1,0,3.44A2.15,2.15,0,0,1,79.88,138.36Zm.06-4.11a1.35,1.35,0,0,0-1.1.48,1.93,1.93,0,0,0-.41,1.3,1.85,1.85,0,0,0,.41,1.26,1.38,1.38,0,0,0,1.1.46A1.32,1.32,0,0,0,81,137.3a2,2,0,0,0,.38-1.29,2,2,0,0,0-.38-1.3A1.33,1.33,0,0,0,79.94,134.25Z"/>
    <path class="cls-3" d="M87,138.25h-.72v-2.56q0-1.44-1.05-1.44a1.14,1.14,0,0,0-.89.41,1.48,1.48,0,0,0-.35,1v2.56h-.72v-4.5H84v.75h0a1.63,1.63,0,0,1,1.48-.85,1.4,1.4,0,0,1,1.13.47A2.14,2.14,0,0,1,87,135.5Z"/>
  </g>
  <g>
    <path class="cls-5" d="M5.46,112.33v-1a1.92,1.92,0,0,0,.39.27,4.14,4.14,0,0,0,.49.19,3.3,3.3,0,0,0,.52.13,2.74,2.74,0,0,0,.48,0,1.86,1.86,0,0,0,1.13-.28,1.07,1.07,0,0,0,.25-1.3,1.39,1.39,0,0,0-.35-.38,3.6,3.6,0,0,0-.52-.34l-.65-.33c-.24-.12-.47-.25-.68-.38a2.58,2.58,0,0,1-.55-.42,1.71,1.71,0,0,1-.29-2,1.7,1.7,0,0,1,.55-.58,2.2,2.2,0,0,1,.78-.34,3.3,3.3,0,0,1,.89-.12,3.52,3.52,0,0,1,1.51.25v.93a2.75,2.75,0,0,0-1.6-.43,2.44,2.44,0,0,0-.53.05,1.71,1.71,0,0,0-.48.18,1.07,1.07,0,0,0-.34.33.88.88,0,0,0-.13.49,1,1,0,0,0,.1.46,1.07,1.07,0,0,0,.29.36,2.66,2.66,0,0,0,.48.31l.64.33c.25.13.49.26.72.4a3,3,0,0,1,.59.45,2.09,2.09,0,0,1,.4.55,1.52,1.52,0,0,1,.15.69,1.82,1.82,0,0,1-.2.88,1.61,1.61,0,0,1-.55.58,2.44,2.44,0,0,1-.79.33,4.19,4.19,0,0,1-1,.1l-.41,0a4.71,4.71,0,0,1-.5-.08,3.37,3.37,0,0,1-.48-.12A1.52,1.52,0,0,1,5.46,112.33Z"/>
    <path class="cls-5" d="M15.18,110.31H11.65a1.83,1.83,0,0,0,.45,1.29,1.55,1.55,0,0,0,1.18.46,2.46,2.46,0,0,0,1.55-.56v.75a2.89,2.89,0,0,1-1.74.48,2.14,2.14,0,0,1-1.67-.68,2.81,2.81,0,0,1-.6-1.92,2.73,2.73,0,0,1,.66-1.9,2.12,2.12,0,0,1,1.64-.73,1.88,1.88,0,0,1,1.52.63,2.63,2.63,0,0,1,.54,1.76Zm-.82-.68a1.68,1.68,0,0,0-.34-1.08,1.15,1.15,0,0,0-.91-.38,1.31,1.31,0,0,0-1,.4,1.86,1.86,0,0,0-.48,1.06Z"/>
    <path class="cls-5" d="M20,112.38a2.63,2.63,0,0,1-1.37.35,2.26,2.26,0,0,1-1.73-.7,2.49,2.49,0,0,1-.65-1.8,2.75,2.75,0,0,1,.7-2,2.5,2.5,0,0,1,1.89-.75,2.72,2.72,0,0,1,1.17.24v.82a2.07,2.07,0,0,0-1.2-.39,1.57,1.57,0,0,0-1.25.55,2.06,2.06,0,0,0-.49,1.44,2,2,0,0,0,.46,1.39,1.59,1.59,0,0,0,1.24.51,2,2,0,0,0,1.23-.44Z"/>
    <path class="cls-5" d="M24,108.42a1.07,1.07,0,0,0-1.46.33,2.21,2.21,0,0,0-.34,1.31v2.55h-.8v-5h.8v1h0a1.76,1.76,0,0,1,.52-.82,1.18,1.18,0,0,1,.79-.3,1.41,1.41,0,0,1,.47.07Z"/>
    <path class="cls-5" d="M29,110.31H25.48a1.88,1.88,0,0,0,.45,1.29,1.57,1.57,0,0,0,1.18.46,2.49,2.49,0,0,0,1.56-.56v.75a2.9,2.9,0,0,1-1.75.48,2.12,2.12,0,0,1-1.66-.68,2.77,2.77,0,0,1-.61-1.92,2.73,2.73,0,0,1,.66-1.9A2.12,2.12,0,0,1,27,107.5a1.9,1.9,0,0,1,1.52.63,2.68,2.68,0,0,1,.53,1.76Zm-.82-.68a1.62,1.62,0,0,0-.33-1.08,1.17,1.17,0,0,0-.92-.38,1.28,1.28,0,0,0-1,.4,1.87,1.87,0,0,0-.49,1.06Z"/>
    <path class="cls-5" d="M32.71,112.56a1.48,1.48,0,0,1-.74.16q-1.32,0-1.32-1.47v-3h-.86v-.69h.86v-1.22l.8-.26v1.48h1.26v.69H31.45v2.81a1.19,1.19,0,0,0,.17.72.72.72,0,0,0,.57.22.83.83,0,0,0,.52-.17Z"/>
  </g>
  <g>
    <path class="cls-5" d="M6.19,183.45v-1a2.4,2.4,0,0,0,.39.26,4.19,4.19,0,0,0,.49.2,4.87,4.87,0,0,0,.52.12,2.8,2.8,0,0,0,.48.05,1.86,1.86,0,0,0,1.13-.29.92.92,0,0,0,.37-.8,1,1,0,0,0-.12-.5,1.55,1.55,0,0,0-.35-.38,2.9,2.9,0,0,0-.52-.33l-.65-.34c-.24-.12-.47-.25-.68-.37a3.06,3.06,0,0,1-.55-.42,1.84,1.84,0,0,1-.37-.52,1.62,1.62,0,0,1-.13-.68,1.64,1.64,0,0,1,.21-.84,1.79,1.79,0,0,1,.55-.58,2.4,2.4,0,0,1,.78-.34,3.29,3.29,0,0,1,.89-.11,3.37,3.37,0,0,1,1.51.25v.92a2.75,2.75,0,0,0-1.6-.43,2.46,2.46,0,0,0-.53.06,1.26,1.26,0,0,0-.48.18,1,1,0,0,0-.34.32.88.88,0,0,0-.13.49,1,1,0,0,0,.1.47,1,1,0,0,0,.29.35,2.67,2.67,0,0,0,.48.32l.64.33q.38.18.72.39a4,4,0,0,1,.59.45,2.09,2.09,0,0,1,.4.55,1.6,1.6,0,0,1,.15.7,1.8,1.8,0,0,1-.2.87,1.73,1.73,0,0,1-.55.59,2.23,2.23,0,0,1-.79.32,4.19,4.19,0,0,1-1,.1l-.41,0-.5-.08-.48-.13A1.52,1.52,0,0,1,6.19,183.45Z"/>
    <path class="cls-5" d="M15.91,181.44H12.38a1.82,1.82,0,0,0,.45,1.28,1.52,1.52,0,0,0,1.18.46,2.46,2.46,0,0,0,1.55-.56v.75a2.89,2.89,0,0,1-1.74.48,2.11,2.11,0,0,1-1.67-.68,2.8,2.8,0,0,1-.6-1.92,2.75,2.75,0,0,1,.66-1.9,2.12,2.12,0,0,1,1.64-.73,1.88,1.88,0,0,1,1.52.63,2.66,2.66,0,0,1,.54,1.77Zm-.82-.68a1.64,1.64,0,0,0-.34-1.08,1.12,1.12,0,0,0-.91-.39,1.32,1.32,0,0,0-1,.41,1.83,1.83,0,0,0-.48,1.06Z"/>
    <path class="cls-5" d="M20.7,183.51a2.63,2.63,0,0,1-1.37.34,2.29,2.29,0,0,1-1.73-.69,2.53,2.53,0,0,1-.65-1.81,2.77,2.77,0,0,1,.7-2,2.5,2.5,0,0,1,1.89-.75,2.72,2.72,0,0,1,1.17.24v.82a2.07,2.07,0,0,0-1.2-.39,1.61,1.61,0,0,0-1.25.55,2.08,2.08,0,0,0-.49,1.44,2,2,0,0,0,.46,1.39,1.59,1.59,0,0,0,1.24.51,2,2,0,0,0,1.23-.44Z"/>
    <path class="cls-5" d="M24.68,179.55a1,1,0,0,0-.6-.17,1,1,0,0,0-.86.49,2.23,2.23,0,0,0-.34,1.32v2.55h-.8v-5h.8v1h0a1.74,1.74,0,0,1,.52-.83,1.22,1.22,0,0,1,.79-.29,1.19,1.19,0,0,1,.47.07Z"/>
    <path class="cls-5" d="M29.74,181.44H26.21a1.87,1.87,0,0,0,.45,1.28,1.53,1.53,0,0,0,1.18.46,2.49,2.49,0,0,0,1.56-.56v.75a2.9,2.9,0,0,1-1.75.48,2.09,2.09,0,0,1-1.66-.68,3.19,3.19,0,0,1,.05-3.82,2.12,2.12,0,0,1,1.65-.73,1.9,1.9,0,0,1,1.52.63,2.71,2.71,0,0,1,.53,1.77Zm-.82-.68a1.59,1.59,0,0,0-.33-1.08,1.14,1.14,0,0,0-.92-.39,1.28,1.28,0,0,0-1,.41,1.84,1.84,0,0,0-.49,1.06Z"/>
    <path class="cls-5" d="M33.44,183.69a1.6,1.6,0,0,1-.74.15c-.88,0-1.32-.49-1.32-1.46v-3h-.86v-.68h.86v-1.23l.8-.25v1.48h1.26v.68H32.18v2.82a1.17,1.17,0,0,0,.17.71.68.68,0,0,0,.57.22.83.83,0,0,0,.52-.17Z"/>
  </g>
  <g>
    <path class="cls-5" d="M6.19,35.14v-1a1.89,1.89,0,0,0,.39.26,3,3,0,0,0,.49.2,3.25,3.25,0,0,0,.52.12,2.8,2.8,0,0,0,.48,0,1.94,1.94,0,0,0,1.13-.28,1.07,1.07,0,0,0,.25-1.3,1.59,1.59,0,0,0-.35-.39,4.71,4.71,0,0,0-.52-.33c-.2-.1-.41-.22-.65-.33s-.47-.25-.68-.38a3.06,3.06,0,0,1-.55-.42,1.71,1.71,0,0,1-.37-.52,1.79,1.79,0,0,1,.08-1.51A1.82,1.82,0,0,1,7,28.75a2.63,2.63,0,0,1,.78-.34,3.74,3.74,0,0,1,.89-.11,3.37,3.37,0,0,1,1.51.25v.92A2.82,2.82,0,0,0,8.54,29,2.46,2.46,0,0,0,8,29.1a1.71,1.71,0,0,0-.48.18,1,1,0,0,0-.34.33.83.83,0,0,0-.13.49,1,1,0,0,0,.1.46,1.07,1.07,0,0,0,.29.36,3.33,3.33,0,0,0,.48.31l.64.33c.25.13.49.25.72.39a3.44,3.44,0,0,1,.59.46,1.94,1.94,0,0,1,.4.55,1.52,1.52,0,0,1,.15.69,1.82,1.82,0,0,1-.2.88,1.7,1.7,0,0,1-.55.58,2.44,2.44,0,0,1-.79.33,4.85,4.85,0,0,1-1,.1l-.41,0a4.71,4.71,0,0,1-.5-.08,3.36,3.36,0,0,1-.48-.13A1.54,1.54,0,0,1,6.19,35.14Z"/>
    <path class="cls-5" d="M15.91,33.12H12.38a1.85,1.85,0,0,0,.45,1.29,1.54,1.54,0,0,0,1.18.45,2.45,2.45,0,0,0,1.55-.55v.75a2.89,2.89,0,0,1-1.74.48,2.11,2.11,0,0,1-1.67-.69,2.79,2.79,0,0,1-.6-1.91,2.73,2.73,0,0,1,.66-1.9,2.12,2.12,0,0,1,1.64-.74,1.86,1.86,0,0,1,1.52.64,2.63,2.63,0,0,1,.54,1.76Zm-.82-.68a1.68,1.68,0,0,0-.34-1.08,1.12,1.12,0,0,0-.91-.38,1.31,1.31,0,0,0-1,.4,1.83,1.83,0,0,0-.48,1.06Z"/>
    <path class="cls-5" d="M20.7,35.19a2.63,2.63,0,0,1-1.37.35,2.3,2.3,0,0,1-1.73-.7A2.51,2.51,0,0,1,17,33a2.78,2.78,0,0,1,.7-2,2.5,2.5,0,0,1,1.89-.75,2.58,2.58,0,0,1,1.17.25v.82a2,2,0,0,0-1.2-.39,1.6,1.6,0,0,0-1.25.54A2.09,2.09,0,0,0,17.77,33a2,2,0,0,0,.46,1.38,1.59,1.59,0,0,0,1.24.51,2,2,0,0,0,1.23-.43Z"/>
    <path class="cls-5" d="M24.68,31.23a1,1,0,0,0-.6-.16,1,1,0,0,0-.86.48,2.23,2.23,0,0,0-.34,1.32v2.55h-.8v-5h.8v1h0a1.71,1.71,0,0,1,.52-.82,1.31,1.31,0,0,1,1.26-.23Z"/>
    <path class="cls-5" d="M29.74,33.12H26.21a1.9,1.9,0,0,0,.45,1.29,1.56,1.56,0,0,0,1.18.45,2.48,2.48,0,0,0,1.56-.55v.75a2.9,2.9,0,0,1-1.75.48A2.09,2.09,0,0,1,26,34.85,3.18,3.18,0,0,1,26,31a2.13,2.13,0,0,1,1.65-.74,1.87,1.87,0,0,1,1.52.64,2.68,2.68,0,0,1,.53,1.76Zm-.82-.68a1.62,1.62,0,0,0-.33-1.08,1.14,1.14,0,0,0-.92-.38,1.28,1.28,0,0,0-1,.4,1.84,1.84,0,0,0-.49,1.06Z"/>
    <path class="cls-5" d="M33.44,35.37a1.59,1.59,0,0,1-.74.16q-1.32,0-1.32-1.47v-3h-.86v-.68h.86V29.2l.8-.26v1.48h1.26v.68H32.18v2.82a1.23,1.23,0,0,0,.17.72.71.71,0,0,0,.57.21.83.83,0,0,0,.52-.16Z"/>
  </g>
  <g id="group1060-114-2" data-name="group1060-114">
    <g id="shape1061-115-2" data-name="shape1061-115">
      <path id="path1292-2" data-name="path1292" class="cls-6" d="M17.37,98.69H10.65a.59.59,0,0,1-.61-.57V91.68H12V89.91H24.4a.59.59,0,0,1,.62.57v.09a6.4,6.4,0,0,1,1,.33v-.42A1.53,1.53,0,0,0,24.4,89h-13l-2.34,2.2v6.9a1.51,1.51,0,0,0,1.57,1.46h7.28A5.8,5.8,0,0,1,17.37,98.69Z"/>
    </g>
    <g id="group1062-117-2" data-name="group1062-117">
      <g id="group1063-118-2" data-name="group1063-118">
        <g id="shape1064-119-2" data-name="shape1064-119">
          <path id="path1301-2" data-name="path1301" class="cls-6" d="M26,100.22l2.34,3.26-2.17-.54-.61,1.64-2.34-2.88-1.75,2.88-.8-1.74-2.17.54L20.65,100s.58.92,2.69.92S26,100.22,26,100.22Z"/>
        </g>
      </g>
      <g id="group1065-121-2" data-name="group1065-121">
        <g id="shape1066-122-2" data-name="shape1066-122">
          <path id="path1309-2" data-name="path1309" class="cls-6" d="M23.43,99.63a3.43,3.43,0,1,1,0-6.83,3.43,3.43,0,1,1,0,6.83Zm0-6.06a2.66,2.66,0,1,0,2.9,2.65A2.78,2.78,0,0,0,23.43,93.57Z"/>
        </g>
      </g>
      <g id="group1067-124-2" data-name="group1067-124">
        <g id="shape1068-125-2" data-name="shape1068-125">
          <path id="path1317-2" data-name="path1317" class="cls-6" d="M23.43,101.44a5.24,5.24,0,1,1,0-10.45,5.24,5.24,0,1,1,0,10.45Zm0-9.69a4.48,4.48,0,1,0,0,8.93,4.48,4.48,0,1,0,0-8.93Z"/>
        </g>
      </g>
    </g>
  </g>
  <g id="group1060-114-3" data-name="group1060-114">
    <g id="shape1061-115-3" data-name="shape1061-115">
      <path id="path1292-3" data-name="path1292" class="cls-6" d="M17.37,21.52H10.65A.59.59,0,0,1,10,21V14.51H12V12.74H24.4a.59.59,0,0,1,.62.57v.09a6.4,6.4,0,0,1,1,.33v-.42a1.53,1.53,0,0,0-1.58-1.46h-13l-2.34,2.2V21a1.51,1.51,0,0,0,1.57,1.46h7.28A5.8,5.8,0,0,1,17.37,21.52Z"/>
    </g>
    <g id="group1062-117-3" data-name="group1062-117">
      <g id="group1063-118-3" data-name="group1063-118">
        <g id="shape1064-119-3" data-name="shape1064-119">
          <path id="path1301-3" data-name="path1301" class="cls-6" d="M26,23.05l2.34,3.26-2.17-.54-.61,1.64-2.34-2.88-1.75,2.88-.8-1.74-2.17.54,2.14-3.42s.58.92,2.69.92S26,23.05,26,23.05Z"/>
        </g>
      </g>
      <g id="group1065-121-3" data-name="group1065-121">
        <g id="shape1066-122-3" data-name="shape1066-122">
          <path id="path1309-3" data-name="path1309" class="cls-6" d="M23.43,22.45A3.58,3.58,0,0,1,19.72,19a3.58,3.58,0,0,1,3.71-3.42A3.58,3.58,0,0,1,27.15,19,3.58,3.58,0,0,1,23.43,22.45Zm0-6.06A2.78,2.78,0,0,0,20.54,19a2.91,2.91,0,0,0,5.79,0A2.79,2.79,0,0,0,23.43,16.39Z"/>
        </g>
      </g>
      <g id="group1067-124-3" data-name="group1067-124">
        <g id="shape1068-125-3" data-name="shape1068-125">
          <path id="path1317-3" data-name="path1317" class="cls-6" d="M23.43,24.27a5.48,5.48,0,0,1-5.7-5.22,5.48,5.48,0,0,1,5.7-5.23,5.48,5.48,0,0,1,5.69,5.23A5.47,5.47,0,0,1,23.43,24.27Zm0-9.69a4.7,4.7,0,0,0-4.88,4.47,4.69,4.69,0,0,0,4.88,4.46,4.68,4.68,0,0,0,4.87-4.46A4.69,4.69,0,0,0,23.43,14.58Z"/>
        </g>
      </g>
    </g>
  </g>
  <g>
    <g id="group1113-2">
      <g id="shape1114-3">
        <path id="path21" class="cls-5" d="M80.65,24.41a11.81,11.81,0,0,1-16.84-2.29A12.56,12.56,0,0,1,66.05,4.83a11.82,11.82,0,0,1,16.84,2.3A12.54,12.54,0,0,1,80.65,24.41ZM84.31,6A13.57,13.57,0,0,0,65,3.37,14.43,14.43,0,0,0,62.4,23.24a13.62,13.62,0,0,0,11,5.55,13.45,13.45,0,0,0,8.39-2.92A14.44,14.44,0,0,0,84.31,6Z"/>
      </g>
    </g>
    <g id="group1115-5">
      <g id="group1116-6">
        <g id="group1117-7">
          <g id="shape1118-8">
            <path id="path33" class="cls-5" d="M66.68,17.19a17,17,0,0,1-2-2.35,18.28,18.28,0,0,0-1.66,6.88c.11.16.11.29.23.44a12.55,12.55,0,0,0,2,2.05A14.13,14.13,0,0,1,66.68,17.19Z"/>
          </g>
        </g>
        <g id="shape1119-10">
          <path id="path39" class="cls-5" d="M71.29,7.75a21,21,0,0,0-3.33,3,15.71,15.71,0,0,0-1.61,2,15.42,15.42,0,0,0,1.9,2.46,16.32,16.32,0,0,1,2.2-2.56,26.47,26.47,0,0,1,3.13-2.61C72.78,9.31,72,8.54,71.29,7.75Z"/>
        </g>
        <g id="group1120-12">
          <g id="shape1121-13">
            <path id="path46" class="cls-5" d="M82.76,7A12,12,0,0,0,81,5.13a12.53,12.53,0,0,0-8,1.53c.76.84,1.51,1.63,2.24,2.36C79.63,6.59,82.76,7,82.76,7Z"/>
          </g>
        </g>
        <g id="group1122-15">
          <g id="shape1123-16">
            <path id="path54" class="cls-5" d="M65,15a19.82,19.82,0,0,1,1.19-2.06,9.84,9.84,0,0,1-1.6-6.79,13.09,13.09,0,0,0-1.29,1.6C62.87,9.34,62.85,11.9,65,15Z"/>
          </g>
        </g>
        <g id="group1124-18">
          <g id="shape1125-19">
            <path id="path62" class="cls-5" d="M70.52,17.37a21.6,21.6,0,0,1-2.27-2.14,14.25,14.25,0,0,0-1.14,1.95,23.54,23.54,0,0,0,2.09,1.91,19.12,19.12,0,0,0,12.56,4.38,9,9,0,0,0,1.54-1.94C82.07,21.79,76.81,22.48,70.52,17.37Z"/>
          </g>
        </g>
        <g id="group1126-21">
          <g id="shape1127-22">
            <path id="path70" class="cls-5" d="M65.16,14.83a15.72,15.72,0,0,0,2,2.35,15.36,15.36,0,0,1,1.14-1.95,15.42,15.42,0,0,1-1.9-2.46A15.58,15.58,0,0,0,65.16,14.83Z"/>
          </g>
        </g>
        <g id="group1128-24">
          <g id="shape1129-25">
            <path id="path78" class="cls-5" d="M73.58,10.07a97,97,0,0,0,11.15,8.82,9.82,9.82,0,0,0,.33-1.05A95.51,95.51,0,0,1,75.23,9Q74.44,9.47,73.58,10.07Z"/>
          </g>
        </g>
        <g id="group1130-27">
          <g id="shape1131-28">
            <path id="path86" class="cls-5" d="M73,6.66q-1.65-1.77-3.36-3.8A10.05,10.05,0,0,0,68,3.52a26.3,26.3,0,0,0,3.24,4.22A17.22,17.22,0,0,1,73,6.66Z"/>
          </g>
        </g>
        <g id="shape1132-30">
          <path id="path92" class="cls-5" d="M73.06,6.62a18.74,18.74,0,0,0-1.87,1.19c.72.78,1.45,1.59,2.25,2.35.57-.4,1.34-.88,1.87-1.18C74.57,8.25,73.82,7.46,73.06,6.62Z"/>
        </g>
        <g id="shape1133-32">
          <path id="path97" class="cls-5" d="M72.86,6.52a16.24,16.24,0,0,0-1.67,1.12c.72.79,1.74,1.81,2.54,2.57.57-.4,1-.8,1.58-1.11C74.57,8.38,73.61,7.35,72.86,6.52Z"/>
        </g>
      </g>
      <g id="group1134-34">
        <g id="shape1135-35">
          <path id="path105" class="cls-5" d="M78.92,13.07a2.7,2.7,0,0,0-.48,3.7,2.56,2.56,0,0,0,3.63.51,2.72,2.72,0,0,0,.48-3.72A2.55,2.55,0,0,0,78.92,13.07Z"/>
        </g>
      </g>
      <g id="group1136-37">
        <g id="shape1137-38">
          <path id="path113" class="cls-5" d="M73.75,19.2a2.52,2.52,0,0,0-.45,3.44,2.37,2.37,0,0,0,3.36.45,2.49,2.49,0,0,0,.44-3.43A2.36,2.36,0,0,0,73.75,19.2Z"/>
        </g>
      </g>
      <g id="group1138-40">
        <g id="shape1139-41">
          <path id="path121" class="cls-5" d="M64.6,11.87a3.79,3.79,0,0,0-.68,5.21,3.58,3.58,0,0,0,5.1.7,3.8,3.8,0,0,0,.67-5.23A3.59,3.59,0,0,0,64.6,11.87Z"/>
        </g>
      </g>
    </g>
  </g>
  <g>
    <g>
      <path class="cls-9" d="M107,154V131.82C107,113.88,106,92,144,92"/>
      <path class="cls-9" d="M87.59,165.63h8.24c6.36,0,11.15-3.46,11.15-9.41v-16.7"/>
    </g>
    <g>
      <path class="cls-9" d="M106.19,29.55V51.92c0,18.06-1,40.08,37,40.08"/>
      <path class="cls-9" d="M89.12,16.36h7.26c5.59,0,9.81,3.67,9.81,10V44.08"/>
    </g>
    <g>
      <g id="shape1048-85">
        <g id="use1001">
          <g id="lend5">
            <path id="path998" class="cls-10" d="M181,87.78l8,4-8,4a9,9,0,0,0,0-8"/>
          </g>
        </g>
      </g>
      <g id="shape1049-91">
        <path class="cls-10" d="M181,87.79l8,4-8,4a9,9,0,0,0,0-8"/>
      </g>
      <g id="shape1070-129">
        <path class="cls-10" d="M181,87.79l8,4-8,4a9.06,9.06,0,0,0,0-8"/>
      </g>
      <rect class="cls-11" x="91.55" y="91.49" width="91.09" height="1" rx="0.42"/>
    </g>
  </g>
</svg>
