<?xml version="1.0" encoding="utf-8"?>
<!-- Generator: Adobe Illustrator 23.0.3, SVG Export Plug-In . SVG Version: 6.00 Build 0)  -->
<svg version="1.1" xmlns="http://www.w3.org/2000/svg" xmlns:xlink="http://www.w3.org/1999/xlink" x="0px" y="0px"
	 viewBox="0 0 266.8 200.3" style="enable-background:new 0 0 266.8 200.3;" xml:space="preserve">
<style type="text/css">
	.st0{fill-rule:evenodd;clip-rule:evenodd;fill:#008BFD;}
	.st1{fill-rule:evenodd;clip-rule:evenodd;fill:#0078D7;}
	.st2{fill-rule:evenodd;clip-rule:evenodd;fill:#808080;}
	.st3{fill-rule:evenodd;clip-rule:evenodd;fill:#505050;}
	.st4{fill:none;}
	.st5{fill:#505050;}
	.st6{enable-background:new    ;}
	.st7{font-family:'Calibri';}
	.st8{font-size:10px;}
	.st9{fill:#00B0F0;}
</style>
<g id="Shapes" xmlns:ev="http://www.w3.org/2001/xml-events" xmlns:v="http://schemas.microsoft.com/visio/2003/SVGExtensions/">
	<g id="group1278-2">
		<g id="shape1279-3">
			<path class="st0" d="M79.6,24.4c-2.2,1.7-4.8,2.5-7.3,2.5c-3.6,0-7.2-1.7-9.6-4.8c-4-5.4-3-13.1,2.2-17.3
				c2.2-1.7,4.8-2.5,7.3-2.5c3.6,0,7.2,1.7,9.6,4.8C85.9,12.5,84.9,20.3,79.6,24.4z M83.2,6c-2.7-3.6-6.8-5.6-11-5.6
				c-2.9,0-5.9,1-8.4,2.9c-6,4.8-7.2,13.7-2.5,19.9c2.7,3.6,6.8,5.6,11,5.6c2.9,0,5.9-0.9,8.4-2.9C86.7,21.1,87.9,12.2,83.2,6z"/>
		</g>
	</g>
	<g id="group1280-5" transform="translate(4.95554,-4.39536)">
		<g id="group1281-6" transform="translate(0.341805,-0.176482)">
			<g id="group1282-7" transform="translate(0.437248,3.12639E-13)">
				<g id="shape1283-8">
					<path class="st0" d="M60.3,21.8c-0.8-0.8-1.4-1.6-2-2.4c-1.2,2.4-1.6,4.9-1.7,6.9c0.1,0.2,0.1,0.3,0.2,0.4
						c0.6,0.8,1.3,1.5,2,2.1C58.8,27.2,59,24.5,60.3,21.8z"/>
				</g>
			</g>
			<g id="shape1284-10" transform="translate(3.29213,-8.97695)">
				<path class="st0" d="M61.6,21.3c-1.1,0.8-2.2,1.7-3.3,3c-0.6,0.7-1.2,1.4-1.6,2.1c0.5,0.8,1.1,1.6,1.9,2.5
					c0.6-0.9,1.3-1.7,2.2-2.6c1.1-1.1,2.2-1.9,3.1-2.6C63.1,22.9,62.3,22.1,61.6,21.3z"/>
			</g>
			<g id="group1285-12" transform="translate(9.93516,-15.1958)">
				<g id="shape1286-13">
					<path class="st0" d="M66.5,26.7c-0.5-0.7-1.1-1.3-1.7-1.8c-1.9-0.3-4.7-0.3-8,1.5c0.8,0.8,1.5,1.6,2.2,2.4
						C63.3,26.4,66.5,26.7,66.5,26.7z"/>
				</g>
			</g>
			<g id="group1287-15" transform="translate(1.10162E-13,-9.38012)">
				<g id="shape1288-16">
					<path class="st0" d="M58.8,28.8c0.3-0.7,0.7-1.4,1.2-2.1c-1.9-3.1-1.8-5.6-1.6-6.8c-0.5,0.5-0.9,1-1.3,1.6
						C56.7,23.1,56.7,25.7,58.8,28.8z"/>
				</g>
			</g>
			<g id="group1289-18" transform="translate(4.05148,-0.740211)">
				<g id="shape1290-19">
					<path class="st0" d="M60.1,22.7c-0.9-0.7-1.6-1.4-2.3-2.1c-0.5,0.7-0.8,1.3-1.1,1.9c0.6,0.6,1.3,1.3,2.1,1.9
						c4.9,4,9.8,4.4,12.6,4.4c0.2,0,1-1.2,1.5-1.9C71.7,27.1,66.4,27.8,60.1,22.7z"/>
				</g>
			</g>
			<g id="group1291-21" transform="translate(2.10339,-7.03041)">
				<g id="shape1292-22">
					<path class="st0" d="M56.7,26.4c0.5,0.8,1.2,1.5,2,2.4c0.3-0.6,0.7-1.3,1.1-1.9c-0.8-0.9-1.4-1.7-1.9-2.5
						C57.4,25.1,57,25.8,56.7,26.4z"/>
				</g>
			</g>
			<g id="group1293-24" transform="translate(10.5195,-5.3233)">
				<g id="shape1294-25">
					<path class="st0" d="M56.7,20c4.5,4.3,9.8,7.9,11.1,8.8c0.1-0.4,0.2-0.7,0.3-1.1c-1.4-1.1-5.3-4.2-9.8-8.8
						C57.8,19.2,57.3,19.6,56.7,20z"/>
				</g>
			</g>
			<g id="group1295-27" transform="translate(4.98729,-16.4714)">
				<g id="shape1296-28">
					<path class="st0" d="M61.6,27.7c-1.1-1.2-2.2-2.4-3.4-3.8c-0.5,0.2-1.1,0.4-1.6,0.7c0.8,1.4,2,2.8,3.2,4.2
						C60.5,28.4,61.1,28,61.6,27.7z"/>
				</g>
			</g>
			<g id="shape1297-30" transform="translate(8.13763,-14.0503)">
				<path class="st0" d="M58.6,25.2c-0.6,0.3-1.3,0.8-1.9,1.2c0.7,0.8,1.5,1.6,2.3,2.4c0.6-0.4,1.3-0.9,1.9-1.2
					C60.1,26.9,59.3,26.1,58.6,25.2z"/>
			</g>
			<g id="shape1298-32" transform="translate(8.1369,-14.0039)">
				<path class="st0" d="M58.4,25.1c-0.6,0.3-1.1,0.7-1.7,1.1c0.7,0.8,1.7,1.8,2.5,2.6c0.6-0.4,1-0.8,1.6-1.1
					C60.1,26.9,59.1,25.9,58.4,25.1z"/>
			</g>
		</g>
		<g id="group1299-34" transform="translate(14.8617,-6.23662)">
			<g id="shape1300-35">
				<path class="st0" d="M58,23.7c-1.1,0.9-1.3,2.6-0.5,3.7c0.9,1.2,2.5,1.4,3.6,0.5c1.1-0.9,1.3-2.6,0.5-3.7
					C60.8,23,59.2,22.8,58,23.7z"/>
			</g>
		</g>
		<g id="group1301-37" transform="translate(9.65099,-2.27374E-13)">
			<g id="shape1302-38">
				<path class="st0" d="M57.9,24.1c-1,0.8-1.2,2.4-0.5,3.4c0.8,1.1,2.3,1.3,3.4,0.4c1-0.8,1.2-2.4,0.4-3.4
					C60.5,23.5,59,23.3,57.9,24.1z"/>
			</g>
		</g>
		<g id="group1303-40" transform="translate(0,-5.36433)">
			<g id="shape1304-41">
				<path class="st0" d="M58.6,21.6c-1.6,1.3-1.9,3.6-0.7,5.2c1.2,1.6,3.5,1.9,5.1,0.7c1.6-1.3,1.9-3.6,0.7-5.2
					C62.5,20.7,60.2,20.4,58.6,21.6z"/>
			</g>
		</g>
	</g>
	<path class="st0" d="M254.7,79h-20.5c-0.6,0-1.1,0.5-1.1,1.1v16.8c0,0.6,0.5,1.1,1.1,1.1h5.3c0.4,1.3,1.7,2.3,3.2,2.3
		c1.8,0,3.3-1.5,3.3-3.4s-1.5-3.4-3.3-3.4c-1.5,0-2.8,0.9-3.2,2.3h-4.2v-12h18.3v12h-3.5c-0.5-3.7-3.7-6.6-7.5-6.6
		c-1.3,0-2.6,0.4-3.6,0.9l1,2c0.7-0.4,1.7-0.7,2.6-0.7c2.9,0,5.4,2.5,5.4,5.5c0,3-2.4,5.4-5.4,5.4c-0.9,0-1.8-0.2-2.6-0.7l-1,2
		c1.1,0.6,2.4,0.9,3.6,0.9c3.8,0,7-2.9,7.5-6.6h4.6c0.6,0,1.1-0.5,1.1-1.1V80.1C255.7,79.6,255.3,79,254.7,79z"/>
	<g id="shape1318-51">
		<path class="st1" d="M72.6,106H58.4V77.6h14.2v7.7h0.8v-8.4H57.6v29.9h15.7v-2.3h-0.8V106z"/>
	</g>
	<g id="shape1319-53" transform="translate(1.5606,-23.7593)">
		<path class="st1" d="M70.3,102.1H57.6v4.6h12.6V102.1z M60.7,104.1h6.5v0.8h-6.5V104.1z M67.3,105.9L67.3,105.9h-6.5h-0.1v-0.8
			h0.1h6.4h0.1V105.9z"/>
	</g>
	<g id="shape1320-55" transform="translate(1.52875,-19.9374)">
		<path class="st1" d="M57.6,103.7v3.1h8.6v-1.5h4.1v-1.5H57.6z"/>
	</g>
	<g id="shape1321-57" transform="translate(1.52875,-16.4978)">
		<rect x="57.6" y="104.1" class="st1" width="8.6" height="2.7"/>
	</g>
	<g id="shape1322-59" transform="translate(1.4969,-1.52875)">
		<path class="st1" d="M57.7,106.7h12.6v-0.8h-4.1V92.6h-8.6L57.7,106.7L57.7,106.7z M59.2,104h2.3v1.2h-2.3V104z"/>
	</g>
	<g id="shape1323-61" transform="translate(16.02,-3.43969)">
		<path class="st1" d="M66.4,105.6h-2.5v-1.9h-2.5v1.9h-2.5c-0.7,0-1.3,0.6-1.3,1.2h10C67.7,106.2,67,105.6,66.4,105.6z"/>
	</g>
	<g id="shape1324-63" transform="translate(11.816,-7.22971)">
		<path class="st1" d="M75.4,95.4H58.3c-0.3,0-0.7,0.3-0.7,0.6v10.1c0,0.3,0.3,0.6,0.7,0.6h17.1c0.3,0,0.7-0.3,0.7-0.6V96
			C76.1,95.7,75.8,95.4,75.4,95.4z M74.4,105.2H59.3v-8.3h15.1V105.2z"/>
	</g>
	<g id="shape1325-65" transform="translate(17.931,-9.36359)">
		<path class="st1" d="M64.6,104.9v-3.4l-3.5-1.8l-3.5,1.8v3.5l3.5,1.8L64.6,104.9z M60.2,102.6l0.9-0.4l0.9,0.4l-0.9,0.5
			L60.2,102.6z M60.3,101.4l0.9-0.4l0.9,0.4l-0.9,0.5L60.3,101.4z M62.2,106l-1,0.5v-0.9l1-0.5V106z M62.2,104.8l-1,0.5v-0.9l1-0.5
			V104.8z M62.2,103.7l-1,0.5v-0.9l1-0.5V103.7z M61.4,102l0.9-0.4l0.9,0.4l-0.9,0.4L61.4,102z M63.4,105.4l-1,0.5V105l1-0.5V105.4z
			 M63.4,104.2l-1,0.5v-0.9l1-0.5V104.2z M63.4,103l-1,0.5v-0.9l1-0.5V103z M64.4,104.8l-0.9,0.4v-0.9l0.9-0.5V104.8z M64.4,103.6
			l-0.9,0.4v-0.9l0.9-0.4V103.6z M64.4,102.5l-0.9,0.4V102l0.9-0.4V102.5z M64.2,101.4l-0.9,0.5l-0.9-0.5l0.9-0.4L64.2,101.4z
			 M63.1,100.9l-0.9,0.4l-0.9-0.4l0.9-0.4L63.1,100.9z M61.1,99.8l0.9,0.4l-0.9,0.4l-0.9-0.4L61.1,99.8z M60,100.4l0.9,0.4l-0.9,0.4
			l-0.9-0.4L60,100.4z M58.9,101l0.9,0.4l-0.9,0.5l-0.9-0.5L58.9,101z M58.7,105.3l-0.9-0.4v-0.9l0.9,0.4V105.3z M58.7,104.1
			l-0.9-0.4v-0.9l0.9,0.4V104.1z M58.7,102.9l-0.9-0.4v-0.9l0.9,0.4V102.9z M59.9,105.9l-1-0.5v-0.9l1,0.5V105.9z M59.9,104.7
			l-1-0.5v-0.9l1,0.5V104.7z M59.9,103.6l-1-0.5v-0.9l1,0.5V103.6z M59.2,102l0.9-0.4l0.9,0.4l-0.9,0.5L59.2,102z M61,106.5l-1-0.5
			v-0.9l1,0.5V106.5z M61,105.3l-1-0.5v-0.9l1,0.5V105.3z M61,104.2l-1-0.5v-0.9l1,0.5V104.2z"/>
	</g>
	<g id="shape1338-71" transform="translate(-9.29257E-14,-5.02924)">
		<path class="st2" d="M16.3,21.5H9.6c-0.3,0-0.6-0.3-0.6-0.6v-6.4h1.9v-1.8h12.4c0.3,0,0.6,0.3,0.6,0.6v0.1c0.3,0.1,0.6,0.2,1,0.3
			v-0.4c0-0.8-0.7-1.5-1.6-1.5h-13L8,14v6.9c0,0.8,0.7,1.5,1.6,1.5h7.3C16.7,22.1,16.5,21.8,16.3,21.5z"/>
	</g>
	<g id="group1339-73" transform="translate(8.44762,0)">
		<g id="group1340-74" transform="translate(0.737786,0)">
			<g id="shape1341-75">
				<path class="st2" d="M15.5,18l2.3,3.3l-2.2-0.5l-0.6,1.6l-2.3-2.9L11,22.4l-0.8-1.7L8,21.2l2.1-3.4c0,0,0.6,0.9,2.7,0.9
					C14.9,18.7,15.5,18,15.5,18z"/>
			</g>
		</g>
		<g id="group1342-77" transform="translate(1.9839,-4.95422)">
			<g id="shape1343-78">
				<path class="st2" d="M11.7,22.4c-2,0-3.7-1.5-3.7-3.4c0-1.9,1.7-3.4,3.7-3.4c2.1,0,3.7,1.5,3.7,3.4
					C15.4,20.9,13.8,22.4,11.7,22.4z M11.7,16.3c-1.6,0-2.9,1.2-2.9,2.6s1.3,2.6,2.9,2.6c1.6,0,2.9-1.2,2.9-2.6S13.3,16.3,11.7,16.3
					z"/>
			</g>
		</g>
		<g id="group1344-80" transform="translate(0,-3.14179)">
			<g id="shape1345-81">
				<path class="st2" d="M13.7,22.4c-3.1,0-5.7-2.3-5.7-5.2c0-2.9,2.6-5.2,5.7-5.2s5.7,2.3,5.7,5.2C19.4,20.1,16.9,22.4,13.7,22.4z
					 M13.7,12.7c-2.7,0-4.9,2-4.9,4.5c0,2.5,2.2,4.5,4.9,4.5s4.9-2,4.9-4.5C18.6,14.7,16.4,12.7,13.7,12.7z"/>
			</g>
		</g>
	</g>
	<path class="st0" d="M83,154.8H62.5c-0.6,0-1.1,0.5-1.1,1.1v16.8c0,0.6,0.5,1.1,1.1,1.1h5.3c0.4,1.3,1.7,2.3,3.2,2.3
		c1.8,0,3.3-1.5,3.3-3.4s-1.5-3.4-3.3-3.4c-1.5,0-2.8,0.9-3.2,2.3h-4.2v-12h18.3v12h-3.4c-0.5-3.7-3.7-6.6-7.5-6.6
		c-1.3,0-2.6,0.4-3.6,0.9l1,2c0.7-0.4,1.7-0.7,2.5-0.7c2.9,0,5.4,2.5,5.4,5.5c0,3-2.4,5.4-5.4,5.4c-0.9,0-1.8-0.2-2.5-0.7l-1,2
		c1.1,0.6,2.4,0.9,3.6,0.9c3.8,0,7-2.9,7.5-6.6H83c0.6,0,1.1-0.5,1.1-1.1v-16.8C84.1,155.3,83.6,154.8,83,154.8z"/>
	<g id="shape1386-100" transform="translate(-9.29257E-14,-5.02924)">
		<path class="st2" d="M16.3,98.7H9.6c-0.3,0-0.6-0.3-0.6-0.6v-6.4h1.9v-1.8h12.4c0.3,0,0.6,0.3,0.6,0.6v0.1c0.3,0.1,0.6,0.2,1,0.3
			v-0.4c0-0.8-0.7-1.5-1.6-1.5h-13L8,91.2v6.9c0,0.8,0.7,1.5,1.6,1.5h7.3C16.7,99.3,16.5,99,16.3,98.7z"/>
	</g>
	<g id="group1387-102" transform="translate(8.44762,0)">
		<g id="group1388-103" transform="translate(0.737786,0)">
			<g id="shape1389-104">
				<path class="st2" d="M15.5,95.2l2.3,3.3l-2.2-0.5l-0.6,1.6l-2.3-2.9L11,99.6l-0.8-1.7L8,98.4l2.1-3.4c0,0,0.6,0.9,2.7,0.9
					C14.9,95.9,15.5,95.2,15.5,95.2z"/>
			</g>
		</g>
		<g id="group1390-106" transform="translate(1.9839,-4.95422)">
			<g id="shape1391-107">
				<path class="st2" d="M11.7,99.6c-2,0-3.7-1.5-3.7-3.4c0-1.9,1.7-3.4,3.7-3.4c2.1,0,3.7,1.5,3.7,3.4
					C15.4,98.1,13.8,99.6,11.7,99.6z M11.7,93.5c-1.6,0-2.9,1.2-2.9,2.6s1.3,2.6,2.9,2.6c1.6,0,2.9-1.2,2.9-2.6S13.3,93.5,11.7,93.5
					z"/>
			</g>
		</g>
		<g id="group1392-109" transform="translate(0,-3.14179)">
			<g id="shape1393-110">
				<path class="st2" d="M13.7,99.6c-3.1,0-5.7-2.3-5.7-5.2c0-2.9,2.6-5.2,5.7-5.2s5.7,2.3,5.7,5.2C19.4,97.2,16.9,99.6,13.7,99.6z
					 M13.7,89.9c-2.7,0-4.9,2-4.9,4.5c0,2.5,2.2,4.5,4.9,4.5s4.9-2,4.9-4.5C18.6,91.9,16.4,89.9,13.7,89.9z"/>
			</g>
		</g>
	</g>
	<g id="shape1417-115" transform="translate(-9.29257E-14,-5.02924)">
		<path class="st2" d="M16.3,169.5H9.6c-0.3,0-0.6-0.3-0.6-0.6v-6.4h1.9v-1.8h12.4c0.3,0,0.6,0.3,0.6,0.6v0.1c0.3,0.1,0.6,0.2,1,0.3
			v-0.4c0-0.8-0.7-1.5-1.6-1.5h-13L8,162v6.9c0,0.8,0.7,1.5,1.6,1.5h7.3C16.7,170.1,16.5,169.8,16.3,169.5z"/>
	</g>
	<g id="group1418-117" transform="translate(8.44762,0)">
		<g id="group1419-118" transform="translate(0.737786,0)">
			<g id="shape1420-119">
				<path class="st2" d="M15.5,166l2.3,3.3l-2.2-0.5l-0.6,1.6l-2.3-2.9l-1.8,2.9l-0.8-1.7L8,169.2l2.1-3.4c0,0,0.6,0.9,2.7,0.9
					C14.9,166.7,15.5,166,15.5,166z"/>
			</g>
		</g>
		<g id="group1421-121" transform="translate(1.9839,-4.95422)">
			<g id="shape1422-122">
				<path class="st2" d="M11.7,170.4c-2,0-3.7-1.5-3.7-3.4c0-1.9,1.7-3.4,3.7-3.4c2.1,0,3.7,1.5,3.7,3.4
					C15.4,168.8,13.8,170.4,11.7,170.4z M11.7,164.3c-1.6,0-2.9,1.2-2.9,2.6s1.3,2.6,2.9,2.6c1.6,0,2.9-1.2,2.9-2.6
					S13.3,164.3,11.7,164.3z"/>
			</g>
		</g>
		<g id="group1423-124" transform="translate(0,-3.14179)">
			<g id="shape1424-125">
				<path class="st2" d="M13.7,170.4c-3.1,0-5.7-2.3-5.7-5.2c0-2.9,2.6-5.2,5.7-5.2s5.7,2.3,5.7,5.2C19.4,168,16.9,170.4,13.7,170.4
					z M13.7,160.7c-2.7,0-4.9,2-4.9,4.5c0,2.5,2.2,4.5,4.9,4.5s4.9-2,4.9-4.5C18.6,162.7,16.4,160.7,13.7,160.7z"/>
			</g>
		</g>
	</g>
	<rect x="151" y="63" class="st4" width="80.5" height="20"/>
	<g id="Arrow">
		<path class="st5" d="M229.6,92.5c-0.7,0-5.2,0-5.7,0c-18.4,0-36.9,0.2-55.3-0.1c-11.8-0.2-23.8,8.4-26.2,21.7
			c-0.3,1.7-0.4,3.5-0.4,5.2c0,6.8,0,13.6,0,20.4c0,14.1-8.6,24.9-22.4,27.9c-1.8,0.4-3.8,0.5-5.7,0.5c-9.4,0-18.9,0-28.3,0
			c-0.2,0,0,0-0.3,0c-0.4,0-0.9-0.2-0.9-0.6c0-0.6,0.6-0.7,1.1-0.7c0.9,0,0.4,0,0.9,0c9.8,0,19.6,0.1,29.4-0.1
			c12.1-0.2,22.9-10.1,24.6-22.1c0.3-2,0.3-4,0.4-6c0.1-7.2-0.2-14.4,0.2-21.6c0.6-11.2,6.6-19.1,16.7-23.8c0.5-0.2,0.9-0.4,1.4-0.9
			c-0.5,0-1,0-1.6,0c-22.2,0-46.2,0-68.5-0.1c0,0-0.7,0-0.7-0.5c0-0.6,0.8-0.6,0.8-0.6c22.2,0,46.1-0.1,68.3-0.1c0.5,0,1.1,0,1.9,0
			c-0.4-0.3-0.6-0.5-0.8-0.6c-11.8-5-17.5-14.2-17.7-26.8c-0.1-7.8,0-15.7-0.1-23.5c-0.2-12.3-10.8-23.8-23.2-24.6
			c-7.8-0.5-15.7-0.3-23.5-0.3c-2,0-4,0-6,0c-0.4,0-1.5,0-1.5-0.6c-0.1-0.7,1.2-0.7,1.7-0.7c6.5,0,13,0,19.5,0c4.7,0,9.4-0.2,14,1
			c10.5,2.7,19,12.2,20.1,22.9c0.4,4.3,0.3,8.7,0.3,13c0,4.5,0,9,0,13.5c0.1,13.5,9.1,24.1,22.3,26.4c0.7,0.1,1.5,0.1,2.2,0.1
			c19.1,0,38.3,0,57.4,0c0.4,0,5.2,0,5.9-0.1"/>
		<g id="shape1579-52_1_" transform="translate(73.5133,-41.2635)">
			<g transform="scale(-2.68,-2.68) ">
				<g id="lend5_2_">
					<path class="st3" d="M151.1,129l8,4l-8,4C152.4,134.5,152.4,131.5,151.1,129"/>
				</g>
			</g>
		</g>
	</g>
</g>
<g id="Txt" xmlns:ev="http://www.w3.org/2001/xml-events" xmlns:v="http://schemas.microsoft.com/visio/2003/SVGExtensions/">
	<text transform="matrix(1 0 0 1 57.4664 41.7853)" class="st6"><tspan x="0" y="0" class="st7 st8">Démon</tspan><tspan x="-18" y="12" class="st7 st8">Application web</tspan></text>
	<rect x="220.6" y="109.4" class="st4" width="46.8" height="33.6"/>
	<text transform="matrix(1 0 0 1 229.7239 117.5411)" class="st6"><tspan x="0" y="0" class="st7 st8">Démon</tspan><tspan x="-7.6" y="12" class="st7 st8">Application </tspan><tspan x="7.8" y="24" class="st7 st8">API</tspan></text>
	<g id="shape1317-67">
		<text transform="matrix(1 0 0 1 57.6956 117.0984)" class="st6"><tspan x="0" y="0" class="st7 st8">Démon</tspan><tspan x="-30.1" y="12" class="st7 st8">Application de bureau</tspan></text>
	</g>
	<g id="shape1337-83">
		<text transform="matrix(1 0 0 1 5.1363 35.4073)" class="st6 st7 st8">Secret<v:paragraph  v:horizAlign="1"></v:paragraph><v:tabList></v:tabList></text>
	</g>
	<text transform="matrix(1 0 0 1 32.9723 193.2968)" class="st6 st7 st8">API web du démon<v:paragraph  v:horizAlign="1"></v:paragraph><v:tabList></v:tabList></text>
	<g id="shape1385-112">
		<text transform="matrix(1 0 0 1 5.1363 112.5803)" class="st6 st7 st8">Secret<v:paragraph  v:horizAlign="1"></v:paragraph><v:tabList></v:tabList></text>
	</g>
	<g id="shape1416-127">
		<text transform="matrix(1 0 0 1 5.1363 183.3754)" class="st6 st7 st8">Secret<v:paragraph  v:horizAlign="1"></v:paragraph><v:tabList></v:tabList></text>
	</g>
	<rect x="144.8" y="49.8" class="st4" width="115.6" height="32.8"/>
	<text transform="matrix(1 0 0 1 151.0873 57.9984)" class="st6"><tspan x="0" y="0" class="st9 st7 st8">Informations d’identific</tspan><tspan x="100" y="0" class="st9 st7 st8">-</tspan><tspan x="24.8" y="12" class="st9 st7 st8">tion du client</tspan><tspan x="44.1" y="24" class="st9 st7 st8">flux</tspan></text>
</g>
<g id="Stc" xmlns:ev="http://www.w3.org/2001/xml-events" xmlns:v="http://schemas.microsoft.com/visio/2003/SVGExtensions/">
	<g>
		<path class="st5" d="M225.8,91.8c0-2-0.8-3.1-1.4-4.3c2.8,1.5,5.5,2.9,8.2,4.3c-2.7,1.4-5.4,2.8-8.2,4.3
			C225,94.6,225.8,93.6,225.8,91.8z"/>
	</g>
</g>
</svg>
