<svg xmlns="http://www.w3.org/2000/svg" viewBox="0 0 224.94 200.3"><title>OJ104440668</title><path d="M5.84,35.18v-.77a1.48,1.48,0,0,0,.32.21,3.52,3.52,0,0,0,.39.16l.41.1.38,0a1.51,1.51,0,0,0,.91-.22.77.77,0,0,0,.3-.65.81.81,0,0,0-.1-.39,1,1,0,0,0-.28-.31,2.91,2.91,0,0,0-.41-.27l-.52-.26a5.67,5.67,0,0,1-.55-.31,2.53,2.53,0,0,1-.44-.33A1.37,1.37,0,0,1,6,31.75a1.13,1.13,0,0,1-.11-.54A1.22,1.22,0,0,1,6,30.54a1.38,1.38,0,0,1,.44-.46,1.84,1.84,0,0,1,.62-.28,2.82,2.82,0,0,1,.71-.09,2.75,2.75,0,0,1,1.21.2v.74a2.16,2.16,0,0,0-1.27-.34,2,2,0,0,0-.43,0,1.08,1.08,0,0,0-.38.15.7.7,0,0,0-.38.65.72.72,0,0,0,.08.37,1,1,0,0,0,.23.29,3.13,3.13,0,0,0,.38.25l.52.26c.2.1.39.2.57.31a2.2,2.2,0,0,1,.47.37,1.54,1.54,0,0,1,.33.44,1.2,1.2,0,0,1,.12.55,1.37,1.37,0,0,1-.17.7,1.22,1.22,0,0,1-.43.47,1.92,1.92,0,0,1-.64.26,3.69,3.69,0,0,1-.76.08l-.32,0c-.14,0-.27,0-.4-.06l-.39-.1A1.58,1.58,0,0,1,5.84,35.18Z"/><path d="M13.48,33.57H10.66a1.49,1.49,0,0,0,.36,1A1.24,1.24,0,0,0,12,35a2,2,0,0,0,1.24-.44v.6a2.34,2.34,0,0,1-1.39.38A1.68,1.68,0,0,1,10.48,35,2.23,2.23,0,0,1,10,33.42a2.2,2.2,0,0,1,.53-1.52,1.72,1.72,0,0,1,1.32-.59,1.49,1.49,0,0,1,1.21.51,2.1,2.1,0,0,1,.43,1.41ZM12.83,33a1.38,1.38,0,0,0-.27-.86.94.94,0,0,0-.73-.31,1,1,0,0,0-.77.33,1.35,1.35,0,0,0-.39.84Z"/><path d="M17.18,35.22a2.07,2.07,0,0,1-1.1.28,1.78,1.78,0,0,1-1.38-.56,2,2,0,0,1-.52-1.44,2.25,2.25,0,0,1,.56-1.59,2,2,0,0,1,1.51-.6,2.06,2.06,0,0,1,.93.2v.66a1.6,1.6,0,0,0-.95-.32,1.28,1.28,0,0,0-1,.44,1.87,1.87,0,0,0,0,2.27,1.28,1.28,0,0,0,1,.4,1.58,1.58,0,0,0,1-.35Z"/><path d="M20.23,32.06a.74.74,0,0,0-.48-.13.84.84,0,0,0-.69.38,1.83,1.83,0,0,0-.27,1.06v2h-.64v-4h.64v.82h0a1.4,1.4,0,0,1,.42-.66,1,1,0,0,1,.63-.23,1,1,0,0,1,.38.05Z"/><path d="M24.14,33.57H21.32a1.49,1.49,0,0,0,.36,1,1.24,1.24,0,0,0,.94.36,2,2,0,0,0,1.24-.44v.6a2.34,2.34,0,0,1-1.39.38A1.68,1.68,0,0,1,21.14,35a2.23,2.23,0,0,1-.49-1.54,2.2,2.2,0,0,1,.53-1.52,1.72,1.72,0,0,1,1.32-.59,1.49,1.49,0,0,1,1.21.51,2.1,2.1,0,0,1,.43,1.41ZM23.49,33a1.38,1.38,0,0,0-.27-.86.94.94,0,0,0-.73-.31,1,1,0,0,0-.77.33,1.35,1.35,0,0,0-.39.84Z"/><path d="M27,35.37a1.31,1.31,0,0,1-.6.12q-1.05,0-1.05-1.17V32h-.69v-.54h.69v-1l.64-.21v1.19h1V32H26v2.26a.92.92,0,0,0,.13.57.56.56,0,0,0,.46.17.68.68,0,0,0,.42-.13Z"/><path d="M5.84,112.35v-.77a1.48,1.48,0,0,0,.32.21,2.27,2.27,0,0,0,.39.16,3.06,3.06,0,0,0,.41.1l.38,0a1.51,1.51,0,0,0,.91-.22.77.77,0,0,0,.3-.65.81.81,0,0,0-.1-.39,1.16,1.16,0,0,0-.28-.31,2.23,2.23,0,0,0-.41-.26L7.24,110l-.55-.3a2.56,2.56,0,0,1-.44-.34,1.46,1.46,0,0,1-.29-.41,1.2,1.2,0,0,1-.11-.55,1.24,1.24,0,0,1,.17-.67,1.48,1.48,0,0,1,.44-.46,2.06,2.06,0,0,1,.62-.28,2.82,2.82,0,0,1,.71-.09,2.75,2.75,0,0,1,1.21.2v.74a2.16,2.16,0,0,0-1.27-.34,2,2,0,0,0-.43,0,1.08,1.08,0,0,0-.38.15.78.78,0,0,0-.28.26.71.71,0,0,0-.1.39.72.72,0,0,0,.08.37.89.89,0,0,0,.23.29,3.13,3.13,0,0,0,.38.25l.52.26c.2.1.39.21.57.32a2.53,2.53,0,0,1,.47.36,1.54,1.54,0,0,1,.33.44,1.25,1.25,0,0,1,.12.56,1.39,1.39,0,0,1-.17.7,1.26,1.26,0,0,1-.43.46,1.92,1.92,0,0,1-.64.26,3.11,3.11,0,0,1-.76.08,2,2,0,0,1-.32,0,2.57,2.57,0,0,1-.4-.06l-.39-.1A1.12,1.12,0,0,1,5.84,112.35Z"/><path d="M13.48,110.74H10.66a1.47,1.47,0,0,0,.36,1,1.24,1.24,0,0,0,.94.36,1.92,1.92,0,0,0,1.24-.44v.6a2.27,2.27,0,0,1-1.39.38,1.68,1.68,0,0,1-1.33-.54A2.2,2.2,0,0,1,10,110.6a2.22,2.22,0,0,1,.53-1.53,1.71,1.71,0,0,1,1.32-.58,1.51,1.51,0,0,1,1.21.5,2.1,2.1,0,0,1,.43,1.41Zm-.65-.54a1.41,1.41,0,0,0-.27-.87.93.93,0,0,0-.73-.3,1,1,0,0,0-.77.32,1.38,1.38,0,0,0-.39.85Z"/><path d="M17.18,112.4a2.16,2.16,0,0,1-1.1.27,1.81,1.81,0,0,1-1.38-.55,2,2,0,0,1-.52-1.45,2.23,2.23,0,0,1,.56-1.58,2,2,0,0,1,1.51-.6,2.06,2.06,0,0,1,.93.19v.66a1.59,1.59,0,0,0-.95-.31,1.27,1.27,0,0,0-1,.43,1.65,1.65,0,0,0-.4,1.16,1.62,1.62,0,0,0,.37,1.11,1.28,1.28,0,0,0,1,.4,1.63,1.63,0,0,0,1-.34Z"/><path d="M20.23,109.23a.74.74,0,0,0-.48-.13.82.82,0,0,0-.69.39,1.79,1.79,0,0,0-.27,1.05v2h-.64v-4h.64v.82h0a1.32,1.32,0,0,1,.42-.65,1,1,0,0,1,.63-.24,1.2,1.2,0,0,1,.38,0Z"/><path d="M24.14,110.74H21.32a1.47,1.47,0,0,0,.36,1,1.24,1.24,0,0,0,.94.36,1.92,1.92,0,0,0,1.24-.44v.6a2.27,2.27,0,0,1-1.39.38,1.68,1.68,0,0,1-1.33-.54,2.2,2.2,0,0,1-.49-1.53,2.22,2.22,0,0,1,.53-1.53,1.71,1.71,0,0,1,1.32-.58,1.51,1.51,0,0,1,1.21.5,2.1,2.1,0,0,1,.43,1.41Zm-.65-.54a1.41,1.41,0,0,0-.27-.87.93.93,0,0,0-.73-.3,1,1,0,0,0-.77.32,1.38,1.38,0,0,0-.39.85Z"/><path d="M27,112.54a1.3,1.3,0,0,1-.6.13c-.7,0-1.05-.39-1.05-1.18v-2.36h-.69v-.55h.69v-1l.64-.2v1.18h1v.55H26v2.25a1,1,0,0,0,.13.58.59.59,0,0,0,.46.17A.68.68,0,0,0,27,112Z"/><path d="M5.84,183.15v-.77a3,3,0,0,0,.32.21,2.26,2.26,0,0,0,.39.15,2,2,0,0,0,.41.1,1.82,1.82,0,0,0,.38,0,1.5,1.5,0,0,0,.91-.23.75.75,0,0,0,.3-.64.88.88,0,0,0-.1-.4,1.13,1.13,0,0,0-.28-.3,2.24,2.24,0,0,0-.41-.27l-.52-.27-.55-.3a2.53,2.53,0,0,1-.44-.33,1.5,1.5,0,0,1-.29-.42,1.16,1.16,0,0,1-.11-.54,1.22,1.22,0,0,1,.17-.67,1.52,1.52,0,0,1,.44-.47,2,2,0,0,1,.62-.27,2.82,2.82,0,0,1,.71-.09,2.75,2.75,0,0,1,1.21.2v.74a2.17,2.17,0,0,0-1.27-.35,2,2,0,0,0-.43,0,1.31,1.31,0,0,0-.38.14.81.81,0,0,0-.28.27.67.67,0,0,0-.1.39.75.75,0,0,0,.08.37.86.86,0,0,0,.23.28,2.27,2.27,0,0,0,.38.25l.52.27c.2.1.39.2.57.31a2.53,2.53,0,0,1,.47.36,1.73,1.73,0,0,1,.33.45,1.2,1.2,0,0,1,.12.55,1.37,1.37,0,0,1-.17.7,1.29,1.29,0,0,1-.43.47,1.92,1.92,0,0,1-.64.26,3.69,3.69,0,0,1-.76.08l-.32,0-.4-.07a2.22,2.22,0,0,1-.39-.1A1.13,1.13,0,0,1,5.84,183.15Z"/><path d="M13.48,181.54H10.66a1.51,1.51,0,0,0,.36,1,1.24,1.24,0,0,0,.94.36,1.93,1.93,0,0,0,1.24-.45v.61a2.34,2.34,0,0,1-1.39.38,1.66,1.66,0,0,1-1.33-.55,2.54,2.54,0,0,1,0-3,1.72,1.72,0,0,1,1.32-.59,1.49,1.49,0,0,1,1.21.51,2.1,2.1,0,0,1,.43,1.41Zm-.65-.55a1.36,1.36,0,0,0-.27-.86.9.9,0,0,0-.73-.31,1,1,0,0,0-.77.32,1.38,1.38,0,0,0-.39.85Z"/><path d="M17.18,183.19a2.07,2.07,0,0,1-1.1.28,1.82,1.82,0,0,1-1.38-.56,2,2,0,0,1-.52-1.44,2.25,2.25,0,0,1,.56-1.59,2,2,0,0,1,1.51-.6,2.06,2.06,0,0,1,.93.2v.65a1.59,1.59,0,0,0-.95-.31,1.28,1.28,0,0,0-1,.44,1.85,1.85,0,0,0,0,2.26,1.29,1.29,0,0,0,1,.41,1.64,1.64,0,0,0,1-.35Z"/><path d="M20.23,180a.81.81,0,0,0-.48-.13.82.82,0,0,0-.69.39,1.83,1.83,0,0,0-.27,1.06v2h-.64v-4h.64v.82h0a1.4,1.4,0,0,1,.42-.66,1,1,0,0,1,.63-.24.94.94,0,0,1,.38.06Z"/><path d="M24.14,181.54H21.32a1.51,1.51,0,0,0,.36,1,1.24,1.24,0,0,0,.94.36,1.93,1.93,0,0,0,1.24-.45v.61a2.34,2.34,0,0,1-1.39.38,1.66,1.66,0,0,1-1.33-.55,2.54,2.54,0,0,1,0-3,1.72,1.72,0,0,1,1.32-.59,1.49,1.49,0,0,1,1.21.51,2.1,2.1,0,0,1,.43,1.41Zm-.65-.55a1.36,1.36,0,0,0-.27-.86.9.9,0,0,0-.73-.31,1,1,0,0,0-.77.32,1.38,1.38,0,0,0-.39.85Z"/><path d="M27,183.34a1.31,1.31,0,0,1-.6.12q-1.05,0-1.05-1.17v-2.37h-.69v-.54h.69v-1l.64-.21v1.19h1v.54H26v2.26a.94.94,0,0,0,.13.57.56.56,0,0,0,.46.17.68.68,0,0,0,.42-.13Z"/><path d="M45.26,193.3h-.73l-.59-1.57H41.56L41,193.3h-.73l2.14-5.6h.68Zm-1.54-2.16-.87-2.39a2.21,2.21,0,0,1-.09-.37h0a1.43,1.43,0,0,1-.09.37l-.87,2.39Z"/><path d="M46.74,191.18v2.12h-.66v-5.6h1.54a2.06,2.06,0,0,1,1.4.43,1.57,1.57,0,0,1,.49,1.24,1.68,1.68,0,0,1-.55,1.3,2.08,2.08,0,0,1-1.48.51Zm0-2.89v2.3h.69a1.54,1.54,0,0,0,1-.31,1.1,1.1,0,0,0,.36-.88c0-.74-.44-1.11-1.31-1.11Z"/><path d="M51.22,193.3h-.66v-5.6h.66Z"/><path d="M59.84,189.3l-1.2,4H58l-.82-2.87a1.91,1.91,0,0,1-.06-.37h0a1.66,1.66,0,0,1-.08.37l-.89,2.87h-.64l-1.22-4h.68l.82,3a1.68,1.68,0,0,1,.06.36h0a1.75,1.75,0,0,1,.07-.36l.92-3h.59l.83,3a2.84,2.84,0,0,1,0,.36h0a1.34,1.34,0,0,1,.06-.36l.82-3Z"/><path d="M63.79,191.46H61a1.49,1.49,0,0,0,.36,1,1.24,1.24,0,0,0,1,.36,2,2,0,0,0,1.24-.44v.6a2.37,2.37,0,0,1-1.4.38,1.7,1.7,0,0,1-1.33-.54,2.27,2.27,0,0,1-.48-1.54,2.15,2.15,0,0,1,.53-1.52,1.7,1.7,0,0,1,1.31-.59,1.52,1.52,0,0,1,1.22.51,2.16,2.16,0,0,1,.42,1.41Zm-.65-.55a1.27,1.27,0,0,0-.27-.86.89.89,0,0,0-.73-.31,1,1,0,0,0-.77.33,1.44,1.44,0,0,0-.39.84Z"/><path d="M65.42,192.72h0v.58h-.64v-5.92h.64V190h0a1.52,1.52,0,0,1,1.38-.8,1.46,1.46,0,0,1,1.21.54,2.23,2.23,0,0,1,.43,1.44,2.53,2.53,0,0,1-.48,1.61,1.65,1.65,0,0,1-1.34.6A1.31,1.31,0,0,1,65.42,192.72Zm0-1.61v.55a1.19,1.19,0,0,0,.33.85,1,1,0,0,0,.81.34,1.1,1.1,0,0,0,.92-.44,2.05,2.05,0,0,0,.33-1.24,1.64,1.64,0,0,0-.31-1,1,1,0,0,0-.84-.38,1.14,1.14,0,0,0-.9.39A1.46,1.46,0,0,0,65.4,191.11Z"/><path d="M75.07,193.3h-.64v-.68h0a1.61,1.61,0,0,1-2.58.23,2.18,2.18,0,0,1-.46-1.46,2.42,2.42,0,0,1,.5-1.59,1.66,1.66,0,0,1,1.34-.6,1.29,1.29,0,0,1,1.2.65h0v-2.47h.64Zm-.64-1.81v-.59a1.16,1.16,0,0,0-.32-.82,1,1,0,0,0-.81-.34,1.09,1.09,0,0,0-.92.43,1.85,1.85,0,0,0-.34,1.19,1.72,1.72,0,0,0,.32,1.09,1.06,1.06,0,0,0,.87.4,1.08,1.08,0,0,0,.87-.39A1.43,1.43,0,0,0,74.43,191.49Z"/><path d="M79.6,193.3H79v-.64h0a1.32,1.32,0,0,1-1.24.73c-.95,0-1.43-.57-1.43-1.7V189.3h.64v2.29c0,.84.32,1.26,1,1.26a1,1,0,0,0,.77-.34,1.35,1.35,0,0,0,.3-.91v-2.3h.64Z"/><path d="M86.5,193.3h-.64v-.68h0a1.61,1.61,0,0,1-2.58.23,2.13,2.13,0,0,1-.46-1.46,2.42,2.42,0,0,1,.5-1.59,1.66,1.66,0,0,1,1.34-.6,1.29,1.29,0,0,1,1.2.65h0v-2.47h.64Zm-.64-1.81v-.59a1.16,1.16,0,0,0-.32-.82,1,1,0,0,0-.81-.34,1.09,1.09,0,0,0-.92.43,1.85,1.85,0,0,0-.34,1.19,1.72,1.72,0,0,0,.32,1.09,1.06,1.06,0,0,0,.87.4,1.1,1.1,0,0,0,.87-.39A1.43,1.43,0,0,0,85.86,191.49Z"/><path d="M91,191.46H88.19a1.49,1.49,0,0,0,.36,1,1.24,1.24,0,0,0,.94.36,2,2,0,0,0,1.25-.44v.6a2.39,2.39,0,0,1-1.4.38,1.7,1.7,0,0,1-1.33-.54,2.27,2.27,0,0,1-.48-1.54,2.19,2.19,0,0,1,.52-1.52,1.73,1.73,0,0,1,1.32-.59,1.49,1.49,0,0,1,1.21.51,2.1,2.1,0,0,1,.43,1.41Zm-.65-.55a1.32,1.32,0,0,0-.27-.86.9.9,0,0,0-.73-.31,1,1,0,0,0-.77.33,1.44,1.44,0,0,0-.39.84Zm-.1-3.65-1,1.28h-.49l.87-1.28Z"/><path d="M97.66,193.3H97V191a1.81,1.81,0,0,0-.2-1,.78.78,0,0,0-.69-.3.85.85,0,0,0-.7.38,1.45,1.45,0,0,0-.29.9v2.28H94.5v-2.38c0-.79-.3-1.18-.91-1.18a.83.83,0,0,0-.69.36,1.4,1.4,0,0,0-.28.92v2.28H92v-4h.64v.63h0a1.37,1.37,0,0,1,1.24-.73,1.21,1.21,0,0,1,.72.23,1.11,1.11,0,0,1,.41.6,1.44,1.44,0,0,1,1.33-.83c.88,0,1.32.55,1.32,1.63Z"/><path d="M100.54,193.39a1.85,1.85,0,0,1-1.41-.56,2.09,2.09,0,0,1-.53-1.49,2.15,2.15,0,0,1,.55-1.57,2,2,0,0,1,1.49-.57,1.84,1.84,0,0,1,1.4.55,2.22,2.22,0,0,1,.5,1.53,2.13,2.13,0,0,1-.54,1.53A1.89,1.89,0,0,1,100.54,193.39Zm0-3.65a1.19,1.19,0,0,0-1,.42,1.73,1.73,0,0,0-.36,1.16,1.64,1.64,0,0,0,.36,1.12,1.25,1.25,0,0,0,1,.41,1.18,1.18,0,0,0,1-.4,2.17,2.17,0,0,0,0-2.3A1.18,1.18,0,0,0,100.59,189.74Z"/><path d="M106.88,193.3h-.64V191c0-.85-.31-1.28-.93-1.28a1,1,0,0,0-.79.36,1.36,1.36,0,0,0-.32.92v2.28h-.64v-4h.64V190h0a1.45,1.45,0,0,1,1.31-.76,1.19,1.19,0,0,1,1,.43,1.83,1.83,0,0,1,.35,1.22Z"/><path d="M185.88,115.82h-.73l-.59-1.57h-2.38l-.56,1.57h-.73l2.15-5.6h.68Zm-1.54-2.16-.88-2.38c0-.08-.05-.21-.08-.38h0a1.52,1.52,0,0,1-.09.38l-.87,2.38Z"/><path d="M187.27,115.24h0v2.42h-.64v-5.84h.64v.71h0a1.51,1.51,0,0,1,1.39-.8,1.46,1.46,0,0,1,1.2.54,2.19,2.19,0,0,1,.44,1.44,2.5,2.5,0,0,1-.49,1.6,1.64,1.64,0,0,1-1.34.61A1.34,1.34,0,0,1,187.27,115.24Zm0-1.61v.56a1.16,1.16,0,0,0,.32.84,1.14,1.14,0,0,0,1.73-.1,2.05,2.05,0,0,0,.33-1.24,1.57,1.57,0,0,0-.31-1,1,1,0,0,0-.83-.38,1.12,1.12,0,0,0-.9.39A1.4,1.4,0,0,0,187.26,113.63Z"/><path d="M192,115.24h0v2.42h-.64v-5.84H192v.71h0a1.61,1.61,0,0,1,2.59-.26,2.25,2.25,0,0,1,.43,1.44,2.45,2.45,0,0,1-.49,1.6,1.63,1.63,0,0,1-1.34.61A1.33,1.33,0,0,1,192,115.24Zm0-1.61v.56a1.2,1.2,0,0,0,.32.84,1.09,1.09,0,0,0,.82.35,1.06,1.06,0,0,0,.91-.45,2.05,2.05,0,0,0,.33-1.24,1.57,1.57,0,0,0-.31-1,1,1,0,0,0-.83-.38,1.14,1.14,0,0,0-.9.39A1.4,1.4,0,0,0,192,113.63Z"/><path d="M196.66,115.82H196V109.9h.64Z"/><path d="M198.29,110.81a.38.38,0,0,1-.29-.12.41.41,0,0,1,0-.6.38.38,0,0,1,.29-.12.42.42,0,0,1,.3.12.41.41,0,0,1,.12.3.41.41,0,0,1-.42.42Zm.31,5H198v-4h.64Z"/><path d="M202.62,115.64a2.1,2.1,0,0,1-1.09.28,1.82,1.82,0,0,1-1.38-.56,2,2,0,0,1-.53-1.44,2.21,2.21,0,0,1,.57-1.59,2,2,0,0,1,1.51-.6,2.12,2.12,0,0,1,.93.19v.66a1.61,1.61,0,0,0-.95-.31,1.27,1.27,0,0,0-1,.44,1.65,1.65,0,0,0-.39,1.15,1.57,1.57,0,0,0,.37,1.11,1.29,1.29,0,0,0,1,.41,1.59,1.59,0,0,0,1-.35Z"/><path d="M206.46,115.82h-.64v-.62h0a1.46,1.46,0,0,1-2.17.4,1.11,1.11,0,0,1-.33-.84c0-.75.44-1.18,1.32-1.3l1.2-.17c0-.68-.28-1-.83-1a2,2,0,0,0-1.3.49v-.66a2.45,2.45,0,0,1,1.36-.37c.94,0,1.41.5,1.41,1.49Zm-.64-2-1,.13a1.59,1.59,0,0,0-.67.22.64.64,0,0,0-.23.56.6.6,0,0,0,.21.48.84.84,0,0,0,.56.19,1,1,0,0,0,.78-.34,1.17,1.17,0,0,0,.32-.84Z"/><path d="M209.52,115.78a1.16,1.16,0,0,1-.6.13q-1,0-1-1.17v-2.37h-.69v-.55h.69v-1l.64-.21v1.18h1v.55h-1v2.25a1,1,0,0,0,.14.58.55.55,0,0,0,.45.17.75.75,0,0,0,.42-.13Z"/><path d="M210.7,110.81a.4.4,0,0,1-.29-.12.44.44,0,0,1,0-.6.4.4,0,0,1,.29-.12.41.41,0,0,1,.42.42.42.42,0,0,1-.12.3A.41.41,0,0,1,210.7,110.81Zm.31,5h-.64v-4H211Z"/><path d="M214,115.92a1.85,1.85,0,0,1-1.41-.56,2.06,2.06,0,0,1-.53-1.49,2.17,2.17,0,0,1,.55-1.58,2,2,0,0,1,1.49-.56,1.77,1.77,0,0,1,1.39.55,2.18,2.18,0,0,1,.51,1.53,2.11,2.11,0,0,1-.55,1.53A1.9,1.9,0,0,1,214,115.92Zm.05-3.65a1.23,1.23,0,0,0-1,.42,1.71,1.71,0,0,0-.36,1.16,1.66,1.66,0,0,0,.37,1.12,1.23,1.23,0,0,0,1,.41,1.2,1.2,0,0,0,1-.41,1.74,1.74,0,0,0,.33-1.14,1.8,1.8,0,0,0-.33-1.16A1.19,1.19,0,0,0,214,112.27Z"/><path d="M220.32,115.82h-.64v-2.28c0-.85-.31-1.27-.93-1.27a1,1,0,0,0-.8.36,1.37,1.37,0,0,0-.31.91v2.28H217v-4h.64v.67h0a1.43,1.43,0,0,1,1.31-.76,1.22,1.22,0,0,1,1,.42,1.9,1.9,0,0,1,.35,1.23Z"/><path d="M184.84,125.42h-.64v-.68h0a1.47,1.47,0,0,1-1.37.78,1.49,1.49,0,0,1-1.21-.54,2.22,2.22,0,0,1-.45-1.46,2.38,2.38,0,0,1,.5-1.59,1.64,1.64,0,0,1,1.33-.6,1.27,1.27,0,0,1,1.2.65h0V119.5h.64Zm-.64-1.81V123a1.17,1.17,0,0,0-.32-.82,1.19,1.19,0,0,0-1.74.1,1.88,1.88,0,0,0-.33,1.18,1.68,1.68,0,0,0,.32,1.1,1.06,1.06,0,0,0,.86.4,1.08,1.08,0,0,0,.87-.39A1.41,1.41,0,0,0,184.2,123.61Z"/><path d="M189.56,123.58h-2.83a1.47,1.47,0,0,0,.36,1,1.23,1.23,0,0,0,.95.37,2,2,0,0,0,1.24-.45v.6a2.29,2.29,0,0,1-1.39.39,1.73,1.73,0,0,1-1.34-.55,2.23,2.23,0,0,1-.48-1.53,2.2,2.2,0,0,1,.53-1.52,1.66,1.66,0,0,1,1.31-.59,1.51,1.51,0,0,1,1.22.51,2.07,2.07,0,0,1,.43,1.41Zm-.66-.54a1.25,1.25,0,0,0-.27-.86.89.89,0,0,0-.73-.31,1.06,1.06,0,0,0-.77.32,1.5,1.5,0,0,0-.39.85Z"/><path d="M193.77,125.42h-.64V119.5h.64Z"/><path d="M196.07,119.73l-.55,1.74h-.46l.43-1.74Z"/><path d="M201.74,125.42H201l-.59-1.57h-2.37l-.56,1.57h-.73l2.15-5.6h.67Zm-1.53-2.16-.88-2.38a2.39,2.39,0,0,1-.09-.38h0a3.63,3.63,0,0,1-.09.38l-.88,2.38Z"/><path d="M203.43,123.3v2.12h-.66v-5.6h1.54a2.06,2.06,0,0,1,1.4.44,1.55,1.55,0,0,1,.49,1.23,1.7,1.7,0,0,1-.55,1.31,2.07,2.07,0,0,1-1.48.5Zm0-2.89v2.3h.69a1.49,1.49,0,0,0,1-.31,1.1,1.1,0,0,0,.36-.88c0-.74-.44-1.11-1.31-1.11Z"/><path d="M208.12,125.42h-.66v-5.6h.66Z"/><path d="M215.53,125.42h-.64v-.68h0a1.47,1.47,0,0,1-1.37.78,1.49,1.49,0,0,1-1.21-.54,2.22,2.22,0,0,1-.45-1.46,2.38,2.38,0,0,1,.5-1.59,1.64,1.64,0,0,1,1.33-.6,1.27,1.27,0,0,1,1.2.65h0V119.5h.64Zm-.64-1.81V123a1.17,1.17,0,0,0-.32-.82,1.19,1.19,0,0,0-1.74.1,1.88,1.88,0,0,0-.33,1.18,1.68,1.68,0,0,0,.32,1.1,1.06,1.06,0,0,0,.86.4,1.08,1.08,0,0,0,.87-.39A1.46,1.46,0,0,0,214.89,123.61Z"/><path d="M220.27,125.42h-.64v-.63h0a1.33,1.33,0,0,1-1.23.73c-1,0-1.43-.57-1.43-1.71v-2.39h.63v2.29c0,.84.33,1.27,1,1.27a1,1,0,0,0,.77-.35,1.33,1.33,0,0,0,.31-.9v-2.31h.64Z"/><path d="M192.41,135h-.65v-.68h0a1.61,1.61,0,0,1-2.58.24,2.22,2.22,0,0,1-.45-1.46,2.33,2.33,0,0,1,.5-1.59,1.64,1.64,0,0,1,1.33-.6,1.27,1.27,0,0,1,1.2.65h0V129.1h.65Zm-.65-1.81v-.59a1.13,1.13,0,0,0-.32-.82,1.07,1.07,0,0,0-.81-.33,1.09,1.09,0,0,0-.92.43,1.88,1.88,0,0,0-.34,1.18,1.68,1.68,0,0,0,.33,1.1,1.06,1.06,0,0,0,.86.4,1.08,1.08,0,0,0,.87-.39A1.45,1.45,0,0,0,191.76,133.21Z"/><path d="M196.92,133.18h-2.83a1.47,1.47,0,0,0,.36,1,1.23,1.23,0,0,0,1,.37,2,2,0,0,0,1.24-.45v.6a2.29,2.29,0,0,1-1.39.39,1.73,1.73,0,0,1-1.34-.55,2.23,2.23,0,0,1-.48-1.53,2.2,2.2,0,0,1,.53-1.52,1.66,1.66,0,0,1,1.31-.59,1.51,1.51,0,0,1,1.22.51,2.14,2.14,0,0,1,.43,1.41Zm-.66-.54a1.25,1.25,0,0,0-.27-.86.89.89,0,0,0-.73-.31,1.06,1.06,0,0,0-.77.32,1.5,1.5,0,0,0-.39.85Zm-.1-3.66-1,1.28h-.5l.87-1.28Z"/><path d="M203.57,135h-.65v-2.29a1.73,1.73,0,0,0-.2-1,.8.8,0,0,0-.69-.29.86.86,0,0,0-.7.37,1.44,1.44,0,0,0-.28.9V135h-.64v-2.37c0-.79-.31-1.18-.91-1.18a.82.82,0,0,0-.7.35,1.48,1.48,0,0,0-.27.92V135h-.64v-4h.64v.64h0a1.36,1.36,0,0,1,1.24-.73,1.11,1.11,0,0,1,.72.23,1.18,1.18,0,0,1,.42.6,1.41,1.41,0,0,1,1.33-.83c.88,0,1.32.54,1.32,1.63Z"/><path d="M206.45,135.12a1.89,1.89,0,0,1-1.42-.56,2.1,2.1,0,0,1-.53-1.49,2.17,2.17,0,0,1,.55-1.57,2,2,0,0,1,1.49-.57,1.79,1.79,0,0,1,1.4.55,2.22,2.22,0,0,1,.5,1.53,2.15,2.15,0,0,1-.54,1.53A1.9,1.9,0,0,1,206.45,135.12Zm.05-3.65a1.21,1.21,0,0,0-1,.42,1.71,1.71,0,0,0-.36,1.16,1.66,1.66,0,0,0,.36,1.12,1.25,1.25,0,0,0,1,.41,1.16,1.16,0,0,0,.95-.41,1.74,1.74,0,0,0,.33-1.14,1.8,1.8,0,0,0-.33-1.16A1.16,1.16,0,0,0,206.5,131.47Z"/><path d="M212.78,135h-.64v-2.28c0-.85-.31-1.27-.93-1.27a1,1,0,0,0-.79.36,1.33,1.33,0,0,0-.32.91V135h-.64v-4h.64v.67h0a1.43,1.43,0,0,1,1.31-.76,1.24,1.24,0,0,1,1,.42,1.9,1.9,0,0,1,.34,1.23Z"/><path d="M52.47,115.26h-.73l-.59-1.57H48.77l-.56,1.57h-.73l2.15-5.61h.68Zm-1.54-2.16-.88-2.39a2.36,2.36,0,0,1-.08-.38h0a1.41,1.41,0,0,1-.09.38L49,113.1Z"/><path d="M53.62,114.68h0v2.42H53v-5.84h.64v.7h0a1.53,1.53,0,0,1,1.38-.8,1.46,1.46,0,0,1,1.21.54,2.23,2.23,0,0,1,.44,1.44,2.53,2.53,0,0,1-.49,1.61,1.64,1.64,0,0,1-1.34.6A1.33,1.33,0,0,1,53.62,114.68Zm0-1.62v.56a1.16,1.16,0,0,0,.32.84,1,1,0,0,0,.82.35,1.09,1.09,0,0,0,.91-.44,2.05,2.05,0,0,0,.33-1.24,1.58,1.58,0,0,0-.31-1,1,1,0,0,0-.84-.38,1.11,1.11,0,0,0-.89.39A1.4,1.4,0,0,0,53.61,113.06Z"/><path d="M58.08,114.68h0v2.42h-.64v-5.84h.64v.7h0a1.53,1.53,0,0,1,1.39-.8,1.44,1.44,0,0,1,1.2.54,2.23,2.23,0,0,1,.44,1.44,2.47,2.47,0,0,1-.49,1.61,1.64,1.64,0,0,1-1.34.6A1.35,1.35,0,0,1,58.08,114.68Zm0-1.62v.56a1.2,1.2,0,0,0,.32.84,1.05,1.05,0,0,0,.82.35,1.08,1.08,0,0,0,.91-.44,2.05,2.05,0,0,0,.33-1.24,1.58,1.58,0,0,0-.31-1,1,1,0,0,0-.83-.38,1.14,1.14,0,0,0-.9.39A1.4,1.4,0,0,0,58.07,113.06Z"/><path d="M62.53,115.26h-.64v-5.93h.64Z"/><path d="M63.92,110.24a.42.42,0,0,1-.3-.12.38.38,0,0,1-.12-.29.41.41,0,0,1,.12-.3.42.42,0,0,1,.3-.12.44.44,0,0,1,.3.12.41.41,0,0,1,.12.3.4.4,0,0,1-.12.29A.44.44,0,0,1,63.92,110.24Zm.31,5h-.64v-4h.64Z"/><path d="M68,115.07a2,2,0,0,1-1.09.28,1.82,1.82,0,0,1-1.38-.56,2,2,0,0,1-.53-1.44,2.21,2.21,0,0,1,.57-1.59,2,2,0,0,1,1.51-.6,2.12,2.12,0,0,1,.93.2V112a1.61,1.61,0,0,0-1-.31,1.3,1.3,0,0,0-1,.44,1.67,1.67,0,0,0-.39,1.15A1.57,1.57,0,0,0,66,114.4a1.26,1.26,0,0,0,1,.41,1.59,1.59,0,0,0,1-.35Z"/><path d="M71.61,115.26H71v-.63h0a1.46,1.46,0,0,1-2.17.4,1.11,1.11,0,0,1-.33-.84c0-.74.44-1.18,1.32-1.3l1.19-.17c0-.68-.27-1-.82-1a2,2,0,0,0-1.3.49v-.65a2.46,2.46,0,0,1,1.36-.38c.94,0,1.41.5,1.41,1.49Zm-.65-2-1,.14a1.46,1.46,0,0,0-.67.22.72.72,0,0,0,0,1,.84.84,0,0,0,.56.18,1,1,0,0,0,.78-.33,1.2,1.2,0,0,0,.31-.85Z"/><path d="M74.43,115.22a1.28,1.28,0,0,1-.6.12q-1,0-1-1.17V111.8h-.69v-.54h.69v-1l.64-.21v1.19h1v.54h-1v2.26a.93.93,0,0,0,.14.57.52.52,0,0,0,.45.17.68.68,0,0,0,.42-.13Z"/><path d="M75.37,110.24a.4.4,0,0,1-.29-.12.38.38,0,0,1-.12-.29.41.41,0,0,1,.12-.3.4.4,0,0,1,.29-.12.41.41,0,0,1,.42.42.4.4,0,0,1-.12.29A.41.41,0,0,1,75.37,110.24Zm.31,5H75v-4h.64Z"/><path d="M78.41,115.35a1.85,1.85,0,0,1-1.41-.56,2,2,0,0,1-.53-1.49,2.15,2.15,0,0,1,.55-1.57,2,2,0,0,1,1.49-.57,1.81,1.81,0,0,1,1.39.55,2.17,2.17,0,0,1,.5,1.53,2.13,2.13,0,0,1-.54,1.53A1.87,1.87,0,0,1,78.41,115.35Zm0-3.65a1.23,1.23,0,0,0-1,.42,1.73,1.73,0,0,0-.36,1.16,1.59,1.59,0,0,0,.37,1.12,1.23,1.23,0,0,0,1,.41,1.16,1.16,0,0,0,1-.4,2.11,2.11,0,0,0,0-2.3A1.16,1.16,0,0,0,78.46,111.7Z"/><path d="M84.51,115.26h-.64V113c0-.84-.31-1.27-.93-1.27a1,1,0,0,0-.8.36,1.34,1.34,0,0,0-.31.91v2.29h-.64v-4h.64v.66h0a1.45,1.45,0,0,1,1.32-.76,1.21,1.21,0,0,1,1,.43,1.89,1.89,0,0,1,.35,1.22Z"/><path d="M90.84,115.26H90.2v-.68h0a1.5,1.5,0,0,1-1.38.77,1.52,1.52,0,0,1-1.21-.54,2.2,2.2,0,0,1-.45-1.46,2.42,2.42,0,0,1,.5-1.59,1.66,1.66,0,0,1,1.34-.6,1.29,1.29,0,0,1,1.2.65h0v-2.48h.64Zm-.64-1.81v-.59a1.14,1.14,0,0,0-.32-.82,1,1,0,0,0-.81-.34,1.09,1.09,0,0,0-.92.43,1.85,1.85,0,0,0-.34,1.19,1.72,1.72,0,0,0,.32,1.09,1.06,1.06,0,0,0,.87.4,1.11,1.11,0,0,0,.87-.39A1.43,1.43,0,0,0,90.2,113.45Z"/><path d="M95.11,113.42H92.29a1.49,1.49,0,0,0,.36,1,1.24,1.24,0,0,0,.94.36,2,2,0,0,0,1.25-.44v.6a2.39,2.39,0,0,1-1.4.38,1.67,1.67,0,0,1-1.33-.55,2.23,2.23,0,0,1-.49-1.53,2.2,2.2,0,0,1,.53-1.52,1.72,1.72,0,0,1,1.32-.59,1.49,1.49,0,0,1,1.21.51,2.1,2.1,0,0,1,.43,1.41Zm-.65-.55a1.36,1.36,0,0,0-.27-.86.9.9,0,0,0-.73-.31,1,1,0,0,0-.77.33,1.44,1.44,0,0,0-.39.84Z"/><path d="M42.69,124.28h0v.58H42v-5.93h.64v2.63h0a1.53,1.53,0,0,1,1.39-.8,1.46,1.46,0,0,1,1.2.54,2.23,2.23,0,0,1,.44,1.44,2.53,2.53,0,0,1-.49,1.61,1.64,1.64,0,0,1-1.34.6A1.31,1.31,0,0,1,42.69,124.28Zm0-1.62v.56a1.16,1.16,0,0,0,.32.84,1.14,1.14,0,0,0,1.73-.1,2,2,0,0,0,.33-1.23,1.58,1.58,0,0,0-.31-1,1,1,0,0,0-.83-.38,1.12,1.12,0,0,0-.9.39A1.4,1.4,0,0,0,42.68,122.66Z"/><path d="M49.73,124.86h-.64v-.64h0a1.32,1.32,0,0,1-1.24.73c-1,0-1.43-.57-1.43-1.7v-2.39h.64v2.28c0,.85.32,1.27,1,1.27a1,1,0,0,0,.77-.35,1.32,1.32,0,0,0,.3-.9v-2.3h.64Z"/><path d="M52.87,121.5a.81.81,0,0,0-.48-.12.82.82,0,0,0-.69.38,1.83,1.83,0,0,0-.27,1.06v2h-.64v-4h.64v.82h0a1.4,1.4,0,0,1,.42-.66.94.94,0,0,1,.63-.23,1,1,0,0,1,.38,0Z"/><path d="M56.54,123H53.72a1.51,1.51,0,0,0,.36,1,1.24,1.24,0,0,0,.94.36,2,2,0,0,0,1.25-.45v.61a2.39,2.39,0,0,1-1.4.38,1.67,1.67,0,0,1-1.33-.55,2.23,2.23,0,0,1-.49-1.53,2.2,2.2,0,0,1,.53-1.52,1.73,1.73,0,0,1,1.32-.59,1.49,1.49,0,0,1,1.21.51,2.1,2.1,0,0,1,.43,1.41Zm-.65-.55a1.38,1.38,0,0,0-.27-.86.9.9,0,0,0-.73-.31,1,1,0,0,0-.77.33,1.44,1.44,0,0,0-.39.84Z"/><path d="M60.14,124.86h-.65v-.63h0a1.46,1.46,0,0,1-2.17.4,1.11,1.11,0,0,1-.33-.84c0-.74.44-1.18,1.32-1.3l1.19-.17c0-.68-.27-1-.82-1a1.93,1.93,0,0,0-1.3.49v-.65a2.46,2.46,0,0,1,1.36-.38c.94,0,1.41.5,1.41,1.49Zm-.65-2-1,.13a1.58,1.58,0,0,0-.67.23.63.63,0,0,0-.23.56.59.59,0,0,0,.21.47.79.79,0,0,0,.56.19,1,1,0,0,0,.78-.33,1.2,1.2,0,0,0,.31-.85Z"/><path d="M64.34,124.86H63.7v-.64h0a1.31,1.31,0,0,1-1.23.73c-1,0-1.43-.57-1.43-1.7v-2.39h.63v2.28c0,.85.33,1.27,1,1.27a1,1,0,0,0,.77-.35,1.33,1.33,0,0,0,.31-.9v-2.3h.64Z"/><path d="M70.75,124.86h-.64v-.68h0a1.61,1.61,0,0,1-2.58.23,2.2,2.2,0,0,1-.45-1.46,2.37,2.37,0,0,1,.5-1.59,1.63,1.63,0,0,1,1.33-.6,1.29,1.29,0,0,1,1.2.65h0v-2.48h.64Zm-.64-1.81v-.59a1.1,1.1,0,0,0-.32-.82,1,1,0,0,0-.81-.34,1.09,1.09,0,0,0-.92.43,1.91,1.91,0,0,0-.34,1.19,1.67,1.67,0,0,0,.33,1.09,1,1,0,0,0,.86.4,1.08,1.08,0,0,0,.87-.39A1.43,1.43,0,0,0,70.11,123.05Z"/><path d="M75.05,124.86h-.64v-.64h0a1.31,1.31,0,0,1-1.23.73c-1,0-1.43-.57-1.43-1.7v-2.39h.63v2.28c0,.85.33,1.27,1,1.27a1,1,0,0,0,.77-.35,1.33,1.33,0,0,0,.31-.9v-2.3h.64Z"/><path d="M81.46,124.86h-.64v-.68h0a1.61,1.61,0,0,1-2.58.23,2.2,2.2,0,0,1-.45-1.46,2.37,2.37,0,0,1,.5-1.59,1.63,1.63,0,0,1,1.33-.6,1.29,1.29,0,0,1,1.2.65h0v-2.48h.64Zm-.64-1.81v-.59a1.1,1.1,0,0,0-.32-.82,1,1,0,0,0-.81-.34,1.09,1.09,0,0,0-.92.43,1.91,1.91,0,0,0-.34,1.19,1.67,1.67,0,0,0,.33,1.09,1,1,0,0,0,.86.4,1.08,1.08,0,0,0,.87-.39A1.43,1.43,0,0,0,80.82,123.05Z"/><path d="M85.74,123H82.91a1.51,1.51,0,0,0,.36,1,1.26,1.26,0,0,0,1,.36,2,2,0,0,0,1.24-.45v.61a2.37,2.37,0,0,1-1.4.38,1.69,1.69,0,0,1-1.33-.55,2.23,2.23,0,0,1-.48-1.53,2.15,2.15,0,0,1,.53-1.52,1.7,1.7,0,0,1,1.31-.59,1.51,1.51,0,0,1,1.22.51,2.16,2.16,0,0,1,.43,1.41Zm-.66-.55a1.27,1.27,0,0,0-.27-.86.89.89,0,0,0-.73-.31,1,1,0,0,0-.77.33,1.44,1.44,0,0,0-.39.84Zm-.1-3.65-1,1.28h-.5l.87-1.28Z"/><path d="M92.15,124.86H91.5v-2.3a1.72,1.72,0,0,0-.2-1,.78.78,0,0,0-.69-.3.87.87,0,0,0-.7.38,1.43,1.43,0,0,0-.28.89v2.29H89v-2.38c0-.79-.3-1.18-.91-1.18a.84.84,0,0,0-.69.35,1.5,1.5,0,0,0-.27.92v2.29h-.64v-4h.64v.63h0a1.36,1.36,0,0,1,1.24-.73,1.16,1.16,0,0,1,1.14.83,1.42,1.42,0,0,1,1.32-.83c.89,0,1.33.54,1.33,1.63Z"/><path d="M94.79,125a1.87,1.87,0,0,1-1.42-.56,2.09,2.09,0,0,1-.53-1.49,2.19,2.19,0,0,1,.55-1.57,2,2,0,0,1,1.49-.57,1.83,1.83,0,0,1,1.4.55,2.22,2.22,0,0,1,.5,1.53,2.13,2.13,0,0,1-.54,1.53A1.88,1.88,0,0,1,94.79,125Zm0-3.65a1.21,1.21,0,0,0-1,.42,1.73,1.73,0,0,0-.36,1.16,1.64,1.64,0,0,0,.36,1.12,1.25,1.25,0,0,0,1,.41,1.16,1.16,0,0,0,1-.4,2.17,2.17,0,0,0,0-2.3A1.17,1.17,0,0,0,94.83,121.3Z"/><path d="M100.88,124.86h-.64v-2.29c0-.84-.31-1.27-.93-1.27a1,1,0,0,0-.79.36,1.35,1.35,0,0,0-.32.91v2.29h-.64v-4h.64v.66h0a1.43,1.43,0,0,1,1.31-.76,1.23,1.23,0,0,1,1,.43,1.89,1.89,0,0,1,.34,1.22Z"/><path d="M51.26,40.06h-.73l-.59-1.57H47.56L47,40.06h-.73l2.14-5.6h.68ZM49.73,37.9l-.88-2.38a2.39,2.39,0,0,1-.09-.38h0a1.41,1.41,0,0,1-.09.38l-.87,2.38Z"/><path d="M52.41,39.49h0V41.9h-.64V36.06h.64v.71h0A1.53,1.53,0,0,1,53.8,36a1.44,1.44,0,0,1,1.2.54A2.23,2.23,0,0,1,55.44,38,2.47,2.47,0,0,1,55,39.56a1.64,1.64,0,0,1-1.34.6A1.37,1.37,0,0,1,52.41,39.49Zm0-1.62v.56a1.2,1.2,0,0,0,.32.84,1.09,1.09,0,0,0,.82.35,1.06,1.06,0,0,0,.91-.45,2,2,0,0,0,.33-1.23,1.58,1.58,0,0,0-.31-1,1,1,0,0,0-.83-.38,1.13,1.13,0,0,0-.9.39A1.4,1.4,0,0,0,52.4,37.87Z"/><path d="M56.88,39.49h0V41.9h-.64V36.06h.64v.71h0a1.51,1.51,0,0,1,1.38-.8,1.46,1.46,0,0,1,1.21.54A2.23,2.23,0,0,1,59.9,38a2.47,2.47,0,0,1-.49,1.61,1.62,1.62,0,0,1-1.33.6A1.35,1.35,0,0,1,56.88,39.49Zm0-1.62v.56a1.2,1.2,0,0,0,.32.84,1.15,1.15,0,0,0,1.74-.1,2,2,0,0,0,.33-1.23,1.64,1.64,0,0,0-.31-1,1,1,0,0,0-.84-.38,1.14,1.14,0,0,0-.9.39A1.45,1.45,0,0,0,56.86,37.87Z"/><path d="M61.33,40.06h-.65V34.14h.65Z"/><path d="M62.71,35.05a.41.41,0,0,1-.41-.41.41.41,0,0,1,.12-.3.4.4,0,0,1,.29-.12.41.41,0,0,1,.42.42.4.4,0,0,1-.12.29A.41.41,0,0,1,62.71,35.05Zm.31,5h-.64v-4H63Z"/><path d="M66.81,39.88a2.07,2.07,0,0,1-1.1.28,1.82,1.82,0,0,1-1.38-.56,2,2,0,0,1-.52-1.44,2.25,2.25,0,0,1,.56-1.59,2,2,0,0,1,1.51-.6,2.06,2.06,0,0,1,.93.2v.65a1.59,1.59,0,0,0-1-.31,1.32,1.32,0,0,0-1,.44,1.67,1.67,0,0,0-.39,1.15,1.62,1.62,0,0,0,.37,1.11,1.29,1.29,0,0,0,1,.41,1.64,1.64,0,0,0,1-.35Z"/><path d="M70.4,40.06h-.64v-.62h0a1.34,1.34,0,0,1-1.23.72,1.3,1.3,0,0,1-.93-.32,1.08,1.08,0,0,1-.34-.84c0-.75.44-1.18,1.32-1.3l1.2-.17c0-.68-.28-1-.83-1a2,2,0,0,0-1.3.49v-.65A2.48,2.48,0,0,1,69,36c.94,0,1.41.5,1.41,1.49Zm-.64-2-1,.13a1.63,1.63,0,0,0-.67.23.63.63,0,0,0-.23.56.59.59,0,0,0,.21.47.79.79,0,0,0,.56.19,1,1,0,0,0,.79-.33,1.25,1.25,0,0,0,.31-.85Z"/><path d="M73.22,40a1.28,1.28,0,0,1-.6.12q-1.05,0-1.05-1.17V36.61h-.69v-.55h.69v-1l.64-.21v1.18h1v.55h-1v2.26a.93.93,0,0,0,.14.57.55.55,0,0,0,.45.17.68.68,0,0,0,.42-.13Z"/><path d="M74.16,35.05a.41.41,0,0,1-.41-.41.41.41,0,0,1,.12-.3.4.4,0,0,1,.29-.12.41.41,0,0,1,.3.12.38.38,0,0,1,.13.3.37.37,0,0,1-.13.29A.41.41,0,0,1,74.16,35.05Zm.32,5h-.64v-4h.64Z"/><path d="M77.21,40.16a1.86,1.86,0,0,1-1.42-.56,2.1,2.1,0,0,1-.53-1.49,2.15,2.15,0,0,1,.55-1.57A2,2,0,0,1,77.3,36a1.79,1.79,0,0,1,1.4.55,2.22,2.22,0,0,1,.5,1.53,2.13,2.13,0,0,1-.54,1.53A1.88,1.88,0,0,1,77.21,40.16Zm0-3.65a1.21,1.21,0,0,0-1,.42,1.73,1.73,0,0,0-.36,1.16,1.64,1.64,0,0,0,.36,1.12,1.25,1.25,0,0,0,1,.41,1.18,1.18,0,0,0,1-.4,2.17,2.17,0,0,0,0-2.3A1.18,1.18,0,0,0,77.25,36.51Z"/><path d="M83.3,40.06h-.64V37.78c0-.85-.31-1.27-.93-1.27a1,1,0,0,0-.79.36,1.35,1.35,0,0,0-.32.91v2.28H80v-4h.64v.67h0A1.43,1.43,0,0,1,82,36a1.19,1.19,0,0,1,1,.43,1.83,1.83,0,0,1,.35,1.22Z"/><path d="M91.26,36.06l-1.2,4H89.4l-.83-2.86a1.91,1.91,0,0,1-.06-.37h0a1.18,1.18,0,0,1-.08.36l-.89,2.87h-.64l-1.21-4h.67l.83,3a2.39,2.39,0,0,1,0,.36h0a2,2,0,0,1,.07-.37l.92-3h.59l.83,3q0,.15.06.36h0a1.34,1.34,0,0,1,.06-.36l.82-3Z"/><path d="M95,38.23H92.15a1.51,1.51,0,0,0,.36,1,1.26,1.26,0,0,0,.95.36,2,2,0,0,0,1.24-.45v.61a2.37,2.37,0,0,1-1.4.38A1.67,1.67,0,0,1,92,39.61a2.23,2.23,0,0,1-.48-1.53A2.15,2.15,0,0,1,92,36.56,1.7,1.7,0,0,1,93.33,36a1.52,1.52,0,0,1,1.22.51A2.16,2.16,0,0,1,95,37.89Zm-.66-.55a1.25,1.25,0,0,0-.27-.86.89.89,0,0,0-.73-.31,1.06,1.06,0,0,0-.77.32,1.5,1.5,0,0,0-.39.85Z"/><path d="M96.36,39.49h0v.57h-.64V34.14h.64v2.63h0a1.53,1.53,0,0,1,1.38-.8,1.46,1.46,0,0,1,1.21.54A2.23,2.23,0,0,1,99.38,38a2.53,2.53,0,0,1-.48,1.61,1.64,1.64,0,0,1-1.34.6A1.33,1.33,0,0,1,96.36,39.49Zm0-1.62v.56a1.16,1.16,0,0,0,.32.84,1.14,1.14,0,0,0,1.73-.1,2,2,0,0,0,.33-1.23,1.58,1.58,0,0,0-.31-1,1,1,0,0,0-.84-.38,1.11,1.11,0,0,0-.89.39A1.4,1.4,0,0,0,96.35,37.87Z"/><path d="M59.66,49.67H59V49h0a1.61,1.61,0,0,1-2.58.23A2.2,2.2,0,0,1,56,47.76a2.42,2.42,0,0,1,.5-1.59,1.66,1.66,0,0,1,1.34-.6,1.29,1.29,0,0,1,1.2.65h0V43.74h.64ZM59,47.86v-.59a1.14,1.14,0,0,0-.32-.82,1,1,0,0,0-.81-.34,1.09,1.09,0,0,0-.92.43,1.85,1.85,0,0,0-.34,1.19A1.72,1.72,0,0,0,57,48.82a1.06,1.06,0,0,0,.87.4,1.1,1.1,0,0,0,.87-.39A1.43,1.43,0,0,0,59,47.86Z"/><path d="M64,49.67h-.64V49h0a1.32,1.32,0,0,1-1.24.73c-1,0-1.43-.57-1.43-1.7V45.67h.64V48c0,.85.32,1.27,1,1.27a1,1,0,0,0,.77-.35,1.32,1.32,0,0,0,.3-.9v-2.3H64Z"/><path d="M70.37,49.67h-.64V49h0a1.61,1.61,0,0,1-2.58.23,2.15,2.15,0,0,1-.46-1.46,2.42,2.42,0,0,1,.5-1.59,1.66,1.66,0,0,1,1.34-.6,1.29,1.29,0,0,1,1.2.65h0V43.74h.64Zm-.64-1.81v-.59a1.14,1.14,0,0,0-.32-.82,1,1,0,0,0-.81-.34,1.09,1.09,0,0,0-.92.43,1.85,1.85,0,0,0-.34,1.19,1.72,1.72,0,0,0,.32,1.09,1.06,1.06,0,0,0,.87.4,1.11,1.11,0,0,0,.87-.39A1.43,1.43,0,0,0,69.73,47.86Z"/><path d="M74.64,47.83H71.82a1.51,1.51,0,0,0,.36,1,1.24,1.24,0,0,0,.94.36,2,2,0,0,0,1.25-.45v.61a2.39,2.39,0,0,1-1.4.38,1.67,1.67,0,0,1-1.33-.55,2.23,2.23,0,0,1-.48-1.53,2.19,2.19,0,0,1,.52-1.52A1.73,1.73,0,0,1,73,45.57a1.49,1.49,0,0,1,1.21.51,2.1,2.1,0,0,1,.43,1.41ZM74,47.28a1.3,1.3,0,0,0-.27-.86.9.9,0,0,0-.73-.31,1.06,1.06,0,0,0-.77.32,1.5,1.5,0,0,0-.39.85Zm-.1-3.65-1,1.28h-.49l.87-1.28Z"/><path d="M81.05,49.67h-.64v-2.3a1.78,1.78,0,0,0-.2-1,.78.78,0,0,0-.69-.3.85.85,0,0,0-.7.38,1.42,1.42,0,0,0-.29.89v2.29h-.64V47.29c0-.79-.3-1.18-.91-1.18a.84.84,0,0,0-.69.35,1.44,1.44,0,0,0-.28.92v2.29h-.64v-4H76v.63h0a1.35,1.35,0,0,1,1.24-.73,1.21,1.21,0,0,1,.72.23,1.11,1.11,0,0,1,.41.6,1.44,1.44,0,0,1,1.33-.83c.88,0,1.32.54,1.32,1.63Z"/><path d="M83.69,49.76a1.85,1.85,0,0,1-1.41-.56,2.1,2.1,0,0,1-.53-1.49,2.15,2.15,0,0,1,.55-1.57,2,2,0,0,1,1.49-.57,1.81,1.81,0,0,1,1.4.55,2.22,2.22,0,0,1,.5,1.53,2.13,2.13,0,0,1-.54,1.53A1.89,1.89,0,0,1,83.69,49.76Zm0-3.65a1.19,1.19,0,0,0-1,.42,1.73,1.73,0,0,0-.36,1.16,1.64,1.64,0,0,0,.36,1.12,1.25,1.25,0,0,0,1,.41,1.18,1.18,0,0,0,1-.4,2.17,2.17,0,0,0,0-2.3A1.18,1.18,0,0,0,83.74,46.11Z"/><path d="M89.79,49.67h-.64V47.38c0-.85-.31-1.27-.93-1.27a1,1,0,0,0-.79.36,1.35,1.35,0,0,0-.32.91v2.29h-.64v-4h.64v.66h0a1.43,1.43,0,0,1,1.31-.76,1.19,1.19,0,0,1,1,.43,1.89,1.89,0,0,1,.35,1.22Z"/><path d="M125.84,60.73h-2.19v1.94h2v.59h-2v2.48H123V60.13h2.84Z" fill="#00b0f0"/><path d="M127.46,65.74h-.64V59.81h.64Z" fill="#00b0f0"/><path d="M132,65.74h-.64V65.1h0a1.29,1.29,0,0,1-1.23.73c-1,0-1.43-.57-1.43-1.7V61.74h.63V64c0,.85.33,1.27,1,1.27a.94.94,0,0,0,.77-.35,1.28,1.28,0,0,0,.31-.9v-2.3H132Z" fill="#00b0f0"/><path d="M136.2,61.74l-1.34,2,1.32,2h-.75l-.78-1.3-.18-.31h0l-.19.31-.8,1.3h-.74l1.37-2-1.31-2h.75l.77,1.36a3.24,3.24,0,0,1,.17.32h0l1-1.68Z" fill="#00b0f0"/><path d="M142.56,65.74h-.64v-.68h0a1.47,1.47,0,0,1-1.37.77,1.49,1.49,0,0,1-1.21-.54,2.2,2.2,0,0,1-.45-1.46,2.42,2.42,0,0,1,.5-1.59,1.64,1.64,0,0,1,1.33-.6,1.29,1.29,0,0,1,1.2.65h0V59.81h.64Zm-.64-1.81v-.59a1.14,1.14,0,0,0-.32-.82,1.07,1.07,0,0,0-.81-.34,1.11,1.11,0,0,0-.93.43,1.91,1.91,0,0,0-.33,1.19,1.67,1.67,0,0,0,.32,1.09,1,1,0,0,0,.86.4,1.08,1.08,0,0,0,.87-.39A1.38,1.38,0,0,0,141.92,63.93Z" fill="#00b0f0"/><path d="M144.64,60l-.54,1.74h-.46l.43-1.74Z" fill="#00b0f0"/><path d="M146,60.72a.41.41,0,0,1-.3-.12.38.38,0,0,1-.12-.29.41.41,0,0,1,.42-.42.4.4,0,0,1,.29.12.38.38,0,0,1,.13.3.37.37,0,0,1-.13.29A.4.4,0,0,1,146,60.72Zm.31,5h-.64v-4h.64Z" fill="#00b0f0"/><path d="M151,65.74h-.65V63.45c0-.84-.3-1.27-.92-1.27a1,1,0,0,0-.8.36,1.34,1.34,0,0,0-.31.91v2.29h-.64v-4h.64v.66h0a1.43,1.43,0,0,1,1.31-.76,1.21,1.21,0,0,1,1,.43,1.89,1.89,0,0,1,.35,1.22Z" fill="#00b0f0"/><path d="M154.13,60.38a.89.89,0,0,0-.43-.11c-.45,0-.67.28-.67.85v.62H154v.54H153v3.46h-.64V62.28h-.68v-.54h.68v-.65a1.38,1.38,0,0,1,.37-1,1.39,1.39,0,0,1,1.37-.29Z" fill="#00b0f0"/><path d="M156.33,65.83a1.87,1.87,0,0,1-1.42-.56,2.09,2.09,0,0,1-.53-1.49,2.19,2.19,0,0,1,.55-1.57,2,2,0,0,1,1.49-.57,1.83,1.83,0,0,1,1.4.55,2.22,2.22,0,0,1,.5,1.53,2.13,2.13,0,0,1-.54,1.53A1.88,1.88,0,0,1,156.33,65.83Zm0-3.65a1.21,1.21,0,0,0-1,.42,1.73,1.73,0,0,0-.36,1.16,1.64,1.64,0,0,0,.36,1.12,1.25,1.25,0,0,0,1,.41,1.16,1.16,0,0,0,1-.4,2.17,2.17,0,0,0,0-2.3A1.16,1.16,0,0,0,156.38,62.18Z" fill="#00b0f0"/><path d="M161.43,62.38a.81.81,0,0,0-.48-.12.8.8,0,0,0-.69.38A1.83,1.83,0,0,0,160,63.7v2h-.64v-4H160v.82h0a1.4,1.4,0,0,1,.42-.66.94.94,0,0,1,.63-.23,1,1,0,0,1,.38,0Z" fill="#00b0f0"/><path d="M167.8,65.74h-.64v-2.3a1.72,1.72,0,0,0-.2-1,.78.78,0,0,0-.69-.3.87.87,0,0,0-.7.38,1.43,1.43,0,0,0-.28.89v2.29h-.65V63.36c0-.79-.3-1.18-.91-1.18a.84.84,0,0,0-.69.35,1.5,1.5,0,0,0-.27.92v2.29h-.64v-4h.64v.63h0a1.36,1.36,0,0,1,1.24-.73,1.16,1.16,0,0,1,1.14.83,1.42,1.42,0,0,1,1.32-.83c.88,0,1.32.55,1.32,1.63Z" fill="#00b0f0"/><path d="M171.88,65.74h-.64v-.63h0a1.34,1.34,0,0,1-1.23.72,1.3,1.3,0,0,1-.93-.32,1.08,1.08,0,0,1-.34-.84c0-.74.44-1.18,1.32-1.3l1.2-.17c0-.68-.28-1-.83-1a2,2,0,0,0-1.3.49V62a2.48,2.48,0,0,1,1.36-.38c.94,0,1.41.5,1.41,1.49Zm-.64-2-1,.14a1.5,1.5,0,0,0-.67.22.63.63,0,0,0-.22.56.59.59,0,0,0,.2.47.79.79,0,0,0,.56.19,1,1,0,0,0,.79-.33,1.25,1.25,0,0,0,.31-.85Z" fill="#00b0f0"/><path d="M174.94,65.7a1.28,1.28,0,0,1-.6.12q-1.05,0-1.05-1.17V62.28h-.68v-.54h.68v-1l.64-.21v1.19h1v.54h-1v2.26a.93.93,0,0,0,.14.57.52.52,0,0,0,.45.17.68.68,0,0,0,.42-.13Z" fill="#00b0f0"/><path d="M176.13,60.72a.41.41,0,0,1-.3-.12.38.38,0,0,1-.12-.29.41.41,0,0,1,.42-.42.4.4,0,0,1,.29.12.38.38,0,0,1,.13.3.37.37,0,0,1-.13.29A.4.4,0,0,1,176.13,60.72Zm.31,5h-.64v-4h.64Z" fill="#00b0f0"/><path d="M179.41,65.83a1.87,1.87,0,0,1-1.42-.56,2.09,2.09,0,0,1-.53-1.49,2.15,2.15,0,0,1,.55-1.57,2,2,0,0,1,1.49-.57,1.83,1.83,0,0,1,1.4.55,2.22,2.22,0,0,1,.5,1.53,2.13,2.13,0,0,1-.54,1.53A1.88,1.88,0,0,1,179.41,65.83Zm0-3.65a1.21,1.21,0,0,0-1,.42,1.73,1.73,0,0,0-.36,1.16,1.64,1.64,0,0,0,.36,1.12,1.25,1.25,0,0,0,1,.41,1.16,1.16,0,0,0,1-.4,2.17,2.17,0,0,0,0-2.3A1.17,1.17,0,0,0,179.45,62.18Z" fill="#00b0f0"/><path d="M185.74,65.74h-.64V63.45c0-.84-.31-1.27-.93-1.27a1,1,0,0,0-.79.36,1.35,1.35,0,0,0-.32.91v2.29h-.64v-4h.64v.66h0a1.43,1.43,0,0,1,1.31-.76,1.19,1.19,0,0,1,1,.43,1.83,1.83,0,0,1,.35,1.22Z" fill="#00b0f0"/><path d="M186.71,65.59V64.9a1.88,1.88,0,0,0,1.15.39c.56,0,.84-.19.84-.56a.45.45,0,0,0-.07-.27.72.72,0,0,0-.19-.2,2,2,0,0,0-.29-.16l-.36-.14c-.18-.07-.33-.14-.47-.21a1.4,1.4,0,0,1-.33-.24,1,1,0,0,1-.21-.31,1.19,1.19,0,0,1-.07-.4,1,1,0,0,1,.13-.5,1.09,1.09,0,0,1,.35-.36,1.47,1.47,0,0,1,.49-.22,2.12,2.12,0,0,1,.57-.08,2.34,2.34,0,0,1,.93.18v.65a1.87,1.87,0,0,0-1-.29,1,1,0,0,0-.32,0,.83.83,0,0,0-.25.12.55.55,0,0,0-.16.18.4.4,0,0,0-.06.22.54.54,0,0,0,.06.27.55.55,0,0,0,.16.18,1,1,0,0,0,.27.15l.35.15a3.66,3.66,0,0,1,.48.2,2.07,2.07,0,0,1,.36.25.87.87,0,0,1,.23.31,1,1,0,0,1,.08.42.94.94,0,0,1-.13.51,1.1,1.1,0,0,1-.35.36,1.62,1.62,0,0,1-.5.22,2.4,2.4,0,0,1-.6.07A2.25,2.25,0,0,1,186.71,65.59Z" fill="#00b0f0"/><path d="M117.42,75.34h-.64v-.68h0a1.61,1.61,0,0,1-2.58.23,2.2,2.2,0,0,1-.45-1.46,2.37,2.37,0,0,1,.5-1.59,1.63,1.63,0,0,1,1.33-.6,1.29,1.29,0,0,1,1.2.65h0V69.41h.64Zm-.64-1.81v-.59a1.1,1.1,0,0,0-.32-.82,1,1,0,0,0-.81-.34,1.09,1.09,0,0,0-.92.43,1.85,1.85,0,0,0-.34,1.19,1.72,1.72,0,0,0,.32,1.09,1.06,1.06,0,0,0,.87.4,1.08,1.08,0,0,0,.87-.39A1.43,1.43,0,0,0,116.78,73.53Z" fill="#00b0f0"/><path d="M119.51,69.64,119,71.38h-.46l.44-1.74Z" fill="#00b0f0"/><path d="M120.88,70.32a.4.4,0,0,1-.29-.12.37.37,0,0,1-.12-.29.41.41,0,0,1,.12-.3.4.4,0,0,1,.29-.12.41.41,0,0,1,.42.42.4.4,0,0,1-.12.29A.41.41,0,0,1,120.88,70.32Zm.31,5h-.64v-4h.64Z" fill="#00b0f0"/><path d="M125.9,75.34h-.64v-.68h0a1.61,1.61,0,0,1-2.58.23,2.2,2.2,0,0,1-.45-1.46,2.37,2.37,0,0,1,.5-1.59,1.63,1.63,0,0,1,1.33-.6,1.29,1.29,0,0,1,1.2.65h0V69.41h.64Zm-.64-1.81v-.59a1.1,1.1,0,0,0-.32-.82,1,1,0,0,0-.81-.34,1.09,1.09,0,0,0-.92.43,1.91,1.91,0,0,0-.34,1.19,1.67,1.67,0,0,0,.33,1.09,1,1,0,0,0,.86.4,1.08,1.08,0,0,0,.87-.39A1.43,1.43,0,0,0,125.26,73.53Z" fill="#00b0f0"/><path d="M130.42,73.5h-2.83a1.49,1.49,0,0,0,.36,1,1.26,1.26,0,0,0,1,.36,2,2,0,0,0,1.24-.44v.6a2.37,2.37,0,0,1-1.4.38,1.69,1.69,0,0,1-1.33-.55,2.23,2.23,0,0,1-.48-1.53,2.15,2.15,0,0,1,.53-1.52,1.7,1.7,0,0,1,1.31-.59,1.52,1.52,0,0,1,1.22.51,2.16,2.16,0,0,1,.43,1.41Zm-.66-.55a1.27,1.27,0,0,0-.27-.86.89.89,0,0,0-.73-.31,1,1,0,0,0-.77.33,1.44,1.44,0,0,0-.39.84Z" fill="#00b0f0"/><path d="M134.71,75.34h-.65V73.05c0-.84-.31-1.27-.93-1.27a1,1,0,0,0-.79.36,1.34,1.34,0,0,0-.31.91v2.29h-.65v-4H132V72h0a1.43,1.43,0,0,1,1.31-.76,1.21,1.21,0,0,1,1,.43,1.89,1.89,0,0,1,.35,1.22Z" fill="#00b0f0"/><path d="M137.77,75.3a1.28,1.28,0,0,1-.6.12q-1,0-1-1.17V71.88h-.69v-.54h.69v-1l.64-.21v1.19h1v.54h-1v2.26a.93.93,0,0,0,.14.57.52.52,0,0,0,.45.17.68.68,0,0,0,.42-.13Z" fill="#00b0f0"/><path d="M139,70.32a.4.4,0,0,1-.29-.12.37.37,0,0,1-.12-.29.41.41,0,0,1,.12-.3.4.4,0,0,1,.29-.12.41.41,0,0,1,.42.42.4.4,0,0,1-.12.29A.41.41,0,0,1,139,70.32Zm.31,5h-.64v-4h.64Z" fill="#00b0f0"/><path d="M142.54,70a.89.89,0,0,0-.43-.11c-.45,0-.67.28-.67.85v.62h.94v.54h-.94v3.46h-.64V71.88h-.68v-.54h.68v-.65a1.34,1.34,0,0,1,.37-1,1.39,1.39,0,0,1,1.37-.29Z" fill="#00b0f0"/><path d="M143.39,70.32a.4.4,0,0,1-.29-.12.37.37,0,0,1-.12-.29.41.41,0,0,1,.12-.3.4.4,0,0,1,.29-.12.41.41,0,0,1,.42.42.4.4,0,0,1-.12.29A.41.41,0,0,1,143.39,70.32Zm.32,5h-.65v-4h.65Z" fill="#00b0f0"/><path d="M147.73,75.15a2,2,0,0,1-1.1.28,1.82,1.82,0,0,1-1.38-.56,2,2,0,0,1-.52-1.44,2.25,2.25,0,0,1,.56-1.59,2,2,0,0,1,1.52-.6,2.12,2.12,0,0,1,.93.2v.65a1.71,1.71,0,0,0-1-.31,1.28,1.28,0,0,0-1,.44,1.68,1.68,0,0,0-.4,1.16,1.61,1.61,0,0,0,.37,1.1,1.26,1.26,0,0,0,1,.41,1.64,1.64,0,0,0,1-.35Z" fill="#00b0f0"/><path d="M151.56,75.34h-.64v-.63h0a1.45,1.45,0,0,1-2.16.4,1.08,1.08,0,0,1-.34-.84c0-.74.44-1.18,1.32-1.3l1.2-.17c0-.68-.27-1-.82-1a2,2,0,0,0-1.31.49v-.65a2.48,2.48,0,0,1,1.36-.38c.94,0,1.41.5,1.41,1.49Zm-.64-2-1,.14a1.51,1.51,0,0,0-.68.22.73.73,0,0,0,0,1,.81.81,0,0,0,.55.18,1,1,0,0,0,.79-.33,1.2,1.2,0,0,0,.31-.85Z" fill="#00b0f0"/><path d="M154.62,75.3a1.26,1.26,0,0,1-.59.12c-.7,0-1.06-.39-1.06-1.17V71.88h-.68v-.54H153v-1l.65-.21v1.19h1v.54h-1v2.26a.94.94,0,0,0,.13.57.53.53,0,0,0,.46.17.63.63,0,0,0,.41-.13Z" fill="#00b0f0"/><path d="M155.81,70.32a.41.41,0,0,1-.3-.12.37.37,0,0,1-.12-.29.41.41,0,0,1,.42-.42.44.44,0,0,1,.3.12.41.41,0,0,1,.12.3.4.4,0,0,1-.12.29A.44.44,0,0,1,155.81,70.32Zm.31,5h-.64v-4h.64Z" fill="#00b0f0"/><path d="M159.09,75.43a1.87,1.87,0,0,1-1.42-.56,2.09,2.09,0,0,1-.53-1.49,2.19,2.19,0,0,1,.55-1.57,2,2,0,0,1,1.49-.57,1.83,1.83,0,0,1,1.4.55,2.22,2.22,0,0,1,.5,1.53,2.13,2.13,0,0,1-.54,1.53A1.88,1.88,0,0,1,159.09,75.43Zm0-3.65a1.21,1.21,0,0,0-1,.42,1.73,1.73,0,0,0-.36,1.16,1.64,1.64,0,0,0,.36,1.12,1.25,1.25,0,0,0,1,.41,1.16,1.16,0,0,0,1-.4,2.17,2.17,0,0,0,0-2.3A1.17,1.17,0,0,0,159.13,71.78Z" fill="#00b0f0"/><path d="M165.42,75.34h-.64V73.05c0-.84-.31-1.27-.93-1.27a1,1,0,0,0-.79.36,1.35,1.35,0,0,0-.32.91v2.29h-.64v-4h.64V72h0a1.43,1.43,0,0,1,1.31-.76,1.23,1.23,0,0,1,1,.43,1.89,1.89,0,0,1,.34,1.22Z" fill="#00b0f0"/><path d="M172.24,75.34h-.64v-.68h0a1.61,1.61,0,0,1-2.58.23,2.2,2.2,0,0,1-.45-1.46,2.42,2.42,0,0,1,.5-1.59,1.64,1.64,0,0,1,1.33-.6,1.29,1.29,0,0,1,1.2.65h0V69.41h.64Zm-.64-1.81v-.59a1.14,1.14,0,0,0-.32-.82,1.18,1.18,0,0,0-1.74.09,1.91,1.91,0,0,0-.33,1.19,1.67,1.67,0,0,0,.32,1.09,1,1,0,0,0,.86.4,1.08,1.08,0,0,0,.87-.39A1.43,1.43,0,0,0,171.6,73.53Z" fill="#00b0f0"/><path d="M176.77,75.34h-.64V74.7h0a1.3,1.3,0,0,1-1.23.73c-1,0-1.43-.57-1.43-1.7V71.34h.63v2.29c0,.84.33,1.26,1,1.26a.94.94,0,0,0,.77-.35,1.28,1.28,0,0,0,.31-.9v-2.3h.64Z" fill="#00b0f0"/><path d="M183,75.15a2,2,0,0,1-1.1.28,1.82,1.82,0,0,1-1.38-.56,2,2,0,0,1-.52-1.44,2.25,2.25,0,0,1,.56-1.59,2,2,0,0,1,1.52-.6,2.12,2.12,0,0,1,.93.2v.65a1.71,1.71,0,0,0-1-.31,1.28,1.28,0,0,0-1,.44,1.68,1.68,0,0,0-.4,1.16,1.61,1.61,0,0,0,.37,1.1,1.26,1.26,0,0,0,1,.41,1.64,1.64,0,0,0,1-.35Z" fill="#00b0f0"/><path d="M184.59,75.34H184V69.41h.64Z" fill="#00b0f0"/><path d="M186.21,70.32a.4.4,0,0,1-.29-.12.37.37,0,0,1-.12-.29.41.41,0,0,1,.12-.3.4.4,0,0,1,.29-.12.41.41,0,0,1,.42.42.4.4,0,0,1-.12.29A.41.41,0,0,1,186.21,70.32Zm.32,5h-.65v-4h.65Z" fill="#00b0f0"/><path d="M191,73.5h-2.83a1.49,1.49,0,0,0,.36,1,1.26,1.26,0,0,0,1,.36,2,2,0,0,0,1.24-.44v.6a2.36,2.36,0,0,1-1.39.38,1.69,1.69,0,0,1-1.34-.55,2.23,2.23,0,0,1-.48-1.53,2.2,2.2,0,0,1,.53-1.52,1.7,1.7,0,0,1,1.31-.59,1.51,1.51,0,0,1,1.22.51,2.16,2.16,0,0,1,.43,1.41Zm-.66-.55a1.27,1.27,0,0,0-.27-.86.89.89,0,0,0-.73-.31,1,1,0,0,0-.77.33,1.44,1.44,0,0,0-.39.84Z" fill="#00b0f0"/><path d="M195.33,75.34h-.64V73.05c0-.84-.31-1.27-.93-1.27a1,1,0,0,0-.8.36,1.34,1.34,0,0,0-.31.91v2.29H192v-4h.64V72h0a1.43,1.43,0,0,1,1.31-.76,1.21,1.21,0,0,1,1,.43,1.89,1.89,0,0,1,.35,1.22Z" fill="#00b0f0"/><path d="M198.39,75.3a1.28,1.28,0,0,1-.6.12q-1,0-1-1.17V71.88h-.69v-.54h.69v-1l.64-.21v1.19h1v.54h-1v2.26a.93.93,0,0,0,.14.57.52.52,0,0,0,.45.17.68.68,0,0,0,.42-.13Z" fill="#00b0f0"/><path d="M211.09,79h-20.5a1.09,1.09,0,0,0-1.09,1.1V96.88a1.09,1.09,0,0,0,1.09,1.1h5.28a3.29,3.29,0,0,0,3.21,2.27,3.38,3.38,0,0,0,0-6.75,3.29,3.29,0,0,0-3.21,2.27h-4.19v-12H210v12h-3.45a7.61,7.61,0,0,0-7.46-6.56,8.25,8.25,0,0,0-3.64.92l1,2a5.27,5.27,0,0,1,2.55-.67,5.46,5.46,0,0,1,0,10.91,5.27,5.27,0,0,1-2.55-.67l-1,2a7.51,7.51,0,0,0,3.64.92A7.61,7.61,0,0,0,206.54,98h4.55a1.09,1.09,0,0,0,1.09-1.1V80.13A1.14,1.14,0,0,0,211.09,79Z" fill="#008bfd" fill-rule="evenodd"/><path d="M73.65,106H59.44V77.6H73.65v7.67h.76V76.83H58.68v29.91H74.41v-2.32h-.76Z" fill="#0078d7" fill-rule="evenodd"/><path d="M72.88,78.39H60.24V83H72.88ZM63.3,80.31h6.53v.76H63.3Zm6.59,1.84H63.27v-.76h6.62Z" fill="#0078d7" fill-rule="evenodd"/><path d="M60.21,83.74V86.8h8.6V85.27h4.08V83.74Z" fill="#0078d7" fill-rule="evenodd"/><rect x="60.21" y="87.57" width="8.6" height="2.68" fill="#0078d7"/><path d="M60.21,105.21H72.86v-.8H68.78V91h-8.6v14.17Zm1.53-2.74H64v1.21H61.74Z" fill="#0078d7" fill-rule="evenodd"/><path d="M83.43,102.15H81v-1.87H78.46v1.87H76a1.32,1.32,0,0,0-1.31,1.15h10A1.29,1.29,0,0,0,83.43,102.15Z" fill="#0078d7" fill-rule="evenodd"/><path d="M88.27,88.17H71.17a.65.65,0,0,0-.67.61V98.91a.65.65,0,0,0,.67.6h17.1a.64.64,0,0,0,.67-.6V88.78A.63.63,0,0,0,88.27,88.17Zm-1,9.84H72.19V89.7H87.25Z" fill="#0078d7" fill-rule="evenodd"/><path d="M83.63,95.52V92.08l-3.51-1.84L76.62,92v3.54l3.5,1.81Zm-4.4-2.29.89-.45.86.45-.86.48Zm0-1.15.86-.44.86.44-.86.48Zm1.91,4.53-1,.51v-.93l1-.51Zm0-1.18-1,.51V95l1-.51Zm0-1.12-1,.51V93.9l1-.51Zm-.82-1.65.86-.45.89.45-.86.44Zm2,3.34-.95.51v-.92l.95-.51Zm0-1.18-.95.51v-.92l.95-.51Zm0-1.14-.95.51v-.9l.95-.51Zm1.05,1.75-.86.44V95l.86-.45Zm0-1.15-.86.45V93.8l.86-.44Zm0-1.14-.86.44v-.92l.86-.45Zm-.19-1.06-.89.45-.89-.45.86-.44Zm-1.11-.57-.89.45-.86-.45.86-.44Zm-2-1.05.86.45-.86.44-.89-.44ZM79,91.07l.86.44L79,92l-.86-.45Zm-1.08.57.89.44-.89.45-.9-.45Zm-.26,4.27-.86-.45v-.92l.86.44Zm0-1.18-.86-.45v-.92l.86.44Zm0-1.15-.86-.44v-.9l.86.45Zm1.18,2.93-1-.51v-.92l1,.51Zm0-1.18-1-.51V93.9l1,.51Zm0-1.14-1-.51v-.9l1,.51Zm-.7-1.53.89-.45.86.45-.89.48ZM80,97.12l-1-.51v-.89l1,.5ZM80,96l-1-.51v-.92l1,.51Zm0-1.15-1-.51v-.92l1,.51Z" fill="#0078d7" fill-rule="evenodd"/><path d="M84.06,154.79H63.56a1.09,1.09,0,0,0-1.09,1.1v16.75a1.09,1.09,0,0,0,1.09,1.1h5.28A3.29,3.29,0,0,0,72.05,176a3.38,3.38,0,0,0,0-6.75,3.29,3.29,0,0,0-3.21,2.27H64.65v-12H83v12H79.51A7.61,7.61,0,0,0,72.05,165a8.25,8.25,0,0,0-3.64.92l1,2a5.27,5.27,0,0,1,2.55-.67,5.46,5.46,0,0,1,0,10.91,5.27,5.27,0,0,1-2.55-.67l-1,2a7.51,7.51,0,0,0,3.64.92,7.61,7.61,0,0,0,7.46-6.56h4.55a1.09,1.09,0,0,0,1.09-1.1V155.89A1.14,1.14,0,0,0,84.06,154.79Z" fill="#008bfd" fill-rule="evenodd"/><path d="M181.12,88c0,.08,0,.15.08.22a9.46,9.46,0,0,1,.7,2.77h-1.26c-.36,0-.81,0-1.31,0q-23.16,0-46.31,0c-16.48,0-27.75-11.24-27.75-27.68,0-13.52,0-27,0-40.55,0-4.62-3.18-8.5-7.48-8.85a50.47,50.47,0,0,0-10.28.1.7.7,0,0,0,0,1c2.54.56,5.1.21,7.64.24,5.83.08,8.66,2.88,8.66,8.73,0,13.6-.13,27.19,0,40.78.14,11.42,5.6,19.71,15.68,25,.62.33,1.36.49,1.83,1.21-9.81,0-19.57,0-29.32,0-.91,0-2-.38-2.64.65l0,.17c.69,1,1.73.66,2.65.67q14.13,0,28.27,0h2.52c-.74.48-.91.62-1.11.72-11.32,5.41-16.81,14.45-16.79,26.94,0,12.3,0,24.6,0,36.9,0,5.82-3.78,9.57-9.58,9.68-3.28.06-6.55.07-9.82.1-.83.15-.8.71-.63,1.33a.41.41,0,0,0,.56.19c3,0,5.92-.05,8.88-.06,7.94,0,12.24-4.33,12.25-12.35V119.42c0-15.62,11.3-27,26.88-27h48.54a9.57,9.57,0,0,1-.68,3.19v0l8.08-4C186.4,90.43,184.24,88.85,181.12,88Z" fill="#505050"/><path d="M66.68,17.18a16.47,16.47,0,0,1-2-2.35,18.32,18.32,0,0,0-1.66,6.89c.11.16.11.28.23.44a13.4,13.4,0,0,0,2,2.05A14.18,14.18,0,0,1,66.68,17.18Z" fill="#008bfd" fill-rule="evenodd"/><path d="M71.29,7.75a21,21,0,0,0-3.33,3,16.41,16.41,0,0,0-1.61,2,15,15,0,0,0,1.9,2.47,16.84,16.84,0,0,1,2.2-2.57,27.32,27.32,0,0,1,3.13-2.6C72.78,9.31,72,8.54,71.29,7.75Z" fill="#008bfd" fill-rule="evenodd"/><path d="M82.76,7A12.55,12.55,0,0,0,81,5.12a12.55,12.55,0,0,0-8,1.54c.76.84,1.51,1.62,2.24,2.36C79.63,6.59,82.76,7,82.76,7Z" fill="#008bfd" fill-rule="evenodd"/><path d="M65.17,15a18.72,18.72,0,0,1,1.18-2.06,9.92,9.92,0,0,1-1.58-6.8A13,13,0,0,0,63.5,7.72C63.12,9.33,63.11,11.88,65.17,15Z" fill="#008bfd" fill-rule="evenodd"/><path d="M70.52,17.36a21.57,21.57,0,0,1-2.27-2.13,13.68,13.68,0,0,0-1.14,1.95,23.54,23.54,0,0,0,2.09,1.91,19.18,19.18,0,0,0,12.56,4.38,9,9,0,0,0,1.54-1.94C82.07,21.79,76.81,22.47,70.52,17.36Z" fill="#008bfd" fill-rule="evenodd"/><path d="M65.16,14.83a16.24,16.24,0,0,0,2,2.35,14.7,14.7,0,0,1,1.14-1.95,15,15,0,0,1-1.9-2.47A16.34,16.34,0,0,0,65.16,14.83Z" fill="#008bfd" fill-rule="evenodd"/><path d="M73.58,10.07a98.21,98.21,0,0,0,11.15,8.82,9.82,9.82,0,0,0,.33-1.05A96.8,96.8,0,0,1,75.23,9,16,16,0,0,0,73.58,10.07Z" fill="#008bfd" fill-rule="evenodd"/><path d="M73,6.65q-1.65-1.77-3.36-3.79A10.05,10.05,0,0,0,68,3.52a26.74,26.74,0,0,0,3.24,4.22A15.69,15.69,0,0,1,73,6.65Z" fill="#008bfd" fill-rule="evenodd"/><path d="M73.06,6.62a18.74,18.74,0,0,0-1.87,1.19c.72.78,1.45,1.59,2.25,2.35.57-.4,1.34-.89,1.87-1.19C74.57,8.24,73.82,7.46,73.06,6.62Z" fill="#008bfd" fill-rule="evenodd"/><path d="M72.86,6.51a14.89,14.89,0,0,0-1.67,1.13c.72.79,1.74,1.81,2.54,2.57.57-.4,1-.81,1.58-1.11C74.57,8.37,73.61,7.35,72.86,6.51Z" fill="#008bfd" fill-rule="evenodd"/><path d="M78.92,13.07a2.7,2.7,0,0,0-.48,3.7,2.55,2.55,0,0,0,3.63.5,2.71,2.71,0,0,0,.48-3.71A2.54,2.54,0,0,0,78.92,13.07Z" fill="#008bfd" fill-rule="evenodd"/><path d="M64,19.68a2.52,2.52,0,0,0-.45,3.44,2.37,2.37,0,0,0,3.36.45,2.49,2.49,0,0,0,.44-3.43A2.35,2.35,0,0,0,64,19.68Z" fill="#008bfd" fill-rule="evenodd"/><path d="M64.61,11.87a3.79,3.79,0,0,0-.68,5.21,3.58,3.58,0,0,0,5.1.7,3.8,3.8,0,0,0,.67-5.23A3.58,3.58,0,0,0,64.61,11.87Z" fill="#008bfd" fill-rule="evenodd"/><path d="M80.65,24.41a11.81,11.81,0,0,1-16.84-2.29A12.55,12.55,0,0,1,66.05,4.83a11.72,11.72,0,0,1,7.29-2.54,11.89,11.89,0,0,1,9.55,4.84A12.54,12.54,0,0,1,80.65,24.41ZM84.31,6A13.57,13.57,0,0,0,65,3.36,14.45,14.45,0,0,0,62.4,23.24a13.65,13.65,0,0,0,11,5.55,13.45,13.45,0,0,0,8.39-2.92A14.44,14.44,0,0,0,84.31,6Z" fill="#008bfd" fill-rule="evenodd"/><path d="M17.37,21.09H10.65a.59.59,0,0,1-.61-.57V14.08H12V12.31H24.4a.59.59,0,0,1,.62.57V13a6.4,6.4,0,0,1,1,.33v-.42a1.53,1.53,0,0,0-1.58-1.46h-13l-2.34,2.2v6.9A1.51,1.51,0,0,0,10.65,22h7.28A5.8,5.8,0,0,1,17.37,21.09Z" fill="gray" fill-rule="evenodd"/><path d="M26,23.3l2.34,3.26L26.16,26l-.61,1.64-2.34-2.88-1.75,2.88-.8-1.74-2.17.54L20.63,23s.58.92,2.69.92S26,23.3,26,23.3Z" fill="gray" fill-rule="evenodd"/><path d="M24.19,22.71a3.58,3.58,0,0,1-3.71-3.41,3.58,3.58,0,0,1,3.71-3.42,3.58,3.58,0,0,1,3.72,3.42A3.58,3.58,0,0,1,24.19,22.71Zm0-6.06A2.78,2.78,0,0,0,21.3,19.3a2.91,2.91,0,0,0,5.79,0A2.79,2.79,0,0,0,24.19,16.65Z" fill="gray" fill-rule="evenodd"/><path d="M24.19,24.52a5.48,5.48,0,0,1-5.7-5.22,5.48,5.48,0,0,1,5.7-5.23,5.48,5.48,0,0,1,5.69,5.23A5.47,5.47,0,0,1,24.19,24.52Zm0-9.69a4.7,4.7,0,0,0-4.88,4.47,4.69,4.69,0,0,0,4.88,4.46,4.68,4.68,0,0,0,4.87-4.46A4.69,4.69,0,0,0,24.19,14.83Z" fill="gray" fill-rule="evenodd"/><path d="M17.54,98.67H10.82a.59.59,0,0,1-.61-.57V91.66h1.94V89.89H24.57a.59.59,0,0,1,.62.57v.09a6.4,6.4,0,0,1,1,.33v-.42A1.53,1.53,0,0,0,24.57,89h-13L9.25,91.2v6.9a1.51,1.51,0,0,0,1.57,1.46H18.1A5.8,5.8,0,0,1,17.54,98.67Z" fill="gray" fill-rule="evenodd"/><path d="M26.16,100.89l2.34,3.26-2.17-.54-.61,1.64-2.34-2.88-1.75,2.88-.8-1.74-2.17.54,2.14-3.42s.58.92,2.69.92S26.16,100.89,26.16,100.89Z" fill="gray" fill-rule="evenodd"/><path d="M24.35,100.29a3.43,3.43,0,1,1,0-6.83,3.43,3.43,0,1,1,0,6.83Zm0-6.06a2.66,2.66,0,1,0,2.9,2.65A2.78,2.78,0,0,0,24.35,94.23Z" fill="gray" fill-rule="evenodd"/><path d="M24.36,102.1a5.24,5.24,0,1,1,0-10.45,5.24,5.24,0,1,1,0,10.45Zm0-9.69a4.48,4.48,0,1,0,0,8.93,4.48,4.48,0,1,0,0-8.93Z" fill="gray" fill-rule="evenodd"/><path d="M17.54,168.78H10.82a.59.59,0,0,1-.61-.57v-6.44h1.94V160H24.57a.59.59,0,0,1,.62.57v.09a6.4,6.4,0,0,1,1,.33v-.42a1.53,1.53,0,0,0-1.58-1.46h-13l-2.34,2.2v6.9a1.51,1.51,0,0,0,1.57,1.46H18.1A5.8,5.8,0,0,1,17.54,168.78Z" fill="gray" fill-rule="evenodd"/><path d="M26.16,171l2.34,3.26-2.17-.54-.61,1.64-2.34-2.88-1.75,2.88-.8-1.74-2.17.54,2.14-3.42s.58.92,2.69.92S26.16,171,26.16,171Z" fill="gray" fill-rule="evenodd"/><path d="M24.35,170.4a3.43,3.43,0,1,1,0-6.83,3.43,3.43,0,1,1,0,6.83Zm0-6.06a2.66,2.66,0,1,0,2.9,2.65A2.78,2.78,0,0,0,24.35,164.34Z" fill="gray" fill-rule="evenodd"/><path d="M24.36,172.21a5.24,5.24,0,1,1,0-10.45,5.24,5.24,0,1,1,0,10.45Zm0-9.69a4.48,4.48,0,1,0,0,8.93,4.48,4.48,0,1,0,0-8.93Z" fill="gray" fill-rule="evenodd"/></svg>