<svg xmlns="http://www.w3.org/2000/svg" viewBox="0 0 215.3 80.9"><title>OJ104544462</title><path d="M60.2,66.8H46V38.4H60.2v7.7H61V37.7H45.3V67.6H61V65.2h-.8Z" transform="translate(-0.4 -1.6)" fill="#0078d7"/><path d="M59.5,39.2H46.8v4.6H59.5Zm-9.6,1.9h6.5v.8H49.9ZM56.5,43H49.9v-.8h6.6Z" transform="translate(-0.4 -1.6)" fill="#0078d7"/><path d="M46.8,44.6v3h8.6V46.1h4.1V44.6Z" transform="translate(-0.4 -1.6)" fill="#0078d7"/><rect x="46.4" y="46.8" width="8.6" height="2.68" fill="#0078d7"/><path d="M46.8,66H59.4v-.8h-4V51.9H46.8V66Zm1.5-2.7h2.3v1.2H48.3Z" transform="translate(-0.4 -1.6)" fill="#0078d7"/><path d="M70,63H67.6V61.1H65V63H62.6a1.2,1.2,0,0,0-1.3,1.1h10A1.2,1.2,0,0,0,70,63Z" transform="translate(-0.4 -1.6)" fill="#0078d7"/><path d="M74.9,49H57.8c-.4,0-.7.2-.7.6V59.7a.7.7,0,0,0,.7.6H74.9a.6.6,0,0,0,.6-.6V49.6A.6.6,0,0,0,74.9,49Zm-1.1,9.8h-15V50.5h15Z" transform="translate(-0.4 -1.6)" fill="#0078d7"/><path d="M70.2,56.3V52.9l-3.5-1.8-3.5,1.7v3.6l3.5,1.8ZM65.8,54l.9-.4.9.4-.9.5Zm0-1.1.9-.4.9.4-.9.5Zm1.9,4.5-.9.5V57l.9-.5Zm0-1.2-.9.6v-1l.9-.5Zm0-1.1-.9.5v-.9l.9-.5Zm-.8-1.6.9-.5.9.5-.9.4Zm2,3.3-.9.5v-.9l.9-.5Zm0-1.2-.9.6v-1l.9-.5Zm0-1.1L68,55v-.9l.9-.5ZM70,56.2l-.9.5v-.9l.9-.5Zm0-1.1-.9.4v-.9l.9-.4ZM70,54l-.9.4v-.9L70,53Zm-.2-1.1-.9.4-.9-.4.9-.4Zm-1.1-.6-.9.5-.9-.5.9-.4Zm-2-1,.9.4-.9.5-.9-.5Zm-1.1.6.8.4-.8.5-.9-.5Zm-1.1.6.9.4-.9.4-.9-.4Zm-.3,4.2-.8-.4v-.9l.8.4Zm0-1.2-.8-.4v-.9l.8.4Zm0-1.1-.8-.4v-.9l.8.4Zm1.2,2.9-.9-.5v-.9l.9.5Zm0-1.1-.9-.6v-.9l.9.5Zm0-1.2-.9-.5v-.9l.9.5Zm-.7-1.5.9-.5.9.5-.9.5Zm1.9,4.4-1-.5v-.9l1,.5Zm0-1.1-1-.5v-.9l1,.5Zm0-1.2-1-.5v-.9l1,.5Z" transform="translate(-0.4 -1.6)" fill="#0078d7"/><path d="M7.8,44.8c-2.3.5-3.6,3.1-2.9,5.6a4.6,4.6,0,0,0,5.3,3.7,4.5,4.5,0,0,0,2.9-5.7A4.3,4.3,0,0,0,7.8,44.8Z" transform="translate(-0.4 -1.6)" fill="#008bfd"/><path d="M12.8,54.8c-.5,0-.9.8-1.6,1.1a2.7,2.7,0,0,1-3.1,0C6.2,55,6,54.2,4.4,54.2s-4,2.8-4,6.9H16a14,14,0,0,0-1.1-4.2C13.8,54.8,13.2,54.8,12.8,54.8Z" transform="translate(-0.4 -1.6)" fill="#008bfd"/><path d="M14.2,49.8H10.1a.8.8,0,0,0-.7.7v2.8a.8.8,0,0,0,.8.7h.7v5.2a1,1,0,0,0,1,1,.9.9,0,0,0,1-.9h.2v-.7c0-.2.3-.3.3-.3v-.4c-.3-.1-.5-.3-.5-.4v-.3l.2-.2a3.3,3.3,0,0,0,.3-.6,2.2,2.2,0,0,1-.3-.5c-.1-.1-.1-.4-.2-.5v-.2a2.7,2.7,0,0,1,.8-1.1h.5a.6.6,0,0,0,.6-.6v-3A.7.7,0,0,0,14.2,49.8Zm-2.4,9.6c0,.2,0,.3-.2.3s-.2-.2-.2-.3V54.6c0-.3.1-.4.2-.4s.2.2.2.4Zm.3-7.8a.7.7,0,0,1-.6-.7.6.6,0,0,1,.6-.6.7.7,0,0,1,.7.6A.6.6,0,0,1,12.1,51.6Z" transform="translate(-0.4 -1.6)" fill="#008bfd" stroke="gray" stroke-linecap="round" stroke-linejoin="round" stroke-width="0.75"/><path d="M11.6,59.7c-.1,0-.3-.1-.3-.2v-5a.5.5,0,0,1,.3-.3c.1,0,.2.2.2.3v5.1C11.8,59.7,11.7,59.7,11.6,59.7Z" transform="translate(-0.4 -1.6)" fill="#fff"/><ellipse cx="11.8" cy="49.3" rx="0.7" ry="0.7" fill="#fff"/><path d="M191.8,41.7H171.3a1.1,1.1,0,0,0-1.1,1.1V59.5a1.1,1.1,0,0,0,1.1,1.1h5.2a3.3,3.3,0,0,0,3.2,2.3,3.4,3.4,0,1,0-3.2-4.5h-4.2V46.5h18.4V58.4h-3.5a7.6,7.6,0,0,0-11.1-5.6l1,2a4.8,4.8,0,0,1,2.6-.7,5.5,5.5,0,0,1,0,10.9,5.9,5.9,0,0,1-2.6-.7l-1,2a7.6,7.6,0,0,0,11.1-5.7h4.6a1,1,0,0,0,1-1.1V42.8A1,1,0,0,0,191.8,41.7Z" transform="translate(-0.4 -1.6)" fill="#008bfd"/><path d="M161.7,50.4l8,4-7.9,4a9,9,0,0,0-.1-8" transform="translate(-0.4 -1.6)" fill="#505050"/><path d="M162.7,54.5" transform="translate(-0.4 -1.6)" fill="#505050"/><path d="M165.9,54h-8.3l-53,.2H75.3a.9.9,0,0,0-.4.5.8.8,0,0,0,.4.7c.2.1.5,0,.8,0l41.9-.2h47.9Z" transform="translate(-0.4 -1.6)" fill="#505050"/><path d="M154.1,80.2h-.9l-.8-2h-2.9l-.7,2h-1l2.7-7h.9Zm-1.9-2.7-1.1-3c-.1-.1-.1-.2-.1-.5h-.1a.7.7,0,0,1-.1.5l-1.1,3Z" transform="translate(-0.4 -1.6)"/><path d="M155.8,79.5h0v3H155V75.2h.8v.9h0a1.9,1.9,0,0,1,1.8-1,1.8,1.8,0,0,1,1.5.7,3,3,0,0,1,.5,1.8,3.2,3.2,0,0,1-.6,2,2.1,2.1,0,0,1-1.7.7A1.9,1.9,0,0,1,155.8,79.5Zm0-2v.7a1.4,1.4,0,0,0,1.4,1.4,1.3,1.3,0,0,0,1.2-.5,3.4,3.4,0,0,0,.4-1.6,1.8,1.8,0,0,0-.4-1.3,1.3,1.3,0,0,0-1-.4,1.6,1.6,0,0,0-1.2.4A2,2,0,0,0,155.8,77.5Z" transform="translate(-0.4 -1.6)"/><path d="M161.7,79.5h0v3h-.8V75.2h.8v.9h0a1.9,1.9,0,0,1,1.7-1,1.6,1.6,0,0,1,1.5.7,2.4,2.4,0,0,1,.6,1.8,3.2,3.2,0,0,1-.6,2,2.1,2.1,0,0,1-1.7.7A1.9,1.9,0,0,1,161.7,79.5Zm0-2v.7a1.4,1.4,0,0,0,1.4,1.4c.5,0,.9-.1,1.1-.5a2.5,2.5,0,0,0,.5-1.6,2.5,2.5,0,0,0-.4-1.3,1.4,1.4,0,0,0-1.1-.4,1.5,1.5,0,0,0-1.1.4A2,2,0,0,0,161.7,77.5Z" transform="translate(-0.4 -1.6)"/><path d="M167.6,80.2h-.8V72.8h.8Z" transform="translate(-0.4 -1.6)"/><path d="M169.6,73.9h-.4c-.1-.1-.1-.2-.1-.4a.6.6,0,0,1,.1-.4h.8a.6.6,0,0,1,.1.4c0,.2,0,.3-.1.4Zm.4,6.3h-.8v-5h.8Z" transform="translate(-0.4 -1.6)"/><path d="M175,80a2.9,2.9,0,0,1-1.4.3,2.2,2.2,0,0,1-1.7-.7,2.4,2.4,0,0,1-.6-1.8,2.7,2.7,0,0,1,.7-2,2.4,2.4,0,0,1,1.9-.7l1.1.2v.8a2.1,2.1,0,0,0-1.2-.3,1.3,1.3,0,0,0-1.2.5,2,2,0,0,0-.5,1.5,1.8,1.8,0,0,0,.4,1.3,1.7,1.7,0,0,0,1.3.5,1.9,1.9,0,0,0,1.2-.4Z" transform="translate(-0.4 -1.6)"/><path d="M179.8,80.2H179v-.8h0a1.8,1.8,0,0,1-1.6.9,1.4,1.4,0,0,1-1.1-.4,1.2,1.2,0,0,1-.4-1c0-1,.5-1.5,1.6-1.7L179,77c0-.8-.3-1.2-1-1.2a2.7,2.7,0,0,0-1.7.6v-.8a2.6,2.6,0,0,1,1.7-.5,1.6,1.6,0,0,1,1.8,1.8Zm-.8-2.5h-1.2l-.8.3a.8.8,0,0,0-.3.7.7.7,0,0,0,.9.8,1.2,1.2,0,0,0,1-.4,1.3,1.3,0,0,0,.4-1Z" transform="translate(-0.4 -1.6)"/><path d="M183.6,80.2h-.7c-.9,0-1.3-.5-1.3-1.5V75.9h-.9v-.7h.9V74l.8-.3v1.5h1.2v.7h-1.2v2.8c0,.3,0,.6.1.7s.3.2.6.2h.5Z" transform="translate(-0.4 -1.6)"/><path d="M185.1,73.9h-.4c-.1-.1-.1-.2-.1-.4a.6.6,0,0,1,.1-.4h.8a.6.6,0,0,1,.1.4c0,.2,0,.3-.1.4Zm.4,6.3h-.8v-5h.8Z" transform="translate(-0.4 -1.6)"/><path d="M189.2,80.3a2.4,2.4,0,0,1-1.8-.7,2.6,2.6,0,0,1-.6-1.8,2.6,2.6,0,0,1,.7-2,2.7,2.7,0,0,1,3.6,0,2.7,2.7,0,0,1,.6,1.9,2.5,2.5,0,0,1-.7,1.9A2.1,2.1,0,0,1,189.2,80.3Zm.1-4.5a1.5,1.5,0,0,0-1.3.5,2,2,0,0,0-.4,1.4,2,2,0,0,0,.5,1.4,1.7,1.7,0,0,0,2.4,0,2.6,2.6,0,0,0,0-2.8A1.3,1.3,0,0,0,189.3,75.8Z" transform="translate(-0.4 -1.6)"/><path d="M197.1,80.2h-.8V77.3c0-1-.4-1.5-1.1-1.5a1.2,1.2,0,0,0-1,.4,1.5,1.5,0,0,0-.4,1.1v2.9H193v-5h.8V76h0a1.8,1.8,0,0,1,1.6-.9,1.7,1.7,0,0,1,1.3.5,2.4,2.4,0,0,1,.4,1.5Z" transform="translate(-0.4 -1.6)"/><path d="M206.9,80.2H206l-.7-2h-3l-.7,2h-.9l2.7-7h.8ZM205,77.5l-1.1-3a2,2,0,0,1-.1-.5h0c-.1.2-.1.4-.2.5l-1,3Z" transform="translate(-0.4 -1.6)"/><path d="M208.8,77.6v2.6h-.9v-7h2a2.9,2.9,0,0,1,1.7.5,2.1,2.1,0,0,1,.6,1.6,1.9,1.9,0,0,1-.7,1.6,2.5,2.5,0,0,1-1.8.7Zm0-3.7v2.9h.8a1.7,1.7,0,0,0,1.3-.4,1.3,1.3,0,0,0,.5-1.1c0-.9-.6-1.4-1.7-1.4Z" transform="translate(-0.4 -1.6)"/><path d="M214.4,80.2h-.9v-7h.9Z" transform="translate(-0.4 -1.6)"/><path d="M17.5,77.9h-.9l-.7-2h-3l-.7,2h-.9l2.7-7h.8Zm-1.9-2.7-1.1-3a2,2,0,0,1-.1-.5h0a1.1,1.1,0,0,0-.1.5l-1.1,3Z" transform="translate(-0.4 -1.6)"/><path d="M19.3,77.2h0v3h-.8V72.9h.8v.9h0a1.8,1.8,0,0,1,1.7-1,1.9,1.9,0,0,1,1.5.6,3.3,3.3,0,0,1-.1,3.9,1.9,1.9,0,0,1-1.6.7A1.6,1.6,0,0,1,19.3,77.2Zm0-2v.7a1.3,1.3,0,0,0,.4,1,1.2,1.2,0,0,0,1,.4,1.4,1.4,0,0,0,1.1-.5,2.5,2.5,0,0,0,.4-1.6,1.8,1.8,0,0,0-.4-1.3,1.2,1.2,0,0,0-1-.5,1.4,1.4,0,0,0-1.1.5A2,2,0,0,0,19.3,75.2Z" transform="translate(-0.4 -1.6)"/><path d="M25.2,77.2h0v3h-.8V72.9h.8v.9h0a1.8,1.8,0,0,1,1.7-1,2,2,0,0,1,1.5.6,2.8,2.8,0,0,1,.6,1.8,3.3,3.3,0,0,1-.7,2.1,1.9,1.9,0,0,1-1.6.7A1.6,1.6,0,0,1,25.2,77.2Zm0-2v.7a1.3,1.3,0,0,0,.4,1,1.2,1.2,0,0,0,1,.4,1.4,1.4,0,0,0,1.1-.5,2.5,2.5,0,0,0,.4-1.6,1.8,1.8,0,0,0-.4-1.3,1.2,1.2,0,0,0-1-.5,1.4,1.4,0,0,0-1.1.5A2,2,0,0,0,25.2,75.2Z" transform="translate(-0.4 -1.6)"/><path d="M31.1,77.9h-.8V70.5h.8Z" transform="translate(-0.4 -1.6)"/><path d="M33.1,71.6h-.4c-.1-.1-.1-.2-.1-.4a.6.6,0,0,1,.1-.4h.8a.9.9,0,0,1,0,.8Zm.4,6.3h-.8v-5h.8Z" transform="translate(-0.4 -1.6)"/><path d="M38.5,77.7a2.5,2.5,0,0,1-1.3.3,2.1,2.1,0,0,1-1.7-.7,2.4,2.4,0,0,1-.7-1.8,2.7,2.7,0,0,1,.7-2,2.5,2.5,0,0,1,1.9-.7l1.2.2v.8a2.8,2.8,0,0,0-1.2-.4,1.6,1.6,0,0,0-1.3.6,2.2,2.2,0,0,0-.5,1.4,2,2,0,0,0,.5,1.4,1.3,1.3,0,0,0,1.2.5,1.6,1.6,0,0,0,1.2-.4Z" transform="translate(-0.4 -1.6)"/><path d="M43.4,77.9h-.8v-.8h-.1A1.6,1.6,0,0,1,41,78a1.6,1.6,0,0,1-1.2-.4,1.3,1.3,0,0,1-.4-1c0-1,.6-1.5,1.7-1.7l1.5-.2c0-.8-.4-1.3-1.1-1.3a2.6,2.6,0,0,0-1.6.7v-.9a3.3,3.3,0,0,1,1.7-.4,1.6,1.6,0,0,1,1.8,1.8Zm-.8-2.5H41.3l-.8.3a.8.8,0,0,0-.3.7.9.9,0,0,0,.3.6.8.8,0,0,0,.7.2,1.3,1.3,0,0,0,1-.4,1.8,1.8,0,0,0,.4-1Z" transform="translate(-0.4 -1.6)"/><path d="M47.2,77.8l-.7.2c-.9,0-1.4-.5-1.4-1.5V73.6h-.8v-.7h.8V71.7l.8-.3v1.5h1.3v.7H45.9v2.8a1.2,1.2,0,0,0,.2.7c.1.2.3.2.6.2h.5Z" transform="translate(-0.4 -1.6)"/><path d="M48.7,71.6h-.4c-.1-.1-.1-.2-.1-.4a.6.6,0,0,1,.1-.4h.8a.9.9,0,0,1,0,.8Zm.4,6.3h-.8v-5h.8Z" transform="translate(-0.4 -1.6)"/><path d="M52.8,78a2.1,2.1,0,0,1-1.7-.7,2.4,2.4,0,0,1-.7-1.8,2.6,2.6,0,0,1,.7-2,2.3,2.3,0,0,1,1.8-.7,2.1,2.1,0,0,1,1.8.7,2.7,2.7,0,0,1,.6,1.9,2.5,2.5,0,0,1-.7,1.9A2.1,2.1,0,0,1,52.8,78Zm.1-4.6a1.4,1.4,0,0,0-1.2.6,2.2,2.2,0,0,0,0,2.8,1.7,1.7,0,0,0,2.4,0,2.6,2.6,0,0,0,0-2.8A1.4,1.4,0,0,0,52.9,73.4Z" transform="translate(-0.4 -1.6)"/><path d="M60.8,77.9H60V75c0-1-.4-1.6-1.2-1.6a1.4,1.4,0,0,0-1,.5,1.5,1.5,0,0,0-.4,1.1v2.9h-.8v-5h.8v.8h0a2,2,0,0,1,1.7-.9,1.7,1.7,0,0,1,1.2.5,2.5,2.5,0,0,1,.5,1.5Z" transform="translate(-0.4 -1.6)"/><path d="M69.3,77.9h-.8V77h0a1.8,1.8,0,0,1-1.7,1,1.7,1.7,0,0,1-1.5-.7,2.4,2.4,0,0,1-.6-1.8,3.2,3.2,0,0,1,.6-2,2.2,2.2,0,0,1,1.7-.7,1.5,1.5,0,0,1,1.5.8h0V70.5h.8Zm-.8-2.3v-.7a1.2,1.2,0,0,0-.4-1,1.2,1.2,0,0,0-1-.5A1.1,1.1,0,0,0,66,74a2.1,2.1,0,0,0-.5,1.5,2.5,2.5,0,0,0,.4,1.3,1.3,1.3,0,0,0,1.1.5,1.4,1.4,0,0,0,1.1-.4A2,2,0,0,0,68.5,75.6Z" transform="translate(-0.4 -1.6)"/><path d="M75,75.6H71.4a2.5,2.5,0,0,0,.5,1.3,1.6,1.6,0,0,0,1.2.4,2.7,2.7,0,0,0,1.5-.5v.7a2.9,2.9,0,0,1-1.7.5,2.1,2.1,0,0,1-1.7-.7,2.7,2.7,0,0,1-.6-1.9,2.5,2.5,0,0,1,.7-1.9,2,2,0,0,1,1.6-.7,1.8,1.8,0,0,1,1.5.6,2.4,2.4,0,0,1,.6,1.8Zm-.8-.7a2.1,2.1,0,0,0-.4-1.1,1.3,1.3,0,0,0-.9-.4,1.4,1.4,0,0,0-1,.5,1.5,1.5,0,0,0-.4,1Z" transform="translate(-0.4 -1.6)"/><path d="M79.8,77.2h0v.7H79V70.5h.8v3.3h0a1.9,1.9,0,0,1,1.7-1,1.8,1.8,0,0,1,1.5.6,2.8,2.8,0,0,1,.6,1.8,3.3,3.3,0,0,1-.6,2.1,2.1,2.1,0,0,1-1.7.7A1.6,1.6,0,0,1,79.8,77.2Zm0-2v.7a1.3,1.3,0,0,0,.4,1,1.2,1.2,0,0,0,1,.4,1.3,1.3,0,0,0,1.1-.5,2.5,2.5,0,0,0,.4-1.6,2.5,2.5,0,0,0-.3-1.3,1.4,1.4,0,0,0-1.1-.5,1.6,1.6,0,0,0-1.1.5A2,2,0,0,0,79.8,75.2Z" transform="translate(-0.4 -1.6)"/><path d="M88.9,77.9h-.8v-.8h0a1.7,1.7,0,0,1-1.6.9c-1.1,0-1.7-.7-1.7-2.1v-3h.8v2.9q0,1.5,1.2,1.5a1,1,0,0,0,.9-.4,1.5,1.5,0,0,0,.4-1.1V72.9h.8Z" transform="translate(-0.4 -1.6)"/><path d="M93.2,73.7l-.7-.2a1,1,0,0,0-.8.5,2.5,2.5,0,0,0-.4,1.3v2.6h-.8v-5h.8v1h.1a2.2,2.2,0,0,1,.5-.8,1.1,1.1,0,0,1,.8-.3h.5Z" transform="translate(-0.4 -1.6)"/><path d="M98.1,75.6H94.5a1.9,1.9,0,0,0,.5,1.3,1.6,1.6,0,0,0,1.2.4,3,3,0,0,0,1.5-.5v.7A2.9,2.9,0,0,1,96,78a2.1,2.1,0,0,1-1.7-.7,2.7,2.7,0,0,1-.6-1.9,2.5,2.5,0,0,1,.7-1.9,2,2,0,0,1,1.6-.7,1.8,1.8,0,0,1,1.5.6,2.4,2.4,0,0,1,.6,1.8Zm-.9-.7a2,2,0,0,0-.3-1.1,1.3,1.3,0,0,0-.9-.4,1.4,1.4,0,0,0-1,.5,2.3,2.3,0,0,0-.5,1Z" transform="translate(-0.4 -1.6)"/><path d="M102.9,77.9h-.8v-.8h0a1.8,1.8,0,0,1-1.6.9,1.6,1.6,0,0,1-1.2-.4,1.8,1.8,0,0,1-.4-1c0-1,.6-1.5,1.7-1.7l1.5-.2c0-.8-.4-1.3-1.1-1.3a2.6,2.6,0,0,0-1.6.7v-.9a3.3,3.3,0,0,1,1.7-.4,1.6,1.6,0,0,1,1.8,1.8Zm-.8-2.5h-1.2l-.9.3a.8.8,0,0,0-.3.7.9.9,0,0,0,.3.6.8.8,0,0,0,.7.2,1.3,1.3,0,0,0,1-.4,1.8,1.8,0,0,0,.4-1Z" transform="translate(-0.4 -1.6)"/><path d="M108.4,77.9h-.8v-.8h0a1.6,1.6,0,0,1-1.5.9q-1.8,0-1.8-2.1v-3h.8v2.9q0,1.5,1.2,1.5a1.3,1.3,0,0,0,1-.4,2,2,0,0,0,.3-1.1V72.9h.8Z" transform="translate(-0.4 -1.6)"/><path d="M44.3,6.5H41.6V5.9h2.7Z" transform="translate(-0.4 -1.6)" fill="#00b0f0"/><path d="M52,2.7H49.2V5.2h2.5v.7H49.2V9h-.8V2H52Z" transform="translate(-0.4 -1.6)" fill="#00b0f0"/><path d="M53.9,9h-.8V1.6h.8Z" transform="translate(-0.4 -1.6)" fill="#00b0f0"/><path d="M59.4,9h-.8V8.2h0a1.6,1.6,0,0,1-1.5.9q-1.8,0-1.8-2.1V4h.8V6.9q0,1.5,1.2,1.5a1.3,1.3,0,0,0,1-.4,2,2,0,0,0,.3-1.1V4h.8Z" transform="translate(-0.4 -1.6)" fill="#00b0f0"/><path d="M64.6,4,62.9,6.5,64.6,9h-1l-.9-1.6L62.4,7h0a1.1,1.1,0,0,0-.2.4L61.2,9h-.9L62,6.5,60.3,4h1l.9,1.7.3.4h0L63.7,4Z" transform="translate(-0.4 -1.6)" fill="#00b0f0"/><path d="M72.4,9h-.8V8.1h-.1a1.7,1.7,0,0,1-1.7,1,1.8,1.8,0,0,1-1.5-.7,2.4,2.4,0,0,1-.6-1.8,3.2,3.2,0,0,1,.7-2A1.9,1.9,0,0,1,70,3.9a1.5,1.5,0,0,1,1.5.8h.1V1.6h.8Zm-.8-2.3V6a1.8,1.8,0,0,0-.4-1,1.5,1.5,0,0,0-1.1-.4,1.2,1.2,0,0,0-1.1.5,2.1,2.1,0,0,0-.4,1.5A1.8,1.8,0,0,0,69,7.9a1,1,0,0,0,1,.5A1.2,1.2,0,0,0,71.1,8,2.1,2.1,0,0,0,71.6,6.7Z" transform="translate(-0.4 -1.6)" fill="#00b0f0"/><path d="M77.9,6.7H74.4A1.7,1.7,0,0,0,74.8,8a1.6,1.6,0,0,0,1.2.4,2,2,0,0,0,1.5-.5v.7a2.3,2.3,0,0,1-1.7.5,2.1,2.1,0,0,1-1.7-.7,2.7,2.7,0,0,1-.6-1.9,2.9,2.9,0,0,1,.7-1.9,2,2,0,0,1,1.6-.7,2.1,2.1,0,0,1,1.6.6,3,3,0,0,1,.5,1.8ZM77.1,6a1.5,1.5,0,0,0-.4-1.1,1.2,1.2,0,0,0-.9-.3,1,1,0,0,0-.9.4,1.2,1.2,0,0,0-.5,1Z" transform="translate(-0.4 -1.6)" fill="#00b0f0"/><path d="M85,8.8a2.5,2.5,0,0,1-1.3.3A2.1,2.1,0,0,1,82,8.4a2.1,2.1,0,0,1-.7-1.8,2.7,2.7,0,0,1,.7-2,2.5,2.5,0,0,1,1.9-.7l1.2.2v.8a2.7,2.7,0,0,0-1.2-.3,1.5,1.5,0,0,0-1.3.5,2.2,2.2,0,0,0-.5,1.4,2,2,0,0,0,.5,1.4,1.3,1.3,0,0,0,1.2.5A1.6,1.6,0,0,0,85,8Z" transform="translate(-0.4 -1.6)" fill="#00b0f0"/><path d="M88.3,9.1a2.1,2.1,0,0,1-1.8-.7,2.4,2.4,0,0,1-.7-1.8,2.6,2.6,0,0,1,.7-2,2.5,2.5,0,0,1,1.9-.7,2.1,2.1,0,0,1,1.7.7,2.7,2.7,0,0,1,.6,1.9,2.9,2.9,0,0,1-.6,1.9A2.4,2.4,0,0,1,88.3,9.1Zm0-4.5a1.3,1.3,0,0,0-1.2.5,2,2,0,0,0-.5,1.4,2,2,0,0,0,.5,1.4,1.7,1.7,0,0,0,2.4,0,2,2,0,0,0,.4-1.4,2,2,0,0,0-.4-1.4A1.3,1.3,0,0,0,88.3,4.6Z" transform="translate(-0.4 -1.6)" fill="#00b0f0"/><path d="M96.2,9h-.8V8.1h0a1.9,1.9,0,0,1-1.8,1,1.8,1.8,0,0,1-1.5-.7,3,3,0,0,1-.5-1.8,3.2,3.2,0,0,1,.6-2,2.1,2.1,0,0,1,1.7-.7,1.5,1.5,0,0,1,1.5.8h0V1.6h.8Zm-.8-2.3V6A1.4,1.4,0,0,0,94,4.6a1.3,1.3,0,0,0-1.2.5,2.1,2.1,0,0,0-.4,1.5,1.8,1.8,0,0,0,.4,1.3,1.2,1.2,0,0,0,1.1.5A1.5,1.5,0,0,0,95,8,2.8,2.8,0,0,0,95.4,6.7Z" transform="translate(-0.4 -1.6)" fill="#00b0f0"/><path d="M101.7,6.7H98.2A2.2,2.2,0,0,0,98.6,8a1.6,1.6,0,0,0,1.2.4,2.4,2.4,0,0,0,1.6-.5v.7a2.6,2.6,0,0,1-1.8.5A1.9,1.9,0,0,1,98,8.4a2.7,2.7,0,0,1-.6-1.9A2.9,2.9,0,0,1,98,4.6a2.2,2.2,0,0,1,1.7-.7,2,2,0,0,1,1.5.6,3,3,0,0,1,.5,1.8Zm-.8-.7a2,2,0,0,0-.3-1.1,1.4,1.4,0,0,0-.9-.3,1.3,1.3,0,0,0-1,.4,1.6,1.6,0,0,0-.5,1Z" transform="translate(-0.4 -1.6)" fill="#00b0f0"/><path d="M109.7,9h-.8V8.1h0a1.7,1.7,0,0,1-1.7,1,1.8,1.8,0,0,1-1.5-.7,2.4,2.4,0,0,1-.6-1.8,2.7,2.7,0,0,1,.7-2,1.9,1.9,0,0,1,1.6-.7,1.5,1.5,0,0,1,1.5.8h0V1.6h.8Zm-.8-2.3V6a1.3,1.3,0,0,0-.4-1,1.2,1.2,0,0,0-1-.4,1.2,1.2,0,0,0-1.1.5,2.1,2.1,0,0,0-.4,1.5,1.8,1.8,0,0,0,.4,1.3,1,1,0,0,0,1,.5,1.4,1.4,0,0,0,1.1-.4A2,2,0,0,0,108.9,6.7Z" transform="translate(-0.4 -1.6)" fill="#00b0f0"/><path d="M112.3,1.9l-.7,2.2H111l.5-2.2Z" transform="translate(-0.4 -1.6)" fill="#00b0f0"/><path d="M117,9h-.8V8.2h0a1.6,1.6,0,0,1-1.5.9,1.6,1.6,0,0,1-1.2-.4,1.2,1.2,0,0,1-.4-1c0-1,.5-1.5,1.6-1.7l1.5-.2c0-.8-.3-1.2-1-1.2a2.5,2.5,0,0,0-1.6.6V4.3a3.1,3.1,0,0,1,1.7-.4c1.1,0,1.7.6,1.7,1.8Zm-.8-2.5H115l-.8.3a.8.8,0,0,0-.3.7.6.6,0,0,0,.3.6c.1.2.4.2.7.2a1,1,0,0,0,.9-.4,1.3,1.3,0,0,0,.4-1Z" transform="translate(-0.4 -1.6)" fill="#00b0f0"/><path d="M122.5,9h-.8V8.2h0a1.8,1.8,0,0,1-1.6.9q-1.8,0-1.8-2.1V4h.8V6.9q0,1.5,1.2,1.5a1.2,1.2,0,0,0,1-.4,1.5,1.5,0,0,0,.4-1.1V4h.8Z" transform="translate(-0.4 -1.6)" fill="#00b0f0"/><path d="M126.3,8.9a.8.8,0,0,1-.7.2c-.9,0-1.3-.5-1.3-1.5V4.7h-.9V4h.9V2.8l.8-.3V4h1.2v.7h-1.2V7.5c0,.3,0,.6.1.7s.3.2.6.2h.5Z" transform="translate(-0.4 -1.6)" fill="#00b0f0"/><path d="M129.4,9.1a2.3,2.3,0,0,1-1.8-.7,2.8,2.8,0,0,1-.6-1.8,3,3,0,0,1,.6-2,2.5,2.5,0,0,1,1.9-.7,2.1,2.1,0,0,1,1.7.7,2.4,2.4,0,0,1,.7,1.9,2.9,2.9,0,0,1-.7,1.9A2.4,2.4,0,0,1,129.4,9.1Zm0-4.5a1.3,1.3,0,0,0-1.2.5,2,2,0,0,0-.4,1.4,2,2,0,0,0,.4,1.4,1.3,1.3,0,0,0,1.2.5c.6,0,1-.1,1.2-.5a2,2,0,0,0,.5-1.4,2,2,0,0,0-.5-1.4C130.4,4.7,130,4.6,129.4,4.6Z" transform="translate(-0.4 -1.6)" fill="#00b0f0"/><path d="M135.7,4.8l-.6-.2a1.1,1.1,0,0,0-.9.5,2.8,2.8,0,0,0-.3,1.3V9h-.8V4h.8V5h0a2.2,2.2,0,0,1,.5-.8,1.1,1.1,0,0,1,.8-.3h.5Z" transform="translate(-0.4 -1.6)" fill="#00b0f0"/><path d="M136.8,2.7h-.3a.5.5,0,0,1-.2-.4.8.8,0,0,1,.2-.4h.7a.8.8,0,0,1,.2.4.5.5,0,0,1-.2.4Zm.4,6.3h-.8V4h.8Z" transform="translate(-0.4 -1.6)" fill="#00b0f0"/><path d="M138.4,8.8V8a2.8,2.8,0,0,0,1.5.4c.7,0,1-.2,1-.7V7.4l-.3-.3h-.4a.5.5,0,0,0-.4-.2l-.6-.3-.4-.3-.3-.4V5.3a1.3,1.3,0,0,1,.1-.6l.4-.5.7-.2h.7l1.1.2v.8a2.4,2.4,0,0,0-1.2-.3h-.8l-.2.3v.6l.3.2c0,.1.2.1.3.2l.4.2.6.2.5.3.3.4c0,.2.1.4.1.6a1.4,1.4,0,0,1-.2.6l-.4.5-.7.2h-.7A3.2,3.2,0,0,1,138.4,8.8Z" transform="translate(-0.4 -1.6)" fill="#00b0f0"/><path d="M146.5,9h-.8V8.2h0a1.8,1.8,0,0,1-1.6.9,1.6,1.6,0,0,1-1.2-.4,1.5,1.5,0,0,1-.4-1c0-1,.6-1.5,1.7-1.7l1.5-.2c0-.8-.4-1.2-1.1-1.2a2.5,2.5,0,0,0-1.6.6V4.3a3.3,3.3,0,0,1,1.7-.4,1.6,1.6,0,0,1,1.8,1.8Zm-.8-2.5h-1.2l-.9.3a.8.8,0,0,0-.3.7.6.6,0,0,0,.3.6.8.8,0,0,0,.7.2,1.3,1.3,0,0,0,1-.4,1.8,1.8,0,0,0,.4-1Z" transform="translate(-0.4 -1.6)" fill="#00b0f0"/><path d="M150.2,8.9a.8.8,0,0,1-.7.2c-.9,0-1.4-.5-1.4-1.5V4.7h-.8V4h.8V2.8l.8-.3V4h1.3v.7h-1.3V7.5a1.2,1.2,0,0,0,.2.7c.1.2.3.2.6.2h.5Z" transform="translate(-0.4 -1.6)" fill="#00b0f0"/><path d="M151.6,2.7h-.4c-.1-.1-.1-.2-.1-.4a.6.6,0,0,1,.1-.4h.8a.6.6,0,0,1,.1.4c0,.2,0,.3-.1.4ZM152,9h-.8V4h.8Z" transform="translate(-0.4 -1.6)" fill="#00b0f0"/><path d="M155.6,9.1a2.3,2.3,0,0,1-1.8-.7,2.9,2.9,0,0,1-.7-1.8,3,3,0,0,1,.7-2,2.5,2.5,0,0,1,1.9-.7,2.1,2.1,0,0,1,1.7.7,2.4,2.4,0,0,1,.7,1.9,2.9,2.9,0,0,1-.7,1.9A2.4,2.4,0,0,1,155.6,9.1Zm0-4.5a1.3,1.3,0,0,0-1.2.5,2,2,0,0,0-.4,1.4,2,2,0,0,0,.4,1.4,1.3,1.3,0,0,0,1.2.5c.6,0,1-.1,1.2-.5a2,2,0,0,0,.5-1.4,2,2,0,0,0-.5-1.4C156.6,4.7,156.2,4.6,155.6,4.6Z" transform="translate(-0.4 -1.6)" fill="#00b0f0"/><path d="M163.4,9h-.8V6.1q0-1.5-1.2-1.5a1.3,1.3,0,0,0-1,.4,2,2,0,0,0-.3,1.1V9h-.8V4h.8v.8h0a1.7,1.7,0,0,1,1.6-.9,1.7,1.7,0,0,1,1.3.5,2.4,2.4,0,0,1,.4,1.5Z" transform="translate(-0.4 -1.6)" fill="#00b0f0"/><path d="M169.5,10.6h-.7a6.4,6.4,0,0,1-1.5-4.3A6.4,6.4,0,0,1,168.8,2h.8A6.2,6.2,0,0,0,168,6.3,6.6,6.6,0,0,0,169.5,10.6Z" transform="translate(-0.4 -1.6)" fill="#00b0f0"/><path d="M173.9,9h-.8V8.2h0a1.6,1.6,0,0,1-1.5.9,1.6,1.6,0,0,1-1.2-.4,1.2,1.2,0,0,1-.4-1c0-1,.5-1.5,1.6-1.7l1.5-.2c0-.8-.3-1.2-1-1.2a2.5,2.5,0,0,0-1.6.6V4.3a3.1,3.1,0,0,1,1.7-.4c1.2,0,1.7.6,1.7,1.8Zm-.8-2.5h-1.2l-.8.3a.8.8,0,0,0-.3.7.6.6,0,0,0,.3.6.8.8,0,0,0,.7.2,1.3,1.3,0,0,0,1-.4,1.7,1.7,0,0,0,.3-1Z" transform="translate(-0.4 -1.6)" fill="#00b0f0"/><path d="M179.3,4l-2,5h-.8l-1.9-5h.9l1.3,3.6a2,2,0,0,1,.1.7h.1a1.7,1.7,0,0,1,.1-.7L178.4,4Z" transform="translate(-0.4 -1.6)" fill="#00b0f0"/><path d="M184.1,6.7h-3.6A1.7,1.7,0,0,0,181,8a1.6,1.6,0,0,0,1.2.4,2.3,2.3,0,0,0,1.5-.5v.7a2.3,2.3,0,0,1-1.7.5,2.1,2.1,0,0,1-1.7-.7,2.7,2.7,0,0,1-.6-1.9,2.5,2.5,0,0,1,.7-1.9,2,2,0,0,1,1.6-.7,1.8,1.8,0,0,1,1.5.6,2.4,2.4,0,0,1,.6,1.8Zm-.9-.7a2,2,0,0,0-.3-1.1,1.2,1.2,0,0,0-.9-.3,1.3,1.3,0,0,0-1,.4,2.3,2.3,0,0,0-.5,1Z" transform="translate(-0.4 -1.6)" fill="#00b0f0"/><path d="M188.6,8.8a3.2,3.2,0,0,1-1.4.3,2.1,2.1,0,0,1-1.7-.7,2.5,2.5,0,0,1-.7-1.8,3.2,3.2,0,0,1,.7-2,2.5,2.5,0,0,1,1.9-.7l1.2.2v.8a2.7,2.7,0,0,0-1.2-.3,1.7,1.7,0,0,0-1.3.5,2.1,2.1,0,0,0-.4,1.4,2,2,0,0,0,.4,1.4,1.4,1.4,0,0,0,1.3.5,1.9,1.9,0,0,0,1.2-.4Z" transform="translate(-0.4 -1.6)" fill="#00b0f0"/><path d="M193.3,6.3V9h-.9V2h2a2.9,2.9,0,0,1,1.7.5,2.1,2.1,0,0,1,.6,1.6,2,2,0,0,1-.7,1.6,2.4,2.4,0,0,1-1.8.6Zm0-3.6V5.6h.8a1.7,1.7,0,0,0,1.3-.4,1.3,1.3,0,0,0,.5-1.1c0-.9-.6-1.4-1.7-1.4Z" transform="translate(-0.4 -1.6)" fill="#00b0f0"/><path d="M202.8,9h-1.1L199,5.8l-.2-.3h0V9h-.9V2h.9V5.3h0L199,5l2.6-3h1l-3,3.4Z" transform="translate(-0.4 -1.6)" fill="#00b0f0"/><path d="M208,8.7a4,4,0,0,1-2,.4,3.2,3.2,0,0,1-2.4-.9,3.7,3.7,0,0,1-.9-2.6,3.7,3.7,0,0,1,1.1-2.7,3.2,3.2,0,0,1,2.5-1,4.3,4.3,0,0,1,1.7.3V3a4.7,4.7,0,0,0-1.7-.4,2.6,2.6,0,0,0-1.9.8,3.3,3.3,0,0,0-.8,2.2,2.7,2.7,0,0,0,.7,2,2.5,2.5,0,0,0,1.8.8,3.8,3.8,0,0,0,1.9-.5Z" transform="translate(-0.4 -1.6)" fill="#00b0f0"/><path d="M213,9h-3.7V2h3.5v.7h-2.7V5.1h2.5v.7h-2.5V8.3H213Z" transform="translate(-0.4 -1.6)" fill="#00b0f0"/><path d="M214.2,10.6h-.7A6.6,6.6,0,0,0,215,6.3,6.2,6.2,0,0,0,213.4,2h.8a6.4,6.4,0,0,1,1.5,4.3A6.4,6.4,0,0,1,214.2,10.6Z" transform="translate(-0.4 -1.6)" fill="#00b0f0"/><path d="M44.3,18.5H41.6v-.6h2.7Z" transform="translate(-0.4 -1.6)" fill="#00b0f0"/><path d="M53.8,21h-.9l-.7-2h-3l-.7,2h-.9l2.7-7h.8Zm-1.9-2.7-1.1-3a2,2,0,0,1-.1-.5h0a1.1,1.1,0,0,0-.1.5l-1.1,3Z" transform="translate(-0.4 -1.6)" fill="#00b0f0"/><path d="M58.7,21h-.8v-.8h0a1.8,1.8,0,0,1-1.6.9q-1.8,0-1.8-2.1V16h.8v2.9q0,1.5,1.2,1.5a1.2,1.2,0,0,0,1-.4,1.5,1.5,0,0,0,.4-1.1V16h.8Z" transform="translate(-0.4 -1.6)" fill="#00b0f0"/><path d="M62.5,20.9a.8.8,0,0,1-.7.2c-.9,0-1.3-.5-1.3-1.5V16.7h-.9V16h.9V14.8l.8-.3V16h1.2v.7H61.3v2.8c0,.3,0,.6.1.7s.3.2.6.2h.5Z" transform="translate(-0.4 -1.6)" fill="#00b0f0"/><path d="M67.6,21h-.8V18.1c0-1-.3-1.5-1.1-1.5a1.3,1.3,0,0,0-1,.4,1.6,1.6,0,0,0-.4,1.2V21h-.8V13.6h.8v3.2h0a1.9,1.9,0,0,1,1.7-.9c1.1,0,1.6.7,1.6,2Z" transform="translate(-0.4 -1.6)" fill="#00b0f0"/><path d="M73.1,18.7H69.5A1.7,1.7,0,0,0,70,20a1.6,1.6,0,0,0,1.2.4,2.3,2.3,0,0,0,1.5-.5v.7a2.3,2.3,0,0,1-1.7.5,2.1,2.1,0,0,1-1.7-.7,2.7,2.7,0,0,1-.6-1.9,2.5,2.5,0,0,1,.7-1.9,2,2,0,0,1,1.6-.7,1.8,1.8,0,0,1,1.5.6,2.4,2.4,0,0,1,.6,1.8Zm-.9-.7a2,2,0,0,0-.3-1.1,1.2,1.2,0,0,0-.9-.3,1.3,1.3,0,0,0-1,.4,2.3,2.3,0,0,0-.5,1Z" transform="translate(-0.4 -1.6)" fill="#00b0f0"/><path d="M78.3,21h-.8V18.1c0-1-.4-1.5-1.1-1.5a1.2,1.2,0,0,0-1,.4,1.5,1.5,0,0,0-.4,1.1V21h-.8V16H75v.8h0a1.8,1.8,0,0,1,1.6-.9,1.7,1.7,0,0,1,1.3.5,2.4,2.4,0,0,1,.4,1.5Z" transform="translate(-0.4 -1.6)" fill="#00b0f0"/><path d="M82.1,20.9a1.1,1.1,0,0,1-.8.2c-.9,0-1.3-.5-1.3-1.5V16.7h-.9V16H80V14.8l.8-.3V16h1.3v.7H80.8v2.8a1.2,1.2,0,0,0,.2.7c.1.2.3.2.5.2h.6Z" transform="translate(-0.4 -1.6)" fill="#00b0f0"/><path d="M83.4,14.7h-.3a.5.5,0,0,1-.2-.4l.2-.4h.7a.8.8,0,0,1,.2.4.5.5,0,0,1-.2.4Zm.4,6.3H83V16h.8Z" transform="translate(-0.4 -1.6)" fill="#00b0f0"/><path d="M87.8,14.3h-.5c-.6,0-.9.3-.9,1V16h1.2v.7H86.4V21h-.7V16.7h-.9V16h.9v-.8a1.8,1.8,0,0,1,.4-1.3,1.5,1.5,0,0,1,1.1-.4h.6Z" transform="translate(-0.4 -1.6)" fill="#00b0f0"/><path d="M88.8,14.7h-.4c-.1-.1-.1-.2-.1-.4a.6.6,0,0,1,.1-.4h.8a.6.6,0,0,1,.1.4c0,.2,0,.3-.1.4Zm.4,6.3h-.8V16h.8Z" transform="translate(-0.4 -1.6)" fill="#00b0f0"/><path d="M94.1,20.8a2.9,2.9,0,0,1-1.4.3,2.2,2.2,0,0,1-1.7-.7,2.4,2.4,0,0,1-.6-1.8,2.7,2.7,0,0,1,.7-2,2.4,2.4,0,0,1,1.9-.7l1.1.2v.8a2.7,2.7,0,0,0-1.2-.3,1.3,1.3,0,0,0-1.2.5,1.7,1.7,0,0,0-.5,1.4,2,2,0,0,0,.4,1.4,1.5,1.5,0,0,0,1.3.5,1.9,1.9,0,0,0,1.2-.4Z" transform="translate(-0.4 -1.6)" fill="#00b0f0"/><path d="M98.8,21H98v-.8h0a1.8,1.8,0,0,1-1.6.9,1.4,1.4,0,0,1-1.1-.4,1.2,1.2,0,0,1-.5-1c0-1,.6-1.5,1.7-1.7l1.5-.2c0-.8-.3-1.2-1-1.2a2.7,2.7,0,0,0-1.7.6v-.9a3.3,3.3,0,0,1,1.7-.4,1.6,1.6,0,0,1,1.8,1.8ZM98,18.5H96.8l-.8.3a.8.8,0,0,0-.3.7.7.7,0,0,0,.9.8A1.4,1.4,0,0,0,98,19Z" transform="translate(-0.4 -1.6)" fill="#00b0f0"/><path d="M102.5,20.9a.8.8,0,0,1-.7.2c-.9,0-1.3-.5-1.3-1.5V16.7h-.9V16h.9V14.8l.8-.3V16h1.2v.7h-1.2v2.8c0,.3,0,.6.1.7s.3.2.6.2h.5Z" transform="translate(-0.4 -1.6)" fill="#00b0f0"/><path d="M103.9,14.7h-.4c-.1-.1-.1-.2-.1-.4a.6.6,0,0,1,.1-.4h.8a.6.6,0,0,1,.1.4c0,.2,0,.3-.1.4Zm.4,6.3h-.8V16h.8Z" transform="translate(-0.4 -1.6)" fill="#00b0f0"/><path d="M107.9,21.1a2.4,2.4,0,0,1-1.8-.7,2.8,2.8,0,0,1-.6-1.8,2.6,2.6,0,0,1,.7-2,2.7,2.7,0,0,1,3.6,0,2.7,2.7,0,0,1,.6,1.9,2.5,2.5,0,0,1-.7,1.9A2.1,2.1,0,0,1,107.9,21.1Zm.1-4.5a1.5,1.5,0,0,0-1.3.5,2,2,0,0,0-.4,1.4,2,2,0,0,0,.4,1.4,1.7,1.7,0,0,0,1.3.5,1.3,1.3,0,0,0,1.2-.5,2.6,2.6,0,0,0,0-2.8A1.3,1.3,0,0,0,108,16.6Z" transform="translate(-0.4 -1.6)" fill="#00b0f0"/><path d="M115.7,21h-.8V18.1c0-1-.4-1.5-1.1-1.5a1.2,1.2,0,0,0-1,.4,1.5,1.5,0,0,0-.4,1.1V21h-.8V16h.8v.8h0a1.8,1.8,0,0,1,1.6-.9,1.7,1.7,0,0,1,1.3.5,2.4,2.4,0,0,1,.4,1.5Z" transform="translate(-0.4 -1.6)" fill="#00b0f0"/><path d="M128.2,14l-2,7h-1l-1.4-5.1a1.7,1.7,0,0,1-.1-.7h0a2.5,2.5,0,0,1-.2.7L122.1,21h-1l-2-7h.9l1.5,5.4c0,.2.1.4.1.7h0a2.5,2.5,0,0,1,.2-.7l1.5-5.4h.8l1.5,5.4c0,.2.1.4.1.7h0a2.5,2.5,0,0,1,.2-.7l1.4-5.4Z" transform="translate(-0.4 -1.6)" fill="#00b0f0"/><path d="M129.4,14.7h-.3a.5.5,0,0,1-.2-.4l.2-.4h.7l.2.4a.5.5,0,0,1-.2.4Zm.4,6.3H129V16h.8Z" transform="translate(-0.4 -1.6)" fill="#00b0f0"/><path d="M135.5,21h-.8V18.1q0-1.5-1.2-1.5a1.3,1.3,0,0,0-1,.4,2.1,2.1,0,0,0-.4,1.1V21h-.8V16h.8v.8h.1a1.7,1.7,0,0,1,1.6-.9,1.9,1.9,0,0,1,1.3.5,3.3,3.3,0,0,1,.4,1.5Z" transform="translate(-0.4 -1.6)" fill="#00b0f0"/><path d="M141.2,21h-.8v-.9h-.1a1.7,1.7,0,0,1-1.7,1,1.8,1.8,0,0,1-1.5-.7,2.4,2.4,0,0,1-.5-1.8,3.2,3.2,0,0,1,.6-2,2,2,0,0,1,1.6-.7,1.5,1.5,0,0,1,1.5.8h.1V13.6h.8Zm-.8-2.3V18a1.8,1.8,0,0,0-.4-1,1.4,1.4,0,0,0-1.1-.4,1.3,1.3,0,0,0-1.1.5,2.1,2.1,0,0,0-.4,1.5,1.8,1.8,0,0,0,.4,1.3c.2.4.6.5,1.1.5a1.2,1.2,0,0,0,1-.4A2.1,2.1,0,0,0,140.4,18.7Z" transform="translate(-0.4 -1.6)" fill="#00b0f0"/><path d="M144.8,21.1a2.1,2.1,0,0,1-1.8-.7,2.9,2.9,0,0,1-.7-1.8,3,3,0,0,1,.7-2,2.5,2.5,0,0,1,1.9-.7,2.1,2.1,0,0,1,1.7.7,2.4,2.4,0,0,1,.7,1.9,2.9,2.9,0,0,1-.7,1.9A2.4,2.4,0,0,1,144.8,21.1Zm0-4.5a1.3,1.3,0,0,0-1.2.5,2,2,0,0,0-.4,1.4,2,2,0,0,0,.4,1.4,1.3,1.3,0,0,0,1.2.5,1.2,1.2,0,0,0,1.2-.5,2,2,0,0,0,.4-1.4,2,2,0,0,0-.4-1.4A1.2,1.2,0,0,0,144.8,16.6Z" transform="translate(-0.4 -1.6)" fill="#00b0f0"/><path d="M154.7,16l-1.5,5h-.8l-1-3.6a.6.6,0,0,1-.1-.4h0c0,.1-.1.2-.1.4L150.1,21h-.8l-1.5-5h.8l1,3.8c.1.1.1.2.1.4h0a4.3,4.3,0,0,0,.1-.5L151,16h.7l1,3.8c.1.1.1.2.1.4h.1v-.4L154,16Z" transform="translate(-0.4 -1.6)" fill="#00b0f0"/><path d="M155.3,20.8V20a2.3,2.3,0,0,0,1.4.4c.7,0,1.1-.2,1.1-.7s-.1-.2-.1-.3l-.3-.3h-.3l-.5-.2-.6-.3-.4-.3a.5.5,0,0,1-.2-.4.7.7,0,0,1-.1-.5,1.3,1.3,0,0,1,.1-.6c.1-.2.3-.3.5-.5l.6-.2h.7l1.2.2v.8a2.8,2.8,0,0,0-1.3-.3h-.7c-.1.1-.2.2-.2.3a.5.5,0,0,0,0,.6l.2.2.3.2.5.2.5.2.5.3.3.4a1.3,1.3,0,0,1,.1.6,1.4,1.4,0,0,1-.2.6l-.4.5-.6.2h-.8A2.5,2.5,0,0,1,155.3,20.8Z" transform="translate(-0.4 -1.6)" fill="#00b0f0"/><path d="M162.8,14.7h-.4a.5.5,0,0,1-.2-.4l.2-.4h.7l.2.4a.5.5,0,0,1-.2.4Zm.4,6.3h-.8V16h.8Z" transform="translate(-0.4 -1.6)" fill="#00b0f0"/><path d="M168.8,21H168V18.1c0-1-.4-1.5-1.1-1.5a1.2,1.2,0,0,0-1,.4,1.5,1.5,0,0,0-.4,1.1V21h-.8V16h.8v.8h0a1.8,1.8,0,0,1,1.6-.9,1.7,1.7,0,0,1,1.3.5,2.4,2.4,0,0,1,.4,1.5Z" transform="translate(-0.4 -1.6)" fill="#00b0f0"/><path d="M172.6,20.9a1.1,1.1,0,0,1-.8.2c-.9,0-1.3-.5-1.3-1.5V16.7h-.9V16h.9V14.8l.8-.3V16h1.3v.7h-1.3v2.8a1.2,1.2,0,0,0,.2.7c.1.2.3.2.5.2h.6Z" transform="translate(-0.4 -1.6)" fill="#00b0f0"/><path d="M177.5,18.7H174a1.7,1.7,0,0,0,.5,1.3,1.2,1.2,0,0,0,1.1.4,2.4,2.4,0,0,0,1.6-.5v.7a2.3,2.3,0,0,1-1.7.5,1.9,1.9,0,0,1-1.7-.7,2.7,2.7,0,0,1-.6-1.9,2.9,2.9,0,0,1,.6-1.9,2.2,2.2,0,0,1,1.7-.7,2,2,0,0,1,1.5.6,2.4,2.4,0,0,1,.5,1.8Zm-.8-.7a2,2,0,0,0-.3-1.1,1.2,1.2,0,0,0-.9-.3,1.3,1.3,0,0,0-1,.4,1.6,1.6,0,0,0-.5,1Zm-.1-4.6L175.3,15h-.6l1.1-1.6Z" transform="translate(-0.4 -1.6)" fill="#00b0f0"/><path d="M182.9,20.6c0,1.8-.9,2.7-2.6,2.7a3.8,3.8,0,0,1-1.6-.3v-.8a3.3,3.3,0,0,0,1.6.5c1.2,0,1.8-.7,1.8-2v-.5h0a2,2,0,0,1-1.7.9,1.8,1.8,0,0,1-1.5-.7,2.4,2.4,0,0,1-.6-1.7,3.3,3.3,0,0,1,.6-2.1,2.1,2.1,0,0,1,1.7-.7,1.5,1.5,0,0,1,1.5.8h0V16h.8Zm-.8-1.9V18a1.4,1.4,0,0,0-1.4-1.4c-.5,0-.9.1-1.1.5a2.5,2.5,0,0,0-.5,1.5,2.2,2.2,0,0,0,.4,1.3,1.3,1.3,0,0,0,1.1.5,1.5,1.5,0,0,0,1.1-.4A2,2,0,0,0,182.1,18.7Z" transform="translate(-0.4 -1.6)" fill="#00b0f0"/><path d="M187,16.8l-.6-.2a1,1,0,0,0-.8.5,2.8,2.8,0,0,0-.4,1.3V21h-.8V16h.8v1h.1a1.4,1.4,0,0,1,.5-.8,1.1,1.1,0,0,1,.8-.3h.4Z" transform="translate(-0.4 -1.6)" fill="#00b0f0"/><path d="M191.8,18.7h-3.5a1.7,1.7,0,0,0,.5,1.3,1.2,1.2,0,0,0,1.1.4,2.4,2.4,0,0,0,1.6-.5v.7a2.4,2.4,0,0,1-1.8.5,1.9,1.9,0,0,1-1.6-.7,2.7,2.7,0,0,1-.6-1.9,2.9,2.9,0,0,1,.6-1.9,2.2,2.2,0,0,1,1.7-.7,2,2,0,0,1,1.5.6,2.4,2.4,0,0,1,.5,1.8ZM191,18a2,2,0,0,0-.3-1.1,1.2,1.2,0,0,0-.9-.3,1.3,1.3,0,0,0-1,.4,1.6,1.6,0,0,0-.5,1Zm-.1-4.6L189.6,15H189l1.1-1.6Z" transform="translate(-0.4 -1.6)" fill="#00b0f0"/><path d="M197,18.7h-3.6a1.7,1.7,0,0,0,.5,1.3,1.6,1.6,0,0,0,1.2.4,2.3,2.3,0,0,0,1.5-.5v.7a2.3,2.3,0,0,1-1.7.5,2.1,2.1,0,0,1-1.7-.7,2.7,2.7,0,0,1-.6-1.9,2.5,2.5,0,0,1,.7-1.9,2,2,0,0,1,1.6-.7,1.8,1.8,0,0,1,1.5.6,2.4,2.4,0,0,1,.6,1.8Zm-.9-.7a2,2,0,0,0-.3-1.1,1.2,1.2,0,0,0-.9-.3,1.3,1.3,0,0,0-1,.4,2.3,2.3,0,0,0-.5,1Z" transform="translate(-0.4 -1.6)" fill="#00b0f0"/><path d="M44.3,30.5H41.6v-.6h2.7Z" transform="translate(-0.4 -1.6)" fill="#00b0f0"/><path d="M54,33H53l-3.6-5.6c-.1-.1-.1-.3-.2-.4h0v6h-.8V26h1.1L53,31.5l.3.5h0a3.1,3.1,0,0,1-.1-1.1V26H54Z" transform="translate(-0.4 -1.6)" fill="#00b0f0"/><path d="M57.8,33.1a2.1,2.1,0,0,1-1.8-.7,2.4,2.4,0,0,1-.7-1.8,3,3,0,0,1,.7-2,2.5,2.5,0,0,1,1.9-.7,2.1,2.1,0,0,1,1.7.7,2.7,2.7,0,0,1,.7,1.9,2.9,2.9,0,0,1-.7,1.9A2.4,2.4,0,0,1,57.8,33.1Zm0-4.5a1.3,1.3,0,0,0-1.2.5,2.2,2.2,0,0,0,0,2.8,1.7,1.7,0,0,0,2.4,0,2,2,0,0,0,.4-1.4,2,2,0,0,0-.4-1.4A1.3,1.3,0,0,0,57.8,28.6Z" transform="translate(-0.4 -1.6)" fill="#00b0f0"/><path d="M68.5,33h-.8V30.1a3.7,3.7,0,0,0-.2-1.2,1.3,1.3,0,0,0-1.8.1,2,2,0,0,0-.3,1.1V33h-.8V30c0-1-.4-1.4-1.2-1.4a.9.9,0,0,0-.8.4,1.5,1.5,0,0,0-.4,1.1V33h-.8V28h.8v.8h.1a1.6,1.6,0,0,1,1.5-.9,1.6,1.6,0,0,1,.9.3,1.2,1.2,0,0,1,.5.7,1.8,1.8,0,0,1,1.7-1c1.1,0,1.6.7,1.6,2Z" transform="translate(-0.4 -1.6)" fill="#00b0f0"/><path d="M76.9,33H76v-.9h0a1.7,1.7,0,0,1-1.7,1,1.8,1.8,0,0,1-1.5-.7,2.4,2.4,0,0,1-.6-1.8,2.7,2.7,0,0,1,.7-2,1.9,1.9,0,0,1,1.6-.7,1.5,1.5,0,0,1,1.5.8h0V25.6h.9ZM76,30.7V30a1.3,1.3,0,0,0-.4-1,1.2,1.2,0,0,0-1-.4,1.2,1.2,0,0,0-1.1.5,2.1,2.1,0,0,0-.4,1.5,1.8,1.8,0,0,0,.4,1.3,1,1,0,0,0,1,.5,1.2,1.2,0,0,0,1.1-.4A2,2,0,0,0,76,30.7Z" transform="translate(-0.4 -1.6)" fill="#00b0f0"/><path d="M79.4,25.9l-.7,2.2h-.6l.5-2.2Z" transform="translate(-0.4 -1.6)" fill="#00b0f0"/><path d="M84.6,33h-.8v-.8h0a1.7,1.7,0,0,1-1.6.9c-1.2,0-1.7-.7-1.7-2.1V28h.8v2.9q0,1.5,1.2,1.5a1,1,0,0,0,.9-.4,1.5,1.5,0,0,0,.4-1.1V28h.8Z" transform="translate(-0.4 -1.6)" fill="#00b0f0"/><path d="M88.4,32.9c-.1.2-.4.2-.7.2s-1.3-.5-1.3-1.5V28.7h-.9V28h.9V26.8l.8-.3V28h1.2v.7H87.2v2.8c0,.3,0,.6.2.7s.3.2.5.2h.5Z" transform="translate(-0.4 -1.6)" fill="#00b0f0"/><path d="M89.8,26.7h-.3a.5.5,0,0,1-.2-.4l.2-.4h.7a.6.6,0,0,1,.1.4c0,.2,0,.3-.1.4Zm.4,6.3h-.8V28h.8Z" transform="translate(-0.4 -1.6)" fill="#00b0f0"/><path d="M92.5,33h-.8V25.6h.8Z" transform="translate(-0.4 -1.6)" fill="#00b0f0"/><path d="M94.5,26.7h-.4a.5.5,0,0,1-.2-.4.8.8,0,0,1,.2-.4h.7a.8.8,0,0,1,.2.4.5.5,0,0,1-.2.4Zm.4,6.3h-.8V28h.8Z" transform="translate(-0.4 -1.6)" fill="#00b0f0"/><path d="M96.1,32.8V32a2.3,2.3,0,0,0,1.4.4c.7,0,1.1-.2,1.1-.7s-.1-.2-.1-.3l-.3-.3h-.3l-.5-.2-.6-.3-.4-.3a.5.5,0,0,1-.2-.4.7.7,0,0,1-.1-.5,1.3,1.3,0,0,1,.1-.6l.5-.5.6-.2H98l1.2.2v.8a2.8,2.8,0,0,0-1.3-.3h-.7c-.1.1-.2.2-.2.3a.5.5,0,0,0,0,.6l.2.2.3.2.5.2.6.2.4.3.3.4a1.3,1.3,0,0,1,.1.6,1.4,1.4,0,0,1-.2.6l-.4.5-.6.2h-.8A2.8,2.8,0,0,1,96.1,32.8Z" transform="translate(-0.4 -1.6)" fill="#00b0f0"/><path d="M104.1,33h-.8v-.8h0a1.8,1.8,0,0,1-1.6.9,1.4,1.4,0,0,1-1.1-.4,1.2,1.2,0,0,1-.5-1c0-1,.6-1.5,1.7-1.7l1.5-.2c0-.8-.3-1.2-1-1.2a2.7,2.7,0,0,0-1.7.6v-.9a3.3,3.3,0,0,1,1.7-.4,1.6,1.6,0,0,1,1.8,1.8Zm-.8-2.5h-1.2l-.8.3a.8.8,0,0,0-.3.7.7.7,0,0,0,.9.8,1.2,1.2,0,0,0,1-.4,1.3,1.3,0,0,0,.4-1Z" transform="translate(-0.4 -1.6)" fill="#00b0f0"/><path d="M107.8,32.9a.8.8,0,0,1-.7.2c-.9,0-1.3-.5-1.3-1.5V28.7h-.9V28h.9V26.8l.8-.3V28h1.2v.7h-1.2v2.8c0,.3,0,.6.1.7s.3.2.6.2h.5Z" transform="translate(-0.4 -1.6)" fill="#00b0f0"/><path d="M112.8,30.7h-3.5a1.7,1.7,0,0,0,.4,1.3,1.6,1.6,0,0,0,1.2.4,2.4,2.4,0,0,0,1.6-.5v.7a2.7,2.7,0,0,1-1.8.5,1.9,1.9,0,0,1-1.6-.7,2.7,2.7,0,0,1-.6-1.9,2.9,2.9,0,0,1,.6-1.9,2.2,2.2,0,0,1,1.7-.7,2,2,0,0,1,1.5.6,3,3,0,0,1,.5,1.8ZM112,30a2,2,0,0,0-.3-1.1,1.7,1.7,0,0,0-1-.3,1.1,1.1,0,0,0-.9.4,1.6,1.6,0,0,0-.5,1Z" transform="translate(-0.4 -1.6)" fill="#00b0f0"/><path d="M118,33h-.8v-.8h-.1a1.6,1.6,0,0,1-1.5.9q-1.8,0-1.8-2.1V28h.8v2.9q0,1.5,1.2,1.5a1.3,1.3,0,0,0,1-.4,2.1,2.1,0,0,0,.4-1.1V28h.8Z" transform="translate(-0.4 -1.6)" fill="#00b0f0"/><path d="M122.1,28.8l-.6-.2c-.4,0-.6.2-.9.5a2.8,2.8,0,0,0-.3,1.3V33h-.8V28h.8v1h0a2.2,2.2,0,0,1,.5-.8,1.3,1.3,0,0,1,.8-.3h.5Z" transform="translate(-0.4 -1.6)" fill="#00b0f0"/><path d="M126,26l-3.3,8.2h-.8l3.4-8.2Z" transform="translate(-0.4 -1.6)" fill="#00b0f0"/><path d="M133.8,33H133V30.1a2.1,2.1,0,0,0-.3-1.2,1.2,1.2,0,0,0-.9-.3.9.9,0,0,0-.8.4,1.5,1.5,0,0,0-.4,1.1V33h-.8V30c0-1-.4-1.4-1.1-1.4a1,1,0,0,0-.9.4,2,2,0,0,0-.3,1.1V33h-.8V28h.8v.8h0a1.6,1.6,0,0,1,1.5-.9,1.2,1.2,0,0,1,.9.3c.3.2.5.4.5.7a1.9,1.9,0,0,1,1.7-1c1.1,0,1.7.7,1.7,2Z" transform="translate(-0.4 -1.6)" fill="#00b0f0"/><path d="M137.3,33.1a2.1,2.1,0,0,1-1.8-.7,2.4,2.4,0,0,1-.7-1.8,3,3,0,0,1,.7-2,2.5,2.5,0,0,1,1.9-.7,2.1,2.1,0,0,1,1.7.7,2.7,2.7,0,0,1,.7,1.9,2.9,2.9,0,0,1-.7,1.9A2.4,2.4,0,0,1,137.3,33.1Zm0-4.5a1.3,1.3,0,0,0-1.2.5,2.2,2.2,0,0,0,0,2.8,1.7,1.7,0,0,0,2.4,0,2,2,0,0,0,.4-1.4,2,2,0,0,0-.4-1.4A1.3,1.3,0,0,0,137.3,28.6Z" transform="translate(-0.4 -1.6)" fill="#00b0f0"/><path d="M143.2,32.9c-.1.2-.4.2-.7.2s-1.3-.5-1.3-1.5V28.7h-.9V28h.9V26.8l.8-.3V28h1.2v.7H142v2.8c0,.3,0,.6.2.7s.3.2.5.2h.5Z" transform="translate(-0.4 -1.6)" fill="#00b0f0"/><path d="M151.1,33h-.8v-.9h0a1.8,1.8,0,0,1-1.7,1,1.8,1.8,0,0,1-1.5-.7,2.4,2.4,0,0,1-.6-1.8,3.2,3.2,0,0,1,.6-2,2.2,2.2,0,0,1,1.7-.7,1.5,1.5,0,0,1,1.5.8h0V25.6h.8Zm-.8-2.3V30a1.3,1.3,0,0,0-.4-1,1.2,1.2,0,0,0-1-.4c-.5,0-.9.1-1.1.5a2.1,2.1,0,0,0-.5,1.5,2.5,2.5,0,0,0,.4,1.3,1.3,1.3,0,0,0,1.1.5,1.4,1.4,0,0,0,1.1-.4A2,2,0,0,0,150.3,30.7Z" transform="translate(-0.4 -1.6)" fill="#00b0f0"/><path d="M156.7,30.7h-3.6a1.7,1.7,0,0,0,.5,1.3,1.6,1.6,0,0,0,1.2.4,2.3,2.3,0,0,0,1.5-.5v.7a2.3,2.3,0,0,1-1.7.5,2.1,2.1,0,0,1-1.7-.7,2.7,2.7,0,0,1-.6-1.9,2.5,2.5,0,0,1,.7-1.9,2,2,0,0,1,1.6-.7,1.8,1.8,0,0,1,1.5.6,2.4,2.4,0,0,1,.6,1.8Zm-.9-.7a2,2,0,0,0-.3-1.1,1.2,1.2,0,0,0-.9-.3,1.3,1.3,0,0,0-1,.4,2.3,2.3,0,0,0-.5,1Z" transform="translate(-0.4 -1.6)" fill="#00b0f0"/><path d="M161.2,32.3h0v3h-.8V28h.8v.9h0a1.9,1.9,0,0,1,1.8-1,2,2,0,0,1,1.5.6,3.5,3.5,0,0,1,.5,1.8,3.3,3.3,0,0,1-.6,2.1,2.1,2.1,0,0,1-1.7.7A1.9,1.9,0,0,1,161.2,32.3Zm0-2V31a1.8,1.8,0,0,0,.4,1,1.3,1.3,0,0,0,1,.4,1.3,1.3,0,0,0,1.2-.5,2.5,2.5,0,0,0,.4-1.6,1.8,1.8,0,0,0-.4-1.3,1.2,1.2,0,0,0-1-.4,1.6,1.6,0,0,0-1.2.4A2.8,2.8,0,0,0,161.2,30.3Z" transform="translate(-0.4 -1.6)" fill="#00b0f0"/><path d="M169.8,33H169v-.8h0a1.8,1.8,0,0,1-1.6.9,1.6,1.6,0,0,1-1.2-.4,1.5,1.5,0,0,1-.4-1c0-1,.6-1.5,1.7-1.7l1.5-.2c0-.8-.4-1.2-1.1-1.2a2.5,2.5,0,0,0-1.6.6v-.9a3.3,3.3,0,0,1,1.7-.4,1.6,1.6,0,0,1,1.8,1.8Zm-.8-2.5h-1.2l-.9.3a.8.8,0,0,0-.3.7.6.6,0,0,0,.3.6.8.8,0,0,0,.7.2,1.3,1.3,0,0,0,1-.4,1.8,1.8,0,0,0,.4-1Z" transform="translate(-0.4 -1.6)" fill="#00b0f0"/><path d="M170.9,32.8V32a2.3,2.3,0,0,0,1.4.4c.7,0,1.1-.2,1.1-.7s-.1-.2-.1-.3l-.3-.3h-.3l-.5-.2-.6-.3-.4-.3a.5.5,0,0,1-.2-.4.7.7,0,0,1-.1-.5,1.3,1.3,0,0,1,.1-.6l.5-.5.6-.2h.7l1.2.2v.8a2.8,2.8,0,0,0-1.3-.3H172c-.1.1-.2.2-.2.3a.5.5,0,0,0,0,.6l.2.2.3.2.5.2.6.2.4.3.3.4a1.3,1.3,0,0,1,.1.6,1.4,1.4,0,0,1-.2.6l-.4.5-.6.2h-.8A2.8,2.8,0,0,1,170.9,32.8Z" transform="translate(-0.4 -1.6)" fill="#00b0f0"/><path d="M175,32.8V32a2.6,2.6,0,0,0,1.5.4c.7,0,1-.2,1-.7a.4.4,0,0,0-.1-.3l-.2-.3h-.4l-.4-.2-.6-.3-.4-.3-.3-.4a4.3,4.3,0,0,1-.1-.5,1.4,1.4,0,0,1,.2-.6l.4-.5.6-.2h.7l1.2.2v.8a2.8,2.8,0,0,0-1.3-.3h-.7l-.2.3v.6l.2.2.4.2.4.2.6.2.5.3c.1.2.2.3.2.4a1.9,1.9,0,0,1,0,1.2c-.1.2-.3.3-.5.5l-.6.2h-.7A2.9,2.9,0,0,1,175,32.8Z" transform="translate(-0.4 -1.6)" fill="#00b0f0"/><path d="M183.5,30.7H180a1.7,1.7,0,0,0,.4,1.3,1.6,1.6,0,0,0,1.2.4,2,2,0,0,0,1.5-.5v.7a2.3,2.3,0,0,1-1.7.5,2.1,2.1,0,0,1-1.7-.7,2.7,2.7,0,0,1-.6-1.9,2.5,2.5,0,0,1,.7-1.9,2,2,0,0,1,1.6-.7,1.8,1.8,0,0,1,1.5.6,2.4,2.4,0,0,1,.6,1.8Zm-.8-.7a1.5,1.5,0,0,0-.4-1.1,1.2,1.2,0,0,0-.9-.3,1,1,0,0,0-.9.4,1.2,1.2,0,0,0-.5,1Z" transform="translate(-0.4 -1.6)" fill="#00b0f0"/></svg>