<svg id="svg133" xmlns="http://www.w3.org/2000/svg" viewBox="0 0 224.4 98.83">
  <defs>
    <style>
      .cls-1 {
        fill: #0078d7;
      }

      .cls-2 {
        isolation: isolate;
      }

      .cls-3, .cls-4 {
        fill: #008bfd;
      }

      .cls-4 {
        stroke: gray;
        stroke-linecap: round;
        stroke-linejoin: round;
        stroke-width: 0.75px;
      }

      .cls-5 {
        fill: #fff;
      }

      .cls-6 {
        fill: #505050;
      }

      .cls-7 {
        fill: #00b0f0;
      }

      .cls-8 {
        fill: none;
        stroke: #505050;
        stroke-miterlimit: 10;
      }
    </style>
  </defs>
  <title>OJ104544462</title>
  <g id="shape1172-2">
    <path id="path19" class="cls-1" d="M60.23,66.79H46V38.41H60.23v7.68H61V37.65H45.26v29.9H61V65.23h-.76Z"/>
  </g>
  <g id="shape1173-4">
    <path id="path24" class="cls-1" d="M59.47,39.21H46.83v4.58H59.47Zm-9.58,1.91h6.53v.76H49.89ZM56.48,43H49.86V42.2h6.62Z"/>
  </g>
  <g id="shape1174-6">
    <path id="path29" class="cls-1" d="M46.79,44.57v3h8.6V46.1h4.08V44.57Z"/>
  </g>
  <g id="shape1175-8">
    <rect id="rect34" class="cls-1" x="46.79" y="48.38" width="8.6" height="2.68"/>
  </g>
  <g id="shape1176-10">
    <path id="path39" class="cls-1" d="M46.79,66H59.44v-.79H55.36V51.85h-8.6V66Zm1.53-2.73h2.29V64.5H48.32Z"/>
  </g>
  <g id="shape1177-12">
    <path id="path44" class="cls-1" d="M70,63H67.55V61.09H65V63H62.59a1.32,1.32,0,0,0-1.31,1.14h10C71.35,63.54,70.68,63,70,63Z"/>
  </g>
  <g id="shape1178-14">
    <path id="path49" class="cls-1" d="M74.85,49H57.75a.64.64,0,0,0-.67.6V59.72a.64.64,0,0,0,.67.6h17.1a.64.64,0,0,0,.67-.6V49.59A.62.62,0,0,0,74.85,49Zm-1,9.84H58.77V50.52H73.83Z"/>
  </g>
  <g id="shape1179-16">
    <path id="path54" class="cls-1" d="M70.21,56.35V52.91L66.7,51.06l-3.5,1.78v3.54l3.5,1.81Zm-4.4-2.3.89-.44.86.44-.86.48Zm0-1.14.86-.45.86.45-.86.48Zm1.91,4.52-1,.51V57l1-.51Zm0-1.18-1,.51v-.92l1-.51Zm0-1.11-1,.51v-.93l1-.51Zm-.82-1.66.86-.44.89.44-.86.45Zm2,3.35-1,.5v-.92l1-.51Zm0-1.18-1,.51v-.93l1-.51Zm0-1.15L68,55v-.89l1-.51Zm1,1.75-.86.45v-.93l.86-.44Zm0-1.14-.86.44v-.92l.86-.45ZM70,54l-.86.44v-.92L70,53Zm-.19-1.05-.89.44L68,52.91l.86-.45Zm-1.11-.58-.89.45-.86-.45.86-.44Zm-2-1,.86.45-.86.45-.89-.45Zm-1.11.61.86.44-.86.45-.86-.45Zm-1.08.57.89.45-.89.44-.9-.44Zm-.26,4.27-.86-.45v-.92l.86.45Zm0-1.18-.86-.44v-.93l.86.45Zm0-1.15L63.39,54v-.89l.86.44Zm1.18,2.93-1-.5V55.9l1,.51Zm0-1.17-1-.51v-.93l1,.51Zm0-1.15-1-.51v-.89l1,.51Zm-.7-1.53.89-.44.86.44-.89.48Zm1.88,4.46-1-.51v-.89l1,.51Zm0-1.15-1-.51v-.92l1,.51Zm0-1.14-1-.51v-.93l1,.51Z"/>
  </g>
  <g id="shape1171-18">
    <g id="text57" class="cls-2">
      <path class="cls-3" d="M14.58,77.92h-.91l-.74-2H10l-.7,2H8.35l2.69-7h.85Zm-1.92-2.7-1.1-3a3,3,0,0,1-.1-.47h0a2.42,2.42,0,0,1-.12.47l-1.08,3Z"/>
      <path class="cls-3" d="M16.32,77.2h0v3h-.8v-7.3h.8v.88h0a1.9,1.9,0,0,1,1.73-1,1.82,1.82,0,0,1,1.51.67,2.78,2.78,0,0,1,.54,1.8,3.11,3.11,0,0,1-.61,2,2,2,0,0,1-1.67.75A1.69,1.69,0,0,1,16.32,77.2Zm0-2v.7a1.46,1.46,0,0,0,.41,1.05,1.42,1.42,0,0,0,2.16-.12,2.53,2.53,0,0,0,.41-1.55A2.08,2.08,0,0,0,18.9,74a1.3,1.3,0,0,0-1-.47,1.4,1.4,0,0,0-1.12.49A1.79,1.79,0,0,0,16.3,75.18Z"/>
      <path class="cls-3" d="M22.2,77.2h0v3h-.8v-7.3h.8v.88h0a1.9,1.9,0,0,1,1.73-1,1.82,1.82,0,0,1,1.51.67,2.78,2.78,0,0,1,.54,1.8,3.11,3.11,0,0,1-.61,2A2,2,0,0,1,23.7,78,1.67,1.67,0,0,1,22.2,77.2Zm0-2v.7a1.46,1.46,0,0,0,.41,1.05,1.32,1.32,0,0,0,1,.44,1.36,1.36,0,0,0,1.14-.56,2.6,2.6,0,0,0,.41-1.55A2.08,2.08,0,0,0,24.78,74a1.3,1.3,0,0,0-1.05-.47,1.4,1.4,0,0,0-1.12.49A1.79,1.79,0,0,0,22.18,75.18Z"/>
      <path class="cls-3" d="M28.06,77.92h-.8v-7.4h.8Z"/>
      <path class="cls-3" d="M30.09,71.65a.48.48,0,0,1-.36-.14.5.5,0,0,1-.15-.37.52.52,0,0,1,.15-.38.49.49,0,0,1,.36-.15.54.54,0,0,1,.38.15.52.52,0,0,1,.15.38.49.49,0,0,1-.15.36A.54.54,0,0,1,30.09,71.65Zm.39,6.27h-.8v-5h.8Z"/>
      <path class="cls-3" d="M35.51,77.69a2.51,2.51,0,0,1-1.36.35,2.25,2.25,0,0,1-1.73-.7,2.5,2.5,0,0,1-.66-1.8,2.78,2.78,0,0,1,.71-2,2.47,2.47,0,0,1,1.89-.75,2.64,2.64,0,0,1,1.16.24v.82a2,2,0,0,0-1.19-.39,1.61,1.61,0,0,0-1.26.55,2.13,2.13,0,0,0-.49,1.44,2,2,0,0,0,.47,1.39,1.57,1.57,0,0,0,1.23.51,2,2,0,0,0,1.23-.44Z"/>
      <path class="cls-3" d="M40.3,77.92h-.8v-.78h0a1.82,1.82,0,0,1-2.7.51,1.37,1.37,0,0,1-.43-1.05c0-.94.55-1.48,1.65-1.64l1.5-.21c0-.85-.34-1.27-1-1.27a2.48,2.48,0,0,0-1.63.62v-.83a3.12,3.12,0,0,1,1.7-.46c1.18,0,1.76.62,1.76,1.86Zm-.8-2.53-1.2.17a1.84,1.84,0,0,0-.84.28.79.79,0,0,0-.29.7.74.74,0,0,0,.27.59,1,1,0,0,0,.69.24,1.26,1.26,0,0,0,1-.42,1.49,1.49,0,0,0,.39-1.06Z"/>
      <path class="cls-3" d="M44.13,77.87a1.49,1.49,0,0,1-.75.16c-.87,0-1.31-.49-1.31-1.46v-3h-.86v-.69h.86V71.7l.8-.26v1.48h1.26v.69H42.87v2.81a1.19,1.19,0,0,0,.17.72.68.68,0,0,0,.57.22.83.83,0,0,0,.52-.17Z"/>
      <path class="cls-3" d="M45.61,71.65a.48.48,0,0,1-.36-.14.47.47,0,0,1-.16-.37.53.53,0,0,1,.52-.53.5.5,0,0,1,.37.15.49.49,0,0,1,.16.38.46.46,0,0,1-.16.36A.5.5,0,0,1,45.61,71.65ZM46,77.92h-.8v-5H46Z"/>
      <path class="cls-3" d="M49.71,78a2.31,2.31,0,0,1-1.77-.7,2.61,2.61,0,0,1-.66-1.86,2.72,2.72,0,0,1,.69-2,2.48,2.48,0,0,1,1.86-.7,2.27,2.27,0,0,1,1.75.68,2.78,2.78,0,0,1,.62,1.91,2.69,2.69,0,0,1-.67,1.92A2.38,2.38,0,0,1,49.71,78Zm.06-4.56a1.52,1.52,0,0,0-1.22.52,2.19,2.19,0,0,0-.45,1.45,2,2,0,0,0,.46,1.4,1.5,1.5,0,0,0,1.21.52,1.47,1.47,0,0,0,1.2-.51,2.21,2.21,0,0,0,.41-1.43A2.26,2.26,0,0,0,51,74,1.47,1.47,0,0,0,49.77,73.48Z"/>
      <path class="cls-3" d="M57.63,77.92h-.8V75.07c0-1.06-.39-1.59-1.16-1.59a1.25,1.25,0,0,0-1,.45,1.64,1.64,0,0,0-.4,1.14v2.85h-.8v-5h.8v.83h0a1.81,1.81,0,0,1,1.64-.94,1.52,1.52,0,0,1,1.26.53,2.34,2.34,0,0,1,.43,1.53Z"/>
      <path class="cls-3" d="M66.15,77.92h-.8v-.85h0a1.85,1.85,0,0,1-1.72,1,1.87,1.87,0,0,1-1.51-.67,2.8,2.8,0,0,1-.56-1.83,3,3,0,0,1,.62-2,2.1,2.1,0,0,1,1.67-.74,1.6,1.6,0,0,1,1.5.81h0v-3.1h.8Zm-.8-2.26v-.73a1.46,1.46,0,0,0-.4-1,1.36,1.36,0,0,0-1-.42,1.37,1.37,0,0,0-1.15.54,2.35,2.35,0,0,0-.42,1.48,2.13,2.13,0,0,0,.4,1.37,1.33,1.33,0,0,0,1.08.5,1.35,1.35,0,0,0,1.09-.49A1.79,1.79,0,0,0,65.35,75.66Z"/>
      <path class="cls-3" d="M71.79,75.62H68.26a1.83,1.83,0,0,0,.45,1.29,1.52,1.52,0,0,0,1.18.46,2.46,2.46,0,0,0,1.55-.56v.75A2.89,2.89,0,0,1,69.7,78,2.14,2.14,0,0,1,68,77.36a2.81,2.81,0,0,1-.6-1.92,2.73,2.73,0,0,1,.66-1.9,2.12,2.12,0,0,1,1.64-.73,1.88,1.88,0,0,1,1.52.63,2.63,2.63,0,0,1,.54,1.76ZM71,74.94a1.63,1.63,0,0,0-.34-1.07,1.12,1.12,0,0,0-.91-.39,1.25,1.25,0,0,0-1,.41,1.78,1.78,0,0,0-.49,1Z"/>
      <path class="cls-3" d="M76.56,77.2h0v.72h-.8v-7.4h.8V73.8h0a1.89,1.89,0,0,1,1.73-1,1.81,1.81,0,0,1,1.5.67,2.73,2.73,0,0,1,.55,1.8,3.17,3.17,0,0,1-.61,2,2,2,0,0,1-1.67.75A1.65,1.65,0,0,1,76.56,77.2Zm0-2v.7a1.45,1.45,0,0,0,.4,1.05,1.42,1.42,0,0,0,2.16-.12,2.53,2.53,0,0,0,.42-1.55A2,2,0,0,0,79.13,74a1.28,1.28,0,0,0-1-.47A1.42,1.42,0,0,0,77,74,1.78,1.78,0,0,0,76.54,75.18Z"/>
      <path class="cls-3" d="M85.66,77.92h-.8v-.79h0A1.64,1.64,0,0,1,83.3,78c-1.19,0-1.79-.71-1.79-2.13v-3h.8v2.86c0,1.06.4,1.59,1.21,1.59a1.21,1.21,0,0,0,1-.44,1.64,1.64,0,0,0,.38-1.13V72.92h.8Z"/>
      <path class="cls-3" d="M89.88,73.73a1.07,1.07,0,0,0-1.46.33,2.21,2.21,0,0,0-.34,1.31v2.55h-.8v-5h.8v1h0a1.69,1.69,0,0,1,.52-.82,1.17,1.17,0,0,1,.79-.29,1.45,1.45,0,0,1,.47.06Z"/>
      <path class="cls-3" d="M94.77,75.62H91.24a1.83,1.83,0,0,0,.45,1.29,1.53,1.53,0,0,0,1.18.46,2.44,2.44,0,0,0,1.55-.56v.75a2.87,2.87,0,0,1-1.74.48A2.12,2.12,0,0,1,91,77.36a2.77,2.77,0,0,1-.61-1.92,2.73,2.73,0,0,1,.66-1.9,2.12,2.12,0,0,1,1.65-.73,1.86,1.86,0,0,1,1.51.63,2.63,2.63,0,0,1,.54,1.76ZM94,74.94a1.57,1.57,0,0,0-.33-1.07,1.14,1.14,0,0,0-.92-.39,1.25,1.25,0,0,0-1,.41,1.84,1.84,0,0,0-.49,1Z"/>
      <path class="cls-3" d="M99.56,77.92h-.8v-.78h0a1.83,1.83,0,0,1-2.71.51,1.39,1.39,0,0,1-.42-1.05c0-.94.55-1.48,1.65-1.64l1.5-.21c0-.85-.34-1.27-1-1.27a2.46,2.46,0,0,0-1.63.62v-.83a3.12,3.12,0,0,1,1.7-.46c1.17,0,1.76.62,1.76,1.86Zm-.8-2.53-1.2.17a1.75,1.75,0,0,0-.84.28.79.79,0,0,0-.29.7.76.76,0,0,0,.26.59,1,1,0,0,0,.7.24,1.27,1.27,0,0,0,1-.42,1.49,1.49,0,0,0,.39-1.06Z"/>
      <path class="cls-3" d="M105.11,77.92h-.8v-.79h0a1.63,1.63,0,0,1-1.54.91c-1.19,0-1.79-.71-1.79-2.13v-3h.8v2.86c0,1.06.4,1.59,1.21,1.59a1.21,1.21,0,0,0,1-.44,1.6,1.6,0,0,0,.38-1.13V72.92h.8Z"/>
    </g>
  </g>
  <g id="group1180-20">
    <g id="group1181-21">
      <g id="group1182-22">
        <g id="group1183-23">
          <g id="shape1184-24">
            <path id="path71" class="cls-3" d="M7.85,44.76a4.5,4.5,0,0,0-3,5.67c.66,2.55,3,4.21,5.27,3.66a4.49,4.49,0,0,0,3-5.66C12.57,45.76,10.16,44.1,7.85,44.76Z"/>
          </g>
        </g>
        <g id="group1185-26">
          <g id="shape1186-27">
            <path id="path79" class="cls-3" d="M12.78,54.78c-.43,0-.88.77-1.54,1.11s-1.31.89-3.17,0S6,54.22,4.43,54.22s-4,2.78-4,6.88H16a12.15,12.15,0,0,0-1.11-4.21C13.77,54.78,13.23,54.78,12.78,54.78Z"/>
          </g>
        </g>
      </g>
    </g>
    <g id="group1187-29">
      <g id="shape1188-30">
        <path id="path89" class="cls-4" d="M14.19,49.84H10.07a.7.7,0,0,0-.65.65v2.85a.73.73,0,0,0,.76.66h.76v5.15a1,1,0,0,0,1,1.09,1,1,0,0,0,1-1h.21V58.6c0-.22.33-.33.33-.33v-.33c-.33-.11-.54-.32-.54-.43v-.33L13.1,57a3.53,3.53,0,0,0,.33-.55,2.4,2.4,0,0,1-.33-.55c-.1-.11-.1-.33-.21-.44V55.2a2.52,2.52,0,0,1,.76-1.09h.54a.71.71,0,0,0,.65-.66v-3A.62.62,0,0,0,14.19,49.84ZM11.8,59.37c0,.22,0,.33-.21.33s-.22-.22-.22-.33V54.55c0-.22.11-.33.22-.33s.21.22.21.33Zm.33-7.78a.66.66,0,0,1,0-1.32.71.71,0,0,1,.65.66A.63.63,0,0,1,12.13,51.59Z"/>
      </g>
      <g id="shape1189-32">
        <path id="path94" class="cls-5" d="M11.57,59.67a.24.24,0,0,1-.22-.22v-5a.22.22,0,0,1,.44,0v5.1C11.79,59.67,11.68,59.67,11.57,59.67Z"/>
      </g>
      <g id="shape1190-34">
        <ellipse id="ellipse99" class="cls-5" cx="12.14" cy="50.92" rx="0.66" ry="0.67"/>
      </g>
    </g>
  </g>
  <path id="path108" class="cls-3" d="M191.76,41.68h-20.5a1.1,1.1,0,0,0-1.09,1.11V59.53a1.09,1.09,0,0,0,1.09,1.1h5.28a3.29,3.29,0,0,0,3.21,2.27,3.37,3.37,0,0,0,0-6.74,3.29,3.29,0,0,0-3.21,2.27h-4.19v-12h18.31v12h-3.45a7.61,7.61,0,0,0-7.46-6.57,8.25,8.25,0,0,0-3.64.92l1,2a5.28,5.28,0,0,1,2.55-.68,5.46,5.46,0,0,1,0,10.92,5.28,5.28,0,0,1-2.55-.68l-1,2a7.4,7.4,0,0,0,3.64.92,7.61,7.61,0,0,0,7.46-6.56h4.55a1.09,1.09,0,0,0,1.09-1.1V42.79A1.14,1.14,0,0,0,191.76,41.68Z"/>
  <g id="text110" class="cls-2">
    <path class="cls-3" d="M154.08,80.2h-.91l-.74-2h-3l-.7,2h-.91l2.68-7h.85Zm-1.92-2.7-1.1-3c0-.1-.07-.26-.11-.47h0a2.74,2.74,0,0,1-.11.47l-1.09,3Z"/>
    <path class="cls-3" d="M155.82,79.48h0v3H155V75.2h.8v.88h0a1.91,1.91,0,0,1,1.73-1,1.82,1.82,0,0,1,1.51.68,2.76,2.76,0,0,1,.54,1.8,3.06,3.06,0,0,1-.61,2,2,2,0,0,1-1.67.76A1.67,1.67,0,0,1,155.82,79.48Zm0-2v.7a1.49,1.49,0,0,0,.41,1,1.31,1.31,0,0,0,1,.44,1.36,1.36,0,0,0,1.14-.56,2.6,2.6,0,0,0,.41-1.55,2.06,2.06,0,0,0-.38-1.31,1.3,1.3,0,0,0-1.05-.47,1.41,1.41,0,0,0-1.12.48A1.77,1.77,0,0,0,155.8,77.46Z"/>
    <path class="cls-3" d="M161.7,79.48h0v3h-.8V75.2h.8v.88h0a1.9,1.9,0,0,1,1.73-1,1.84,1.84,0,0,1,1.51.68,2.76,2.76,0,0,1,.54,1.8,3.06,3.06,0,0,1-.61,2,2,2,0,0,1-1.67.76A1.67,1.67,0,0,1,161.7,79.48Zm0-2v.7a1.53,1.53,0,0,0,.4,1,1.43,1.43,0,0,0,2.17-.12,2.6,2.6,0,0,0,.41-1.55,2,2,0,0,0-.39-1.31,1.27,1.27,0,0,0-1-.47,1.41,1.41,0,0,0-1.12.48A1.77,1.77,0,0,0,161.68,77.46Z"/>
    <path class="cls-3" d="M167.56,80.2h-.8V72.8h.8Z"/>
    <path class="cls-3" d="M169.59,73.93a.52.52,0,0,1-.36-.14.49.49,0,0,1-.16-.38.49.49,0,0,1,.16-.37.49.49,0,0,1,.36-.15A.5.5,0,0,1,170,73a.49.49,0,0,1,.16.37.47.47,0,0,1-.16.37A.5.5,0,0,1,169.59,73.93ZM170,80.2h-.8v-5h.8Z"/>
    <path class="cls-3" d="M175,80a2.61,2.61,0,0,1-1.37.35,2.24,2.24,0,0,1-1.72-.7,2.5,2.5,0,0,1-.66-1.8,2.8,2.8,0,0,1,.71-2,2.47,2.47,0,0,1,1.89-.75,2.64,2.64,0,0,1,1.16.25v.82a2,2,0,0,0-1.19-.39,1.61,1.61,0,0,0-1.26.55,2.09,2.09,0,0,0-.49,1.44,2,2,0,0,0,.46,1.39,1.59,1.59,0,0,0,1.24.51,2,2,0,0,0,1.23-.44Z"/>
    <path class="cls-3" d="M179.8,80.2H179v-.78h0a1.68,1.68,0,0,1-1.54.9,1.65,1.65,0,0,1-1.17-.4,1.36,1.36,0,0,1-.42-1c0-.93.55-1.47,1.65-1.63L179,77c0-.85-.34-1.27-1-1.27a2.45,2.45,0,0,0-1.63.61v-.82a3.12,3.12,0,0,1,1.7-.47c1.17,0,1.76.63,1.76,1.87Zm-.8-2.53-1.21.17a1.88,1.88,0,0,0-.83.27.82.82,0,0,0-.29.71.76.76,0,0,0,.26.59,1,1,0,0,0,.7.24,1.27,1.27,0,0,0,1-.42,1.49,1.49,0,0,0,.39-1.06Z"/>
    <path class="cls-3" d="M183.63,80.15a1.49,1.49,0,0,1-.75.16c-.87,0-1.31-.49-1.31-1.47v-3h-.86V75.2h.86V74l.8-.26V75.2h1.26v.69h-1.26V78.7a1.19,1.19,0,0,0,.17.72.69.69,0,0,0,.57.22.85.85,0,0,0,.52-.17Z"/>
    <path class="cls-3" d="M185.11,73.93a.55.55,0,0,1-.37-.14.52.52,0,0,1-.15-.38.51.51,0,0,1,.52-.52.5.5,0,0,1,.37.15.52.52,0,0,1,.16.37.51.51,0,0,1-.16.37A.5.5,0,0,1,185.11,73.93Zm.39,6.27h-.8v-5h.8Z"/>
    <path class="cls-3" d="M189.21,80.32a2.31,2.31,0,0,1-1.77-.7,2.61,2.61,0,0,1-.66-1.86,2.7,2.7,0,0,1,.69-2,2.49,2.49,0,0,1,1.86-.71,2.22,2.22,0,0,1,1.74.69,2.73,2.73,0,0,1,.63,1.91A2.65,2.65,0,0,1,191,79.6,2.36,2.36,0,0,1,189.21,80.32Zm.06-4.56a1.51,1.51,0,0,0-1.22.52,2.17,2.17,0,0,0-.45,1.45,2,2,0,0,0,.45,1.4,1.57,1.57,0,0,0,1.22.52,1.45,1.45,0,0,0,1.19-.51,2.16,2.16,0,0,0,.42-1.43,2.21,2.21,0,0,0-.42-1.44A1.45,1.45,0,0,0,189.27,75.76Z"/>
    <path class="cls-3" d="M197.13,80.2h-.8V77.35c0-1.06-.39-1.59-1.16-1.59a1.29,1.29,0,0,0-1,.45,1.68,1.68,0,0,0-.39,1.14V80.2H193v-5h.8V76h0a1.81,1.81,0,0,1,1.64-1,1.55,1.55,0,0,1,1.26.53,2.39,2.39,0,0,1,.43,1.54Z"/>
    <path class="cls-3" d="M206.91,80.2H206l-.74-2h-3l-.7,2h-.91l2.68-7h.85ZM205,77.5l-1.1-3a3,3,0,0,1-.11-.47h0a2.74,2.74,0,0,1-.11.47l-1.09,3Z"/>
    <path class="cls-3" d="M208.76,77.56V80.2h-.82v-7h1.92a2.51,2.51,0,0,1,1.74.55,2,2,0,0,1,.62,1.54,2.12,2.12,0,0,1-.69,1.63,2.61,2.61,0,0,1-1.85.64Zm0-3.62v2.87h.86a1.91,1.91,0,0,0,1.29-.39,1.35,1.35,0,0,0,.45-1.09c0-.93-.55-1.39-1.64-1.39Z"/>
    <path class="cls-3" d="M214.36,80.2h-.82v-7h.82Z"/>
  </g>
  <g id="shape1192-39">
    <g id="use7">
      <g id="lend5">
        <path id="path4" class="cls-6" d="M161.69,50.43l8.05,4-8,4a9,9,0,0,0,0-8"/>
      </g>
    </g>
  </g>
  <g class="cls-2">
    <path class="cls-7" d="M41.15,6.52H38.48V5.89h2.67Z"/>
    <path class="cls-7" d="M49,2.74H46.25V5.16h2.53v.73H46.25V9h-.82V2H49Z"/>
    <path class="cls-7" d="M51,9h-.8V1.59H51Z"/>
    <path class="cls-7" d="M56.67,9h-.8V8.2h0a1.63,1.63,0,0,1-1.54.91c-1.19,0-1.79-.71-1.79-2.13V4h.8V6.86c0,1,.4,1.58,1.21,1.58a1.24,1.24,0,0,0,1-.43,1.63,1.63,0,0,0,.38-1.13V4h.8Z"/>
    <path class="cls-7" d="M61.94,4,60.26,6.52,61.91,9H61L60,7.37c-.06-.1-.14-.22-.22-.38h0s-.09.16-.23.38L58.53,9h-.92l1.7-2.46L57.68,4h.93l1,1.7.21.39h0L61.06,4Z"/>
    <path class="cls-7" d="M69.89,9h-.8V8.15h0a2,2,0,0,1-3.23.29,2.74,2.74,0,0,1-.56-1.83,3,3,0,0,1,.62-2,2.06,2.06,0,0,1,1.67-.75,1.62,1.62,0,0,1,1.5.81h0V1.59h.8Zm-.8-2.27V6a1.46,1.46,0,0,0-.4-1,1.36,1.36,0,0,0-1-.42,1.37,1.37,0,0,0-1.15.54,2.35,2.35,0,0,0-.42,1.48,2.13,2.13,0,0,0,.4,1.37,1.33,1.33,0,0,0,1.08.5A1.38,1.38,0,0,0,68.67,8,1.82,1.82,0,0,0,69.09,6.73Z"/>
    <path class="cls-7" d="M75.53,6.7H72A1.87,1.87,0,0,0,72.44,8a1.55,1.55,0,0,0,1.19.46,2.46,2.46,0,0,0,1.55-.56v.75a2.89,2.89,0,0,1-1.74.48,2.13,2.13,0,0,1-1.67-.68,2.8,2.8,0,0,1-.6-1.92,2.75,2.75,0,0,1,.66-1.9,2.12,2.12,0,0,1,1.64-.73A1.9,1.9,0,0,1,75,4.51a2.66,2.66,0,0,1,.54,1.77ZM74.71,6a1.64,1.64,0,0,0-.34-1.08,1.12,1.12,0,0,0-.91-.39,1.32,1.32,0,0,0-1,.41A1.83,1.83,0,0,0,72,6Z"/>
    <path class="cls-7" d="M82.88,8.77a2.59,2.59,0,0,1-1.36.34,2.27,2.27,0,0,1-1.73-.69,2.54,2.54,0,0,1-.66-1.81,2.78,2.78,0,0,1,.71-2,2.47,2.47,0,0,1,1.89-.75,2.64,2.64,0,0,1,1.16.24v.82a2,2,0,0,0-1.19-.39,1.57,1.57,0,0,0-1.25.55A2.08,2.08,0,0,0,80,6.54a2,2,0,0,0,.47,1.39,1.57,1.57,0,0,0,1.23.51A2,2,0,0,0,82.88,8Z"/>
    <path class="cls-7" d="M86.19,9.11a2.31,2.31,0,0,1-1.77-.7,2.56,2.56,0,0,1-.67-1.86,2.68,2.68,0,0,1,.69-2,2.45,2.45,0,0,1,1.86-.71,2.25,2.25,0,0,1,1.75.69,2.72,2.72,0,0,1,.63,1.91A2.69,2.69,0,0,1,88,8.39,2.37,2.37,0,0,1,86.19,9.11Zm0-4.56A1.53,1.53,0,0,0,85,5.08a2.14,2.14,0,0,0-.45,1.44A2.08,2.08,0,0,0,85,7.93a1.54,1.54,0,0,0,1.21.51,1.49,1.49,0,0,0,1.2-.5,2.21,2.21,0,0,0,.41-1.44,2.21,2.21,0,0,0-.41-1.44A1.47,1.47,0,0,0,86.24,4.55Z"/>
    <path class="cls-7" d="M94.22,9h-.8V8.15h0a2,2,0,0,1-3.22.29,2.75,2.75,0,0,1-.57-1.83,3,3,0,0,1,.63-2,2,2,0,0,1,1.66-.75,1.6,1.6,0,0,1,1.5.81h0V1.59h.8Zm-.8-2.27V6A1.42,1.42,0,0,0,93,5a1.34,1.34,0,0,0-1-.42,1.39,1.39,0,0,0-1.16.54,2.35,2.35,0,0,0-.42,1.48,2.13,2.13,0,0,0,.41,1.37,1.3,1.3,0,0,0,1.08.5A1.36,1.36,0,0,0,93,8,1.82,1.82,0,0,0,93.42,6.73Z"/>
    <path class="cls-7" d="M99.86,6.7H96.33A1.82,1.82,0,0,0,96.78,8,1.53,1.53,0,0,0,98,8.44a2.49,2.49,0,0,0,1.56-.56v.75a2.92,2.92,0,0,1-1.75.48,2.12,2.12,0,0,1-1.66-.68,2.75,2.75,0,0,1-.61-1.92,2.75,2.75,0,0,1,.66-1.9,2.12,2.12,0,0,1,1.65-.73,1.86,1.86,0,0,1,1.51.63,2.66,2.66,0,0,1,.54,1.77ZM99,6a1.59,1.59,0,0,0-.33-1.08,1.14,1.14,0,0,0-.92-.39,1.28,1.28,0,0,0-1,.41A1.84,1.84,0,0,0,96.34,6Z"/>
    <path class="cls-7" d="M108.08,9h-.8V8.15h0a1.85,1.85,0,0,1-1.72,1A1.87,1.87,0,0,1,104,8.44a2.8,2.8,0,0,1-.56-1.83,3,3,0,0,1,.63-2,2,2,0,0,1,1.66-.75,1.6,1.6,0,0,1,1.5.81h0V1.59h.8Zm-.8-2.27V6a1.42,1.42,0,0,0-.4-1,1.36,1.36,0,0,0-1-.42,1.37,1.37,0,0,0-1.15.54,2.35,2.35,0,0,0-.42,1.48,2.13,2.13,0,0,0,.4,1.37,1.33,1.33,0,0,0,1.08.5A1.38,1.38,0,0,0,106.86,8,1.82,1.82,0,0,0,107.28,6.73Z"/>
    <path class="cls-7" d="M110.69,1.88,110,4.05h-.57L110,1.88Z"/>
    <path class="cls-7" d="M115.57,9h-.8V8.21h0a1.68,1.68,0,0,1-1.54.9A1.65,1.65,0,0,1,112,8.72a1.39,1.39,0,0,1-.42-1.05c0-.94.55-1.48,1.65-1.63l1.5-.21c0-.85-.34-1.28-1-1.28a2.46,2.46,0,0,0-1.63.62V4.35a3,3,0,0,1,1.7-.47c1.17,0,1.76.62,1.76,1.86Zm-.8-2.53-1.21.16a2,2,0,0,0-.84.28.78.78,0,0,0-.28.7.79.79,0,0,0,.26.6,1.05,1.05,0,0,0,.7.23,1.29,1.29,0,0,0,1-.42A1.49,1.49,0,0,0,114.77,7Z"/>
    <path class="cls-7" d="M121.12,9h-.8V8.2h0a1.63,1.63,0,0,1-1.54.91C117.57,9.11,117,8.4,117,7V4h.8V6.86c0,1,.4,1.58,1.21,1.58a1.24,1.24,0,0,0,1-.43,1.63,1.63,0,0,0,.38-1.13V4h.8Z"/>
    <path class="cls-7" d="M125.06,9a1.61,1.61,0,0,1-.75.15c-.87,0-1.31-.49-1.31-1.46v-3h-.86V4H123V2.77l.8-.25V4h1.26v.68H123.8V7.5a1.17,1.17,0,0,0,.17.71.66.66,0,0,0,.57.22.85.85,0,0,0,.52-.17Z"/>
    <path class="cls-7" d="M128.22,9.11a2.31,2.31,0,0,1-1.77-.7,2.6,2.6,0,0,1-.66-1.86,2.67,2.67,0,0,1,.68-2,2.45,2.45,0,0,1,1.86-.71,2.25,2.25,0,0,1,1.75.69,2.72,2.72,0,0,1,.63,1.91A2.69,2.69,0,0,1,130,8.39,2.36,2.36,0,0,1,128.22,9.11Zm.06-4.56a1.54,1.54,0,0,0-1.23.53,2.19,2.19,0,0,0-.44,1.44,2.08,2.08,0,0,0,.45,1.41,1.55,1.55,0,0,0,1.22.51,1.48,1.48,0,0,0,1.19-.5,2.21,2.21,0,0,0,.42-1.44,2.21,2.21,0,0,0-.42-1.44A1.46,1.46,0,0,0,128.28,4.55Z"/>
    <path class="cls-7" d="M134.59,4.81a1,1,0,0,0-.6-.17,1,1,0,0,0-.86.49,2.23,2.23,0,0,0-.34,1.32V9H132V4h.8V5h0a1.67,1.67,0,0,1,.52-.83,1.22,1.22,0,0,1,.79-.29,1.19,1.19,0,0,1,.47.07Z"/>
    <path class="cls-7" d="M135.87,2.73a.49.49,0,0,1-.36-.15.5.5,0,0,1-.15-.37.5.5,0,0,1,.51-.52.57.57,0,0,1,.38.14.52.52,0,0,1,.15.38.49.49,0,0,1-.15.36A.55.55,0,0,1,135.87,2.73ZM136.26,9h-.8V4h.8Z"/>
    <path class="cls-7" d="M137.58,8.81V8a2.4,2.4,0,0,0,1.44.48c.71,0,1.06-.24,1.06-.7A.59.59,0,0,0,140,7.4a.75.75,0,0,0-.25-.25,1.52,1.52,0,0,0-.36-.19l-.45-.18c-.22-.09-.41-.18-.58-.27a1.74,1.74,0,0,1-.42-.3,1,1,0,0,1-.25-.38,1.33,1.33,0,0,1-.09-.51,1.27,1.27,0,0,1,.16-.62,1.42,1.42,0,0,1,.43-.45A1.84,1.84,0,0,1,138.8,4a2.76,2.76,0,0,1,.71-.09,2.86,2.86,0,0,1,1.16.22v.81a2.27,2.27,0,0,0-1.27-.36,1.7,1.7,0,0,0-.41,0,1.28,1.28,0,0,0-.31.15.7.7,0,0,0-.2.22.68.68,0,0,0-.07.28.81.81,0,0,0,.07.33.79.79,0,0,0,.21.24A1.69,1.69,0,0,0,139,6l.45.18c.22.09.42.17.59.26a1.7,1.7,0,0,1,.45.31,1.17,1.17,0,0,1,.29.38,1.43,1.43,0,0,1,.1.53,1.22,1.22,0,0,1-.17.64,1.35,1.35,0,0,1-.43.46,1.78,1.78,0,0,1-.63.26,3.08,3.08,0,0,1-.75.09A2.85,2.85,0,0,1,137.58,8.81Z"/>
    <path class="cls-7" d="M145.71,9h-.8V8.21h0a1.68,1.68,0,0,1-1.54.9,1.65,1.65,0,0,1-1.17-.39,1.39,1.39,0,0,1-.42-1.05c0-.94.55-1.48,1.65-1.63l1.5-.21c0-.85-.35-1.28-1-1.28a2.44,2.44,0,0,0-1.63.62V4.35a3,3,0,0,1,1.69-.47q1.77,0,1.77,1.86Zm-.8-2.53-1.21.16a2,2,0,0,0-.84.28.78.78,0,0,0-.28.7.76.76,0,0,0,.26.6,1,1,0,0,0,.69.23,1.29,1.29,0,0,0,1-.42A1.49,1.49,0,0,0,144.91,7Z"/>
    <path class="cls-7" d="M149.54,9a1.61,1.61,0,0,1-.75.15c-.88,0-1.32-.49-1.32-1.46v-3h-.85V4h.85V2.77l.81-.25V4h1.26v.68h-1.26V7.5a1.11,1.11,0,0,0,.17.71.65.65,0,0,0,.56.22.88.88,0,0,0,.53-.17Z"/>
    <path class="cls-7" d="M151,2.73a.49.49,0,0,1-.36-.15.5.5,0,0,1-.15-.37.5.5,0,0,1,.51-.52.56.56,0,0,1,.38.14.52.52,0,0,1,.15.38.49.49,0,0,1-.15.36A.53.53,0,0,1,151,2.73Zm.4,6.27h-.81V4h.81Z"/>
    <path class="cls-7" d="M155.12,9.11a2.31,2.31,0,0,1-1.77-.7,2.6,2.6,0,0,1-.67-1.86,2.68,2.68,0,0,1,.69-2,2.45,2.45,0,0,1,1.86-.71,2.25,2.25,0,0,1,1.75.69,2.72,2.72,0,0,1,.63,1.91,2.69,2.69,0,0,1-.68,1.91A2.36,2.36,0,0,1,155.12,9.11Zm0-4.56a1.53,1.53,0,0,0-1.22.53,2.19,2.19,0,0,0-.45,1.44A2.08,2.08,0,0,0,154,7.93a1.54,1.54,0,0,0,1.21.51,1.49,1.49,0,0,0,1.2-.5,2.21,2.21,0,0,0,.42-1.44,2.21,2.21,0,0,0-.42-1.44A1.47,1.47,0,0,0,155.17,4.55Z"/>
    <path class="cls-7" d="M163,9h-.8V6.14q0-1.59-1.17-1.59a1.25,1.25,0,0,0-1,.45,1.68,1.68,0,0,0-.39,1.14V9h-.8V4h.8v.83h0a1.78,1.78,0,0,1,1.64-1,1.51,1.51,0,0,1,1.25.53A2.35,2.35,0,0,1,163,5.94Z"/>
    <path class="cls-7" d="M169.38,10.59h-.71a6.26,6.26,0,0,1-1.51-4.27A6.47,6.47,0,0,1,168.67,2h.72a6.6,6.6,0,0,0-1.53,4.32A6.5,6.5,0,0,0,169.38,10.59Z"/>
    <path class="cls-7" d="M173.88,9h-.8V8.21h0a1.68,1.68,0,0,1-1.54.9,1.65,1.65,0,0,1-1.17-.39,1.39,1.39,0,0,1-.42-1.05c0-.94.55-1.48,1.65-1.63l1.5-.21c0-.85-.34-1.28-1-1.28a2.46,2.46,0,0,0-1.63.62V4.35a3,3,0,0,1,1.7-.47c1.17,0,1.76.62,1.76,1.86Zm-.8-2.53-1.21.16a2,2,0,0,0-.84.28.81.81,0,0,0-.28.7.79.79,0,0,0,.26.6,1.05,1.05,0,0,0,.7.23,1.27,1.27,0,0,0,1-.42A1.49,1.49,0,0,0,173.08,7Z"/>
    <path class="cls-7" d="M179.32,4l-2,5h-.79l-1.89-5h.88l1.27,3.63a3.2,3.2,0,0,1,.17.7h0a3.23,3.23,0,0,1,.16-.68L178.48,4Z"/>
    <path class="cls-7" d="M184.2,6.7h-3.53A1.82,1.82,0,0,0,181.12,8a1.52,1.52,0,0,0,1.18.46,2.46,2.46,0,0,0,1.55-.56v.75a2.89,2.89,0,0,1-1.74.48,2.14,2.14,0,0,1-1.67-.68,2.8,2.8,0,0,1-.6-1.92,2.75,2.75,0,0,1,.66-1.9,2.12,2.12,0,0,1,1.64-.73,1.88,1.88,0,0,1,1.52.63,2.66,2.66,0,0,1,.54,1.77ZM183.38,6A1.59,1.59,0,0,0,183,4.94a1.12,1.12,0,0,0-.91-.39,1.28,1.28,0,0,0-1,.41A1.78,1.78,0,0,0,180.68,6Z"/>
    <path class="cls-7" d="M188.82,8.77a2.63,2.63,0,0,1-1.37.34,2.29,2.29,0,0,1-1.73-.69,2.57,2.57,0,0,1-.65-1.81,2.73,2.73,0,0,1,.71-2,2.47,2.47,0,0,1,1.89-.75,2.7,2.7,0,0,1,1.16.24v.82a2,2,0,0,0-1.19-.39,1.61,1.61,0,0,0-1.26.55,2.08,2.08,0,0,0-.49,1.44,2,2,0,0,0,.46,1.39,1.59,1.59,0,0,0,1.24.51A2,2,0,0,0,188.82,8Z"/>
    <path class="cls-7" d="M193.7,6.35V9h-.82V2h1.92a2.56,2.56,0,0,1,1.74.55,2,2,0,0,1,.62,1.54,2.1,2.1,0,0,1-.69,1.63,2.59,2.59,0,0,1-1.85.64Zm0-3.61V5.61h.85a1.92,1.92,0,0,0,1.3-.39,1.38,1.38,0,0,0,.45-1.1c0-.92-.55-1.38-1.64-1.38Z"/>
    <path class="cls-7" d="M203.35,9h-1.14L199.5,5.79a1.73,1.73,0,0,1-.18-.24h0V9h-.82V2h.82V5.28h0a1.12,1.12,0,0,1,.18-.23L202.12,2h1l-3,3.36Z"/>
    <path class="cls-7" d="M208.6,8.7a4,4,0,0,1-1.93.41,3.11,3.11,0,0,1-2.39-1,3.54,3.54,0,0,1-.9-2.52,3.71,3.71,0,0,1,1-2.72,3.42,3.42,0,0,1,2.56-1,4.11,4.11,0,0,1,1.65.28V3a3.33,3.33,0,0,0-1.66-.42,2.56,2.56,0,0,0-1.95.8,3.05,3.05,0,0,0-.75,2.16,2.89,2.89,0,0,0,.7,2,2.41,2.41,0,0,0,1.84.76,3.45,3.45,0,0,0,1.82-.47Z"/>
    <path class="cls-7" d="M213.74,9H210V2h3.55v.75h-2.73V5.06h2.53V5.8h-2.53V8.25h2.89Z"/>
    <path class="cls-7" d="M215,10.59h-.71a6.5,6.5,0,0,0,1.52-4.28A6.6,6.6,0,0,0,214.28,2H215a6.48,6.48,0,0,1,1.52,4.33A6.27,6.27,0,0,1,215,10.59Z"/>
    <path class="cls-7" d="M41.15,18.52H38.48v-.63h2.67Z"/>
    <path class="cls-7" d="M50.85,21h-.91l-.74-2h-3l-.69,2h-.92l2.69-7h.85Zm-1.92-2.7-1.09-3a2,2,0,0,1-.11-.47h0a2.53,2.53,0,0,1-.11.47l-1.09,3Z"/>
    <path class="cls-7" d="M55.82,21H55v-.8h0a1.64,1.64,0,0,1-1.54.91c-1.2,0-1.79-.71-1.79-2.13V16h.79v2.86c0,1.05.41,1.58,1.22,1.58a1.24,1.24,0,0,0,1-.43A1.68,1.68,0,0,0,55,18.88V16h.8Z"/>
    <path class="cls-7" d="M59.75,21a1.54,1.54,0,0,1-.74.15c-.88,0-1.32-.49-1.32-1.46v-3h-.86V16h.86V14.77l.8-.25V16h1.26v.68H58.49V19.5a1.1,1.1,0,0,0,.18.71.65.65,0,0,0,.56.22.83.83,0,0,0,.52-.17Z"/>
    <path class="cls-7" d="M65,21h-.8V18.11c0-1-.38-1.56-1.16-1.56A1.28,1.28,0,0,0,62,17a1.72,1.72,0,0,0-.4,1.16V21h-.8V13.59h.8v3.24h0a1.82,1.82,0,0,1,1.64-.95c1.13,0,1.69.68,1.69,2Z"/>
    <path class="cls-7" d="M70.5,18.7H67A1.82,1.82,0,0,0,67.42,20a1.53,1.53,0,0,0,1.18.46,2.44,2.44,0,0,0,1.55-.56v.75a2.87,2.87,0,0,1-1.74.48,2.12,2.12,0,0,1-1.66-.68,2.75,2.75,0,0,1-.61-1.92,2.75,2.75,0,0,1,.66-1.9,2.12,2.12,0,0,1,1.65-.73,1.86,1.86,0,0,1,1.51.63,2.66,2.66,0,0,1,.54,1.77ZM69.68,18a1.59,1.59,0,0,0-.33-1.08,1.14,1.14,0,0,0-.92-.39,1.28,1.28,0,0,0-1,.41A1.84,1.84,0,0,0,67,18Z"/>
    <path class="cls-7" d="M75.86,21h-.8V18.14c0-1.06-.39-1.59-1.16-1.59a1.25,1.25,0,0,0-1,.45,1.64,1.64,0,0,0-.4,1.14V21h-.8V16h.8v.83h0a1.8,1.8,0,0,1,1.64-.95,1.52,1.52,0,0,1,1.26.53,2.34,2.34,0,0,1,.43,1.53Z"/>
    <path class="cls-7" d="M79.69,21a1.61,1.61,0,0,1-.75.15c-.87,0-1.31-.49-1.31-1.46v-3h-.86V16h.86V14.77l.8-.25V16h1.26v.68H78.43V19.5a1.17,1.17,0,0,0,.17.71.67.67,0,0,0,.57.22.85.85,0,0,0,.52-.17Z"/>
    <path class="cls-7" d="M81.17,14.73a.53.53,0,0,1-.37-.15.5.5,0,0,1-.15-.37.52.52,0,0,1,.15-.38.57.57,0,0,1,.37-.14.53.53,0,0,1,.37.14.49.49,0,0,1,.16.38.46.46,0,0,1-.16.36A.51.51,0,0,1,81.17,14.73ZM81.56,21h-.8V16h.8Z"/>
    <path class="cls-7" d="M85.65,14.3a1,1,0,0,0-.53-.14c-.56,0-.84.36-.84,1.06V16h1.17v.68H84.28V21h-.8V16.68h-.85V16h.85v-.82a1.71,1.71,0,0,1,.46-1.24,1.77,1.77,0,0,1,1.71-.37Zm1.08.43a.51.51,0,0,1-.37-.15.53.53,0,0,1,0-.74.51.51,0,0,1,.37-.15.57.57,0,0,1,.38.14.52.52,0,0,1,.15.38.49.49,0,0,1-.15.36A.55.55,0,0,1,86.73,14.73ZM87.12,21h-.8V16h.8Z"/>
    <path class="cls-7" d="M92.14,20.77a2.63,2.63,0,0,1-1.37.34A2.29,2.29,0,0,1,89,20.42a2.57,2.57,0,0,1-.65-1.81,2.73,2.73,0,0,1,.71-2A2.46,2.46,0,0,1,91,15.88a2.72,2.72,0,0,1,1.17.24v.82A2,2,0,0,0,91,16.55a1.6,1.6,0,0,0-1.26.55,2.08,2.08,0,0,0-.49,1.44,2,2,0,0,0,.46,1.39,1.59,1.59,0,0,0,1.24.51A2,2,0,0,0,92.14,20Z"/>
    <path class="cls-7" d="M96.93,21h-.8v-.79h0a1.68,1.68,0,0,1-1.54.9,1.65,1.65,0,0,1-1.17-.39,1.39,1.39,0,0,1-.42-1c0-.94.55-1.48,1.65-1.63l1.5-.21c0-.85-.35-1.28-1-1.28a2.44,2.44,0,0,0-1.63.62v-.82a3,3,0,0,1,1.69-.47q1.77,0,1.77,1.86Zm-.8-2.53-1.21.16a2,2,0,0,0-.84.28.78.78,0,0,0-.28.7.76.76,0,0,0,.26.6,1,1,0,0,0,.69.23,1.29,1.29,0,0,0,1-.42A1.49,1.49,0,0,0,96.13,19Z"/>
    <path class="cls-7" d="M100.76,21a1.61,1.61,0,0,1-.75.15c-.88,0-1.32-.49-1.32-1.46v-3h-.85V16h.85V14.77l.81-.25V16h1.26v.68H99.5V19.5a1.11,1.11,0,0,0,.17.71.65.65,0,0,0,.56.22.88.88,0,0,0,.53-.17Z"/>
    <path class="cls-7" d="M102.23,14.73a.49.49,0,0,1-.36-.15.5.5,0,0,1-.15-.37.5.5,0,0,1,.51-.52.56.56,0,0,1,.38.14.52.52,0,0,1,.15.38.49.49,0,0,1-.15.36A.53.53,0,0,1,102.23,14.73Zm.4,6.27h-.81V16h.81Z"/>
    <path class="cls-7" d="M106.34,21.11a2.31,2.31,0,0,1-1.77-.7,2.6,2.6,0,0,1-.67-1.86,2.68,2.68,0,0,1,.69-2,2.45,2.45,0,0,1,1.86-.71,2.25,2.25,0,0,1,1.75.69,2.72,2.72,0,0,1,.63,1.91,2.69,2.69,0,0,1-.68,1.91A2.37,2.37,0,0,1,106.34,21.11Zm.06-4.56a1.54,1.54,0,0,0-1.23.53,2.19,2.19,0,0,0-.44,1.44,2.08,2.08,0,0,0,.45,1.41,1.55,1.55,0,0,0,1.22.51,1.48,1.48,0,0,0,1.19-.5A2.21,2.21,0,0,0,108,18.5a2.21,2.21,0,0,0-.42-1.44A1.46,1.46,0,0,0,106.4,16.55Z"/>
    <path class="cls-7" d="M114.26,21h-.8V18.14q0-1.59-1.17-1.59a1.25,1.25,0,0,0-1,.45,1.68,1.68,0,0,0-.39,1.14V21h-.8V16h.8v.83h0a1.78,1.78,0,0,1,1.64-.95,1.51,1.51,0,0,1,1.25.53,2.35,2.35,0,0,1,.44,1.53Z"/>
    <path class="cls-7" d="M126.91,14l-2,7h-1l-1.44-5.12a3.19,3.19,0,0,1-.11-.71h0a3.32,3.32,0,0,1-.13.7L120.82,21h-.95l-2.05-7h.9l1.49,5.37a3.29,3.29,0,0,1,.12.71h0a3.23,3.23,0,0,1,.15-.71L122.05,14h.79l1.49,5.41a3.78,3.78,0,0,1,.11.66h0a4.11,4.11,0,0,1,.13-.68L126,14Z"/>
    <path class="cls-7" d="M128.26,14.73a.51.51,0,0,1-.52-.52.52.52,0,0,1,.15-.38.53.53,0,0,1,.37-.14.55.55,0,0,1,.37.14.52.52,0,0,1,.15.38.49.49,0,0,1-.15.36A.52.52,0,0,1,128.26,14.73Zm.39,6.27h-.8V16h.8Z"/>
    <path class="cls-7" d="M134.42,21h-.8V18.14c0-1.06-.39-1.59-1.16-1.59a1.26,1.26,0,0,0-1,.45,1.68,1.68,0,0,0-.39,1.14V21h-.8V16h.8v.83h0a1.79,1.79,0,0,1,1.64-.95,1.5,1.5,0,0,1,1.25.53,2.35,2.35,0,0,1,.44,1.53Z"/>
    <path class="cls-7" d="M140.19,21h-.8v-.85h0a1.84,1.84,0,0,1-1.71,1,1.87,1.87,0,0,1-1.51-.67,2.75,2.75,0,0,1-.57-1.83,3,3,0,0,1,.63-2,2.06,2.06,0,0,1,1.67-.75,1.59,1.59,0,0,1,1.49.81h0v-3.1h.8Zm-.8-2.27V18a1.42,1.42,0,0,0-.4-1,1.32,1.32,0,0,0-1-.42,1.37,1.37,0,0,0-1.15.54,2.35,2.35,0,0,0-.42,1.48,2.13,2.13,0,0,0,.4,1.37,1.33,1.33,0,0,0,1.08.5A1.38,1.38,0,0,0,139,20,1.86,1.86,0,0,0,139.39,18.73Z"/>
    <path class="cls-7" d="M143.91,21.11a2.31,2.31,0,0,1-1.77-.7,2.56,2.56,0,0,1-.67-1.86,2.68,2.68,0,0,1,.69-2,2.45,2.45,0,0,1,1.86-.71,2.25,2.25,0,0,1,1.75.69,2.72,2.72,0,0,1,.63,1.91,2.69,2.69,0,0,1-.68,1.91A2.37,2.37,0,0,1,143.91,21.11Zm.05-4.56a1.53,1.53,0,0,0-1.22.53,2.14,2.14,0,0,0-.45,1.44,2.08,2.08,0,0,0,.46,1.41,1.54,1.54,0,0,0,1.21.51,1.49,1.49,0,0,0,1.2-.5,2.21,2.21,0,0,0,.42-1.44,2.21,2.21,0,0,0-.42-1.44A1.47,1.47,0,0,0,144,16.55Z"/>
    <path class="cls-7" d="M154,16l-1.5,5h-.83l-1-3.58a2.93,2.93,0,0,1-.07-.47h0a2.27,2.27,0,0,1-.11.46L149.3,21h-.8L147,16h.84l1,3.75a2.46,2.46,0,0,1,.06.45h0a2,2,0,0,1,.09-.45L150.2,16h.74l1,3.76a2.51,2.51,0,0,1,.07.45h0a2.53,2.53,0,0,1,.09-.45l1-3.76Z"/>
    <path class="cls-7" d="M154.6,20.81V20a2.4,2.4,0,0,0,1.44.48c.7,0,1.05-.24,1.05-.7a.59.59,0,0,0-.09-.34.82.82,0,0,0-.24-.25,1.52,1.52,0,0,0-.36-.19l-.45-.18c-.22-.09-.41-.18-.58-.27a1.74,1.74,0,0,1-.42-.3,1.22,1.22,0,0,1-.26-.38,1.56,1.56,0,0,1-.08-.51,1.17,1.17,0,0,1,.16-.62,1.42,1.42,0,0,1,.43-.45,1.79,1.79,0,0,1,.61-.28,3,3,0,0,1,1.87.13v.81a2.24,2.24,0,0,0-1.26-.36,1.7,1.7,0,0,0-.41.05,1.28,1.28,0,0,0-.31.15.6.6,0,0,0-.2.22.55.55,0,0,0-.07.28.67.67,0,0,0,.07.33.79.79,0,0,0,.21.24A1.69,1.69,0,0,0,156,18l.44.18c.23.09.42.17.6.26a1.88,1.88,0,0,1,.45.31,1.14,1.14,0,0,1,.28.38,1.25,1.25,0,0,1,.1.53,1.22,1.22,0,0,1-.16.64,1.38,1.38,0,0,1-.44.46,1.78,1.78,0,0,1-.63.26,2.94,2.94,0,0,1-.74.09A2.82,2.82,0,0,1,154.6,20.81Z"/>
    <path class="cls-7" d="M162.29,14.73a.49.49,0,0,1-.36-.15.5.5,0,0,1-.15-.37.5.5,0,0,1,.51-.52.56.56,0,0,1,.38.14.52.52,0,0,1,.15.38.49.49,0,0,1-.15.36A.53.53,0,0,1,162.29,14.73Zm.39,6.27h-.8V16h.8Z"/>
    <path class="cls-7" d="M168.46,21h-.8V18.14q0-1.59-1.17-1.59a1.25,1.25,0,0,0-1,.45,1.68,1.68,0,0,0-.39,1.14V21h-.8V16h.8v.83h0a1.78,1.78,0,0,1,1.64-.95,1.51,1.51,0,0,1,1.25.53,2.35,2.35,0,0,1,.44,1.53Z"/>
    <path class="cls-7" d="M172.28,21a1.54,1.54,0,0,1-.74.15c-.88,0-1.32-.49-1.32-1.46v-3h-.86V16h.86V14.77l.8-.25V16h1.26v.68H171V19.5a1.1,1.1,0,0,0,.18.71.65.65,0,0,0,.56.22.83.83,0,0,0,.52-.17Z"/>
    <path class="cls-7" d="M177.37,18.7h-3.53a1.87,1.87,0,0,0,.45,1.28,1.53,1.53,0,0,0,1.18.46,2.49,2.49,0,0,0,1.56-.56v.75a2.92,2.92,0,0,1-1.75.48,2.12,2.12,0,0,1-1.66-.68,2.75,2.75,0,0,1-.61-1.92,2.75,2.75,0,0,1,.66-1.9,2.12,2.12,0,0,1,1.65-.73,1.86,1.86,0,0,1,1.51.63,2.66,2.66,0,0,1,.54,1.77Zm-.82-.68a1.59,1.59,0,0,0-.33-1.08,1.14,1.14,0,0,0-.92-.39,1.28,1.28,0,0,0-1,.41,1.84,1.84,0,0,0-.49,1.06Zm-.13-4.57-1.27,1.6h-.62l1.08-1.6Z"/>
    <path class="cls-7" d="M182.85,20.59q0,2.76-2.64,2.76a3.64,3.64,0,0,1-1.62-.35v-.8a3.38,3.38,0,0,0,1.61.47c1.23,0,1.85-.66,1.85-2v-.54h0a2,2,0,0,1-3.22.29,2.67,2.67,0,0,1-.57-1.79,3.17,3.17,0,0,1,.61-2,2.06,2.06,0,0,1,1.68-.75,1.62,1.62,0,0,1,1.5.81h0V16h.8Zm-.8-1.86V18a1.41,1.41,0,0,0-.4-1,1.32,1.32,0,0,0-1-.43,1.39,1.39,0,0,0-1.16.54,2.42,2.42,0,0,0-.42,1.51,2.14,2.14,0,0,0,.4,1.34,1.32,1.32,0,0,0,1.07.5,1.4,1.4,0,0,0,1.1-.48A1.8,1.8,0,0,0,182.05,18.73Z"/>
    <path class="cls-7" d="M187.08,16.81a1,1,0,0,0-.61-.17,1,1,0,0,0-.85.49,2.22,2.22,0,0,0-.35,1.32V21h-.8V16h.8v1h0a1.82,1.82,0,0,1,.52-.83,1.24,1.24,0,0,1,.79-.29,1.22,1.22,0,0,1,.48.07Z"/>
    <path class="cls-7" d="M192,18.7h-3.53a1.82,1.82,0,0,0,.45,1.28,1.52,1.52,0,0,0,1.18.46,2.46,2.46,0,0,0,1.55-.56v.75a2.89,2.89,0,0,1-1.74.48,2.14,2.14,0,0,1-1.67-.68,2.8,2.8,0,0,1-.6-1.92,2.75,2.75,0,0,1,.66-1.9,2.12,2.12,0,0,1,1.64-.73,1.88,1.88,0,0,1,1.52.63,2.66,2.66,0,0,1,.54,1.77Zm-.82-.68a1.64,1.64,0,0,0-.34-1.08,1.12,1.12,0,0,0-.91-.39,1.32,1.32,0,0,0-1,.41,1.83,1.83,0,0,0-.48,1.06ZM191,13.45l-1.28,1.6h-.62l1.09-1.6Z"/>
    <path class="cls-7" d="M197.2,18.7h-3.53a1.82,1.82,0,0,0,.45,1.28,1.52,1.52,0,0,0,1.18.46,2.46,2.46,0,0,0,1.55-.56v.75a2.89,2.89,0,0,1-1.74.48,2.14,2.14,0,0,1-1.67-.68,2.8,2.8,0,0,1-.6-1.92,2.75,2.75,0,0,1,.66-1.9,2.12,2.12,0,0,1,1.64-.73,1.9,1.9,0,0,1,1.52.63,2.66,2.66,0,0,1,.54,1.77Zm-.82-.68a1.64,1.64,0,0,0-.34-1.08,1.12,1.12,0,0,0-.91-.39,1.32,1.32,0,0,0-1,.41,1.83,1.83,0,0,0-.48,1.06Z"/>
    <path class="cls-7" d="M41.15,30.52H38.48v-.63h2.67Z"/>
    <path class="cls-7" d="M51.08,33h-1l-3.6-5.59a2.3,2.3,0,0,1-.23-.44h0a6.66,6.66,0,0,1,0,1V33h-.82V26H46.5l3.5,5.5c.15.22.24.38.29.47h0a6.51,6.51,0,0,1-.05-1V26h.82Z"/>
    <path class="cls-7" d="M54.9,33.11a2.31,2.31,0,0,1-1.77-.7,2.6,2.6,0,0,1-.67-1.86,2.68,2.68,0,0,1,.69-2A2.45,2.45,0,0,1,55,27.88a2.25,2.25,0,0,1,1.75.69,2.72,2.72,0,0,1,.63,1.91,2.69,2.69,0,0,1-.68,1.91A2.37,2.37,0,0,1,54.9,33.11ZM55,28.55a1.53,1.53,0,0,0-1.22.53,2.14,2.14,0,0,0-.45,1.44,2.08,2.08,0,0,0,.46,1.41,1.54,1.54,0,0,0,1.21.51,1.49,1.49,0,0,0,1.2-.5,2.68,2.68,0,0,0,0-2.88A1.47,1.47,0,0,0,55,28.55Z"/>
    <path class="cls-7" d="M65.77,33H65V30.12a2.19,2.19,0,0,0-.25-1.2,1,1,0,0,0-.86-.37A1.08,1.08,0,0,0,63,29a1.84,1.84,0,0,0-.35,1.12V33h-.81V30c0-1-.37-1.48-1.13-1.48a1.07,1.07,0,0,0-.87.44,1.83,1.83,0,0,0-.34,1.15V33h-.8V28h.8v.79h0A1.68,1.68,0,0,1,61,27.88a1.43,1.43,0,0,1,.89.28,1.37,1.37,0,0,1,.52.75,1.79,1.79,0,0,1,1.66-1c1.1,0,1.66.68,1.66,2Z"/>
    <path class="cls-7" d="M74.29,33h-.81v-.85h0a2,2,0,0,1-3.23.29,2.74,2.74,0,0,1-.56-1.83,3,3,0,0,1,.62-2A2.06,2.06,0,0,1,72,27.88a1.62,1.62,0,0,1,1.5.81h0v-3.1h.81Zm-.81-2.27V30a1.42,1.42,0,0,0-.4-1,1.32,1.32,0,0,0-1-.42,1.37,1.37,0,0,0-1.15.54,2.35,2.35,0,0,0-.42,1.48,2.13,2.13,0,0,0,.4,1.37,1.33,1.33,0,0,0,1.08.5A1.38,1.38,0,0,0,73.07,32,1.81,1.81,0,0,0,73.48,30.73Z"/>
    <path class="cls-7" d="M76.89,25.88l-.68,2.17h-.58l.55-2.17Z"/>
    <path class="cls-7" d="M82.24,33h-.8v-.8h0a1.64,1.64,0,0,1-1.54.91c-1.19,0-1.79-.71-1.79-2.13V28h.8v2.86c0,1.05.4,1.58,1.21,1.58a1.24,1.24,0,0,0,1-.43,1.68,1.68,0,0,0,.38-1.13V28h.8Z"/>
    <path class="cls-7" d="M86.18,33a1.61,1.61,0,0,1-.75.15c-.88,0-1.32-.49-1.32-1.46v-3h-.85V28h.85V26.77l.81-.25V28h1.26v.68H84.92V31.5a1.11,1.11,0,0,0,.17.71.65.65,0,0,0,.56.22.88.88,0,0,0,.53-.17Z"/>
    <path class="cls-7" d="M87.65,26.73a.49.49,0,0,1-.36-.15.5.5,0,0,1-.15-.37.5.5,0,0,1,.51-.52.56.56,0,0,1,.38.14.52.52,0,0,1,.15.38.49.49,0,0,1-.15.36A.53.53,0,0,1,87.65,26.73Zm.4,6.27h-.81V28h.81Z"/>
    <path class="cls-7" d="M90.47,33h-.8V25.59h.8Z"/>
    <path class="cls-7" d="M92.5,26.73a.51.51,0,0,1-.37-.15.5.5,0,0,1-.15-.37.52.52,0,0,1,.15-.38.55.55,0,0,1,.37-.14.51.51,0,0,1,.53.52.5.5,0,0,1-.16.36A.51.51,0,0,1,92.5,26.73ZM92.89,33h-.8V28h.8Z"/>
    <path class="cls-7" d="M94.21,32.81V32a2.35,2.35,0,0,0,1.44.48c.7,0,1-.24,1-.7a.59.59,0,0,0-.09-.34.82.82,0,0,0-.24-.25A1.52,1.52,0,0,0,96,31l-.45-.18a5.37,5.37,0,0,1-.58-.27,1.74,1.74,0,0,1-.42-.3,1.08,1.08,0,0,1-.26-.38,1.56,1.56,0,0,1-.08-.51,1.17,1.17,0,0,1,.16-.62,1.42,1.42,0,0,1,.43-.45,1.79,1.79,0,0,1,.61-.28,2.82,2.82,0,0,1,.71-.09,2.86,2.86,0,0,1,1.16.22v.81A2.25,2.25,0,0,0,96,28.55a1.62,1.62,0,0,0-.4.05,1.28,1.28,0,0,0-.31.15.6.6,0,0,0-.2.22.55.55,0,0,0-.07.28.65.65,0,0,0,.28.57,1.69,1.69,0,0,0,.33.18l.44.18c.22.09.42.17.6.26a2.11,2.11,0,0,1,.45.31,1.14,1.14,0,0,1,.28.38,1.25,1.25,0,0,1,.1.53,1.22,1.22,0,0,1-.16.64,1.48,1.48,0,0,1-.44.46,1.78,1.78,0,0,1-.63.26,3,3,0,0,1-.74.09A2.79,2.79,0,0,1,94.21,32.81Z"/>
    <path class="cls-7" d="M102.33,33h-.8v-.79h0a1.83,1.83,0,0,1-2.71.51,1.39,1.39,0,0,1-.42-1c0-.94.55-1.48,1.65-1.63l1.5-.21c0-.85-.34-1.28-1-1.28a2.48,2.48,0,0,0-1.63.62v-.82a3,3,0,0,1,1.7-.47c1.18,0,1.76.62,1.76,1.86Zm-.8-2.53-1.2.16a1.87,1.87,0,0,0-.84.28.9.9,0,0,0,0,1.3,1.05,1.05,0,0,0,.7.23,1.27,1.27,0,0,0,1-.42,1.49,1.49,0,0,0,.39-1.06Z"/>
    <path class="cls-7" d="M106.16,33a1.61,1.61,0,0,1-.75.15c-.87,0-1.31-.49-1.31-1.46v-3h-.86V28h.86V26.77l.8-.25V28h1.26v.68H104.9V31.5a1.17,1.17,0,0,0,.17.71.67.67,0,0,0,.57.22.85.85,0,0,0,.52-.17Z"/>
    <path class="cls-7" d="M111.25,30.7h-3.53a1.82,1.82,0,0,0,.45,1.28,1.52,1.52,0,0,0,1.18.46,2.46,2.46,0,0,0,1.55-.56v.75a2.89,2.89,0,0,1-1.74.48,2.14,2.14,0,0,1-1.67-.68,2.8,2.8,0,0,1-.6-1.92,2.75,2.75,0,0,1,.66-1.9,2.12,2.12,0,0,1,1.64-.73,1.88,1.88,0,0,1,1.52.63,2.66,2.66,0,0,1,.54,1.77Zm-.82-.68a1.64,1.64,0,0,0-.34-1.08,1.12,1.12,0,0,0-.91-.39,1.28,1.28,0,0,0-1,.41,1.78,1.78,0,0,0-.49,1.06Z"/>
    <path class="cls-7" d="M116.5,33h-.8v-.8h0a1.63,1.63,0,0,1-1.54.91c-1.19,0-1.79-.71-1.79-2.13V28h.8v2.86c0,1.05.4,1.58,1.21,1.58a1.24,1.24,0,0,0,1-.43,1.63,1.63,0,0,0,.38-1.13V28h.8Z"/>
    <path class="cls-7" d="M120.73,28.81a1,1,0,0,0-.61-.17,1,1,0,0,0-.86.49,2.23,2.23,0,0,0-.34,1.32V33h-.8V28h.8v1h0a1.74,1.74,0,0,1,.52-.83,1.24,1.24,0,0,1,.79-.29,1.22,1.22,0,0,1,.48.07Z"/>
    <path class="cls-7" d="M124.75,26l-3.35,8.17h-.75L124,26Z"/>
    <path class="cls-7" d="M132.59,33h-.8V30.12a2.19,2.19,0,0,0-.25-1.2,1,1,0,0,0-.87-.37,1.08,1.08,0,0,0-.87.47,1.79,1.79,0,0,0-.36,1.12V33h-.8V30c0-1-.38-1.48-1.14-1.48a1.07,1.07,0,0,0-.87.44,1.89,1.89,0,0,0-.34,1.15V33h-.8V28h.8v.79h0a1.71,1.71,0,0,1,1.56-.91,1.45,1.45,0,0,1,.89.28,1.43,1.43,0,0,1,.52.75,1.78,1.78,0,0,1,1.66-1c1.1,0,1.65.68,1.65,2Z"/>
    <path class="cls-7" d="M136.2,33.11a2.31,2.31,0,0,1-1.77-.7,2.56,2.56,0,0,1-.67-1.86,2.68,2.68,0,0,1,.69-2,2.45,2.45,0,0,1,1.86-.71,2.25,2.25,0,0,1,1.75.69,2.72,2.72,0,0,1,.63,1.91,2.69,2.69,0,0,1-.68,1.91A2.37,2.37,0,0,1,136.2,33.11Zm.05-4.56a1.53,1.53,0,0,0-1.22.53,2.14,2.14,0,0,0-.45,1.44,2.08,2.08,0,0,0,.46,1.41,1.54,1.54,0,0,0,1.21.51,1.49,1.49,0,0,0,1.2-.5,2.68,2.68,0,0,0,0-2.88A1.47,1.47,0,0,0,136.25,28.55Z"/>
    <path class="cls-7" d="M142.28,33a1.54,1.54,0,0,1-.74.15c-.88,0-1.32-.49-1.32-1.46v-3h-.86V28h.86V26.77l.8-.25V28h1.26v.68H141V31.5a1.1,1.1,0,0,0,.18.71.65.65,0,0,0,.56.22.83.83,0,0,0,.52-.17Z"/>
    <path class="cls-7" d="M150.36,33h-.8v-.85h0a2,2,0,0,1-3.22.29,2.75,2.75,0,0,1-.57-1.83,3,3,0,0,1,.63-2,2,2,0,0,1,1.66-.75,1.6,1.6,0,0,1,1.5.81h0v-3.1h.8Zm-.8-2.27V30a1.42,1.42,0,0,0-.4-1,1.36,1.36,0,0,0-1-.42,1.39,1.39,0,0,0-1.15.54,2.35,2.35,0,0,0-.42,1.48,2.19,2.19,0,0,0,.4,1.37,1.33,1.33,0,0,0,1.09.5,1.37,1.37,0,0,0,1.08-.48A1.82,1.82,0,0,0,149.56,30.73Z"/>
    <path class="cls-7" d="M156,30.7h-3.53a1.82,1.82,0,0,0,.45,1.28,1.53,1.53,0,0,0,1.18.46,2.46,2.46,0,0,0,1.55-.56v.75a2.89,2.89,0,0,1-1.74.48,2.1,2.1,0,0,1-1.66-.68,3.19,3.19,0,0,1,.05-3.82,2.12,2.12,0,0,1,1.64-.73,1.87,1.87,0,0,1,1.52.63,2.66,2.66,0,0,1,.54,1.77Zm-.82-.68a1.59,1.59,0,0,0-.33-1.08,1.14,1.14,0,0,0-.92-.39,1.28,1.28,0,0,0-1,.41,1.78,1.78,0,0,0-.49,1.06Z"/>
    <path class="cls-7" d="M160.77,32.27h0v3H160V28h.8v.87h0a1.9,1.9,0,0,1,1.73-1,1.83,1.83,0,0,1,1.51.67,2.8,2.8,0,0,1,.54,1.8,3.09,3.09,0,0,1-.61,2,2,2,0,0,1-1.67.75A1.67,1.67,0,0,1,160.77,32.27Zm0-2V31a1.53,1.53,0,0,0,.4,1.06,1.37,1.37,0,0,0,1,.43,1.36,1.36,0,0,0,1.14-.56,2.57,2.57,0,0,0,.41-1.55,2,2,0,0,0-.39-1.3,1.25,1.25,0,0,0-1-.48,1.39,1.39,0,0,0-1.12.49A1.75,1.75,0,0,0,160.75,30.26Z"/>
    <path class="cls-7" d="M169.41,33h-.8v-.79h0a1.68,1.68,0,0,1-1.54.9,1.65,1.65,0,0,1-1.17-.39,1.39,1.39,0,0,1-.42-1c0-.94.55-1.48,1.65-1.63l1.5-.21c0-.85-.35-1.28-1-1.28a2.46,2.46,0,0,0-1.63.62v-.82a3,3,0,0,1,1.7-.47c1.17,0,1.76.62,1.76,1.86Zm-.8-2.53-1.21.16a2,2,0,0,0-.84.28.78.78,0,0,0-.28.7.79.79,0,0,0,.26.6,1,1,0,0,0,.7.23,1.29,1.29,0,0,0,1-.42,1.49,1.49,0,0,0,.39-1.06Z"/>
    <path class="cls-7" d="M170.61,32.81V32a2.4,2.4,0,0,0,1.44.48c.71,0,1.06-.24,1.06-.7a.59.59,0,0,0-.09-.34.82.82,0,0,0-.24-.25,1.84,1.84,0,0,0-.37-.19l-.44-.18c-.22-.09-.42-.18-.59-.27a2.25,2.25,0,0,1-.42-.3,1.19,1.19,0,0,1-.25-.38,1.33,1.33,0,0,1-.09-.51,1.18,1.18,0,0,1,.17-.62,1.39,1.39,0,0,1,.42-.45,1.84,1.84,0,0,1,.62-.28,2.76,2.76,0,0,1,.71-.09,2.86,2.86,0,0,1,1.16.22v.81a2.27,2.27,0,0,0-1.27-.36,1.62,1.62,0,0,0-.4.05,1.12,1.12,0,0,0-.31.15.53.53,0,0,0-.2.22.57.57,0,0,0-.08.28.67.67,0,0,0,.08.33.64.64,0,0,0,.2.24,1.69,1.69,0,0,0,.33.18l.45.18c.22.09.42.17.59.26a1.7,1.7,0,0,1,.45.31,1.17,1.17,0,0,1,.29.38,1.25,1.25,0,0,1,.1.53,1.22,1.22,0,0,1-.16.64,1.48,1.48,0,0,1-.44.46,1.78,1.78,0,0,1-.63.26,3.08,3.08,0,0,1-.75.09A2.85,2.85,0,0,1,170.61,32.81Z"/>
    <path class="cls-7" d="M174.86,32.81V32a2.35,2.35,0,0,0,1.44.48c.7,0,1-.24,1-.7a.59.59,0,0,0-.09-.34.82.82,0,0,0-.24-.25,1.75,1.75,0,0,0-.36-.19l-.45-.18a5.37,5.37,0,0,1-.58-.27,1.74,1.74,0,0,1-.42-.3,1.08,1.08,0,0,1-.26-.38,1.56,1.56,0,0,1-.08-.51,1.17,1.17,0,0,1,.16-.62,1.42,1.42,0,0,1,.43-.45,1.79,1.79,0,0,1,.61-.28,2.82,2.82,0,0,1,.71-.09,2.86,2.86,0,0,1,1.16.22v.81a2.25,2.25,0,0,0-1.27-.36,1.62,1.62,0,0,0-.4.05,1.12,1.12,0,0,0-.31.15.6.6,0,0,0-.2.22.55.55,0,0,0-.07.28.67.67,0,0,0,.07.33.79.79,0,0,0,.21.24,1.69,1.69,0,0,0,.33.18l.44.18c.22.09.42.17.6.26a2.11,2.11,0,0,1,.45.31,1.14,1.14,0,0,1,.28.38,1.25,1.25,0,0,1,.1.53,1.22,1.22,0,0,1-.16.64,1.48,1.48,0,0,1-.44.46,1.78,1.78,0,0,1-.63.26,2.94,2.94,0,0,1-.74.09A2.82,2.82,0,0,1,174.86,32.81Z"/>
    <path class="cls-7" d="M183.42,30.7h-3.53a1.87,1.87,0,0,0,.45,1.28,1.53,1.53,0,0,0,1.18.46,2.49,2.49,0,0,0,1.56-.56v.75a2.92,2.92,0,0,1-1.75.48,2.12,2.12,0,0,1-1.66-.68,3.19,3.19,0,0,1,.05-3.82,2.12,2.12,0,0,1,1.65-.73,1.86,1.86,0,0,1,1.51.63,2.66,2.66,0,0,1,.54,1.77ZM182.6,30a1.59,1.59,0,0,0-.33-1.08,1.14,1.14,0,0,0-.92-.39,1.28,1.28,0,0,0-1,.41A1.84,1.84,0,0,0,179.9,30Z"/>
  </g>
  <line class="cls-8" x1="162.7" y1="54.45" x2="75.52" y2="54.45"/>
</svg>
