<svg id="svg111" xmlns="http://www.w3.org/2000/svg" viewBox="0 0 204.7 66.2">
  <defs>
    <style>
      .cls-1 {
        fill: #007efd;
      }

      .cls-2, .cls-9 {
        fill: none;
      }

      .cls-3 {
        isolation: isolate;
      }

      .cls-4, .cls-5 {
        fill: #008bfd;
      }

      .cls-5 {
        stroke: gray;
        stroke-linejoin: round;
        stroke-width: 0.75px;
      }

      .cls-5, .cls-9 {
        stroke-linecap: round;
      }

      .cls-6 {
        fill: #fff;
      }

      .cls-7 {
        fill: #00b0f0;
      }

      .cls-8 {
        fill: #505050;
      }

      .cls-9 {
        stroke: #505050;
        stroke-miterlimit: 10;
        stroke-width: 1.91px;
      }
    </style>
  </defs>
  <title>OJ104546516</title>
  <g id="group1195-2">
    <g id="shape1200-7">
      <path id="path33" class="cls-1" d="M69.65,9.3h-6.1a.46.46,0,0,0-.4.5V12a.43.43,0,0,0,.4.4h3.5v3.4a.43.43,0,0,0,.4.4h2.2a.37.37,0,0,0,.4-.4v-6A.46.46,0,0,0,69.65,9.3Zm-17.2,21H49V26.9a.46.46,0,0,0-.5-.4h-2.2a.37.37,0,0,0-.4.4v6a.43.43,0,0,0,.4.4h6.1a.46.46,0,0,0,.4-.5V30.6C52.85,30.5,52.65,30.3,52.45,30.3Zm13.6-3.7c-.2,0-.3,0-.4.1l-2.3-4.1a2.76,2.76,0,0,0-1.9-4.8,3.59,3.59,0,0,0-1.1.2l-2.6-3.4a2,2,0,0,0,.5-1.5A2.26,2.26,0,0,0,56,10.8a2.3,2.3,0,0,0,0,4.6,2.35,2.35,0,0,0,.8-.2l2.5,3.5a3.09,3.09,0,0,0-.7,1.4l-7.2.6a1.82,1.82,0,0,0-1.7-1,1.9,1.9,0,0,0,0,3.8,2,2,0,0,0,1.9-1.6l7.1-.6a4.73,4.73,0,0,0,.7,1.2l-1.8,2.9h-.2a1.9,1.9,0,0,0,0,3.8,1.91,1.91,0,0,0,1.4-3.2l1.7-2.9a3,3,0,0,0,1,.2,2.35,2.35,0,0,0,.8-.2l2.3,4.1a2.36,2.36,0,0,0-.7,1.6,2.2,2.2,0,1,0,2.2-2.2Z"/>
    </g>
  </g>
  <rect class="cls-2" x="26.2" y="38.6" width="64.6" height="24.2"/>
  <g id="Brows..." class="cls-3">
    <g class="cls-3">
      <path class="cls-1" d="M23.73,46.86v-1a2.4,2.4,0,0,0,.39.26,4.19,4.19,0,0,0,.49.2,4.37,4.37,0,0,0,.52.12,2.8,2.8,0,0,0,.48.05,1.94,1.94,0,0,0,1.13-.28,1,1,0,0,0,.37-.81.91.91,0,0,0-.13-.5,1.33,1.33,0,0,0-.34-.38,2.9,2.9,0,0,0-.52-.33l-.65-.34c-.24-.12-.47-.25-.68-.37a3.06,3.06,0,0,1-.55-.42,1.84,1.84,0,0,1-.37-.52,1.62,1.62,0,0,1-.13-.68,1.54,1.54,0,0,1,.21-.84,1.69,1.69,0,0,1,.55-.58,2.31,2.31,0,0,1,.78-.34,3.29,3.29,0,0,1,.89-.11,3.37,3.37,0,0,1,1.51.25v.92a2.75,2.75,0,0,0-1.6-.43,2.39,2.39,0,0,0-.53.06,1.26,1.26,0,0,0-.48.18.9.9,0,0,0-.34.33.83.83,0,0,0-.14.48,1.12,1.12,0,0,0,.1.47,1.1,1.1,0,0,0,.3.35,2.67,2.67,0,0,0,.48.32l.64.33q.38.18.72.39a4,4,0,0,1,.59.45,2.09,2.09,0,0,1,.4.55,1.6,1.6,0,0,1,.15.7,1.84,1.84,0,0,1-.2.88,1.79,1.79,0,0,1-.55.58,2.3,2.3,0,0,1-.79.32,4.19,4.19,0,0,1-.95.1l-.41,0-.5-.08L24.09,47A1.52,1.52,0,0,1,23.73,46.86Z"/>
      <path class="cls-1" d="M32.84,47.15H32v-.79h0a1.68,1.68,0,0,1-1.54.9,1.65,1.65,0,0,1-1.17-.39,1.39,1.39,0,0,1-.42-1c0-.94.55-1.48,1.65-1.63L32,44c0-.85-.35-1.28-1-1.28a2.44,2.44,0,0,0-1.63.62V42.5A3,3,0,0,1,31.07,42q1.77,0,1.77,1.86ZM32,44.62l-1.21.16a2,2,0,0,0-.84.28.78.78,0,0,0-.28.7.76.76,0,0,0,.26.6,1,1,0,0,0,.69.23,1.29,1.29,0,0,0,1-.42A1.49,1.49,0,0,0,32,45.11Z"/>
      <path class="cls-1" d="M38.5,47.15h-.8V44.29q0-1.59-1.17-1.59a1.25,1.25,0,0,0-1,.45,1.71,1.71,0,0,0-.39,1.14v2.86h-.8v-5h.8V43h0A1.78,1.78,0,0,1,36.81,42a1.54,1.54,0,0,1,1.25.53,2.35,2.35,0,0,1,.44,1.53Z"/>
      <path class="cls-1" d="M39.7,47v-.86a2.4,2.4,0,0,0,1.44.48c.71,0,1.06-.24,1.06-.7a.59.59,0,0,0-.09-.34.85.85,0,0,0-.25-.25,1.52,1.52,0,0,0-.36-.19l-.45-.18c-.22-.09-.41-.18-.58-.27a1.74,1.74,0,0,1-.42-.3A1,1,0,0,1,39.8,44a1.33,1.33,0,0,1-.09-.51,1.27,1.27,0,0,1,.16-.62,1.42,1.42,0,0,1,.43-.45,1.84,1.84,0,0,1,.62-.28,2.71,2.71,0,0,1,.71-.09,2.86,2.86,0,0,1,1.16.22v.81a2.27,2.27,0,0,0-1.27-.36,1.7,1.7,0,0,0-.41,0,1.28,1.28,0,0,0-.31.15.7.7,0,0,0-.2.22.69.69,0,0,0-.07.29.76.76,0,0,0,.07.32.79.79,0,0,0,.21.24,1.29,1.29,0,0,0,.33.18l.45.18c.22.09.42.18.59.27a1.48,1.48,0,0,1,.45.3,1.24,1.24,0,0,1,.29.39,1.34,1.34,0,0,1,.1.52,1.2,1.2,0,0,1-.17.64,1.26,1.26,0,0,1-.43.46,2.22,2.22,0,0,1-.63.27,3.67,3.67,0,0,1-.75.08A3,3,0,0,1,39.7,47Z"/>
      <path class="cls-1" d="M51.14,47.15h-.8V44.29q0-1.59-1.17-1.59a1.25,1.25,0,0,0-1,.45,1.71,1.71,0,0,0-.39,1.14v2.86H47v-5h.8V43h0A1.78,1.78,0,0,1,49.45,42a1.53,1.53,0,0,1,1.25.53,2.35,2.35,0,0,1,.44,1.53Z"/>
      <path class="cls-1" d="M56.23,47.15h-.81v-.79h0a1.69,1.69,0,0,1-1.54.9,1.65,1.65,0,0,1-1.17-.39,1.39,1.39,0,0,1-.42-1c0-.94.55-1.48,1.65-1.63L55.42,44c0-.85-.34-1.28-1-1.28a2.48,2.48,0,0,0-1.63.62V42.5a3,3,0,0,1,1.7-.47q1.77,0,1.77,1.86Zm-.81-2.53-1.2.16a2,2,0,0,0-.84.28.78.78,0,0,0-.28.7.76.76,0,0,0,.26.6,1,1,0,0,0,.69.23,1.29,1.29,0,0,0,1-.42,1.53,1.53,0,0,0,.38-1.06Z"/>
      <path class="cls-1" d="M61.67,42.15l-2,5h-.78l-1.9-5h.88l1.27,3.63a4.26,4.26,0,0,1,.18.7h0a3.25,3.25,0,0,1,.15-.68l1.33-3.65Z"/>
      <path class="cls-1" d="M62.93,40.88a.49.49,0,0,1-.36-.15.5.5,0,0,1-.15-.37.48.48,0,0,1,.15-.37.49.49,0,0,1,.36-.15.52.52,0,0,1,.38.15.48.48,0,0,1,.15.37.53.53,0,0,1-.53.52Zm.4,6.27h-.81v-5h.81Z"/>
      <path class="cls-1" d="M69.21,46.75c0,1.83-.88,2.75-2.63,2.75A3.58,3.58,0,0,1,65,49.15v-.8a3.35,3.35,0,0,0,1.61.47c1.23,0,1.84-.66,1.84-2v-.54h0a2,2,0,0,1-3.22.29,2.67,2.67,0,0,1-.57-1.79,3.11,3.11,0,0,1,.62-2A2,2,0,0,1,66.89,42a1.62,1.62,0,0,1,1.5.81h0v-.69h.8Zm-.8-1.86v-.74a1.41,1.41,0,0,0-.4-1,1.3,1.3,0,0,0-1-.43,1.4,1.4,0,0,0-1.17.54,2.42,2.42,0,0,0-.42,1.51,2.06,2.06,0,0,0,.41,1.34,1.3,1.3,0,0,0,1.06.5,1.4,1.4,0,0,0,1.1-.48A1.79,1.79,0,0,0,68.41,44.89Z"/>
      <path class="cls-1" d="M74.41,47.15h-.8v-.79h0a1.82,1.82,0,0,1-2.7.51,1.37,1.37,0,0,1-.43-1c0-.94.55-1.48,1.65-1.63l1.5-.21c0-.85-.34-1.28-1-1.28a2.48,2.48,0,0,0-1.63.62V42.5a3,3,0,0,1,1.7-.47c1.18,0,1.76.62,1.76,1.86Zm-.8-2.53-1.2.16a2,2,0,0,0-.84.28.9.9,0,0,0,0,1.3,1.05,1.05,0,0,0,.7.23,1.26,1.26,0,0,0,1-.42,1.49,1.49,0,0,0,.39-1.06Z"/>
      <path class="cls-1" d="M78.24,47.1a1.6,1.6,0,0,1-.74.15c-.88,0-1.32-.48-1.32-1.46v-3h-.86v-.68h.86V40.93l.8-.26v1.48h1.26v.68H77v2.82a1.17,1.17,0,0,0,.17.71.68.68,0,0,0,.57.22.83.83,0,0,0,.52-.17Z"/>
      <path class="cls-1" d="M83.33,44.85H79.8a1.87,1.87,0,0,0,.45,1.29,1.56,1.56,0,0,0,1.18.45A2.46,2.46,0,0,0,83,46v.75a2.89,2.89,0,0,1-1.74.48,2.07,2.07,0,0,1-1.66-.68,3.19,3.19,0,0,1,0-3.82A2.12,2.12,0,0,1,81.27,42a1.88,1.88,0,0,1,1.52.63,2.66,2.66,0,0,1,.54,1.77Zm-.82-.68a1.62,1.62,0,0,0-.34-1.08,1.11,1.11,0,0,0-.91-.39,1.28,1.28,0,0,0-1,.41,1.78,1.78,0,0,0-.49,1.06Z"/>
      <path class="cls-1" d="M88.58,47.15h-.8v-.8h0a1.63,1.63,0,0,1-1.54.91c-1.19,0-1.79-.71-1.79-2.13v-3h.8V45c0,1.05.4,1.58,1.21,1.58a1.24,1.24,0,0,0,1-.43A1.63,1.63,0,0,0,87.78,45V42.15h.8Z"/>
      <path class="cls-1" d="M92.81,43a1,1,0,0,0-.61-.16,1,1,0,0,0-.86.48A2.3,2.3,0,0,0,91,44.6v2.55h-.8v-5H91v1h0a1.74,1.74,0,0,1,.52-.83,1.24,1.24,0,0,1,.79-.29,1.22,1.22,0,0,1,.48.07Z"/>
    </g>
    <g class="cls-3">
      <path class="cls-1" d="M39.29,59.15h-.9l-.75-2h-3l-.7,2h-.92l2.69-7h.85Zm-1.91-2.7-1.1-3a2.75,2.75,0,0,1-.11-.47h0a2.53,2.53,0,0,1-.11.47l-1.09,3Z"/>
      <path class="cls-1" d="M41,58.42h0v3h-.8v-7.3H41V55h0a1.89,1.89,0,0,1,1.73-1,1.81,1.81,0,0,1,1.5.67,2.74,2.74,0,0,1,.55,1.8,3.13,3.13,0,0,1-.61,2,2,2,0,0,1-1.67.75A1.67,1.67,0,0,1,41,58.42Zm0-2v.69a1.49,1.49,0,0,0,.4,1.06,1.37,1.37,0,0,0,1,.43A1.33,1.33,0,0,0,43.58,58,2.51,2.51,0,0,0,44,56.48a2,2,0,0,0-.39-1.3,1.26,1.26,0,0,0-1-.48,1.42,1.42,0,0,0-1.13.49A1.79,1.79,0,0,0,41,56.41Z"/>
      <path class="cls-1" d="M46.92,58.42h0v3h-.8v-7.3h.8V55h0a1.89,1.89,0,0,1,1.73-1,1.81,1.81,0,0,1,1.5.67,2.74,2.74,0,0,1,.55,1.8,3.13,3.13,0,0,1-.61,2,2,2,0,0,1-1.67.75A1.67,1.67,0,0,1,46.92,58.42Zm0-2v.69a1.49,1.49,0,0,0,.4,1.06,1.37,1.37,0,0,0,1,.43A1.33,1.33,0,0,0,49.46,58a2.51,2.51,0,0,0,.42-1.55,2,2,0,0,0-.39-1.3,1.28,1.28,0,0,0-1.05-.48,1.4,1.4,0,0,0-1.12.49A1.79,1.79,0,0,0,46.9,56.41Z"/>
      <path class="cls-1" d="M52.78,59.15H52V51.74h.8Z"/>
      <path class="cls-1" d="M54.81,52.88a.51.51,0,0,1-.52-.52.48.48,0,0,1,.15-.37.5.5,0,0,1,.37-.15.51.51,0,0,1,.37.15.48.48,0,0,1,.15.37.49.49,0,0,1-.15.36A.49.49,0,0,1,54.81,52.88Zm.39,6.27h-.8v-5h.8Z"/>
      <path class="cls-1" d="M60.23,58.92a2.63,2.63,0,0,1-1.37.34,2.29,2.29,0,0,1-1.73-.69,2.57,2.57,0,0,1-.65-1.81,2.73,2.73,0,0,1,.71-2A2.46,2.46,0,0,1,59.07,54a2.72,2.72,0,0,1,1.17.24v.82a2,2,0,0,0-1.19-.39,1.63,1.63,0,0,0-1.26.55,2.08,2.08,0,0,0-.49,1.44,2,2,0,0,0,.46,1.39,1.59,1.59,0,0,0,1.24.51,2,2,0,0,0,1.23-.44Z"/>
      <path class="cls-1" d="M65,59.15h-.8v-.79h0a1.68,1.68,0,0,1-1.54.9,1.65,1.65,0,0,1-1.17-.39,1.39,1.39,0,0,1-.42-1c0-.94.55-1.48,1.65-1.63l1.5-.21c0-.85-.35-1.28-1-1.28a2.44,2.44,0,0,0-1.63.62V54.5A3,3,0,0,1,63.25,54Q65,54,65,55.89Zm-.8-2.53L63,56.78a2,2,0,0,0-.84.28.78.78,0,0,0-.28.7.76.76,0,0,0,.26.6,1,1,0,0,0,.69.23,1.29,1.29,0,0,0,1-.42,1.49,1.49,0,0,0,.39-1.06Z"/>
      <path class="cls-1" d="M68.85,59.1a1.61,1.61,0,0,1-.75.15c-.88,0-1.32-.48-1.32-1.46v-3h-.85v-.68h.85V52.93l.81-.26v1.48h1.26v.68H67.59v2.82a1.11,1.11,0,0,0,.17.71.65.65,0,0,0,.56.22.88.88,0,0,0,.53-.17Z"/>
      <path class="cls-1" d="M70.32,52.88a.49.49,0,0,1-.36-.15.5.5,0,0,1-.15-.37A.48.48,0,0,1,70,52a.49.49,0,0,1,.36-.15.52.52,0,0,1,.38.15.48.48,0,0,1,.15.37.53.53,0,0,1-.53.52Zm.4,6.27h-.81v-5h.81Z"/>
      <path class="cls-1" d="M74.43,59.26a2.31,2.31,0,0,1-1.77-.7A2.58,2.58,0,0,1,72,56.7a2.68,2.68,0,0,1,.69-2A2.49,2.49,0,0,1,74.54,54a2.25,2.25,0,0,1,1.75.69,2.72,2.72,0,0,1,.63,1.91,2.69,2.69,0,0,1-.68,1.91A2.37,2.37,0,0,1,74.43,59.26Zm0-4.56a1.53,1.53,0,0,0-1.22.53,2.15,2.15,0,0,0-.45,1.45,2.07,2.07,0,0,0,.46,1.4,1.54,1.54,0,0,0,1.21.51,1.49,1.49,0,0,0,1.2-.5,2.2,2.2,0,0,0,.42-1.43,2.22,2.22,0,0,0-.42-1.45A1.47,1.47,0,0,0,74.48,54.7Z"/>
      <path class="cls-1" d="M82.35,59.15h-.8V56.29q0-1.59-1.17-1.59a1.25,1.25,0,0,0-1,.45A1.71,1.71,0,0,0,79,56.29v2.86h-.8v-5H79V55h0A1.78,1.78,0,0,1,80.66,54a1.54,1.54,0,0,1,1.25.53,2.35,2.35,0,0,1,.44,1.53Z"/>
    </g>
  </g>
  <g id="group1201-12">
    <g id="group1202-13">
      <g id="group1203-14">
        <g id="group1204-15">
          <g id="shape1205-16">
            <path id="path53" class="cls-4" d="M7.83,13.64a4.6,4.6,0,0,0-3,5.7c.7,2.6,3,4.2,5.3,3.7a4.6,4.6,0,0,0,3-5.7C12.53,14.64,10.13,12.94,7.83,13.64Z"/>
          </g>
        </g>
        <g id="group1206-18">
          <g id="shape1207-19">
            <path id="path61" class="cls-4" d="M12.77,23.61c-.39,0-.89.8-1.5,1.1a2.88,2.88,0,0,1-3.2,0C6.17,23.81,6,23,4.47,23S.38,25.81.38,29.91H16a11.38,11.38,0,0,0-1.1-4.2C13.77,23.61,13.27,23.61,12.77,23.61Z"/>
          </g>
        </g>
      </g>
    </g>
    <g id="group1208-21">
      <g id="shape1209-22">
        <path id="path71" class="cls-5" d="M14.22,18.65h-4.1a.67.67,0,0,0-.6.7v2.8a.77.77,0,0,0,.8.7h.8V28a1,1,0,0,0,1,1.1.94.94,0,0,0,1-1h.2v-.7c0-.2.3-.3.3-.3v-.3c-.3-.1-.5-.3-.5-.4v-.3l.2-.2c-.1-.2.1-.6.1-.6a2.19,2.19,0,0,1-.3-.5c-.1-.1-.1-.3-.2-.4v-.2a2.75,2.75,0,0,1,.7-1.2h.5c.3,0,.7-.3.7-.6v-3A.66.66,0,0,0,14.22,18.65Zm-2.4,9.6c0,.2,0,.3-.2.3s-.2-.2-.2-.3v-4.8c0-.2.1-.3.2-.3s.2.2.2.3Zm.3-7.8a.7.7,0,0,1,0-1.4.67.67,0,0,1,.6.7A.56.56,0,0,1,12.12,20.45Z"/>
      </g>
      <g id="shape1210-24">
        <path id="path76" class="cls-6" d="M11.55,28.48a.22.22,0,0,1-.2-.2v-5a.2.2,0,0,1,.4,0v5.1C11.75,28.48,11.65,28.48,11.55,28.48Z"/>
      </g>
      <g id="shape1211-26">
        <circle id="ellipse81" class="cls-6" cx="12.18" cy="19.78" r="0.7"/>
      </g>
    </g>
  </g>
  <path id="path90" class="cls-4" d="M191.8,8.2H171.3a1.11,1.11,0,0,0-1.1,1.1V26a1.11,1.11,0,0,0,1.1,1.1h5.3a3.35,3.35,0,1,0,3.2-4.5,3.24,3.24,0,0,0-3.2,2.3h-4.2V13h18.3V25h-3.4a7.64,7.64,0,0,0-7.5-6.6,8.7,8.7,0,0,0-3.6.9l1,2a5.59,5.59,0,0,1,2.6-.7,5.53,5.53,0,0,1,5.4,5.5,5.46,5.46,0,0,1-5.4,5.5,4.84,4.84,0,0,1-2.6-.7l-1,2a7.58,7.58,0,0,0,11.1-5.7h4.6a1.11,1.11,0,0,0,1.1-1.1V9.3A1.38,1.38,0,0,0,191.8,8.2Z"/>
  <g id="text92" class="cls-3">
    <path class="cls-4" d="M159.93,46.72H159l-.74-2h-3l-.69,2h-.92l2.69-7h.85ZM158,44l-1.09-3a2,2,0,0,1-.11-.47h0a2.53,2.53,0,0,1-.11.47l-1.09,3Z"/>
    <path class="cls-4" d="M161.68,46h0v3h-.8v-7.3h.8v.88h0a1.88,1.88,0,0,1,1.72-1,1.82,1.82,0,0,1,1.51.67,2.8,2.8,0,0,1,.55,1.8,3.07,3.07,0,0,1-.62,2,2,2,0,0,1-1.67.75A1.67,1.67,0,0,1,161.68,46Zm0-2v.7a1.48,1.48,0,0,0,.4,1,1.43,1.43,0,0,0,2.16-.13,2.49,2.49,0,0,0,.41-1.54,2,2,0,0,0-.38-1.31,1.28,1.28,0,0,0-1.05-.48,1.4,1.4,0,0,0-1.12.49A1.79,1.79,0,0,0,161.66,44Z"/>
    <path class="cls-4" d="M167.55,46h0v3h-.81v-7.3h.81v.88h0a1.9,1.9,0,0,1,1.73-1,1.82,1.82,0,0,1,1.51.67,2.8,2.8,0,0,1,.54,1.8,3.07,3.07,0,0,1-.61,2,2,2,0,0,1-1.67.75A1.69,1.69,0,0,1,167.55,46Zm0-2v.7a1.48,1.48,0,0,0,.4,1,1.43,1.43,0,0,0,2.16-.13,2.49,2.49,0,0,0,.41-1.54,2,2,0,0,0-.38-1.31,1.28,1.28,0,0,0-1-.48,1.4,1.4,0,0,0-1.12.49A1.79,1.79,0,0,0,167.54,44Z"/>
    <path class="cls-4" d="M173.41,46.72h-.8V39.31h.8Z"/>
    <path class="cls-4" d="M175.45,40.45a.51.51,0,0,1-.52-.52.48.48,0,0,1,.15-.37.5.5,0,0,1,.37-.15.51.51,0,0,1,.37.15.48.48,0,0,1,.15.37.53.53,0,0,1-.15.37A.51.51,0,0,1,175.45,40.45Zm.39,6.27H175v-5h.8Z"/>
    <path class="cls-4" d="M180.87,46.49a2.63,2.63,0,0,1-1.37.34,2.29,2.29,0,0,1-1.73-.69,2.53,2.53,0,0,1-.65-1.81,2.77,2.77,0,0,1,.7-2,2.5,2.5,0,0,1,1.89-.75,2.72,2.72,0,0,1,1.17.24v.82a2.07,2.07,0,0,0-1.2-.39,1.61,1.61,0,0,0-1.25.55,2.09,2.09,0,0,0-.49,1.45,2,2,0,0,0,.46,1.38,1.58,1.58,0,0,0,1.23.51,2,2,0,0,0,1.24-.44Z"/>
    <path class="cls-4" d="M185.66,46.72h-.81v-.79h0a1.82,1.82,0,0,1-2.7.51,1.39,1.39,0,0,1-.42-1c0-.94.55-1.48,1.65-1.63l1.49-.21c0-.85-.34-1.28-1-1.28a2.48,2.48,0,0,0-1.63.62v-.82a3.15,3.15,0,0,1,1.7-.47q1.77,0,1.77,1.86Zm-.81-2.53-1.2.16a2,2,0,0,0-.84.28.78.78,0,0,0-.28.7.76.76,0,0,0,.26.6,1,1,0,0,0,.69.23,1.29,1.29,0,0,0,1-.42,1.48,1.48,0,0,0,.38-1.06Z"/>
    <path class="cls-4" d="M189.48,46.67a1.57,1.57,0,0,1-.74.15c-.88,0-1.32-.48-1.32-1.46v-3h-.86v-.68h.86V40.5l.8-.26v1.48h1.26v.68h-1.26v2.82a1.17,1.17,0,0,0,.17.71.68.68,0,0,0,.57.22.83.83,0,0,0,.52-.17Z"/>
    <path class="cls-4" d="M191,40.45a.49.49,0,0,1-.36-.15.5.5,0,0,1-.15-.37.48.48,0,0,1,.15-.37.49.49,0,0,1,.36-.15.54.54,0,0,1,.38.15.48.48,0,0,1,.15.37.53.53,0,0,1-.15.37A.54.54,0,0,1,191,40.45Zm.39,6.27h-.8v-5h.8Z"/>
    <path class="cls-4" d="M195.06,46.83a2.34,2.34,0,0,1-1.77-.7,2.58,2.58,0,0,1-.66-1.86,2.68,2.68,0,0,1,.69-2,2.49,2.49,0,0,1,1.86-.71,2.25,2.25,0,0,1,1.75.69,2.71,2.71,0,0,1,.62,1.91,2.68,2.68,0,0,1-.67,1.91A2.38,2.38,0,0,1,195.06,46.83Zm.06-4.56a1.53,1.53,0,0,0-1.22.53,2.15,2.15,0,0,0-.45,1.45,2,2,0,0,0,.46,1.4,1.54,1.54,0,0,0,1.21.51,1.49,1.49,0,0,0,1.2-.5,2.19,2.19,0,0,0,.41-1.43,2.22,2.22,0,0,0-.41-1.45A1.47,1.47,0,0,0,195.12,42.27Z"/>
    <path class="cls-4" d="M203,46.72h-.8V43.86c0-1.06-.38-1.59-1.16-1.59a1.25,1.25,0,0,0-1,.45,1.72,1.72,0,0,0-.4,1.14v2.86h-.8v-5h.8v.83h0a1.8,1.8,0,0,1,1.64-.95,1.55,1.55,0,0,1,1.26.53,2.34,2.34,0,0,1,.43,1.53Z"/>
    <path class="cls-4" d="M177.62,58.72h-.91l-.74-2h-3l-.7,2h-.91l2.69-7h.85ZM175.7,56l-1.1-3a3,3,0,0,1-.1-.47h0a2.42,2.42,0,0,1-.12.47l-1.08,3Z"/>
    <path class="cls-4" d="M179.47,56.07v2.65h-.82v-7h1.93a2.59,2.59,0,0,1,1.74.55,2,2,0,0,1,.61,1.54,2.09,2.09,0,0,1-.68,1.63,2.61,2.61,0,0,1-1.86.64Zm0-3.61v2.87h.86a1.92,1.92,0,0,0,1.3-.39,1.41,1.41,0,0,0,.44-1.1c0-.92-.54-1.38-1.64-1.38Z"/>
    <path class="cls-4" d="M185.07,58.72h-.82v-7h.82Z"/>
  </g>
  <g id="shape1214-37">
    <rect id="rect104" class="cls-2" x="74.89" y="-0.28" width="90.4" height="20"/>
    <g id="text106" class="cls-3">
      <path class="cls-7" d="M94.61,2.46H91.88V4.88h2.53v.74H91.88v3.1h-.82v-7h3.55Z"/>
      <path class="cls-7" d="M96.5,8.72h-.81V1.32h.81Z"/>
      <path class="cls-7" d="M102,8.72h-.8V7.93h0a1.64,1.64,0,0,1-1.54.91c-1.19,0-1.79-.71-1.79-2.13v-3h.8V6.58c0,1.06.4,1.58,1.21,1.58a1.21,1.21,0,0,0,1-.43,1.66,1.66,0,0,0,.38-1.13V3.72h.8Z"/>
      <path class="cls-7" d="M107.15,3.72l-1.68,2.53,1.65,2.47h-.93l-1-1.62a3.9,3.9,0,0,1-.22-.38h0l-.23.38-1,1.62h-.93l1.71-2.45-1.63-2.55h.93l1,1.71.21.39h0l1.25-2.1Z"/>
      <path class="cls-7" d="M114.81,8.72H114V7.87h0a1.84,1.84,0,0,1-1.72,1,1.87,1.87,0,0,1-1.5-.67,2.75,2.75,0,0,1-.57-1.83,3,3,0,0,1,.63-2,2,2,0,0,1,1.66-.75,1.6,1.6,0,0,1,1.5.81h0V1.32h.8ZM114,6.46V5.72a1.41,1.41,0,0,0-.4-1,1.34,1.34,0,0,0-1-.42,1.41,1.41,0,0,0-1.16.53A2.38,2.38,0,0,0,111,6.3a2.08,2.08,0,0,0,.41,1.36,1.28,1.28,0,0,0,1.08.5,1.36,1.36,0,0,0,1.08-.48A1.79,1.79,0,0,0,114,6.46Z"/>
      <path class="cls-7" d="M120.31,6.42h-3.53a1.83,1.83,0,0,0,.45,1.29,1.56,1.56,0,0,0,1.18.45A2.48,2.48,0,0,0,120,7.61v.75a2.9,2.9,0,0,1-1.75.48,2.12,2.12,0,0,1-1.66-.68A2.78,2.78,0,0,1,116,6.24a2.73,2.73,0,0,1,.66-1.9,2.13,2.13,0,0,1,1.65-.74,1.9,1.9,0,0,1,1.52.64A2.68,2.68,0,0,1,120.31,6Zm-.82-.68a1.62,1.62,0,0,0-.33-1.08,1.17,1.17,0,0,0-.92-.38,1.28,1.28,0,0,0-1,.4,1.87,1.87,0,0,0-.49,1.06Z"/>
      <path class="cls-7" d="M127.39,8.49a2.61,2.61,0,0,1-1.37.35,2.24,2.24,0,0,1-1.72-.7,2.5,2.5,0,0,1-.66-1.8,2.8,2.8,0,0,1,.71-2,2.47,2.47,0,0,1,1.89-.75,2.54,2.54,0,0,1,1.16.25v.82a2,2,0,0,0-1.19-.39,1.61,1.61,0,0,0-1.26.55,2,2,0,0,0-.49,1.44,2,2,0,0,0,.46,1.39,1.58,1.58,0,0,0,1.24.5,2,2,0,0,0,1.23-.43Z"/>
      <path class="cls-7" d="M130.55,8.84a2.34,2.34,0,0,1-1.77-.7,2.61,2.61,0,0,1-.66-1.86,2.7,2.7,0,0,1,.69-2,2.49,2.49,0,0,1,1.86-.71,2.22,2.22,0,0,1,1.74.69A2.73,2.73,0,0,1,133,6.2a2.69,2.69,0,0,1-.67,1.92A2.38,2.38,0,0,1,130.55,8.84Zm.06-4.56a1.52,1.52,0,0,0-1.22.52,2.17,2.17,0,0,0-.45,1.45,2,2,0,0,0,.45,1.4,1.56,1.56,0,0,0,1.22.51,1.43,1.43,0,0,0,1.19-.5,2.16,2.16,0,0,0,.42-1.43,2.19,2.19,0,0,0-.42-1.44A1.43,1.43,0,0,0,130.61,4.28Z"/>
      <path class="cls-7" d="M138.45,8.72h-.8V7.87h0a1.85,1.85,0,0,1-1.72,1,1.9,1.9,0,0,1-1.51-.67,2.8,2.8,0,0,1-.56-1.83,3,3,0,0,1,.62-2,2.08,2.08,0,0,1,1.67-.75,1.6,1.6,0,0,1,1.5.81h0V1.32h.8Zm-.8-2.26V5.72a1.45,1.45,0,0,0-.4-1,1.36,1.36,0,0,0-1-.42,1.39,1.39,0,0,0-1.15.53,2.38,2.38,0,0,0-.42,1.49,2.08,2.08,0,0,0,.4,1.36,1.3,1.3,0,0,0,1.08.5,1.38,1.38,0,0,0,1.09-.48A1.79,1.79,0,0,0,137.65,6.46Z"/>
      <path class="cls-7" d="M144,6.42h-3.53a1.83,1.83,0,0,0,.45,1.29,1.54,1.54,0,0,0,1.18.45,2.45,2.45,0,0,0,1.55-.55v.75a2.89,2.89,0,0,1-1.74.48,2.14,2.14,0,0,1-1.67-.68,2.83,2.83,0,0,1-.6-1.92,2.73,2.73,0,0,1,.66-1.9,2.12,2.12,0,0,1,1.64-.74,1.89,1.89,0,0,1,1.52.64A2.63,2.63,0,0,1,144,6Zm-.82-.68a1.68,1.68,0,0,0-.34-1.08,1.15,1.15,0,0,0-.91-.38,1.28,1.28,0,0,0-1,.4,1.81,1.81,0,0,0-.49,1.06Z"/>
      <path class="cls-7" d="M101.12,19.72h-.8v-.85h0a1.84,1.84,0,0,1-1.72,1,1.87,1.87,0,0,1-1.5-.67,2.75,2.75,0,0,1-.57-1.83,3,3,0,0,1,.63-2,2,2,0,0,1,1.66-.75,1.6,1.6,0,0,1,1.5.81h0V12.32h.8Zm-.8-2.26v-.74a1.41,1.41,0,0,0-.4-1,1.34,1.34,0,0,0-1-.42,1.41,1.41,0,0,0-1.16.53,2.38,2.38,0,0,0-.42,1.49,2.08,2.08,0,0,0,.41,1.36,1.28,1.28,0,0,0,1.08.5,1.36,1.36,0,0,0,1.08-.48A1.79,1.79,0,0,0,100.32,17.46Z"/>
      <path class="cls-7" d="M103.59,12.6l-.68,2.18h-.58l.54-2.18Z"/>
      <path class="cls-7" d="M108.33,19.72h-.8v-.78h0a1.68,1.68,0,0,1-1.54.9,1.65,1.65,0,0,1-1.17-.4,1.36,1.36,0,0,1-.42-1.05c0-.93.55-1.47,1.65-1.63l1.5-.21c0-.85-.34-1.27-1-1.27a2.47,2.47,0,0,0-1.63.61v-.82a3.12,3.12,0,0,1,1.7-.47c1.18,0,1.76.63,1.76,1.87Zm-.8-2.53-1.2.17a1.88,1.88,0,0,0-.84.27.81.81,0,0,0-.29.7.76.76,0,0,0,.26.6,1,1,0,0,0,.7.23,1.26,1.26,0,0,0,1-.41,1.49,1.49,0,0,0,.39-1.06Z"/>
      <path class="cls-7" d="M110.52,19h0v3h-.8v-7.3h.8v.88h0a1.91,1.91,0,0,1,1.73-1,1.84,1.84,0,0,1,1.51.68,2.75,2.75,0,0,1,.54,1.79,3.07,3.07,0,0,1-.61,2,2,2,0,0,1-1.67.76A1.67,1.67,0,0,1,110.52,19Zm0-2v.7a1.53,1.53,0,0,0,.4,1.05,1.45,1.45,0,0,0,2.17-.12,2.6,2.6,0,0,0,.41-1.55,2,2,0,0,0-.39-1.31,1.27,1.27,0,0,0-1-.47,1.41,1.41,0,0,0-1.12.48A1.77,1.77,0,0,0,110.5,17Z"/>
      <path class="cls-7" d="M116.26,19h0v3h-.8v-7.3h.8v.88h0a1.9,1.9,0,0,1,1.73-1,1.84,1.84,0,0,1,1.51.68,2.75,2.75,0,0,1,.54,1.79,3.07,3.07,0,0,1-.61,2,2,2,0,0,1-1.67.76A1.67,1.67,0,0,1,116.26,19Zm0-2v.7a1.53,1.53,0,0,0,.4,1.05,1.45,1.45,0,0,0,2.17-.12,2.6,2.6,0,0,0,.41-1.55,2,2,0,0,0-.39-1.31,1.27,1.27,0,0,0-1-.47,1.41,1.41,0,0,0-1.12.48A1.77,1.77,0,0,0,116.24,17Z"/>
      <path class="cls-7" d="M124.76,19.72H124v-.78h0a1.68,1.68,0,0,1-1.54.9,1.61,1.61,0,0,1-1.17-.4,1.36,1.36,0,0,1-.42-1.05c0-.93.55-1.47,1.65-1.63l1.5-.21c0-.85-.35-1.27-1-1.27a2.43,2.43,0,0,0-1.63.61v-.82a3.1,3.1,0,0,1,1.7-.47c1.17,0,1.76.63,1.76,1.87Zm-.8-2.53-1.21.17a2,2,0,0,0-.84.27.81.81,0,0,0-.28.7.73.73,0,0,0,.26.6,1,1,0,0,0,.69.23,1.28,1.28,0,0,0,1-.41,1.49,1.49,0,0,0,.39-1.06Z"/>
      <path class="cls-7" d="M128.73,15.53a1,1,0,0,0-.6-.16,1,1,0,0,0-.86.48,2.27,2.27,0,0,0-.34,1.32v2.55h-.8v-5h.8v1h0a1.76,1.76,0,0,1,.52-.82,1.18,1.18,0,0,1,.79-.3,1.41,1.41,0,0,1,.47.07Z"/>
      <path class="cls-7" d="M133.48,17.42H130a1.83,1.83,0,0,0,.45,1.29,1.56,1.56,0,0,0,1.18.45,2.43,2.43,0,0,0,1.55-.55v.75a2.87,2.87,0,0,1-1.74.48,2.12,2.12,0,0,1-1.66-.68,2.78,2.78,0,0,1-.61-1.92,2.73,2.73,0,0,1,.66-1.9,2.13,2.13,0,0,1,1.65-.74,1.87,1.87,0,0,1,1.51.64,2.63,2.63,0,0,1,.54,1.76Zm-.82-.68a1.62,1.62,0,0,0-.33-1.08,1.17,1.17,0,0,0-.92-.38,1.28,1.28,0,0,0-1,.4,1.87,1.87,0,0,0-.49,1.06Z"/>
      <path class="cls-7" d="M135,13.45a.5.5,0,0,1-.51-.52.5.5,0,0,1,.15-.37.49.49,0,0,1,.36-.15.54.54,0,0,1,.38.15.53.53,0,0,1,0,.74A.54.54,0,0,1,135,13.45Zm.39,6.27h-.8v-5h.8Z"/>
      <path class="cls-7" d="M137.64,19.72h-.81v-7.4h.81Z"/>
    </g>
  </g>
  <g id="shape1100-52">
    <g id="use1353">
      <g id="lend5">
        <path id="path1350" class="cls-8" d="M159.36,20.2l8,4-8,4a9,9,0,0,0,0-8"/>
      </g>
    </g>
  </g>
  <line class="cls-9" x1="162.38" y1="24.39" x2="76.25" y2="24.39"/>
</svg>
