<?xml version="1.0" encoding="utf-8"?>
<!-- Generator: Adobe Illustrator 23.0.3, SVG Export Plug-In . SVG Version: 6.00 Build 0)  -->
<svg version="1.1" xmlns="http://www.w3.org/2000/svg" xmlns:xlink="http://www.w3.org/1999/xlink" x="0px" y="0px"
	 viewBox="0 0 424 484" style="enable-background:new 0 0 424 484;" xml:space="preserve">
<style type="text/css">
	.st0{fill-rule:evenodd;clip-rule:evenodd;fill:#008BFD;}
	.st1{fill-rule:evenodd;clip-rule:evenodd;fill:#007EFD;}
	.st2{fill-rule:evenodd;clip-rule:evenodd;fill:#0078D7;}
	
		.st3{fill-rule:evenodd;clip-rule:evenodd;fill:#008BFD;stroke:#808080;stroke-width:0.75;stroke-linecap:round;stroke-linejoin:round;stroke-miterlimit:3;}
	.st4{fill-rule:evenodd;clip-rule:evenodd;fill:#FFFFFF;}
	
		.st5{fill-rule:evenodd;clip-rule:evenodd;fill:#FFFFFF;stroke:#000000;stroke-width:0.24;stroke-linecap:round;stroke-linejoin:round;stroke-miterlimit:3;}
	.st6{fill:#505050;}
	.st7{fill:none;}
	.st8{enable-background:new    ;}
	.st9{font-family:'Calibri';}
	.st10{font-size:10px;}
	.st11{fill-rule:evenodd;clip-rule:evenodd;fill:none;}
</style>
<g id="Target" xmlns:ev="http://www.w3.org/2001/xml-events" xmlns:v="http://schemas.microsoft.com/visio/2003/SVGExtensions/">
	<g id="group1073-1" transform="translate(47.1467,-315.611)">
		<g id="group1074-2">
			<g id="shape1075-3">
				<path class="st0" d="M22.9,479.6c-2.2,1.7-4.8,2.5-7.3,2.5c-3.6,0-7.2-1.7-9.6-4.8c-4-5.4-3-13.1,2.2-17.3
					c2.2-1.7,4.8-2.5,7.3-2.5c3.6,0,7.2,1.7,9.5,4.8C29.2,467.7,28.2,475.5,22.9,479.6z M26.5,461.2c-2.7-3.6-6.8-5.5-11-5.5
					c-2.9,0-5.9,0.9-8.4,2.9c-6,4.8-7.2,13.7-2.6,19.9c2.7,3.6,6.8,5.5,11,5.5c2.9,0,5.9-0.9,8.4-2.9
					C30,476.3,31.2,467.4,26.5,461.2z"/>
			</g>
		</g>
		<g id="group1076-5" transform="translate(4.95554,-4.39536)">
			<g id="group1077-6" transform="translate(0.341805,-0.176482)">
				<g id="group1078-7" transform="translate(0.437248,3.41061E-13)">
					<g id="shape1079-8">
						<path class="st0" d="M3.6,477c-0.8-0.8-1.4-1.6-2-2.4c-1.1,2.4-1.6,4.9-1.7,6.9c0.1,0.2,0.1,0.3,0.2,0.4c0.6,0.8,1.3,1.5,2,2
							C2.1,482.4,2.3,479.7,3.6,477z"/>
					</g>
				</g>
				<g id="shape1080-10" transform="translate(3.29213,-8.97695)">
					<path class="st0" d="M4.9,476.5c-1.1,0.8-2.2,1.8-3.3,3c-0.6,0.7-1.1,1.4-1.6,2.1c0.5,0.8,1.1,1.6,1.9,2.5
						c0.6-0.9,1.3-1.7,2.2-2.6c1.1-1.1,2.2-1.9,3.1-2.6C6.4,478.1,5.7,477.3,4.9,476.5z"/>
				</g>
				<g id="group1081-12" transform="translate(9.93516,-15.1958)">
					<g id="shape1082-13">
						<path class="st0" d="M9.8,481.9c-0.5-0.7-1.1-1.3-1.7-1.8c-1.9-0.3-4.7-0.3-8,1.5c0.8,0.8,1.5,1.6,2.2,2.4
							C6.6,481.6,9.8,481.9,9.8,481.9z"/>
					</g>
				</g>
				<g id="group1083-15" transform="translate(1.10162E-13,-9.38012)">
					<g id="shape1084-16">
						<path class="st0" d="M2.1,484c0.3-0.7,0.7-1.4,1.2-2.1c-1.9-3.1-1.8-5.6-1.6-6.8c-0.5,0.5-0.9,1-1.3,1.6
							C0,478.4,0,480.9,2.1,484z"/>
					</g>
				</g>
				<g id="group1085-18" transform="translate(4.05148,-0.740211)">
					<g id="shape1086-19">
						<path class="st0" d="M3.4,477.9c-0.9-0.7-1.6-1.4-2.3-2.1c-0.5,0.7-0.8,1.3-1.1,1.9c0.6,0.6,1.3,1.3,2.1,1.9
							c4.9,4,9.8,4.4,12.6,4.4c0.2,0,1-1.2,1.5-1.9C15,482.3,9.7,483,3.4,477.9z"/>
					</g>
				</g>
				<g id="group1087-21" transform="translate(2.10339,-7.03041)">
					<g id="shape1088-22">
						<path class="st0" d="M0,481.6c0.5,0.8,1.1,1.5,2,2.4c0.3-0.6,0.7-1.3,1.1-2c-0.8-0.8-1.4-1.7-1.9-2.5
							C0.7,480.3,0.3,481,0,481.6z"/>
					</g>
				</g>
				<g id="group1089-24" transform="translate(10.5195,-5.3233)">
					<g id="shape1090-25">
						<path class="st0" d="M0,475.2c4.5,4.3,9.8,7.9,11.1,8.8c0.1-0.4,0.2-0.7,0.3-1c-1.4-1.1-5.3-4.2-9.8-8.8
							C1.1,474.4,0.6,474.8,0,475.2z"/>
					</g>
				</g>
				<g id="group1091-27" transform="translate(4.98729,-16.4714)">
					<g id="shape1092-28">
						<path class="st0" d="M4.9,482.9c-1.1-1.2-2.2-2.5-3.4-3.8c-0.6,0.2-1.1,0.4-1.6,0.7c0.8,1.4,2,2.8,3.2,4.2
							C3.8,483.6,4.4,483.2,4.9,482.9z"/>
					</g>
				</g>
				<g id="shape1093-30" transform="translate(8.13763,-14.0503)">
					<path class="st0" d="M1.9,480.5c-0.6,0.3-1.3,0.8-1.9,1.2c0.7,0.8,1.5,1.6,2.3,2.4c0.6-0.4,1.3-0.9,1.9-1.2
						C3.4,482.1,2.6,481.3,1.9,480.5z"/>
				</g>
				<g id="shape1094-32" transform="translate(8.1369,-14.0039)">
					<path class="st0" d="M1.7,480.3c-0.6,0.3-1.1,0.7-1.7,1.1c0.7,0.8,1.7,1.8,2.5,2.6c0.6-0.4,1-0.8,1.6-1.1
						C3.4,482.2,2.4,481.1,1.7,480.3z"/>
				</g>
			</g>
			<g id="group1095-34" transform="translate(14.8617,-6.23662)">
				<g id="shape1096-35">
					<path class="st0" d="M1.3,478.9c-1.1,0.9-1.3,2.5-0.5,3.7c0.9,1.2,2.5,1.4,3.6,0.5c1.1-0.9,1.3-2.5,0.5-3.7
						C4.1,478.3,2.5,478,1.3,478.9z"/>
				</g>
			</g>
			<g id="group1097-37" transform="translate(9.65099,-1.7053E-13)">
				<g id="shape1098-38">
					<path class="st0" d="M1.2,479.3c-1,0.8-1.2,2.4-0.4,3.4c0.8,1.1,2.3,1.3,3.4,0.4c1-0.8,1.2-2.4,0.4-3.4S2.3,478.5,1.2,479.3z"
						/>
				</g>
			</g>
			<g id="group1099-40" transform="translate(0,-5.36433)">
				<g id="shape1100-41">
					<path class="st0" d="M1.9,476.8c-1.6,1.3-1.9,3.6-0.7,5.2c1.2,1.6,3.5,2,5.1,0.7s1.9-3.6,0.7-5.2
						C5.8,475.9,3.5,475.6,1.9,476.8z"/>
				</g>
			</g>
		</g>
	</g>
	<g id="group1101-46" transform="translate(47.1467,-245.807)">
		<g id="group1102-47">
			<g id="shape1103-48">
				<path class="st0" d="M22.9,479.6c-2.2,1.7-4.8,2.5-7.3,2.5c-3.6,0-7.2-1.7-9.6-4.8c-4-5.4-3-13.1,2.2-17.3
					c2.2-1.7,4.8-2.5,7.3-2.5c3.6,0,7.2,1.7,9.5,4.8C29.2,467.7,28.2,475.5,22.9,479.6z M26.5,461.2c-2.7-3.6-6.8-5.5-11-5.5
					c-2.9,0-5.9,0.9-8.4,2.9c-6,4.8-7.2,13.7-2.6,19.9c2.7,3.6,6.8,5.5,11,5.5c2.9,0,5.9-0.9,8.4-2.9
					C30,476.3,31.2,467.4,26.5,461.2z"/>
			</g>
		</g>
		<g id="group1104-50" transform="translate(4.95554,-4.39536)">
			<g id="group1105-51" transform="translate(0.341805,-0.176482)">
				<g id="group1106-52" transform="translate(0.437248,3.41061E-13)">
					<g id="shape1107-53">
						<path class="st0" d="M3.6,477c-0.8-0.8-1.4-1.6-2-2.4c-1.1,2.4-1.6,4.9-1.7,6.9c0.1,0.2,0.1,0.3,0.2,0.4c0.6,0.8,1.3,1.5,2,2
							C2.1,482.4,2.3,479.7,3.6,477z"/>
					</g>
				</g>
				<g id="shape1108-55" transform="translate(3.29213,-8.97695)">
					<path class="st0" d="M4.9,476.5c-1.1,0.8-2.2,1.8-3.3,3c-0.6,0.7-1.1,1.4-1.6,2.1c0.5,0.8,1.1,1.6,1.9,2.5
						c0.6-0.9,1.3-1.7,2.2-2.6c1.1-1.1,2.2-1.9,3.1-2.6C6.4,478.1,5.7,477.3,4.9,476.5z"/>
				</g>
				<g id="group1109-57" transform="translate(9.93516,-15.1958)">
					<g id="shape1110-58">
						<path class="st0" d="M9.8,481.9c-0.5-0.7-1.1-1.3-1.7-1.8c-1.9-0.3-4.7-0.3-8,1.5c0.8,0.8,1.5,1.6,2.2,2.4
							C6.6,481.6,9.8,481.9,9.8,481.9z"/>
					</g>
				</g>
				<g id="group1111-60" transform="translate(1.10162E-13,-9.38012)">
					<g id="shape1112-61">
						<path class="st0" d="M2.1,484c0.3-0.7,0.7-1.4,1.2-2.1c-1.9-3.1-1.8-5.6-1.6-6.8c-0.5,0.5-0.9,1-1.3,1.6
							C0,478.4,0,480.9,2.1,484z"/>
					</g>
				</g>
				<g id="group1113-63" transform="translate(4.05148,-0.740211)">
					<g id="shape1114-64">
						<path class="st0" d="M3.4,477.9c-0.9-0.7-1.6-1.4-2.3-2.1c-0.5,0.7-0.8,1.3-1.1,1.9c0.6,0.6,1.3,1.3,2.1,1.9
							c4.9,4,9.8,4.4,12.6,4.4c0.2,0,1-1.2,1.5-1.9C15,482.3,9.7,483,3.4,477.9z"/>
					</g>
				</g>
				<g id="group1115-66" transform="translate(2.10339,-7.03041)">
					<g id="shape1116-67">
						<path class="st0" d="M0,481.6c0.5,0.8,1.1,1.5,2,2.4c0.3-0.6,0.7-1.3,1.1-2c-0.8-0.8-1.4-1.7-1.9-2.5
							C0.7,480.3,0.3,481,0,481.6z"/>
					</g>
				</g>
				<g id="group1117-69" transform="translate(10.5195,-5.3233)">
					<g id="shape1118-70">
						<path class="st0" d="M0,475.2c4.5,4.3,9.8,7.9,11.1,8.8c0.1-0.4,0.2-0.7,0.3-1c-1.4-1.1-5.3-4.2-9.8-8.8
							C1.1,474.4,0.6,474.8,0,475.2z"/>
					</g>
				</g>
				<g id="group1119-72" transform="translate(4.98729,-16.4714)">
					<g id="shape1120-73">
						<path class="st0" d="M4.9,482.9c-1.1-1.2-2.2-2.5-3.4-3.8c-0.6,0.2-1.1,0.4-1.6,0.7c0.8,1.4,2,2.8,3.2,4.2
							C3.8,483.6,4.4,483.2,4.9,482.9z"/>
					</g>
				</g>
				<g id="shape1121-75" transform="translate(8.13763,-14.0503)">
					<path class="st0" d="M1.9,480.5c-0.6,0.3-1.3,0.8-1.9,1.2c0.7,0.8,1.5,1.6,2.3,2.4c0.6-0.4,1.3-0.9,1.9-1.2
						C3.4,482.1,2.6,481.3,1.9,480.5z"/>
				</g>
				<g id="shape1122-77" transform="translate(8.1369,-14.0039)">
					<path class="st0" d="M1.7,480.3c-0.6,0.3-1.1,0.7-1.7,1.1c0.7,0.8,1.7,1.8,2.5,2.6c0.6-0.4,1-0.8,1.6-1.1
						C3.4,482.2,2.4,481.1,1.7,480.3z"/>
				</g>
			</g>
			<g id="group1123-79" transform="translate(14.8617,-6.23662)">
				<g id="shape1124-80">
					<path class="st0" d="M1.3,478.9c-1.1,0.9-1.3,2.5-0.5,3.7c0.9,1.2,2.5,1.4,3.6,0.5c1.1-0.9,1.3-2.5,0.5-3.7
						C4.1,478.3,2.5,478,1.3,478.9z"/>
				</g>
			</g>
			<g id="group1125-82" transform="translate(9.65099,-1.7053E-13)">
				<g id="shape1126-83">
					<path class="st0" d="M1.2,479.3c-1,0.8-1.2,2.4-0.4,3.4c0.8,1.1,2.3,1.3,3.4,0.4c1-0.8,1.2-2.4,0.4-3.4S2.3,478.5,1.2,479.3z"
						/>
				</g>
			</g>
			<g id="group1127-85" transform="translate(0,-5.36433)">
				<g id="shape1128-86">
					<path class="st0" d="M1.9,476.8c-1.6,1.3-1.9,3.6-0.7,5.2c1.2,1.6,3.5,2,5.1,0.7s1.9-3.6,0.7-5.2
						C5.8,475.9,3.5,475.6,1.9,476.8z"/>
				</g>
			</g>
		</g>
	</g>
	<g id="shape1129-90" transform="translate(283.84,-174.516)">
		<path class="st0" d="M21.6,458.5H1.1c-0.6,0-1.1,0.5-1.1,1.1v16.7c0,0.6,0.5,1.1,1.1,1.1h5.3c0.4,1.4,1.7,2.3,3.2,2.3
			c1.8,0,3.3-1.5,3.3-3.4s-1.5-3.4-3.3-3.4c-1.5,0-2.8,0.9-3.2,2.3H2.2v-12h18.3v12H17c-0.5-3.7-3.7-6.6-7.5-6.6
			c-1.3,0-2.5,0.4-3.6,0.9l1,2c0.7-0.4,1.7-0.7,2.6-0.7c2.9,0,5.4,2.4,5.4,5.5c0,3-2.4,5.5-5.4,5.5c-0.9,0-1.8-0.3-2.6-0.7l-1,2
			c1.1,0.6,2.4,0.9,3.6,0.9c3.8,0,7-2.9,7.5-6.6h4.5c0.6,0,1.1-0.5,1.1-1.1v-16.7C22.7,459,22.2,458.5,21.6,458.5z"/>
	</g>
	<g id="group1130-93" transform="translate(52.8159,-32.0037)">
		<g id="group1131-94">
			<g id="shape1136-99" transform="translate(0.750347,-0.801256)">
				<path class="st1" d="M23.6,460h-6.1c-0.2,0-0.4,0.1-0.4,0.5v2.2c0,0.2,0.1,0.4,0.4,0.4H21v3.4c0,0.2,0.1,0.4,0.4,0.4h2.2
					c0.2,0,0.4-0.1,0.4-0.4v-6C24,460.1,23.9,460,23.6,460z M6.4,481H3v-3.4c0-0.2-0.2-0.4-0.5-0.4H0.4c-0.2,0-0.4,0.1-0.4,0.4v6
					c0,0.2,0.2,0.4,0.4,0.4h6.1c0.2,0,0.4-0.1,0.4-0.5v-2.2C6.8,481.1,6.7,481,6.4,481z M20,477.3c-0.2,0-0.3,0-0.5,0.1l-2.3-4.1
					c0.5-0.5,0.9-1.2,0.9-2c0-1.5-1.3-2.8-2.8-2.8c-0.4,0-0.8,0.1-1.1,0.2l-2.5-3.5c0.4-0.4,0.5-0.9,0.5-1.5c0-1.3-1.1-2.3-2.3-2.3
					s-2.3,1.1-2.3,2.3s1,2.3,2.3,2.3c0.3,0,0.5-0.1,0.8-0.1l2.5,3.5c-0.3,0.4-0.6,0.8-0.7,1.4l-7.2,0.6c-0.3-0.6-0.9-1-1.6-1
					c-1,0-1.9,0.8-1.9,1.9c0,1.1,0.8,1.9,1.9,1.9c0.9,0,1.7-0.7,1.9-1.6l7.1-0.6c0.2,0.5,0.4,0.8,0.7,1.2l-1.8,2.9h-0.2
					c-1.1,0-1.9,0.8-1.9,1.9c0,1.1,0.8,1.9,1.9,1.9c1.1,0,1.9-0.8,1.9-1.9c0-0.5-0.2-1-0.5-1.4l1.7-2.9c0.3,0.1,0.6,0.1,1,0.1
					c0.3,0,0.5-0.1,0.8-0.1l2.3,4.1c-0.4,0.4-0.7,1-0.7,1.6c0,1.2,1,2.2,2.2,2.2c1.2,0,2.2-1,2.2-2.2
					C22.1,478.4,21.2,477.3,20,477.3z"/>
			</g>
		</g>
	</g>
	<g id="group1137-104" transform="translate(52.8159,-170.335)">
		<g id="shape1138-105">
			<path class="st0" d="M18.4,450L18.4,450l-16.9,0l0,0C0,450,0,450.4,0,452.2v29.5c0,1.8,0,2.2,1.5,2.2c0,0,0.4,0,0.5,0h15.8
				c0.1,0,0.5,0,0.5,0c1.5,0,1.5-0.4,1.5-2.2v-29.5C19.8,450.4,19.8,450,18.4,450z M7.6,451.1h4.7c0.1,0,0.1,0.1,0.1,0.2
				c0,0.1-0.1,0.2-0.1,0.2H7.6c-0.1,0-0.2-0.1-0.2-0.2C7.4,451.2,7.5,451.1,7.6,451.1z M7.7,482.2H6.6c-0.2,0-0.3-0.1-0.3-0.3
				c0-0.2,0.2-0.3,0.3-0.3h1.1c0.2,0,0.4,0.1,0.4,0.3C8.1,482.2,7.9,482.2,7.7,482.2z M10.7,482.4H9.1c-0.3,0-0.5-0.1-0.5-0.4
				c0-0.3,0.2-0.4,0.5-0.4l1.6,0c0.3,0,0.5,0.1,0.5,0.4C11.2,482.3,11,482.4,10.7,482.4z M13.3,482.2h-1.1c-0.2,0-0.3-0.1-0.3-0.3
				s0.2-0.3,0.3-0.3h1.1c0.2,0,0.3,0.1,0.3,0.3S13.5,482.2,13.3,482.2z M18.4,478.8c0,1.6-0.1,1.9-1.6,1.9H9.2H3
				c-1.4,0-1.6-0.4-1.6-1.9v-24.6c0-1.6,0.2-1.6,1.7-1.6h6h7.5c1.6,0,1.8,0,1.8,1.6L18.4,478.8z"/>
		</g>
		<g id="shape1139-107" transform="translate(2.39497,-4.40465)">
			<path class="st0" d="M15.1,459.6c0-1.6-0.2-1.6-1.7-1.6H1.7c-1.5,0-1.7,0-1.7,1.6v22.5c0,1.6,0.2,1.9,1.7,1.9h11.6
				c1.5,0,1.7-0.3,1.7-1.9V459.6z M7.1,476.3l-4.8-2.8v-5.7l4.8,2.8V476.3z M2.8,467l4.8-2.8l4.8,2.8l-4.8,2.8L2.8,467z M12.7,473.4
				L8,476.3v-5.6l4.8-2.8V473.4z"/>
		</g>
	</g>
	<g id="group1141-118" transform="translate(52.8159,-98.9722)">
		<g id="shape1142-119">
			<path class="st2" d="M15,483.2H0.8v-28.4H15v7.7h0.8v-8.4H0V484h15.7v-2.3H15V483.2z"/>
		</g>
		<g id="shape1143-121" transform="translate(1.5606,-23.7593)">
			<path class="st2" d="M12.6,479.4H0v4.6h12.6V479.4z M3.1,481.3h6.5v0.8H3.1V481.3z M9.6,483.2L9.6,483.2H3.1H3v-0.8h0.1h6.4h0.1
				V483.2z"/>
		</g>
		<g id="shape1144-123" transform="translate(1.52875,-19.9374)">
			<path class="st2" d="M0,481v3h8.6v-1.5h4.1V481H0z"/>
		</g>
		<g id="shape1145-125" transform="translate(1.52875,-16.4978)">
			<rect x="0" y="481.3" class="st2" width="8.6" height="2.7"/>
		</g>
		<g id="shape1146-127" transform="translate(1.4969,-1.52875)">
			<path class="st2" d="M0,484h12.7v-0.8H8.6v-13.4H0L0,484L0,484z M1.6,481.3h2.3v1.2H1.6V481.3z"/>
		</g>
		<g id="shape1147-129" transform="translate(16.02,-3.43969)">
			<path class="st2" d="M8.7,482.9H6.3V481H3.8v1.9H1.3c-0.7,0-1.3,0.6-1.3,1.1h10C10.1,483.4,9.4,482.9,8.7,482.9z"/>
		</g>
		<g id="shape1148-131" transform="translate(11.816,-7.22971)">
			<path class="st2" d="M17.8,472.7H0.7c-0.4,0-0.7,0.3-0.7,0.6v10.1c0,0.3,0.3,0.6,0.7,0.6h17.1c0.4,0,0.7-0.3,0.7-0.6v-10.1
				C18.4,472.9,18.1,472.7,17.8,472.7z M16.8,482.5H1.7v-8.3h15.1V482.5z"/>
		</g>
		<g id="shape1149-133" transform="translate(17.931,-9.36359)">
			<path class="st2" d="M7,482.2v-3.4l-3.5-1.9L0,478.6v3.5l3.5,1.8L7,482.2z M2.6,479.9l0.9-0.4l0.9,0.4l-0.9,0.5L2.6,479.9z
				 M2.6,478.7l0.9-0.5l0.9,0.5l-0.9,0.5L2.6,478.7z M4.5,483.2l-1,0.5v-0.9l1-0.5V483.2z M4.5,482.1l-1,0.5v-0.9l1-0.5V482.1z
				 M4.5,481l-1,0.5v-0.9l1-0.5V481z M3.7,479.3l0.9-0.5l0.9,0.5l-0.9,0.4L3.7,479.3z M5.7,482.6l-0.9,0.5v-0.9l0.9-0.5V482.6z
				 M5.7,481.5L4.8,482V481l0.9-0.5V481.5z M5.7,480.3l-0.9,0.5v-0.9l0.9-0.5V480.3z M6.8,482.1l-0.9,0.5v-0.9l0.9-0.4V482.1z
				 M6.8,480.9l-0.9,0.4v-0.9l0.9-0.5V480.9z M6.8,479.8l-0.9,0.4v-0.9l0.9-0.5V479.8z M6.6,478.7l-0.9,0.4l-0.9-0.4l0.9-0.5
				L6.6,478.7z M5.5,478.1l-0.9,0.4l-0.9-0.4l0.9-0.4L5.5,478.1z M3.5,477.1l0.9,0.5L3.5,478l-0.9-0.4L3.5,477.1z M2.4,477.7
				l0.9,0.4l-0.9,0.4l-0.9-0.4L2.4,477.7z M1.3,478.3l0.9,0.5l-0.9,0.4l-0.9-0.4L1.3,478.3z M1,482.5l-0.9-0.5v-0.9l0.9,0.4V482.5z
				 M1,481.4l-0.9-0.4V480l0.9,0.5V481.4z M1,480.2l-0.9-0.4v-0.9l0.9,0.4V480.2z M2.2,483.1l-1-0.5v-0.9l1,0.5V483.1z M2.2,482
				l-1-0.5v-0.9l1,0.5V482z M2.2,480.8l-1-0.5v-0.9l1,0.5V480.8z M1.5,479.3l0.9-0.5l0.9,0.5l-0.9,0.5L1.5,479.3z M3.4,483.8l-1-0.5
				v-0.9l1,0.5V483.8z M3.4,482.6l-1-0.5v-0.9l1,0.5V482.6z M3.4,481.5l-1-0.5V480l1,0.5V481.5z"/>
		</g>
	</g>
	<g id="group1150-137" transform="translate(0.375,-315.611)">
		<g id="group1151-138">
			<g id="group1152-139">
				<g id="group1153-140" transform="translate(3.8518,-6.4617)">
					<g id="shape1154-141">
						<path class="st0" d="M3.6,474.1c-2.3,0.6-3.6,3.1-3,5.7c0.7,2.6,3,4.2,5.3,3.7c2.3-0.6,3.6-3.1,3-5.7
							C8.3,475.1,5.9,473.5,3.6,474.1z"/>
					</g>
				</g>
				<g id="group1155-143">
					<g id="shape1156-144">
						<path class="st0" d="M12.4,477.7c-0.4,0-0.9,0.8-1.5,1.1c-0.7,0.3-1.3,0.9-3.2,0c-1.9-0.9-2.1-1.7-3.6-1.7
							c-1.5,0-4.1,2.8-4.1,6.9h15.6c0,0-0.2-2.8-1.1-4.2C13.4,477.7,12.9,477.7,12.4,477.7z"/>
					</g>
				</g>
			</g>
		</g>
		<g id="group1157-146" transform="translate(9.0485,-0.85947)">
			<g id="shape1158-147">
				<path class="st3" d="M4.8,473.6H0.7c-0.3,0-0.6,0.3-0.6,0.7v2.9c0,0.3,0.3,0.7,0.8,0.7h0.8v5.1c0,0.6,0.4,1.1,1,1.1s1-0.4,1-1
					c0.1,0,0.2,0,0.2,0s0-0.5,0-0.7c0-0.2,0.3-0.3,0.3-0.3v-0.3c-0.3-0.1-0.5-0.3-0.5-0.4v-0.3c0.1-0.1,0.2-0.2,0.2-0.2
					c0.1-0.1,0.3-0.5,0.3-0.5s-0.3-0.4-0.3-0.6c-0.1-0.1-0.1-0.3-0.2-0.4V479c0.1-0.5,0.8-1.1,0.8-1.1h0.5c0.3,0,0.7-0.3,0.7-0.7v-3
					C5.4,473.9,5.2,473.6,4.8,473.6z M2.4,483.1c0,0.2,0,0.3-0.2,0.3c-0.2,0-0.2-0.2-0.2-0.3v-4.8c0-0.2,0.1-0.3,0.2-0.3
					c0.2,0,0.2,0.2,0.2,0.3V483.1z M2.7,475.4c-0.3,0-0.7-0.3-0.7-0.7c0-0.3,0.3-0.7,0.7-0.7c0.3,0,0.6,0.3,0.6,0.7
					C3.4,475,3.1,475.4,2.7,475.4z"/>
			</g>
			<g id="shape1159-149" transform="translate(1.92482,-0.570755)">
				<path class="st4" d="M0.2,484c-0.1,0-0.2-0.1-0.2-0.2v-5c0-0.1,0.1-0.2,0.2-0.2s0.2,0.1,0.2,0.2v5.1C0.4,484,0.3,484,0.2,484z"
					/>
			</g>
			<g id="shape1160-151" transform="translate(2.05993,-8.66317)">
				<ellipse class="st4" cx="0.7" cy="483.3" rx="0.7" ry="0.7"/>
			</g>
		</g>
	</g>
	<g id="shape1174-173" transform="translate(391.556,-174.516)">
		<path class="st0" d="M21.6,458.5H1.1c-0.6,0-1.1,0.5-1.1,1.1v16.7c0,0.6,0.5,1.1,1.1,1.1h5.3c0.4,1.4,1.7,2.3,3.2,2.3
			c1.8,0,3.3-1.5,3.3-3.4s-1.5-3.4-3.3-3.4c-1.5,0-2.8,0.9-3.2,2.3H2.2v-12h18.3v12H17c-0.5-3.7-3.7-6.6-7.5-6.6
			c-1.3,0-2.6,0.4-3.6,0.9l1,2c0.7-0.4,1.7-0.7,2.6-0.7c2.9,0,5.4,2.4,5.4,5.5c0,3-2.4,5.5-5.4,5.5c-0.9,0-1.8-0.3-2.6-0.7l-1,2
			c1.1,0.6,2.4,0.9,3.6,0.9c3.8,0,7-2.9,7.5-6.6h4.5c0.6,0,1.1-0.5,1.1-1.1v-16.7C22.7,459,22.2,458.5,21.6,458.5z"/>
	</g>
	<g id="group1176-181" transform="translate(2.85532,-251.477)">
		<g id="group1177-182">
			<g id="group1178-183">
				<g id="group1179-184" transform="translate(3.8518,-6.4617)">
					<g id="shape1180-185">
						<path class="st0" d="M3.6,474.1c-2.3,0.6-3.6,3.1-3,5.7c0.7,2.6,3,4.2,5.3,3.7c2.3-0.6,3.6-3.1,3-5.7
							C8.3,475.1,5.9,473.5,3.6,474.1z"/>
					</g>
				</g>
				<g id="group1181-187">
					<g id="shape1182-188">
						<path class="st0" d="M12.4,477.7c-0.4,0-0.9,0.8-1.5,1.1c-0.7,0.3-1.3,0.9-3.2,0c-1.9-0.9-2.1-1.7-3.6-1.7
							c-1.5,0-4.1,2.8-4.1,6.9h15.6c0,0-0.2-2.8-1.1-4.2C13.4,477.7,12.9,477.7,12.4,477.7z"/>
					</g>
				</g>
			</g>
		</g>
		<g id="group1183-190" transform="translate(9.0485,-0.85947)">
			<g id="shape1184-191">
				<path class="st3" d="M4.8,473.6H0.7c-0.3,0-0.6,0.3-0.6,0.7v2.9c0,0.3,0.3,0.7,0.8,0.7h0.8v5.1c0,0.6,0.4,1.1,1,1.1s1-0.4,1-1
					c0.1,0,0.2,0,0.2,0s0-0.5,0-0.7c0-0.2,0.3-0.3,0.3-0.3v-0.3c-0.3-0.1-0.5-0.3-0.5-0.4v-0.3c0.1-0.1,0.2-0.2,0.2-0.2
					c0.1-0.1,0.3-0.5,0.3-0.5s-0.3-0.4-0.3-0.6c-0.1-0.1-0.1-0.3-0.2-0.4V479c0.1-0.5,0.8-1.1,0.8-1.1h0.5c0.3,0,0.7-0.3,0.7-0.7v-3
					C5.4,473.9,5.2,473.6,4.8,473.6z M2.4,483.1c0,0.2,0,0.3-0.2,0.3c-0.2,0-0.2-0.2-0.2-0.3v-4.8c0-0.2,0.1-0.3,0.2-0.3
					c0.2,0,0.2,0.2,0.2,0.3V483.1z M2.7,475.4c-0.3,0-0.7-0.3-0.7-0.7c0-0.3,0.3-0.7,0.7-0.7c0.3,0,0.6,0.3,0.6,0.7
					C3.4,475,3.1,475.4,2.7,475.4z"/>
			</g>
			<g id="shape1185-193" transform="translate(1.92482,-0.570755)">
				<path class="st4" d="M0.2,484c-0.1,0-0.2-0.1-0.2-0.2v-5c0-0.1,0.1-0.2,0.2-0.2s0.2,0.1,0.2,0.2v5.1C0.4,484,0.3,484,0.2,484z"
					/>
			</g>
			<g id="shape1186-195" transform="translate(2.05993,-8.66317)">
				<ellipse class="st4" cx="0.7" cy="483.3" rx="0.7" ry="0.7"/>
			</g>
		</g>
	</g>
	<g id="group1187-197" transform="translate(0.375,-391.083)">
		<g id="group1188-198">
			<g id="group1189-199">
				<g id="group1190-200" transform="translate(3.8518,-6.4617)">
					<g id="shape1191-201">
						<path class="st0" d="M3.6,474.1c-2.3,0.6-3.6,3.1-3,5.7c0.7,2.6,3,4.2,5.3,3.7c2.3-0.6,3.6-3.1,3-5.7
							C8.3,475.1,5.9,473.5,3.6,474.1z"/>
					</g>
				</g>
				<g id="group1192-203">
					<g id="shape1193-204">
						<path class="st0" d="M12.4,477.7c-0.4,0-0.9,0.8-1.5,1.1c-0.7,0.3-1.3,0.9-3.2,0c-1.9-0.9-2.1-1.7-3.6-1.7
							c-1.5,0-4.1,2.8-4.1,6.9h15.6c0,0-0.2-2.8-1.1-4.2C13.4,477.7,12.9,477.7,12.4,477.7z"/>
					</g>
				</g>
			</g>
		</g>
		<g id="group1194-206" transform="translate(9.0485,-0.85947)">
			<g id="shape1195-207">
				<path class="st3" d="M4.8,473.6H0.7c-0.3,0-0.6,0.3-0.6,0.7v2.9c0,0.3,0.3,0.7,0.8,0.7h0.8v5.1c0,0.6,0.4,1.1,1,1.1s1-0.4,1-1
					c0.1,0,0.2,0,0.2,0s0-0.5,0-0.7c0-0.2,0.3-0.3,0.3-0.3v-0.3c-0.3-0.1-0.5-0.3-0.5-0.4v-0.3c0.1-0.1,0.2-0.2,0.2-0.2
					c0.1-0.1,0.3-0.5,0.3-0.5s-0.3-0.4-0.3-0.6c-0.1-0.1-0.1-0.3-0.2-0.4V479c0.1-0.5,0.8-1.1,0.8-1.1h0.5c0.3,0,0.7-0.3,0.7-0.7v-3
					C5.4,473.9,5.2,473.6,4.8,473.6z M2.4,483.1c0,0.2,0,0.3-0.2,0.3c-0.2,0-0.2-0.2-0.2-0.3v-4.8c0-0.2,0.1-0.3,0.2-0.3
					c0.2,0,0.2,0.2,0.2,0.3V483.1z M2.7,475.4c-0.3,0-0.7-0.3-0.7-0.7c0-0.3,0.3-0.7,0.7-0.7c0.3,0,0.6,0.3,0.6,0.7
					C3.4,475,3.1,475.4,2.7,475.4z"/>
			</g>
			<g id="shape1196-209" transform="translate(1.92482,-0.570755)">
				<path class="st4" d="M0.2,484c-0.1,0-0.2-0.1-0.2-0.2v-5c0-0.1,0.1-0.2,0.2-0.2s0.2,0.1,0.2,0.2v5.1C0.4,484,0.3,484,0.2,484z"
					/>
			</g>
			<g id="shape1197-211" transform="translate(2.05993,-8.66317)">
				<ellipse class="st4" cx="0.7" cy="483.3" rx="0.7" ry="0.7"/>
			</g>
		</g>
	</g>
	<g id="group1198-213" transform="translate(2.85532,-98.9722)">
		<g id="group1199-214">
			<g id="group1200-215">
				<g id="group1201-216" transform="translate(3.8518,-6.4617)">
					<g id="shape1202-217">
						<path class="st0" d="M3.6,474.1c-2.3,0.6-3.6,3.1-3,5.7c0.7,2.6,3,4.2,5.3,3.7c2.3-0.6,3.6-3.1,3-5.7
							C8.3,475.1,5.9,473.5,3.6,474.1z"/>
					</g>
				</g>
				<g id="group1203-219">
					<g id="shape1204-220">
						<path class="st0" d="M12.4,477.7c-0.4,0-0.9,0.8-1.5,1.1c-0.7,0.3-1.3,0.9-3.2,0c-1.9-0.9-2.1-1.7-3.6-1.7
							c-1.5,0-4.1,2.8-4.1,6.9h15.6c0,0-0.2-2.8-1.1-4.2C13.4,477.7,12.9,477.7,12.4,477.7z"/>
					</g>
				</g>
			</g>
		</g>
		<g id="group1205-222" transform="translate(9.0485,-0.85947)">
			<g id="shape1206-223">
				<path class="st3" d="M4.8,473.6H0.7c-0.3,0-0.6,0.3-0.6,0.7v2.9c0,0.3,0.3,0.7,0.8,0.7h0.8v5.1c0,0.6,0.4,1.1,1,1.1s1-0.4,1-1
					c0.1,0,0.2,0,0.2,0s0-0.5,0-0.7c0-0.2,0.3-0.3,0.3-0.3v-0.3c-0.3-0.1-0.5-0.3-0.5-0.4v-0.3c0.1-0.1,0.2-0.2,0.2-0.2
					c0.1-0.1,0.3-0.5,0.3-0.5s-0.3-0.4-0.3-0.6c-0.1-0.1-0.1-0.3-0.2-0.4V479c0.1-0.5,0.8-1.1,0.8-1.1h0.5c0.3,0,0.7-0.3,0.7-0.7v-3
					C5.4,473.9,5.2,473.6,4.8,473.6z M2.4,483.1c0,0.2,0,0.3-0.2,0.3c-0.2,0-0.2-0.2-0.2-0.3v-4.8c0-0.2,0.1-0.3,0.2-0.3
					c0.2,0,0.2,0.2,0.2,0.3V483.1z M2.7,475.4c-0.3,0-0.7-0.3-0.7-0.7c0-0.3,0.3-0.7,0.7-0.7c0.3,0,0.6,0.3,0.6,0.7
					C3.4,475,3.1,475.4,2.7,475.4z"/>
			</g>
			<g id="shape1207-225" transform="translate(1.92482,-0.570755)">
				<path class="st4" d="M0.2,484c-0.1,0-0.2-0.1-0.2-0.2v-5c0-0.1,0.1-0.2,0.2-0.2s0.2,0.1,0.2,0.2v5.1C0.4,484,0.3,484,0.2,484z"
					/>
			</g>
			<g id="shape1208-227" transform="translate(2.05993,-8.66317)">
				<ellipse class="st4" cx="0.7" cy="483.3" rx="0.7" ry="0.7"/>
			</g>
		</g>
	</g>
	<g id="group1218-229" transform="translate(2.85532,-36.2556)">
		<g id="group1219-230">
			<g id="group1220-231">
				<g id="group1221-232" transform="translate(3.8518,-6.4617)">
					<g id="shape1222-233">
						<path class="st0" d="M3.6,474.1c-2.3,0.6-3.6,3.1-3,5.7c0.7,2.6,3,4.2,5.3,3.7c2.3-0.6,3.6-3.1,3-5.7
							C8.3,475.1,5.9,473.5,3.6,474.1z"/>
					</g>
				</g>
				<g id="group1223-235">
					<g id="shape1224-236">
						<path class="st0" d="M12.4,477.7c-0.4,0-0.9,0.8-1.5,1.1c-0.7,0.3-1.3,0.9-3.2,0c-1.9-0.9-2.1-1.7-3.6-1.7
							c-1.5,0-4.1,2.8-4.1,6.9h15.6c0,0-0.2-2.8-1.1-4.2C13.4,477.7,12.9,477.7,12.4,477.7z"/>
					</g>
				</g>
			</g>
		</g>
		<g id="group1225-238" transform="translate(9.0485,-0.85947)">
			<g id="shape1226-239">
				<path class="st3" d="M4.8,473.6H0.7c-0.3,0-0.6,0.3-0.6,0.7v2.9c0,0.3,0.3,0.7,0.8,0.7h0.8v5.1c0,0.6,0.4,1.1,1,1.1s1-0.4,1-1
					c0.1,0,0.2,0,0.2,0s0-0.5,0-0.7c0-0.2,0.3-0.3,0.3-0.3v-0.3c-0.3-0.1-0.5-0.3-0.5-0.4v-0.3c0.1-0.1,0.2-0.2,0.2-0.2
					c0.1-0.1,0.3-0.5,0.3-0.5s-0.3-0.4-0.3-0.6c-0.1-0.1-0.1-0.3-0.2-0.4V479c0.1-0.5,0.8-1.1,0.8-1.1h0.5c0.3,0,0.7-0.3,0.7-0.7v-3
					C5.4,473.9,5.2,473.6,4.8,473.6z M2.4,483.1c0,0.2,0,0.3-0.2,0.3c-0.2,0-0.2-0.2-0.2-0.3v-4.8c0-0.2,0.1-0.3,0.2-0.3
					c0.2,0,0.2,0.2,0.2,0.3V483.1z M2.7,475.4c-0.3,0-0.7-0.3-0.7-0.7c0-0.3,0.3-0.7,0.7-0.7c0.3,0,0.6,0.3,0.6,0.7
					C3.4,475,3.1,475.4,2.7,475.4z"/>
			</g>
			<g id="shape1227-241" transform="translate(1.92482,-0.570755)">
				<path class="st4" d="M0.2,484c-0.1,0-0.2-0.1-0.2-0.2v-5c0-0.1,0.1-0.2,0.2-0.2s0.2,0.1,0.2,0.2v5.1C0.4,484,0.3,484,0.2,484z"
					/>
			</g>
			<g id="shape1228-243" transform="translate(2.05993,-8.66317)">
				<ellipse class="st4" cx="0.7" cy="483.3" rx="0.7" ry="0.7"/>
			</g>
		</g>
	</g>
	<g id="group1425-245" transform="translate(47.1467,-455.217)">
		<g id="group1426-246">
			<g id="shape1427-247">
				<path class="st0" d="M22.9,479.6c-2.2,1.7-4.8,2.5-7.3,2.5c-3.6,0-7.2-1.7-9.6-4.8c-4-5.4-3-13.1,2.2-17.3
					c2.2-1.7,4.8-2.5,7.3-2.5c3.6,0,7.2,1.7,9.5,4.8C29.2,467.7,28.2,475.5,22.9,479.6z M26.5,461.2c-2.7-3.6-6.8-5.5-11-5.5
					c-2.9,0-5.9,0.9-8.4,2.9c-6,4.8-7.2,13.7-2.6,19.9c2.7,3.6,6.8,5.5,11,5.5c2.9,0,5.9-0.9,8.4-2.9
					C30,476.3,31.2,467.4,26.5,461.2z"/>
			</g>
		</g>
		<g id="group1428-249" transform="translate(4.95554,-4.39536)">
			<g id="group1429-250" transform="translate(0.341805,-0.176482)">
				<g id="group1430-251" transform="translate(0.437248,3.41061E-13)">
					<g id="shape1431-252">
						<path class="st0" d="M3.6,477c-0.8-0.8-1.4-1.6-2-2.4c-1.1,2.4-1.6,4.9-1.7,6.9c0.1,0.2,0.1,0.3,0.2,0.4c0.6,0.8,1.3,1.5,2,2
							C2.1,482.4,2.3,479.7,3.6,477z"/>
					</g>
				</g>
				<g id="shape1432-254" transform="translate(3.29213,-8.97695)">
					<path class="st0" d="M4.9,476.5c-1.1,0.8-2.2,1.8-3.3,3c-0.6,0.7-1.1,1.4-1.6,2.1c0.5,0.8,1.1,1.6,1.9,2.5
						c0.6-0.9,1.3-1.7,2.2-2.6c1.1-1.1,2.2-1.9,3.1-2.6C6.4,478.1,5.7,477.3,4.9,476.5z"/>
				</g>
				<g id="group1433-256" transform="translate(9.93516,-15.1958)">
					<g id="shape1434-257">
						<path class="st0" d="M9.8,481.9c-0.5-0.7-1.1-1.3-1.7-1.8c-1.9-0.3-4.7-0.3-8,1.5c0.8,0.8,1.5,1.6,2.2,2.4
							C6.6,481.6,9.8,481.9,9.8,481.9z"/>
					</g>
				</g>
				<g id="group1435-259" transform="translate(1.10162E-13,-9.38012)">
					<g id="shape1436-260">
						<path class="st0" d="M2.1,484c0.3-0.7,0.7-1.4,1.2-2.1c-1.9-3.1-1.8-5.6-1.6-6.8c-0.5,0.5-0.9,1-1.3,1.6
							C0,478.4,0,480.9,2.1,484z"/>
					</g>
				</g>
				<g id="group1437-262" transform="translate(4.05148,-0.740211)">
					<g id="shape1438-263">
						<path class="st0" d="M3.4,477.9c-0.9-0.7-1.6-1.4-2.3-2.1c-0.5,0.7-0.8,1.3-1.1,1.9c0.6,0.6,1.3,1.3,2.1,1.9
							c4.9,4,9.8,4.4,12.6,4.4c0.2,0,1-1.2,1.5-1.9C15,482.3,9.7,483,3.4,477.9z"/>
					</g>
				</g>
				<g id="group1439-265" transform="translate(2.10339,-7.03041)">
					<g id="shape1440-266">
						<path class="st0" d="M0,481.6c0.5,0.8,1.1,1.5,2,2.4c0.3-0.6,0.7-1.3,1.1-2c-0.8-0.8-1.4-1.7-1.9-2.5
							C0.7,480.3,0.3,481,0,481.6z"/>
					</g>
				</g>
				<g id="group1441-268" transform="translate(10.5195,-5.3233)">
					<g id="shape1442-269">
						<path class="st0" d="M0,475.2c4.5,4.3,9.8,7.9,11.1,8.8c0.1-0.4,0.2-0.7,0.3-1c-1.4-1.1-5.3-4.2-9.8-8.8
							C1.1,474.4,0.6,474.8,0,475.2z"/>
					</g>
				</g>
				<g id="group1443-271" transform="translate(4.98729,-16.4714)">
					<g id="shape1444-272">
						<path class="st0" d="M4.9,482.9c-1.1-1.2-2.2-2.5-3.4-3.8c-0.6,0.2-1.1,0.4-1.6,0.7c0.8,1.4,2,2.8,3.2,4.2
							C3.8,483.6,4.4,483.2,4.9,482.9z"/>
					</g>
				</g>
				<g id="shape1445-274" transform="translate(8.13763,-14.0503)">
					<path class="st0" d="M1.9,480.5c-0.6,0.3-1.3,0.8-1.9,1.2c0.7,0.8,1.5,1.6,2.3,2.4c0.6-0.4,1.3-0.9,1.9-1.2
						C3.4,482.1,2.6,481.3,1.9,480.5z"/>
				</g>
				<g id="shape1446-276" transform="translate(8.1369,-14.0039)">
					<path class="st0" d="M1.7,480.3c-0.6,0.3-1.1,0.7-1.7,1.1c0.7,0.8,1.7,1.8,2.5,2.6c0.6-0.4,1-0.8,1.6-1.1
						C3.4,482.2,2.4,481.1,1.7,480.3z"/>
				</g>
			</g>
			<g id="group1447-278" transform="translate(14.8617,-6.23662)">
				<g id="shape1448-279">
					<path class="st0" d="M1.3,478.9c-1.1,0.9-1.3,2.5-0.5,3.7c0.9,1.2,2.5,1.4,3.6,0.5c1.1-0.9,1.3-2.5,0.5-3.7
						C4.1,478.3,2.5,478,1.3,478.9z"/>
				</g>
			</g>
			<g id="group1449-281" transform="translate(9.65099,-1.7053E-13)">
				<g id="shape1450-282">
					<path class="st0" d="M1.2,479.3c-1,0.8-1.2,2.4-0.4,3.4c0.8,1.1,2.3,1.3,3.4,0.4c1-0.8,1.2-2.4,0.4-3.4S2.3,478.5,1.2,479.3z"
						/>
				</g>
			</g>
			<g id="group1451-284" transform="translate(0,-5.36433)">
				<g id="shape1452-285">
					<path class="st0" d="M1.9,476.8c-1.6,1.3-1.9,3.6-0.7,5.2c1.2,1.6,3.5,2,5.1,0.7s1.9-3.6,0.7-5.2
						C5.8,475.9,3.5,475.6,1.9,476.8z"/>
				</g>
			</g>
		</g>
	</g>
	<g id="group1453-290" transform="translate(0.375,-460.886)">
		<g id="group1454-291">
			<g id="group1455-292">
				<g id="group1456-293" transform="translate(3.8518,-6.4617)">
					<g id="shape1457-294">
						<path class="st0" d="M3.6,474.1c-2.3,0.6-3.6,3.1-3,5.7c0.7,2.6,3,4.2,5.3,3.7c2.3-0.6,3.6-3.1,3-5.7
							C8.3,475.1,5.9,473.5,3.6,474.1z"/>
					</g>
				</g>
				<g id="group1458-296">
					<g id="shape1459-297">
						<path class="st0" d="M12.4,477.7c-0.4,0-0.9,0.8-1.5,1.1c-0.7,0.3-1.3,0.9-3.2,0c-1.9-0.9-2.1-1.7-3.6-1.7
							c-1.5,0-4.1,2.8-4.1,6.9h15.6c0,0-0.2-2.8-1.1-4.2C13.4,477.7,12.9,477.7,12.4,477.7z"/>
					</g>
				</g>
			</g>
		</g>
		<g id="group1460-299" transform="translate(9.0485,-0.85947)">
			<g id="shape1461-300">
				<path class="st3" d="M4.8,473.6H0.7c-0.3,0-0.6,0.3-0.6,0.7v2.9c0,0.3,0.3,0.7,0.8,0.7h0.8v5.1c0,0.6,0.4,1.1,1,1.1s1-0.4,1-1
					c0.1,0,0.2,0,0.2,0s0-0.5,0-0.7c0-0.2,0.3-0.3,0.3-0.3v-0.3c-0.3-0.1-0.5-0.3-0.5-0.4v-0.3c0.1-0.1,0.2-0.2,0.2-0.2
					c0.1-0.1,0.3-0.5,0.3-0.5s-0.3-0.4-0.3-0.6c-0.1-0.1-0.1-0.3-0.2-0.4V479c0.1-0.5,0.8-1.1,0.8-1.1h0.5c0.3,0,0.7-0.3,0.7-0.7v-3
					C5.4,473.9,5.2,473.6,4.8,473.6z M2.4,483.1c0,0.2,0,0.3-0.2,0.3c-0.2,0-0.2-0.2-0.2-0.3v-4.8c0-0.2,0.1-0.3,0.2-0.3
					c0.2,0,0.2,0.2,0.2,0.3V483.1z M2.7,475.4c-0.3,0-0.7-0.3-0.7-0.7c0-0.3,0.3-0.7,0.7-0.7c0.3,0,0.6,0.3,0.6,0.7
					C3.4,475,3.1,475.4,2.7,475.4z"/>
			</g>
			<g id="shape1462-302" transform="translate(1.92482,-0.570755)">
				<path class="st4" d="M0.2,484c-0.1,0-0.2-0.1-0.2-0.2v-5c0-0.1,0.1-0.2,0.2-0.2s0.2,0.1,0.2,0.2v5.1C0.4,484,0.3,484,0.2,484z"
					/>
			</g>
			<g id="shape1463-304" transform="translate(2.05993,-8.66317)">
				<ellipse class="st4" cx="0.7" cy="483.3" rx="0.7" ry="0.7"/>
			</g>
		</g>
	</g>
	<g id="group1464-306" transform="translate(47.1467,-385.414)">
		<g id="group1465-307">
			<g id="shape1466-308">
				<path class="st0" d="M22.9,479.6c-2.2,1.7-4.8,2.5-7.3,2.5c-3.6,0-7.2-1.7-9.6-4.8c-4-5.4-3-13.1,2.2-17.3
					c2.2-1.7,4.8-2.5,7.3-2.5c3.6,0,7.2,1.7,9.5,4.8C29.2,467.7,28.2,475.5,22.9,479.6z M26.5,461.2c-2.7-3.6-6.8-5.5-11-5.5
					c-2.9,0-5.9,0.9-8.4,2.9c-6,4.8-7.2,13.7-2.6,19.9c2.7,3.6,6.8,5.5,11,5.5c2.9,0,5.9-0.9,8.4-2.9
					C30,476.3,31.2,467.4,26.5,461.2z"/>
			</g>
		</g>
		<g id="group1467-310" transform="translate(4.95554,-4.39536)">
			<g id="group1468-311" transform="translate(0.341805,-0.176482)">
				<g id="group1469-312" transform="translate(0.437248,3.41061E-13)">
					<g id="shape1470-313">
						<path class="st0" d="M3.6,477c-0.8-0.8-1.4-1.6-2-2.4c-1.1,2.4-1.6,4.9-1.7,6.9c0.1,0.2,0.1,0.3,0.2,0.4c0.6,0.8,1.3,1.5,2,2
							C2.1,482.4,2.3,479.7,3.6,477z"/>
					</g>
				</g>
				<g id="shape1471-315" transform="translate(3.29213,-8.97695)">
					<path class="st0" d="M4.9,476.5c-1.1,0.8-2.2,1.8-3.3,3c-0.6,0.7-1.1,1.4-1.6,2.1c0.5,0.8,1.1,1.6,1.9,2.5
						c0.6-0.9,1.3-1.7,2.2-2.6c1.1-1.1,2.2-1.9,3.1-2.6C6.4,478.1,5.7,477.3,4.9,476.5z"/>
				</g>
				<g id="group1472-317" transform="translate(9.93516,-15.1958)">
					<g id="shape1473-318">
						<path class="st0" d="M9.8,481.9c-0.5-0.7-1.1-1.3-1.7-1.8c-1.9-0.3-4.7-0.3-8,1.5c0.8,0.8,1.5,1.6,2.2,2.4
							C6.6,481.6,9.8,481.9,9.8,481.9z"/>
					</g>
				</g>
				<g id="group1474-320" transform="translate(1.10162E-13,-9.38012)">
					<g id="shape1475-321">
						<path class="st0" d="M2.1,484c0.3-0.7,0.7-1.4,1.2-2.1c-1.9-3.1-1.8-5.6-1.6-6.8c-0.5,0.5-0.9,1-1.3,1.6
							C0,478.4,0,480.9,2.1,484z"/>
					</g>
				</g>
				<g id="group1476-323" transform="translate(4.05148,-0.740211)">
					<g id="shape1477-324">
						<path class="st0" d="M3.4,477.9c-0.9-0.7-1.6-1.4-2.3-2.1c-0.5,0.7-0.8,1.3-1.1,1.9c0.6,0.6,1.3,1.3,2.1,1.9
							c4.9,4,9.8,4.4,12.6,4.4c0.2,0,1-1.2,1.5-1.9C15,482.3,9.7,483,3.4,477.9z"/>
					</g>
				</g>
				<g id="group1478-326" transform="translate(2.10339,-7.03041)">
					<g id="shape1479-327">
						<path class="st0" d="M0,481.6c0.5,0.8,1.1,1.5,2,2.4c0.3-0.6,0.7-1.3,1.1-2c-0.8-0.8-1.4-1.7-1.9-2.5
							C0.7,480.3,0.3,481,0,481.6z"/>
					</g>
				</g>
				<g id="group1480-329" transform="translate(10.5195,-5.3233)">
					<g id="shape1481-330">
						<path class="st0" d="M0,475.2c4.5,4.3,9.8,7.9,11.1,8.8c0.1-0.4,0.2-0.7,0.3-1c-1.4-1.1-5.3-4.2-9.8-8.8
							C1.1,474.4,0.6,474.8,0,475.2z"/>
					</g>
				</g>
				<g id="group1482-332" transform="translate(4.98729,-16.4714)">
					<g id="shape1483-333">
						<path class="st0" d="M4.9,482.9c-1.1-1.2-2.2-2.5-3.4-3.8c-0.6,0.2-1.1,0.4-1.6,0.7c0.8,1.4,2,2.8,3.2,4.2
							C3.8,483.6,4.4,483.2,4.9,482.9z"/>
					</g>
				</g>
				<g id="shape1484-335" transform="translate(8.13763,-14.0503)">
					<path class="st0" d="M1.9,480.5c-0.6,0.3-1.3,0.8-1.9,1.2c0.7,0.8,1.5,1.6,2.3,2.4c0.6-0.4,1.3-0.9,1.9-1.2
						C3.4,482.1,2.6,481.3,1.9,480.5z"/>
				</g>
				<g id="shape1485-337" transform="translate(8.1369,-14.0039)">
					<path class="st0" d="M1.7,480.3c-0.6,0.3-1.1,0.7-1.7,1.1c0.7,0.8,1.7,1.8,2.5,2.6c0.6-0.4,1-0.8,1.6-1.1
						C3.4,482.2,2.4,481.1,1.7,480.3z"/>
				</g>
			</g>
			<g id="group1486-339" transform="translate(14.8617,-6.23662)">
				<g id="shape1487-340">
					<path class="st0" d="M1.3,478.9c-1.1,0.9-1.3,2.5-0.5,3.7c0.9,1.2,2.5,1.4,3.6,0.5c1.1-0.9,1.3-2.5,0.5-3.7
						C4.1,478.3,2.5,478,1.3,478.9z"/>
				</g>
			</g>
			<g id="group1488-342" transform="translate(9.65099,-1.7053E-13)">
				<g id="shape1489-343">
					<path class="st0" d="M1.2,479.3c-1,0.8-1.2,2.4-0.4,3.4c0.8,1.1,2.3,1.3,3.4,0.4c1-0.8,1.2-2.4,0.4-3.4S2.3,478.5,1.2,479.3z"
						/>
				</g>
			</g>
			<g id="group1490-345" transform="translate(0,-5.36433)">
				<g id="shape1491-346">
					<path class="st0" d="M1.9,476.8c-1.6,1.3-1.9,3.6-0.7,5.2c1.2,1.6,3.5,2,5.1,0.7s1.9-3.6,0.7-5.2
						C5.8,475.9,3.5,475.6,1.9,476.8z"/>
				</g>
			</g>
		</g>
	</g>
	<g id="group1492-350" transform="translate(2.85532,-178.839)">
		<g id="group1493-351">
			<g id="group1494-352">
				<g id="group1495-353" transform="translate(3.8518,-6.4617)">
					<g id="shape1496-354">
						<path class="st0" d="M3.6,474.1c-2.3,0.6-3.6,3.1-3,5.7c0.7,2.6,3,4.2,5.3,3.7c2.3-0.6,3.6-3.1,3-5.7
							C8.3,475.1,5.9,473.5,3.6,474.1z"/>
					</g>
				</g>
				<g id="group1497-356">
					<g id="shape1498-357">
						<path class="st0" d="M12.4,477.7c-0.4,0-0.9,0.8-1.5,1.1c-0.7,0.3-1.3,0.9-3.2,0c-1.9-0.9-2.1-1.7-3.6-1.7
							c-1.5,0-4.1,2.8-4.1,6.9h15.6c0,0-0.2-2.8-1.1-4.2C13.4,477.7,12.9,477.7,12.4,477.7z"/>
					</g>
				</g>
			</g>
		</g>
		<g id="group1499-359" transform="translate(9.0485,-0.85947)">
			<g id="shape1500-360">
				<path class="st3" d="M4.8,473.6H0.7c-0.3,0-0.6,0.3-0.6,0.7v2.9c0,0.3,0.3,0.7,0.8,0.7h0.8v5.1c0,0.6,0.4,1.1,1,1.1s1-0.4,1-1
					c0.1,0,0.2,0,0.2,0s0-0.5,0-0.7c0-0.2,0.3-0.3,0.3-0.3v-0.3c-0.3-0.1-0.5-0.3-0.5-0.4v-0.3c0.1-0.1,0.2-0.2,0.2-0.2
					c0.1-0.1,0.3-0.5,0.3-0.5s-0.3-0.4-0.3-0.6c-0.1-0.1-0.1-0.3-0.2-0.4V479c0.1-0.5,0.8-1.1,0.8-1.1h0.5c0.3,0,0.7-0.3,0.7-0.7v-3
					C5.4,473.9,5.2,473.6,4.8,473.6z M2.4,483.1c0,0.2,0,0.3-0.2,0.3c-0.2,0-0.2-0.2-0.2-0.3v-4.8c0-0.2,0.1-0.3,0.2-0.3
					c0.2,0,0.2,0.2,0.2,0.3V483.1z M2.7,475.4c-0.3,0-0.7-0.3-0.7-0.7c0-0.3,0.3-0.7,0.7-0.7c0.3,0,0.6,0.3,0.6,0.7
					C3.4,475,3.1,475.4,2.7,475.4z"/>
			</g>
			<g id="shape1501-362" transform="translate(1.92482,-0.570755)">
				<path class="st4" d="M0.2,484c-0.1,0-0.2-0.1-0.2-0.2v-5c0-0.1,0.1-0.2,0.2-0.2s0.2,0.1,0.2,0.2v5.1C0.4,484,0.3,484,0.2,484z"
					/>
			</g>
			<g id="shape1502-364" transform="translate(2.05993,-8.66317)">
				<ellipse class="st4" cx="0.7" cy="483.3" rx="0.7" ry="0.7"/>
			</g>
		</g>
	</g>
	<g id="shape1683-366" transform="translate(249.331,-190.886)">
		<path class="st5" d="M15.1,454.1l-15.9,11.4L5.3,484H25l6.1-18.5L15.1,454.1z"/>
	</g>
	<g id="group1684-368" transform="translate(256.664,-197.335)">
		<g id="group1685-369">
			<g id="group1686-370">
				<g id="group1687-371" transform="translate(3.8518,-6.4617)">
					<g id="shape1688-372">
						<path class="st0" d="M3.6,474.1c-2.3,0.6-3.6,3.1-3,5.7c0.7,2.6,3,4.2,5.3,3.7c2.3-0.6,3.6-3.1,3-5.7
							C8.3,475.1,5.9,473.5,3.6,474.1z"/>
					</g>
				</g>
				<g id="group1689-374">
					<g id="shape1690-375">
						<path class="st0" d="M12.4,477.7c-0.4,0-0.9,0.8-1.5,1.1c-0.7,0.3-1.3,0.9-3.2,0c-1.9-0.9-2.1-1.7-3.6-1.7
							c-1.5,0-4.1,2.8-4.1,6.9h15.6c0,0-0.2-2.8-1.1-4.2C13.4,477.7,12.9,477.7,12.4,477.7z"/>
					</g>
				</g>
			</g>
		</g>
		<g id="group1691-377" transform="translate(9.0485,-0.85947)">
			<g id="shape1692-378">
				<path class="st3" d="M4.8,473.6H0.7c-0.3,0-0.6,0.3-0.6,0.7v2.9c0,0.3,0.3,0.7,0.8,0.7h0.8v5.1c0,0.6,0.4,1.1,1,1.1s1-0.4,1-1
					c0.1,0,0.2,0,0.2,0s0-0.5,0-0.7c0-0.2,0.3-0.3,0.3-0.3v-0.3c-0.3-0.1-0.5-0.3-0.5-0.4v-0.3c0.1-0.1,0.2-0.2,0.2-0.2
					c0.1-0.1,0.3-0.5,0.3-0.5s-0.3-0.4-0.3-0.6c-0.1-0.1-0.1-0.3-0.2-0.4V479c0.1-0.5,0.8-1.1,0.8-1.1h0.5c0.3,0,0.7-0.3,0.7-0.7v-3
					C5.4,473.9,5.2,473.6,4.8,473.6z M2.4,483.1c0,0.2,0,0.3-0.2,0.3c-0.2,0-0.2-0.2-0.2-0.3v-4.8c0-0.2,0.1-0.3,0.2-0.3
					c0.2,0,0.2,0.2,0.2,0.3V483.1z M2.7,475.4c-0.3,0-0.7-0.3-0.7-0.7c0-0.3,0.3-0.7,0.7-0.7c0.3,0,0.6,0.3,0.6,0.7
					C3.4,475,3.1,475.4,2.7,475.4z"/>
			</g>
			<g id="shape1693-380" transform="translate(1.92482,-0.570755)">
				<path class="st4" d="M0.2,484c-0.1,0-0.2-0.1-0.2-0.2v-5c0-0.1,0.1-0.2,0.2-0.2s0.2,0.1,0.2,0.2v5.1C0.4,484,0.3,484,0.2,484z"
					/>
			</g>
			<g id="shape1694-382" transform="translate(2.05993,-8.66317)">
				<ellipse class="st4" cx="0.7" cy="483.3" rx="0.7" ry="0.7"/>
			</g>
		</g>
	</g>
	<path class="st6" d="M309,296c1.7,0,49.5,0,75.5,0c-0.1-1.2-0.2-1.6-0.3-2.7c2.4,1.2,4.6,2.3,7.1,3.5c-2.5,1.2-4.7,2.4-7.1,3.5
		c0.1-1,0.2-1.6,0.3-2.7c-3.9,0-7.4,0-11,0c-3.7,0-7.6,0-11.4,0c-3.7,0-6.4,0-10.9,0c-3.7,0-7.5,0-11.2,0c-3.7,0-7.1,0-10.8,0
		c-3.7,0-7.6,0-11.4,0c-3.6,0-5,0-8.9,0c-0.1,0-0.9-0.2-0.9-0.8C308,296.3,308.9,296,309,296z"/>
	<path class="st6" d="M277.6,297.7c-0.7,0-1.8,0-2.4,0c-22,0-43.9,0-65.9,0c-11,0-21.7,8.3-24.2,19c-0.7,2.9-0.9,6-0.9,9
		c-0.1,28.4-0.1,56.7-0.2,85.1c0,12-5.5,20.6-16.3,25.8c-2.9,1.4-6.3,2.2-9.5,2.2c-28.2,0.2-81.3-0.1-84.8-0.1c-0.8,0-0.9-0.9,0-0.9
		c2.9-0.1,54.8,0,82.2,0c11.5,0,19.8-5.3,24.9-15.5c1.8-3.5,2.3-7.3,2.3-11.2c0-19.1,0-38.2,0-57.3c0-0.3-0.1-0.7-0.4-1.1
		c-0.3,0.5-0.5,1-0.8,1.5c-5.2,10.3-13.4,16.1-25.2,16.1c-23,0.1-46,0-69,0c-0.6,0-2.6,0.1-2.9-0.2c-0.2-0.1-0.3-0.5-0.2-0.7
		c0.2-0.5,3-0.4,3.7-0.4c7.3,0,14.2,0,21.5,0c15.7,0,31.3,0,47,0c12.7,0,23.3-8.8,25.7-21.3c0.4-1.9,0.3-3.8,0.3-5.7
		c0.1-7-0.2-14,0.3-21c0.8-10.4,6.7-17.6,15.8-22.3c0.5-0.3,2.1-1,2.6-1.3c0,0,0.1,0-1.1,0c-41.6,0-124.5,0-124.6,0
		c-0.5,0-0.6-0.6-0.4-0.9c0.2-0.4,1.6-0.3,2.4-0.3c17.7,0,35.3,0,53,0.1c21.3,0,42.5,0.1,63.8,0.1c0.7,0,1.3,0,2.5,0
		c-2.1-1.2-3.9-2.1-5.6-3.2c-6.8-4.6-11.1-10.8-12.3-19.1c-0.2-1.5-0.2-3.1-0.2-4.6c0-6.1,0.1-12.2,0-18.2
		c-0.2-10.8-5.6-18.4-14.9-23.3c-3.9-2-8.1-2.6-12.5-2.6c-23.4,0-46.8,0-70.2,0c-0.8,0-2.1,0.1-2.4-0.2c-0.1-0.2-0.1-0.5,0-0.6
		c0.2-0.3,1.1-0.3,1.6-0.3c24.3,0,48.6-0.1,72.9,0.1c11.2,0.1,19,6,24.1,15.7c0.3,0.6,0.6,1.3,1.1,2.4c0.1-1,0.2-1.5,0.2-2
		c0-19.2,0-38.5,0-57.7c0-13-8-23.1-20.7-26c-2.1-0.5-4.3-0.6-6.5-0.6c-23.5,0-47,0-70.5,0c-0.8,0-1.9,0.1-2.3-0.2
		c-0.2-0.2-0.2-0.5-0.1-0.7c0.3-0.4,1.6-0.3,2.5-0.3c16.5,0,33.1,0,49.6,0c8,0,16.1-0.1,24.1,0.2c12.8,0.6,23.8,11.5,24.9,24.2
		c0.2,2,0.3,4,0.3,5.9c0,28,0,56.1,0.1,84.1c0,13.4,7.7,23.2,20.7,26.3c1.8,0.4,3.7,0.5,5.5,0.5c23,0,46,0,69,0c0.6,0,1.4,0,2.1,0"
		/>
</g>
<g id="Txt" xmlns:ev="http://www.w3.org/2001/xml-events" xmlns:v="http://schemas.microsoft.com/visio/2003/SVGExtensions/">
	<g id="shape1101-88_2_">
		<rect x="37.6" y="243" class="st7" width="49.3" height="23.1"/>
		<text transform="matrix(1 0 0 1 39.2551 251.203)" class="st8"><tspan x="0" y="0" class="st9 st10">Application </tspan><tspan x="14.3" y="12" class="st9 st10">web</tspan><v:paragraph  v:horizAlign="1"></v:paragraph><v:tabList></v:tabList></text>
	</g>
	<g id="shape1141-135_2_">
		<rect x="38.7" y="387.2" class="st11" width="47.2" height="25"/>
		<text transform="matrix(1 0 0 1 39.2743 395.3878)" class="st8"><tspan x="0" y="0" class="st9 st10">Application </tspan><tspan x="2.2" y="12" class="st9 st10">de bureau</tspan><v:paragraph  v:horizAlign="1"></v:paragraph><v:tabList></v:tabList></text>
	</g>
	<rect x="377.9" y="314.3" class="st7" width="48.8" height="22"/>
	<text transform="matrix(1 0 0 1 380.3938 322.494)" class="st8"><tspan x="0" y="0" class="st9 st10">Application </tspan><tspan x="15.4" y="12" class="st9 st10">API</tspan><v:paragraph  v:horizAlign="1"></v:paragraph><v:tabList></v:tabList></text>
	<g id="shape1464-348_2_">
		<rect x="38.2" y="103.4" class="st7" width="47" height="23.2"/>
		<text transform="matrix(1 0 0 1 38.7549 111.596)" class="st8"><tspan x="0" y="0" class="st9 st10">Application </tspan><tspan x="14.3" y="12" class="st9 st10">web</tspan><v:paragraph  v:horizAlign="1"></v:paragraph><v:tabList></v:tabList></text>
	</g>
	<rect x="38.7" y="318.4" class="st7" width="48.1" height="23.3"/>
	<text transform="matrix(1 0 0 1 39.7012 326.5715)"><tspan x="0" y="0" class="st9 st10">Application  </tspan><tspan x="9" y="12" class="st9 st10">mobile</tspan></text>
	<v:paragraph  v:horizAlign="1"></v:paragraph>
	<v:tabList></v:tabList>
	<v:lf></v:lf>
	<rect x="35.9" y="458" class="st11" width="52.8" height="21.4"/>
	<text transform="matrix(1 0 0 1 39.2899 464.7693)"><tspan x="0" y="0" class="st9 st10">Application </tspan><tspan x="-1.4" y="12" class="st9 st10">Browserless</tspan></text>
	<v:paragraph  v:horizAlign="1"></v:paragraph>
	<v:tabList></v:tabList>
	<v:lf></v:lf>
</g>
<g id="Src" xmlns:ev="http://www.w3.org/2001/xml-events" xmlns:v="http://schemas.microsoft.com/visio/2003/SVGExtensions/">
	<g id="group1074-2_1_">
		<g id="shape1075-3_1_">
			<path class="st0" d="M70,164c-2.2,1.7-4.8,2.5-7.3,2.5c-3.6,0-7.2-1.7-9.6-4.8c-4-5.4-3-13.1,2.2-17.3c2.2-1.7,4.8-2.5,7.3-2.5
				c3.6,0,7.2,1.7,9.6,4.8C76.3,152.1,75.3,159.9,70,164z M73.7,145.6c-2.7-3.6-6.8-5.5-11-5.5c-2.9,0-5.9,0.9-8.4,2.9
				c-6,4.8-7.2,13.7-2.5,19.9c2.7,3.6,6.8,5.5,11,5.5c2.9,0,5.9-0.9,8.4-2.9C77.2,160.7,78.3,151.8,73.7,145.6z"/>
		</g>
	</g>
	<g id="group1076-5_1_" transform="translate(4.95554,-4.39536)">
		<g id="group1077-6_1_" transform="translate(0.341805,-0.176482)">
			<g id="group1078-7_1_" transform="translate(0.437248,3.41061E-13)">
				<g id="shape1079-8_1_">
					<path class="st0" d="M50.8,161.4c-0.8-0.8-1.4-1.6-2-2.4c-1.2,2.4-1.6,4.9-1.7,6.9c0.1,0.2,0.1,0.3,0.2,0.4
						c0.6,0.8,1.3,1.5,2,2C49.3,166.8,49.4,164.1,50.8,161.4z"/>
				</g>
			</g>
			<g id="shape1080-10_1_" transform="translate(3.29213,-8.97695)">
				<path class="st0" d="M52.1,160.9c-1.1,0.8-2.2,1.8-3.3,3c-0.6,0.7-1.2,1.4-1.6,2.1c0.5,0.8,1.1,1.6,1.9,2.5
					c0.6-0.9,1.3-1.7,2.2-2.6c1.1-1.1,2.2-1.9,3.1-2.6C53.6,162.5,52.8,161.7,52.1,160.9z"/>
			</g>
			<g id="group1081-12_1_" transform="translate(9.93516,-15.1958)">
				<g id="shape1082-13_1_">
					<path class="st0" d="M56.9,166.3c-0.5-0.7-1.1-1.3-1.7-1.8c-1.9-0.3-4.7-0.3-8,1.5c0.8,0.8,1.5,1.6,2.2,2.4
						C53.8,166,56.9,166.3,56.9,166.3z"/>
				</g>
			</g>
			<g id="group1083-15_1_" transform="translate(1.10162E-13,-9.38012)">
				<g id="shape1084-16_1_">
					<path class="st0" d="M49.2,168.4c0.3-0.7,0.7-1.4,1.2-2.1c-1.9-3.1-1.8-5.6-1.6-6.8c-0.5,0.5-0.9,1-1.3,1.6
						C47.2,162.7,47.1,165.3,49.2,168.4z"/>
				</g>
			</g>
			<g id="group1085-18_1_" transform="translate(4.05148,-0.740211)">
				<g id="shape1086-19_1_">
					<path class="st0" d="M50.6,162.3c-0.9-0.7-1.6-1.4-2.3-2.1c-0.5,0.7-0.8,1.3-1.1,1.9c0.6,0.6,1.3,1.3,2.1,1.9
						c4.9,4,9.8,4.4,12.6,4.4c0.2,0,1-1.2,1.5-1.9C62.1,166.7,56.8,167.4,50.6,162.3z"/>
				</g>
			</g>
			<g id="group1087-21_1_" transform="translate(2.10339,-7.03041)">
				<g id="shape1088-22_1_">
					<path class="st0" d="M47.1,166c0.5,0.8,1.2,1.5,2,2.4c0.3-0.6,0.7-1.3,1.1-2c-0.8-0.8-1.4-1.7-1.9-2.5
						C47.9,164.7,47.5,165.4,47.1,166z"/>
				</g>
			</g>
			<g id="group1089-24_1_" transform="translate(10.5195,-5.3233)">
				<g id="shape1090-25_1_">
					<path class="st0" d="M47.1,159.6c4.5,4.3,9.8,7.9,11.1,8.8c0.1-0.4,0.2-0.7,0.3-1c-1.5-1.1-5.3-4.2-9.8-8.8
						C48.3,158.8,47.7,159.2,47.1,159.6z"/>
				</g>
			</g>
			<g id="group1091-27_1_" transform="translate(4.98729,-16.4714)">
				<g id="shape1092-28_1_">
					<path class="st0" d="M52.1,167.3c-1.1-1.2-2.2-2.5-3.4-3.8c-0.5,0.2-1.1,0.4-1.6,0.7c0.8,1.4,2,2.8,3.2,4.2
						C51,168,51.5,167.6,52.1,167.3z"/>
				</g>
			</g>
			<g id="shape1093-30_1_" transform="translate(8.13763,-14.0503)">
				<path class="st0" d="M49,164.8c-0.6,0.3-1.3,0.8-1.9,1.2c0.7,0.8,1.5,1.6,2.3,2.4c0.6-0.4,1.3-0.9,1.9-1.2
					C50.5,166.5,49.8,165.7,49,164.8z"/>
			</g>
			<g id="shape1094-32_1_" transform="translate(8.1369,-14.0039)">
				<path class="st0" d="M48.8,164.7c-0.6,0.3-1.1,0.7-1.7,1.1c0.7,0.8,1.7,1.8,2.5,2.6c0.6-0.4,1-0.8,1.6-1.1
					C50.5,166.6,49.6,165.5,48.8,164.7z"/>
			</g>
		</g>
		<g id="group1095-34_1_" transform="translate(14.8617,-6.23662)">
			<g id="shape1096-35_1_">
				<path class="st0" d="M48.5,163.3c-1.1,0.9-1.3,2.5-0.5,3.7c0.9,1.2,2.5,1.4,3.6,0.5c1.1-0.9,1.3-2.5,0.5-3.7
					C51.2,162.6,49.6,162.4,48.5,163.3z"/>
			</g>
		</g>
		<g id="group1097-37_1_" transform="translate(9.65099,-1.7053E-13)">
			<g id="shape1098-38_1_">
				<path class="st0" d="M48.4,163.7c-1,0.8-1.2,2.4-0.5,3.4c0.8,1.1,2.3,1.3,3.4,0.4c1-0.8,1.2-2.4,0.4-3.4S49.4,162.9,48.4,163.7z
					"/>
			</g>
		</g>
		<g id="group1099-40_1_" transform="translate(0,-5.36433)">
			<g id="shape1100-41_1_">
				<path class="st0" d="M49,161.2c-1.6,1.3-1.9,3.6-0.7,5.2c1.2,1.6,3.5,2,5.1,0.7s1.9-3.6,0.7-5.2C52.9,160.3,50.6,160,49,161.2z"
					/>
			</g>
		</g>
	</g>
	<g id="shape1073-43_1_">
		<text transform="matrix(1 0 0 1 37.1921 181.399)" class="st9 st10">Page unique</text>
		<text transform="matrix(1 0 0 1 59.9946 193.399)" class="st9 st10"> </text>
		<text transform="matrix(1 0 0 1 40.3852 193.399)" class="st9 st10">Application</text>
		<v:paragraph  v:horizAlign="1"></v:paragraph>
		<v:tabList></v:tabList>
		<v:lf></v:lf>
	</g>
	<g id="group1101-46_1_" transform="translate(47.1467,-245.807)">
		<g id="group1102-47_1_">
			<g id="shape1103-48_1_">
				<path class="st0" d="M22.9,479.6c-2.2,1.7-4.8,2.5-7.3,2.5c-3.6,0-7.2-1.7-9.6-4.8c-4-5.4-3-13.1,2.2-17.3
					c2.2-1.7,4.8-2.5,7.3-2.5c3.6,0,7.2,1.7,9.5,4.8C29.2,467.7,28.2,475.5,22.9,479.6z M26.5,461.2c-2.7-3.6-6.8-5.5-11-5.5
					c-2.9,0-5.9,0.9-8.4,2.9c-6,4.8-7.2,13.7-2.6,19.9c2.7,3.6,6.8,5.5,11,5.5c2.9,0,5.9-0.9,8.4-2.9
					C30,476.3,31.2,467.4,26.5,461.2z"/>
			</g>
		</g>
		<g id="group1104-50_1_" transform="translate(4.95554,-4.39536)">
			<g id="group1105-51_1_" transform="translate(0.341805,-0.176482)">
				<g id="group1106-52_1_" transform="translate(0.437248,3.41061E-13)">
					<g id="shape1107-53_1_">
						<path class="st0" d="M3.6,477c-0.8-0.8-1.4-1.6-2-2.4c-1.1,2.4-1.6,4.9-1.7,6.9c0.1,0.2,0.1,0.3,0.2,0.4c0.6,0.8,1.3,1.5,2,2
							C2.1,482.4,2.3,479.7,3.6,477z"/>
					</g>
				</g>
				<g id="shape1108-55_1_" transform="translate(3.29213,-8.97695)">
					<path class="st0" d="M4.9,476.5c-1.1,0.8-2.2,1.8-3.3,3c-0.6,0.7-1.1,1.4-1.6,2.1c0.5,0.8,1.1,1.6,1.9,2.5
						c0.6-0.9,1.3-1.7,2.2-2.6c1.1-1.1,2.2-1.9,3.1-2.6C6.4,478.1,5.7,477.3,4.9,476.5z"/>
				</g>
				<g id="group1109-57_1_" transform="translate(9.93516,-15.1958)">
					<g id="shape1110-58_1_">
						<path class="st0" d="M9.8,481.9c-0.5-0.7-1.1-1.3-1.7-1.8c-1.9-0.3-4.7-0.3-8,1.5c0.8,0.8,1.5,1.6,2.2,2.4
							C6.6,481.6,9.8,481.9,9.8,481.9z"/>
					</g>
				</g>
				<g id="group1111-60_1_" transform="translate(1.10162E-13,-9.38012)">
					<g id="shape1112-61_1_">
						<path class="st0" d="M2.1,484c0.3-0.7,0.7-1.4,1.2-2.1c-1.9-3.1-1.8-5.6-1.6-6.8c-0.5,0.5-0.9,1-1.3,1.6
							C0,478.4,0,480.9,2.1,484z"/>
					</g>
				</g>
				<g id="group1113-63_1_" transform="translate(4.05148,-0.740211)">
					<g id="shape1114-64_1_">
						<path class="st0" d="M3.4,477.9c-0.9-0.7-1.6-1.4-2.3-2.1c-0.5,0.7-0.8,1.3-1.1,1.9c0.6,0.6,1.3,1.3,2.1,1.9
							c4.9,4,9.8,4.4,12.6,4.4c0.2,0,1-1.2,1.5-1.9C15,482.3,9.7,483,3.4,477.9z"/>
					</g>
				</g>
				<g id="group1115-66_1_" transform="translate(2.10339,-7.03041)">
					<g id="shape1116-67_1_">
						<path class="st0" d="M0,481.6c0.5,0.8,1.1,1.5,2,2.4c0.3-0.6,0.7-1.3,1.1-2c-0.8-0.8-1.4-1.7-1.9-2.5
							C0.7,480.3,0.3,481,0,481.6z"/>
					</g>
				</g>
				<g id="group1117-69_1_" transform="translate(10.5195,-5.3233)">
					<g id="shape1118-70_1_">
						<path class="st0" d="M0,475.2c4.5,4.3,9.8,7.9,11.1,8.8c0.1-0.4,0.2-0.7,0.3-1c-1.4-1.1-5.3-4.2-9.8-8.8
							C1.1,474.4,0.6,474.8,0,475.2z"/>
					</g>
				</g>
				<g id="group1119-72_1_" transform="translate(4.98729,-16.4714)">
					<g id="shape1120-73_1_">
						<path class="st0" d="M4.9,482.9c-1.1-1.2-2.2-2.5-3.4-3.8c-0.6,0.2-1.1,0.4-1.6,0.7c0.8,1.4,2,2.8,3.2,4.2
							C3.8,483.6,4.4,483.2,4.9,482.9z"/>
					</g>
				</g>
				<g id="shape1121-75_1_" transform="translate(8.13763,-14.0503)">
					<path class="st0" d="M1.9,480.5c-0.6,0.3-1.3,0.8-1.9,1.2c0.7,0.8,1.5,1.6,2.3,2.4c0.6-0.4,1.3-0.9,1.9-1.2
						C3.4,482.1,2.6,481.3,1.9,480.5z"/>
				</g>
				<g id="shape1122-77_1_" transform="translate(8.1369,-14.0039)">
					<path class="st0" d="M1.7,480.3c-0.6,0.3-1.1,0.7-1.7,1.1c0.7,0.8,1.7,1.8,2.5,2.6c0.6-0.4,1-0.8,1.6-1.1
						C3.4,482.2,2.4,481.1,1.7,480.3z"/>
				</g>
			</g>
			<g id="group1123-79_1_" transform="translate(14.8617,-6.23662)">
				<g id="shape1124-80_1_">
					<path class="st0" d="M1.3,478.9c-1.1,0.9-1.3,2.5-0.5,3.7c0.9,1.2,2.5,1.4,3.6,0.5c1.1-0.9,1.3-2.5,0.5-3.7
						C4.1,478.3,2.5,478,1.3,478.9z"/>
				</g>
			</g>
			<g id="group1125-82_1_" transform="translate(9.65099,-1.7053E-13)">
				<g id="shape1126-83_1_">
					<path class="st0" d="M1.2,479.3c-1,0.8-1.2,2.4-0.4,3.4c0.8,1.1,2.3,1.3,3.4,0.4c1-0.8,1.2-2.4,0.4-3.4S2.3,478.5,1.2,479.3z"
						/>
				</g>
			</g>
			<g id="group1127-85_1_" transform="translate(0,-5.36433)">
				<g id="shape1128-86_1_">
					<path class="st0" d="M1.9,476.8c-1.6,1.3-1.9,3.6-0.7,5.2c1.2,1.6,3.5,2,5.1,0.7s1.9-3.6,0.7-5.2
						C5.8,475.9,3.5,475.6,1.9,476.8z"/>
				</g>
			</g>
		</g>
	</g>
	<path class="st0" d="M305.4,284h-20.5c-0.6,0-1.1,0.5-1.1,1.1v16.7c0,0.6,0.5,1.1,1.1,1.1h5.3c0.4,1.4,1.7,2.3,3.2,2.3
		c1.8,0,3.3-1.5,3.3-3.4s-1.5-3.4-3.3-3.4c-1.5,0-2.8,0.9-3.2,2.3H286v-12h18.3v12h-3.4c-0.5-3.7-3.7-6.6-7.5-6.6
		c-1.3,0-2.5,0.4-3.6,0.9l1,2c0.7-0.4,1.7-0.7,2.5-0.7c2.9,0,5.4,2.4,5.4,5.5c0,3-2.4,5.5-5.4,5.5c-0.9,0-1.8-0.3-2.5-0.7l-1,2
		c1.1,0.6,2.4,0.9,3.6,0.9c3.8,0,7-2.9,7.5-6.6h4.5c0.6,0,1.1-0.5,1.1-1.1v-16.7C306.5,284.5,306,284,305.4,284z"/>
	<text transform="matrix(1 0 0 1 264.4009 322.494)" class="st8 st9 st10">Application API<v:paragraph  v:horizAlign="1"></v:paragraph><v:tabList></v:tabList></text>
	<g id="group1130-93_1_" transform="translate(52.8159,-32.0037)">
		<g id="group1131-94_1_">
			<g id="shape1136-99_1_" transform="translate(0.750347,-0.801256)">
				<path class="st1" d="M23.6,460h-6.1c-0.2,0-0.4,0.1-0.4,0.5v2.2c0,0.2,0.1,0.4,0.4,0.4H21v3.4c0,0.2,0.1,0.4,0.4,0.4h2.2
					c0.2,0,0.4-0.1,0.4-0.4v-6C24,460.1,23.9,460,23.6,460z M6.4,481H3v-3.4c0-0.2-0.2-0.4-0.5-0.4H0.4c-0.2,0-0.4,0.1-0.4,0.4v6
					c0,0.2,0.2,0.4,0.4,0.4h6.1c0.2,0,0.4-0.1,0.4-0.5v-2.2C6.8,481.1,6.7,481,6.4,481z M20,477.3c-0.2,0-0.3,0-0.5,0.1l-2.3-4.1
					c0.5-0.5,0.9-1.2,0.9-2c0-1.5-1.3-2.8-2.8-2.8c-0.4,0-0.8,0.1-1.1,0.2l-2.5-3.5c0.4-0.4,0.5-0.9,0.5-1.5c0-1.3-1.1-2.3-2.3-2.3
					s-2.3,1.1-2.3,2.3s1,2.3,2.3,2.3c0.3,0,0.5-0.1,0.8-0.1l2.5,3.5c-0.3,0.4-0.6,0.8-0.7,1.4l-7.2,0.6c-0.3-0.6-0.9-1-1.6-1
					c-1,0-1.9,0.8-1.9,1.9c0,1.1,0.8,1.9,1.9,1.9c0.9,0,1.7-0.7,1.9-1.6l7.1-0.6c0.2,0.5,0.4,0.8,0.7,1.2l-1.8,2.9h-0.2
					c-1.1,0-1.9,0.8-1.9,1.9c0,1.1,0.8,1.9,1.9,1.9c1.1,0,1.9-0.8,1.9-1.9c0-0.5-0.2-1-0.5-1.4l1.7-2.9c0.3,0.1,0.6,0.1,1,0.1
					c0.3,0,0.5-0.1,0.8-0.1l2.3,4.1c-0.4,0.4-0.7,1-0.7,1.6c0,1.2,1,2.2,2.2,2.2c1.2,0,2.2-1,2.2-2.2
					C22.1,478.4,21.2,477.3,20,477.3z"/>
			</g>
		</g>
	</g>
	<g id="group1137-104_1_" transform="translate(52.8159,-170.335)">
		<g id="shape1138-105_1_">
			<path class="st0" d="M18.4,450L18.4,450l-16.9,0l0,0C0,450,0,450.4,0,452.2v29.5c0,1.8,0,2.2,1.5,2.2c0,0,0.4,0,0.5,0h15.8
				c0.1,0,0.5,0,0.5,0c1.5,0,1.5-0.4,1.5-2.2v-29.5C19.8,450.4,19.8,450,18.4,450z M7.6,451.1h4.7c0.1,0,0.1,0.1,0.1,0.2
				c0,0.1-0.1,0.2-0.1,0.2H7.6c-0.1,0-0.2-0.1-0.2-0.2C7.4,451.2,7.5,451.1,7.6,451.1z M7.7,482.2H6.6c-0.2,0-0.3-0.1-0.3-0.3
				c0-0.2,0.2-0.3,0.3-0.3h1.1c0.2,0,0.4,0.1,0.4,0.3C8.1,482.2,7.9,482.2,7.7,482.2z M10.7,482.4H9.1c-0.3,0-0.5-0.1-0.5-0.4
				c0-0.3,0.2-0.4,0.5-0.4l1.6,0c0.3,0,0.5,0.1,0.5,0.4C11.2,482.3,11,482.4,10.7,482.4z M13.3,482.2h-1.1c-0.2,0-0.3-0.1-0.3-0.3
				s0.2-0.3,0.3-0.3h1.1c0.2,0,0.3,0.1,0.3,0.3S13.5,482.2,13.3,482.2z M18.4,478.8c0,1.6-0.1,1.9-1.6,1.9H9.2H3
				c-1.4,0-1.6-0.4-1.6-1.9v-24.6c0-1.6,0.2-1.6,1.7-1.6h6h7.5c1.6,0,1.8,0,1.8,1.6L18.4,478.8z"/>
		</g>
		<g id="shape1139-107_1_" transform="translate(2.39497,-4.40465)">
			<path class="st0" d="M15.1,459.6c0-1.6-0.2-1.6-1.7-1.6H1.7c-1.5,0-1.7,0-1.7,1.6v22.5c0,1.6,0.2,1.9,1.7,1.9h11.6
				c1.5,0,1.7-0.3,1.7-1.9V459.6z M7.1,476.3l-4.8-2.8v-5.7l4.8,2.8V476.3z M2.8,467l4.8-2.8l4.8,2.8l-4.8,2.8L2.8,467z M12.7,473.4
				L8,476.3v-5.6l4.8-2.8V473.4z"/>
		</g>
	</g>
	<g id="group1141-118_1_" transform="translate(52.8159,-98.9722)">
		<g id="shape1142-119_1_">
			<path class="st2" d="M15,483.2H0.8v-28.4H15v7.7h0.8v-8.4H0V484h15.7v-2.3H15V483.2z"/>
		</g>
		<g id="shape1143-121_1_" transform="translate(1.5606,-23.7593)">
			<path class="st2" d="M12.6,479.4H0v4.6h12.6V479.4z M3.1,481.3h6.5v0.8H3.1V481.3z M9.6,483.2L9.6,483.2H3.1H3v-0.8h0.1h6.4h0.1
				V483.2z"/>
		</g>
		<g id="shape1144-123_1_" transform="translate(1.52875,-19.9374)">
			<path class="st2" d="M0,481v3h8.6v-1.5h4.1V481H0z"/>
		</g>
		<g id="shape1145-125_1_" transform="translate(1.52875,-16.4978)">
			<rect x="0" y="481.3" class="st2" width="8.6" height="2.7"/>
		</g>
		<g id="shape1146-127_1_" transform="translate(1.4969,-1.52875)">
			<path class="st2" d="M0,484h12.7v-0.8H8.6v-13.4H0L0,484L0,484z M1.6,481.3h2.3v1.2H1.6V481.3z"/>
		</g>
		<g id="shape1147-129_1_" transform="translate(16.02,-3.43969)">
			<path class="st2" d="M8.7,482.9H6.3V481H3.8v1.9H1.3c-0.7,0-1.3,0.6-1.3,1.1h10C10.1,483.4,9.4,482.9,8.7,482.9z"/>
		</g>
		<g id="shape1148-131_1_" transform="translate(11.816,-7.22971)">
			<path class="st2" d="M17.8,472.7H0.7c-0.4,0-0.7,0.3-0.7,0.6v10.1c0,0.3,0.3,0.6,0.7,0.6h17.1c0.4,0,0.7-0.3,0.7-0.6v-10.1
				C18.4,472.9,18.1,472.7,17.8,472.7z M16.8,482.5H1.7v-8.3h15.1V482.5z"/>
		</g>
		<g id="shape1149-133_1_" transform="translate(17.931,-9.36359)">
			<path class="st2" d="M7,482.2v-3.4l-3.5-1.9L0,478.6v3.5l3.5,1.8L7,482.2z M2.6,479.9l0.9-0.4l0.9,0.4l-0.9,0.5L2.6,479.9z
				 M2.6,478.7l0.9-0.5l0.9,0.5l-0.9,0.5L2.6,478.7z M4.5,483.2l-1,0.5v-0.9l1-0.5V483.2z M4.5,482.1l-1,0.5v-0.9l1-0.5V482.1z
				 M4.5,481l-1,0.5v-0.9l1-0.5V481z M3.7,479.3l0.9-0.5l0.9,0.5l-0.9,0.4L3.7,479.3z M5.7,482.6l-0.9,0.5v-0.9l0.9-0.5V482.6z
				 M5.7,481.5L4.8,482V481l0.9-0.5V481.5z M5.7,480.3l-0.9,0.5v-0.9l0.9-0.5V480.3z M6.8,482.1l-0.9,0.5v-0.9l0.9-0.4V482.1z
				 M6.8,480.9l-0.9,0.4v-0.9l0.9-0.5V480.9z M6.8,479.8l-0.9,0.4v-0.9l0.9-0.5V479.8z M6.6,478.7l-0.9,0.4l-0.9-0.4l0.9-0.5
				L6.6,478.7z M5.5,478.1l-0.9,0.4l-0.9-0.4l0.9-0.4L5.5,478.1z M3.5,477.1l0.9,0.5L3.5,478l-0.9-0.4L3.5,477.1z M2.4,477.7
				l0.9,0.4l-0.9,0.4l-0.9-0.4L2.4,477.7z M1.3,478.3l0.9,0.5l-0.9,0.4l-0.9-0.4L1.3,478.3z M1,482.5l-0.9-0.5v-0.9l0.9,0.4V482.5z
				 M1,481.4l-0.9-0.4V480l0.9,0.5V481.4z M1,480.2l-0.9-0.4v-0.9l0.9,0.4V480.2z M2.2,483.1l-1-0.5v-0.9l1,0.5V483.1z M2.2,482
				l-1-0.5v-0.9l1,0.5V482z M2.2,480.8l-1-0.5v-0.9l1,0.5V480.8z M1.5,479.3l0.9-0.5l0.9,0.5l-0.9,0.5L1.5,479.3z M3.4,483.8l-1-0.5
				v-0.9l1,0.5V483.8z M3.4,482.6l-1-0.5v-0.9l1,0.5V482.6z M3.4,481.5l-1-0.5V480l1,0.5V481.5z"/>
		</g>
	</g>
	<g id="group1150-137_1_" transform="translate(0.375,-315.611)">
		<g id="group1151-138_1_">
			<g id="group1152-139_1_">
				<g id="group1153-140_1_" transform="translate(3.8518,-6.4617)">
					<g id="shape1154-141_1_">
						<path class="st0" d="M3.6,474.1c-2.3,0.6-3.6,3.1-3,5.7c0.7,2.6,3,4.2,5.3,3.7c2.3-0.6,3.6-3.1,3-5.7
							C8.3,475.1,5.9,473.5,3.6,474.1z"/>
					</g>
				</g>
				<g id="group1155-143_1_">
					<g id="shape1156-144_1_">
						<path class="st0" d="M12.4,477.7c-0.4,0-0.9,0.8-1.5,1.1c-0.7,0.3-1.3,0.9-3.2,0c-1.9-0.9-2.1-1.7-3.6-1.7
							c-1.5,0-4.1,2.8-4.1,6.9h15.6c0,0-0.2-2.8-1.1-4.2C13.4,477.7,12.9,477.7,12.4,477.7z"/>
					</g>
				</g>
			</g>
		</g>
		<g id="group1157-146_1_" transform="translate(9.0485,-0.85947)">
			<g id="shape1158-147_1_">
				<path class="st3" d="M4.8,473.6H0.7c-0.3,0-0.6,0.3-0.6,0.7v2.9c0,0.3,0.3,0.7,0.8,0.7h0.8v5.1c0,0.6,0.4,1.1,1,1.1s1-0.4,1-1
					c0.1,0,0.2,0,0.2,0s0-0.5,0-0.7c0-0.2,0.3-0.3,0.3-0.3v-0.3c-0.3-0.1-0.5-0.3-0.5-0.4v-0.3c0.1-0.1,0.2-0.2,0.2-0.2
					c0.1-0.1,0.3-0.5,0.3-0.5s-0.3-0.4-0.3-0.6c-0.1-0.1-0.1-0.3-0.2-0.4V479c0.1-0.5,0.8-1.1,0.8-1.1h0.5c0.3,0,0.7-0.3,0.7-0.7v-3
					C5.4,473.9,5.2,473.6,4.8,473.6z M2.4,483.1c0,0.2,0,0.3-0.2,0.3c-0.2,0-0.2-0.2-0.2-0.3v-4.8c0-0.2,0.1-0.3,0.2-0.3
					c0.2,0,0.2,0.2,0.2,0.3V483.1z M2.7,475.4c-0.3,0-0.7-0.3-0.7-0.7c0-0.3,0.3-0.7,0.7-0.7c0.3,0,0.6,0.3,0.6,0.7
					C3.4,475,3.1,475.4,2.7,475.4z"/>
			</g>
			<g id="shape1159-149_1_" transform="translate(1.92482,-0.570755)">
				<path class="st4" d="M0.2,484c-0.1,0-0.2-0.1-0.2-0.2v-5c0-0.1,0.1-0.2,0.2-0.2s0.2,0.1,0.2,0.2v5.1C0.4,484,0.3,484,0.2,484z"
					/>
			</g>
			<g id="shape1160-151_1_" transform="translate(2.05993,-8.66317)">
				<ellipse class="st4" cx="0.7" cy="483.3" rx="0.7" ry="0.7"/>
			</g>
		</g>
	</g>
	<g id="shape1174-173_1_" transform="translate(391.556,-174.516)">
		<path class="st0" d="M21.6,458.5H1.1c-0.6,0-1.1,0.5-1.1,1.1v16.7c0,0.6,0.5,1.1,1.1,1.1h5.3c0.4,1.4,1.7,2.3,3.2,2.3
			c1.8,0,3.3-1.5,3.3-3.4s-1.5-3.4-3.3-3.4c-1.5,0-2.8,0.9-3.2,2.3H2.2v-12h18.3v12H17c-0.5-3.7-3.7-6.6-7.5-6.6
			c-1.3,0-2.6,0.4-3.6,0.9l1,2c0.7-0.4,1.7-0.7,2.6-0.7c2.9,0,5.4,2.4,5.4,5.5c0,3-2.4,5.5-5.4,5.5c-0.9,0-1.8-0.3-2.6-0.7l-1,2
			c1.1,0.6,2.4,0.9,3.6,0.9c3.8,0,7-2.9,7.5-6.6h4.5c0.6,0,1.1-0.5,1.1-1.1v-16.7C22.7,459,22.2,458.5,21.6,458.5z"/>
	</g>
	<g id="group1176-181_1_" transform="translate(2.85532,-251.477)">
		<g id="group1177-182_1_">
			<g id="group1178-183_1_">
				<g id="group1179-184_1_" transform="translate(3.8518,-6.4617)">
					<g id="shape1180-185_1_">
						<path class="st0" d="M3.6,474.1c-2.3,0.6-3.6,3.1-3,5.7c0.7,2.6,3,4.2,5.3,3.7c2.3-0.6,3.6-3.1,3-5.7
							C8.3,475.1,5.9,473.5,3.6,474.1z"/>
					</g>
				</g>
				<g id="group1181-187_1_">
					<g id="shape1182-188_1_">
						<path class="st0" d="M12.4,477.7c-0.4,0-0.9,0.8-1.5,1.1c-0.7,0.3-1.3,0.9-3.2,0c-1.9-0.9-2.1-1.7-3.6-1.7
							c-1.5,0-4.1,2.8-4.1,6.9h15.6c0,0-0.2-2.8-1.1-4.2C13.4,477.7,12.9,477.7,12.4,477.7z"/>
					</g>
				</g>
			</g>
		</g>
		<g id="group1183-190_1_" transform="translate(9.0485,-0.85947)">
			<g id="shape1184-191_1_">
				<path class="st3" d="M4.8,473.6H0.7c-0.3,0-0.6,0.3-0.6,0.7v2.9c0,0.3,0.3,0.7,0.8,0.7h0.8v5.1c0,0.6,0.4,1.1,1,1.1s1-0.4,1-1
					c0.1,0,0.2,0,0.2,0s0-0.5,0-0.7c0-0.2,0.3-0.3,0.3-0.3v-0.3c-0.3-0.1-0.5-0.3-0.5-0.4v-0.3c0.1-0.1,0.2-0.2,0.2-0.2
					c0.1-0.1,0.3-0.5,0.3-0.5s-0.3-0.4-0.3-0.6c-0.1-0.1-0.1-0.3-0.2-0.4V479c0.1-0.5,0.8-1.1,0.8-1.1h0.5c0.3,0,0.7-0.3,0.7-0.7v-3
					C5.4,473.9,5.2,473.6,4.8,473.6z M2.4,483.1c0,0.2,0,0.3-0.2,0.3c-0.2,0-0.2-0.2-0.2-0.3v-4.8c0-0.2,0.1-0.3,0.2-0.3
					c0.2,0,0.2,0.2,0.2,0.3V483.1z M2.7,475.4c-0.3,0-0.7-0.3-0.7-0.7c0-0.3,0.3-0.7,0.7-0.7c0.3,0,0.6,0.3,0.6,0.7
					C3.4,475,3.1,475.4,2.7,475.4z"/>
			</g>
			<g id="shape1185-193_1_" transform="translate(1.92482,-0.570755)">
				<path class="st4" d="M0.2,484c-0.1,0-0.2-0.1-0.2-0.2v-5c0-0.1,0.1-0.2,0.2-0.2s0.2,0.1,0.2,0.2v5.1C0.4,484,0.3,484,0.2,484z"
					/>
			</g>
			<g id="shape1186-195_1_" transform="translate(2.05993,-8.66317)">
				<ellipse class="st4" cx="0.7" cy="483.3" rx="0.7" ry="0.7"/>
			</g>
		</g>
	</g>
	<g id="group1187-197_1_" transform="translate(0.375,-391.083)">
		<g id="group1188-198_1_">
			<g id="group1189-199_1_">
				<g id="group1190-200_1_" transform="translate(3.8518,-6.4617)">
					<g id="shape1191-201_1_">
						<path class="st0" d="M3.6,474.1c-2.3,0.6-3.6,3.1-3,5.7c0.7,2.6,3,4.2,5.3,3.7c2.3-0.6,3.6-3.1,3-5.7
							C8.3,475.1,5.9,473.5,3.6,474.1z"/>
					</g>
				</g>
				<g id="group1192-203_1_">
					<g id="shape1193-204_1_">
						<path class="st0" d="M12.4,477.7c-0.4,0-0.9,0.8-1.5,1.1c-0.7,0.3-1.3,0.9-3.2,0c-1.9-0.9-2.1-1.7-3.6-1.7
							c-1.5,0-4.1,2.8-4.1,6.9h15.6c0,0-0.2-2.8-1.1-4.2C13.4,477.7,12.9,477.7,12.4,477.7z"/>
					</g>
				</g>
			</g>
		</g>
		<g id="group1194-206_1_" transform="translate(9.0485,-0.85947)">
			<g id="shape1195-207_1_">
				<path class="st3" d="M4.8,473.6H0.7c-0.3,0-0.6,0.3-0.6,0.7v2.9c0,0.3,0.3,0.7,0.8,0.7h0.8v5.1c0,0.6,0.4,1.1,1,1.1s1-0.4,1-1
					c0.1,0,0.2,0,0.2,0s0-0.5,0-0.7c0-0.2,0.3-0.3,0.3-0.3v-0.3c-0.3-0.1-0.5-0.3-0.5-0.4v-0.3c0.1-0.1,0.2-0.2,0.2-0.2
					c0.1-0.1,0.3-0.5,0.3-0.5s-0.3-0.4-0.3-0.6c-0.1-0.1-0.1-0.3-0.2-0.4V479c0.1-0.5,0.8-1.1,0.8-1.1h0.5c0.3,0,0.7-0.3,0.7-0.7v-3
					C5.4,473.9,5.2,473.6,4.8,473.6z M2.4,483.1c0,0.2,0,0.3-0.2,0.3c-0.2,0-0.2-0.2-0.2-0.3v-4.8c0-0.2,0.1-0.3,0.2-0.3
					c0.2,0,0.2,0.2,0.2,0.3V483.1z M2.7,475.4c-0.3,0-0.7-0.3-0.7-0.7c0-0.3,0.3-0.7,0.7-0.7c0.3,0,0.6,0.3,0.6,0.7
					C3.4,475,3.1,475.4,2.7,475.4z"/>
			</g>
			<g id="shape1196-209_1_" transform="translate(1.92482,-0.570755)">
				<path class="st4" d="M0.2,484c-0.1,0-0.2-0.1-0.2-0.2v-5c0-0.1,0.1-0.2,0.2-0.2s0.2,0.1,0.2,0.2v5.1C0.4,484,0.3,484,0.2,484z"
					/>
			</g>
			<g id="shape1197-211_1_" transform="translate(2.05993,-8.66317)">
				<ellipse class="st4" cx="0.7" cy="483.3" rx="0.7" ry="0.7"/>
			</g>
		</g>
	</g>
	<g id="group1198-213_1_" transform="translate(2.85532,-98.9722)">
		<g id="group1199-214_1_">
			<g id="group1200-215_1_">
				<g id="group1201-216_1_" transform="translate(3.8518,-6.4617)">
					<g id="shape1202-217_1_">
						<path class="st0" d="M3.6,474.1c-2.3,0.6-3.6,3.1-3,5.7c0.7,2.6,3,4.2,5.3,3.7c2.3-0.6,3.6-3.1,3-5.7
							C8.3,475.1,5.9,473.5,3.6,474.1z"/>
					</g>
				</g>
				<g id="group1203-219_1_">
					<g id="shape1204-220_1_">
						<path class="st0" d="M12.4,477.7c-0.4,0-0.9,0.8-1.5,1.1c-0.7,0.3-1.3,0.9-3.2,0c-1.9-0.9-2.1-1.7-3.6-1.7
							c-1.5,0-4.1,2.8-4.1,6.9h15.6c0,0-0.2-2.8-1.1-4.2C13.4,477.7,12.9,477.7,12.4,477.7z"/>
					</g>
				</g>
			</g>
		</g>
		<g id="group1205-222_1_" transform="translate(9.0485,-0.85947)">
			<g id="shape1206-223_1_">
				<path class="st3" d="M4.8,473.6H0.7c-0.3,0-0.6,0.3-0.6,0.7v2.9c0,0.3,0.3,0.7,0.8,0.7h0.8v5.1c0,0.6,0.4,1.1,1,1.1s1-0.4,1-1
					c0.1,0,0.2,0,0.2,0s0-0.5,0-0.7c0-0.2,0.3-0.3,0.3-0.3v-0.3c-0.3-0.1-0.5-0.3-0.5-0.4v-0.3c0.1-0.1,0.2-0.2,0.2-0.2
					c0.1-0.1,0.3-0.5,0.3-0.5s-0.3-0.4-0.3-0.6c-0.1-0.1-0.1-0.3-0.2-0.4V479c0.1-0.5,0.8-1.1,0.8-1.1h0.5c0.3,0,0.7-0.3,0.7-0.7v-3
					C5.4,473.9,5.2,473.6,4.8,473.6z M2.4,483.1c0,0.2,0,0.3-0.2,0.3c-0.2,0-0.2-0.2-0.2-0.3v-4.8c0-0.2,0.1-0.3,0.2-0.3
					c0.2,0,0.2,0.2,0.2,0.3V483.1z M2.7,475.4c-0.3,0-0.7-0.3-0.7-0.7c0-0.3,0.3-0.7,0.7-0.7c0.3,0,0.6,0.3,0.6,0.7
					C3.4,475,3.1,475.4,2.7,475.4z"/>
			</g>
			<g id="shape1207-225_1_" transform="translate(1.92482,-0.570755)">
				<path class="st4" d="M0.2,484c-0.1,0-0.2-0.1-0.2-0.2v-5c0-0.1,0.1-0.2,0.2-0.2s0.2,0.1,0.2,0.2v5.1C0.4,484,0.3,484,0.2,484z"
					/>
			</g>
			<g id="shape1208-227_1_" transform="translate(2.05993,-8.66317)">
				<ellipse class="st4" cx="0.7" cy="483.3" rx="0.7" ry="0.7"/>
			</g>
		</g>
	</g>
	<g id="group1218-229_1_" transform="translate(2.85532,-36.2556)">
		<g id="group1219-230_1_">
			<g id="group1220-231_1_">
				<g id="group1221-232_1_" transform="translate(3.8518,-6.4617)">
					<g id="shape1222-233_1_">
						<path class="st0" d="M3.6,474.1c-2.3,0.6-3.6,3.1-3,5.7c0.7,2.6,3,4.2,5.3,3.7c2.3-0.6,3.6-3.1,3-5.7
							C8.3,475.1,5.9,473.5,3.6,474.1z"/>
					</g>
				</g>
				<g id="group1223-235_1_">
					<g id="shape1224-236_1_">
						<path class="st0" d="M12.4,477.7c-0.4,0-0.9,0.8-1.5,1.1c-0.7,0.3-1.3,0.9-3.2,0c-1.9-0.9-2.1-1.7-3.6-1.7
							c-1.5,0-4.1,2.8-4.1,6.9h15.6c0,0-0.2-2.8-1.1-4.2C13.4,477.7,12.9,477.7,12.4,477.7z"/>
					</g>
				</g>
			</g>
		</g>
		<g id="group1225-238_1_" transform="translate(9.0485,-0.85947)">
			<g id="shape1226-239_1_">
				<path class="st3" d="M4.8,473.6H0.7c-0.3,0-0.6,0.3-0.6,0.7v2.9c0,0.3,0.3,0.7,0.8,0.7h0.8v5.1c0,0.6,0.4,1.1,1,1.1s1-0.4,1-1
					c0.1,0,0.2,0,0.2,0s0-0.5,0-0.7c0-0.2,0.3-0.3,0.3-0.3v-0.3c-0.3-0.1-0.5-0.3-0.5-0.4v-0.3c0.1-0.1,0.2-0.2,0.2-0.2
					c0.1-0.1,0.3-0.5,0.3-0.5s-0.3-0.4-0.3-0.6c-0.1-0.1-0.1-0.3-0.2-0.4V479c0.1-0.5,0.8-1.1,0.8-1.1h0.5c0.3,0,0.7-0.3,0.7-0.7v-3
					C5.4,473.9,5.2,473.6,4.8,473.6z M2.4,483.1c0,0.2,0,0.3-0.2,0.3c-0.2,0-0.2-0.2-0.2-0.3v-4.8c0-0.2,0.1-0.3,0.2-0.3
					c0.2,0,0.2,0.2,0.2,0.3V483.1z M2.7,475.4c-0.3,0-0.7-0.3-0.7-0.7c0-0.3,0.3-0.7,0.7-0.7c0.3,0,0.6,0.3,0.6,0.7
					C3.4,475,3.1,475.4,2.7,475.4z"/>
			</g>
			<g id="shape1227-241_1_" transform="translate(1.92482,-0.570755)">
				<path class="st4" d="M0.2,484c-0.1,0-0.2-0.1-0.2-0.2v-5c0-0.1,0.1-0.2,0.2-0.2s0.2,0.1,0.2,0.2v5.1C0.4,484,0.3,484,0.2,484z"
					/>
			</g>
			<g id="shape1228-243_1_" transform="translate(2.05993,-8.66317)">
				<ellipse class="st4" cx="0.7" cy="483.3" rx="0.7" ry="0.7"/>
			</g>
		</g>
	</g>
	<g id="group1426-246_1_">
		<g id="shape1427-247_1_">
			<path class="st0" d="M70,24.4c-2.2,1.7-4.8,2.5-7.3,2.5c-3.6,0-7.2-1.7-9.6-4.8c-4-5.4-3-13.1,2.2-17.3c2.2-1.7,4.8-2.5,7.3-2.5
				c3.6,0,7.2,1.7,9.6,4.8C76.3,12.5,75.3,20.3,70,24.4z M73.7,6c-2.7-3.6-6.8-5.5-11-5.5c-2.9,0-5.9,0.9-8.4,2.9
				c-6,4.8-7.2,13.7-2.5,19.9c2.7,3.6,6.8,5.5,11,5.5c2.9,0,5.9-0.9,8.4-2.9C77.2,21.1,78.3,12.2,73.7,6z"/>
		</g>
	</g>
	<g id="group1428-249_1_" transform="translate(4.95554,-4.39536)">
		<g id="group1429-250_1_" transform="translate(0.341805,-0.176482)">
			<g id="group1430-251_1_" transform="translate(0.437248,3.41061E-13)">
				<g id="shape1431-252_1_">
					<path class="st0" d="M50.8,21.8c-0.8-0.8-1.4-1.6-2-2.4c-1.2,2.4-1.6,4.9-1.7,6.9c0.1,0.2,0.1,0.3,0.2,0.4c0.6,0.8,1.3,1.5,2,2
						C49.3,27.2,49.4,24.5,50.8,21.8z"/>
				</g>
			</g>
			<g id="shape1432-254_1_" transform="translate(3.29213,-8.97695)">
				<path class="st0" d="M52.1,21.3c-1.1,0.8-2.2,1.8-3.3,3c-0.6,0.7-1.2,1.4-1.6,2.1c0.5,0.8,1.1,1.6,1.9,2.5
					c0.6-0.9,1.3-1.7,2.2-2.6c1.1-1.1,2.2-1.9,3.1-2.6C53.6,22.9,52.8,22.1,52.1,21.3z"/>
			</g>
			<g id="group1433-256_1_" transform="translate(9.93516,-15.1958)">
				<g id="shape1434-257_1_">
					<path class="st0" d="M56.9,26.7c-0.5-0.7-1.1-1.3-1.7-1.8c-1.9-0.3-4.7-0.3-8,1.5c0.8,0.8,1.5,1.6,2.2,2.4
						C53.8,26.4,56.9,26.7,56.9,26.7z"/>
				</g>
			</g>
			<g id="group1435-259_1_" transform="translate(1.10162E-13,-9.38012)">
				<g id="shape1436-260_1_">
					<path class="st0" d="M49.2,28.8c0.3-0.7,0.7-1.4,1.2-2.1c-1.9-3.1-1.8-5.6-1.6-6.8c-0.5,0.5-0.9,1-1.3,1.6
						C47.2,23.1,47.1,25.7,49.2,28.8z"/>
				</g>
			</g>
			<g id="group1437-262_1_" transform="translate(4.05148,-0.740211)">
				<g id="shape1438-263_1_">
					<path class="st0" d="M50.6,22.7c-0.9-0.7-1.6-1.4-2.3-2.1c-0.5,0.7-0.8,1.3-1.1,1.9c0.6,0.6,1.3,1.3,2.1,1.9
						c4.9,4,9.8,4.4,12.6,4.4c0.2,0,1-1.2,1.5-1.9C62.1,27.1,56.8,27.8,50.6,22.7z"/>
				</g>
			</g>
			<g id="group1439-265_1_" transform="translate(2.10339,-7.03041)">
				<g id="shape1440-266_1_">
					<path class="st0" d="M47.1,26.4c0.5,0.8,1.2,1.5,2,2.4c0.3-0.6,0.7-1.3,1.1-2c-0.8-0.8-1.4-1.7-1.9-2.5
						C47.9,25.1,47.5,25.8,47.1,26.4z"/>
				</g>
			</g>
			<g id="group1441-268_1_" transform="translate(10.5195,-5.3233)">
				<g id="shape1442-269_1_">
					<path class="st0" d="M47.1,20c4.5,4.3,9.8,7.9,11.1,8.8c0.1-0.4,0.2-0.7,0.3-1c-1.5-1.1-5.3-4.2-9.8-8.8
						C48.3,19.2,47.7,19.6,47.1,20z"/>
				</g>
			</g>
			<g id="group1443-271_1_" transform="translate(4.98729,-16.4714)">
				<g id="shape1444-272_1_">
					<path class="st0" d="M52.1,27.7c-1.1-1.2-2.2-2.5-3.4-3.8c-0.5,0.2-1.1,0.4-1.6,0.7c0.8,1.4,2,2.8,3.2,4.2
						C51,28.4,51.5,28,52.1,27.7z"/>
				</g>
			</g>
			<g id="shape1445-274_1_" transform="translate(8.13763,-14.0503)">
				<path class="st0" d="M49,25.2c-0.6,0.3-1.3,0.8-1.9,1.2c0.7,0.8,1.5,1.6,2.3,2.4c0.6-0.4,1.3-0.9,1.9-1.2
					C50.5,26.9,49.8,26.1,49,25.2z"/>
			</g>
			<g id="shape1446-276_1_" transform="translate(8.1369,-14.0039)">
				<path class="st0" d="M48.8,25.1c-0.6,0.3-1.1,0.7-1.7,1.1c0.7,0.8,1.7,1.8,2.5,2.6c0.6-0.4,1-0.8,1.6-1.1
					C50.5,27,49.6,25.9,48.8,25.1z"/>
			</g>
		</g>
		<g id="group1447-278_1_" transform="translate(14.8617,-6.23662)">
			<g id="shape1448-279_1_">
				<path class="st0" d="M48.5,23.7c-1.1,0.9-1.3,2.5-0.5,3.7c0.9,1.2,2.5,1.4,3.6,0.5c1.1-0.9,1.3-2.5,0.5-3.7
					C51.2,23,49.6,22.8,48.5,23.7z"/>
			</g>
		</g>
		<g id="group1449-281_1_" transform="translate(9.65099,-1.7053E-13)">
			<g id="shape1450-282_1_">
				<path class="st0" d="M48.4,24.1c-1,0.8-1.2,2.4-0.5,3.4c0.8,1.1,2.3,1.3,3.4,0.4c1-0.8,1.2-2.4,0.4-3.4S49.4,23.3,48.4,24.1z"/>
			</g>
		</g>
		<g id="group1451-284_1_" transform="translate(0,-5.36433)">
			<g id="shape1452-285_1_">
				<path class="st0" d="M49,21.6c-1.6,1.3-1.9,3.6-0.7,5.2c1.2,1.6,3.5,2,5.1,0.7s1.9-3.6,0.7-5.2C52.9,20.7,50.6,20.4,49,21.6z"/>
			</g>
		</g>
	</g>
	<g id="shape1425-287_1_">
		<text transform="matrix(1 0 0 1 37.2275 41.793)" class="st9 st10">Page unique</text>
		<text transform="matrix(1 0 0 1 60.03 53.793)" class="st9 st10"> </text>
		<text transform="matrix(1 0 0 1 40.4206 53.793)" class="st9 st10">Application</text>
		<v:paragraph  v:horizAlign="1"></v:paragraph>
		<v:tabList></v:tabList>
		<v:lf></v:lf>
	</g>
	<g id="group1453-290_1_" transform="translate(0.375,-460.886)">
		<g id="group1454-291_1_">
			<g id="group1455-292_1_">
				<g id="group1456-293_1_" transform="translate(3.8518,-6.4617)">
					<g id="shape1457-294_1_">
						<path class="st0" d="M3.6,474.1c-2.3,0.6-3.6,3.1-3,5.7c0.7,2.6,3,4.2,5.3,3.7c2.3-0.6,3.6-3.1,3-5.7
							C8.3,475.1,5.9,473.5,3.6,474.1z"/>
					</g>
				</g>
				<g id="group1458-296_1_">
					<g id="shape1459-297_1_">
						<path class="st0" d="M12.4,477.7c-0.4,0-0.9,0.8-1.5,1.1c-0.7,0.3-1.3,0.9-3.2,0c-1.9-0.9-2.1-1.7-3.6-1.7
							c-1.5,0-4.1,2.8-4.1,6.9h15.6c0,0-0.2-2.8-1.1-4.2C13.4,477.7,12.9,477.7,12.4,477.7z"/>
					</g>
				</g>
			</g>
		</g>
		<g id="group1460-299_1_" transform="translate(9.0485,-0.85947)">
			<g id="shape1461-300_1_">
				<path class="st3" d="M4.8,473.6H0.7c-0.3,0-0.6,0.3-0.6,0.7v2.9c0,0.3,0.3,0.7,0.8,0.7h0.8v5.1c0,0.6,0.4,1.1,1,1.1s1-0.4,1-1
					c0.1,0,0.2,0,0.2,0s0-0.5,0-0.7c0-0.2,0.3-0.3,0.3-0.3v-0.3c-0.3-0.1-0.5-0.3-0.5-0.4v-0.3c0.1-0.1,0.2-0.2,0.2-0.2
					c0.1-0.1,0.3-0.5,0.3-0.5s-0.3-0.4-0.3-0.6c-0.1-0.1-0.1-0.3-0.2-0.4V479c0.1-0.5,0.8-1.1,0.8-1.1h0.5c0.3,0,0.7-0.3,0.7-0.7v-3
					C5.4,473.9,5.2,473.6,4.8,473.6z M2.4,483.1c0,0.2,0,0.3-0.2,0.3c-0.2,0-0.2-0.2-0.2-0.3v-4.8c0-0.2,0.1-0.3,0.2-0.3
					c0.2,0,0.2,0.2,0.2,0.3V483.1z M2.7,475.4c-0.3,0-0.7-0.3-0.7-0.7c0-0.3,0.3-0.7,0.7-0.7c0.3,0,0.6,0.3,0.6,0.7
					C3.4,475,3.1,475.4,2.7,475.4z"/>
			</g>
			<g id="shape1462-302_1_" transform="translate(1.92482,-0.570755)">
				<path class="st4" d="M0.2,484c-0.1,0-0.2-0.1-0.2-0.2v-5c0-0.1,0.1-0.2,0.2-0.2s0.2,0.1,0.2,0.2v5.1C0.4,484,0.3,484,0.2,484z"
					/>
			</g>
			<g id="shape1463-304_1_" transform="translate(2.05993,-8.66317)">
				<ellipse class="st4" cx="0.7" cy="483.3" rx="0.7" ry="0.7"/>
			</g>
		</g>
	</g>
	<g id="group1464-306_1_" transform="translate(47.1467,-385.414)">
		<g id="group1465-307_1_">
			<g id="shape1466-308_1_">
				<path class="st0" d="M22.9,479.6c-2.2,1.7-4.8,2.5-7.3,2.5c-3.6,0-7.2-1.7-9.6-4.8c-4-5.4-3-13.1,2.2-17.3
					c2.2-1.7,4.8-2.5,7.3-2.5c3.6,0,7.2,1.7,9.5,4.8C29.2,467.7,28.2,475.5,22.9,479.6z M26.5,461.2c-2.7-3.6-6.8-5.5-11-5.5
					c-2.9,0-5.9,0.9-8.4,2.9c-6,4.8-7.2,13.7-2.6,19.9c2.7,3.6,6.8,5.5,11,5.5c2.9,0,5.9-0.9,8.4-2.9
					C30,476.3,31.2,467.4,26.5,461.2z"/>
			</g>
		</g>
		<g id="group1467-310_1_" transform="translate(4.95554,-4.39536)">
			<g id="group1468-311_1_" transform="translate(0.341805,-0.176482)">
				<g id="group1469-312_1_" transform="translate(0.437248,3.41061E-13)">
					<g id="shape1470-313_1_">
						<path class="st0" d="M3.6,477c-0.8-0.8-1.4-1.6-2-2.4c-1.1,2.4-1.6,4.9-1.7,6.9c0.1,0.2,0.1,0.3,0.2,0.4c0.6,0.8,1.3,1.5,2,2
							C2.1,482.4,2.3,479.7,3.6,477z"/>
					</g>
				</g>
				<g id="shape1471-315_1_" transform="translate(3.29213,-8.97695)">
					<path class="st0" d="M4.9,476.5c-1.1,0.8-2.2,1.8-3.3,3c-0.6,0.7-1.1,1.4-1.6,2.1c0.5,0.8,1.1,1.6,1.9,2.5
						c0.6-0.9,1.3-1.7,2.2-2.6c1.1-1.1,2.2-1.9,3.1-2.6C6.4,478.1,5.7,477.3,4.9,476.5z"/>
				</g>
				<g id="group1472-317_1_" transform="translate(9.93516,-15.1958)">
					<g id="shape1473-318_1_">
						<path class="st0" d="M9.8,481.9c-0.5-0.7-1.1-1.3-1.7-1.8c-1.9-0.3-4.7-0.3-8,1.5c0.8,0.8,1.5,1.6,2.2,2.4
							C6.6,481.6,9.8,481.9,9.8,481.9z"/>
					</g>
				</g>
				<g id="group1474-320_1_" transform="translate(1.10162E-13,-9.38012)">
					<g id="shape1475-321_1_">
						<path class="st0" d="M2.1,484c0.3-0.7,0.7-1.4,1.2-2.1c-1.9-3.1-1.8-5.6-1.6-6.8c-0.5,0.5-0.9,1-1.3,1.6
							C0,478.4,0,480.9,2.1,484z"/>
					</g>
				</g>
				<g id="group1476-323_1_" transform="translate(4.05148,-0.740211)">
					<g id="shape1477-324_1_">
						<path class="st0" d="M3.4,477.9c-0.9-0.7-1.6-1.4-2.3-2.1c-0.5,0.7-0.8,1.3-1.1,1.9c0.6,0.6,1.3,1.3,2.1,1.9
							c4.9,4,9.8,4.4,12.6,4.4c0.2,0,1-1.2,1.5-1.9C15,482.3,9.7,483,3.4,477.9z"/>
					</g>
				</g>
				<g id="group1478-326_1_" transform="translate(2.10339,-7.03041)">
					<g id="shape1479-327_1_">
						<path class="st0" d="M0,481.6c0.5,0.8,1.1,1.5,2,2.4c0.3-0.6,0.7-1.3,1.1-2c-0.8-0.8-1.4-1.7-1.9-2.5
							C0.7,480.3,0.3,481,0,481.6z"/>
					</g>
				</g>
				<g id="group1480-329_1_" transform="translate(10.5195,-5.3233)">
					<g id="shape1481-330_1_">
						<path class="st0" d="M0,475.2c4.5,4.3,9.8,7.9,11.1,8.8c0.1-0.4,0.2-0.7,0.3-1c-1.4-1.1-5.3-4.2-9.8-8.8
							C1.1,474.4,0.6,474.8,0,475.2z"/>
					</g>
				</g>
				<g id="group1482-332_1_" transform="translate(4.98729,-16.4714)">
					<g id="shape1483-333_1_">
						<path class="st0" d="M4.9,482.9c-1.1-1.2-2.2-2.5-3.4-3.8c-0.6,0.2-1.1,0.4-1.6,0.7c0.8,1.4,2,2.8,3.2,4.2
							C3.8,483.6,4.4,483.2,4.9,482.9z"/>
					</g>
				</g>
				<g id="shape1484-335_1_" transform="translate(8.13763,-14.0503)">
					<path class="st0" d="M1.9,480.5c-0.6,0.3-1.3,0.8-1.9,1.2c0.7,0.8,1.5,1.6,2.3,2.4c0.6-0.4,1.3-0.9,1.9-1.2
						C3.4,482.1,2.6,481.3,1.9,480.5z"/>
				</g>
				<g id="shape1485-337_1_" transform="translate(8.1369,-14.0039)">
					<path class="st0" d="M1.7,480.3c-0.6,0.3-1.1,0.7-1.7,1.1c0.7,0.8,1.7,1.8,2.5,2.6c0.6-0.4,1-0.8,1.6-1.1
						C3.4,482.2,2.4,481.1,1.7,480.3z"/>
				</g>
			</g>
			<g id="group1486-339_1_" transform="translate(14.8617,-6.23662)">
				<g id="shape1487-340_1_">
					<path class="st0" d="M1.3,478.9c-1.1,0.9-1.3,2.5-0.5,3.7c0.9,1.2,2.5,1.4,3.6,0.5c1.1-0.9,1.3-2.5,0.5-3.7
						C4.1,478.3,2.5,478,1.3,478.9z"/>
				</g>
			</g>
			<g id="group1488-342_1_" transform="translate(9.65099,-1.7053E-13)">
				<g id="shape1489-343_1_">
					<path class="st0" d="M1.2,479.3c-1,0.8-1.2,2.4-0.4,3.4c0.8,1.1,2.3,1.3,3.4,0.4c1-0.8,1.2-2.4,0.4-3.4S2.3,478.5,1.2,479.3z"
						/>
				</g>
			</g>
			<g id="group1490-345_1_" transform="translate(0,-5.36433)">
				<g id="shape1491-346_1_">
					<path class="st0" d="M1.9,476.8c-1.6,1.3-1.9,3.6-0.7,5.2c1.2,1.6,3.5,2,5.1,0.7s1.9-3.6,0.7-5.2
						C5.8,475.9,3.5,475.6,1.9,476.8z"/>
				</g>
			</g>
		</g>
	</g>
	<g id="group1492-350_1_" transform="translate(2.85532,-178.839)">
		<g id="group1493-351_1_">
			<g id="group1494-352_1_">
				<g id="group1495-353_1_" transform="translate(3.8518,-6.4617)">
					<g id="shape1496-354_1_">
						<path class="st0" d="M3.6,474.1c-2.3,0.6-3.6,3.1-3,5.7c0.7,2.6,3,4.2,5.3,3.7c2.3-0.6,3.6-3.1,3-5.7
							C8.3,475.1,5.9,473.5,3.6,474.1z"/>
					</g>
				</g>
				<g id="group1497-356_1_">
					<g id="shape1498-357_1_">
						<path class="st0" d="M12.4,477.7c-0.4,0-0.9,0.8-1.5,1.1c-0.7,0.3-1.3,0.9-3.2,0c-1.9-0.9-2.1-1.7-3.6-1.7
							c-1.5,0-4.1,2.8-4.1,6.9h15.6c0,0-0.2-2.8-1.1-4.2C13.4,477.7,12.9,477.7,12.4,477.7z"/>
					</g>
				</g>
			</g>
		</g>
		<g id="group1499-359_1_" transform="translate(9.0485,-0.85947)">
			<g id="shape1500-360_1_">
				<path class="st3" d="M4.8,473.6H0.7c-0.3,0-0.6,0.3-0.6,0.7v2.9c0,0.3,0.3,0.7,0.8,0.7h0.8v5.1c0,0.6,0.4,1.1,1,1.1s1-0.4,1-1
					c0.1,0,0.2,0,0.2,0s0-0.5,0-0.7c0-0.2,0.3-0.3,0.3-0.3v-0.3c-0.3-0.1-0.5-0.3-0.5-0.4v-0.3c0.1-0.1,0.2-0.2,0.2-0.2
					c0.1-0.1,0.3-0.5,0.3-0.5s-0.3-0.4-0.3-0.6c-0.1-0.1-0.1-0.3-0.2-0.4V479c0.1-0.5,0.8-1.1,0.8-1.1h0.5c0.3,0,0.7-0.3,0.7-0.7v-3
					C5.4,473.9,5.2,473.6,4.8,473.6z M2.4,483.1c0,0.2,0,0.3-0.2,0.3c-0.2,0-0.2-0.2-0.2-0.3v-4.8c0-0.2,0.1-0.3,0.2-0.3
					c0.2,0,0.2,0.2,0.2,0.3V483.1z M2.7,475.4c-0.3,0-0.7-0.3-0.7-0.7c0-0.3,0.3-0.7,0.7-0.7c0.3,0,0.6,0.3,0.6,0.7
					C3.4,475,3.1,475.4,2.7,475.4z"/>
			</g>
			<g id="shape1501-362_1_" transform="translate(1.92482,-0.570755)">
				<path class="st4" d="M0.2,484c-0.1,0-0.2-0.1-0.2-0.2v-5c0-0.1,0.1-0.2,0.2-0.2s0.2,0.1,0.2,0.2v5.1C0.4,484,0.3,484,0.2,484z"
					/>
			</g>
			<g id="shape1502-364_1_" transform="translate(2.05993,-8.66317)">
				<ellipse class="st4" cx="0.7" cy="483.3" rx="0.7" ry="0.7"/>
			</g>
		</g>
	</g>
	<g id="shape1683-366_1_" transform="translate(249.331,-190.886)">
		<path class="st5" d="M15.1,454.1l-15.9,11.4L5.3,484H25l6.1-18.5L15.1,454.1z"/>
	</g>
	<g id="group1684-368_1_" transform="translate(256.664,-197.335)">
		<g id="group1685-369_1_">
			<g id="group1686-370_1_">
				<g id="group1687-371_1_" transform="translate(3.8518,-6.4617)">
					<g id="shape1688-372_1_">
						<path class="st0" d="M3.6,474.1c-2.3,0.6-3.6,3.1-3,5.7c0.7,2.6,3,4.2,5.3,3.7c2.3-0.6,3.6-3.1,3-5.7
							C8.3,475.1,5.9,473.5,3.6,474.1z"/>
					</g>
				</g>
				<g id="group1689-374_1_">
					<g id="shape1690-375_1_">
						<path class="st0" d="M12.4,477.7c-0.4,0-0.9,0.8-1.5,1.1c-0.7,0.3-1.3,0.9-3.2,0c-1.9-0.9-2.1-1.7-3.6-1.7
							c-1.5,0-4.1,2.8-4.1,6.9h15.6c0,0-0.2-2.8-1.1-4.2C13.4,477.7,12.9,477.7,12.4,477.7z"/>
					</g>
				</g>
			</g>
		</g>
		<g id="group1691-377_1_" transform="translate(9.0485,-0.85947)">
			<g id="shape1692-378_1_">
				<path class="st3" d="M4.8,473.6H0.7c-0.3,0-0.6,0.3-0.6,0.7v2.9c0,0.3,0.3,0.7,0.8,0.7h0.8v5.1c0,0.6,0.4,1.1,1,1.1s1-0.4,1-1
					c0.1,0,0.2,0,0.2,0s0-0.5,0-0.7c0-0.2,0.3-0.3,0.3-0.3v-0.3c-0.3-0.1-0.5-0.3-0.5-0.4v-0.3c0.1-0.1,0.2-0.2,0.2-0.2
					c0.1-0.1,0.3-0.5,0.3-0.5s-0.3-0.4-0.3-0.6c-0.1-0.1-0.1-0.3-0.2-0.4V479c0.1-0.5,0.8-1.1,0.8-1.1h0.5c0.3,0,0.7-0.3,0.7-0.7v-3
					C5.4,473.9,5.2,473.6,4.8,473.6z M2.4,483.1c0,0.2,0,0.3-0.2,0.3c-0.2,0-0.2-0.2-0.2-0.3v-4.8c0-0.2,0.1-0.3,0.2-0.3
					c0.2,0,0.2,0.2,0.2,0.3V483.1z M2.7,475.4c-0.3,0-0.7-0.3-0.7-0.7c0-0.3,0.3-0.7,0.7-0.7c0.3,0,0.6,0.3,0.6,0.7
					C3.4,475,3.1,475.4,2.7,475.4z"/>
			</g>
			<g id="shape1693-380_1_" transform="translate(1.92482,-0.570755)">
				<path class="st4" d="M0.2,484c-0.1,0-0.2-0.1-0.2-0.2v-5c0-0.1,0.1-0.2,0.2-0.2s0.2,0.1,0.2,0.2v5.1C0.4,484,0.3,484,0.2,484z"
					/>
			</g>
			<g id="shape1694-382_1_" transform="translate(2.05993,-8.66317)">
				<ellipse class="st4" cx="0.7" cy="483.3" rx="0.7" ry="0.7"/>
			</g>
		</g>
	</g>
	<g>
		<path class="st6" d="M276.8,296.7c0-2-0.8-3.1-1.4-4.3c2.8,1.5,5.5,2.9,8.2,4.3c-2.7,1.4-5.4,2.8-8.2,4.3
			C275.9,299.6,276.7,298.5,276.8,296.7z"/>
	</g>
	<g>
		<path class="st6" d="M384.5,296.9c0-2-0.8-3.1-1.4-4.3c2.8,1.5,5.5,2.9,8.2,4.3c-2.7,1.4-5.4,2.8-8.2,4.3
			C383.7,299.7,384.5,298.7,384.5,296.9z"/>
	</g>
</g>
</svg>
