<svg id="svg1546" xmlns="http://www.w3.org/2000/svg" viewBox="0 0 204.71 69.22">
  <defs>
    <style>
      .cls-1, .cls-8 {
        fill: none;
      }

      .cls-2 {
        isolation: isolate;
      }

      .cls-3 {
        fill: #00b0f0;
      }

      .cls-4, .cls-5, .cls-9 {
        fill: #008bfd;
      }

      .cls-5 {
        stroke: gray;
        stroke-linejoin: round;
        stroke-width: 0.75px;
      }

      .cls-5, .cls-8 {
        stroke-linecap: round;
      }

      .cls-6 {
        fill: #fff;
      }

      .cls-7 {
        fill: #505050;
      }

      .cls-8 {
        stroke: #505050;
        stroke-miterlimit: 10;
        stroke-width: 2px;
      }

      .cls-9 {
        fill-rule: evenodd;
      }
    </style>
  </defs>
  <title>OJ104546510</title>
  <g id="shape1069-1">
    <rect id="rect1363" class="cls-1" x="76.35" y="0.37" width="80.48" height="20"/>
    <g id="text1365" class="cls-2">
      <path class="cls-3" d="M94.16,7.12H91.43V9.54H94v.74H91.43v3.1h-.82v-7h3.55Z"/>
      <path class="cls-3" d="M96.18,13.38h-.8V6h.8Z"/>
      <path class="cls-3" d="M101.85,13.38h-.8v-.79h0a1.67,1.67,0,0,1-1.55.91c-1.19,0-1.78-.71-1.78-2.13v-3h.79v2.86c0,1.06.41,1.58,1.21,1.58a1.23,1.23,0,0,0,1-.43,1.66,1.66,0,0,0,.38-1.13V8.38h.8Z"/>
      <path class="cls-3" d="M107.12,8.38l-1.68,2.53,1.65,2.47h-.94l-1-1.62-.22-.38h0s-.09.15-.23.38l-1,1.62h-.92l1.7-2.45-1.63-2.55h.94l1,1.71.21.39h0l1.25-2.1Z"/>
      <path class="cls-3" d="M111.2,7.11a.53.53,0,0,1-.52-.52.51.51,0,0,1,.16-.37.49.49,0,0,1,.36-.15.54.54,0,0,1,.38.15.53.53,0,0,1,0,.74A.54.54,0,0,1,111.2,7.11Zm.39,6.27h-.8v-5h.8Z"/>
      <path class="cls-3" d="M120.31,13.38h-.8V10.51a2.14,2.14,0,0,0-.25-1.2,1,1,0,0,0-.87-.37,1.06,1.06,0,0,0-.87.46,1.82,1.82,0,0,0-.36,1.13v2.85h-.8v-3c0-1-.38-1.47-1.13-1.47a1,1,0,0,0-.87.44,1.81,1.81,0,0,0-.35,1.15v2.85h-.8v-5h.8v.79h0a1.71,1.71,0,0,1,1.56-.91,1.45,1.45,0,0,1,1.41,1,1.79,1.79,0,0,1,1.66-1q1.65,0,1.65,2Z"/>
      <path class="cls-3" d="M122.65,12.66h0v3h-.8V8.38h.8v.88h0a1.88,1.88,0,0,1,1.73-1,1.84,1.84,0,0,1,1.5.67,2.74,2.74,0,0,1,.55,1.8,3.13,3.13,0,0,1-.61,2,2.06,2.06,0,0,1-1.67.76A1.67,1.67,0,0,1,122.65,12.66Zm0-2v.7a1.48,1.48,0,0,0,.4,1.05,1.44,1.44,0,0,0,2.16-.12,2.55,2.55,0,0,0,.42-1.55,2,2,0,0,0-.39-1.31,1.26,1.26,0,0,0-1-.47,1.44,1.44,0,0,0-1.13.48A1.81,1.81,0,0,0,122.63,10.64Z"/>
      <path class="cls-3" d="M128.51,13.38h-.8V6h.8Z"/>
      <path class="cls-3" d="M130.54,7.11a.51.51,0,0,1-.37-.15.48.48,0,0,1-.15-.37.5.5,0,0,1,.15-.37.53.53,0,0,1,.74,0,.51.51,0,0,1,0,.74A.51.51,0,0,1,130.54,7.11Zm.39,6.27h-.8v-5h.8Z"/>
      <path class="cls-3" d="M136,13.15a2.63,2.63,0,0,1-1.37.35,2.26,2.26,0,0,1-1.72-.7,2.5,2.5,0,0,1-.66-1.8,2.74,2.74,0,0,1,.71-2,2.47,2.47,0,0,1,1.89-.75,2.54,2.54,0,0,1,1.16.25v.82a2,2,0,0,0-1.19-.39,1.63,1.63,0,0,0-1.26.54,2.09,2.09,0,0,0-.49,1.45,2,2,0,0,0,.46,1.38,1.59,1.59,0,0,0,1.24.51,2,2,0,0,0,1.23-.43Z"/>
      <path class="cls-3" d="M137.58,7.11a.51.51,0,0,1-.37-.15.48.48,0,0,1-.15-.37.5.5,0,0,1,.15-.37.51.51,0,0,1,.37-.15.5.5,0,0,1,.37.15A.51.51,0,0,1,138,7,.5.5,0,0,1,137.58,7.11Zm.39,6.27h-.8v-5h.8Z"/>
      <path class="cls-3" d="M141.91,13.33a1.61,1.61,0,0,1-.75.16c-.87,0-1.31-.49-1.31-1.47v-3H139V8.38h.86V7.16l.8-.26V8.38h1.26v.68h-1.26v2.82a1.21,1.21,0,0,0,.17.72.7.7,0,0,0,.57.21.85.85,0,0,0,.52-.16Z"/>
      <path class="cls-3" d="M147,11.08h-3.53a1.83,1.83,0,0,0,.45,1.29,1.54,1.54,0,0,0,1.18.45,2.45,2.45,0,0,0,1.55-.55V13a2.89,2.89,0,0,1-1.74.48,2.11,2.11,0,0,1-1.67-.69,2.79,2.79,0,0,1-.6-1.91A2.73,2.73,0,0,1,143.3,9a2.12,2.12,0,0,1,1.64-.74,1.86,1.86,0,0,1,1.52.64,2.63,2.63,0,0,1,.54,1.76Zm-.82-.68a1.68,1.68,0,0,0-.34-1.08,1.12,1.12,0,0,0-.91-.38,1.28,1.28,0,0,0-1,.4,1.78,1.78,0,0,0-.49,1.06Z"/>
    </g>
  </g>
  <g id="Singl..." class="cls-2">
    <path class="cls-4" d="M39.21,50.05H38.3l-.74-2h-3l-.7,2H33l2.68-7h.85Zm-1.92-2.7-1.1-3a3,3,0,0,1-.11-.47h0a2.74,2.74,0,0,1-.11.47l-1.09,3Z"/>
    <path class="cls-4" d="M41,49.33h0v3h-.8v-7.3h.8v.88h0a1.88,1.88,0,0,1,1.73-1,1.86,1.86,0,0,1,1.51.67,2.8,2.8,0,0,1,.54,1.8,3.07,3.07,0,0,1-.61,2,2,2,0,0,1-1.67.76A1.67,1.67,0,0,1,41,49.33Zm0-2V48a1.48,1.48,0,0,0,.4,1.05,1.45,1.45,0,0,0,2.17-.12,2.62,2.62,0,0,0,.41-1.55,2,2,0,0,0-.39-1.31,1.24,1.24,0,0,0-1-.47,1.44,1.44,0,0,0-1.13.48A1.81,1.81,0,0,0,40.93,47.31Z"/>
    <path class="cls-4" d="M46.83,49.33h0v3H46v-7.3h.8v.88h0a2,2,0,0,1,3.24-.33,2.8,2.8,0,0,1,.54,1.8,3.13,3.13,0,0,1-.61,2,2.06,2.06,0,0,1-1.67.76A1.67,1.67,0,0,1,46.83,49.33Zm0-2V48a1.48,1.48,0,0,0,.4,1.05,1.33,1.33,0,0,0,1,.43,1.36,1.36,0,0,0,1.15-.55,2.62,2.62,0,0,0,.41-1.55,2,2,0,0,0-.39-1.31,1.26,1.26,0,0,0-1-.47,1.44,1.44,0,0,0-1.13.48A1.81,1.81,0,0,0,46.81,47.31Z"/>
    <path class="cls-4" d="M52.69,50.05h-.8v-7.4h.8Z"/>
    <path class="cls-4" d="M54.72,43.78a.51.51,0,0,1-.37-.15.48.48,0,0,1-.15-.37.5.5,0,0,1,.15-.37.51.51,0,0,1,.37-.15.5.5,0,0,1,.37.15.51.51,0,0,1,0,.74A.5.5,0,0,1,54.72,43.78Zm.39,6.27h-.8v-5h.8Z"/>
    <path class="cls-4" d="M60.14,49.82a2.63,2.63,0,0,1-1.37.35,2.26,2.26,0,0,1-1.72-.7,2.5,2.5,0,0,1-.66-1.8,2.78,2.78,0,0,1,.71-2A2.47,2.47,0,0,1,59,44.93a2.54,2.54,0,0,1,1.16.25V46A2,2,0,0,0,59,45.61a1.63,1.63,0,0,0-1.26.54,2.09,2.09,0,0,0-.49,1.45A2,2,0,0,0,57.67,49a1.59,1.59,0,0,0,1.24.51,2,2,0,0,0,1.23-.43Z"/>
    <path class="cls-4" d="M64.93,50.05h-.8v-.78h0a1.68,1.68,0,0,1-1.54.9,1.66,1.66,0,0,1-1.17-.4A1.36,1.36,0,0,1,61,48.72c0-.93.55-1.48,1.65-1.63l1.5-.21c0-.85-.34-1.27-1-1.27a2.45,2.45,0,0,0-1.63.61V45.4a3.12,3.12,0,0,1,1.7-.47c1.17,0,1.76.62,1.76,1.87Zm-.8-2.53-1.21.17a2,2,0,0,0-.84.27.79.79,0,0,0-.28.7.76.76,0,0,0,.26.6,1,1,0,0,0,.7.23,1.29,1.29,0,0,0,1-.42,1.47,1.47,0,0,0,.39-1Z"/>
    <path class="cls-4" d="M68.76,50a1.61,1.61,0,0,1-.75.16c-.88,0-1.31-.49-1.31-1.47v-3h-.86v-.68h.86V43.83l.8-.26v1.48h1.26v.68H67.5v2.82a1.14,1.14,0,0,0,.17.72.68.68,0,0,0,.56.21.86.86,0,0,0,.53-.16Z"/>
    <path class="cls-4" d="M70.24,43.78a.5.5,0,0,1-.37-.15.48.48,0,0,1-.15-.37.51.51,0,0,1,.52-.52.51.51,0,0,1,.37.15.53.53,0,0,1,0,.74A.51.51,0,0,1,70.24,43.78Zm.39,6.27h-.8v-5h.8Z"/>
    <path class="cls-4" d="M74.34,50.17a2.34,2.34,0,0,1-1.77-.7,2.61,2.61,0,0,1-.66-1.86,2.74,2.74,0,0,1,.68-2,2.49,2.49,0,0,1,1.87-.71,2.24,2.24,0,0,1,1.74.69,2.73,2.73,0,0,1,.63,1.91,2.7,2.7,0,0,1-.68,1.92A2.36,2.36,0,0,1,74.34,50.17Zm.06-4.56a1.51,1.51,0,0,0-1.22.52,2.15,2.15,0,0,0-.45,1.45,2,2,0,0,0,.45,1.4,1.55,1.55,0,0,0,1.22.51,1.48,1.48,0,0,0,1.19-.5A2.18,2.18,0,0,0,76,47.56a2.22,2.22,0,0,0-.42-1.45A1.45,1.45,0,0,0,74.4,45.61Z"/>
    <path class="cls-4" d="M82.26,50.05h-.8V47.2q0-1.59-1.17-1.59a1.25,1.25,0,0,0-1,.45,1.68,1.68,0,0,0-.39,1.14v2.85h-.8v-5h.8v.83h0a1.81,1.81,0,0,1,1.64-1,1.53,1.53,0,0,1,1.25.53A2.36,2.36,0,0,1,82.26,47Z"/>
    <path class="cls-4" d="M41.78,62.05H41V59.18a2.14,2.14,0,0,0-.25-1.2,1,1,0,0,0-.86-.37,1.07,1.07,0,0,0-.88.46,1.82,1.82,0,0,0-.36,1.13v2.85h-.8v-3c0-1-.37-1.47-1.13-1.47a1,1,0,0,0-.87.44,1.81,1.81,0,0,0-.34,1.15v2.85h-.81v-5h.81v.79h0a1.71,1.71,0,0,1,1.56-.91,1.44,1.44,0,0,1,.89.29,1.37,1.37,0,0,1,.52.75,1.79,1.79,0,0,1,1.66-1q1.65,0,1.65,2Z"/>
    <path class="cls-4" d="M45.39,62.17a2.34,2.34,0,0,1-1.77-.7A2.61,2.61,0,0,1,43,59.61a2.74,2.74,0,0,1,.68-2,2.49,2.49,0,0,1,1.86-.71,2.25,2.25,0,0,1,1.75.69,2.73,2.73,0,0,1,.63,1.91,2.7,2.7,0,0,1-.68,1.92A2.36,2.36,0,0,1,45.39,62.17Zm.06-4.56a1.51,1.51,0,0,0-1.22.52,2.15,2.15,0,0,0-.45,1.45,2,2,0,0,0,.45,1.4,1.55,1.55,0,0,0,1.22.51,1.48,1.48,0,0,0,1.19-.5,2.18,2.18,0,0,0,.42-1.43,2.22,2.22,0,0,0-.42-1.45A1.45,1.45,0,0,0,45.45,57.61Z"/>
    <path class="cls-4" d="M53.31,62.05h-.8V59.2q0-1.59-1.17-1.59a1.25,1.25,0,0,0-1,.45A1.68,1.68,0,0,0,50,59.2v2.85h-.8v-5H50v.83h0a1.81,1.81,0,0,1,1.64-1,1.53,1.53,0,0,1,1.25.53A2.36,2.36,0,0,1,53.31,59Z"/>
    <path class="cls-4" d="M56.91,62.17a2.34,2.34,0,0,1-1.77-.7,2.62,2.62,0,0,1-.67-1.86,2.7,2.7,0,0,1,.69-2A2.49,2.49,0,0,1,57,56.93a2.25,2.25,0,0,1,1.75.69,2.73,2.73,0,0,1,.63,1.91,2.7,2.7,0,0,1-.68,1.92A2.36,2.36,0,0,1,56.91,62.17ZM57,57.61a1.52,1.52,0,0,0-1.22.52,2.2,2.2,0,0,0-.45,1.45,2.05,2.05,0,0,0,.46,1.4,1.54,1.54,0,0,0,1.21.51,1.49,1.49,0,0,0,1.2-.5,2.18,2.18,0,0,0,.42-1.43,2.22,2.22,0,0,0-.42-1.45A1.46,1.46,0,0,0,57,57.61Z"/>
    <path class="cls-4" d="M61.5,61.33h0v3h-.8v-7.3h.8v.88h0a1.88,1.88,0,0,1,1.72-1,1.85,1.85,0,0,1,1.51.67,2.8,2.8,0,0,1,.55,1.8,3.13,3.13,0,0,1-.61,2,2.06,2.06,0,0,1-1.67.76A1.67,1.67,0,0,1,61.5,61.33Zm0-2V60a1.48,1.48,0,0,0,.4,1.05A1.44,1.44,0,0,0,64,60.94a2.55,2.55,0,0,0,.42-1.55,2,2,0,0,0-.39-1.31,1.27,1.27,0,0,0-1-.47,1.42,1.42,0,0,0-1.12.48A1.81,1.81,0,0,0,61.48,59.31Z"/>
    <path class="cls-4" d="M70.13,62.05h-.8v-.78h0a1.81,1.81,0,0,1-2.7.5,1.34,1.34,0,0,1-.43-1.05c0-.93.55-1.48,1.65-1.63l1.5-.21c0-.85-.34-1.27-1-1.27a2.47,2.47,0,0,0-1.63.61V57.4a3.12,3.12,0,0,1,1.7-.47c1.18,0,1.76.62,1.76,1.87Zm-.8-2.53-1.2.17a2,2,0,0,0-.84.27.8.8,0,0,0-.29.7.74.74,0,0,0,.27.6,1,1,0,0,0,.69.23,1.29,1.29,0,0,0,1-.42,1.5,1.5,0,0,0,.38-1Z"/>
    <path class="cls-4" d="M75.91,61.65c0,1.83-.88,2.75-2.64,2.75a3.51,3.51,0,0,1-1.62-.35v-.8a3.38,3.38,0,0,0,1.61.47c1.23,0,1.85-.66,1.85-2v-.55h0a1.87,1.87,0,0,1-1.72,1,1.89,1.89,0,0,1-1.5-.67,2.65,2.65,0,0,1-.57-1.79,3.11,3.11,0,0,1,.61-2,2.06,2.06,0,0,1,1.68-.75,1.64,1.64,0,0,1,1.5.81h0v-.69h.8Zm-.8-1.86v-.74a1.41,1.41,0,0,0-.4-1,1.35,1.35,0,0,0-1-.42,1.41,1.41,0,0,0-1.16.53,2.45,2.45,0,0,0-.42,1.52,2.11,2.11,0,0,0,.4,1.33,1.29,1.29,0,0,0,1.07.5,1.4,1.4,0,0,0,1.1-.48A1.77,1.77,0,0,0,75.11,59.79Z"/>
    <path class="cls-4" d="M81.55,59.75H78A1.83,1.83,0,0,0,78.47,61a1.56,1.56,0,0,0,1.18.45,2.45,2.45,0,0,0,1.55-.55v.75a2.89,2.89,0,0,1-1.74.48,2.11,2.11,0,0,1-1.67-.69,2.79,2.79,0,0,1-.6-1.91,2.73,2.73,0,0,1,.66-1.9,2.12,2.12,0,0,1,1.64-.74,1.85,1.85,0,0,1,1.52.64,2.63,2.63,0,0,1,.54,1.76Zm-.82-.68A1.62,1.62,0,0,0,80.4,58a1.14,1.14,0,0,0-.92-.38,1.28,1.28,0,0,0-1,.4A1.78,1.78,0,0,0,78,59.07Z"/>
  </g>
  <path id="path1491" class="cls-4" d="M190.76,10.11h-20.5a1.1,1.1,0,0,0-1.09,1.11V28a1.09,1.09,0,0,0,1.09,1.1h5.28a3.29,3.29,0,0,0,3.21,2.27,3.37,3.37,0,0,0,0-6.74,3.29,3.29,0,0,0-3.21,2.27h-4.19v-12h18.31v12h-3.45a7.61,7.61,0,0,0-7.46-6.57,8.25,8.25,0,0,0-3.64.92l1,2a5.28,5.28,0,0,1,2.55-.68,5.46,5.46,0,0,1,0,10.92,5.28,5.28,0,0,1-2.55-.68l-1,2a7.51,7.51,0,0,0,3.64.92,7.61,7.61,0,0,0,7.46-6.57h4.55a1.09,1.09,0,0,0,1.09-1.1V11.22A1.14,1.14,0,0,0,190.76,10.11Z"/>
  <g id="text1493" class="cls-2">
    <path class="cls-4" d="M158.8,48.63h-.9l-.75-2h-3l-.7,2h-.92l2.69-7h.85Zm-1.91-2.7-1.1-3a1.92,1.92,0,0,1-.11-.46h0a2.6,2.6,0,0,1-.11.46l-1.09,3Z"/>
    <path class="cls-4" d="M160.55,47.91h0v3h-.8v-7.3h.8v.88h0a1.88,1.88,0,0,1,1.73-1,1.84,1.84,0,0,1,1.51.67,2.8,2.8,0,0,1,.54,1.8,3.13,3.13,0,0,1-.61,2,2.06,2.06,0,0,1-1.67.76A1.67,1.67,0,0,1,160.55,47.91Zm0-2v.7a1.48,1.48,0,0,0,.4,1,1.44,1.44,0,0,0,2.16-.12,2.55,2.55,0,0,0,.42-1.55,2,2,0,0,0-.39-1.31,1.26,1.26,0,0,0-1-.48,1.45,1.45,0,0,0-1.13.49A1.79,1.79,0,0,0,160.53,45.89Z"/>
    <path class="cls-4" d="M166.43,47.91h0v3h-.8v-7.3h.8v.88h0a1.88,1.88,0,0,1,1.73-1,1.81,1.81,0,0,1,1.5.67,2.74,2.74,0,0,1,.55,1.8,3.13,3.13,0,0,1-.61,2,2.06,2.06,0,0,1-1.67.76A1.67,1.67,0,0,1,166.43,47.91Zm0-2v.7a1.48,1.48,0,0,0,.4,1,1.44,1.44,0,0,0,2.16-.12,2.55,2.55,0,0,0,.42-1.55,2,2,0,0,0-.39-1.31,1.28,1.28,0,0,0-1-.48,1.45,1.45,0,0,0-1.13.49A1.79,1.79,0,0,0,166.41,45.89Z"/>
    <path class="cls-4" d="M172.29,48.63h-.8v-7.4h.8Z"/>
    <path class="cls-4" d="M174.32,42.36a.52.52,0,1,1,0-1,.51.51,0,0,1,.37.15.5.5,0,0,1,.15.37.51.51,0,0,1-.52.52Zm.39,6.27h-.8v-5h.8Z"/>
    <path class="cls-4" d="M179.74,48.4a2.63,2.63,0,0,1-1.37.35,2.3,2.3,0,0,1-1.73-.7,2.55,2.55,0,0,1-.65-1.8,2.74,2.74,0,0,1,.71-2,2.46,2.46,0,0,1,1.88-.75,2.58,2.58,0,0,1,1.17.25v.82a2,2,0,0,0-1.19-.4,1.63,1.63,0,0,0-1.26.55,2.09,2.09,0,0,0-.49,1.45,2,2,0,0,0,.46,1.38,1.59,1.59,0,0,0,1.24.51,2,2,0,0,0,1.23-.43Z"/>
    <path class="cls-4" d="M184.53,48.63h-.8v-.78h0a1.68,1.68,0,0,1-1.54.9,1.66,1.66,0,0,1-1.17-.4,1.36,1.36,0,0,1-.42-1.05c0-.93.55-1.48,1.65-1.63l1.5-.21c0-.85-.35-1.28-1-1.28a2.44,2.44,0,0,0-1.63.62V44a3.09,3.09,0,0,1,1.69-.47c1.18,0,1.77.62,1.77,1.87Zm-.8-2.53-1.21.17a2,2,0,0,0-.84.27.79.79,0,0,0-.28.7.75.75,0,0,0,.26.6,1,1,0,0,0,.69.23,1.29,1.29,0,0,0,1-.42,1.47,1.47,0,0,0,.39-1Z"/>
    <path class="cls-4" d="M188.36,48.58a1.61,1.61,0,0,1-.75.16q-1.32,0-1.32-1.47v-3h-.85v-.68h.85V42.41l.81-.26v1.48h1.26v.68H187.1v2.82a1.16,1.16,0,0,0,.17.72.68.68,0,0,0,.56.21.88.88,0,0,0,.53-.16Z"/>
    <path class="cls-4" d="M189.83,42.36a.49.49,0,0,1-.36-.15.53.53,0,0,1,0-.74.49.49,0,0,1,.36-.15.52.52,0,0,1,.38.15.5.5,0,0,1,.15.37.51.51,0,0,1-.15.37A.52.52,0,0,1,189.83,42.36Zm.4,6.27h-.81v-5h.81Z"/>
    <path class="cls-4" d="M193.94,48.75a2.31,2.31,0,0,1-1.77-.71,2.58,2.58,0,0,1-.67-1.85,2.7,2.7,0,0,1,.69-2,2.49,2.49,0,0,1,1.86-.71,2.25,2.25,0,0,1,1.75.69,2.73,2.73,0,0,1,.63,1.91,2.65,2.65,0,0,1-.68,1.91A2.34,2.34,0,0,1,193.94,48.75Zm.06-4.57a1.54,1.54,0,0,0-1.23.53,2.15,2.15,0,0,0-.44,1.45,2,2,0,0,0,.45,1.4,1.55,1.55,0,0,0,1.22.51,1.48,1.48,0,0,0,1.19-.5,2.18,2.18,0,0,0,.42-1.43,2.22,2.22,0,0,0-.42-1.45A1.46,1.46,0,0,0,194,44.18Z"/>
    <path class="cls-4" d="M201.86,48.63h-.8V45.78c0-1.06-.39-1.6-1.17-1.6a1.26,1.26,0,0,0-1,.46,1.68,1.68,0,0,0-.39,1.14v2.85h-.8v-5h.8v.83h0a1.8,1.8,0,0,1,1.64-1,1.54,1.54,0,0,1,1.25.53,2.35,2.35,0,0,1,.44,1.53Z"/>
    <path class="cls-4" d="M176.49,60.63h-.91l-.74-2h-3l-.7,2h-.91l2.69-7h.85Zm-1.92-2.7-1.1-3a2.8,2.8,0,0,1-.1-.46h0a2.6,2.6,0,0,1-.11.46l-1.09,3Z"/>
    <path class="cls-4" d="M178.34,58v2.65h-.82v-7h1.93a2.55,2.55,0,0,1,1.74.54,2,2,0,0,1,.61,1.55,2.12,2.12,0,0,1-.68,1.63,2.64,2.64,0,0,1-1.85.63Zm0-3.61v2.87h.86a1.92,1.92,0,0,0,1.3-.39,1.36,1.36,0,0,0,.45-1.09c0-.93-.55-1.39-1.65-1.39Z"/>
    <path class="cls-4" d="M183.94,60.63h-.82v-7h.82Z"/>
  </g>
  <g id="group1101-58">
    <g id="group1102-59">
      <g id="group1103-60">
        <g id="group1104-61">
          <g id="shape1105-62">
            <path id="path1511" class="cls-4" d="M7.85,15.21a4.49,4.49,0,0,0-3,5.66c.66,2.55,3,4.22,5.27,3.66a4.49,4.49,0,0,0,3-5.66C12.57,16.2,10.16,14.54,7.85,15.21Z"/>
          </g>
        </g>
        <g id="group1106-64">
          <g id="shape1107-65">
            <path id="path1519" class="cls-4" d="M12.79,25.22c-.44,0-.88.78-1.54,1.11s-1.32.89-3.18,0S6,24.66,4.44,24.66.38,27.44.38,31.55H16a12.09,12.09,0,0,0-1.1-4.22C13.77,25.22,13.23,25.22,12.79,25.22Z"/>
          </g>
        </g>
      </g>
    </g>
    <g id="group1108-67">
      <g id="shape1109-68">
        <path id="path1529" class="cls-5" d="M14.19,20.28H10.07a.71.71,0,0,0-.65.65v2.85a.73.73,0,0,0,.76.66h.76v5.15a1,1,0,0,0,1,1.1,1,1,0,0,0,1-1h.21V29c0-.22.33-.33.33-.33v-.33c-.33-.1-.54-.32-.54-.43v-.33l.21-.22a3.53,3.53,0,0,0,.33-.55,2.4,2.4,0,0,1-.33-.55c-.1-.11-.1-.33-.21-.44v-.21a2.51,2.51,0,0,1,.76-1.1h.54a.71.71,0,0,0,.65-.66v-3A.63.63,0,0,0,14.19,20.28ZM11.8,29.81c0,.22,0,.33-.21.33s-.22-.22-.22-.33V25c0-.22.11-.33.22-.33s.21.22.21.33ZM12.13,22a.66.66,0,0,1,0-1.32.71.71,0,0,1,.65.66A.63.63,0,0,1,12.13,22Z"/>
      </g>
      <g id="shape1110-70">
        <path id="path1534" class="cls-6" d="M11.57,30.12a.25.25,0,0,1-.22-.23v-5a.22.22,0,1,1,.44,0V30C11.79,30.12,11.68,30.12,11.57,30.12Z"/>
      </g>
      <g id="shape1111-72">
        <ellipse id="ellipse1539" class="cls-6" cx="12.14" cy="21.35" rx="0.66" ry="0.67"/>
      </g>
    </g>
  </g>
  <g>
    <g id="shape1100-52">
      <g id="use1353">
        <g id="lend5">
          <path id="path1350" class="cls-7" d="M160.69,18.87l8.05,4-8,4a9,9,0,0,0,0-8"/>
        </g>
      </g>
    </g>
    <line class="cls-8" x1="73.63" y1="23.02" x2="165.03" y2="23.02"/>
  </g>
  <g>
    <g id="group1072-5">
      <g id="shape1073-6">
        <path id="path1376" class="cls-4" d="M65,32.83a11.78,11.78,0,0,1-16.84-2.29,12.56,12.56,0,0,1,2.24-17.29,11.82,11.82,0,0,1,16.84,2.3A12.54,12.54,0,0,1,65,32.83Zm3.66-18.41a13.57,13.57,0,0,0-19.36-2.63,14.43,14.43,0,0,0-2.55,19.87A13.55,13.55,0,0,0,66.13,34.3,14.45,14.45,0,0,0,68.69,14.42Z"/>
      </g>
    </g>
    <g id="group1074-8">
      <g id="group1075-9">
        <g id="group1076-10">
          <g id="shape1077-11">
            <path id="path1388" class="cls-4" d="M51.06,25.61a17,17,0,0,1-2-2.35,18.28,18.28,0,0,0-1.66,6.88c.11.16.11.29.23.45a13.4,13.4,0,0,0,2,2.05A14.14,14.14,0,0,1,51.06,25.61Z"/>
          </g>
        </g>
        <g id="shape1078-13">
          <path id="path1394" class="cls-4" d="M55.67,16.17a21,21,0,0,0-3.33,3,15.71,15.71,0,0,0-1.61,2.05,15.93,15.93,0,0,0,1.9,2.47,15.93,15.93,0,0,1,2.2-2.57A26.31,26.31,0,0,1,58,18.5C57.16,17.73,56.38,17,55.67,16.17Z"/>
        </g>
        <g id="group1079-15">
          <g id="shape1080-16">
            <path id="path1401" class="cls-4" d="M67.14,15.37a12.47,12.47,0,0,0-1.73-1.82,12.55,12.55,0,0,0-8,1.54c.76.83,1.51,1.62,2.24,2.36C64,15,67.14,15.37,67.14,15.37Z"/>
          </g>
        </g>
        <g id="group1083-21">
          <g id="shape1084-22">
            <path id="path1417" class="cls-4" d="M54.9,25.79a22.67,22.67,0,0,1-2.27-2.13,13.15,13.15,0,0,0-1.14,1.95,25.16,25.16,0,0,0,2.09,1.9A19.15,19.15,0,0,0,66.14,31.9,9.13,9.13,0,0,0,67.68,30C66.45,30.21,61.19,30.9,54.9,25.79Z"/>
          </g>
        </g>
        <g id="group1085-24">
          <g id="shape1086-25">
            <path id="path1425" class="cls-4" d="M49.54,23.26a16.8,16.8,0,0,0,2,2.35,14.09,14.09,0,0,1,1.14-1.95,15.93,15.93,0,0,1-1.9-2.47A15.67,15.67,0,0,0,49.54,23.26Z"/>
          </g>
        </g>
        <g id="group1087-27">
          <g id="shape1088-28">
            <path id="path1433" class="cls-4" d="M58,18.49a98.68,98.68,0,0,0,11.15,8.83,10.76,10.76,0,0,0,.33-1.06,95,95,0,0,1-9.83-8.81A17.67,17.67,0,0,0,58,18.49Z"/>
          </g>
        </g>
        <g id="group1089-30">
          <g id="shape1090-31">
            <path id="path1441" class="cls-4" d="M57.38,15.08c-1.1-1.18-2.22-2.44-3.36-3.8a11.09,11.09,0,0,0-1.59.66,26.8,26.8,0,0,0,3.24,4.23A15.69,15.69,0,0,1,57.38,15.08Z"/>
          </g>
        </g>
        <g id="shape1091-33">
          <path id="path1447" class="cls-4" d="M57.45,15a18.74,18.74,0,0,0-1.87,1.19c.72.79,1.45,1.59,2.25,2.36.57-.41,1.34-.89,1.87-1.19C59,16.67,58.21,15.88,57.45,15Z"/>
        </g>
        <g id="shape1092-35">
          <path id="path1452" class="cls-4" d="M57.25,14.94a14.89,14.89,0,0,0-1.67,1.13c.72.78,1.74,1.8,2.54,2.57a18.53,18.53,0,0,1,1.58-1.11C59,16.8,58,15.78,57.25,14.94Z"/>
        </g>
      </g>
      <g id="group1093-37">
        <g id="shape1094-38">
          <path id="path1460" class="cls-4" d="M63.3,21.49a2.71,2.71,0,0,0-.48,3.71,2.55,2.55,0,0,0,3.63.5A2.72,2.72,0,0,0,66.93,22,2.55,2.55,0,0,0,63.3,21.49Z"/>
        </g>
      </g>
      <g id="group1095-40">
        <g id="shape1096-41">
          <path id="path1468" class="cls-4" d="M58.24,27.83a2.51,2.51,0,0,0-.45,3.43,2.37,2.37,0,0,0,3.36.46,2.49,2.49,0,0,0,.44-3.43A2.35,2.35,0,0,0,58.24,27.83Z"/>
        </g>
      </g>
      <g id="group1097-43">
        <g id="shape1098-44">
          <path id="path1476" class="cls-4" d="M49,20.3a3.79,3.79,0,0,0-.68,5.21,3.57,3.57,0,0,0,5.1.69A3.8,3.8,0,0,0,54.08,21,3.58,3.58,0,0,0,49,20.3Z"/>
        </g>
      </g>
      <g id="group1081-18">
        <g id="shape1082-19">
          <path id="path1409" class="cls-9" d="M49.6,23.07A19.94,19.94,0,0,1,50.79,21a9.83,9.83,0,0,1-1.6-6.79,13.9,13.9,0,0,0-1.29,1.6C47.52,17.42,47.5,20,49.6,23.07Z"/>
        </g>
      </g>
    </g>
  </g>
</svg>
