<?xml version="1.0" encoding="utf-8"?>
<!-- Generator: Adobe Illustrator 23.0.3, SVG Export Plug-In . SVG Version: 6.00 Build 0)  -->
<svg version="1.1" xmlns="http://www.w3.org/2000/svg" xmlns:xlink="http://www.w3.org/1999/xlink" x="0px" y="0px"
	 viewBox="0 0 247.3 64.5" style="enable-background:new 0 0 247.3 64.5;" xml:space="preserve">
<style type="text/css">
	.st0{fill-rule:evenodd;clip-rule:evenodd;fill:#008BFD;}
	.st1{enable-background:new    ;}
	.st2{fill-rule:evenodd;clip-rule:evenodd;fill:#505050;}
	
		.st3{fill-rule:evenodd;clip-rule:evenodd;fill:#008BFD;stroke:#808080;stroke-width:0.75;stroke-linecap:round;stroke-linejoin:round;stroke-miterlimit:3;}
	.st4{fill-rule:evenodd;clip-rule:evenodd;fill:#FFFFFF;}
	.st5{fill:none;}
	.st6{fill:#00B0F0;}
	.st7{fill:#505050;}
</style>
<g id="Shapes" xmlns:ev="http://www.w3.org/2001/xml-events" xmlns:v="http://schemas.microsoft.com/visio/2003/SVGExtensions/">
	<g id="group1549-1_1_" transform="translate(43.141,-20.0036)">
		<g id="group1550-2_1_">
			<g id="shape1551-3_1_">
				<path class="st0" d="M22.9,60.1c-2.2,1.7-4.8,2.5-7.3,2.5c-3.6,0-7.2-1.7-9.6-4.8c-4-5.4-3-13.1,2.2-17.3
					c2.2-1.7,4.8-2.5,7.3-2.5c3.6,0,7.2,1.7,9.5,4.8C29.2,48.3,28.2,56,22.9,60.1z M26.5,41.7c-2.7-3.6-6.8-5.5-11-5.5
					c-2.9,0-5.9,1-8.4,2.9C1.1,43.9,0,52.8,4.6,59c2.7,3.6,6.8,5.5,11,5.5c2.9,0,5.9-0.9,8.4-2.9C30,56.8,31.2,48,26.5,41.7z"/>
			</g>
		</g>
		<g id="group1552-5_1_" transform="translate(4.95554,-4.39536)">
			<g id="group1553-6_1_" transform="translate(0.341805,-0.176482)">
				<g id="group1554-7_1_" transform="translate(0.437248,3.2685E-13)">
					<g id="shape1555-8_1_">
						<path class="st0" d="M3.6,57.5c-0.8-0.8-1.4-1.6-2-2.3C0.5,57.6,0.1,60.1,0,62c0.1,0.2,0.1,0.3,0.2,0.4c0.6,0.8,1.3,1.5,2,2
							C2.1,62.9,2.3,60.3,3.6,57.5z"/>
					</g>
				</g>
				<g id="shape1556-10_1_" transform="translate(3.29213,-8.97695)">
					<path class="st0" d="M4.9,57c-1.1,0.8-2.2,1.8-3.3,3C1,60.7,0.5,61.4,0,62.1c0.5,0.8,1.1,1.6,1.9,2.5c0.6-0.9,1.3-1.7,2.2-2.6
						c1.1-1.1,2.2-1.9,3.1-2.6C6.4,58.6,5.7,57.8,4.9,57z"/>
				</g>
				<g id="group1557-12_1_" transform="translate(9.93516,-15.1958)">
					<g id="shape1558-13_1_">
						<path class="st0" d="M9.8,62.5c-0.5-0.7-1.1-1.3-1.7-1.8c-1.9-0.3-4.7-0.3-8,1.5c0.8,0.8,1.5,1.6,2.2,2.4
							C6.6,62.1,9.8,62.5,9.8,62.5z"/>
					</g>
				</g>
				<g id="group1559-15_1_" transform="translate(1.10162E-13,-9.38012)">
					<g id="shape1560-16_1_">
						<path class="st0" d="M2.1,64.5c0.3-0.7,0.7-1.4,1.2-2.1c-1.9-3.1-1.8-5.6-1.6-6.8c-0.5,0.5-0.9,1-1.3,1.6
							C0,58.9,0,61.4,2.1,64.5z"/>
					</g>
				</g>
				<g id="group1561-18_1_" transform="translate(4.05148,-0.740211)">
					<g id="shape1562-19_1_">
						<path class="st0" d="M3.4,58.4c-0.9-0.7-1.6-1.4-2.3-2.1c-0.5,0.7-0.8,1.3-1.1,2c0.6,0.6,1.3,1.3,2.1,1.9
							c4.9,4,9.8,4.4,12.6,4.4c0.2,0,1-1.2,1.5-1.9C15,62.8,9.7,63.5,3.4,58.4z"/>
					</g>
				</g>
				<g id="group1563-21_1_" transform="translate(2.10339,-7.03041)">
					<g id="shape1564-22_1_">
						<path class="st0" d="M0,62.2c0.5,0.8,1.1,1.5,2,2.4c0.3-0.6,0.7-1.3,1.1-2c-0.8-0.8-1.4-1.7-1.9-2.5C0.7,60.8,0.3,61.5,0,62.2
							z"/>
					</g>
				</g>
				<g id="group1565-24_1_" transform="translate(10.5195,-5.3233)">
					<g id="shape1566-25_1_">
						<path class="st0" d="M0,55.7c4.5,4.3,9.8,7.9,11.1,8.8c0.1-0.3,0.2-0.7,0.3-1c-1.4-1.1-5.3-4.2-9.8-8.8
							C1.1,55,0.6,55.3,0,55.7z"/>
					</g>
				</g>
				<g id="group1567-27_1_" transform="translate(4.98729,-16.4714)">
					<g id="shape1568-28_1_">
						<path class="st0" d="M4.9,63.4c-1.1-1.2-2.2-2.4-3.4-3.8C1,59.8,0.5,60,0,60.3c0.8,1.4,2,2.8,3.2,4.2
							C3.8,64.1,4.4,63.7,4.9,63.4z"/>
					</g>
				</g>
				<g id="shape1569-30_1_" transform="translate(8.13763,-14.0503)">
					<path class="st0" d="M1.9,61c-0.6,0.3-1.3,0.8-1.9,1.2c0.7,0.8,1.5,1.6,2.3,2.4c0.6-0.4,1.3-0.9,1.9-1.2
						C3.4,62.6,2.6,61.8,1.9,61z"/>
				</g>
				<g id="shape1570-32_1_" transform="translate(8.1369,-14.0039)">
					<path class="st0" d="M1.7,60.8C1.1,61.1,0.6,61.5,0,62c0.7,0.8,1.7,1.8,2.5,2.6c0.6-0.4,1-0.8,1.6-1.1
						C3.4,62.7,2.4,61.7,1.7,60.8z"/>
				</g>
			</g>
			<g id="group1571-34_1_" transform="translate(14.8617,-6.23662)">
				<g id="shape1572-35_1_">
					<path class="st0" d="M1.3,59.4C0.2,60.3,0,62,0.9,63.1c0.9,1.2,2.5,1.4,3.6,0.5c1.1-0.9,1.3-2.5,0.5-3.7
						C4.1,58.8,2.5,58.5,1.3,59.4z"/>
				</g>
			</g>
			<g id="group1573-37_1_" transform="translate(9.65099,-2.13163E-13)">
				<g id="shape1574-38_1_">
					<path class="st0" d="M1.2,59.8c-1,0.8-1.2,2.4-0.4,3.4c0.8,1.1,2.3,1.3,3.4,0.5c1-0.8,1.2-2.4,0.4-3.4
						C3.8,59.2,2.3,59,1.2,59.8z"/>
				</g>
			</g>
			<g id="group1575-40_1_" transform="translate(0,-5.36433)">
				<g id="shape1576-41_1_">
					<path class="st0" d="M1.9,57.4c-1.6,1.3-1.9,3.6-0.7,5.2c1.2,1.6,3.5,2,5.1,0.7S8.2,59.7,7,58C5.8,56.4,3.5,56.1,1.9,57.4z"/>
				</g>
			</g>
		</g>
		<g id="shape1549-43_1_">
			<g class="st1">
				<path d="M-10.7,77.2c0,0.1,0,0.1,0,0.2s0,0.1,0,0.1s-0.1,0-0.1,0s-0.1,0-0.2,0s-0.2,0-0.2,0s-0.1,0-0.1,0c0,0-0.1,0-0.1,0
					s0,0,0-0.1l-0.5-1.5h-2.6l-0.5,1.5c0,0,0,0.1,0,0.1c0,0,0,0-0.1,0.1c0,0-0.1,0-0.1,0s-0.1,0-0.2,0c-0.1,0-0.2,0-0.2,0
					c-0.1,0-0.1,0-0.1,0s0-0.1,0-0.1s0-0.1,0-0.2l2.1-5.9c0,0,0-0.1,0.1-0.1s0.1,0,0.1-0.1s0.1,0,0.2,0s0.1,0,0.2,0
					c0.1,0,0.2,0,0.3,0s0.1,0,0.2,0s0.1,0,0.1,0.1s0,0.1,0.1,0.1L-10.7,77.2z M-13.4,72.1L-13.4,72.1l-1.1,3.1h2.2L-13.4,72.1z"/>
				<path d="M-5.7,75.1c0,0.4,0,0.7-0.1,1S-6,76.7-6.2,77c-0.2,0.2-0.4,0.4-0.6,0.5c-0.2,0.1-0.5,0.2-0.8,0.2c-0.1,0-0.3,0-0.4,0
					s-0.2-0.1-0.3-0.1s-0.2-0.1-0.3-0.2s-0.2-0.2-0.3-0.3v2.2c0,0,0,0,0,0.1s0,0-0.1,0s-0.1,0-0.1,0s-0.1,0-0.2,0
					c-0.1,0-0.1,0-0.2,0s-0.1,0-0.1,0s-0.1,0-0.1,0s0,0,0-0.1V73c0,0,0-0.1,0-0.1c0,0,0,0,0.1,0s0.1,0,0.1,0s0.1,0,0.2,0
					c0.1,0,0.1,0,0.2,0s0.1,0,0.1,0s0,0,0.1,0c0,0,0,0,0,0.1v0.6c0.1-0.1,0.3-0.3,0.4-0.4s0.2-0.2,0.4-0.3c0.1-0.1,0.3-0.1,0.4-0.2
					s0.3-0.1,0.4-0.1c0.3,0,0.6,0.1,0.8,0.2s0.4,0.3,0.5,0.5s0.2,0.5,0.3,0.7C-5.7,74.5-5.7,74.8-5.7,75.1z M-6.5,75.2
					c0-0.2,0-0.4-0.1-0.7c0-0.2-0.1-0.4-0.2-0.6s-0.2-0.3-0.3-0.4s-0.3-0.1-0.5-0.1c-0.1,0-0.2,0-0.3,0c-0.1,0-0.2,0.1-0.3,0.1
					c-0.1,0.1-0.2,0.2-0.3,0.3c-0.1,0.1-0.2,0.2-0.4,0.4v1.7c0.2,0.3,0.4,0.5,0.6,0.6s0.4,0.2,0.6,0.2c0.2,0,0.4,0,0.5-0.1
					c0.1-0.1,0.3-0.2,0.4-0.4c0.1-0.2,0.2-0.3,0.2-0.5S-6.5,75.4-6.5,75.2z"/>
				<path d="M-0.4,75.1c0,0.4,0,0.7-0.1,1s-0.2,0.6-0.4,0.8c-0.2,0.2-0.4,0.4-0.6,0.5c-0.2,0.1-0.5,0.2-0.8,0.2c-0.1,0-0.3,0-0.4,0
					s-0.2-0.1-0.3-0.1s-0.2-0.1-0.3-0.2s-0.2-0.2-0.3-0.3v2.2c0,0,0,0,0,0.1s0,0-0.1,0s-0.1,0-0.1,0s-0.1,0-0.2,0
					c-0.1,0-0.1,0-0.2,0s-0.1,0-0.1,0s-0.1,0-0.1,0s0,0,0-0.1V73c0,0,0-0.1,0-0.1c0,0,0,0,0.1,0s0.1,0,0.1,0s0.1,0,0.2,0
					c0.1,0,0.1,0,0.2,0s0.1,0,0.1,0s0,0,0.1,0c0,0,0,0,0,0.1v0.6c0.1-0.1,0.3-0.3,0.4-0.4S-3.1,73.1-3,73c0.1-0.1,0.3-0.1,0.4-0.2
					s0.3-0.1,0.4-0.1c0.3,0,0.6,0.1,0.8,0.2s0.4,0.3,0.5,0.5s0.2,0.5,0.3,0.7C-0.5,74.5-0.4,74.8-0.4,75.1z M-1.3,75.2
					c0-0.2,0-0.4-0.1-0.7c0-0.2-0.1-0.4-0.2-0.6s-0.2-0.3-0.3-0.4s-0.3-0.1-0.5-0.1c-0.1,0-0.2,0-0.3,0c-0.1,0-0.2,0.1-0.3,0.1
					c-0.1,0.1-0.2,0.2-0.3,0.3c-0.1,0.1-0.2,0.2-0.4,0.4v1.7c0.2,0.3,0.4,0.5,0.6,0.6s0.4,0.2,0.6,0.2c0.2,0,0.4,0,0.5-0.1
					c0.1-0.1,0.3-0.2,0.4-0.4c0.1-0.2,0.2-0.3,0.2-0.5S-1.3,75.4-1.3,75.2z"/>
				<path d="M1.6,77.4C1.6,77.4,1.6,77.5,1.6,77.4c0,0.1-0.1,0.1-0.1,0.1s-0.1,0-0.1,0s-0.1,0-0.2,0c-0.1,0-0.1,0-0.2,0
					c-0.1,0-0.1,0-0.1,0s-0.1,0-0.1,0c0,0,0,0,0-0.1v-6.5c0,0,0,0,0-0.1s0,0,0.1,0s0.1,0,0.1,0c0.1,0,0.1,0,0.2,0c0.1,0,0.1,0,0.2,0
					s0.1,0,0.1,0s0.1,0,0.1,0s0,0,0,0.1V77.4z"/>
				<path d="M4,71.5c0,0.2,0,0.3-0.1,0.4S3.7,72,3.5,72c-0.2,0-0.3,0-0.4-0.1C3,71.9,3,71.7,3,71.5c0-0.2,0-0.3,0.1-0.4
					s0.2-0.1,0.4-0.1c0.2,0,0.3,0,0.4,0.1C3.9,71.2,4,71.3,4,71.5z M3.9,77.4C3.9,77.4,3.9,77.5,3.9,77.4c0,0.1-0.1,0.1-0.1,0.1
					s-0.1,0-0.1,0s-0.1,0-0.2,0c-0.1,0-0.1,0-0.2,0s-0.1,0-0.1,0s-0.1,0-0.1,0c0,0,0,0,0-0.1V73c0,0,0,0,0-0.1s0,0,0.1,0
					s0.1,0,0.1,0s0.1,0,0.2,0c0.1,0,0.1,0,0.2,0s0.1,0,0.1,0s0.1,0,0.1,0s0,0,0,0.1V77.4z"/>
				<path d="M8.5,76.7c0,0.1,0,0.1,0,0.1c0,0,0,0.1,0,0.1c0,0,0,0.1,0,0.1c0,0,0,0.1-0.1,0.1c0,0-0.1,0.1-0.2,0.2
					c-0.1,0.1-0.2,0.1-0.3,0.2c-0.1,0-0.3,0.1-0.4,0.1s-0.3,0-0.4,0c-0.3,0-0.6-0.1-0.8-0.2S5.7,77.2,5.6,77s-0.3-0.4-0.4-0.7
					c-0.1-0.3-0.1-0.6-0.1-1c0-0.4,0.1-0.8,0.2-1.1c0.1-0.3,0.3-0.6,0.4-0.8s0.4-0.3,0.6-0.4c0.2-0.1,0.5-0.1,0.8-0.1
					c0.1,0,0.3,0,0.4,0s0.3,0.1,0.4,0.1s0.2,0.1,0.3,0.1s0.1,0.1,0.2,0.1s0.1,0.1,0.1,0.1s0,0,0,0.1c0,0,0,0.1,0,0.1s0,0.1,0,0.1
					c0,0.1,0,0.2,0,0.3C8.4,74,8.4,74,8.4,74c0,0-0.1,0-0.2-0.1S8.1,73.8,8,73.7s-0.2-0.1-0.4-0.2s-0.3-0.1-0.5-0.1
					c-0.4,0-0.7,0.1-0.9,0.4s-0.3,0.7-0.3,1.3c0,0.3,0,0.5,0.1,0.7c0.1,0.2,0.1,0.4,0.2,0.5s0.2,0.3,0.4,0.3
					c0.2,0.1,0.3,0.1,0.5,0.1c0.2,0,0.3,0,0.5-0.1s0.3-0.1,0.4-0.2c0.1-0.1,0.2-0.1,0.3-0.2c0.1-0.1,0.1-0.1,0.2-0.1c0,0,0,0,0.1,0
					s0,0,0,0.1c0,0,0,0.1,0,0.1C8.5,76.6,8.5,76.7,8.5,76.7z"/>
				<path d="M12.8,77.4C12.8,77.5,12.8,77.5,12.8,77.4c-0.1,0.1-0.1,0.1-0.1,0.1s-0.1,0-0.2,0c-0.1,0-0.2,0-0.2,0s-0.1,0-0.1,0
					s0,0,0-0.1V77c-0.2,0.2-0.4,0.4-0.6,0.5s-0.5,0.2-0.7,0.2c-0.2,0-0.4,0-0.6-0.1c-0.2-0.1-0.3-0.1-0.5-0.3S9.4,77,9.3,76.9
					s-0.1-0.4-0.1-0.6c0-0.2,0.1-0.5,0.2-0.6s0.2-0.3,0.4-0.5s0.4-0.2,0.7-0.3c0.3-0.1,0.6-0.1,0.9-0.1H12v-0.3c0-0.2,0-0.3-0.1-0.4
					s-0.1-0.2-0.2-0.3c-0.1-0.1-0.2-0.2-0.3-0.2s-0.3-0.1-0.5-0.1c-0.2,0-0.4,0-0.5,0.1c-0.2,0-0.3,0.1-0.4,0.2
					c-0.1,0.1-0.2,0.1-0.3,0.2c-0.1,0-0.1,0.1-0.2,0.1c0,0,0,0-0.1,0s0,0-0.1-0.1s0-0.1,0-0.1c0,0,0-0.1,0-0.1c0-0.1,0-0.1,0-0.2
					c0,0,0-0.1,0.1-0.1s0.1-0.1,0.2-0.1C9.9,73.1,10,73,10.1,73c0.1,0,0.3-0.1,0.5-0.1c0.2,0,0.3,0,0.5,0c0.3,0,0.6,0,0.8,0.1
					s0.4,0.2,0.5,0.3c0.1,0.1,0.2,0.3,0.3,0.5s0.1,0.4,0.1,0.7V77.4z M12,75.4h-0.7c-0.2,0-0.4,0-0.6,0.1c-0.2,0-0.3,0.1-0.4,0.2
					s-0.2,0.2-0.2,0.3s-0.1,0.2-0.1,0.4c0,0.2,0.1,0.4,0.2,0.5c0.1,0.1,0.3,0.2,0.6,0.2c0.2,0,0.4-0.1,0.6-0.2s0.4-0.3,0.6-0.5V75.4
					z"/>
				<path d="M18,72.9c0.1,0,0.2,0,0.2,0.1s0.1,0.1,0.1,0.2v4.3c0,0,0,0,0,0.1c0,0,0,0-0.1,0s-0.1,0-0.1,0s-0.1,0-0.2,0
					c-0.1,0-0.1,0-0.2,0s-0.1,0-0.1,0s-0.1,0-0.1,0c0,0,0,0,0-0.1v-3.9h-2.3V76c0,0.3,0,0.5,0.1,0.7c0.1,0.2,0.3,0.2,0.5,0.2
					c0.1,0,0.1,0,0.2,0s0.1,0,0.2,0s0.1,0,0.1,0s0.1,0,0.1,0c0,0,0,0,0,0c0,0,0,0,0,0s0,0.1,0,0.1s0,0.1,0,0.1c0,0.1,0,0.2,0,0.2
					s0,0.1-0.1,0.1c0,0-0.1,0.1-0.1,0.1s-0.1,0-0.2,0.1s-0.1,0-0.2,0s-0.1,0-0.2,0c-0.2,0-0.4,0-0.6-0.1c-0.2-0.1-0.3-0.2-0.4-0.3
					s-0.2-0.3-0.2-0.5c0-0.2-0.1-0.4-0.1-0.7v-2.6h-0.6c0,0-0.1,0-0.1-0.1s0-0.1,0-0.3c0-0.1,0-0.1,0-0.2s0-0.1,0-0.1
					c0,0,0,0,0.1-0.1c0,0,0,0,0.1,0h0.6v-1c0,0,0,0,0-0.1s0,0,0.1-0.1s0.1,0,0.1,0s0.1,0,0.2,0c0.1,0,0.1,0,0.2,0s0.1,0,0.1,0
					s0.1,0,0.1,0.1s0,0,0,0.1v1H18z M18.4,71.5c0,0.2,0,0.3-0.1,0.4S18.1,72,17.9,72c-0.2,0-0.3,0-0.4-0.1c-0.1-0.1-0.1-0.2-0.1-0.4
					c0-0.2,0-0.3,0.1-0.4s0.2-0.1,0.4-0.1c0.2,0,0.3,0,0.4,0.1C18.4,71.2,18.4,71.3,18.4,71.5z"/>
				<path d="M23.9,75.2c0,0.4,0,0.7-0.1,1c-0.1,0.3-0.2,0.6-0.4,0.8s-0.4,0.4-0.7,0.5c-0.3,0.1-0.6,0.2-1,0.2
					c-0.4,0-0.7-0.1-0.9-0.2S20.2,77.2,20,77s-0.3-0.5-0.4-0.7s-0.1-0.6-0.1-1c0-0.4,0-0.7,0.1-1c0.1-0.3,0.2-0.6,0.4-0.8
					s0.4-0.4,0.7-0.5s0.6-0.2,1-0.2c0.4,0,0.7,0.1,0.9,0.2s0.5,0.3,0.7,0.5s0.3,0.5,0.4,0.7S23.9,74.8,23.9,75.2z M23,75.2
					c0-0.2,0-0.5-0.1-0.7s-0.1-0.4-0.2-0.6c-0.1-0.2-0.2-0.3-0.4-0.4s-0.4-0.1-0.7-0.1c-0.2,0-0.4,0-0.6,0.1s-0.3,0.2-0.4,0.4
					c-0.1,0.2-0.2,0.3-0.2,0.5s-0.1,0.4-0.1,0.7c0,0.2,0,0.5,0.1,0.7s0.1,0.4,0.2,0.6c0.1,0.2,0.2,0.3,0.4,0.4
					c0.2,0.1,0.4,0.1,0.7,0.1c0.2,0,0.4,0,0.6-0.1c0.2-0.1,0.3-0.2,0.4-0.4s0.2-0.3,0.2-0.5C23,75.7,23,75.5,23,75.2z"/>
				<path d="M28.9,77.4C28.9,77.4,28.8,77.5,28.9,77.4c0,0.1-0.1,0.1-0.1,0.1s-0.1,0-0.1,0s-0.1,0-0.2,0c-0.1,0-0.1,0-0.2,0
					s-0.1,0-0.1,0s-0.1,0-0.1,0c0,0,0,0,0-0.1v-2.6c0-0.3,0-0.5-0.1-0.6s-0.1-0.3-0.2-0.4s-0.2-0.2-0.3-0.3s-0.3-0.1-0.4-0.1
					c-0.2,0-0.4,0.1-0.6,0.2s-0.4,0.4-0.6,0.6v3.1c0,0,0,0,0,0.1c0,0,0,0-0.1,0s-0.1,0-0.1,0s-0.1,0-0.2,0c-0.1,0-0.1,0-0.2,0
					s-0.1,0-0.1,0s-0.1,0-0.1,0c0,0,0,0,0-0.1V73c0,0,0,0,0-0.1c0,0,0,0,0.1,0s0.1,0,0.1,0s0.1,0,0.2,0c0.1,0,0.1,0,0.2,0
					s0.1,0,0.1,0s0,0,0.1,0c0,0,0,0,0,0.1v0.6c0.2-0.3,0.5-0.5,0.7-0.6c0.2-0.1,0.5-0.2,0.7-0.2c0.3,0,0.5,0,0.7,0.1
					c0.2,0.1,0.4,0.2,0.5,0.4s0.2,0.4,0.3,0.6c0.1,0.2,0.1,0.5,0.1,0.8V77.4z"/>
				<path d="M38.7,73C38.7,73,38.7,73.1,38.7,73c0,0.1,0,0.2,0,0.2l-1.3,4.2c0,0,0,0.1,0,0.1s-0.1,0-0.1,0.1s-0.1,0-0.2,0
					s-0.1,0-0.2,0c-0.1,0-0.2,0-0.3,0s-0.1,0-0.2,0s-0.1,0-0.1-0.1s0-0.1,0-0.1l-0.9-3.2l0,0l0,0l-0.9,3.2c0,0,0,0.1,0,0.1
					s-0.1,0-0.1,0.1s-0.1,0-0.2,0s-0.1,0-0.2,0c-0.1,0-0.2,0-0.2,0s-0.1,0-0.2,0s-0.1,0-0.1-0.1s0-0.1,0-0.1l-1.3-4.2
					c0,0,0-0.1,0-0.1s0-0.1,0-0.1c0,0,0-0.1,0-0.1c0,0,0,0,0.1,0c0,0,0.1,0,0.1,0s0.1,0,0.2,0c0.1,0,0.2,0,0.2,0s0.1,0,0.1,0
					c0,0,0.1,0,0.1,0c0,0,0,0,0,0.1l1.1,3.6l0,0l0,0l1-3.6c0,0,0-0.1,0-0.1c0,0,0,0,0.1,0c0,0,0.1,0,0.1,0s0.1,0,0.2,0
					c0.1,0,0.1,0,0.2,0s0.1,0,0.1,0c0,0,0.1,0,0.1,0s0,0,0,0.1l1,3.6l0,0l0,0l1-3.6c0,0,0-0.1,0-0.1c0,0,0,0,0.1,0c0,0,0.1,0,0.1,0
					s0.1,0,0.2,0c0.1,0,0.1,0,0.2,0s0.1,0,0.1,0S38.7,72.9,38.7,73C38.7,73,38.7,73,38.7,73z"/>
				<path d="M43.4,75c0,0.1,0,0.2-0.1,0.3s-0.1,0.1-0.2,0.1h-2.9c0,0.2,0,0.5,0.1,0.7c0,0.2,0.1,0.4,0.2,0.5
					c0.1,0.1,0.3,0.2,0.4,0.3c0.2,0.1,0.4,0.1,0.7,0.1c0.2,0,0.4,0,0.6-0.1s0.3-0.1,0.4-0.1c0.1,0,0.2-0.1,0.3-0.1
					c0.1,0,0.1-0.1,0.2-0.1c0,0,0,0,0.1,0c0,0,0,0,0,0.1s0,0.1,0,0.1c0,0,0,0.1,0,0.1c0,0,0,0.1,0,0.1c0,0,0,0.1,0,0.1s0,0,0,0.1
					s0,0,0,0.1c0,0-0.1,0-0.2,0.1c-0.1,0-0.2,0.1-0.3,0.1s-0.3,0.1-0.5,0.1c-0.2,0-0.4,0-0.6,0c-0.4,0-0.7-0.1-0.9-0.2
					s-0.5-0.3-0.7-0.4s-0.3-0.4-0.4-0.7s-0.1-0.6-0.1-1c0-0.4,0-0.7,0.1-1c0.1-0.3,0.2-0.6,0.4-0.8s0.4-0.4,0.7-0.5s0.6-0.2,0.9-0.2
					c0.3,0,0.6,0.1,0.9,0.2s0.4,0.3,0.6,0.4c0.2,0.2,0.3,0.4,0.3,0.7c0.1,0.3,0.1,0.5,0.1,0.8V75z M42.6,74.8c0-0.4-0.1-0.8-0.3-1
					c-0.2-0.2-0.5-0.4-0.9-0.4c-0.2,0-0.4,0-0.5,0.1c-0.2,0.1-0.3,0.2-0.4,0.3s-0.2,0.3-0.2,0.4c-0.1,0.2-0.1,0.3-0.1,0.5H42.6z"/>
				<path d="M48.7,75.2c0,0.4,0,0.7-0.1,1c-0.1,0.3-0.2,0.6-0.4,0.8s-0.4,0.4-0.6,0.5s-0.5,0.2-0.8,0.2c-0.1,0-0.3,0-0.4,0
					c-0.1,0-0.2-0.1-0.3-0.1s-0.2-0.1-0.3-0.2s-0.2-0.2-0.4-0.3v0.5c0,0,0,0,0,0.1s0,0-0.1,0c0,0-0.1,0-0.1,0s-0.1,0-0.2,0
					c-0.1,0-0.1,0-0.2,0s-0.1,0-0.1,0c0,0,0,0-0.1,0s0,0,0-0.1v-6.5c0,0,0,0,0-0.1s0,0,0.1,0s0.1,0,0.1,0s0.1,0,0.2,0
					c0.1,0,0.1,0,0.2,0s0.1,0,0.1,0s0.1,0,0.1,0s0,0,0,0.1v2.6c0.1-0.1,0.3-0.2,0.4-0.3S46,73,46.2,73c0.1-0.1,0.2-0.1,0.4-0.1
					s0.2,0,0.4,0c0.3,0,0.6,0.1,0.8,0.2s0.4,0.3,0.6,0.5c0.1,0.2,0.2,0.5,0.3,0.8S48.7,74.8,48.7,75.2z M47.8,75.2
					c0-0.2,0-0.4-0.1-0.7c0-0.2-0.1-0.4-0.2-0.6s-0.2-0.3-0.3-0.4c-0.1-0.1-0.3-0.1-0.5-0.1c-0.1,0-0.2,0-0.3,0
					c-0.1,0-0.2,0.1-0.3,0.1c-0.1,0.1-0.2,0.2-0.3,0.3c-0.1,0.1-0.2,0.2-0.4,0.4v1.8c0.2,0.3,0.4,0.5,0.6,0.6s0.4,0.2,0.6,0.2
					c0.2,0,0.4,0,0.5-0.1c0.1-0.1,0.3-0.2,0.4-0.4c0.1-0.2,0.2-0.3,0.2-0.5S47.8,75.4,47.8,75.2z"/>
				<v:paragraph  v:horizAlign="1"></v:paragraph>
				<v:tabList></v:tabList>
			</g>
		</g>
	</g>
	<g id="shape1578-49_1_" transform="translate(214.796,-21.421)">
		<path class="st0" d="M21.6,39H1.1C0.5,39,0,39.5,0,40.1v16.7C0,57.5,0.5,58,1.1,58h5.3c0.4,1.4,1.7,2.3,3.2,2.3
			c1.8,0,3.3-1.5,3.3-3.4s-1.5-3.4-3.3-3.4c-1.5,0-2.8,0.9-3.2,2.3H2.2v-12h18.3v12H17c-0.5-3.7-3.7-6.6-7.5-6.6
			c-1.3,0-2.5,0.4-3.6,0.9l1,2c0.7-0.4,1.7-0.7,2.6-0.7c2.9,0,5.4,2.4,5.4,5.5c0,3-2.4,5.5-5.4,5.5c-0.9,0-1.8-0.3-2.6-0.7l-1,2
			c1.1,0.6,2.4,0.9,3.6,0.9c3.8,0,7-2.9,7.5-6.6h4.5c0.6,0,1.1-0.5,1.1-1.1V40.1C22.7,39.6,22.2,39,21.6,39z"/>
	</g>
	<g id="shape1579-52_1_" transform="translate(73.5133,-41.2635)">
		<g transform="scale(-2.68,-2.68) ">
			<g id="lend5_1_">
				<path class="st2" d="M132.8,67.6l8,4l-8,4C134.1,73.1,134.1,70.1,132.8,67.6"/>
			</g>
		</g>
	</g>
	<g id="group1580-58_1_" transform="translate(0.375,-25.6729)">
		<g id="group1581-59_1_">
			<g id="group1582-60_1_">
				<g id="group1583-61_1_" transform="translate(3.8518,-6.4617)">
					<g id="shape1584-62_1_">
						<path class="st0" d="M3.6,54.6c-2.3,0.6-3.6,3.1-3,5.7c0.7,2.6,3,4.2,5.3,3.7c2.3-0.6,3.6-3.1,3-5.7C8.3,55.6,5.9,54,3.6,54.6
							z"/>
					</g>
				</g>
				<g id="group1585-64_1_">
					<g id="shape1586-65_1_">
						<path class="st0" d="M12.4,58.2c-0.4,0-0.9,0.8-1.5,1.1c-0.7,0.3-1.3,0.9-3.2,0c-1.9-0.9-2.1-1.7-3.6-1.7
							c-1.5,0-4.1,2.8-4.1,6.9h15.6c0,0-0.2-2.8-1.1-4.2C13.4,58.2,12.9,58.2,12.4,58.2z"/>
					</g>
				</g>
			</g>
		</g>
		<g id="group1587-67_1_" transform="translate(9.0485,-0.85947)">
			<g id="shape1588-68_1_">
				<path class="st3" d="M4.8,54.1H0.7c-0.3,0-0.6,0.3-0.6,0.7v2.8c0,0.3,0.3,0.7,0.8,0.7h0.8v5.2c0,0.6,0.4,1.1,1,1.1s1-0.4,1-1
					c0.1,0,0.2,0,0.2,0s0-0.5,0-0.7c0-0.2,0.3-0.3,0.3-0.3v-0.3c-0.3-0.1-0.5-0.3-0.5-0.4v-0.3c0.1-0.1,0.2-0.2,0.2-0.2
					C3.8,61.1,4,60.7,4,60.7s-0.3-0.4-0.3-0.5c-0.1-0.1-0.1-0.3-0.2-0.4v-0.2c0.1-0.5,0.8-1.1,0.8-1.1h0.5c0.3,0,0.7-0.3,0.7-0.7v-3
					C5.4,54.4,5.2,54.1,4.8,54.1z M2.4,63.7c0,0.2,0,0.3-0.2,0.3C2,64,2,63.8,2,63.7v-4.8c0-0.2,0.1-0.3,0.2-0.3
					c0.2,0,0.2,0.2,0.2,0.3V63.7z M2.7,55.9c-0.3,0-0.7-0.3-0.7-0.7c0-0.3,0.3-0.7,0.7-0.7c0.3,0,0.6,0.3,0.6,0.7
					C3.4,55.5,3.1,55.9,2.7,55.9z"/>
			</g>
			<g id="shape1589-70_1_" transform="translate(1.92482,-0.570755)">
				<path class="st4" d="M0.2,64.5c-0.1,0-0.2-0.1-0.2-0.2v-5c0-0.1,0.1-0.2,0.2-0.2s0.2,0.1,0.2,0.2v5.1
					C0.4,64.5,0.3,64.5,0.2,64.5z"/>
			</g>
			<g id="shape1590-72_1_" transform="translate(2.05993,-8.66317)">
				<ellipse class="st4" cx="0.7" cy="63.9" rx="0.7" ry="0.7"/>
			</g>
		</g>
	</g>
</g>
<g id="Txt" xmlns:ev="http://www.w3.org/2001/xml-events" xmlns:v="http://schemas.microsoft.com/visio/2003/SVGExtensions/">
	<g id="shape1578-49_2_" transform="translate(214.796,-21.421)">
		<g class="st1">
			<rect x="-15.7" y="65.4" class="st5" width="50.9" height="22.7"/>
			<path d="M-7.6,73.2c0,0.1,0,0.1,0,0.2s0,0.1,0,0.1c0,0-0.1,0-0.1,0s-0.1,0-0.2,0c-0.1,0-0.2,0-0.2,0s-0.1,0-0.1,0
				c0,0-0.1,0-0.1,0s0,0,0-0.1L-9,71.9h-2.6l-0.5,1.5c0,0,0,0.1,0,0.1c0,0,0,0-0.1,0.1c0,0-0.1,0-0.1,0s-0.1,0-0.2,0
				c-0.1,0-0.2,0-0.2,0c-0.1,0-0.1,0-0.1,0s0-0.1,0-0.1s0-0.1,0-0.2l2.1-5.9c0,0,0-0.1,0.1-0.1s0.1,0,0.1-0.1s0.1,0,0.2,0
				s0.1,0,0.2,0c0.1,0,0.2,0,0.3,0s0.1,0,0.2,0c0,0,0.1,0,0.1,0.1c0,0,0,0.1,0.1,0.1L-7.6,73.2z M-10.3,68.1L-10.3,68.1l-1.1,3.1
				h2.2L-10.3,68.1z"/>
			<path d="M-2.5,71.1c0,0.4,0,0.7-0.1,1S-2.9,72.7-3,73c-0.2,0.2-0.4,0.4-0.6,0.5c-0.2,0.1-0.5,0.2-0.8,0.2c-0.1,0-0.3,0-0.4,0
				c-0.1,0-0.2-0.1-0.3-0.1s-0.2-0.1-0.3-0.2c-0.1-0.1-0.2-0.2-0.3-0.3v2.2c0,0,0,0,0,0.1c0,0,0,0-0.1,0s-0.1,0-0.1,0
				c-0.1,0-0.1,0-0.2,0c-0.1,0-0.1,0-0.2,0c-0.1,0-0.1,0-0.1,0s-0.1,0-0.1,0s0,0,0-0.1V69c0,0,0-0.1,0-0.1c0,0,0,0,0.1,0
				s0.1,0,0.1,0c0,0,0.1,0,0.2,0c0.1,0,0.1,0,0.2,0s0.1,0,0.1,0s0.1,0,0.1,0c0,0,0,0,0,0.1v0.6c0.1-0.1,0.3-0.3,0.4-0.4
				c0.1-0.1,0.2-0.2,0.4-0.3c0.1-0.1,0.3-0.1,0.4-0.2s0.3-0.1,0.4-0.1c0.3,0,0.6,0.1,0.8,0.2s0.4,0.3,0.5,0.5s0.2,0.5,0.3,0.7
				C-2.6,70.5-2.5,70.8-2.5,71.1z M-3.4,71.2c0-0.2,0-0.4-0.1-0.7c0-0.2-0.1-0.4-0.2-0.6c-0.1-0.2-0.2-0.3-0.3-0.4
				c-0.1-0.1-0.3-0.1-0.5-0.1c-0.1,0-0.2,0-0.3,0c-0.1,0-0.2,0.1-0.3,0.1c-0.1,0.1-0.2,0.2-0.3,0.3c-0.1,0.1-0.2,0.2-0.4,0.4v1.7
				c0.2,0.3,0.4,0.5,0.6,0.6c0.2,0.1,0.4,0.2,0.6,0.2c0.2,0,0.4,0,0.5-0.1c0.1-0.1,0.3-0.2,0.4-0.4c0.1-0.2,0.2-0.3,0.2-0.5
				S-3.4,71.4-3.4,71.2z"/>
			<path d="M2.7,71.1c0,0.4,0,0.7-0.1,1S2.4,72.7,2.2,73c-0.2,0.2-0.4,0.4-0.6,0.5c-0.2,0.1-0.5,0.2-0.8,0.2c-0.1,0-0.3,0-0.4,0
				c-0.1,0-0.2-0.1-0.3-0.1s-0.2-0.1-0.3-0.2c-0.1-0.1-0.2-0.2-0.3-0.3v2.2c0,0,0,0,0,0.1c0,0,0,0-0.1,0s-0.1,0-0.1,0
				c-0.1,0-0.1,0-0.2,0c-0.1,0-0.1,0-0.2,0c-0.1,0-0.1,0-0.1,0s-0.1,0-0.1,0s0,0,0-0.1V69c0,0,0-0.1,0-0.1c0,0,0,0,0.1,0
				s0.1,0,0.1,0c0,0,0.1,0,0.2,0c0.1,0,0.1,0,0.2,0s0.1,0,0.1,0s0.1,0,0.1,0c0,0,0,0,0,0.1v0.6c0.1-0.1,0.3-0.3,0.4-0.4
				c0.1-0.1,0.2-0.2,0.4-0.3c0.1-0.1,0.3-0.1,0.4-0.2s0.3-0.1,0.4-0.1c0.3,0,0.6,0.1,0.8,0.2s0.4,0.3,0.5,0.5s0.2,0.5,0.3,0.7
				C2.7,70.5,2.7,70.8,2.7,71.1z M1.9,71.2c0-0.2,0-0.4-0.1-0.7c0-0.2-0.1-0.4-0.2-0.6c-0.1-0.2-0.2-0.3-0.3-0.4S1,69.5,0.8,69.5
				c-0.1,0-0.2,0-0.3,0c-0.1,0-0.2,0.1-0.3,0.1c-0.1,0.1-0.2,0.2-0.3,0.3c-0.1,0.1-0.2,0.2-0.4,0.4v1.7c0.2,0.3,0.4,0.5,0.6,0.6
				c0.2,0.1,0.4,0.2,0.6,0.2c0.2,0,0.4,0,0.5-0.1s0.3-0.2,0.4-0.4c0.1-0.2,0.2-0.3,0.2-0.5S1.9,71.4,1.9,71.2z"/>
			<path d="M4.7,73.4C4.7,73.4,4.7,73.5,4.7,73.4c0,0.1-0.1,0.1-0.1,0.1s-0.1,0-0.1,0c-0.1,0-0.1,0-0.2,0c-0.1,0-0.1,0-0.2,0
				c-0.1,0-0.1,0-0.1,0c0,0-0.1,0-0.1,0c0,0,0,0,0-0.1v-6.5c0,0,0,0,0-0.1s0,0,0.1,0c0,0,0.1,0,0.1,0c0.1,0,0.1,0,0.2,0
				c0.1,0,0.1,0,0.2,0c0.1,0,0.1,0,0.1,0s0,0,0.1,0c0,0,0,0,0,0.1V73.4z"/>
			<path d="M7.1,67.5c0,0.2,0,0.3-0.1,0.4C6.9,68,6.8,68,6.6,68c-0.2,0-0.3,0-0.4-0.1c-0.1-0.1-0.1-0.2-0.1-0.4c0-0.2,0-0.3,0.1-0.4
				c0.1-0.1,0.2-0.1,0.4-0.1c0.2,0,0.3,0,0.4,0.1C7.1,67.2,7.1,67.3,7.1,67.5z M7,73.4C7,73.4,7,73.5,7,73.4c0,0.1-0.1,0.1-0.1,0.1
				s-0.1,0-0.1,0c-0.1,0-0.1,0-0.2,0c-0.1,0-0.1,0-0.2,0c-0.1,0-0.1,0-0.1,0s-0.1,0-0.1,0c0,0,0,0,0-0.1V69c0,0,0,0,0-0.1s0,0,0.1,0
				s0.1,0,0.1,0c0.1,0,0.1,0,0.2,0c0.1,0,0.1,0,0.2,0c0.1,0,0.1,0,0.1,0s0,0,0.1,0c0,0,0,0,0,0.1V73.4z"/>
			<path d="M11.7,72.7c0,0.1,0,0.1,0,0.1c0,0,0,0.1,0,0.1c0,0,0,0.1,0,0.1c0,0,0,0.1-0.1,0.1c0,0-0.1,0.1-0.2,0.2
				c-0.1,0.1-0.2,0.1-0.3,0.2c-0.1,0-0.3,0.1-0.4,0.1c-0.1,0-0.3,0-0.4,0c-0.3,0-0.6-0.1-0.8-0.2S8.9,73.2,8.7,73s-0.3-0.4-0.4-0.7
				c-0.1-0.3-0.1-0.6-0.1-1c0-0.4,0.1-0.8,0.2-1.1c0.1-0.3,0.3-0.6,0.4-0.8s0.4-0.3,0.6-0.4c0.2-0.1,0.5-0.1,0.8-0.1
				c0.1,0,0.3,0,0.4,0s0.3,0.1,0.4,0.1c0.1,0,0.2,0.1,0.3,0.1s0.1,0.1,0.2,0.1s0.1,0.1,0.1,0.1s0,0,0,0.1c0,0,0,0.1,0,0.1
				c0,0,0,0.1,0,0.1c0,0.1,0,0.2,0,0.3c0,0.1-0.1,0.1-0.1,0.1c0,0-0.1,0-0.2-0.1s-0.1-0.1-0.2-0.2s-0.2-0.1-0.4-0.2
				s-0.3-0.1-0.5-0.1c-0.4,0-0.7,0.1-0.9,0.4S9,70.7,9,71.2c0,0.3,0,0.5,0.1,0.7c0.1,0.2,0.1,0.4,0.2,0.5c0.1,0.1,0.2,0.3,0.4,0.3
				c0.2,0.1,0.3,0.1,0.5,0.1c0.2,0,0.3,0,0.5-0.1c0.1-0.1,0.3-0.1,0.4-0.2c0.1-0.1,0.2-0.1,0.3-0.2c0.1-0.1,0.1-0.1,0.2-0.1
				c0,0,0,0,0.1,0c0,0,0,0,0,0.1c0,0,0,0.1,0,0.1C11.7,72.6,11.7,72.7,11.7,72.7z"/>
			<path d="M16,73.4C16,73.5,15.9,73.5,16,73.4c-0.1,0.1-0.1,0.1-0.1,0.1c0,0-0.1,0-0.2,0c-0.1,0-0.2,0-0.2,0s-0.1,0-0.1,0
				c0,0,0,0,0-0.1V73c-0.2,0.2-0.4,0.4-0.6,0.5s-0.5,0.2-0.7,0.2c-0.2,0-0.4,0-0.6-0.1c-0.2-0.1-0.3-0.1-0.5-0.3s-0.2-0.3-0.3-0.4
				s-0.1-0.4-0.1-0.6c0-0.2,0-0.5,0.2-0.6c0.1-0.2,0.2-0.3,0.4-0.5c0.2-0.1,0.4-0.2,0.7-0.3c0.3-0.1,0.6-0.1,0.9-0.1h0.6v-0.3
				c0-0.2,0-0.3-0.1-0.4c0-0.1-0.1-0.2-0.2-0.3c-0.1-0.1-0.2-0.2-0.3-0.2s-0.3-0.1-0.5-0.1c-0.2,0-0.4,0-0.5,0.1
				c-0.2,0-0.3,0.1-0.4,0.2c-0.1,0.1-0.2,0.1-0.3,0.2c-0.1,0-0.1,0.1-0.2,0.1c0,0,0,0-0.1,0s0,0-0.1-0.1s0-0.1,0-0.1
				c0,0,0-0.1,0-0.1c0-0.1,0-0.1,0-0.2c0,0,0-0.1,0.1-0.1s0.1-0.1,0.2-0.1c0.1-0.1,0.2-0.1,0.4-0.2c0.1,0,0.3-0.1,0.5-0.1
				c0.2,0,0.3,0,0.5,0c0.3,0,0.6,0,0.8,0.1c0.2,0.1,0.4,0.2,0.5,0.3c0.1,0.1,0.2,0.3,0.3,0.5c0.1,0.2,0.1,0.4,0.1,0.7V73.4z
				 M15.2,71.4h-0.7c-0.2,0-0.4,0-0.6,0.1c-0.2,0-0.3,0.1-0.4,0.2s-0.2,0.2-0.2,0.3s-0.1,0.2-0.1,0.4c0,0.2,0.1,0.4,0.2,0.5
				c0.1,0.1,0.3,0.2,0.6,0.2c0.2,0,0.4-0.1,0.6-0.2s0.4-0.3,0.6-0.5V71.4z"/>
			<path d="M21.2,68.9c0.1,0,0.2,0,0.2,0.1c0,0,0.1,0.1,0.1,0.2v4.3c0,0,0,0,0,0.1c0,0,0,0-0.1,0s-0.1,0-0.1,0c-0.1,0-0.1,0-0.2,0
				c-0.1,0-0.1,0-0.2,0c-0.1,0-0.1,0-0.1,0s-0.1,0-0.1,0c0,0,0,0,0-0.1v-3.9h-2.3V72c0,0.3,0,0.5,0.1,0.7c0.1,0.2,0.3,0.2,0.5,0.2
				c0.1,0,0.1,0,0.2,0s0.1,0,0.2,0c0,0,0.1,0,0.1,0c0,0,0.1,0,0.1,0c0,0,0,0,0,0c0,0,0,0,0,0s0,0.1,0,0.1c0,0,0,0.1,0,0.1
				c0,0.1,0,0.2,0,0.2c0,0.1,0,0.1-0.1,0.1c0,0-0.1,0.1-0.1,0.1c-0.1,0-0.1,0-0.2,0.1s-0.1,0-0.2,0c-0.1,0-0.1,0-0.2,0
				c-0.2,0-0.4,0-0.6-0.1c-0.2-0.1-0.3-0.2-0.4-0.3c-0.1-0.1-0.2-0.3-0.2-0.5c0-0.2-0.1-0.4-0.1-0.7v-2.6h-0.6c0,0-0.1,0-0.1-0.1
				s0-0.1,0-0.3c0-0.1,0-0.1,0-0.2s0-0.1,0-0.1c0,0,0,0,0.1-0.1c0,0,0,0,0.1,0h0.6v-1c0,0,0,0,0-0.1s0,0,0.1-0.1s0.1,0,0.1,0
				c0.1,0,0.1,0,0.2,0c0.1,0,0.1,0,0.2,0c0.1,0,0.1,0,0.1,0s0,0,0.1,0.1c0,0,0,0,0,0.1v1H21.2z M21.5,67.5c0,0.2,0,0.3-0.1,0.4
				C21.3,68,21.2,68,21,68c-0.2,0-0.3,0-0.4-0.1c-0.1-0.1-0.1-0.2-0.1-0.4c0-0.2,0-0.3,0.1-0.4c0.1-0.1,0.2-0.1,0.4-0.1
				c0.2,0,0.3,0,0.4,0.1C21.5,67.2,21.5,67.3,21.5,67.5z"/>
			<path d="M27,71.2c0,0.4,0,0.7-0.1,1c-0.1,0.3-0.2,0.6-0.4,0.8s-0.4,0.4-0.7,0.5c-0.3,0.1-0.6,0.2-1,0.2c-0.4,0-0.7-0.1-0.9-0.2
				s-0.5-0.3-0.7-0.5c-0.2-0.2-0.3-0.5-0.4-0.7s-0.1-0.6-0.1-1c0-0.4,0-0.7,0.1-1c0.1-0.3,0.2-0.6,0.4-0.8s0.4-0.4,0.7-0.5
				c0.3-0.1,0.6-0.2,1-0.2c0.4,0,0.7,0.1,0.9,0.2s0.5,0.3,0.7,0.5c0.2,0.2,0.3,0.5,0.4,0.7S27,70.8,27,71.2z M26.2,71.2
				c0-0.2,0-0.5-0.1-0.7c0-0.2-0.1-0.4-0.2-0.6c-0.1-0.2-0.2-0.3-0.4-0.4s-0.4-0.1-0.7-0.1c-0.2,0-0.4,0-0.6,0.1s-0.3,0.2-0.4,0.4
				c-0.1,0.2-0.2,0.3-0.3,0.5c-0.1,0.2-0.1,0.4-0.1,0.7c0,0.2,0,0.5,0.1,0.7c0,0.2,0.1,0.4,0.2,0.6c0.1,0.2,0.2,0.3,0.4,0.4
				c0.2,0.1,0.4,0.1,0.7,0.1c0.2,0,0.4,0,0.6-0.1s0.3-0.2,0.4-0.4c0.1-0.2,0.2-0.3,0.2-0.5C26.1,71.7,26.2,71.5,26.2,71.2z"/>
			<path d="M32,73.4C32,73.4,32,73.5,32,73.4c0,0.1-0.1,0.1-0.1,0.1s-0.1,0-0.1,0c-0.1,0-0.1,0-0.2,0c-0.1,0-0.1,0-0.2,0
				c-0.1,0-0.1,0-0.1,0s0,0-0.1,0c0,0,0,0,0-0.1v-2.6c0-0.3,0-0.5-0.1-0.6s-0.1-0.3-0.2-0.4c-0.1-0.1-0.2-0.2-0.3-0.3
				s-0.3-0.1-0.4-0.1c-0.2,0-0.4,0.1-0.6,0.2c-0.2,0.1-0.4,0.4-0.6,0.6v3.1c0,0,0,0,0,0.1c0,0,0,0-0.1,0s-0.1,0-0.1,0
				c-0.1,0-0.1,0-0.2,0c-0.1,0-0.1,0-0.2,0c-0.1,0-0.1,0-0.1,0s-0.1,0-0.1,0c0,0,0,0,0-0.1V69c0,0,0,0,0-0.1c0,0,0,0,0.1,0
				s0.1,0,0.1,0c0,0,0.1,0,0.2,0c0.1,0,0.1,0,0.2,0s0.1,0,0.1,0c0,0,0,0,0.1,0c0,0,0,0,0,0.1v0.6c0.2-0.3,0.5-0.5,0.7-0.6
				c0.2-0.1,0.5-0.2,0.7-0.2c0.3,0,0.5,0,0.7,0.1c0.2,0.1,0.4,0.2,0.5,0.4c0.1,0.2,0.2,0.4,0.3,0.6c0.1,0.2,0.1,0.5,0.1,0.8V73.4z"
				/>
			<path d="M8.6,83.2c0,0.1,0,0.1,0,0.2s0,0.1,0,0.1c0,0-0.1,0-0.1,0s-0.1,0-0.2,0c-0.1,0-0.2,0-0.2,0c-0.1,0-0.1,0-0.1,0
				c0,0-0.1,0-0.1,0s0,0,0-0.1l-0.5-1.5H4.6l-0.5,1.5c0,0,0,0.1,0,0.1c0,0,0,0-0.1,0.1c0,0-0.1,0-0.1,0s-0.1,0-0.2,0
				c-0.1,0-0.2,0-0.2,0c-0.1,0-0.1,0-0.1,0s0-0.1,0-0.1s0-0.1,0-0.2l2.1-5.9c0,0,0-0.1,0.1-0.1s0.1,0,0.1-0.1s0.1,0,0.2,0
				s0.1,0,0.2,0c0.1,0,0.2,0,0.3,0s0.1,0,0.2,0c0,0,0.1,0,0.1,0.1c0,0,0,0.1,0.1,0.1L8.6,83.2z M5.9,78.1L5.9,78.1l-1.1,3.1H7
				L5.9,78.1z"/>
			<path d="M13.6,79.1c0,0.3-0.1,0.6-0.2,0.9c-0.1,0.3-0.3,0.5-0.4,0.6s-0.4,0.3-0.7,0.4s-0.6,0.1-1,0.1h-0.7v2.3c0,0,0,0,0,0.1
				s0,0-0.1,0c0,0-0.1,0-0.1,0c-0.1,0-0.1,0-0.2,0c-0.1,0-0.1,0-0.2,0c-0.1,0-0.1,0-0.1,0c0,0-0.1,0-0.1,0c0,0,0,0,0-0.1v-5.8
				c0-0.1,0-0.2,0.1-0.3s0.1-0.1,0.2-0.1h1.4c0.1,0,0.3,0,0.4,0c0.1,0,0.3,0,0.4,0.1c0.2,0,0.3,0.1,0.5,0.2s0.3,0.2,0.5,0.4
				c0.1,0.1,0.2,0.3,0.3,0.5C13.5,78.6,13.6,78.8,13.6,79.1z M12.7,79.1c0-0.3,0-0.5-0.1-0.6s-0.2-0.3-0.4-0.4s-0.3-0.1-0.4-0.2
				s-0.3,0-0.4,0h-0.8v2.5h0.8c0.3,0,0.5,0,0.6-0.1s0.3-0.2,0.4-0.3c0.1-0.1,0.2-0.3,0.3-0.4S12.7,79.3,12.7,79.1z"/>
			<path d="M15.7,83.4C15.7,83.4,15.7,83.5,15.7,83.4c0,0.1-0.1,0.1-0.1,0.1c0,0-0.1,0-0.1,0c-0.1,0-0.1,0-0.2,0c-0.1,0-0.1,0-0.2,0
				c-0.1,0-0.1,0-0.1,0c0,0-0.1,0-0.1,0c0,0,0,0,0-0.1v-6.1c0,0,0,0,0-0.1s0,0,0.1,0c0,0,0.1,0,0.1,0c0.1,0,0.1,0,0.2,0
				c0.1,0,0.1,0,0.2,0c0.1,0,0.1,0,0.1,0c0,0,0.1,0,0.1,0c0,0,0,0,0,0.1V83.4z"/>
			<v:paragraph  v:horizAlign="1"></v:paragraph>
			<v:tabList></v:tabList>
		</g>
	</g>
	<g>
		<rect x="137.4" y="1.9" class="st5" width="73.6" height="21.6"/>
		<path class="st6" d="M154.7,8.4c0,0.1,0,0.1,0,0.2c0,0,0,0.1,0,0.1s-0.1,0-0.1,0c-0.1,0-0.1,0-0.2,0s-0.2,0-0.2,0
			c-0.1,0-0.1,0-0.1,0c0,0-0.1,0-0.1,0s0,0,0-0.1L153.3,7h-2.6l-0.5,1.5c0,0,0,0.1,0,0.1c0,0,0,0-0.1,0.1c0,0-0.1,0-0.1,0
			c-0.1,0-0.1,0-0.2,0c-0.1,0-0.2,0-0.2,0c-0.1,0-0.1,0-0.1,0s0-0.1,0-0.1c0,0,0-0.1,0-0.2l2.1-5.9c0,0,0-0.1,0.1-0.1
			c0,0,0.1,0,0.1-0.1c0,0,0.1,0,0.2,0s0.1,0,0.2,0c0.1,0,0.2,0,0.3,0s0.1,0,0.2,0s0.1,0,0.1,0.1s0,0.1,0.1,0.1L154.7,8.4z M152,3.2
			L152,3.2l-1.1,3.1h2.2L152,3.2z"/>
		<path class="st6" d="M159.5,8.6C159.5,8.6,159.5,8.6,159.5,8.6c0,0.1,0,0.1-0.1,0.1s-0.1,0-0.1,0c0,0-0.1,0-0.2,0
			c-0.1,0-0.1,0-0.2,0c0,0-0.1,0-0.1,0c0,0,0,0-0.1,0c0,0,0,0,0-0.1V8c-0.3,0.3-0.5,0.5-0.7,0.6s-0.5,0.2-0.7,0.2
			c-0.3,0-0.5,0-0.7-0.1s-0.4-0.2-0.5-0.4c-0.1-0.2-0.2-0.4-0.3-0.6c-0.1-0.2-0.1-0.5-0.1-0.8V4.2c0,0,0,0,0-0.1c0,0,0,0,0.1,0
			s0.1,0,0.1,0s0.1,0,0.2,0s0.1,0,0.2,0s0.1,0,0.1,0c0,0,0.1,0,0.1,0s0,0,0,0.1v2.6c0,0.3,0,0.5,0.1,0.6c0,0.2,0.1,0.3,0.2,0.4
			c0.1,0.1,0.2,0.2,0.3,0.3c0.1,0.1,0.3,0.1,0.4,0.1c0.2,0,0.4-0.1,0.6-0.2s0.4-0.4,0.6-0.6V4.2c0,0,0,0,0-0.1c0,0,0,0,0.1,0
			s0.1,0,0.1,0c0,0,0.1,0,0.2,0c0.1,0,0.1,0,0.2,0s0.1,0,0.1,0s0.1,0,0.1,0s0,0,0,0.1V8.6z"/>
		<path class="st6" d="M163.2,8.2c0,0.1,0,0.2,0,0.2s0,0.1-0.1,0.1s-0.1,0.1-0.1,0.1s-0.1,0-0.2,0.1c-0.1,0-0.1,0-0.2,0
			s-0.1,0-0.2,0c-0.2,0-0.4,0-0.6-0.1c-0.2-0.1-0.3-0.2-0.4-0.3s-0.2-0.3-0.2-0.5c0-0.2-0.1-0.4-0.1-0.7V4.7h-0.6c0,0-0.1,0-0.1-0.1
			s0-0.1,0-0.3c0-0.1,0-0.1,0-0.2c0,0,0-0.1,0-0.1s0,0,0.1-0.1c0,0,0,0,0.1,0h0.6V3c0,0,0,0,0-0.1c0,0,0,0,0.1-0.1c0,0,0.1,0,0.1,0
			s0.1,0,0.2,0c0.1,0,0.1,0,0.2,0s0.1,0,0.1,0s0.1,0,0.1,0.1s0,0,0,0.1v1h1.1c0,0,0,0,0.1,0s0,0,0.1,0.1s0,0.1,0,0.1s0,0.1,0,0.2
			c0,0.1,0,0.2,0,0.3s-0.1,0.1-0.1,0.1H162v2.5c0,0.3,0,0.5,0.1,0.7c0.1,0.2,0.2,0.2,0.5,0.2c0.1,0,0.1,0,0.2,0s0.1,0,0.2,0
			s0.1,0,0.1,0s0.1,0,0.1,0c0,0,0,0,0,0c0,0,0,0,0,0c0,0,0,0.1,0,0.1S163.2,8.2,163.2,8.2z"/>
		<path class="st6" d="M168.3,6.3c0,0.4,0,0.7-0.1,1c-0.1,0.3-0.2,0.6-0.4,0.8c-0.2,0.2-0.4,0.4-0.7,0.5c-0.3,0.1-0.6,0.2-1,0.2
			c-0.4,0-0.7-0.1-0.9-0.2s-0.5-0.3-0.7-0.5s-0.3-0.5-0.4-0.7s-0.1-0.6-0.1-1c0-0.4,0-0.7,0.1-1c0.1-0.3,0.2-0.6,0.4-0.8
			c0.2-0.2,0.4-0.4,0.7-0.5s0.6-0.2,1-0.2c0.4,0,0.7,0.1,0.9,0.2s0.5,0.3,0.7,0.5s0.3,0.5,0.4,0.7C168.3,5.6,168.3,5.9,168.3,6.3z
			 M167.5,6.4c0-0.2,0-0.5-0.1-0.7c0-0.2-0.1-0.4-0.2-0.6c-0.1-0.2-0.2-0.3-0.4-0.4c-0.2-0.1-0.4-0.1-0.7-0.1c-0.2,0-0.4,0-0.6,0.1
			c-0.2,0.1-0.3,0.2-0.4,0.4s-0.2,0.3-0.2,0.5c-0.1,0.2-0.1,0.4-0.1,0.7c0,0.2,0,0.5,0.1,0.7c0,0.2,0.1,0.4,0.2,0.6
			c0.1,0.2,0.2,0.3,0.4,0.4c0.2,0.1,0.4,0.1,0.7,0.1c0.2,0,0.4,0,0.6-0.1s0.3-0.2,0.4-0.4s0.2-0.3,0.2-0.5S167.5,6.6,167.5,6.4z"/>
		<path class="st6" d="M172.1,4.4c0,0.1,0,0.1,0,0.2s0,0.1,0,0.1s0,0,0,0.1s0,0-0.1,0s-0.1,0-0.1,0c0,0-0.1,0-0.1,0c0,0-0.1,0-0.2,0
			s-0.1,0-0.2,0c-0.1,0-0.2,0-0.2,0s-0.2,0.1-0.2,0.2c-0.1,0.1-0.2,0.2-0.3,0.3c-0.1,0.1-0.2,0.3-0.3,0.5v2.9c0,0,0,0,0,0.1
			c0,0,0,0-0.1,0s-0.1,0-0.1,0s-0.1,0-0.2,0c-0.1,0-0.1,0-0.2,0s-0.1,0-0.1,0c0,0-0.1,0-0.1,0c0,0,0,0,0-0.1V4.2c0,0,0,0,0-0.1
			s0,0,0.1,0s0.1,0,0.1,0s0.1,0,0.2,0c0.1,0,0.1,0,0.2,0c0,0,0.1,0,0.1,0s0,0,0.1,0c0,0,0,0,0,0.1v0.6c0.1-0.2,0.2-0.3,0.3-0.4
			c0.1-0.1,0.2-0.2,0.3-0.3S171,4,171.1,4s0.2,0,0.3,0c0,0,0.1,0,0.1,0s0.1,0,0.2,0s0.1,0,0.2,0c0,0,0.1,0,0.1,0s0,0,0,0s0,0,0,0.1
			s0,0.1,0,0.1C172.1,4.3,172.1,4.4,172.1,4.4z"/>
		<path class="st6" d="M173.9,2.7c0,0.2,0,0.3-0.1,0.4s-0.2,0.1-0.4,0.1c-0.2,0-0.3,0-0.4-0.1c-0.1-0.1-0.1-0.2-0.1-0.4
			c0-0.2,0-0.3,0.1-0.4s0.2-0.1,0.4-0.1c0.2,0,0.3,0,0.4,0.1C173.8,2.4,173.9,2.5,173.9,2.7z M173.8,8.6
			C173.8,8.6,173.8,8.6,173.8,8.6c0,0.1-0.1,0.1-0.1,0.1s-0.1,0-0.1,0s-0.1,0-0.2,0c-0.1,0-0.1,0-0.2,0s-0.1,0-0.1,0
			c0,0-0.1,0-0.1,0c0,0,0,0,0-0.1V4.2c0,0,0,0,0-0.1c0,0,0,0,0.1,0c0,0,0.1,0,0.1,0s0.1,0,0.2,0c0.1,0,0.1,0,0.2,0s0.1,0,0.1,0
			s0.1,0,0.1,0s0,0,0,0.1V8.6z"/>
		<path class="st6" d="M178,7.4c0,0.2,0,0.4-0.1,0.6s-0.2,0.3-0.4,0.4s-0.3,0.2-0.5,0.3s-0.4,0.1-0.7,0.1c-0.2,0-0.3,0-0.4,0
			s-0.3-0.1-0.4-0.1c-0.1,0-0.2-0.1-0.3-0.1c-0.1,0-0.1-0.1-0.2-0.1s-0.1-0.1-0.1-0.1s0-0.1,0-0.2c0-0.1,0-0.1,0-0.2s0-0.1,0-0.1
			s0,0,0-0.1c0,0,0,0,0.1,0c0,0,0.1,0,0.2,0.1c0.1,0,0.2,0.1,0.3,0.1s0.2,0.1,0.4,0.1s0.3,0.1,0.5,0.1c0.1,0,0.3,0,0.4,0
			S176.9,8,177,8c0.1-0.1,0.1-0.1,0.2-0.2s0.1-0.2,0.1-0.3c0-0.1,0-0.2-0.1-0.3S177,7,176.9,6.9s-0.2-0.1-0.4-0.2
			c-0.1,0-0.3-0.1-0.4-0.2c-0.1-0.1-0.3-0.1-0.4-0.2c-0.1-0.1-0.3-0.2-0.4-0.3s-0.2-0.2-0.3-0.4c-0.1-0.1-0.1-0.3-0.1-0.5
			c0-0.2,0-0.3,0.1-0.5c0.1-0.2,0.2-0.3,0.3-0.4s0.3-0.2,0.5-0.3s0.4-0.1,0.7-0.1c0.1,0,0.2,0,0.4,0s0.2,0,0.3,0.1s0.2,0.1,0.2,0.1
			c0.1,0,0.1,0.1,0.2,0.1s0.1,0,0.1,0.1c0,0,0,0,0,0.1s0,0.1,0,0.1s0,0.1,0,0.1c0,0.1,0,0.1,0,0.1s0,0.1,0,0.1c0,0,0,0,0,0.1
			s0,0-0.1,0c0,0-0.1,0-0.1-0.1s-0.1-0.1-0.2-0.1s-0.2-0.1-0.3-0.1c-0.1,0-0.3-0.1-0.4-0.1c-0.1,0-0.3,0-0.4,0s-0.2,0.1-0.3,0.1
			c-0.1,0.1-0.1,0.1-0.2,0.2s-0.1,0.2-0.1,0.3c0,0.1,0,0.2,0.1,0.3c0.1,0.1,0.1,0.2,0.3,0.2s0.2,0.1,0.4,0.2s0.3,0.1,0.4,0.2
			c0.1,0.1,0.3,0.1,0.4,0.2c0.1,0.1,0.3,0.2,0.4,0.2s0.2,0.2,0.3,0.4S178,7.2,178,7.4z"/>
		<path class="st6" d="M182.5,8.6C182.5,8.6,182.5,8.6,182.5,8.6c-0.1,0.1-0.1,0.1-0.1,0.1s-0.1,0-0.2,0c-0.1,0-0.2,0-0.2,0
			c-0.1,0-0.1,0-0.1,0s0,0,0-0.1V8.1c-0.2,0.2-0.4,0.4-0.6,0.5c-0.2,0.1-0.5,0.2-0.8,0.2c-0.2,0-0.4,0-0.6-0.1
			c-0.2-0.1-0.3-0.1-0.5-0.3S179.1,8.2,179,8s-0.1-0.4-0.1-0.6c0-0.2,0.1-0.5,0.2-0.6s0.2-0.3,0.4-0.5s0.4-0.2,0.7-0.3
			c0.3-0.1,0.6-0.1,0.9-0.1h0.6V5.6c0-0.2,0-0.3-0.1-0.4c0-0.1-0.1-0.2-0.2-0.3c-0.1-0.1-0.2-0.2-0.3-0.2s-0.3-0.1-0.5-0.1
			c-0.2,0-0.4,0-0.5,0.1c-0.2,0-0.3,0.1-0.4,0.2c-0.1,0.1-0.2,0.1-0.3,0.2c-0.1,0-0.1,0.1-0.2,0.1c0,0,0,0-0.1,0s0,0-0.1-0.1
			s0-0.1,0-0.1s0-0.1,0-0.1c0-0.1,0-0.1,0-0.2c0,0,0-0.1,0.1-0.1s0.1-0.1,0.2-0.1s0.2-0.1,0.4-0.2s0.3-0.1,0.5-0.1s0.3,0,0.5,0
			c0.3,0,0.6,0,0.8,0.1s0.4,0.2,0.5,0.3s0.2,0.3,0.3,0.5s0.1,0.4,0.1,0.7V8.6z M181.7,6.6H181c-0.2,0-0.4,0-0.6,0.1
			c-0.2,0-0.3,0.1-0.4,0.2s-0.2,0.2-0.2,0.3c-0.1,0.1-0.1,0.2-0.1,0.4c0,0.2,0.1,0.4,0.2,0.5c0.1,0.1,0.3,0.2,0.6,0.2
			c0.2,0,0.4-0.1,0.6-0.2s0.4-0.3,0.6-0.5V6.6z"/>
		<path class="st6" d="M187.7,4c0.1,0,0.2,0,0.2,0.1s0.1,0.1,0.1,0.2v4.3c0,0,0,0,0,0.1c0,0,0,0-0.1,0c0,0-0.1,0-0.1,0s-0.1,0-0.2,0
			c-0.1,0-0.1,0-0.2,0s-0.1,0-0.1,0c0,0-0.1,0-0.1,0c0,0,0,0,0-0.1V4.7h-2.3v2.5c0,0.3,0,0.5,0.1,0.7c0.1,0.2,0.2,0.2,0.5,0.2
			c0.1,0,0.1,0,0.2,0s0.1,0,0.2,0s0.1,0,0.1,0s0.1,0,0.1,0c0,0,0,0,0,0c0,0,0,0,0,0c0,0,0,0.1,0,0.1s0,0.1,0,0.1c0,0.1,0,0.2,0,0.2
			s0,0.1-0.1,0.1c0,0-0.1,0.1-0.1,0.1s-0.1,0-0.2,0.1c-0.1,0-0.1,0-0.2,0s-0.1,0-0.2,0c-0.2,0-0.4,0-0.6-0.1
			c-0.2-0.1-0.3-0.2-0.4-0.3s-0.2-0.3-0.2-0.5c0-0.2-0.1-0.4-0.1-0.7V4.7h-0.6c0,0-0.1,0-0.1-0.1s0-0.1,0-0.3c0-0.1,0-0.1,0-0.2
			c0,0,0-0.1,0-0.1s0,0,0.1-0.1c0,0,0,0,0.1,0h0.6V3c0,0,0,0,0-0.1c0,0,0,0,0.1-0.1c0,0,0.1,0,0.1,0s0.1,0,0.2,0c0.1,0,0.1,0,0.2,0
			s0.1,0,0.1,0s0.1,0,0.1,0.1s0,0,0,0.1v1H187.7z M188,2.7c0,0.2,0,0.3-0.1,0.4s-0.2,0.1-0.4,0.1c-0.2,0-0.3,0-0.4-0.1
			C187.1,3,187,2.9,187,2.7c0-0.2,0-0.3,0.1-0.4s0.2-0.1,0.4-0.1c0.2,0,0.3,0,0.4,0.1C188,2.4,188,2.5,188,2.7z"/>
		<path class="st6" d="M193.5,6.3c0,0.4,0,0.7-0.1,1c-0.1,0.3-0.2,0.6-0.4,0.8c-0.2,0.2-0.4,0.4-0.7,0.5c-0.3,0.1-0.6,0.2-1,0.2
			c-0.4,0-0.7-0.1-0.9-0.2s-0.5-0.3-0.7-0.5s-0.3-0.5-0.4-0.7s-0.1-0.6-0.1-1c0-0.4,0-0.7,0.1-1c0.1-0.3,0.2-0.6,0.4-0.8
			c0.2-0.2,0.4-0.4,0.7-0.5s0.6-0.2,1-0.2c0.4,0,0.7,0.1,0.9,0.2s0.5,0.3,0.7,0.5s0.3,0.5,0.4,0.7C193.5,5.6,193.5,5.9,193.5,6.3z
			 M192.7,6.4c0-0.2,0-0.5-0.1-0.7c0-0.2-0.1-0.4-0.2-0.6c-0.1-0.2-0.2-0.3-0.4-0.4c-0.2-0.1-0.4-0.1-0.7-0.1c-0.2,0-0.4,0-0.6,0.1
			c-0.2,0.1-0.3,0.2-0.4,0.4s-0.2,0.3-0.2,0.5C190,5.9,190,6.1,190,6.3c0,0.2,0,0.5,0.1,0.7c0,0.2,0.1,0.4,0.2,0.6
			c0.1,0.2,0.2,0.3,0.4,0.4c0.2,0.1,0.4,0.1,0.7,0.1c0.2,0,0.4,0,0.6-0.1s0.3-0.2,0.4-0.4s0.2-0.3,0.2-0.5S192.7,6.6,192.7,6.4z"/>
		<path class="st6" d="M198.5,8.6C198.5,8.6,198.5,8.6,198.5,8.6c0,0.1-0.1,0.1-0.1,0.1s-0.1,0-0.1,0s-0.1,0-0.2,0
			c-0.1,0-0.1,0-0.2,0s-0.1,0-0.1,0s-0.1,0-0.1,0c0,0,0,0,0-0.1V6c0-0.3,0-0.5-0.1-0.6s-0.1-0.3-0.2-0.4s-0.2-0.2-0.3-0.3
			c-0.1-0.1-0.3-0.1-0.4-0.1c-0.2,0-0.4,0.1-0.6,0.2s-0.4,0.4-0.6,0.6v3.1c0,0,0,0,0,0.1c0,0,0,0-0.1,0s-0.1,0-0.1,0s-0.1,0-0.2,0
			c-0.1,0-0.1,0-0.2,0s-0.1,0-0.1,0c0,0-0.1,0-0.1,0c0,0,0,0,0-0.1V4.2c0,0,0,0,0-0.1s0,0,0.1,0s0.1,0,0.1,0s0.1,0,0.2,0
			c0.1,0,0.1,0,0.2,0c0,0,0.1,0,0.1,0s0,0,0.1,0c0,0,0,0,0,0.1v0.6c0.2-0.3,0.5-0.5,0.7-0.6c0.2-0.1,0.5-0.2,0.7-0.2
			c0.3,0,0.5,0,0.7,0.1s0.4,0.2,0.5,0.4s0.2,0.4,0.3,0.6s0.1,0.5,0.1,0.8V8.6z"/>
		<path class="st6" d="M154.1,20.6C154.1,20.6,154.1,20.6,154.1,20.6c0,0.1-0.1,0.1-0.1,0.1c0,0-0.1,0-0.1,0s-0.1,0-0.2,0
			s-0.1,0-0.2,0s-0.1,0-0.1,0c0,0-0.1,0-0.1,0c0,0,0,0,0-0.1v-6c0,0,0,0,0,0s0,0-0.1,0c0,0-0.1,0-0.2,0c-0.1,0-0.2,0-0.2,0
			c-0.1,0-0.2,0-0.2,0s-0.2,0-0.2,0c-0.2,0-0.4,0-0.5,0.1c-0.1,0-0.2,0.1-0.3,0.2s-0.1,0.2-0.2,0.3c0,0.1,0,0.3,0,0.5V16h0.9
			c0,0,0,0,0.1,0c0,0,0,0,0.1,0.1c0,0,0,0.1,0,0.1s0,0.1,0,0.2c0,0.1,0,0.2,0,0.3c0,0.1-0.1,0.1-0.1,0.1h-0.9v3.9c0,0,0,0,0,0.1
			c0,0,0,0-0.1,0c0,0-0.1,0-0.1,0s-0.1,0-0.2,0s-0.1,0-0.2,0s-0.1,0-0.1,0c0,0-0.1,0-0.1,0c0,0,0,0,0-0.1v-3.9h-0.6
			c-0.1,0-0.1,0-0.1-0.1s0-0.1,0-0.3c0-0.1,0-0.1,0-0.2s0-0.1,0-0.1c0,0,0,0,0-0.1c0,0,0,0,0.1,0h0.6v-0.5c0-0.3,0-0.6,0.1-0.8
			s0.2-0.4,0.3-0.5c0.1-0.1,0.3-0.2,0.5-0.3c0.2-0.1,0.5-0.1,0.8-0.1c0.1,0,0.2,0,0.3,0s0.2,0,0.3,0c0.1,0,0.2,0,0.2,0
			c0.1,0,0.1,0,0.2,0c0,0,0.1,0,0.1,0s0,0,0,0.1c0,0,0-0.1,0-0.1c0,0,0,0,0.1-0.1c0,0,0.1,0,0.1,0s0.1,0,0.2,0c0.1,0,0.1,0,0.2,0
			s0.1,0,0.1,0c0,0,0.1,0,0.1,0s0,0,0,0.1V20.6z"/>
		<path class="st6" d="M159.4,20.6C159.4,20.6,159.4,20.6,159.4,20.6c0,0.1,0,0.1-0.1,0.1s-0.1,0-0.1,0c0,0-0.1,0-0.2,0
			c-0.1,0-0.1,0-0.2,0c0,0-0.1,0-0.1,0c0,0,0,0-0.1,0c0,0,0,0,0-0.1V20c-0.3,0.3-0.5,0.5-0.7,0.6s-0.5,0.2-0.7,0.2
			c-0.3,0-0.5,0-0.7-0.1s-0.4-0.2-0.5-0.4c-0.1-0.2-0.2-0.4-0.3-0.6c-0.1-0.2-0.1-0.5-0.1-0.8v-2.7c0,0,0,0,0-0.1c0,0,0,0,0.1,0
			s0.1,0,0.1,0s0.1,0,0.2,0s0.1,0,0.2,0s0.1,0,0.1,0c0,0,0.1,0,0.1,0c0,0,0,0,0,0.1v2.6c0,0.3,0,0.5,0.1,0.6c0,0.2,0.1,0.3,0.2,0.4
			c0.1,0.1,0.2,0.2,0.3,0.3c0.1,0.1,0.3,0.1,0.4,0.1c0.2,0,0.4-0.1,0.6-0.2s0.4-0.4,0.6-0.6v-3.1c0,0,0,0,0-0.1c0,0,0,0,0.1,0
			s0.1,0,0.1,0c0,0,0.1,0,0.2,0c0.1,0,0.1,0,0.2,0s0.1,0,0.1,0s0.1,0,0.1,0c0,0,0,0,0,0.1V20.6z"/>
		<path class="st6" d="M164.2,20.5c0,0,0,0.1,0,0.1c0,0,0,0.1,0,0.1c0,0-0.1,0-0.1,0c-0.1,0-0.1,0-0.2,0c-0.1,0-0.2,0-0.2,0
			c-0.1,0-0.1,0-0.1,0c0,0-0.1,0-0.1,0c0,0,0,0,0-0.1l-1.1-1.7l-1,1.7c0,0,0,0,0,0.1c0,0,0,0-0.1,0c0,0-0.1,0-0.1,0s-0.1,0-0.2,0
			c-0.1,0-0.2,0-0.2,0c-0.1,0-0.1,0-0.1,0c0,0,0,0,0-0.1c0,0,0-0.1,0-0.1l1.4-2.1l-1.3-2.1c0,0,0-0.1,0-0.1c0,0,0-0.1,0-0.1
			c0,0,0.1,0,0.1,0s0.1,0,0.3,0c0.1,0,0.2,0,0.2,0c0.1,0,0.1,0,0.1,0s0.1,0,0.1,0s0,0,0,0.1l1,1.6l1-1.6c0,0,0,0,0-0.1s0,0,0.1,0
			c0,0,0.1,0,0.1,0c0,0,0.1,0,0.2,0c0.1,0,0.2,0,0.2,0c0.1,0,0.1,0,0.1,0c0,0,0,0,0,0.1s0,0.1,0,0.1l-1.3,2L164.2,20.5z"/>
		<path class="st6" d="M171.2,20.6C171.2,20.6,171.2,20.6,171.2,20.6c0,0.1,0,0.1-0.1,0.1c0,0-0.1,0-0.1,0s-0.1,0-0.2,0
			c-0.1,0-0.1,0-0.2,0s-0.1,0-0.1,0c0,0-0.1,0-0.1,0s0,0,0-0.1V20c-0.2,0.3-0.5,0.4-0.7,0.6s-0.5,0.2-0.8,0.2
			c-0.3,0-0.6-0.1-0.8-0.2c-0.2-0.1-0.4-0.3-0.6-0.5c-0.1-0.2-0.2-0.5-0.3-0.8s-0.1-0.6-0.1-0.9c0-0.4,0-0.7,0.1-1
			c0.1-0.3,0.2-0.6,0.4-0.8s0.4-0.4,0.6-0.5c0.2-0.1,0.5-0.2,0.8-0.2c0.3,0,0.5,0.1,0.7,0.2c0.2,0.1,0.4,0.3,0.6,0.5v-2.6
			c0,0,0,0,0-0.1c0,0,0,0,0.1,0c0,0,0.1,0,0.1,0c0,0,0.1,0,0.2,0c0.1,0,0.1,0,0.2,0c0.1,0,0.1,0,0.1,0c0,0,0.1,0,0.1,0
			c0,0,0,0,0,0.1V20.6z M170.4,17.5c-0.2-0.3-0.4-0.5-0.6-0.6c-0.2-0.1-0.4-0.2-0.6-0.2c-0.2,0-0.4,0-0.5,0.1s-0.3,0.2-0.3,0.4
			c-0.1,0.2-0.2,0.3-0.2,0.5c0,0.2-0.1,0.4-0.1,0.6c0,0.2,0,0.4,0.1,0.6s0.1,0.4,0.2,0.6c0.1,0.2,0.2,0.3,0.3,0.4
			c0.1,0.1,0.3,0.1,0.5,0.1c0.1,0,0.2,0,0.3,0c0.1,0,0.2-0.1,0.3-0.1s0.2-0.2,0.3-0.3c0.1-0.1,0.2-0.2,0.4-0.4V17.5z"/>
		<path class="st6" d="M176.5,18.2c0,0.1,0,0.2-0.1,0.3s-0.1,0.1-0.2,0.1h-2.9c0,0.2,0,0.5,0.1,0.7c0,0.2,0.1,0.4,0.2,0.5
			c0.1,0.1,0.3,0.2,0.4,0.3c0.2,0.1,0.4,0.1,0.7,0.1c0.2,0,0.4,0,0.6-0.1c0.2,0,0.3-0.1,0.4-0.1c0.1,0,0.2-0.1,0.3-0.1
			s0.1-0.1,0.2-0.1c0,0,0,0,0.1,0c0,0,0,0,0,0.1s0,0.1,0,0.1c0,0,0,0.1,0,0.1c0,0,0,0.1,0,0.1c0,0,0,0.1,0,0.1s0,0,0,0.1
			c0,0,0,0,0,0.1c0,0-0.1,0-0.2,0.1c-0.1,0-0.2,0.1-0.3,0.1s-0.3,0.1-0.5,0.1c-0.2,0-0.4,0-0.6,0c-0.4,0-0.7-0.1-0.9-0.2
			c-0.3-0.1-0.5-0.3-0.7-0.4s-0.3-0.4-0.4-0.7s-0.1-0.6-0.1-1c0-0.4,0-0.7,0.1-1c0.1-0.3,0.2-0.6,0.4-0.8c0.2-0.2,0.4-0.4,0.7-0.5
			s0.6-0.2,0.9-0.2c0.3,0,0.6,0.1,0.9,0.2c0.2,0.1,0.4,0.3,0.6,0.4c0.2,0.2,0.3,0.4,0.3,0.7c0.1,0.3,0.1,0.5,0.1,0.8V18.2z
			 M175.6,17.9c0-0.4-0.1-0.8-0.3-1s-0.5-0.4-0.9-0.4c-0.2,0-0.4,0-0.5,0.1c-0.2,0.1-0.3,0.2-0.4,0.3s-0.2,0.3-0.2,0.4
			c-0.1,0.2-0.1,0.3-0.1,0.5H175.6z"/>
		<path class="st6" d="M183.1,19.9c0,0.1,0,0.1,0,0.1c0,0,0,0.1,0,0.1c0,0,0,0.1,0,0.1c0,0,0,0.1-0.1,0.1c0,0-0.1,0.1-0.2,0.2
			c-0.1,0.1-0.2,0.1-0.3,0.2c-0.1,0-0.3,0.1-0.4,0.1s-0.3,0-0.4,0c-0.3,0-0.6-0.1-0.8-0.2s-0.4-0.3-0.6-0.5
			c-0.2-0.2-0.3-0.4-0.4-0.7c-0.1-0.3-0.1-0.6-0.1-1c0-0.4,0.1-0.8,0.2-1.1c0.1-0.3,0.3-0.6,0.4-0.8c0.2-0.2,0.4-0.3,0.6-0.4
			c0.2-0.1,0.5-0.1,0.8-0.1c0.1,0,0.3,0,0.4,0s0.3,0.1,0.4,0.1s0.2,0.1,0.3,0.1c0.1,0.1,0.1,0.1,0.2,0.1s0.1,0.1,0.1,0.1s0,0,0,0.1
			c0,0,0,0.1,0,0.1s0,0.1,0,0.1c0,0.1,0,0.2,0,0.3c0,0.1-0.1,0.1-0.1,0.1c0,0-0.1,0-0.2-0.1s-0.1-0.1-0.2-0.2s-0.2-0.1-0.4-0.2
			c-0.1-0.1-0.3-0.1-0.5-0.1c-0.4,0-0.7,0.1-0.9,0.4c-0.2,0.3-0.3,0.7-0.3,1.3c0,0.3,0,0.5,0.1,0.7c0.1,0.2,0.1,0.4,0.2,0.5
			s0.2,0.3,0.4,0.3c0.2,0.1,0.3,0.1,0.5,0.1c0.2,0,0.3,0,0.5-0.1s0.3-0.1,0.4-0.2c0.1-0.1,0.2-0.1,0.3-0.2c0.1-0.1,0.1-0.1,0.2-0.1
			c0,0,0,0,0.1,0s0,0,0,0.1c0,0,0,0.1,0,0.1C183.1,19.8,183.1,19.8,183.1,19.9z"/>
		<path class="st6" d="M188.2,18.3c0,0.4,0,0.7-0.1,1c-0.1,0.3-0.2,0.6-0.4,0.8c-0.2,0.2-0.4,0.4-0.7,0.5c-0.3,0.1-0.6,0.2-1,0.2
			c-0.4,0-0.7-0.1-0.9-0.2s-0.5-0.3-0.7-0.5s-0.3-0.5-0.4-0.7s-0.1-0.6-0.1-1c0-0.4,0-0.7,0.1-1c0.1-0.3,0.2-0.6,0.4-0.8
			c0.2-0.2,0.4-0.4,0.7-0.5s0.6-0.2,1-0.2c0.4,0,0.7,0.1,0.9,0.2s0.5,0.3,0.7,0.5s0.3,0.5,0.4,0.7C188.1,17.6,188.2,17.9,188.2,18.3
			z M187.3,18.4c0-0.2,0-0.5-0.1-0.7c0-0.2-0.1-0.4-0.2-0.6c-0.1-0.2-0.2-0.3-0.4-0.4c-0.2-0.1-0.4-0.1-0.7-0.1
			c-0.2,0-0.4,0-0.6,0.1c-0.2,0.1-0.3,0.2-0.4,0.4c-0.1,0.2-0.2,0.3-0.2,0.5c-0.1,0.2-0.1,0.4-0.1,0.7c0,0.2,0,0.5,0.1,0.7
			c0,0.2,0.1,0.4,0.2,0.6c0.1,0.2,0.2,0.3,0.4,0.4c0.2,0.1,0.4,0.1,0.7,0.1c0.2,0,0.4,0,0.6-0.1s0.3-0.2,0.4-0.4s0.2-0.3,0.2-0.5
			S187.3,18.6,187.3,18.4z"/>
		<path class="st6" d="M193.1,20.6C193.1,20.6,193.1,20.6,193.1,20.6c0,0.1,0,0.1-0.1,0.1c0,0-0.1,0-0.1,0s-0.1,0-0.2,0
			c-0.1,0-0.1,0-0.2,0s-0.1,0-0.1,0c0,0-0.1,0-0.1,0s0,0,0-0.1V20c-0.2,0.3-0.5,0.4-0.7,0.6s-0.5,0.2-0.8,0.2
			c-0.3,0-0.6-0.1-0.8-0.2c-0.2-0.1-0.4-0.3-0.6-0.5c-0.1-0.2-0.2-0.5-0.3-0.8s-0.1-0.6-0.1-0.9c0-0.4,0-0.7,0.1-1
			c0.1-0.3,0.2-0.6,0.4-0.8s0.4-0.4,0.6-0.5c0.2-0.1,0.5-0.2,0.8-0.2c0.3,0,0.5,0.1,0.7,0.2c0.2,0.1,0.4,0.3,0.6,0.5v-2.6
			c0,0,0,0,0-0.1c0,0,0,0,0.1,0c0,0,0.1,0,0.1,0c0,0,0.1,0,0.2,0c0.1,0,0.1,0,0.2,0c0.1,0,0.1,0,0.1,0c0,0,0.1,0,0.1,0
			c0,0,0,0,0,0.1V20.6z M192.3,17.5c-0.2-0.3-0.4-0.5-0.6-0.6c-0.2-0.1-0.4-0.2-0.6-0.2c-0.2,0-0.4,0-0.5,0.1s-0.3,0.2-0.3,0.4
			c-0.1,0.2-0.2,0.3-0.2,0.5c0,0.2-0.1,0.4-0.1,0.6c0,0.2,0,0.4,0.1,0.6s0.1,0.4,0.2,0.6c0.1,0.2,0.2,0.3,0.3,0.4
			c0.1,0.1,0.3,0.1,0.5,0.1c0.1,0,0.2,0,0.3,0c0.1,0,0.2-0.1,0.3-0.1s0.2-0.2,0.3-0.3c0.1-0.1,0.2-0.2,0.4-0.4V17.5z"/>
		<path class="st6" d="M198.4,18.2c0,0.1,0,0.2-0.1,0.3s-0.1,0.1-0.2,0.1h-2.9c0,0.2,0,0.5,0.1,0.7c0,0.2,0.1,0.4,0.2,0.5
			c0.1,0.1,0.3,0.2,0.4,0.3c0.2,0.1,0.4,0.1,0.7,0.1c0.2,0,0.4,0,0.6-0.1c0.2,0,0.3-0.1,0.4-0.1c0.1,0,0.2-0.1,0.3-0.1
			s0.1-0.1,0.2-0.1c0,0,0,0,0.1,0c0,0,0,0,0,0.1s0,0.1,0,0.1c0,0,0,0.1,0,0.1c0,0,0,0.1,0,0.1c0,0,0,0.1,0,0.1s0,0,0,0.1
			c0,0,0,0,0,0.1c0,0-0.1,0-0.2,0.1c-0.1,0-0.2,0.1-0.3,0.1s-0.3,0.1-0.5,0.1c-0.2,0-0.4,0-0.6,0c-0.4,0-0.7-0.1-0.9-0.2
			c-0.3-0.1-0.5-0.3-0.7-0.4s-0.3-0.4-0.4-0.7s-0.1-0.6-0.1-1c0-0.4,0-0.7,0.1-1c0.1-0.3,0.2-0.6,0.4-0.8c0.2-0.2,0.4-0.4,0.7-0.5
			s0.6-0.2,0.9-0.2c0.3,0,0.6,0.1,0.9,0.2c0.2,0.1,0.4,0.3,0.6,0.4c0.2,0.2,0.3,0.4,0.3,0.7c0.1,0.3,0.1,0.5,0.1,0.8V18.2z
			 M197.5,17.9c0-0.4-0.1-0.8-0.3-1s-0.5-0.4-0.9-0.4c-0.2,0-0.4,0-0.5,0.1c-0.2,0.1-0.3,0.2-0.4,0.3s-0.2,0.3-0.2,0.4
			c-0.1,0.2-0.1,0.3-0.1,0.5H197.5z"/>
	</g>
	<g id="Arrow">
		<g id="shape1579-52_2_" transform="translate(73.5133,-41.2635)">
			<g transform="scale(-2.68,-2.68) ">
				<g id="lend5_2_">
					<path class="st2" d="M132.8,67.6l8,4l-8,4C134.1,73.1,134.1,70.1,132.8,67.6"/>
				</g>
			</g>
		</g>
		<path class="st7" d="M210.3,31.1c-6.8,0-15.7,0-22.1,0c-6.5,0-13.4,0-19.9,0c-6.4,0-11.3,0-19.1,0c-6.5,0-13.1,0-19.6,0
			c-6.4,0-12.5,0-18.9,0c-6.5,0-13.4,0-19.9,0c-6.2,0-8.8,0-15.6,0c-0.2,0-1.5-0.2-1.5-0.8c0-0.6,1.4-0.8,1.7-0.8c3,0,89.5,0,135,0"
			/>
	</g>
</g>
<g id="Src" xmlns:ev="http://www.w3.org/2001/xml-events" xmlns:v="http://schemas.microsoft.com/visio/2003/SVGExtensions/">
	<g>
		<path class="st7" d="M207.5,30.2c0-2.2-0.9-3.4-1.6-4.8c3.1,1.6,6,3.2,9.1,4.7c-3,1.6-5.9,3.1-9.1,4.8
			C206.6,33.4,207.5,32.2,207.5,30.2z"/>
	</g>
</g>
</svg>
