<svg xmlns="http://www.w3.org/2000/svg" viewBox="0 0 204.71 64.78"><title>OJ104440671</title><path d="M191.76,17.85h-20.5A1.1,1.1,0,0,0,170.17,19V35.7a1.09,1.09,0,0,0,1.09,1.1h5.28a3.29,3.29,0,0,0,3.21,2.27,3.37,3.37,0,0,0,0-6.74,3.29,3.29,0,0,0-3.21,2.26h-4.19v-12h18.31v12h-3.45A7.61,7.61,0,0,0,179.75,28a8.25,8.25,0,0,0-3.64.92l1,2a5.39,5.39,0,0,1,2.55-.67,5.46,5.46,0,0,1,0,10.92,5.28,5.28,0,0,1-2.55-.68l-1,2a7.4,7.4,0,0,0,3.64.92,7.61,7.61,0,0,0,7.46-6.56h4.55a1.09,1.09,0,0,0,1.09-1.1V19A1.14,1.14,0,0,0,191.76,17.85Z" fill="#008bfd" fill-rule="evenodd"/><path d="M161.7,26.59l8,4-8,4a9,9,0,0,0,0-8" fill="#505050" fill-rule="evenodd"/><path d="M7.85,22.77a4.5,4.5,0,0,0-3,5.67c.66,2.55,3,4.21,5.27,3.66a4.49,4.49,0,0,0,3-5.66C12.57,23.77,10.16,22.11,7.85,22.77Z" fill="#008bfd" fill-rule="evenodd"/><path d="M12.79,32.79c-.44,0-.88.77-1.54,1.11s-1.32.88-3.18,0S6,32.23,4.44,32.23.38,35,.38,39.11H16a12.05,12.05,0,0,0-1.1-4.21C13.77,32.79,13.23,32.79,12.79,32.79Z" fill="#008bfd" fill-rule="evenodd"/><path d="M14.19,27.84H10.07a.71.71,0,0,0-.65.66v2.85a.73.73,0,0,0,.76.66h.76v5.15a1,1,0,0,0,1,1.09,1,1,0,0,0,1-1h.21v-.66c0-.22.33-.33.33-.33V36c-.33-.11-.54-.33-.54-.44v-.32L13.1,35a3.53,3.53,0,0,0,.33-.55,2.4,2.4,0,0,1-.33-.55c-.1-.11-.1-.33-.21-.44v-.22a2.52,2.52,0,0,1,.76-1.09h.54a.71.71,0,0,0,.65-.66v-3A.63.63,0,0,0,14.19,27.84ZM11.8,37.38c0,.22,0,.33-.21.33s-.22-.22-.22-.33V32.56c0-.22.11-.33.22-.33s.21.22.21.33Zm.33-7.78a.66.66,0,0,1,0-1.32.71.71,0,0,1,.65.66A.63.63,0,0,1,12.13,29.6Z" fill="#008bfd" stroke="gray" stroke-linecap="round" stroke-linejoin="round" stroke-width="0.75" fill-rule="evenodd"/><path d="M11.57,37.68a.24.24,0,0,1-.22-.22v-5a.22.22,0,1,1,.44,0v5.1C11.79,37.68,11.68,37.68,11.57,37.68Z" fill="#fff" fill-rule="evenodd"/><ellipse cx="12.14" cy="28.92" rx="0.66" ry="0.67" fill="#fff"/><rect x="72.98" y="29.74" width="91.04" height="1.75" rx="0.76" fill="#505050"/><path d="M52.06,33.18a16.47,16.47,0,0,1-2-2.35,18.32,18.32,0,0,0-1.66,6.89c.11.16.11.28.23.44a13.4,13.4,0,0,0,2,2.05A14.18,14.18,0,0,1,52.06,33.18Z" fill="#008bfd" fill-rule="evenodd"/><path d="M56.67,23.75a21,21,0,0,0-3.33,3,16.41,16.41,0,0,0-1.61,2.05,15,15,0,0,0,1.9,2.47,16.84,16.84,0,0,1,2.2-2.57A27.32,27.32,0,0,1,59,26.07C58.16,25.31,57.38,24.54,56.67,23.75Z" fill="#008bfd" fill-rule="evenodd"/><path d="M68.14,23a12.55,12.55,0,0,0-1.73-1.83,12.55,12.55,0,0,0-8,1.54c.76.84,1.51,1.62,2.24,2.36C65,22.59,68.14,23,68.14,23Z" fill="#008bfd" fill-rule="evenodd"/><path d="M50.54,30.59a18.83,18.83,0,0,1,1.19-2.06,9.86,9.86,0,0,1-1.6-6.8,13.19,13.19,0,0,0-1.29,1.61C48.46,25,48.44,27.5,50.54,30.59Z" fill="#008bfd" fill-rule="evenodd"/><path d="M55.9,33.36a21.57,21.57,0,0,1-2.27-2.13,13.68,13.68,0,0,0-1.14,1.95,23.54,23.54,0,0,0,2.09,1.91,19.18,19.18,0,0,0,12.56,4.38,9,9,0,0,0,1.54-1.94C67.45,37.79,62.19,38.47,55.9,33.36Z" fill="#008bfd" fill-rule="evenodd"/><path d="M50.54,30.83a16.24,16.24,0,0,0,2,2.35,14.7,14.7,0,0,1,1.14-1.95,15,15,0,0,1-1.9-2.47A16.34,16.34,0,0,0,50.54,30.83Z" fill="#008bfd" fill-rule="evenodd"/><path d="M59,26.07a98.21,98.21,0,0,0,11.15,8.82,9.82,9.82,0,0,0,.33-1A96.8,96.8,0,0,1,60.61,25,16,16,0,0,0,59,26.07Z" fill="#008bfd" fill-rule="evenodd"/><path d="M58.38,22.65Q56.73,20.88,55,18.86a10.05,10.05,0,0,0-1.59.66,26.74,26.74,0,0,0,3.24,4.22A15.69,15.69,0,0,1,58.38,22.65Z" fill="#008bfd" fill-rule="evenodd"/><path d="M58.45,22.62a18.74,18.74,0,0,0-1.87,1.19c.72.78,1.45,1.59,2.25,2.35.57-.4,1.34-.89,1.87-1.19C60,24.24,59.21,23.46,58.45,22.62Z" fill="#008bfd" fill-rule="evenodd"/><path d="M58.25,22.51a14.89,14.89,0,0,0-1.67,1.13c.72.79,1.74,1.81,2.54,2.57.57-.4,1.05-.81,1.58-1.11C60,24.37,59,23.35,58.25,22.51Z" fill="#008bfd" fill-rule="evenodd"/><path d="M64.3,29.07a2.7,2.7,0,0,0-.48,3.7,2.55,2.55,0,0,0,3.63.5,2.71,2.71,0,0,0,.48-3.71A2.54,2.54,0,0,0,64.3,29.07Z" fill="#008bfd" fill-rule="evenodd"/><path d="M49.18,35.81A2.52,2.52,0,0,0,49,39.27a2.38,2.38,0,0,0,3.39.18A2.51,2.51,0,0,0,52.56,36,2.35,2.35,0,0,0,49.18,35.81Z" fill="#008bfd" fill-rule="evenodd"/><path d="M50,27.87a3.79,3.79,0,0,0-.68,5.21,3.58,3.58,0,0,0,5.1.7,3.8,3.8,0,0,0,.67-5.23A3.58,3.58,0,0,0,50,27.87Z" fill="#008bfd" fill-rule="evenodd"/><path d="M66,40.41a11.81,11.81,0,0,1-16.84-2.29,12.55,12.55,0,0,1,2.24-17.29,11.72,11.72,0,0,1,7.29-2.54,11.89,11.89,0,0,1,9.55,4.84A12.54,12.54,0,0,1,66,40.41ZM69.69,22a13.57,13.57,0,0,0-19.36-2.64,14.45,14.45,0,0,0-2.55,19.88,13.65,13.65,0,0,0,11,5.55,13.45,13.45,0,0,0,8.39-2.92A14.44,14.44,0,0,0,69.69,22Z" fill="#008bfd" fill-rule="evenodd"/><rect x="65.1" y="0.38" width="114.21" height="20" fill="none"/><path d="M41.54,53.15h-.82l-.67-1.77H37.38l-.63,1.77h-.82l2.42-6.3h.76Zm-1.73-2.43-1-2.68a2.76,2.76,0,0,1-.09-.43h0a4,4,0,0,1-.1.43l-1,2.68Z"/><path d="M43.11,52.5h0v2.72h-.72V48.65h.72v.79h0a1.68,1.68,0,0,1,1.55-.89,1.65,1.65,0,0,1,1.36.6,2.47,2.47,0,0,1,.49,1.62A2.83,2.83,0,0,1,46,52.58a1.84,1.84,0,0,1-1.5.68A1.5,1.5,0,0,1,43.11,52.5Zm0-1.81v.62a1.34,1.34,0,0,0,.36.95,1.2,1.2,0,0,0,.92.39,1.22,1.22,0,0,0,1-.5,2.27,2.27,0,0,0,.37-1.39,1.8,1.8,0,0,0-.35-1.18,1.13,1.13,0,0,0-.94-.43,1.29,1.29,0,0,0-1,.44A1.63,1.63,0,0,0,43.09,50.69Z"/><path d="M48.4,52.5h0v2.72h-.72V48.65h.72v.79h0A1.68,1.68,0,0,1,50,48.55a1.65,1.65,0,0,1,1.36.6,2.47,2.47,0,0,1,.49,1.62,2.77,2.77,0,0,1-.55,1.81,1.84,1.84,0,0,1-1.5.68A1.5,1.5,0,0,1,48.4,52.5Zm0-1.81v.62a1.34,1.34,0,0,0,.36.95,1.2,1.2,0,0,0,.92.39,1.22,1.22,0,0,0,1-.5,2.27,2.27,0,0,0,.37-1.39,1.8,1.8,0,0,0-.35-1.18,1.13,1.13,0,0,0-.94-.43,1.29,1.29,0,0,0-1,.44A1.63,1.63,0,0,0,48.38,50.69Z"/><path d="M53.67,53.15H53V46.49h.72Z"/><path d="M55.5,47.51a.49.49,0,0,1-.33-.13A.46.46,0,0,1,55,47a.47.47,0,0,1,.8-.33.46.46,0,0,1,0,.66A.45.45,0,0,1,55.5,47.51Zm.35,5.64h-.72v-4.5h.72Z"/><path d="M60.38,52.94a2.35,2.35,0,0,1-1.23.32,2,2,0,0,1-1.56-.63A2.29,2.29,0,0,1,57,51a2.49,2.49,0,0,1,.64-1.79,2.21,2.21,0,0,1,1.7-.67,2.35,2.35,0,0,1,1,.22v.73a1.9,1.9,0,0,0-1.08-.35,1.46,1.46,0,0,0-1.13.5,1.89,1.89,0,0,0-.44,1.3,1.76,1.76,0,0,0,.42,1.24,1.39,1.39,0,0,0,1.11.46,1.83,1.83,0,0,0,1.11-.39Z"/><path d="M64.69,53.15H64v-.7h0a1.64,1.64,0,0,1-2.44.45,1.24,1.24,0,0,1-.38-.94c0-.84.5-1.33,1.49-1.47L64,50.3c0-.77-.31-1.15-.93-1.15a2.23,2.23,0,0,0-1.47.56V49a2.79,2.79,0,0,1,1.53-.42c1.06,0,1.59.56,1.59,1.67ZM64,50.88,62.88,51a1.78,1.78,0,0,0-.75.25.72.72,0,0,0-.26.63.68.68,0,0,0,.24.54.88.88,0,0,0,.62.21,1.14,1.14,0,0,0,.89-.38,1.34,1.34,0,0,0,.35-1Z"/><path d="M68.13,53.11a1.42,1.42,0,0,1-.67.14c-.79,0-1.18-.44-1.18-1.32V49.27h-.77v-.62h.77v-1.1l.72-.23v1.33h1.13v.62H67V51.8a1.09,1.09,0,0,0,.15.65.63.63,0,0,0,.51.19.75.75,0,0,0,.47-.15Z"/><path d="M69.46,47.51a.48.48,0,0,1-.32-.13A.42.42,0,0,1,69,47a.42.42,0,0,1,.14-.33.45.45,0,0,1,.32-.14.46.46,0,0,1,.34.14.46.46,0,0,1,0,.66A.46.46,0,0,1,69.46,47.51Zm.36,5.64H69.1v-4.5h.72Z"/><path d="M73.16,53.26a2.1,2.1,0,0,1-1.6-.63A2.37,2.37,0,0,1,71,51a2.42,2.42,0,0,1,.62-1.77,2.23,2.23,0,0,1,1.67-.63,2,2,0,0,1,1.57.62,2.42,2.42,0,0,1,.57,1.71,2.45,2.45,0,0,1-.61,1.73A2.15,2.15,0,0,1,73.16,53.26Zm0-4.11a1.37,1.37,0,0,0-1.1.48,1.91,1.91,0,0,0-.4,1.3,1.85,1.85,0,0,0,.4,1.26,1.4,1.4,0,0,0,1.1.46,1.32,1.32,0,0,0,1.07-.45,2,2,0,0,0,.38-1.29,2,2,0,0,0-.38-1.3A1.3,1.3,0,0,0,73.21,49.15Z"/><path d="M80.28,53.15h-.72V50.58c0-.95-.35-1.43-1-1.43a1.16,1.16,0,0,0-.9.41,1.52,1.52,0,0,0-.35,1v2.57h-.72v-4.5h.72v.75h0a1.61,1.61,0,0,1,1.47-.85,1.39,1.39,0,0,1,1.13.47,2.14,2.14,0,0,1,.39,1.38Z"/><path d="M56.52,58.65l-1.35,4.5h-.74l-.93-3.22a1.67,1.67,0,0,1-.07-.42h0a2.21,2.21,0,0,1-.09.41l-1,3.23h-.72l-1.36-4.5H51L51.92,62a1.79,1.79,0,0,1,.06.4h0a2.12,2.12,0,0,1,.08-.41l1-3.38h.66L54.72,62a3.14,3.14,0,0,1,.07.41h0A1.83,1.83,0,0,1,54.9,62l.91-3.39Z"/><path d="M61,61.08H57.8a1.66,1.66,0,0,0,.4,1.16,1.4,1.4,0,0,0,1.06.41,2.22,2.22,0,0,0,1.4-.5v.68a2.65,2.65,0,0,1-1.57.43,1.92,1.92,0,0,1-1.5-.62,2.89,2.89,0,0,1,0-3.43,1.92,1.92,0,0,1,1.48-.66,1.7,1.7,0,0,1,1.37.57A2.39,2.39,0,0,1,61,60.7Zm-.74-.61a1.43,1.43,0,0,0-.3-1,1,1,0,0,0-.82-.35,1.16,1.16,0,0,0-.87.37,1.72,1.72,0,0,0-.44.95Z"/><path d="M62.8,62.5h0v.65h-.72V56.49h.72v2.95h0a1.7,1.7,0,0,1,1.56-.89,1.64,1.64,0,0,1,1.35.6,2.47,2.47,0,0,1,.49,1.62,2.77,2.77,0,0,1-.55,1.81,1.82,1.82,0,0,1-1.5.68A1.5,1.5,0,0,1,62.8,62.5Zm0-1.81v.62a1.35,1.35,0,0,0,.37.95,1.29,1.29,0,0,0,1.94-.11,2.27,2.27,0,0,0,.37-1.39,1.8,1.8,0,0,0-.34-1.18,1.14,1.14,0,0,0-.94-.43,1.27,1.27,0,0,0-1,.44A1.59,1.59,0,0,0,62.78,60.69Z"/><path d="M165.8,53.21H165l-.67-1.77h-2.67L161,53.21h-.82l2.42-6.3h.76Zm-1.73-2.43-1-2.69a2.85,2.85,0,0,1-.09-.42h0a2.17,2.17,0,0,1-.1.42l-1,2.69Z"/><path d="M167.14,52.56h0v2.72h-.72V48.71h.72v.79h0a1.72,1.72,0,0,1,1.56-.9,1.64,1.64,0,0,1,1.36.61,2.52,2.52,0,0,1,.49,1.62,2.8,2.8,0,0,1-.55,1.8,1.82,1.82,0,0,1-1.51.68A1.52,1.52,0,0,1,167.14,52.56Zm0-1.82v.63a1.36,1.36,0,0,0,.36,1,1.2,1.2,0,0,0,.92.39,1.22,1.22,0,0,0,1-.5,2.38,2.38,0,0,0,.37-1.4,1.79,1.79,0,0,0-.35-1.17,1.13,1.13,0,0,0-.94-.43,1.24,1.24,0,0,0-1,.44A1.56,1.56,0,0,0,167.13,50.74Z"/><path d="M172.21,52.56h0v2.72h-.72V48.71h.72v.79h0a1.7,1.7,0,0,1,1.56-.9,1.61,1.61,0,0,1,1.35.61,2.47,2.47,0,0,1,.49,1.62,2.74,2.74,0,0,1-.55,1.8,1.8,1.8,0,0,1-1.5.68A1.52,1.52,0,0,1,172.21,52.56Zm0-1.82v.63a1.36,1.36,0,0,0,.36,1,1.3,1.3,0,0,0,1.95-.11,2.31,2.31,0,0,0,.37-1.4,1.79,1.79,0,0,0-.34-1.17,1.15,1.15,0,0,0-.94-.43,1.28,1.28,0,0,0-1,.44A1.61,1.61,0,0,0,172.19,50.74Z"/><path d="M177.26,53.21h-.72V46.55h.72Z"/><path d="M178.86,47.57a.45.45,0,0,1-.33-.14.43.43,0,0,1-.13-.33.45.45,0,0,1,.13-.34.44.44,0,0,1,.33-.13.47.47,0,0,1,.34.13.46.46,0,0,1,.14.34.45.45,0,0,1-.14.33A.48.48,0,0,1,178.86,47.57Zm.35,5.64h-.72v-4.5h.72Z"/><path d="M183.51,53a2.29,2.29,0,0,1-1.23.31,2.06,2.06,0,0,1-1.55-.62,2.3,2.3,0,0,1-.59-1.63,2.46,2.46,0,0,1,.64-1.78,2.22,2.22,0,0,1,1.7-.68,2.45,2.45,0,0,1,1,.22v.74a1.85,1.85,0,0,0-1.07-.35,1.43,1.43,0,0,0-1.13.49,1.91,1.91,0,0,0-.44,1.3,1.81,1.81,0,0,0,.41,1.25,1.46,1.46,0,0,0,1.12.46,1.78,1.78,0,0,0,1.1-.39Z"/><path d="M187.6,53.21h-.72V52.5h0a1.64,1.64,0,0,1-2.43.46,1.21,1.21,0,0,1-.38-1c0-.84.49-1.33,1.48-1.47l1.35-.18c0-.77-.31-1.15-.93-1.15a2.18,2.18,0,0,0-1.46.55V49A2.78,2.78,0,0,1,186,48.6q1.59,0,1.59,1.68Zm-.72-2.28-1.09.15a1.78,1.78,0,0,0-.75.25.72.72,0,0,0-.26.63.68.68,0,0,0,.24.54.9.9,0,0,0,.63.21,1.16,1.16,0,0,0,.88-.38,1.36,1.36,0,0,0,.35-.95Z"/><path d="M190.82,53.16a1.31,1.31,0,0,1-.67.14c-.79,0-1.18-.43-1.18-1.31V49.32h-.78v-.61H189v-1.1l.72-.23v1.33h1.13v.61h-1.13v2.54a1,1,0,0,0,.15.64.61.61,0,0,0,.51.2.75.75,0,0,0,.47-.15Z"/><path d="M191.93,47.57a.45.45,0,0,1-.33-.14.44.44,0,0,1-.14-.33.46.46,0,0,1,.14-.34.48.48,0,0,1,.66,0,.42.42,0,0,1,.14.34.42.42,0,0,1-.14.33A.45.45,0,0,1,191.93,47.57Zm.35,5.64h-.72v-4.5h.72Z"/><path d="M195.39,53.31a2.09,2.09,0,0,1-1.59-.63,2.3,2.3,0,0,1-.59-1.67,2.44,2.44,0,0,1,.61-1.77,2.28,2.28,0,0,1,1.68-.64,2,2,0,0,1,1.57.62,2.86,2.86,0,0,1,0,3.45A2.15,2.15,0,0,1,195.39,53.31Zm.06-4.1a1.38,1.38,0,0,0-1.1.47,2,2,0,0,0-.41,1.3,1.86,1.86,0,0,0,.41,1.27,1.43,1.43,0,0,0,1.1.46,1.3,1.3,0,0,0,1.07-.46A2,2,0,0,0,196.9,51a2,2,0,0,0-.38-1.3A1.3,1.3,0,0,0,195.45,49.21Z"/><path d="M202.3,53.21h-.72V50.64c0-1-.35-1.43-1.05-1.43a1.09,1.09,0,0,0-.89.41,1.48,1.48,0,0,0-.36,1v2.57h-.72v-4.5h.72v.75h0a1.63,1.63,0,0,1,1.48-.86,1.39,1.39,0,0,1,1.13.48,2.14,2.14,0,0,1,.39,1.38Z"/><path d="M180.82,63.21H180l-.67-1.77h-2.67L176,63.21h-.82l2.42-6.3h.76Zm-1.73-2.43-1-2.69a2.85,2.85,0,0,1-.09-.42h0a2.17,2.17,0,0,1-.1.42l-1,2.69Z"/><path d="M182.26,60.83v2.38h-.74v-6.3h1.73a2.27,2.27,0,0,1,1.57.49,1.76,1.76,0,0,1,.56,1.39,1.91,1.91,0,0,1-.62,1.46,2.33,2.33,0,0,1-1.67.58Zm0-3.26v2.59H183a1.76,1.76,0,0,0,1.17-.35,1.23,1.23,0,0,0,.4-1c0-.83-.49-1.25-1.47-1.25Z"/><path d="M187.08,63.21h-.74v-6.3h.74Z"/><path d="M70.92,7.74H68.46V9.92h2.28v.66H68.46v2.79h-.74V7.07h3.2Z" fill="#00b0f0"/><path d="M72.47,13.37h-.72V6.71h.72Z" fill="#00b0f0"/><path d="M77.3,13.37h-.72v-.71h0a1.49,1.49,0,0,1-1.39.82c-1.07,0-1.61-.64-1.61-1.92V8.87h.72v2.58c0,1,.36,1.42,1.09,1.42a1.11,1.11,0,0,0,.87-.39,1.53,1.53,0,0,0,.34-1V8.87h.72Z" fill="#00b0f0"/><path d="M81.77,8.87l-1.51,2.28,1.48,2.22H80.9L80,11.91c-.06-.09-.12-.2-.2-.34h0s-.08.14-.2.34l-.9,1.46h-.83l1.53-2.2-1.47-2.3h.84l.87,1.54a3.9,3.9,0,0,1,.19.35h0L81,8.87Z" fill="#00b0f0"/><path d="M88.38,13.37h-.72v-.76h0a1.81,1.81,0,0,1-2.9.26,2.46,2.46,0,0,1-.51-1.64,2.72,2.72,0,0,1,.56-1.79,1.86,1.86,0,0,1,1.5-.67,1.43,1.43,0,0,1,1.35.73h0V6.71h.72Zm-.72-2v-.67a1.28,1.28,0,0,0-.36-.92,1.23,1.23,0,0,0-.92-.38,1.21,1.21,0,0,0-1,.49A2,2,0,0,0,85,11.19a1.92,1.92,0,0,0,.36,1.23,1.19,1.19,0,0,0,1,.45,1.25,1.25,0,0,0,1-.43A1.65,1.65,0,0,0,87.66,11.34Z" fill="#00b0f0"/><path d="M93.18,11.3H90a1.66,1.66,0,0,0,.4,1.16,1.4,1.4,0,0,0,1.06.41,2.22,2.22,0,0,0,1.4-.5v.68a2.65,2.65,0,0,1-1.57.43,1.92,1.92,0,0,1-1.5-.62,2.5,2.5,0,0,1-.54-1.72,2.44,2.44,0,0,1,.6-1.71,1.9,1.9,0,0,1,1.47-.66,1.7,1.7,0,0,1,1.37.57,2.39,2.39,0,0,1,.48,1.58Zm-.73-.61a1.48,1.48,0,0,0-.31-1,1,1,0,0,0-.82-.35,1.12,1.12,0,0,0-.86.37,1.59,1.59,0,0,0-.44.95Z" fill="#00b0f0"/><path d="M99.27,13.16a2.35,2.35,0,0,1-1.23.32,2,2,0,0,1-1.56-.63,2.29,2.29,0,0,1-.59-1.62,2.49,2.49,0,0,1,.64-1.79,2.21,2.21,0,0,1,1.7-.67,2.35,2.35,0,0,1,1,.22v.73a1.9,1.9,0,0,0-1.08-.35,1.46,1.46,0,0,0-1.13.5,1.89,1.89,0,0,0-.44,1.3A1.8,1.8,0,0,0,97,12.41a1.43,1.43,0,0,0,1.12.46,1.83,1.83,0,0,0,1.11-.39Z" fill="#00b0f0"/><path d="M102,13.48a2.06,2.06,0,0,1-1.59-.63,2.33,2.33,0,0,1-.6-1.68,2.46,2.46,0,0,1,.62-1.77,2.23,2.23,0,0,1,1.67-.63,2,2,0,0,1,1.57.61,2.46,2.46,0,0,1,.57,1.72,2.41,2.41,0,0,1-.61,1.73A2.15,2.15,0,0,1,102,13.48Zm0-4.11a1.39,1.39,0,0,0-1.1.47,2,2,0,0,0-.4,1.31,1.81,1.81,0,0,0,.41,1.26,1.36,1.36,0,0,0,1.09.46,1.31,1.31,0,0,0,1.07-.45,1.91,1.91,0,0,0,.38-1.29,1.94,1.94,0,0,0-.38-1.3A1.28,1.28,0,0,0,102,9.37Z" fill="#00b0f0"/><path d="M108.93,13.37h-.72v-.76h0a1.81,1.81,0,0,1-2.9.26,2.46,2.46,0,0,1-.51-1.64,2.72,2.72,0,0,1,.56-1.79,1.86,1.86,0,0,1,1.5-.67,1.43,1.43,0,0,1,1.35.73h0V6.71h.72Zm-.72-2v-.67a1.28,1.28,0,0,0-.36-.92,1.32,1.32,0,0,0-1.95.11,2.1,2.1,0,0,0-.38,1.33,1.92,1.92,0,0,0,.36,1.23,1.21,1.21,0,0,0,1,.45,1.24,1.24,0,0,0,1-.43A1.65,1.65,0,0,0,108.21,11.34Z" fill="#00b0f0"/><path d="M113.74,11.3h-3.18a1.71,1.71,0,0,0,.4,1.16,1.42,1.42,0,0,0,1.07.41,2.22,2.22,0,0,0,1.39-.5v.68a2.62,2.62,0,0,1-1.56.43,1.89,1.89,0,0,1-1.5-.62,2.45,2.45,0,0,1-.55-1.72,2.44,2.44,0,0,1,.6-1.71,1.9,1.9,0,0,1,1.48-.66,1.68,1.68,0,0,1,1.36.57,2.34,2.34,0,0,1,.49,1.58Zm-.74-.61a1.43,1.43,0,0,0-.3-1,1.05,1.05,0,0,0-.83-.35,1.14,1.14,0,0,0-.86.37,1.59,1.59,0,0,0-.44.95Z" fill="#00b0f0"/><path d="M120.59,13.37h-.72v-.76h0a1.81,1.81,0,0,1-2.9.26,2.46,2.46,0,0,1-.51-1.64A2.67,2.67,0,0,1,117,9.44a1.83,1.83,0,0,1,1.49-.67,1.43,1.43,0,0,1,1.35.73h0V6.71h.72Zm-.72-2v-.67a1.28,1.28,0,0,0-.36-.92,1.21,1.21,0,0,0-.91-.38,1.23,1.23,0,0,0-1,.49,2.1,2.1,0,0,0-.38,1.33,1.92,1.92,0,0,0,.36,1.23,1.21,1.21,0,0,0,1,.45,1.26,1.26,0,0,0,1-.43A1.65,1.65,0,0,0,119.87,11.34Z" fill="#00b0f0"/><path d="M122.67,7l-.62,2h-.51L122,7Z" fill="#00b0f0"/><path d="M126.79,13.37h-.72v-.7h0a1.52,1.52,0,0,1-1.39.81,1.45,1.45,0,0,1-1-.36,1.24,1.24,0,0,1-.38-.94c0-.85.49-1.33,1.48-1.47l1.35-.19c0-.77-.31-1.15-.92-1.15a2.2,2.2,0,0,0-1.47.56V9.19a2.79,2.79,0,0,1,1.53-.42c1.05,0,1.58.56,1.58,1.67Zm-.72-2.28-1.08.15a1.78,1.78,0,0,0-.76.25.72.72,0,0,0-.25.63.68.68,0,0,0,.23.54.92.92,0,0,0,.63.21,1.11,1.11,0,0,0,.88-.38,1.3,1.3,0,0,0,.35-1Z" fill="#00b0f0"/><path d="M131.52,13.37h-.72v-.71h0a1.49,1.49,0,0,1-1.39.82c-1.07,0-1.6-.64-1.6-1.92V8.87h.71v2.58c0,1,.36,1.42,1.09,1.42a1.11,1.11,0,0,0,.87-.39,1.48,1.48,0,0,0,.34-1V8.87h.72Z" fill="#00b0f0"/><path d="M134.79,13.33a1.42,1.42,0,0,1-.67.14c-.79,0-1.18-.44-1.18-1.32V9.49h-.77V8.87h.77V7.77l.72-.23V8.87h1.13v.62h-1.13V12a1.09,1.09,0,0,0,.15.65.62.62,0,0,0,.51.19.75.75,0,0,0,.47-.15Z" fill="#00b0f0"/><path d="M137.37,13.48a2.1,2.1,0,0,1-1.6-.63,2.37,2.37,0,0,1-.59-1.68,2.42,2.42,0,0,1,.62-1.77,2.23,2.23,0,0,1,1.67-.63,2,2,0,0,1,1.57.61,2.46,2.46,0,0,1,.57,1.72,2.45,2.45,0,0,1-.61,1.73A2.15,2.15,0,0,1,137.37,13.48Zm0-4.11a1.39,1.39,0,0,0-1.1.47,2,2,0,0,0-.4,1.31,1.85,1.85,0,0,0,.4,1.26,1.4,1.4,0,0,0,1.1.46,1.32,1.32,0,0,0,1.07-.45,2,2,0,0,0,.38-1.29,2,2,0,0,0-.38-1.3A1.3,1.3,0,0,0,137.42,9.37Z" fill="#00b0f0"/><path d="M142.83,9.6a.83.83,0,0,0-.54-.14.91.91,0,0,0-.77.43,2,2,0,0,0-.31,1.19v2.29h-.72V8.87h.72V9.8h0a1.55,1.55,0,0,1,.47-.74,1,1,0,0,1,.7-.27,1.16,1.16,0,0,1,.43.06Z" fill="#00b0f0"/><path d="M143.72,7.73a.49.49,0,0,1-.33-.13.42.42,0,0,1-.14-.34.42.42,0,0,1,.14-.33.47.47,0,1,1,.33.8Zm.35,5.64h-.72V8.87h.72Z" fill="#00b0f0"/><path d="M145,13.21v-.77a2.23,2.23,0,0,0,1.3.43c.63,0,.95-.21.95-.63a.62.62,0,0,0-.08-.31.92.92,0,0,0-.22-.22,1.69,1.69,0,0,0-.33-.17l-.4-.16a5.2,5.2,0,0,1-.52-.24,1.63,1.63,0,0,1-.38-.28,1,1,0,0,1-.23-.34,1.25,1.25,0,0,1-.08-.45,1,1,0,0,1,.15-.56,1.09,1.09,0,0,1,.39-.41,1.85,1.85,0,0,1,.55-.25,2.25,2.25,0,0,1,.64-.08,2.48,2.48,0,0,1,1,.2V9.7a2,2,0,0,0-1.14-.33,1.38,1.38,0,0,0-.37.05.75.75,0,0,0-.27.13.61.61,0,0,0-.19.2.54.54,0,0,0-.06.25.67.67,0,0,0,.06.3.76.76,0,0,0,.19.21,1.39,1.39,0,0,0,.3.17l.4.16a4.58,4.58,0,0,1,.54.24,1.75,1.75,0,0,1,.4.27,1,1,0,0,1,.26.35,1.13,1.13,0,0,1,.09.47,1.11,1.11,0,0,1-.15.58,1.38,1.38,0,0,1-.39.41,2.44,2.44,0,0,1-.57.24,2.93,2.93,0,0,1-.67.08A2.57,2.57,0,0,1,145,13.21Z" fill="#00b0f0"/><path d="M152,13.37h-.72v-.7h0a1.52,1.52,0,0,1-1.39.81,1.49,1.49,0,0,1-1.05-.36,1.24,1.24,0,0,1-.38-.94c0-.85.5-1.33,1.49-1.47l1.35-.19c0-.77-.31-1.15-.93-1.15a2.23,2.23,0,0,0-1.47.56V9.19a2.79,2.79,0,0,1,1.53-.42c1.06,0,1.59.56,1.59,1.67Zm-.72-2.28-1.09.15a1.83,1.83,0,0,0-.76.25.72.72,0,0,0-.25.63.68.68,0,0,0,.24.54.88.88,0,0,0,.62.21,1.14,1.14,0,0,0,.89-.38,1.34,1.34,0,0,0,.35-1Z" fill="#00b0f0"/><path d="M155.2,13.33a1.42,1.42,0,0,1-.67.14c-.79,0-1.18-.44-1.18-1.32V9.49h-.78V8.87h.78V7.77l.72-.23V8.87h1.13v.62h-1.13V12a1.09,1.09,0,0,0,.15.65.6.6,0,0,0,.51.19.75.75,0,0,0,.47-.15Z" fill="#00b0f0"/><path d="M156.26,7.73a.49.49,0,0,1-.33-.13.45.45,0,0,1-.13-.34.44.44,0,0,1,.13-.33.45.45,0,0,1,.33-.14.46.46,0,0,1,.34.14.46.46,0,0,1,0,.66A.46.46,0,0,1,156.26,7.73Zm.36,5.64h-.73V8.87h.73Z" fill="#00b0f0"/><path d="M159.68,13.48a2.09,2.09,0,0,1-1.59-.63,2.33,2.33,0,0,1-.59-1.68,2.42,2.42,0,0,1,.62-1.77,2.23,2.23,0,0,1,1.67-.63,2,2,0,0,1,1.57.61,2.46,2.46,0,0,1,.57,1.72,2.45,2.45,0,0,1-.61,1.73A2.15,2.15,0,0,1,159.68,13.48Zm.06-4.11a1.38,1.38,0,0,0-1.1.47,2,2,0,0,0-.41,1.31,1.85,1.85,0,0,0,.41,1.26,1.4,1.4,0,0,0,1.1.46,1.32,1.32,0,0,0,1.07-.45,2,2,0,0,0,.38-1.29,2,2,0,0,0-.38-1.3A1.3,1.3,0,0,0,159.74,9.37Z" fill="#00b0f0"/><path d="M166.54,13.37h-.72V10.8c0-1-.35-1.43-1-1.43a1.16,1.16,0,0,0-.9.41,1.52,1.52,0,0,0-.35,1v2.57h-.72V8.87h.72v.75h0A1.61,1.61,0,0,1,165,8.77a1.37,1.37,0,0,1,1.13.47,2.14,2.14,0,0,1,.39,1.38Z" fill="#00b0f0"/></svg>