<svg xmlns="http://www.w3.org/2000/svg" viewBox="0 0 204.4 47"><title>OJ104546506</title><path d="M16,9.8.1,21.2,6.2,39.7H25.9l6-18.5Z" transform="translate(0 -5.9)" fill="#fff" stroke="#000" stroke-linecap="round" stroke-linejoin="round" stroke-width="0.24"/><path d="M15.7,16.9a4.6,4.6,0,0,0-3,5.7c.7,2.5,3,4.2,5.3,3.7a4.6,4.6,0,0,0,3-5.7A4.5,4.5,0,0,0,15.7,16.9Z" transform="translate(0 -5.9)" fill="#008bfd"/><path d="M20.6,27c-.4,0-.8.7-1.5,1.1a2.9,2.9,0,0,1-3.2,0c-1.8-.9-2.1-1.7-3.6-1.7s-4.1,2.8-4.1,6.9H23.8a11.4,11.4,0,0,0-1.1-4.2C21.6,27,21.1,27,20.6,27Z" transform="translate(0 -5.9)" fill="#008bfd"/><path d="M22.1,22H17.9a.7.7,0,0,0-.6.7v2.8a.7.7,0,0,0,.7.7h.8v5.1a1,1,0,0,0,1,1.1,1,1,0,0,0,1-1H21v-.6c0-.2.3-.3.3-.3v-.4c-.3-.1-.5-.3-.5-.4v-.3l.2-.3.3-.5A1.6,1.6,0,0,1,21,28c-.1-.1-.1-.3-.2-.4v-.2a2.2,2.2,0,0,1,.7-1.1h.6a.7.7,0,0,0,.6-.7V22.7C22.7,22.3,22.5,22,22.1,22Zm-2.4,9.5c0,.3,0,.4-.2.4s-.3-.2-.3-.4V26.7a.3.3,0,0,1,.3-.3c.2,0,.2.2.2.3Zm.3-7.7a.8.8,0,0,1-.7-.7c0-.3.4-.6.7-.6a.6.6,0,0,1,.6.6A.7.7,0,0,1,20,23.8Z" transform="translate(0 -5.9)" fill="#008bfd" stroke="gray" stroke-linecap="round" stroke-linejoin="round" stroke-width="0.75"/><path d="M19.4,31.8l-.2-.2v-5a.2.2,0,1,1,.4,0v5.1C19.6,31.8,19.5,31.8,19.4,31.8Z" transform="translate(0 -5.9)" fill="#fff"/><ellipse cx="20" cy="17.2" rx="0.7" ry="0.7" fill="#fff"/><path d="M77.2,9.3H56.7a1.1,1.1,0,0,0-1.1,1.1V27.1a1,1,0,0,0,1.1,1.1H62a3.2,3.2,0,0,0,3.2,2.3,3.4,3.4,0,1,0,0-6.7A3.3,3.3,0,0,0,62,26H57.8V14.1H76.1V26H72.7a7.6,7.6,0,0,0-7.5-6.5,7.4,7.4,0,0,0-3.6.9l1,2a4.6,4.6,0,0,1,2.6-.7,5.4,5.4,0,0,1,5.4,5.4,5.5,5.5,0,0,1-5.4,5.5,4.6,4.6,0,0,1-2.6-.7l-1,2a7.4,7.4,0,0,0,3.6.9,7.6,7.6,0,0,0,7.5-6.6h4.5a1,1,0,0,0,1.1-1.1V10.4A1.1,1.1,0,0,0,77.2,9.3Z" transform="translate(0 -5.9)" fill="#008bfd"/><path d="M192.6,8.8H172.1A1.1,1.1,0,0,0,171,9.9V26.6a1.1,1.1,0,0,0,1.1,1.2h5.3a3.3,3.3,0,0,0,3.2,2.2,3.4,3.4,0,0,0,0-6.7,3.3,3.3,0,0,0-3.2,2.2h-4.2V13.6h18.3V25.5h-3.4a7.6,7.6,0,0,0-7.5-6.5,8.3,8.3,0,0,0-3.6.9l1,2a4.5,4.5,0,0,1,2.5-.7,5.5,5.5,0,0,1,0,10.9,4.5,4.5,0,0,1-2.5-.7l-1,2a7.1,7.1,0,0,0,3.6.9,7.6,7.6,0,0,0,7.5-6.5h4.5a1.1,1.1,0,0,0,1.1-1.2V9.9A1.2,1.2,0,0,0,192.6,8.8Z" transform="translate(0 -5.9)" fill="#008bfd"/><path d="M162.5,17.6l8.1,4-8,4a9,9,0,0,0,0-8" transform="translate(0 -5.9)" fill="#505050"/><path d="M163.5,21.6" transform="translate(0 -5.9)" fill="#505050"/><path d="M88.6,7.1H85.9V9.5h2.5v.8H85.9v3.1H85v-7h3.6Z" transform="translate(0 -5.9)" fill="#00b0f0"/><path d="M90.4,13.4h-.8V6h.8Z" transform="translate(0 -5.9)" fill="#00b0f0"/><path d="M95.8,13.4H95v-.8h0a1.8,1.8,0,0,1-1.6.9q-1.8,0-1.8-2.1v-3h.8v2.8c0,1.1.4,1.6,1.2,1.6a1.2,1.2,0,0,0,1-.4,1.5,1.5,0,0,0,.4-1.1V8.4h.8Z" transform="translate(0 -5.9)" fill="#00b0f0"/><path d="M100.8,8.4l-1.7,2.5,1.7,2.5h-1l-.9-1.6-.3-.4h0a1.1,1.1,0,0,0-.2.4l-1,1.6h-.9l1.7-2.5L96.5,8.4h1l.9,1.7a.5.5,0,0,1,.2.4h.1l1.2-2.1Z" transform="translate(0 -5.9)" fill="#00b0f0"/><path d="M106.9,13.5a3,3,0,0,1-2.4-1,3.5,3.5,0,0,1-.9-2.5,3.7,3.7,0,0,1,.9-2.7,3.2,3.2,0,0,1,2.5-1,3.2,3.2,0,0,1,2.4.9,3.7,3.7,0,0,1,.8,2.6,4,4,0,0,1-.9,2.7A3,3,0,0,1,106.9,13.5ZM107,7a2.2,2.2,0,0,0-1.8.8,2.8,2.8,0,0,0-.7,2.1,3.1,3.1,0,0,0,.7,2.1,2.1,2.1,0,0,0,1.7.8,2.2,2.2,0,0,0,1.8-.8,2.8,2.8,0,0,0,.7-2.1,2.8,2.8,0,0,0-.7-2.1A2.1,2.1,0,0,0,107,7Z" transform="translate(0 -5.9)" fill="#00b0f0"/><path d="M115.4,13.4h-.8V10.5c0-1-.4-1.6-1.1-1.6a1.2,1.2,0,0,0-1,.5,1.5,1.5,0,0,0-.4,1.1v2.9h-.8v-5h.8v.8h0a1.8,1.8,0,0,1,1.6-.9,1.4,1.4,0,0,1,1.3.5,2.2,2.2,0,0,1,.4,1.5Z" transform="translate(0 -5.9)" fill="#00b0f0"/><path d="M119.2,10.9h-2.6v-.6h2.6Z" transform="translate(0 -5.9)" fill="#00b0f0"/><path d="M120.5,13.4v-7h2a2.4,2.4,0,0,1,1.5.4,1.7,1.7,0,0,1,.5,1.2,1.7,1.7,0,0,1-.3,1,1.5,1.5,0,0,1-.9.6h0a1.4,1.4,0,0,1,1.1.5,1.6,1.6,0,0,1,.4,1.2,1.8,1.8,0,0,1-.6,1.4,2.3,2.3,0,0,1-1.6.6Zm.9-6.3V9.4h.8a2,2,0,0,0,1.1-.3,1.7,1.7,0,0,0,.3-1c0-.6-.4-1-1.3-1Zm0,3v2.5h1.1a2,2,0,0,0,1.1-.3,1,1,0,0,0,.4-.9c0-.9-.6-1.3-1.7-1.3Z" transform="translate(0 -5.9)" fill="#00b0f0"/><path d="M129.9,11.1h-3.5a2.5,2.5,0,0,0,.4,1.3,1.6,1.6,0,0,0,1.2.4,3,3,0,0,0,1.6-.5V13a3.2,3.2,0,0,1-1.8.5,1.9,1.9,0,0,1-1.6-.7,2.7,2.7,0,0,1-.6-1.9,2.9,2.9,0,0,1,.6-1.9,2.2,2.2,0,0,1,1.7-.7,2,2,0,0,1,1.5.6,3,3,0,0,1,.5,1.8Zm-.8-.7a1.8,1.8,0,0,0-.3-1.1,1.5,1.5,0,0,0-.9-.4,1.8,1.8,0,0,0-1,.4,2.2,2.2,0,0,0-.5,1.1Z" transform="translate(0 -5.9)" fill="#00b0f0"/><path d="M135,13.4h-.8V10.5c0-1-.4-1.6-1.1-1.6a1.4,1.4,0,0,0-1,.5,1.5,1.5,0,0,0-.4,1.1v2.9h-.8V6h.8V9.2h0a1.8,1.8,0,0,1,1.6-.9c1.2,0,1.7.6,1.7,2Z" transform="translate(0 -5.9)" fill="#00b0f0"/><path d="M139.9,13.4h-.8v-.8h0a1.8,1.8,0,0,1-1.6.9,1.6,1.6,0,0,1-1.2-.4,1.8,1.8,0,0,1-.4-1.1c0-.9.6-1.4,1.7-1.6l1.5-.2c0-.8-.4-1.3-1.1-1.3a2.5,2.5,0,0,0-1.6.6V8.7a3.3,3.3,0,0,1,1.7-.4,1.6,1.6,0,0,1,1.8,1.8Zm-.8-2.6-1.2.2-.9.3a.8.8,0,0,0-.3.7.9.9,0,0,0,.3.6l.7.2a1.3,1.3,0,0,0,1-.4,1.8,1.8,0,0,0,.4-1.1Z" transform="translate(0 -5.9)" fill="#00b0f0"/><path d="M141.9,13.4h-.8V6h.8Z" transform="translate(0 -5.9)" fill="#00b0f0"/><path d="M145.8,6.7l-.6-.2c-.5,0-.8.4-.8,1.1v.8h1.2v.7h-1.2v4.3h-.8V9.1h-.8V8.4h.8V7.6a1.7,1.7,0,0,1,.5-1.3,1.4,1.4,0,0,1,1.1-.4h.6Z" transform="translate(0 -5.9)" fill="#00b0f0"/><path d="M148.7,10.9h-2.6v-.6h2.6Z" transform="translate(0 -5.9)" fill="#00b0f0"/><path d="M152.9,13.5a3,3,0,0,1-2.4-1,3.5,3.5,0,0,1-.9-2.5,3.7,3.7,0,0,1,.9-2.7,3,3,0,0,1,2.5-1,3.2,3.2,0,0,1,2.3.9,3.7,3.7,0,0,1,.9,2.6,4,4,0,0,1-.9,2.7A3,3,0,0,1,152.9,13.5Zm0-6.5a2.5,2.5,0,0,0-1.8.8,3.3,3.3,0,0,0-.7,2.1,3.8,3.8,0,0,0,.7,2.1,2.3,2.3,0,0,0,1.8.8,2.5,2.5,0,0,0,1.8-.8,3.3,3.3,0,0,0,.6-2.1,3.3,3.3,0,0,0-.6-2.1A2.2,2.2,0,0,0,152.9,7Z" transform="translate(0 -5.9)" fill="#00b0f0"/><path d="M159.7,6.7l-.5-.2c-.6,0-.9.4-.9,1.1v.8h1.2v.7h-1.2v4.3h-.8V9.1h-.8V8.4h.8V7.6a1.7,1.7,0,0,1,.5-1.3,1.5,1.5,0,0,1,1.1-.4h.6Z" transform="translate(0 -5.9)" fill="#00b0f0"/><path d="M167,21h-8.2l-51.5.2H78.8c-.2.1-.5.4-.5.5a.9.9,0,0,0,.5.7h.7l40.9-.2H167Z" transform="translate(0 -5.9)" fill="#505050"/><path d="M163.9,43.3H163l-.8-1.9h-2.9l-.7,1.9h-.9l2.6-7h.9ZM162,40.6l-1.1-2.9a.7.7,0,0,1-.1-.5h0l-.2.5-1.1,2.9Z" transform="translate(0 -5.9)"/><path d="M165.4,42.6h0v3h-.8V38.3h.8v.9h0a2.1,2.1,0,0,1,1.7-1,1.6,1.6,0,0,1,1.5.7,2.4,2.4,0,0,1,.6,1.8,3.2,3.2,0,0,1-.6,2,2.1,2.1,0,0,1-1.7.8A1.6,1.6,0,0,1,165.4,42.6Zm0-2v.7a1.5,1.5,0,0,0,.4,1.1,1.5,1.5,0,0,0,1,.4,1.1,1.1,0,0,0,1.1-.6,2.2,2.2,0,0,0,.4-1.5,2.3,2.3,0,0,0-.3-1.3,1.4,1.4,0,0,0-1.1-.5,1.5,1.5,0,0,0-1.5,1.7Z" transform="translate(0 -5.9)"/><path d="M171,42.6h0v3h-.8V38.3h.8v.9h0a2.1,2.1,0,0,1,1.7-1,1.9,1.9,0,0,1,1.6.7,3,3,0,0,1,.5,1.8,3.2,3.2,0,0,1-.6,2,2.1,2.1,0,0,1-1.7.8A1.8,1.8,0,0,1,171,42.6Zm0-2v.7a1.5,1.5,0,0,0,.4,1.1,1.8,1.8,0,0,0,1,.4,1.4,1.4,0,0,0,1.2-.6,3,3,0,0,0,.4-1.5,2.2,2.2,0,0,0-.4-1.3,1.4,1.4,0,0,0-1.1-.5,1.5,1.5,0,0,0-1.5,1.7Z" transform="translate(0 -5.9)"/><path d="M176.6,43.3h-.8V35.9h.8Z" transform="translate(0 -5.9)"/><path d="M178.4,37.1l-.4-.2a.4.4,0,0,1-.1-.3c0-.2,0-.3.1-.4l.4-.2.4.2c.1.1.1.2.1.4a.4.4,0,0,1-.1.3Zm.4,6.2H178v-5h.8Z" transform="translate(0 -5.9)"/><path d="M183.6,43.1a3.3,3.3,0,0,1-1.4.4,2.4,2.4,0,0,1-2.4-2.5,3,3,0,0,1,.7-2,2.6,2.6,0,0,1,1.9-.8,2.1,2.1,0,0,1,1.2.3v.8a1.9,1.9,0,0,0-1.2-.4,2.1,2.1,0,0,0-1.3.5,2.5,2.5,0,0,0-.5,1.5,2.2,2.2,0,0,0,.5,1.4,1.7,1.7,0,0,0,1.2.5,2.8,2.8,0,0,0,1.3-.4Z" transform="translate(0 -5.9)"/><path d="M188.1,43.3h-.8v-.7h0a1.8,1.8,0,0,1-1.5.9,2.1,2.1,0,0,1-1.2-.4,1.4,1.4,0,0,1-.4-1.1c0-.9.5-1.5,1.6-1.6l1.5-.2c0-.9-.3-1.3-1-1.3a2.3,2.3,0,0,0-1.6.6v-.8a2.9,2.9,0,0,1,1.7-.5c1.1,0,1.7.6,1.7,1.9Zm-.8-2.5-1.2.2a1,1,0,0,0-.8.3c-.2.1-.3.3-.3.7a1.4,1.4,0,0,0,.2.6l.7.2a1.5,1.5,0,0,0,1-.4,1.5,1.5,0,0,0,.4-1.1Z" transform="translate(0 -5.9)"/><path d="M191.7,43.3a1.5,1.5,0,0,1-.8.2c-.8,0-1.3-.5-1.3-1.5V39h-.8v-.7h.8V37.1l.8-.2v1.4h1.3V39h-1.3v2.8a1.5,1.5,0,0,0,.2.8l.6.2.5-.2Z" transform="translate(0 -5.9)"/><path d="M192.9,37.1l-.3-.2c-.1-.1-.2-.2-.2-.3a.5.5,0,0,1,.2-.4l.3-.2.4.2a.5.5,0,0,1,.2.4c0,.1-.1.2-.2.3Zm.4,6.2h-.8v-5h.8Z" transform="translate(0 -5.9)"/><path d="M196.8,43.5a2.5,2.5,0,0,1-1.8-.7,2.9,2.9,0,0,1-.7-1.9,3.2,3.2,0,0,1,.7-2,2.9,2.9,0,0,1,1.9-.7,2.4,2.4,0,0,1,1.7.7,2.5,2.5,0,0,1,.7,1.9,2.7,2.7,0,0,1-.7,1.9A2.5,2.5,0,0,1,196.8,43.5Zm0-4.6a1.7,1.7,0,0,0-1.2.5,2.4,2.4,0,0,0-.4,1.5,2.1,2.1,0,0,0,.4,1.4,1.7,1.7,0,0,0,1.2.5,1.4,1.4,0,0,0,1.2-.5,2.1,2.1,0,0,0,.4-1.4,2.1,2.1,0,0,0-.4-1.5A1.4,1.4,0,0,0,196.8,38.9Z" transform="translate(0 -5.9)"/><path d="M204.4,43.3h-.8V40.5c0-1.1-.3-1.6-1.1-1.6a1.4,1.4,0,0,0-1,.5,1.4,1.4,0,0,0-.4,1.1v2.8h-.8v-5h.8v.9h0a1.8,1.8,0,0,1,1.7-1,1.4,1.4,0,0,1,1.2.6,2.1,2.1,0,0,1,.4,1.5Z" transform="translate(0 -5.9)"/><path d="M180.6,52.8h-.9l-.8-1.9H176l-.7,1.9h-.9l2.6-7h.9Zm-1.9-2.7-1.1-2.9a.7.7,0,0,1-.1-.5h-.1a.9.9,0,0,1-.1.5l-1.1,2.9Z" transform="translate(0 -5.9)"/><path d="M182.2,50.2v2.6h-.8v-7h1.9a2.4,2.4,0,0,1,1.7.6,2,2,0,0,1,.6,1.5,2.5,2.5,0,0,1-.6,1.7,2.9,2.9,0,0,1-1.9.6Zm0-3.6v2.9h.8a2.2,2.2,0,0,0,1.3-.4,1.6,1.6,0,0,0,.5-1.1c0-1-.6-1.4-1.7-1.4Z" transform="translate(0 -5.9)"/><path d="M187.5,52.8h-.8v-7h.8Z" transform="translate(0 -5.9)"/><path d="M49.5,43.3h-.9l-.7-1.9h-3l-.7,1.9h-.9l2.7-7h.8Zm-1.9-2.7-1.1-2.9a4.3,4.3,0,0,1-.1-.5h0a.9.9,0,0,0-.1.5l-1.1,2.9Z" transform="translate(0 -5.9)"/><path d="M51,42.6h0v3h-.8V38.3H51v.9h0a2.1,2.1,0,0,1,1.7-1,1.9,1.9,0,0,1,1.6.7,3,3,0,0,1,.5,1.8,3.2,3.2,0,0,1-.6,2,2.1,2.1,0,0,1-1.7.8A1.8,1.8,0,0,1,51,42.6Zm0-2v.7a1.5,1.5,0,0,0,.4,1.1,1.8,1.8,0,0,0,1,.4,1.4,1.4,0,0,0,1.2-.6,3,3,0,0,0,.4-1.5,2.2,2.2,0,0,0-.4-1.3,1.4,1.4,0,0,0-1.1-.5A1.5,1.5,0,0,0,51,40.6Z" transform="translate(0 -5.9)"/><path d="M56.6,42.6h0v3h-.8V38.3h.8v.9h0a2.1,2.1,0,0,1,1.8-1,1.8,1.8,0,0,1,1.5.7,3,3,0,0,1,.5,1.8,3.2,3.2,0,0,1-.6,2,2.1,2.1,0,0,1-1.7.8A1.8,1.8,0,0,1,56.6,42.6Zm0-2v.7a2.1,2.1,0,0,0,.4,1.1,1.8,1.8,0,0,0,1,.4,1.4,1.4,0,0,0,1.2-.6,2.2,2.2,0,0,0,.4-1.5,1.7,1.7,0,0,0-.4-1.3,1.2,1.2,0,0,0-1-.5,1.7,1.7,0,0,0-1.2.5A2.1,2.1,0,0,0,56.6,40.6Z" transform="translate(0 -5.9)"/><path d="M62.3,43.3h-.8V35.9h.8Z" transform="translate(0 -5.9)"/><path d="M64,37.1l-.3-.2c-.1-.1-.2-.2-.2-.3a.5.5,0,0,1,.2-.4L64,36a.7.7,0,0,1,.6.6c0,.1-.1.2-.2.3A.5.5,0,0,1,64,37.1Zm.4,6.2h-.8v-5h.8Z" transform="translate(0 -5.9)"/><path d="M69.2,43.1a2.9,2.9,0,0,1-1.4.4,2.4,2.4,0,0,1-1.7-.7,2.8,2.8,0,0,1-.6-1.8,2.6,2.6,0,0,1,.7-2,2.4,2.4,0,0,1,1.9-.8,2,2,0,0,1,1.1.3v.8a1.9,1.9,0,0,0-1.2-.4,1.7,1.7,0,0,0-1.2.5,2,2,0,0,0-.5,1.5,2.1,2.1,0,0,0,.4,1.4,1.9,1.9,0,0,0,1.3.5,2.8,2.8,0,0,0,1.2-.4Z" transform="translate(0 -5.9)"/><path d="M73.7,43.3h-.8v-.7h0a1.6,1.6,0,0,1-1.5.9,2.1,2.1,0,0,1-1.2-.4,1.4,1.4,0,0,1-.4-1.1c0-.9.5-1.5,1.6-1.6l1.5-.2c0-.9-.3-1.3-1-1.3a2.5,2.5,0,0,0-1.6.6v-.8a3.1,3.1,0,0,1,1.7-.5c1.2,0,1.7.6,1.7,1.9Zm-.8-2.5-1.2.2a1.1,1.1,0,0,0-.8.3c-.2.1-.3.3-.3.7a.9.9,0,0,0,.3.6l.7.2a1.8,1.8,0,0,0,1-.4,2,2,0,0,0,.3-1.1Z" transform="translate(0 -5.9)"/><path d="M77.3,43.3l-.7.2c-.9,0-1.3-.5-1.3-1.5V39h-.9v-.7h.9V37.1l.8-.2v1.4h1.2V39H76.1v2.8a1.7,1.7,0,0,0,.1.8l.6.2.5-.2Z" transform="translate(0 -5.9)"/><path d="M78.6,37.1a.5.5,0,0,1-.4-.2c-.1-.1-.2-.2-.2-.3a.5.5,0,0,1,.2-.4l.4-.2.3.2a.5.5,0,0,1,.2.4c0,.1-.1.2-.2.3Zm.3,6.2h-.8v-5h.8Z" transform="translate(0 -5.9)"/><path d="M82.4,43.5a2.9,2.9,0,0,1-1.8-.7,2.9,2.9,0,0,1-.6-1.9,2.7,2.7,0,0,1,.7-2,2.5,2.5,0,0,1,1.8-.7,2.7,2.7,0,0,1,1.8.7,2.9,2.9,0,0,1,.6,1.9,2.4,2.4,0,0,1-.7,1.9A2.2,2.2,0,0,1,82.4,43.5Zm.1-4.6a1.7,1.7,0,0,0-1.3.5,2.4,2.4,0,0,0-.4,1.5,2.1,2.1,0,0,0,.4,1.4,1.9,1.9,0,0,0,1.3.5,1.7,1.7,0,0,0,1.2-.5,2.9,2.9,0,0,0,.4-1.4,2.7,2.7,0,0,0-.4-1.5A1.7,1.7,0,0,0,82.5,38.9Z" transform="translate(0 -5.9)"/><path d="M90.1,43.3h-.8V40.5c0-1.1-.4-1.6-1.2-1.6a1.4,1.4,0,0,0-1,.5,1.8,1.8,0,0,0-.4,1.1v2.8h-.8v-5h.8v.9h0a1.9,1.9,0,0,1,1.7-1,1.4,1.4,0,0,1,1.2.6,2.1,2.1,0,0,1,.5,1.5Z" transform="translate(0 -5.9)"/><path d="M66.2,52.8h-.9l-.7-1.9h-3l-.7,1.9H60l2.7-7h.8Zm-1.9-2.7-1.1-2.9a4.3,4.3,0,0,1-.1-.5h0a.9.9,0,0,0-.1.5l-1.1,2.9Z" transform="translate(0 -5.9)"/><path d="M67.8,50.2v2.6H67v-7h1.9a2.6,2.6,0,0,1,1.8.6,2,2,0,0,1,.6,1.5,2.6,2.6,0,0,1-.7,1.7,2.9,2.9,0,0,1-1.9.6Zm0-3.6v2.9h.9a2.5,2.5,0,0,0,1.3-.4,1.5,1.5,0,0,0,.4-1.1c0-1-.5-1.4-1.6-1.4Z" transform="translate(0 -5.9)"/><path d="M73.2,52.8h-.9v-7h.9Z" transform="translate(0 -5.9)"/></svg>