<svg id="svg95" xmlns="http://www.w3.org/2000/svg" viewBox="0 0 205.55 55.68">
  <defs>
    <style>
      .cls-1, .cls-4, .cls-5 {
        fill: #fff;
      }

      .cls-1 {
        stroke: #000;
        stroke-width: 0.24px;
      }

      .cls-1, .cls-3 {
        stroke-linecap: round;
        stroke-linejoin: round;
      }

      .cls-1, .cls-2, .cls-3, .cls-4, .cls-7 {
        fill-rule: evenodd;
      }

      .cls-10, .cls-2, .cls-3 {
        fill: #008bfd;
      }

      .cls-3 {
        stroke: gray;
        stroke-width: 0.75px;
      }

      .cls-6, .cls-7 {
        fill: #505050;
      }

      .cls-8 {
        isolation: isolate;
      }

      .cls-9 {
        fill: #00b0f0;
      }
    </style>
  </defs>
  <title>OJ104546506</title>
  <g>
    <g id="shape1000-1">
      <path id="path15" class="cls-1" d="M16,9.82.12,21.25,6.2,39.73H25.86l6.08-18.48Z"/>
    </g>
    <g id="group1216-3">
      <g id="group1217-4">
        <g id="group1218-5">
          <g id="group1219-6">
            <g id="shape1220-7">
              <path id="path28" class="cls-2" d="M15.7,16.94a4.49,4.49,0,0,0-3,5.66c.66,2.55,3,4.22,5.27,3.67a4.5,4.5,0,0,0,3-5.67C20.42,17.94,18,16.27,15.7,16.94Z"/>
            </g>
          </g>
          <g id="group1221-9">
            <g id="shape1222-10">
              <path id="path36" class="cls-2" d="M20.64,27c-.44,0-.88.78-1.54,1.11s-1.32.89-3.18,0-2.09-1.66-3.63-1.66-4.06,2.77-4.06,6.88H23.82a12.09,12.09,0,0,0-1.1-4.22C21.62,27,21.08,27,20.64,27Z"/>
            </g>
          </g>
        </g>
      </g>
      <g id="group1223-12">
        <g id="shape1224-13">
          <path id="path46" class="cls-3" d="M22.05,22H17.93a.71.71,0,0,0-.65.66v2.85a.72.72,0,0,0,.76.65h.76v5.15a1,1,0,0,0,1,1.1,1,1,0,0,0,1-1H21v-.65c0-.22.33-.33.33-.33v-.33c-.33-.11-.54-.33-.54-.44v-.33l.21-.22a3.55,3.55,0,0,0,.33-.54A2.4,2.4,0,0,1,21,28c-.1-.11-.1-.33-.21-.44v-.22a2.51,2.51,0,0,1,.76-1.1h.54a.7.7,0,0,0,.65-.65v-3A.63.63,0,0,0,22.05,22Zm-2.39,9.53c0,.22,0,.33-.21.33s-.22-.22-.22-.33V26.72c0-.22.11-.33.22-.33s.21.22.21.33ZM20,23.76a.69.69,0,0,1-.65-.65.7.7,0,0,1,.65-.66.71.71,0,0,1,.65.66A.62.62,0,0,1,20,23.76Z"/>
        </g>
        <g id="shape1225-15">
          <path id="path51" class="cls-4" d="M19.43,31.85a.24.24,0,0,1-.22-.22v-5a.22.22,0,0,1,.44,0v5.11C19.65,31.85,19.54,31.85,19.43,31.85Z"/>
        </g>
        <g id="shape1226-17">
          <ellipse id="ellipse56" class="cls-5" cx="20" cy="23.09" rx="0.66" ry="0.67"/>
        </g>
      </g>
    </g>
  </g>
  <path id="path65" class="cls-2" d="M188.6,8.81H168.1A1.09,1.09,0,0,0,167,9.91V26.65a1.1,1.1,0,0,0,1.09,1.11h5.28A3.29,3.29,0,0,0,176.59,30a3.38,3.38,0,0,0,0-6.75,3.29,3.29,0,0,0-3.21,2.27h-4.19v-12H187.5v12h-3.45A7.61,7.61,0,0,0,176.59,19a8.25,8.25,0,0,0-3.64.92l1,2a5.27,5.27,0,0,1,2.55-.67,5.46,5.46,0,0,1,0,10.91,5.27,5.27,0,0,1-2.55-.67l-1,2a7.51,7.51,0,0,0,3.64.92,7.61,7.61,0,0,0,7.46-6.56h4.55a1.1,1.1,0,0,0,1.09-1.11V9.91A1.14,1.14,0,0,0,188.6,8.81Z"/>
  <path id="path83" class="cls-2" d="M77.23,9.3H56.73a1.09,1.09,0,0,0-1.09,1.1V27.14a1.1,1.1,0,0,0,1.09,1.11H62a3.29,3.29,0,0,0,3.21,2.27,3.38,3.38,0,0,0,0-6.75A3.29,3.29,0,0,0,62,26H57.82v-12H76.13V26H72.68a7.61,7.61,0,0,0-7.46-6.56,8.25,8.25,0,0,0-3.64.92l1,2a5.27,5.27,0,0,1,2.55-.67,5.46,5.46,0,0,1,0,10.91,5.27,5.27,0,0,1-2.55-.67l-1,2a7.51,7.51,0,0,0,3.64.92,7.61,7.61,0,0,0,7.46-6.56h4.55a1.1,1.1,0,0,0,1.09-1.11V10.4A1.14,1.14,0,0,0,77.23,9.3Z"/>
  <rect class="cls-6" x="78.32" y="21.08" width="85.85" height="0.96" rx="0.42"/>
  <g id="shape1230-28">
    <g id="use7">
      <g id="lend5">
        <path id="path4" class="cls-7" d="M158.52,17.59l8.06,4-7.94,4a9,9,0,0,0-.06-8"/>
      </g>
    </g>
  </g>
  <g id="text76" class="cls-8">
    <path class="cls-9" d="M87.55,7.12H84.82V9.54h2.53v.73H84.82v3.11H84v-7h3.55Z"/>
    <path class="cls-9" d="M89.57,13.38h-.8V6h.8Z"/>
    <path class="cls-9" d="M95.24,13.38h-.8v-.8h0a1.65,1.65,0,0,1-1.55.91c-1.19,0-1.78-.71-1.78-2.13v-3h.79v2.86c0,1,.41,1.58,1.21,1.58a1.26,1.26,0,0,0,1-.43,1.68,1.68,0,0,0,.38-1.13V8.38h.8Z"/>
    <path class="cls-9" d="M100.51,8.38,98.83,10.9l1.65,2.48h-.94l-1-1.63-.22-.38h0a4.36,4.36,0,0,1-.23.38l-1,1.63h-.92l1.7-2.46L96.24,8.38h.94l1,1.7.21.39h0l1.25-2.09Z"/>
    <path class="cls-9" d="M107.11,13.49a3,3,0,0,1-2.38-1,3.63,3.63,0,0,1-.9-2.55,3.85,3.85,0,0,1,.91-2.7,3.2,3.2,0,0,1,2.49-1,3,3,0,0,1,2.34,1,3.65,3.65,0,0,1,.88,2.56,3.86,3.86,0,0,1-.91,2.71A3.12,3.12,0,0,1,107.11,13.49ZM107.17,7a2.25,2.25,0,0,0-1.79.79,3.08,3.08,0,0,0-.69,2.09,3.1,3.1,0,0,0,.67,2.09,2.2,2.2,0,0,0,1.75.78,2.3,2.3,0,0,0,1.82-.75,3.07,3.07,0,0,0,.66-2.1A3.23,3.23,0,0,0,109,7.75,2.22,2.22,0,0,0,107.17,7Z"/>
    <path class="cls-9" d="M115.87,13.38h-.8V10.52c0-1.06-.39-1.59-1.16-1.59a1.25,1.25,0,0,0-1,.45,1.64,1.64,0,0,0-.4,1.14v2.86h-.8v-5h.8v.83h0a1.8,1.8,0,0,1,1.64-1,1.52,1.52,0,0,1,1.26.53,2.34,2.34,0,0,1,.43,1.53Z"/>
    <path class="cls-9" d="M119.94,10.9h-2.67v-.63h2.67Z"/>
    <path class="cls-9" d="M121.49,13.38v-7h2a2.18,2.18,0,0,1,1.44.45A1.43,1.43,0,0,1,125.45,8a1.67,1.67,0,0,1-1.21,1.66v0a1.8,1.8,0,0,1,1.13.54,1.61,1.61,0,0,1,.43,1.17,1.84,1.84,0,0,1-.65,1.46,2.4,2.4,0,0,1-1.62.56Zm.82-6.26V9.38h.84a1.58,1.58,0,0,0,1.06-.33,1.15,1.15,0,0,0,.38-.91c0-.68-.45-1-1.34-1Zm0,3v2.52h1.11a1.65,1.65,0,0,0,1.12-.34,1.16,1.16,0,0,0,.4-.94c0-.82-.56-1.24-1.69-1.24Z"/>
    <path class="cls-9" d="M131.13,11.08H127.6a1.82,1.82,0,0,0,.45,1.28,1.53,1.53,0,0,0,1.18.46,2.46,2.46,0,0,0,1.55-.56V13a2.89,2.89,0,0,1-1.74.48,2.1,2.1,0,0,1-1.66-.68,2.75,2.75,0,0,1-.61-1.92,2.75,2.75,0,0,1,.66-1.9,2.12,2.12,0,0,1,1.64-.73,1.87,1.87,0,0,1,1.52.63,2.66,2.66,0,0,1,.54,1.77Zm-.82-.68A1.59,1.59,0,0,0,130,9.32a1.14,1.14,0,0,0-.92-.39,1.28,1.28,0,0,0-1,.41,1.78,1.78,0,0,0-.49,1.06Z"/>
    <path class="cls-9" d="M136.49,13.38h-.8V10.49c0-1-.39-1.56-1.16-1.56a1.28,1.28,0,0,0-1,.45,1.72,1.72,0,0,0-.4,1.16v2.84h-.8V6h.8V9.21h0a1.81,1.81,0,0,1,1.64-1c1.13,0,1.69.68,1.69,2Z"/>
    <path class="cls-9" d="M141.58,13.38h-.8v-.79h0a1.68,1.68,0,0,1-1.54.9,1.65,1.65,0,0,1-1.17-.39,1.39,1.39,0,0,1-.42-1c0-.94.55-1.48,1.65-1.63l1.5-.21c0-.85-.34-1.28-1-1.28a2.46,2.46,0,0,0-1.63.62V8.73a3,3,0,0,1,1.7-.47c1.17,0,1.76.62,1.76,1.86Zm-.8-2.53-1.21.16a2,2,0,0,0-.84.28.78.78,0,0,0-.28.7.79.79,0,0,0,.26.6,1,1,0,0,0,.7.23,1.29,1.29,0,0,0,1-.42,1.49,1.49,0,0,0,.39-1.06Z"/>
    <path class="cls-9" d="M143.89,13.38h-.8V6h.8Z"/>
    <path class="cls-9" d="M148,6.68a1,1,0,0,0-.53-.14c-.56,0-.84.36-.84,1.06v.78h1.17v.68h-1.17v4.32h-.8V9.06H145V8.38h.85V7.56a1.67,1.67,0,0,1,.46-1.24,1.54,1.54,0,0,1,1.13-.45A1.56,1.56,0,0,1,148,6Z"/>
    <path class="cls-9" d="M151.2,10.9h-2.67v-.63h2.67Z"/>
    <path class="cls-9" d="M155.57,13.49a3.07,3.07,0,0,1-2.39-1,3.67,3.67,0,0,1-.89-2.55,3.85,3.85,0,0,1,.91-2.7,3.2,3.2,0,0,1,2.49-1,3,3,0,0,1,2.33,1,3.66,3.66,0,0,1,.89,2.56A3.86,3.86,0,0,1,158,12.5,3.15,3.15,0,0,1,155.57,13.49ZM155.63,7a2.27,2.27,0,0,0-1.8.79,3.13,3.13,0,0,0-.68,2.09,3.1,3.1,0,0,0,.67,2.09,2.2,2.2,0,0,0,1.75.78,2.28,2.28,0,0,0,1.81-.75,3,3,0,0,0,.67-2.1,3.23,3.23,0,0,0-.65-2.15A2.21,2.21,0,0,0,155.63,7Z"/>
    <path class="cls-9" d="M162.65,6.68a1,1,0,0,0-.53-.14c-.56,0-.84.36-.84,1.06v.78h1.17v.68h-1.17v4.32h-.8V9.06h-.85V8.38h.85V7.56a1.7,1.7,0,0,1,.45-1.24,1.58,1.58,0,0,1,1.14-.45,1.56,1.56,0,0,1,.58.08Z"/>
  </g>
  <g id="text67" class="cls-8">
    <path class="cls-10" d="M159.64,43.32h-.9l-.75-2h-3l-.7,2h-.92l2.69-7H157Zm-1.91-2.7-1.1-3a2.75,2.75,0,0,1-.11-.47h0a2.53,2.53,0,0,1-.11.47l-1.09,3Z"/>
    <path class="cls-10" d="M161.39,42.59h0v3h-.8v-7.3h.8v.87h0a1.89,1.89,0,0,1,1.73-1,1.84,1.84,0,0,1,1.51.67,2.8,2.8,0,0,1,.54,1.8,3.15,3.15,0,0,1-.61,2,2,2,0,0,1-1.67.75A1.67,1.67,0,0,1,161.39,42.59Zm0-2v.69a1.49,1.49,0,0,0,.4,1.06,1.37,1.37,0,0,0,1,.43,1.33,1.33,0,0,0,1.14-.56,2.51,2.51,0,0,0,.42-1.55,2,2,0,0,0-.39-1.3,1.26,1.26,0,0,0-1-.48,1.42,1.42,0,0,0-1.13.49A1.79,1.79,0,0,0,161.37,40.58Z"/>
    <path class="cls-10" d="M167.27,42.59h0v3h-.8v-7.3h.8v.87h0a1.89,1.89,0,0,1,1.73-1,1.81,1.81,0,0,1,1.5.67,2.74,2.74,0,0,1,.55,1.8,3.15,3.15,0,0,1-.61,2,2,2,0,0,1-1.67.75A1.67,1.67,0,0,1,167.27,42.59Zm0-2v.69a1.49,1.49,0,0,0,.4,1.06,1.37,1.37,0,0,0,1,.43,1.33,1.33,0,0,0,1.14-.56,2.51,2.51,0,0,0,.42-1.55,2,2,0,0,0-.39-1.3,1.28,1.28,0,0,0-1.05-.48,1.41,1.41,0,0,0-1.12.49A1.79,1.79,0,0,0,167.25,40.58Z"/>
    <path class="cls-10" d="M173.13,43.32h-.8V35.91h.8Z"/>
    <path class="cls-10" d="M175.16,37.05a.51.51,0,0,1-.52-.52.52.52,0,0,1,.15-.38.53.53,0,0,1,.37-.14.55.55,0,0,1,.37.14.52.52,0,0,1,.15.38.49.49,0,0,1-.15.36A.49.49,0,0,1,175.16,37.05Zm.39,6.27h-.8v-5h.8Z"/>
    <path class="cls-10" d="M180.58,43.09a2.63,2.63,0,0,1-1.37.34,2.29,2.29,0,0,1-1.73-.69,2.57,2.57,0,0,1-.65-1.81,2.73,2.73,0,0,1,.71-2,2.46,2.46,0,0,1,1.88-.75,2.72,2.72,0,0,1,1.17.24v.82a2,2,0,0,0-1.19-.39,1.6,1.6,0,0,0-1.26.55,2.08,2.08,0,0,0-.49,1.44,2,2,0,0,0,.46,1.39,1.59,1.59,0,0,0,1.24.51,2,2,0,0,0,1.23-.44Z"/>
    <path class="cls-10" d="M185.37,43.32h-.8v-.79h0a1.68,1.68,0,0,1-1.54.9,1.65,1.65,0,0,1-1.17-.39,1.39,1.39,0,0,1-.42-1c0-.94.55-1.48,1.65-1.63l1.5-.21c0-.85-.35-1.28-1-1.28a2.44,2.44,0,0,0-1.63.62v-.82a3,3,0,0,1,1.69-.47q1.77,0,1.77,1.86Zm-.8-2.53-1.21.16a2,2,0,0,0-.84.28.78.78,0,0,0-.28.7.76.76,0,0,0,.26.6,1,1,0,0,0,.69.23,1.29,1.29,0,0,0,1-.42,1.49,1.49,0,0,0,.39-1.06Z"/>
    <path class="cls-10" d="M189.2,43.27a1.61,1.61,0,0,1-.75.15c-.88,0-1.32-.49-1.32-1.46V39h-.85v-.68h.85V37.09l.81-.25v1.48h1.26V39h-1.26v2.82a1.11,1.11,0,0,0,.17.71.65.65,0,0,0,.56.22.86.86,0,0,0,.53-.17Z"/>
    <path class="cls-10" d="M190.67,37.05a.49.49,0,0,1-.36-.15.5.5,0,0,1-.15-.37.5.5,0,0,1,.51-.52.56.56,0,0,1,.38.14.52.52,0,0,1,.15.38.53.53,0,0,1-.53.52Zm.4,6.27h-.81v-5h.81Z"/>
    <path class="cls-10" d="M194.78,43.43a2.31,2.31,0,0,1-1.77-.7,2.6,2.6,0,0,1-.67-1.86,2.68,2.68,0,0,1,.69-2,2.45,2.45,0,0,1,1.86-.71,2.25,2.25,0,0,1,1.75.69,2.72,2.72,0,0,1,.63,1.91,2.69,2.69,0,0,1-.68,1.91A2.36,2.36,0,0,1,194.78,43.43Zm.05-4.56a1.53,1.53,0,0,0-1.22.53,2.19,2.19,0,0,0-.44,1.44,2.08,2.08,0,0,0,.45,1.41,1.54,1.54,0,0,0,1.21.51,1.49,1.49,0,0,0,1.2-.5,2.2,2.2,0,0,0,.42-1.43,2.22,2.22,0,0,0-.42-1.45A1.47,1.47,0,0,0,194.83,38.87Z"/>
    <path class="cls-10" d="M202.7,43.32h-.8V40.46q0-1.59-1.17-1.59a1.25,1.25,0,0,0-1,.45,1.7,1.7,0,0,0-.39,1.14v2.86h-.8v-5h.8v.83h0A1.78,1.78,0,0,1,201,38.2a1.54,1.54,0,0,1,1.25.53,2.35,2.35,0,0,1,.44,1.53Z"/>
    <path class="cls-10" d="M177.33,53.32h-.91l-.74-2h-3l-.69,2h-.92l2.69-7h.85Zm-1.92-2.7-1.09-3a2,2,0,0,1-.11-.47h0a2.53,2.53,0,0,1-.11.47l-1.09,3Z"/>
    <path class="cls-10" d="M179.18,50.67v2.65h-.82v-7h1.93a2.56,2.56,0,0,1,1.74.55,2,2,0,0,1,.62,1.54A2.1,2.1,0,0,1,182,50a2.6,2.6,0,0,1-1.85.64Zm0-3.61v2.87H180a1.92,1.92,0,0,0,1.3-.39,1.38,1.38,0,0,0,.45-1.1c0-.92-.55-1.38-1.64-1.38Z"/>
    <path class="cls-10" d="M184.78,53.32H184v-7h.82Z"/>
  </g>
  <g id="text85" class="cls-8">
    <path class="cls-10" d="M48.27,43.81h-.91l-.74-2h-3l-.7,2H42l2.69-7h.85Zm-1.92-2.7-1.1-3a2.74,2.74,0,0,1-.1-.47h0a2.42,2.42,0,0,1-.12.47l-1.08,3Z"/>
    <path class="cls-10" d="M50,43.08h0v3h-.8v-7.3H50v.88h0a1.89,1.89,0,0,1,1.73-1,1.82,1.82,0,0,1,1.51.67,2.8,2.8,0,0,1,.54,1.8,3.07,3.07,0,0,1-.61,2,2,2,0,0,1-1.67.75A1.69,1.69,0,0,1,50,43.08Zm0-2v.7a1.49,1.49,0,0,0,.41,1,1.43,1.43,0,0,0,2.16-.13A2.49,2.49,0,0,0,53,41.15a2,2,0,0,0-.38-1.31,1.28,1.28,0,0,0-1.05-.48,1.43,1.43,0,0,0-1.12.49A1.8,1.8,0,0,0,50,41.07Z"/>
    <path class="cls-10" d="M55.89,43.08h0v3h-.8v-7.3h.8v.88h0a1.89,1.89,0,0,1,1.73-1,1.82,1.82,0,0,1,1.51.67,2.8,2.8,0,0,1,.54,1.8,3.07,3.07,0,0,1-.61,2,2,2,0,0,1-1.67.75A1.67,1.67,0,0,1,55.89,43.08Zm0-2v.7a1.49,1.49,0,0,0,.41,1,1.32,1.32,0,0,0,1,.43,1.36,1.36,0,0,0,1.14-.56,2.56,2.56,0,0,0,.41-1.54,2,2,0,0,0-.38-1.31,1.28,1.28,0,0,0-1-.48,1.43,1.43,0,0,0-1.12.49A1.8,1.8,0,0,0,55.87,41.07Z"/>
    <path class="cls-10" d="M61.75,43.81H61V36.4h.8Z"/>
    <path class="cls-10" d="M63.78,37.54a.49.49,0,0,1-.36-.15.53.53,0,0,1,0-.74.49.49,0,0,1,.36-.15.54.54,0,0,1,.38.15.5.5,0,0,1,.15.37.51.51,0,0,1-.15.37A.54.54,0,0,1,63.78,37.54Zm.39,6.27h-.8v-5h.8Z"/>
    <path class="cls-10" d="M69.2,43.58a2.59,2.59,0,0,1-1.36.34,2.27,2.27,0,0,1-1.73-.69,2.54,2.54,0,0,1-.66-1.81,2.78,2.78,0,0,1,.71-2,2.47,2.47,0,0,1,1.89-.75,2.64,2.64,0,0,1,1.16.24v.82A2,2,0,0,0,68,39.36a1.64,1.64,0,0,0-1.26.55,2.14,2.14,0,0,0-.49,1.45,2,2,0,0,0,.47,1.38,1.57,1.57,0,0,0,1.23.51,2,2,0,0,0,1.23-.43Z"/>
    <path class="cls-10" d="M74,43.81h-.8V43h0a1.67,1.67,0,0,1-1.53.89,1.65,1.65,0,0,1-1.17-.39A1.35,1.35,0,0,1,70,42.48c0-.94.55-1.48,1.65-1.63l1.5-.21c0-.85-.34-1.28-1-1.28a2.48,2.48,0,0,0-1.63.62v-.82a3.12,3.12,0,0,1,1.7-.47c1.18,0,1.76.62,1.76,1.86Zm-.8-2.53-1.2.16a2.11,2.11,0,0,0-.84.28.79.79,0,0,0-.29.7.77.77,0,0,0,.27.6,1,1,0,0,0,.69.23,1.26,1.26,0,0,0,1-.42,1.48,1.48,0,0,0,.39-1Z"/>
    <path class="cls-10" d="M77.82,43.76a1.61,1.61,0,0,1-.75.15c-.87,0-1.31-.48-1.31-1.46v-3H74.9v-.68h.86V37.59l.8-.26v1.48h1.26v.68H76.56v2.82a1.23,1.23,0,0,0,.17.72.71.71,0,0,0,.57.21.83.83,0,0,0,.52-.17Z"/>
    <path class="cls-10" d="M79.3,37.54a.49.49,0,0,1-.36-.15.51.51,0,0,1,0-.74.49.49,0,0,1,.36-.15.5.5,0,0,1,.37.15.47.47,0,0,1,.16.37.49.49,0,0,1-.16.37A.5.5,0,0,1,79.3,37.54Zm.39,6.27h-.8v-5h.8Z"/>
    <path class="cls-10" d="M83.4,43.92a2.31,2.31,0,0,1-1.77-.7A2.57,2.57,0,0,1,81,41.37a2.7,2.7,0,0,1,.69-2,2.49,2.49,0,0,1,1.86-.71,2.25,2.25,0,0,1,1.75.69,2.76,2.76,0,0,1,.62,1.91,2.68,2.68,0,0,1-.67,1.91A2.38,2.38,0,0,1,83.4,43.92Zm.06-4.56a1.53,1.53,0,0,0-1.22.53,2.15,2.15,0,0,0-.45,1.45,2,2,0,0,0,.46,1.4,1.53,1.53,0,0,0,1.21.51,1.49,1.49,0,0,0,1.2-.5,2.73,2.73,0,0,0,0-2.88A1.47,1.47,0,0,0,83.46,39.36Z"/>
    <path class="cls-10" d="M91.32,43.81h-.8V41c0-1.07-.39-1.6-1.16-1.6a1.25,1.25,0,0,0-1,.45A1.68,1.68,0,0,0,88,41v2.85h-.8v-5H88v.83h0a1.8,1.8,0,0,1,1.64-1,1.55,1.55,0,0,1,1.26.53,2.34,2.34,0,0,1,.43,1.53Z"/>
    <path class="cls-10" d="M66,53.81h-.91l-.74-2h-3l-.7,2h-.91l2.68-7h.85ZM64,51.11l-1.1-3a3.75,3.75,0,0,1-.11-.47h0a2.53,2.53,0,0,1-.11.47l-1.09,3Z"/>
    <path class="cls-10" d="M67.81,51.16v2.65H67v-7h1.92a2.56,2.56,0,0,1,1.74.55,1.93,1.93,0,0,1,.62,1.54,2.16,2.16,0,0,1-.68,1.64,2.65,2.65,0,0,1-1.86.63Zm0-3.61v2.87h.86A1.92,1.92,0,0,0,70,50a1.39,1.39,0,0,0,.44-1.1c0-.92-.54-1.38-1.64-1.38Z"/>
    <path class="cls-10" d="M73.41,53.81h-.82v-7h.82Z"/>
  </g>
</svg>
