<svg id="svg198" xmlns="http://www.w3.org/2000/svg" viewBox="0 0 204.71 64.78">
  <defs>
    <style>
      .cls-1, .cls-6 {
        fill: #008bfd;
      }

      .cls-2 {
        isolation: isolate;
      }

      .cls-3, .cls-8 {
        fill: none;
      }

      .cls-4 {
        fill: #00b0f0;
      }

      .cls-5 {
        fill: #505050;
      }

      .cls-6 {
        stroke: gray;
        stroke-linecap: round;
        stroke-linejoin: round;
        stroke-width: 0.75px;
      }

      .cls-7 {
        fill: #fff;
      }

      .cls-8 {
        stroke: #505050;
        stroke-miterlimit: 10;
      }
    </style>
  </defs>
  <title>OJ104440671</title>
  <g id="group1113-2">
    <g id="shape1114-3">
      <path id="path21" class="cls-1" d="M66,40.4a11.81,11.81,0,0,1-16.84-2.29,12.56,12.56,0,0,1,2.24-17.29,11.82,11.82,0,0,1,16.84,2.3A12.54,12.54,0,0,1,66,40.4ZM69.69,22a13.57,13.57,0,0,0-19.36-2.63,14.43,14.43,0,0,0-2.55,19.87,13.62,13.62,0,0,0,11,5.55,13.45,13.45,0,0,0,8.39-2.92A14.44,14.44,0,0,0,69.69,22Z"/>
    </g>
  </g>
  <g id="group1115-5">
    <g id="group1116-6">
      <g id="group1117-7">
        <g id="shape1118-8">
          <path id="path33" class="cls-1" d="M52.06,33.18a17,17,0,0,1-2-2.35,18.28,18.28,0,0,0-1.66,6.88c.11.16.11.29.23.44a12.55,12.55,0,0,0,2,2.05A14.13,14.13,0,0,1,52.06,33.18Z"/>
        </g>
      </g>
      <g id="shape1119-10">
        <path id="path39" class="cls-1" d="M56.67,23.74a21,21,0,0,0-3.33,3,15.71,15.71,0,0,0-1.61,2.05,15.42,15.42,0,0,0,1.9,2.46,16.32,16.32,0,0,1,2.2-2.56A26.47,26.47,0,0,1,59,26.06C58.16,25.3,57.38,24.53,56.67,23.74Z"/>
      </g>
      <g id="group1120-12">
        <g id="shape1121-13">
          <path id="path46" class="cls-1" d="M68.14,22.94a12,12,0,0,0-1.73-1.82,12.53,12.53,0,0,0-8,1.53c.76.84,1.51,1.63,2.24,2.36C65,22.58,68.14,22.94,68.14,22.94Z"/>
        </g>
      </g>
      <g id="group1122-15">
        <g id="shape1123-16">
          <path id="path54" class="cls-1" d="M50.34,31a19.82,19.82,0,0,1,1.19-2.06,9.84,9.84,0,0,1-1.6-6.79,13.09,13.09,0,0,0-1.29,1.6C48.26,25.33,48.24,27.89,50.34,31Z"/>
        </g>
      </g>
      <g id="group1124-18">
        <g id="shape1125-19">
          <path id="path62" class="cls-1" d="M55.9,33.36a21.6,21.6,0,0,1-2.27-2.14,14.25,14.25,0,0,0-1.14,2,23.54,23.54,0,0,0,2.09,1.91,19.12,19.12,0,0,0,12.56,4.38,9,9,0,0,0,1.54-1.94C67.45,37.78,62.19,38.47,55.9,33.36Z"/>
        </g>
      </g>
      <g id="group1126-21">
        <g id="shape1127-22">
          <path id="path70" class="cls-1" d="M50.54,30.82a15.72,15.72,0,0,0,2,2.35,15.36,15.36,0,0,1,1.14-2,15.42,15.42,0,0,1-1.9-2.46A15.58,15.58,0,0,0,50.54,30.82Z"/>
        </g>
      </g>
      <g id="group1128-24">
        <g id="shape1129-25">
          <path id="path78" class="cls-1" d="M59,26.06a97,97,0,0,0,11.15,8.82,9.82,9.82,0,0,0,.33-1.05A95.51,95.51,0,0,1,60.61,25Q59.82,25.46,59,26.06Z"/>
        </g>
      </g>
      <g id="group1130-27">
        <g id="shape1131-28">
          <path id="path86" class="cls-1" d="M58.38,22.65q-1.65-1.77-3.36-3.8a10.05,10.05,0,0,0-1.59.66,26.3,26.3,0,0,0,3.24,4.22A17.22,17.22,0,0,1,58.38,22.65Z"/>
        </g>
      </g>
      <g id="shape1132-30">
        <path id="path92" class="cls-1" d="M58.45,22.61a18.74,18.74,0,0,0-1.87,1.19c.72.78,1.45,1.59,2.25,2.35.57-.4,1.34-.88,1.87-1.18C60,24.24,59.21,23.45,58.45,22.61Z"/>
      </g>
      <g id="shape1133-32">
        <path id="path97" class="cls-1" d="M58.25,22.51a16.24,16.24,0,0,0-1.67,1.12c.72.79,1.74,1.81,2.54,2.57.57-.4,1.05-.8,1.58-1.11C60,24.37,59,23.34,58.25,22.51Z"/>
      </g>
    </g>
    <g id="group1134-34">
      <g id="shape1135-35">
        <path id="path105" class="cls-1" d="M64.3,29.06a2.7,2.7,0,0,0-.48,3.7,2.56,2.56,0,0,0,3.63.51,2.72,2.72,0,0,0,.48-3.72A2.55,2.55,0,0,0,64.3,29.06Z"/>
      </g>
    </g>
    <g id="group1136-37">
      <g id="shape1137-38">
        <path id="path113" class="cls-1" d="M59.13,35.19a2.52,2.52,0,0,0-.45,3.44,2.37,2.37,0,0,0,3.36.45,2.49,2.49,0,0,0,.44-3.43A2.36,2.36,0,0,0,59.13,35.19Z"/>
      </g>
    </g>
    <g id="group1138-40">
      <g id="shape1139-41">
        <path id="path121" class="cls-1" d="M50,27.86a3.79,3.79,0,0,0-.68,5.21,3.58,3.58,0,0,0,5.1.7,3.8,3.8,0,0,0,.67-5.23A3.59,3.59,0,0,0,50,27.86Z"/>
      </g>
    </g>
  </g>
  <g id="shape1112-43">
    <g id="text126" class="cls-2">
      <path class="cls-1" d="M29.39,57.79h-.91l-.74-2h-3l-.7,2h-.91l2.69-7h.85Zm-1.92-2.7-1.1-3a2.74,2.74,0,0,1-.1-.47h0a3.72,3.72,0,0,1-.11.47l-1.09,3Z"/>
      <path class="cls-1" d="M31.14,57.06h0v3h-.81v-7.3h.81v.88h0a1.88,1.88,0,0,1,1.72-1,1.82,1.82,0,0,1,1.51.67,2.8,2.8,0,0,1,.54,1.8,3.07,3.07,0,0,1-.61,2,2,2,0,0,1-1.67.75A1.67,1.67,0,0,1,31.14,57.06Zm0-2v.7a1.48,1.48,0,0,0,.4,1,1.43,1.43,0,0,0,2.16-.13,2.49,2.49,0,0,0,.41-1.54,2,2,0,0,0-.38-1.31,1.28,1.28,0,0,0-1.05-.48,1.43,1.43,0,0,0-1.12.49A1.79,1.79,0,0,0,31.12,55.05Z"/>
      <path class="cls-1" d="M37,57.06h0v3h-.8v-7.3H37v.88h0a1.89,1.89,0,0,1,1.73-1,1.82,1.82,0,0,1,1.51.67,2.8,2.8,0,0,1,.54,1.8,3.07,3.07,0,0,1-.61,2,2,2,0,0,1-1.67.75A1.69,1.69,0,0,1,37,57.06Zm0-2v.7a1.49,1.49,0,0,0,.41,1,1.43,1.43,0,0,0,2.16-.13A2.49,2.49,0,0,0,40,55.13a2,2,0,0,0-.38-1.31,1.28,1.28,0,0,0-1.05-.48,1.43,1.43,0,0,0-1.12.49A1.8,1.8,0,0,0,37,55.05Z"/>
      <path class="cls-1" d="M42.87,57.79h-.8V50.38h.8Z"/>
      <path class="cls-1" d="M44.9,51.52a.49.49,0,0,1-.36-.15.53.53,0,0,1,0-.74.49.49,0,0,1,.36-.15.52.52,0,0,1,.38.15.5.5,0,0,1,.15.37.51.51,0,0,1-.15.37A.52.52,0,0,1,44.9,51.52Zm.4,6.27h-.81v-5h.81Z"/>
      <path class="cls-1" d="M50.32,57.56A2.59,2.59,0,0,1,49,57.9a2.27,2.27,0,0,1-1.73-.69,2.54,2.54,0,0,1-.66-1.81,2.78,2.78,0,0,1,.71-2,2.47,2.47,0,0,1,1.89-.75,2.64,2.64,0,0,1,1.16.24v.82a2,2,0,0,0-1.19-.39,1.61,1.61,0,0,0-1.25.55,2.09,2.09,0,0,0-.49,1.45,2,2,0,0,0,.46,1.38,1.57,1.57,0,0,0,1.23.51,2,2,0,0,0,1.23-.43Z"/>
      <path class="cls-1" d="M55.11,57.79h-.8V57h0a1.67,1.67,0,0,1-1.53.89,1.65,1.65,0,0,1-1.17-.39,1.39,1.39,0,0,1-.43-1c0-.94.55-1.48,1.65-1.63l1.5-.21c0-.85-.34-1.28-1-1.28a2.48,2.48,0,0,0-1.63.62v-.82a3.12,3.12,0,0,1,1.7-.47c1.18,0,1.76.62,1.76,1.86Zm-.8-2.53-1.2.16a2.11,2.11,0,0,0-.84.28.8.8,0,0,0-.29.7.77.77,0,0,0,.27.6,1,1,0,0,0,.69.23,1.29,1.29,0,0,0,1-.42,1.52,1.52,0,0,0,.38-1.05Z"/>
      <path class="cls-1" d="M58.94,57.74a1.6,1.6,0,0,1-.74.15c-.88,0-1.32-.48-1.32-1.46v-3H56v-.68h.86V51.57l.8-.26v1.48h1.26v.68H57.68v2.82a1.23,1.23,0,0,0,.17.72.71.71,0,0,0,.57.21.83.83,0,0,0,.52-.17Z"/>
      <path class="cls-1" d="M60.42,51.52a.49.49,0,0,1-.36-.15.51.51,0,0,1,0-.74.49.49,0,0,1,.36-.15.54.54,0,0,1,.38.15A.5.5,0,0,1,61,51a.51.51,0,0,1-.15.37A.54.54,0,0,1,60.42,51.52Zm.39,6.27H60v-5h.8Z"/>
      <path class="cls-1" d="M64.52,57.9a2.32,2.32,0,0,1-1.77-.7,2.57,2.57,0,0,1-.66-1.85,2.7,2.7,0,0,1,.69-2,2.49,2.49,0,0,1,1.86-.71,2.25,2.25,0,0,1,1.75.69A2.71,2.71,0,0,1,67,55.27a2.67,2.67,0,0,1-.67,1.91A2.38,2.38,0,0,1,64.52,57.9Zm.06-4.56a1.53,1.53,0,0,0-1.22.53,2.15,2.15,0,0,0-.45,1.45,2,2,0,0,0,.46,1.4,1.53,1.53,0,0,0,1.21.51,1.49,1.49,0,0,0,1.2-.5,2.73,2.73,0,0,0,0-2.88A1.47,1.47,0,0,0,64.58,53.34Z"/>
      <path class="cls-1" d="M72.44,57.79h-.8V54.94c0-1.07-.38-1.6-1.16-1.6a1.25,1.25,0,0,0-1,.45,1.73,1.73,0,0,0-.4,1.15v2.85h-.8v-5h.8v.83h0a1.8,1.8,0,0,1,1.64-.95A1.55,1.55,0,0,1,72,53.2a2.34,2.34,0,0,1,.43,1.53Z"/>
      <path class="cls-1" d="M83,52.79l-1.5,5h-.83l-1-3.58a2.86,2.86,0,0,1-.08-.47h0a2.15,2.15,0,0,1-.1.46l-1.12,3.59h-.8l-1.51-5h.84l1,3.76a1.63,1.63,0,0,1,.07.45h0a2,2,0,0,1,.09-.46l1.15-3.75H80l1,3.77a2.37,2.37,0,0,1,.07.45h0a3.08,3.08,0,0,1,.08-.45l1-3.77Z"/>
      <path class="cls-1" d="M87.94,55.49H84.41a1.87,1.87,0,0,0,.45,1.29,1.54,1.54,0,0,0,1.18.45,2.46,2.46,0,0,0,1.55-.56v.76a3,3,0,0,1-1.74.47,2.11,2.11,0,0,1-1.67-.68,2.79,2.79,0,0,1-.6-1.91,2.76,2.76,0,0,1,.66-1.91,2.12,2.12,0,0,1,1.64-.73,1.88,1.88,0,0,1,1.52.63,2.67,2.67,0,0,1,.54,1.77Zm-.82-.68a1.68,1.68,0,0,0-.34-1.08,1.12,1.12,0,0,0-.91-.39,1.32,1.32,0,0,0-1,.41,1.83,1.83,0,0,0-.48,1.06Z"/>
      <path class="cls-1" d="M90,57.06h0v.73h-.8V50.38H90v3.29h0a1.88,1.88,0,0,1,1.73-1,1.81,1.81,0,0,1,1.5.67,2.74,2.74,0,0,1,.55,1.8,3.13,3.13,0,0,1-.61,2,2,2,0,0,1-1.67.75A1.65,1.65,0,0,1,90,57.06Zm0-2v.7a1.48,1.48,0,0,0,.4,1,1.43,1.43,0,0,0,2.16-.13,2.49,2.49,0,0,0,.42-1.54,2,2,0,0,0-.39-1.31,1.26,1.26,0,0,0-1-.48,1.45,1.45,0,0,0-1.13.49A1.79,1.79,0,0,0,90,55.05Z"/>
    </g>
  </g>
  <rect id="rect134" class="cls-3" x="65.1" y="0.37" width="114.21" height="20"/>
  <g id="text136" class="cls-2">
    <path class="cls-4" d="M63.78,7.11H61.05V9.53h2.53v.74H61.05v3.1h-.82v-7h3.55Z"/>
    <path class="cls-4" d="M65.8,13.37H65V6h.8Z"/>
    <path class="cls-4" d="M71.47,13.37h-.8v-.79h0a1.64,1.64,0,0,1-1.55.91c-1.19,0-1.78-.71-1.78-2.13v-3h.79v2.86c0,1.06.41,1.58,1.21,1.58a1.21,1.21,0,0,0,1-.43,1.66,1.66,0,0,0,.38-1.13V8.37h.8Z"/>
    <path class="cls-4" d="M76.74,8.37,75.06,10.9l1.65,2.47h-.94l-1-1.62-.22-.38h0s-.09.15-.23.38l-1,1.62H72.4l1.7-2.45L72.47,8.37h.94l1,1.71a3.72,3.72,0,0,1,.21.39h0l1.25-2.1Z"/>
    <path class="cls-4" d="M84.68,13.37h-.8v-.85h0a1.84,1.84,0,0,1-1.72,1,1.87,1.87,0,0,1-1.5-.67A2.75,2.75,0,0,1,80.07,11a3,3,0,0,1,.63-2,2,2,0,0,1,1.66-.75,1.6,1.6,0,0,1,1.5.81h0V6h.8Zm-.8-2.26v-.74a1.41,1.41,0,0,0-.4-1,1.36,1.36,0,0,0-1-.42,1.41,1.41,0,0,0-1.15.53A2.38,2.38,0,0,0,80.89,11a2.16,2.16,0,0,0,.4,1.36,1.31,1.31,0,0,0,1.09.5,1.37,1.37,0,0,0,1.08-.48A1.79,1.79,0,0,0,83.88,11.11Z"/>
    <path class="cls-4" d="M90.32,11.07H86.79a1.83,1.83,0,0,0,.45,1.29,1.56,1.56,0,0,0,1.18.45A2.45,2.45,0,0,0,90,12.26V13a2.89,2.89,0,0,1-1.74.48,2.1,2.1,0,0,1-1.66-.68A2.78,2.78,0,0,1,86,10.89,2.73,2.73,0,0,1,86.62,9a2.13,2.13,0,0,1,1.65-.74,1.87,1.87,0,0,1,1.51.64,2.63,2.63,0,0,1,.54,1.76Zm-.82-.68a1.62,1.62,0,0,0-.33-1.08,1.17,1.17,0,0,0-.92-.38,1.28,1.28,0,0,0-1,.4,1.81,1.81,0,0,0-.49,1.06Z"/>
    <path class="cls-4" d="M97.68,13.14a2.63,2.63,0,0,1-1.37.35,2.22,2.22,0,0,1-1.72-.7,2.5,2.5,0,0,1-.66-1.8,2.78,2.78,0,0,1,.71-2,2.47,2.47,0,0,1,1.89-.75,2.54,2.54,0,0,1,1.16.25v.82a2,2,0,0,0-1.19-.39,1.61,1.61,0,0,0-1.26.55,2,2,0,0,0-.49,1.44,2,2,0,0,0,.46,1.39,1.58,1.58,0,0,0,1.24.5,2,2,0,0,0,1.23-.43Z"/>
    <path class="cls-4" d="M101,13.49a2.34,2.34,0,0,1-1.77-.7,2.61,2.61,0,0,1-.66-1.86,2.7,2.7,0,0,1,.69-2,2.49,2.49,0,0,1,1.86-.71,2.24,2.24,0,0,1,1.74.69,2.73,2.73,0,0,1,.63,1.91,2.65,2.65,0,0,1-.68,1.92A2.36,2.36,0,0,1,101,13.49ZM101,8.93a1.51,1.51,0,0,0-1.22.52,2.15,2.15,0,0,0-.45,1.45,2,2,0,0,0,.45,1.4,1.56,1.56,0,0,0,1.22.51,1.44,1.44,0,0,0,1.19-.5,2.16,2.16,0,0,0,.42-1.43,2.19,2.19,0,0,0-.42-1.44A1.45,1.45,0,0,0,101,8.93Z"/>
    <path class="cls-4" d="M109,13.37h-.8v-.85h0a1.85,1.85,0,0,1-1.72,1,1.9,1.9,0,0,1-1.51-.67,2.8,2.8,0,0,1-.56-1.83A3,3,0,0,1,105,9a2.06,2.06,0,0,1,1.67-.75,1.62,1.62,0,0,1,1.5.81h0V6h.8Zm-.8-2.26v-.74a1.45,1.45,0,0,0-.4-1,1.36,1.36,0,0,0-1-.42,1.39,1.39,0,0,0-1.15.53,2.38,2.38,0,0,0-.42,1.49,2.1,2.1,0,0,0,.4,1.36,1.3,1.3,0,0,0,1.08.5,1.38,1.38,0,0,0,1.09-.48A1.79,1.79,0,0,0,108.22,11.11Z"/>
    <path class="cls-4" d="M114.66,11.07h-3.53a1.83,1.83,0,0,0,.45,1.29,1.54,1.54,0,0,0,1.18.45,2.45,2.45,0,0,0,1.55-.55V13a2.89,2.89,0,0,1-1.74.48,2.14,2.14,0,0,1-1.67-.68,2.83,2.83,0,0,1-.6-1.92A2.73,2.73,0,0,1,111,9a2.12,2.12,0,0,1,1.64-.74,1.89,1.89,0,0,1,1.52.64,2.63,2.63,0,0,1,.54,1.76Zm-.82-.68a1.68,1.68,0,0,0-.34-1.08,1.15,1.15,0,0,0-.91-.38,1.28,1.28,0,0,0-1,.4,1.81,1.81,0,0,0-.49,1.06Z"/>
    <path class="cls-4" d="M122.88,13.37h-.81v-.85h0a1.83,1.83,0,0,1-1.71,1,1.9,1.9,0,0,1-1.51-.67,2.74,2.74,0,0,1-.56-1.83,3,3,0,0,1,.62-2,2.06,2.06,0,0,1,1.67-.75,1.59,1.59,0,0,1,1.49.81h0V6h.81Zm-.81-2.26v-.74a1.41,1.41,0,0,0-.4-1,1.32,1.32,0,0,0-1-.42,1.39,1.39,0,0,0-1.15.53,2.38,2.38,0,0,0-.42,1.49,2.1,2.1,0,0,0,.4,1.36,1.3,1.3,0,0,0,1.08.5,1.38,1.38,0,0,0,1.09-.48A1.84,1.84,0,0,0,122.07,11.11Z"/>
    <path class="cls-4" d="M125.48,6.25l-.68,2.18h-.58l.54-2.18Z"/>
    <path class="cls-4" d="M130.37,13.37h-.81v-.78h0a1.66,1.66,0,0,1-1.53.9,1.61,1.61,0,0,1-1.17-.4,1.36,1.36,0,0,1-.42-1.05c0-.93.54-1.47,1.65-1.63l1.49-.21c0-.85-.34-1.27-1-1.27a2.47,2.47,0,0,0-1.63.61V8.72a3.12,3.12,0,0,1,1.7-.47c1.18,0,1.77.63,1.77,1.87Zm-.81-2.53-1.2.17a2,2,0,0,0-.84.27.79.79,0,0,0-.28.7.73.73,0,0,0,.26.6,1,1,0,0,0,.69.23,1.32,1.32,0,0,0,1-.41,1.53,1.53,0,0,0,.38-1.06Z"/>
    <path class="cls-4" d="M135.92,13.37h-.8v-.79h0a1.65,1.65,0,0,1-1.55.91c-1.19,0-1.78-.71-1.78-2.13v-3h.79v2.86c0,1.06.41,1.58,1.21,1.58a1.23,1.23,0,0,0,1-.43,1.66,1.66,0,0,0,.38-1.13V8.37h.8Z"/>
    <path class="cls-4" d="M139.85,13.32a1.48,1.48,0,0,1-.74.16q-1.32,0-1.32-1.47v-3h-.86V8.37h.86V7.15l.8-.26V8.37h1.26v.68h-1.26v2.82a1.19,1.19,0,0,0,.17.72.71.71,0,0,0,.57.21.83.83,0,0,0,.52-.16Z"/>
    <path class="cls-4" d="M143,13.49a2.34,2.34,0,0,1-1.77-.7,2.61,2.61,0,0,1-.66-1.86,2.7,2.7,0,0,1,.69-2,2.49,2.49,0,0,1,1.86-.71,2.22,2.22,0,0,1,1.74.69,2.73,2.73,0,0,1,.63,1.91,2.69,2.69,0,0,1-.67,1.92A2.38,2.38,0,0,1,143,13.49Zm.06-4.56a1.52,1.52,0,0,0-1.22.52,2.15,2.15,0,0,0-.45,1.45,2,2,0,0,0,.45,1.4,1.56,1.56,0,0,0,1.22.51,1.43,1.43,0,0,0,1.19-.5,2.16,2.16,0,0,0,.42-1.43,2.19,2.19,0,0,0-.42-1.44A1.43,1.43,0,0,0,143.07,8.93Z"/>
    <path class="cls-4" d="M149.39,9.18a1,1,0,0,0-.61-.16,1,1,0,0,0-.85.48,2.27,2.27,0,0,0-.35,1.32v2.55h-.8v-5h.8v1h0a1.79,1.79,0,0,1,.52-.82,1.2,1.2,0,0,1,.79-.3,1.43,1.43,0,0,1,.48.07Z"/>
    <path class="cls-4" d="M150.67,7.1A.51.51,0,0,1,150.3,7a.48.48,0,0,1-.15-.37.5.5,0,0,1,.15-.37.53.53,0,0,1,.74,0A.51.51,0,0,1,151,7,.51.51,0,0,1,150.67,7.1Zm.39,6.27h-.8v-5h.8Z"/>
    <path class="cls-4" d="M152.38,13.19v-.86a2.35,2.35,0,0,0,1.44.48c.7,0,1.05-.23,1.05-.7a.62.62,0,0,0-.09-.34,1.12,1.12,0,0,0-.24-.25,2.42,2.42,0,0,0-.36-.19l-.45-.18a4,4,0,0,1-.58-.26,1.53,1.53,0,0,1-.42-.31,1,1,0,0,1-.26-.38,1.5,1.5,0,0,1-.08-.5,1.15,1.15,0,0,1,.16-.62,1.45,1.45,0,0,1,.43-.46,2,2,0,0,1,.61-.27,2.44,2.44,0,0,1,.71-.1,2.86,2.86,0,0,1,1.16.23v.81a2.25,2.25,0,0,0-1.27-.36,1.25,1.25,0,0,0-.4.05.89.89,0,0,0-.31.14.69.69,0,0,0-.2.22.59.59,0,0,0-.07.29.67.67,0,0,0,.07.33.65.65,0,0,0,.21.23,1.69,1.69,0,0,0,.33.19l.44.18a5.68,5.68,0,0,1,.6.26,2.52,2.52,0,0,1,.45.3,1.08,1.08,0,0,1,.28.39,1.21,1.21,0,0,1,.1.52,1.25,1.25,0,0,1-.16.65,1.45,1.45,0,0,1-.44.45,2,2,0,0,1-.63.27,3,3,0,0,1-.75.09A2.78,2.78,0,0,1,152.38,13.19Z"/>
    <path class="cls-4" d="M160.5,13.37h-.8v-.78h0a1.68,1.68,0,0,1-1.54.9,1.65,1.65,0,0,1-1.17-.4,1.36,1.36,0,0,1-.42-1.05c0-.93.55-1.47,1.65-1.63l1.5-.21c0-.85-.34-1.27-1-1.27a2.47,2.47,0,0,0-1.63.61V8.72a3.12,3.12,0,0,1,1.7-.47c1.18,0,1.76.63,1.76,1.87Zm-.8-2.53-1.2.17a1.88,1.88,0,0,0-.84.27.8.8,0,0,0-.29.7.76.76,0,0,0,.26.6,1,1,0,0,0,.7.23,1.3,1.3,0,0,0,1-.41,1.49,1.49,0,0,0,.39-1.06Z"/>
    <path class="cls-4" d="M164.33,13.32a1.49,1.49,0,0,1-.75.16c-.87,0-1.31-.49-1.31-1.47v-3h-.86V8.37h.86V7.15l.8-.26V8.37h1.26v.68h-1.26v2.82a1.19,1.19,0,0,0,.17.72.7.7,0,0,0,.57.21.85.85,0,0,0,.52-.16Z"/>
    <path class="cls-4" d="M165.81,7.1a.51.51,0,0,1-.37-.15.48.48,0,0,1-.15-.37.5.5,0,0,1,.15-.37.51.51,0,0,1,.37-.15.5.5,0,0,1,.37.15.51.51,0,0,1,0,.74A.5.5,0,0,1,165.81,7.1Zm.39,6.27h-.8v-5h.8Z"/>
    <path class="cls-4" d="M169.91,13.49a2.34,2.34,0,0,1-1.77-.7,2.61,2.61,0,0,1-.66-1.86,2.7,2.7,0,0,1,.69-2A2.49,2.49,0,0,1,170,8.25a2.22,2.22,0,0,1,1.74.69,2.73,2.73,0,0,1,.63,1.91,2.69,2.69,0,0,1-.67,1.92A2.39,2.39,0,0,1,169.91,13.49ZM170,8.93a1.52,1.52,0,0,0-1.22.52,2.15,2.15,0,0,0-.45,1.45,2,2,0,0,0,.45,1.4,1.56,1.56,0,0,0,1.22.51,1.43,1.43,0,0,0,1.19-.5,2.16,2.16,0,0,0,.42-1.43,2.19,2.19,0,0,0-.42-1.44A1.43,1.43,0,0,0,170,8.93Z"/>
    <path class="cls-4" d="M177.83,13.37H177V10.52c0-1.06-.39-1.59-1.16-1.59a1.25,1.25,0,0,0-1,.45,1.64,1.64,0,0,0-.4,1.14v2.85h-.8v-5h.8V9.2h0a1.82,1.82,0,0,1,1.64-.95,1.55,1.55,0,0,1,1.26.53,2.38,2.38,0,0,1,.43,1.53Z"/>
  </g>
  <path id="path143" class="cls-1" d="M180.76,17.85h-20.5A1.1,1.1,0,0,0,159.17,19V35.7a1.09,1.09,0,0,0,1.09,1.1h5.28a3.29,3.29,0,0,0,3.21,2.27,3.37,3.37,0,0,0,0-6.74,3.29,3.29,0,0,0-3.21,2.26h-4.19v-12h18.31v12h-3.45A7.61,7.61,0,0,0,168.75,28a8.25,8.25,0,0,0-3.64.92l1,2a5.39,5.39,0,0,1,2.55-.67,5.46,5.46,0,0,1,0,10.92,5.28,5.28,0,0,1-2.55-.68l-1,2a7.4,7.4,0,0,0,3.64.92,7.61,7.61,0,0,0,7.46-6.56h4.55a1.09,1.09,0,0,0,1.09-1.1V19A1.14,1.14,0,0,0,180.76,17.85Z"/>
  <g id="text145" class="cls-2">
    <path class="cls-1" d="M144.92,56.37H144l-.75-2h-3l-.69,2h-.92l2.69-7h.85ZM143,53.67l-1.09-3a2.18,2.18,0,0,1-.11-.47h0a3,3,0,0,1-.11.47l-1.09,3Z"/>
    <path class="cls-1" d="M146.47,55.65h0v3h-.8v-7.3h.8v.88h0a1.88,1.88,0,0,1,1.73-1,1.84,1.84,0,0,1,1.5.67,2.8,2.8,0,0,1,.55,1.8,3.07,3.07,0,0,1-.62,2,2,2,0,0,1-1.67.76A1.67,1.67,0,0,1,146.47,55.65Zm0-2v.7a1.48,1.48,0,0,0,.4,1.05,1.44,1.44,0,0,0,2.16-.12,2.55,2.55,0,0,0,.42-1.55A2,2,0,0,0,149,52.4a1.27,1.27,0,0,0-1-.47,1.42,1.42,0,0,0-1.12.48A1.79,1.79,0,0,0,146.45,53.63Z"/>
    <path class="cls-1" d="M152.15,55.65h0v3h-.8v-7.3h.8v.88h0a1.88,1.88,0,0,1,1.72-1,1.85,1.85,0,0,1,1.51.67,2.8,2.8,0,0,1,.54,1.8,3.07,3.07,0,0,1-.61,2,2,2,0,0,1-1.67.76A1.67,1.67,0,0,1,152.15,55.65Zm0-2v.7a1.48,1.48,0,0,0,.4,1.05,1.44,1.44,0,0,0,2.16-.12,2.55,2.55,0,0,0,.41-1.55,2,2,0,0,0-.38-1.31,1.27,1.27,0,0,0-1.05-.47,1.42,1.42,0,0,0-1.12.48A1.79,1.79,0,0,0,152.13,53.63Z"/>
    <path class="cls-1" d="M157.8,56.37H157V49h.8Z"/>
    <path class="cls-1" d="M159.64,50.1a.5.5,0,0,1-.37-.15.48.48,0,0,1-.15-.37.51.51,0,0,1,.52-.52.51.51,0,0,1,.37.15.53.53,0,0,1,0,.74A.51.51,0,0,1,159.64,50.1Zm.39,6.27h-.8v-5h.8Z"/>
    <path class="cls-1" d="M164.86,56.14a2.63,2.63,0,0,1-1.37.35,2.3,2.3,0,0,1-1.73-.7,2.49,2.49,0,0,1-.65-1.8,2.78,2.78,0,0,1,.7-2,2.5,2.5,0,0,1,1.89-.75,2.58,2.58,0,0,1,1.17.25v.82a2.07,2.07,0,0,0-1.2-.39,1.6,1.6,0,0,0-1.25.54,2.09,2.09,0,0,0-.49,1.45,2,2,0,0,0,.46,1.38,1.59,1.59,0,0,0,1.24.51,2,2,0,0,0,1.23-.43Z"/>
    <path class="cls-1" d="M169.45,56.37h-.8v-.78h0a1.68,1.68,0,0,1-1.54.9,1.66,1.66,0,0,1-1.17-.4A1.36,1.36,0,0,1,165.5,55c0-.93.55-1.48,1.65-1.63l1.5-.21c0-.85-.35-1.27-1-1.27a2.47,2.47,0,0,0-1.64.61v-.82a3.15,3.15,0,0,1,1.7-.47c1.18,0,1.77.62,1.77,1.87Zm-.8-2.53-1.21.17a2,2,0,0,0-.84.27.79.79,0,0,0-.28.7.73.73,0,0,0,.26.6,1,1,0,0,0,.69.23,1.29,1.29,0,0,0,1-.42,1.47,1.47,0,0,0,.39-1Z"/>
    <path class="cls-1" d="M173.07,56.32a1.56,1.56,0,0,1-.74.16Q171,56.48,171,55v-3h-.86v-.68H171V50.15l.8-.26v1.48h1.26v.68h-1.26v2.82a1.15,1.15,0,0,0,.18.72.68.68,0,0,0,.56.21.83.83,0,0,0,.52-.16Z"/>
    <path class="cls-1" d="M174.35,50.1A.49.49,0,0,1,174,50a.48.48,0,0,1-.15-.37.5.5,0,0,1,.15-.37.49.49,0,0,1,.36-.15.52.52,0,0,1,.38.15.53.53,0,0,1,0,.74A.52.52,0,0,1,174.35,50.1Zm.39,6.27h-.8v-5h.8Z"/>
    <path class="cls-1" d="M178.26,56.49a2.31,2.31,0,0,1-1.77-.71,2.53,2.53,0,0,1-.67-1.85,2.7,2.7,0,0,1,.69-2,2.49,2.49,0,0,1,1.86-.71,2.25,2.25,0,0,1,1.75.69,2.73,2.73,0,0,1,.63,1.91,2.7,2.7,0,0,1-.68,1.92A2.37,2.37,0,0,1,178.26,56.49Zm.05-4.56a1.52,1.52,0,0,0-1.22.52,2.15,2.15,0,0,0-.45,1.45,2,2,0,0,0,.46,1.4,1.54,1.54,0,0,0,1.21.51,1.49,1.49,0,0,0,1.2-.5,2.18,2.18,0,0,0,.42-1.43,2.22,2.22,0,0,0-.42-1.45A1.46,1.46,0,0,0,178.31,51.93Z"/>
    <path class="cls-1" d="M186,56.37h-.8V53.52c0-1.06-.38-1.59-1.16-1.59a1.25,1.25,0,0,0-1,.45,1.68,1.68,0,0,0-.39,1.14v2.85h-.81v-5h.81v.83h0a1.82,1.82,0,0,1,1.65-1,1.54,1.54,0,0,1,1.25.53,2.36,2.36,0,0,1,.43,1.53Z"/>
    <path class="cls-1" d="M195.35,56.37h-.91l-.74-2h-3l-.7,2h-.91l2.69-7h.85Zm-1.92-2.7-1.1-3a3.27,3.27,0,0,1-.1-.47h0a2.88,2.88,0,0,1-.12.47l-1.09,3Z"/>
    <path class="cls-1" d="M197,53.72v2.65h-.82v-7h1.93a2.59,2.59,0,0,1,1.74.54,2,2,0,0,1,.61,1.55,2.16,2.16,0,0,1-.68,1.63,2.65,2.65,0,0,1-1.86.63Zm0-3.61V53h.86a1.92,1.92,0,0,0,1.3-.39,1.35,1.35,0,0,0,.44-1.09c0-.93-.54-1.39-1.64-1.39Z"/>
    <path class="cls-1" d="M202.4,56.37h-.82v-7h.82Z"/>
  </g>
  <g id="shape1142-51">
    <g id="use7">
      <g id="lend5">
        <path id="path4" class="cls-5" d="M150.7,26.59l8,4-8,4a9,9,0,0,0,0-8"/>
      </g>
    </g>
  </g>
  <g id="group1143-57">
    <g id="group1144-58">
      <g id="group1145-59">
        <g id="group1146-60">
          <g id="shape1147-61">
            <path id="path163" class="cls-1" d="M7.85,22.77a4.5,4.5,0,0,0-3,5.67c.66,2.55,3,4.21,5.27,3.66a4.49,4.49,0,0,0,3-5.66C12.57,23.77,10.16,22.11,7.85,22.77Z"/>
          </g>
        </g>
        <g id="group1148-63">
          <g id="shape1149-64">
            <path id="path171" class="cls-1" d="M12.79,32.79c-.44,0-.88.77-1.54,1.11s-1.32.88-3.18,0S6,32.23,4.44,32.23.38,35,.38,39.11H16a12.05,12.05,0,0,0-1.1-4.21C13.77,32.79,13.23,32.79,12.79,32.79Z"/>
          </g>
        </g>
      </g>
    </g>
    <g id="group1150-66">
      <g id="shape1151-67">
        <path id="path181" class="cls-6" d="M14.19,27.84H10.07a.71.71,0,0,0-.65.66v2.85a.73.73,0,0,0,.76.66h.76v5.15a1,1,0,0,0,1,1.09,1,1,0,0,0,1-1h.21v-.66c0-.22.33-.33.33-.33V36c-.33-.11-.54-.33-.54-.44v-.32L13.1,35a3.53,3.53,0,0,0,.33-.55,2.4,2.4,0,0,1-.33-.55c-.1-.11-.1-.33-.21-.44v-.22a2.52,2.52,0,0,1,.76-1.09h.54a.71.71,0,0,0,.65-.66v-3A.63.63,0,0,0,14.19,27.84ZM11.8,37.38c0,.22,0,.33-.21.33s-.22-.22-.22-.33V32.56c0-.22.11-.33.22-.33s.21.22.21.33Zm.33-7.78a.66.66,0,0,1,0-1.32.71.71,0,0,1,.65.66A.63.63,0,0,1,12.13,29.6Z"/>
      </g>
      <g id="shape1152-69">
        <path id="path186" class="cls-7" d="M11.57,37.68a.24.24,0,0,1-.22-.22v-5a.22.22,0,1,1,.44,0v5.1C11.79,37.68,11.68,37.68,11.57,37.68Z"/>
      </g>
      <g id="shape1153-71">
        <ellipse id="ellipse191" class="cls-7" cx="12.14" cy="28.92" rx="0.66" ry="0.67"/>
      </g>
    </g>
  </g>
  <line class="cls-8" x1="153.09" y1="30.44" x2="72.52" y2="30.44"/>
</svg>
