<?xml version="1.0" encoding="utf-8"?>
<!-- Generator: Adobe Illustrator 23.0.6, SVG Export Plug-In . SVG Version: 6.00 Build 0)  -->
<svg version="1.1" xmlns="http://www.w3.org/2000/svg" xmlns:xlink="http://www.w3.org/1999/xlink" x="0px" y="0px"
	 viewBox="0 0 171 202.6" style="enable-background:new 0 0 171 202.6;" xml:space="preserve">
<style type="text/css">
	.st0{fill:#FFFFFF;}
	.st1{opacity:5.000000e-02;fill:#3C3C41;enable-background:new    ;}
	.st2{fill:#3C3C41;}
	.st3{opacity:0.2;fill:#3C3C41;enable-background:new    ;}
	.st4{fill:url(#SVGID_1_);}
	.st5{fill:#767676;}
	.st6{fill:#F2F2F2;}
	.st7{fill:url(#SVGID_2_);}
	.st8{fill:url(#SVGID_3_);}
	.st9{fill:url(#SVGID_4_);}
	.st10{fill:none;stroke:#3C3C41;stroke-miterlimit:10;}
	.st11{fill:url(#SVGID_5_);}
	.st12{fill:url(#SVGID_6_);}
	.st13{fill:url(#SVGID_7_);}
	.st14{fill:#50E6FF;}
	.st15{fill:#1490DF;}
	.st16{fill:#6EBCDB;}
	.st17{fill:#5DB4D7;}
	.st18{fill:#E6E6E6;}
	.st19{fill:#86D633;}
	.st20{fill:#1E1E1E;}
	.st21{fill:none;}
	.st22{display:none;}
	.st23{display:inline;}
	.st24{fill:url(#SVGID_8_);}
	.st25{fill:url(#SVGID_9_);}
	.st26{fill:url(#SVGID_10_);}
	.st27{fill:url(#SVGID_11_);}
	.st28{fill:url(#SVGID_12_);}
	.st29{fill:url(#SVGID_13_);}
	.st30{fill:url(#SVGID_14_);}
</style>
<g id="Target">
	<g id="Shapes">
		<rect y="0" class="st0" width="170.5" height="202.6"/>
		<g>
			<g>
				<path class="st0" d="M20.5,120.5h145c2.8,0,5,2.2,5,5v45c0,2.8-2.2,5-5,5h-145c-2.8,0-5-2.2-5-5v-45
					C15.5,122.7,17.8,120.5,20.5,120.5z"/>
				<path class="st1" d="M20.5,120.5h145c2.8,0,5,2.2,5,5v45c0,2.8-2.2,5-5,5h-145c-2.8,0-5-2.2-5-5v-45
					C15.5,122.7,17.8,120.5,20.5,120.5z"/>
			</g>
			<path class="st2" d="M164.4,176h-1v-1h1V176z M161.4,176h-1v-1h1V176z M158.4,176h-1v-1h1V176z M155.4,176h-1v-1h1V176z
				 M152.4,176h-1v-1h1V176z M149.4,176h-1v-1h1V176z M146.4,176h-1v-1h1V176z M143.4,176h-1v-1h1V176z M140.4,176h-1v-1h1V176z
				 M137.4,176h-1v-1h1V176z M134.4,176h-1v-1h1V176z M131.4,176h-1v-1h1V176z M128.4,176h-1v-1h1V176z M125.4,176h-1v-1h1V176z
				 M122.4,176h-1v-1h1V176z M119.4,176h-1v-1h1V176z M116.4,176h-1v-1h1V176z M113.4,176h-1v-1h1V176z M110.4,176h-1v-1h1V176z
				 M107.4,176h-1v-1h1V176z M104.4,176h-1v-1h1V176z M101.4,176h-1v-1h1V176z M98.4,176h-1v-1h1V176z M95.4,176h-1v-1h1V176z
				 M92.4,176h-1v-1h1V176z M89.4,176h-1v-1h1V176z M86.4,176h-1v-1h1V176z M83.4,176h-1v-1h1V176z M80.4,176h-1v-1h1V176z
				 M77.4,176h-1v-1h1V176z M74.4,176h-1v-1h1V176z M71.4,176h-1v-1h1V176z M68.4,176h-1v-1h1V176z M65.4,176h-1v-1h1V176z
				 M62.4,176h-1v-1h1V176z M59.4,176h-1v-1h1V176z M56.4,176h-1v-1h1V176z M53.4,176h-1v-1h1V176z M20.3,176
				c-0.4,0-0.7-0.1-1.1-0.2l0.3-1c0.3,0.1,0.6,0.1,0.9,0.1L20.3,176z M166.5,175.9l-0.2-1c0.3-0.1,0.6-0.1,0.9-0.3l0.4,0.9
				C167.2,175.8,166.8,175.9,166.5,175.9L166.5,175.9z M17.2,174.8c-0.3-0.2-0.6-0.5-0.8-0.8l0.8-0.7c0.2,0.2,0.4,0.4,0.6,0.6
				L17.2,174.8z M169.3,174.4l-0.7-0.7c0.2-0.2,0.4-0.4,0.6-0.7l0.8,0.6C169.9,173.9,169.6,174.2,169.3,174.4L169.3,174.4z
				 M15.3,172.2c-0.1-0.4-0.2-0.7-0.2-1.1l1-0.1c0,0.3,0.1,0.6,0.2,0.9L15.3,172.2z M170.9,171.6l-1-0.2c0.1-0.3,0.1-0.6,0.1-0.9
				l1-0.1v0.1C171,170.9,171,171.2,170.9,171.6L170.9,171.6z M16,169.1h-1v-1h1V169.1z M171,168.4h-1v-1h1V168.4z M16,166h-1v-1h1
				V166z M171,165.4h-1v-1h1V165.4z M16,163h-1v-1h1V163z M171,162.4h-1v-1h1V162.4z M16,160h-1v-1h1V160z M171,159.4h-1v-1h1V159.4
				z M16,157h-1v-1h1V157z M171,156.4h-1v-1h1V156.4z M16,154h-1v-1h1V154z M171,153.4h-1v-1h1V153.4z M16,151h-1v-1h1V151z
				 M171,150.4h-1v-1h1V150.4z M16,148h-1v-1h1V148z M171,147.4h-1v-1h1V147.4z M16,145h-1v-1h1V145z M171,144.4h-1v-1h1V144.4z
				 M16,142h-1v-1h1V142z M171,141.4h-1v-1h1V141.4z M16,139h-1v-1h1V139z M171,138.4h-1v-1h1V138.4z M16,136h-1v-1h1V136z
				 M171,135.4h-1v-1h1V135.4z M16,133h-1v-1h1V133z M171,132.4h-1v-1h1V132.4z M16,130h-1v-1h1V130z M171,129.4h-1v-1h1V129.4z
				 M16,127h-1v-1h1V127z M171,126.4h-1v-0.9l1-0.1V126.4z M16.2,124.2l-1-0.3c0.1-0.3,0.3-0.7,0.4-1l0.9,0.5
				C16.4,123.6,16.3,123.9,16.2,124.2L16.2,124.2z M169.6,123.6c-0.1-0.3-0.3-0.5-0.4-0.8l0.8-0.6c0.2,0.3,0.4,0.6,0.5,1
				L169.6,123.6z M17.7,122l-0.6-0.8c0.3-0.2,0.6-0.4,0.9-0.6l0.5,0.9C18.2,121.6,17.9,121.8,17.7,122z M167.9,121.7
				c-0.3-0.2-0.5-0.3-0.8-0.4l0.3-0.9c0.4,0.1,0.7,0.3,1,0.5L167.9,121.7z M20.2,121l-0.1-1h0.4h0.6v1H20.2L20.2,121z M165.3,121h-1
				v-1h1V121z M162.3,121h-1v-1h1V121z M159.3,121h-1v-1h1V121z M156.3,121h-1v-1h1V121z M153.3,121h-1v-1h1V121z M150.3,121h-1v-1
				h1V121z M147.3,121h-1v-1h1V121z M144.3,121h-1v-1h1V121z M141.3,121h-1v-1h1V121z M138.3,121h-1v-1h1V121z M135.3,121h-1v-1h1
				V121z M132.3,121h-1v-1h1V121z M129.3,121h-1v-1h1V121z M126.3,121h-1v-1h1V121z M123.3,121h-1v-1h1V121z M120.3,121h-1v-1h1V121
				z M117.3,121h-1v-1h1V121z M114.3,121h-1v-1h1V121z M111.3,121h-1v-1h1V121z M108.3,121h-1v-1h1V121z M105.3,121h-1v-1h1V121z
				 M102.3,121h-1v-1h1V121z M99.3,121h-1v-1h1V121z M96.3,121h-1v-1h1V121z M93.3,121h-1v-1h1V121z M90.3,121h-1v-1h1V121z
				 M87.3,121h-1v-1h1V121z M84.3,121h-1v-1h1V121z M81.3,121h-1v-1h1V121z M78.3,121h-1v-1h1V121z M75.3,121h-1v-1h1V121z
				 M72.3,121h-1v-1h1V121z M69.3,121h-1v-1h1V121z M66.3,121h-1v-1h1V121z M63.3,121h-1v-1h1V121z M60.3,121h-1v-1h1V121z
				 M57.3,121h-1v-1h1V121z M54.3,121h-1v-1h1V121z M51.3,121h-1v-1h1V121z M48.3,121h-1v-1h1V121z M45.3,121h-1v-1h1V121z
				 M42.3,121h-1v-1h1V121z M39.3,121h-1v-1h1V121z M36.3,121h-1v-1h1V121z M33.3,121h-1v-1h1V121z M30.3,121h-1v-1h1V121z
				 M27.3,121h-1v-1h1V121z M24.3,121h-1v-1h1V121z"/>
		</g>
		<g>
			<path class="st0" d="M25.5,130.5h65.1c0.2,0,0.3,0.1,0.3,0.3v29.4c0,0.2-0.1,0.3-0.3,0.3H25.5c-0.2,0-0.3-0.1-0.3-0.3v-29.4
				C25.2,130.6,25.4,130.5,25.5,130.5z"/>
			<path class="st3" d="M25.5,130.5h65.1c0.2,0,0.3,0.1,0.3,0.3v29.4c0,0.2-0.1,0.3-0.3,0.3H25.5c-0.2,0-0.3-0.1-0.3-0.3v-29.4
				C25.2,130.6,25.4,130.5,25.5,130.5z"/>
		</g>
		<g>
			<path class="st0" d="M95.9,130.5H161c0.2,0,0.3,0.1,0.3,0.3v29.4c0,0.2-0.1,0.3-0.3,0.3H95.9c-0.2,0-0.3-0.1-0.3-0.3v-29.4
				C95.6,130.6,95.7,130.5,95.9,130.5z"/>
			<path class="st3" d="M95.9,130.5H161c0.2,0,0.3,0.1,0.3,0.3v29.4c0,0.2-0.1,0.3-0.3,0.3H95.9c-0.2,0-0.3-0.1-0.3-0.3v-29.4
				C95.6,130.6,95.7,130.5,95.9,130.5z"/>
		</g>
		<g>
			
				<linearGradient id="SVGID_1_" gradientUnits="userSpaceOnUse" x1="129.555" y1="-2014.1987" x2="129.555" y2="-2001.4087" gradientTransform="matrix(1 0 0 -1 0 -1978.9785)">
				<stop  offset="0" style="stop-color:#32BEDD"/>
				<stop  offset="0.18" style="stop-color:#32CAEA"/>
				<stop  offset="0.41" style="stop-color:#32D2F2"/>
				<stop  offset="0.78" style="stop-color:#32D4F5"/>
			</linearGradient>
			<path class="st4" d="M118.7,22.4h21.7v12.1c0,0.4-0.3,0.7-0.7,0.7h-20.2c-0.4,0-0.7-0.3-0.7-0.7l0,0L118.7,22.4z"/>
			<path class="st5" d="M119.4,17.8h20.2c0.4,0,0.7,0.3,0.7,0.7v0l0,0v3.9h-21.7v-3.9C118.7,18.1,119,17.8,119.4,17.8z"/>
			<path class="st6" d="M122,19.2h15.1c0.2,0,0.4,0.2,0.4,0.4v1.1c0,0.2-0.2,0.4-0.4,0.4H122c-0.2,0-0.4-0.2-0.4-0.4v-1.1
				C121.6,19.4,121.8,19.2,122,19.2z"/>
			
				<linearGradient id="SVGID_2_" gradientUnits="userSpaceOnUse" x1="138.01" y1="-2020.4785" x2="138.01" y2="-2007.6887" gradientTransform="matrix(1 0 0 -1 0 -1978.9785)">
				<stop  offset="0" style="stop-color:#32BEDD"/>
				<stop  offset="0.18" style="stop-color:#32CAEA"/>
				<stop  offset="0.41" style="stop-color:#32D2F2"/>
				<stop  offset="0.78" style="stop-color:#32D4F5"/>
			</linearGradient>
			<path class="st7" d="M127.2,28.7h21.7v12.1c0,0.4-0.3,0.7-0.7,0.7l0,0h-20.2c-0.4,0-0.7-0.3-0.7-0.7c0,0,0,0,0,0l0,0V28.7z"/>
			<path class="st5" d="M127.9,24.1h20.2c0.4,0,0.7,0.3,0.7,0.7v0l0,0v3.9h-21.6v-3.9C127.2,24.4,127.5,24.1,127.9,24.1z"/>
			<path class="st6" d="M130.4,25.5h15.1c0.2,0,0.4,0.2,0.4,0.4V27c0,0.2-0.2,0.4-0.4,0.4h-15.1c-0.2,0-0.4-0.2-0.4-0.4v-1.1
				C130.1,25.6,130.2,25.5,130.4,25.5z"/>
			<g>
				
					<linearGradient id="SVGID_3_" gradientUnits="userSpaceOnUse" x1="146.46" y1="-2026.7585" x2="146.46" y2="-2013.9585" gradientTransform="matrix(1 0 0 -1 0 -1978.9785)">
					<stop  offset="0" style="stop-color:#32BEDD"/>
					<stop  offset="0.18" style="stop-color:#32CAEA"/>
					<stop  offset="0.41" style="stop-color:#32D2F2"/>
					<stop  offset="0.78" style="stop-color:#32D4F5"/>
				</linearGradient>
				<path class="st8" d="M135.6,35h21.7v12.1c0,0.4-0.3,0.7-0.7,0.7c0,0,0,0,0,0h-20.2c-0.4,0-0.7-0.3-0.7-0.7c0,0,0,0,0,0l0,0V35z"
					/>
				<path class="st5" d="M136.4,30.4h20.2c0.4,0,0.7,0.3,0.7,0.7c0,0,0,0,0,0V35h-21.7v-3.9C135.6,30.7,135.9,30.4,136.4,30.4
					C136.4,30.4,136.4,30.4,136.4,30.4z"/>
				<g>
					<circle class="st6" cx="151.3" cy="40.6" r="1.8"/>
					<circle class="st6" cx="146.5" cy="40.6" r="1.8"/>
					<circle class="st6" cx="141.6" cy="40.6" r="1.8"/>
				</g>
				<path class="st6" d="M138.9,31.7H154c0.2,0,0.4,0.2,0.4,0.4v1.1c0,0.2-0.2,0.4-0.4,0.4h-15.1c-0.2,0-0.4-0.2-0.4-0.4v-1.1
					C138.5,31.9,138.7,31.7,138.9,31.7z"/>
			</g>
		</g>
		<g>
			
				<linearGradient id="SVGID_4_" gradientUnits="userSpaceOnUse" x1="22.57" y1="299.4814" x2="22.57" y2="278.9014" gradientTransform="matrix(1 0 0 1 0 -252.6814)">
				<stop  offset="0" style="stop-color:#32BEDD"/>
				<stop  offset="0.18" style="stop-color:#32CAEA"/>
				<stop  offset="0.41" style="stop-color:#32D2F2"/>
				<stop  offset="0.78" style="stop-color:#32D4F5"/>
			</linearGradient>
			<path class="st9" d="M5.1,26.2H40v19.4c0,0.6-0.5,1.2-1.2,1.2H6.3c-0.6,0-1.2-0.5-1.2-1.2V26.2z"/>
			<path class="st5" d="M6.3,18.8h32.5c0.6,0,1.2,0.5,1.2,1.1c0,0,0,0,0,0.1v6.3H5.1V20C5.1,19.4,5.6,18.8,6.3,18.8
				C6.3,18.8,6.3,18.8,6.3,18.8z"/>
			<circle class="st6" cx="30.4" cy="35.2" r="2.8"/>
			<circle class="st6" cx="22.7" cy="35.2" r="2.8"/>
			<circle class="st6" cx="14.7" cy="35.2" r="2.8"/>
			<path class="st6" d="M10.4,21h24.3c0.3,0,0.6,0.3,0.6,0.6v1.9c0,0.3-0.3,0.6-0.6,0.6H10.4c-0.3,0-0.6-0.3-0.6-0.6v-1.9
				C9.8,21.3,10.1,21,10.4,21z"/>
		</g>
		<g>
			<line class="st10" x1="58.1" y1="130.5" x2="58.1" y2="107.9"/>
			<polygon class="st2" points="61.8,109 58.1,102.5 54.3,109 			"/>
		</g>
		<g>
			<path class="st10" d="M45.6,75.6H24.3c-2.8,0-5-2.2-5-5V55.3"/>
			<polygon class="st2" points="23.1,56.4 19.3,49.9 15.6,56.4 			"/>
		</g>
		<g>
			<path class="st10" d="M143.3,55.3v15.3c0,2.8-2.2,5-5,5H115H96.1h-25"/>
			<polygon class="st2" points="139.6,56.4 143.3,49.9 147.1,56.4 			"/>
		</g>
		<g>
			
				<linearGradient id="SVGID_5_" gradientUnits="userSpaceOnUse" x1="38.255" y1="428.0264" x2="40.625" y2="430.3964" gradientTransform="matrix(1 0 0 1 2.9 -253.2214)">
				<stop  offset="0" style="stop-color:#86D633"/>
				<stop  offset="0.24" style="stop-color:#83D232"/>
				<stop  offset="0.5" style="stop-color:#7CC52F"/>
				<stop  offset="0.76" style="stop-color:#6FB02A"/>
				<stop  offset="1" style="stop-color:#5E9624"/>
			</linearGradient>
			<circle class="st11" cx="42.1" cy="175.8" r="1.7"/>
			
				<linearGradient id="SVGID_6_" gradientUnits="userSpaceOnUse" x1="32.9067" y1="428.034" x2="35.2667" y2="430.404" gradientTransform="matrix(1 0 0 1 2.9 -253.2214)">
				<stop  offset="0" style="stop-color:#86D633"/>
				<stop  offset="0.24" style="stop-color:#83D232"/>
				<stop  offset="0.5" style="stop-color:#7CC52F"/>
				<stop  offset="0.76" style="stop-color:#6FB02A"/>
				<stop  offset="1" style="stop-color:#5E9624"/>
			</linearGradient>
			<circle class="st12" cx="36.8" cy="175.8" r="1.7"/>
			
				<linearGradient id="SVGID_7_" gradientUnits="userSpaceOnUse" x1="27.5617" y1="428.029" x2="29.9217" y2="430.399" gradientTransform="matrix(1 0 0 1 2.9 -253.2214)">
				<stop  offset="0" style="stop-color:#86D633"/>
				<stop  offset="0.24" style="stop-color:#83D232"/>
				<stop  offset="0.5" style="stop-color:#7CC52F"/>
				<stop  offset="0.76" style="stop-color:#6FB02A"/>
				<stop  offset="1" style="stop-color:#5E9624"/>
			</linearGradient>
			<circle class="st13" cx="31.4" cy="175.8" r="1.7"/>
			<path class="st14" d="M32.6,182.5l-1,1c-0.2,0.2-0.4,0.2-0.6,0l0,0l-7.1-7.1c-0.3-0.3-0.3-0.9,0-1.2l0,0l1-1l0,0l7.7,7.7
				C32.8,182,32.8,182.3,32.6,182.5C32.7,182.4,32.7,182.4,32.6,182.5L32.6,182.5z"/>
			<path class="st15" d="M31.5,168.1l1,1c0.2,0.2,0.2,0.4,0,0.6l-7.6,7.6l0,0l-1-1c-0.3-0.3-0.3-0.9,0-1.2l0,0l7-7
				C31.1,168,31.4,168,31.5,168.1z"/>
			<path class="st14" d="M48.5,174.2l1,1c0.3,0.3,0.3,0.9,0,1.2l0,0l-7.1,7.1c-0.2,0.2-0.4,0.2-0.6,0c0,0,0,0,0,0l0,0l-1-1
				c-0.2-0.2-0.2-0.4,0-0.6c0,0,0,0,0,0l0,0L48.5,174.2z"/>
			<path class="st15" d="M49.5,176.3l-1,0.9l0,0l-7.6-7.6c-0.2-0.2-0.2-0.4,0-0.6l0,0l1-1c0.2-0.2,0.4-0.2,0.6,0c0,0,0,0,0,0l0,0
				l7,7C49.8,175.4,49.8,176,49.5,176.3L49.5,176.3L49.5,176.3z"/>
		</g>
		<g id="ad94e297-0e86-4eaf-aac0-d146ee9aea65">
			<g>
				<path class="st16" d="M54,92.2l-4.7-4.8c-0.3,0.1-0.5,0.1-0.8,0.1c-1.3,0-2.4-1.1-2.4-2.4s1.1-2.4,2.4-2.4c1,0,1.9,0.6,2.3,1.5
					h4.6v1.6h-4.6c-0.1,0.2-0.2,0.4-0.3,0.6l4.3,4.5l2.3-3.6V76.1h-3.2l4-4l3.9,4h-3.2v8.7l5.9-9l-6-6c-0.4-0.4-1-0.4-1.4,0
					c0,0,0,0,0,0l0,0L42.9,84.3c-0.4,0.4-0.4,1,0,1.4c0,0,0,0,0,0l0,0l14.5,14.5L52.2,95L54,92.2z"/>
				<path class="st17" d="M57.3,92.4v-5.2l-2.3,3.6l1.7,1.8C56.8,92.6,57,92.5,57.3,92.4z"/>
				<path class="st17" d="M73.3,84.3l-8.5-8.5l-5.9,9v7.6c0.2,0.1,0.4,0.2,0.5,0.3l6.2-6.3c-0.1-0.2-0.2-0.4-0.3-0.6h-4.7v-1.6h4.7
					c0.5-1.2,1.9-1.8,3.2-1.3s1.8,1.9,1.3,3.2c-0.4,0.9-1.3,1.5-2.2,1.5c-0.2,0-0.5,0-0.7-0.1l-6.6,6.7c0.1,0.2,0.1,0.4,0.1,0.6
					c0.1,1.3-0.9,2.5-2.2,2.6c-1.3,0.1-2.5-0.9-2.6-2.2c0-0.1,0-0.2,0-0.2c0-0.3,0-0.6,0.1-0.9L54,92.3L52.2,95l5.2,5.2
					c0.4,0.4,1,0.4,1.4,0c0,0,0,0,0,0l14.5-14.5C73.6,85.4,73.7,84.7,73.3,84.3C73.3,84.3,73.3,84.3,73.3,84.3L73.3,84.3z"/>
				<path class="st18" d="M65.4,84.2h-4.7v1.6h4.7c-0.1-0.2-0.1-0.5-0.1-0.7C65.2,84.8,65.3,84.5,65.4,84.2z"/>
				<path class="st18" d="M50.8,85.8h4.5v-1.6h-4.6c0.1,0.3,0.2,0.6,0.2,0.9C51,85.4,50.9,85.6,50.8,85.8z"/>
				<path class="st18" d="M60.3,94.1l6.7-6.7c-0.5-0.2-1-0.5-1.3-1l-6.2,6.3C59.9,93.1,60.2,93.5,60.3,94.1z"/>
				<path class="st18" d="M56.7,92.7L55,90.9l-4.4-4.5c-0.3,0.5-0.7,0.8-1.3,1l4.7,4.8l1.7,1.8C55.9,93.5,56.2,93,56.7,92.7z"/>
				<path class="st0" d="M62,76.1l-3.9-4l-4,4h3.2v16.3c-0.2,0-0.4,0.1-0.6,0.3c-0.5,0.3-0.8,0.8-1,1.3c-0.4,1.3,0.3,2.6,1.6,3
					c1.3,0.4,2.6-0.3,3-1.6c0.1-0.2,0.1-0.5,0.1-0.7c0-0.2,0-0.4-0.1-0.6c-0.1-0.5-0.5-1-0.9-1.3c-0.2-0.1-0.3-0.2-0.5-0.3V76.1H62z
					 M58.1,96.1c-0.7,0-1.3-0.6-1.3-1.3c0-0.7,0.6-1.3,1.3-1.3s1.3,0.6,1.3,1.3l0,0l0,0C59.4,95.5,58.8,96.1,58.1,96.1L58.1,96.1z"
					/>
				<path class="st0" d="M50.6,86.4c0.1-0.2,0.2-0.4,0.3-0.6c0.1-0.2,0.1-0.5,0.1-0.7c0-0.3-0.1-0.6-0.2-0.9
					c-0.5-1.2-1.9-1.8-3.1-1.3c-1.2,0.5-1.8,1.9-1.3,3.1c0.4,0.9,1.2,1.5,2.2,1.5c0.3,0,0.5-0.1,0.8-0.1
					C49.8,87.2,50.3,86.9,50.6,86.4z M48.6,86.4c-0.7,0-1.4-0.6-1.4-1.3s0.6-1.3,1.3-1.3c0.7,0,1.4,0.6,1.4,1.3l0,0l0,0
					C50,85.8,49.4,86.4,48.6,86.4C48.6,86.4,48.6,86.4,48.6,86.4L48.6,86.4L48.6,86.4z"/>
				<path class="st0" d="M67,87.4c0.2,0.1,0.4,0.1,0.7,0.1c1.3,0,2.4-1.1,2.4-2.4s-1.1-2.4-2.4-2.4c-1,0-1.9,0.6-2.3,1.5
					c-0.1,0.3-0.2,0.6-0.2,0.9c0,0.2,0,0.5,0.1,0.7c0.1,0.2,0.2,0.4,0.3,0.6C66,86.9,66.5,87.3,67,87.4z M67.7,83.8
					c0.7,0.1,1.3,0.7,1.2,1.5c-0.1,0.7-0.7,1.3-1.5,1.2c-0.6-0.1-1.1-0.6-1.2-1.2c-0.1-0.7,0.4-1.4,1.2-1.5c0,0,0,0,0,0
					C67.5,83.8,67.5,83.8,67.7,83.8L67.7,83.8z"/>
				<path class="st19" d="M58.1,93.4c-0.7,0-1.3,0.6-1.3,1.3c0,0.7,0.6,1.3,1.3,1.3s1.3-0.6,1.3-1.3l0,0l0,0
					C59.4,94,58.8,93.4,58.1,93.4z"/>
				<circle class="st19" cx="48.5" cy="85.1" r="1.3"/>
				<path class="st19" d="M67.6,86.4c0.7,0,1.4-0.6,1.4-1.3c0-0.7-0.6-1.4-1.3-1.4c-0.7,0-1.4,0.6-1.4,1.3c0,0,0,0,0,0l0,0
					C66.3,85.9,66.9,86.4,67.6,86.4z"/>
			</g>
		</g>
	</g>
</g>
<g id="Text_1_">
	<g>
		<path class="st20" d="M31.1,197.6h-1.2l-1.4-2.4c-0.1-0.2-0.3-0.4-0.4-0.6c-0.1-0.2-0.3-0.3-0.4-0.4s-0.3-0.2-0.4-0.2
			c-0.1,0-0.3-0.1-0.5-0.1h-0.8v3.7h-1v-8.7h2.6c0.4,0,0.7,0,1,0.1c0.3,0.1,0.6,0.2,0.8,0.4s0.4,0.4,0.5,0.7c0.1,0.3,0.2,0.6,0.2,1
			c0,0.3,0,0.6-0.1,0.8s-0.2,0.5-0.4,0.7c-0.2,0.2-0.4,0.4-0.6,0.5c-0.2,0.1-0.5,0.2-0.8,0.3v0c0.1,0.1,0.3,0.1,0.4,0.2
			s0.2,0.2,0.3,0.3c0.1,0.1,0.2,0.2,0.3,0.4c0.1,0.1,0.2,0.3,0.3,0.5L31.1,197.6z M25.9,189.9v3.2h1.4c0.3,0,0.5,0,0.7-0.1
			c0.2-0.1,0.4-0.2,0.6-0.3c0.2-0.1,0.3-0.3,0.4-0.5c0.1-0.2,0.1-0.4,0.1-0.7c0-0.5-0.1-0.8-0.4-1.1c-0.3-0.3-0.7-0.4-1.3-0.4H25.9z
			"/>
		<path class="st20" d="M36.8,194.8h-4.3c0,0.7,0.2,1.2,0.6,1.6s0.8,0.6,1.5,0.6c0.7,0,1.3-0.2,1.9-0.7v0.9
			c-0.5,0.4-1.3,0.6-2.1,0.6c-0.9,0-1.5-0.3-2-0.8c-0.5-0.6-0.7-1.4-0.7-2.4c0-1,0.3-1.8,0.8-2.4s1.2-0.9,2-0.9s1.4,0.3,1.9,0.8
			c0.4,0.5,0.7,1.3,0.7,2.2V194.8z M35.8,193.9c0-0.6-0.1-1-0.4-1.3c-0.3-0.3-0.6-0.5-1.1-0.5c-0.5,0-0.9,0.2-1.2,0.5
			s-0.5,0.8-0.6,1.3H35.8z M35.6,188.3l-1.6,2h-0.8l1.3-2H35.6z"/>
		<path class="st20" d="M38,197.4v-1.1c0.5,0.4,1.1,0.6,1.8,0.6c0.9,0,1.3-0.3,1.3-0.9c0-0.2,0-0.3-0.1-0.4
			c-0.1-0.1-0.2-0.2-0.3-0.3c-0.1-0.1-0.3-0.2-0.4-0.2c-0.2-0.1-0.4-0.1-0.5-0.2c-0.3-0.1-0.5-0.2-0.7-0.3c-0.2-0.1-0.4-0.2-0.5-0.4
			c-0.1-0.1-0.2-0.3-0.3-0.5s-0.1-0.4-0.1-0.6c0-0.3,0.1-0.5,0.2-0.8c0.1-0.2,0.3-0.4,0.5-0.6c0.2-0.2,0.5-0.3,0.8-0.3
			c0.3-0.1,0.6-0.1,0.9-0.1c0.5,0,1,0.1,1.4,0.3v1c-0.5-0.3-1-0.4-1.6-0.4c-0.2,0-0.4,0-0.5,0.1c-0.1,0-0.3,0.1-0.4,0.2
			c-0.1,0.1-0.2,0.2-0.2,0.3c-0.1,0.1-0.1,0.2-0.1,0.4c0,0.2,0,0.3,0.1,0.4c0.1,0.1,0.1,0.2,0.3,0.3c0.1,0.1,0.2,0.2,0.4,0.2
			c0.2,0.1,0.3,0.1,0.5,0.2c0.3,0.1,0.5,0.2,0.7,0.3c0.2,0.1,0.4,0.2,0.6,0.4c0.2,0.1,0.3,0.3,0.4,0.5c0.1,0.2,0.1,0.4,0.1,0.6
			c0,0.3-0.1,0.6-0.2,0.8c-0.1,0.2-0.3,0.4-0.5,0.6c-0.2,0.2-0.5,0.3-0.8,0.3c-0.3,0.1-0.6,0.1-0.9,0.1
			C39,197.8,38.4,197.7,38,197.4z"/>
		<path class="st20" d="M48.6,194.8h-4.3c0,0.7,0.2,1.2,0.6,1.6s0.8,0.6,1.5,0.6c0.7,0,1.3-0.2,1.9-0.7v0.9
			c-0.5,0.4-1.3,0.6-2.1,0.6c-0.9,0-1.5-0.3-2-0.8c-0.5-0.6-0.7-1.4-0.7-2.4c0-1,0.3-1.8,0.8-2.4s1.2-0.9,2-0.9s1.4,0.3,1.9,0.8
			c0.4,0.5,0.7,1.3,0.7,2.2V194.8z M47.5,193.9c0-0.6-0.1-1-0.4-1.3c-0.3-0.3-0.6-0.5-1.1-0.5c-0.5,0-0.9,0.2-1.2,0.5
			s-0.5,0.8-0.6,1.3H47.5z"/>
		<path class="st20" d="M54.5,197.6h-1v-1h0c-0.4,0.7-1.1,1.1-1.9,1.1c-0.6,0-1.1-0.2-1.4-0.5c-0.3-0.3-0.5-0.8-0.5-1.3
			c0-1.2,0.7-1.8,2-2l1.8-0.3c0-1.1-0.4-1.6-1.3-1.6c-0.7,0-1.4,0.3-2,0.8v-1c0.6-0.4,1.3-0.6,2.1-0.6c1.4,0,2.2,0.8,2.2,2.3V197.6z
			 M53.5,194.5l-1.5,0.2c-0.5,0.1-0.8,0.2-1,0.3s-0.3,0.5-0.3,0.9c0,0.3,0.1,0.6,0.3,0.7c0.2,0.2,0.5,0.3,0.9,0.3
			c0.5,0,0.9-0.2,1.2-0.5c0.3-0.3,0.5-0.8,0.5-1.3V194.5z"/>
		<path class="st20" d="M61.4,197.6h-1v-1h0c-0.4,0.8-1,1.1-1.9,1.1c-1.5,0-2.2-0.9-2.2-2.6v-3.7h1v3.6c0,1.3,0.5,2,1.5,2
			c0.5,0,0.9-0.2,1.2-0.5c0.3-0.4,0.5-0.8,0.5-1.4v-3.6h1V197.6z"/>
		<path class="st20" d="M71.7,191.4l-2.4,6.2h-1l-2.3-6.2H67l1.6,4.5c0.1,0.3,0.2,0.6,0.2,0.9h0c0-0.3,0.1-0.6,0.2-0.8l1.6-4.5H71.7
			z"/>
		<path class="st20" d="M73.3,189.8c-0.2,0-0.3-0.1-0.4-0.2c-0.1-0.1-0.2-0.3-0.2-0.5s0.1-0.3,0.2-0.5c0.1-0.1,0.3-0.2,0.4-0.2
			c0.2,0,0.3,0.1,0.5,0.2c0.1,0.1,0.2,0.3,0.2,0.5c0,0.2-0.1,0.3-0.2,0.5C73.6,189.8,73.5,189.8,73.3,189.8z M73.8,197.6h-1v-6.2h1
			V197.6z"/>
		<path class="st20" d="M79,192.4c-0.2-0.1-0.4-0.2-0.7-0.2c-0.4,0-0.8,0.2-1.1,0.6c-0.3,0.4-0.4,0.9-0.4,1.6v3.2h-1v-6.2h1v1.3h0
			c0.1-0.4,0.4-0.8,0.6-1c0.3-0.2,0.6-0.4,1-0.4c0.3,0,0.5,0,0.6,0.1V192.4z"/>
		<path class="st20" d="M83,197.6c-0.2,0.1-0.5,0.2-0.9,0.2c-1.1,0-1.6-0.6-1.6-1.8v-3.7h-1.1v-0.9h1.1v-1.5l1-0.3v1.8H83v0.9h-1.5
			v3.5c0,0.4,0.1,0.7,0.2,0.9c0.1,0.2,0.4,0.3,0.7,0.3c0.2,0,0.5-0.1,0.6-0.2V197.6z"/>
		<path class="st20" d="M89.4,197.6h-1v-1h0c-0.4,0.8-1,1.1-1.9,1.1c-1.5,0-2.2-0.9-2.2-2.6v-3.7h1v3.6c0,1.3,0.5,2,1.5,2
			c0.5,0,0.9-0.2,1.2-0.5c0.3-0.4,0.5-0.8,0.5-1.4v-3.6h1V197.6z"/>
		<path class="st20" d="M96.3,194.8H92c0,0.7,0.2,1.2,0.6,1.6c0.4,0.4,0.8,0.6,1.5,0.6c0.7,0,1.3-0.2,1.9-0.7v0.9
			c-0.5,0.4-1.3,0.6-2.1,0.6c-0.9,0-1.5-0.3-2-0.8c-0.5-0.6-0.7-1.4-0.7-2.4c0-1,0.3-1.8,0.8-2.4s1.2-0.9,2-0.9s1.4,0.3,1.9,0.8
			c0.4,0.5,0.7,1.3,0.7,2.2V194.8z M95.3,193.9c0-0.6-0.1-1-0.4-1.3c-0.3-0.3-0.6-0.5-1.1-0.5c-0.5,0-0.9,0.2-1.2,0.5
			c-0.3,0.3-0.5,0.8-0.6,1.3H95.3z"/>
		<path class="st20" d="M98.9,197.6h-1v-9.2h1V197.6z"/>
	</g>
	<g>
		<path class="st20" d="M54,65.3h-1.2l-4.3-6.8c-0.1-0.2-0.2-0.3-0.3-0.5h0c0,0.2,0,0.6,0,1.2v6.2h-1v-8.5h1.3l4.2,6.7
			c0.2,0.3,0.3,0.5,0.3,0.6h0c0-0.2-0.1-0.7-0.1-1.3v-6h1V65.3z"/>
		<path class="st20" d="M62.8,65.3h-1.1l-0.9-2.4h-3.6l-0.8,2.4h-1.1l3.2-8.5h1L62.8,65.3z M60.5,62l-1.3-3.6c0-0.1-0.1-0.3-0.1-0.6
			h0c0,0.2-0.1,0.4-0.1,0.6L57.6,62H60.5z"/>
		<path class="st20" d="M68.1,57.7h-2.4v7.6h-1v-7.6h-2.4v-0.9h5.8V57.7z"/>
	</g>
	<g>
		<path class="st20" d="M8.6,10.2H7.5L6.6,7.8H3l-0.8,2.4H1.1l3.2-8.5h1L8.6,10.2z M6.3,6.9L5,3.3c0-0.1-0.1-0.3-0.1-0.6h0
			c0,0.2-0.1,0.4-0.1,0.6L3.4,6.9H6.3z"/>
		<path class="st20" d="M14.4,10.2h-1v-1h0c-0.4,0.8-1.1,1.2-2.1,1.2c-0.8,0-1.4-0.3-1.8-0.8C9.1,9,8.9,8.3,8.9,7.3
			c0-1,0.2-1.8,0.7-2.4c0.5-0.6,1.2-0.9,2-0.9c0.8,0,1.4,0.3,1.8,1h0V1.2h1V10.2z M13.5,7.5V6.6c0-0.5-0.2-0.9-0.5-1.3
			c-0.3-0.3-0.7-0.5-1.2-0.5c-0.6,0-1,0.2-1.4,0.7s-0.5,1-0.5,1.8c0,0.7,0.2,1.3,0.5,1.7s0.8,0.6,1.3,0.6c0.5,0,1-0.2,1.3-0.6
			C13.3,8.6,13.5,8.1,13.5,7.5z"/>
		<path class="st20" d="M19.1,5.1C19,5,18.7,4.9,18.4,4.9c-0.4,0-0.8,0.2-1,0.6C17.1,5.9,17,6.4,17,7.1v3.1h-1V4.1h1v1.3h0
			c0.1-0.4,0.3-0.8,0.6-1S18.2,4,18.5,4c0.2,0,0.4,0,0.6,0.1V5.1z"/>
		<path class="st20" d="M24.6,7.4h-4.2c0,0.7,0.2,1.2,0.5,1.6s0.8,0.6,1.4,0.6c0.7,0,1.3-0.2,1.9-0.7v0.9c-0.5,0.4-1.2,0.6-2.1,0.6
			c-0.8,0-1.5-0.3-2-0.8s-0.7-1.3-0.7-2.3c0-0.9,0.3-1.7,0.8-2.3c0.5-0.6,1.2-0.9,2-0.9c0.8,0,1.4,0.3,1.8,0.8
			c0.4,0.5,0.6,1.2,0.6,2.1V7.4z M23.6,6.6c0-0.6-0.1-1-0.4-1.3C23,5,22.6,4.8,22.1,4.8c-0.5,0-0.8,0.2-1.2,0.5s-0.5,0.8-0.6,1.3
			H23.6z"/>
		<path class="st20" d="M25.3,10V9c0.5,0.4,1.1,0.6,1.7,0.6c0.8,0,1.3-0.3,1.3-0.9c0-0.2,0-0.3-0.1-0.4C28.1,8.2,28,8.1,27.9,8
			c-0.1-0.1-0.3-0.2-0.4-0.2S27.1,7.6,27,7.5c-0.3-0.1-0.5-0.2-0.7-0.3c-0.2-0.1-0.4-0.2-0.5-0.4c-0.1-0.1-0.2-0.3-0.3-0.5
			c-0.1-0.2-0.1-0.4-0.1-0.6c0-0.3,0.1-0.5,0.2-0.8c0.1-0.2,0.3-0.4,0.5-0.6c0.2-0.1,0.5-0.3,0.7-0.3C27.1,4,27.3,4,27.6,4
			c0.5,0,1,0.1,1.4,0.3v1c-0.4-0.3-0.9-0.4-1.5-0.4c-0.2,0-0.3,0-0.5,0.1c-0.1,0-0.3,0.1-0.4,0.2c-0.1,0.1-0.2,0.2-0.2,0.3
			c-0.1,0.1-0.1,0.2-0.1,0.3c0,0.2,0,0.3,0.1,0.4c0.1,0.1,0.1,0.2,0.2,0.3s0.2,0.2,0.4,0.2c0.2,0.1,0.3,0.1,0.5,0.2
			c0.3,0.1,0.5,0.2,0.7,0.3c0.2,0.1,0.4,0.2,0.5,0.4C29,7.6,29.1,7.8,29.2,8c0.1,0.2,0.1,0.4,0.1,0.6c0,0.3-0.1,0.6-0.2,0.8
			c-0.1,0.2-0.3,0.4-0.5,0.6c-0.2,0.1-0.5,0.3-0.8,0.3s-0.6,0.1-0.9,0.1C26.3,10.4,25.8,10.2,25.3,10z"/>
		<path class="st20" d="M30.1,10V9c0.5,0.4,1.1,0.6,1.7,0.6c0.8,0,1.3-0.3,1.3-0.9c0-0.2,0-0.3-0.1-0.4c-0.1-0.1-0.2-0.2-0.3-0.3
			c-0.1-0.1-0.3-0.2-0.4-0.2s-0.3-0.1-0.5-0.2c-0.3-0.1-0.5-0.2-0.7-0.3c-0.2-0.1-0.4-0.2-0.5-0.4c-0.1-0.1-0.2-0.3-0.3-0.5
			c-0.1-0.2-0.1-0.4-0.1-0.6c0-0.3,0.1-0.5,0.2-0.8c0.1-0.2,0.3-0.4,0.5-0.6c0.2-0.1,0.5-0.3,0.7-0.3C31.8,4,32.1,4,32.4,4
			c0.5,0,1,0.1,1.4,0.3v1c-0.4-0.3-0.9-0.4-1.5-0.4c-0.2,0-0.3,0-0.5,0.1c-0.1,0-0.3,0.1-0.4,0.2c-0.1,0.1-0.2,0.2-0.2,0.3
			C31.1,5.4,31,5.5,31,5.7c0,0.2,0,0.3,0.1,0.4c0.1,0.1,0.1,0.2,0.2,0.3s0.2,0.2,0.4,0.2c0.2,0.1,0.3,0.1,0.5,0.2
			C32.6,6.9,32.8,7,33,7.1c0.2,0.1,0.4,0.2,0.5,0.4c0.1,0.1,0.3,0.3,0.3,0.5C34,8.1,34,8.3,34,8.6c0,0.3-0.1,0.6-0.2,0.8
			c-0.1,0.2-0.3,0.4-0.5,0.6c-0.2,0.1-0.5,0.3-0.8,0.3s-0.6,0.1-0.9,0.1C31,10.4,30.5,10.2,30.1,10z"/>
		<path class="st20" d="M39.9,7.4h-4.2c0,0.7,0.2,1.2,0.5,1.6s0.8,0.6,1.4,0.6c0.7,0,1.3-0.2,1.9-0.7v0.9c-0.5,0.4-1.2,0.6-2.1,0.6
			c-0.8,0-1.5-0.3-2-0.8s-0.7-1.3-0.7-2.3c0-0.9,0.3-1.7,0.8-2.3C36,4.3,36.7,4,37.5,4c0.8,0,1.4,0.3,1.8,0.8
			c0.4,0.5,0.6,1.2,0.6,2.1V7.4z M39,6.6c0-0.6-0.1-1-0.4-1.3c-0.3-0.3-0.6-0.5-1.1-0.5c-0.5,0-0.8,0.2-1.2,0.5s-0.5,0.8-0.6,1.3H39
			z"/>
		<path class="st20" d="M45.1,10.2h-1V1.7h1V10.2z"/>
		<path class="st20" d="M47.9,7v3.2h-1V1.7h2.3c0.9,0,1.6,0.2,2.1,0.7S52,3.4,52,4.2s-0.3,1.5-0.8,2C50.7,6.7,49.9,7,49,7H47.9z
			 M47.9,2.6v3.5h1c0.7,0,1.2-0.2,1.6-0.5C50.8,5.3,51,4.9,51,4.3c0-1.1-0.7-1.7-2-1.7H47.9z"/>
		<path class="st20" d="M57,9.3L57,9.3l0,3.7h-1V4.1h1v1.1h0C57.5,4.4,58.2,4,59.1,4c0.8,0,1.4,0.3,1.8,0.8c0.4,0.5,0.6,1.3,0.6,2.2
			c0,1-0.2,1.8-0.7,2.5c-0.5,0.6-1.2,0.9-2,0.9C58,10.4,57.4,10,57,9.3z M57,6.9v0.9c0,0.5,0.2,0.9,0.5,1.3c0.3,0.4,0.7,0.5,1.2,0.5
			c0.6,0,1-0.2,1.4-0.7s0.5-1.1,0.5-1.9c0-0.7-0.2-1.2-0.5-1.6c-0.3-0.4-0.7-0.6-1.3-0.6c-0.6,0-1,0.2-1.3,0.6
			C57.2,5.8,57,6.3,57,6.9z"/>
		<path class="st20" d="M67.5,10.2h-1v-1h0c-0.4,0.7-1,1.1-1.8,1.1c-1.4,0-2.1-0.9-2.1-2.6V4.1h1v3.5c0,1.3,0.5,1.9,1.4,1.9
			c0.5,0,0.9-0.2,1.2-0.5c0.3-0.4,0.5-0.8,0.5-1.4V4.1h1V10.2z"/>
		<path class="st20" d="M70.1,9.3L70.1,9.3l0,0.9h-1v-9h1v4h0C70.6,4.4,71.3,4,72.2,4c0.8,0,1.4,0.3,1.8,0.8
			c0.4,0.5,0.7,1.3,0.7,2.2c0,1-0.2,1.8-0.7,2.5c-0.5,0.6-1.2,0.9-2,0.9C71.1,10.4,70.5,10,70.1,9.3z M70.1,6.9v0.9
			c0,0.5,0.2,0.9,0.5,1.3c0.3,0.4,0.7,0.5,1.2,0.5c0.6,0,1-0.2,1.4-0.7s0.5-1.1,0.5-1.9c0-0.7-0.2-1.2-0.5-1.6
			c-0.3-0.4-0.7-0.6-1.3-0.6c-0.6,0-1,0.2-1.3,0.6C70.2,5.8,70.1,6.3,70.1,6.9z"/>
		<path class="st20" d="M76.8,10.2h-1v-9h1V10.2z"/>
		<path class="st20" d="M78.8,2.6c-0.2,0-0.3-0.1-0.4-0.2c-0.1-0.1-0.2-0.3-0.2-0.5s0.1-0.3,0.2-0.5c0.1-0.1,0.3-0.2,0.4-0.2
			c0.2,0,0.3,0.1,0.4,0.2s0.2,0.3,0.2,0.5c0,0.2-0.1,0.3-0.2,0.4S79,2.6,78.8,2.6z M79.3,10.2h-1V4.1h1V10.2z"/>
		<path class="st20" d="M86,13h-1V9.2h0c-0.4,0.8-1.1,1.2-2,1.2c-0.8,0-1.4-0.3-1.8-0.8c-0.5-0.5-0.7-1.3-0.7-2.2
			c0-1,0.2-1.8,0.7-2.4c0.5-0.6,1.2-0.9,2-0.9C84,4,84.6,4.3,85,5h0V4.1h1V13z M85,7.5V6.6c0-0.5-0.2-0.9-0.5-1.3
			c-0.3-0.3-0.7-0.5-1.2-0.5c-0.6,0-1,0.2-1.4,0.7s-0.5,1-0.5,1.8c0,0.7,0.2,1.3,0.5,1.7s0.7,0.6,1.3,0.6c0.6,0,1-0.2,1.3-0.6
			S85,8.1,85,7.5z"/>
		<path class="st20" d="M92.4,10.2h-1v-1h0c-0.4,0.7-1,1.1-1.8,1.1c-1.4,0-2.1-0.9-2.1-2.6V4.1h1v3.5c0,1.3,0.5,1.9,1.4,1.9
			c0.5,0,0.9-0.2,1.2-0.5c0.3-0.4,0.5-0.8,0.5-1.4V4.1h1V10.2z"/>
		<path class="st20" d="M98.8,7.4h-4.2c0,0.7,0.2,1.2,0.5,1.6c0.3,0.4,0.8,0.6,1.4,0.6c0.7,0,1.3-0.2,1.9-0.7v0.9
			c-0.5,0.4-1.2,0.6-2.1,0.6c-0.8,0-1.5-0.3-2-0.8c-0.5-0.6-0.7-1.3-0.7-2.3c0-0.9,0.3-1.7,0.8-2.3c0.5-0.6,1.2-0.9,2-0.9
			c0.8,0,1.4,0.3,1.8,0.8s0.6,1.2,0.6,2.1V7.4z M97.8,6.6c0-0.6-0.1-1-0.4-1.3c-0.3-0.3-0.6-0.5-1.1-0.5c-0.5,0-0.8,0.2-1.2,0.5
			s-0.5,0.8-0.6,1.3H97.8z"/>
	</g>
	<g>
		<path class="st20" d="M110.2,7v3.2h-1V1.7h2.3c0.9,0,1.6,0.2,2.1,0.7c0.5,0.4,0.7,1.1,0.7,1.9s-0.3,1.5-0.8,2S112.3,7,111.3,7
			H110.2z M110.2,2.6v3.5h1c0.7,0,1.2-0.2,1.6-0.5s0.5-0.8,0.5-1.3c0-1.1-0.7-1.7-2-1.7H110.2z"/>
		<path class="st20" d="M118.9,5.1c-0.2-0.1-0.4-0.2-0.7-0.2c-0.4,0-0.8,0.2-1,0.6c-0.3,0.4-0.4,0.9-0.4,1.6v3.1h-1V4.1h1v1.3h0
			c0.1-0.4,0.3-0.8,0.6-1S118,4,118.4,4c0.3,0,0.4,0,0.6,0.1V5.1z"/>
		<path class="st20" d="M124.8,7.4h-4.2c0,0.7,0.2,1.2,0.5,1.6s0.8,0.6,1.4,0.6c0.7,0,1.3-0.2,1.9-0.7v0.9c-0.5,0.4-1.2,0.6-2.1,0.6
			c-0.8,0-1.5-0.3-2-0.8c-0.5-0.6-0.7-1.3-0.7-2.3c0-0.9,0.3-1.7,0.8-2.3c0.5-0.6,1.2-0.9,2-0.9s1.4,0.3,1.8,0.8
			c0.4,0.5,0.6,1.2,0.6,2.1V7.4z M123.8,6.6c0-0.6-0.1-1-0.4-1.3c-0.3-0.3-0.6-0.5-1.1-0.5c-0.5,0-0.8,0.2-1.2,0.5s-0.5,0.8-0.6,1.3
			H123.8z M123.7,1l-1.5,2h-0.7l1.3-2H123.7z"/>
		<path class="st20" d="M129.2,2.1c-0.2-0.1-0.4-0.2-0.6-0.2c-0.7,0-1,0.4-1,1.3v0.9h1.4V5h-1.4v5.3h-1V5h-1V4.1h1v-1
			c0-0.6,0.2-1.1,0.5-1.5s0.8-0.6,1.4-0.6c0.3,0,0.5,0,0.7,0.1V2.1z"/>
		<path class="st20" d="M130.5,2.6c-0.2,0-0.3-0.1-0.4-0.2c-0.1-0.1-0.2-0.3-0.2-0.5s0.1-0.3,0.2-0.5s0.3-0.2,0.4-0.2
			c0.2,0,0.3,0.1,0.4,0.2c0.1,0.1,0.2,0.3,0.2,0.5c0,0.2-0.1,0.3-0.2,0.4C130.8,2.5,130.6,2.6,130.5,2.6z M130.9,10.2h-1V4.1h1V10.2
			z"/>
		<path class="st20" d="M137.2,4.1l-2,3.1l2,3h-1.1l-1.2-2c-0.1-0.1-0.2-0.3-0.3-0.5h0c0,0-0.1,0.2-0.3,0.5l-1.2,2h-1.1l2-3l-2-3.1
			h1.1l1.2,2.1c0.1,0.2,0.2,0.3,0.3,0.5h0l1.5-2.6H137.2z"/>
		<path class="st20" d="M143.2,7.4H139c0,0.7,0.2,1.2,0.5,1.6s0.8,0.6,1.4,0.6c0.7,0,1.3-0.2,1.9-0.7v0.9c-0.5,0.4-1.2,0.6-2.1,0.6
			c-0.8,0-1.5-0.3-2-0.8C138.2,9,138,8.2,138,7.2c0-0.9,0.3-1.7,0.8-2.3c0.5-0.6,1.2-0.9,2-0.9s1.4,0.3,1.8,0.8
			c0.4,0.5,0.6,1.2,0.6,2.1V7.4z M142.2,6.6c0-0.6-0.1-1-0.4-1.3c-0.3-0.3-0.6-0.5-1.1-0.5c-0.5,0-0.8,0.2-1.2,0.5S139,6.1,139,6.6
			H142.2z"/>
		<path class="st20" d="M149,10.2h-1V1.7h1V10.2z"/>
		<path class="st20" d="M152.2,7v3.2h-1V1.7h2.3c0.9,0,1.6,0.2,2.1,0.7s0.7,1.1,0.7,1.9s-0.3,1.5-0.8,2C155,6.7,154.2,7,153.3,7
			H152.2z M152.2,2.6v3.5h1c0.7,0,1.2-0.2,1.6-0.5c0.4-0.3,0.5-0.8,0.5-1.3c0-1.1-0.7-1.7-2-1.7H152.2z"/>
	</g>
	<g>
		<rect x="103.1" y="134" class="st21" width="50.4" height="33.9"/>
		<path class="st20" d="M113.7,142.9v-1.2c0.1,0.1,0.3,0.2,0.5,0.3c0.2,0.1,0.4,0.2,0.6,0.2c0.2,0.1,0.4,0.1,0.6,0.2
			s0.4,0.1,0.6,0.1c0.6,0,1.1-0.1,1.4-0.3c0.3-0.2,0.5-0.6,0.5-1c0-0.2-0.1-0.4-0.2-0.6c-0.1-0.2-0.2-0.3-0.4-0.5
			c-0.2-0.1-0.4-0.3-0.6-0.4s-0.5-0.3-0.8-0.4c-0.3-0.2-0.6-0.3-0.8-0.5c-0.3-0.2-0.5-0.3-0.7-0.5c-0.2-0.2-0.3-0.4-0.5-0.6
			c-0.1-0.2-0.2-0.5-0.2-0.8c0-0.4,0.1-0.7,0.3-1c0.2-0.3,0.4-0.5,0.7-0.7c0.3-0.2,0.6-0.3,1-0.4c0.4-0.1,0.7-0.1,1.1-0.1
			c0.8,0,1.5,0.1,1.9,0.3v1.1c-0.5-0.4-1.2-0.5-2-0.5c-0.2,0-0.4,0-0.7,0.1c-0.2,0-0.4,0.1-0.6,0.2c-0.2,0.1-0.3,0.2-0.4,0.4
			c-0.1,0.2-0.2,0.4-0.2,0.6c0,0.2,0,0.4,0.1,0.6c0.1,0.2,0.2,0.3,0.4,0.4s0.4,0.3,0.6,0.4c0.2,0.1,0.5,0.3,0.8,0.4
			c0.3,0.2,0.6,0.3,0.9,0.5c0.3,0.2,0.5,0.4,0.7,0.6c0.2,0.2,0.4,0.4,0.5,0.7s0.2,0.5,0.2,0.9c0,0.4-0.1,0.8-0.2,1.1
			s-0.4,0.5-0.7,0.7c-0.3,0.2-0.6,0.3-1,0.4c-0.4,0.1-0.8,0.1-1.2,0.1c-0.1,0-0.3,0-0.5,0c-0.2,0-0.4-0.1-0.6-0.1
			c-0.2,0-0.4-0.1-0.6-0.2C113.9,143,113.8,142.9,113.7,142.9z"/>
		<path class="st20" d="M123,143.4c-0.9,0-1.6-0.3-2.2-0.9s-0.8-1.4-0.8-2.3c0-1,0.3-1.9,0.8-2.4c0.6-0.6,1.3-0.9,2.3-0.9
			c0.9,0,1.6,0.3,2.1,0.9c0.5,0.6,0.8,1.4,0.8,2.4c0,1-0.3,1.8-0.8,2.4C124.7,143.1,123.9,143.4,123,143.4z M123.1,137.7
			c-0.6,0-1.1,0.2-1.5,0.7c-0.4,0.4-0.6,1-0.6,1.8c0,0.7,0.2,1.3,0.6,1.7s0.9,0.6,1.5,0.6c0.6,0,1.1-0.2,1.5-0.6
			c0.3-0.4,0.5-1,0.5-1.8c0-0.8-0.2-1.4-0.5-1.8C124.2,137.9,123.7,137.7,123.1,137.7z"/>
		<path class="st20" d="M132.6,143.2h-1v-1h0c-0.4,0.8-1,1.1-1.9,1.1c-1.5,0-2.2-0.9-2.2-2.6V137h1v3.6c0,1.3,0.5,2,1.5,2
			c0.5,0,0.9-0.2,1.2-0.5c0.3-0.4,0.5-0.8,0.5-1.4V137h1V143.2z"/>
		<path class="st20" d="M134.1,143v-1.1c0.5,0.4,1.1,0.6,1.8,0.6c0.9,0,1.3-0.3,1.3-0.9c0-0.2,0-0.3-0.1-0.4s-0.2-0.2-0.3-0.3
			s-0.3-0.2-0.4-0.2c-0.2-0.1-0.4-0.1-0.5-0.2c-0.3-0.1-0.5-0.2-0.7-0.3s-0.4-0.2-0.5-0.4s-0.2-0.3-0.3-0.5
			c-0.1-0.2-0.1-0.4-0.1-0.6c0-0.3,0.1-0.5,0.2-0.8s0.3-0.4,0.5-0.6c0.2-0.2,0.5-0.3,0.8-0.3c0.3-0.1,0.6-0.1,0.9-0.1
			c0.5,0,1,0.1,1.4,0.3v1c-0.5-0.3-1-0.4-1.6-0.4c-0.2,0-0.3,0-0.5,0.1c-0.1,0-0.3,0.1-0.4,0.2c-0.1,0.1-0.2,0.2-0.2,0.3
			c-0.1,0.1-0.1,0.2-0.1,0.4c0,0.2,0,0.3,0.1,0.4s0.1,0.2,0.3,0.3c0.1,0.1,0.2,0.2,0.4,0.2c0.2,0.1,0.3,0.1,0.5,0.2
			c0.3,0.1,0.5,0.2,0.7,0.3c0.2,0.1,0.4,0.2,0.6,0.4c0.2,0.1,0.3,0.3,0.4,0.5c0.1,0.2,0.1,0.4,0.1,0.7c0,0.3-0.1,0.6-0.2,0.8
			s-0.3,0.4-0.5,0.6s-0.5,0.3-0.8,0.3s-0.6,0.1-0.9,0.1C135.1,143.4,134.6,143.2,134.1,143z"/>
		<path class="st20" d="M142.8,140.1h-3.3v-0.8h3.3V140.1z"/>
		<path class="st20" d="M109.8,149c-0.2-0.1-0.4-0.2-0.7-0.2c-0.4,0-0.8,0.2-1.1,0.6s-0.4,0.9-0.4,1.6v3.2h-1V148h1v1.3h0
			c0.1-0.4,0.4-0.8,0.6-1c0.3-0.2,0.6-0.4,1-0.4c0.3,0,0.5,0,0.6,0.1V149z"/>
		<path class="st20" d="M115.8,151.4h-4.3c0,0.7,0.2,1.2,0.6,1.6c0.4,0.4,0.8,0.6,1.5,0.6c0.7,0,1.3-0.2,1.9-0.7v0.9
			c-0.5,0.4-1.3,0.6-2.1,0.6c-0.9,0-1.5-0.3-2-0.8c-0.5-0.6-0.7-1.4-0.7-2.4c0-1,0.3-1.8,0.8-2.4s1.2-0.9,2-0.9s1.4,0.3,1.9,0.8
			c0.4,0.5,0.7,1.3,0.7,2.2V151.4z M114.8,150.5c0-0.6-0.1-1-0.4-1.3c-0.3-0.3-0.6-0.5-1.1-0.5c-0.5,0-0.9,0.2-1.2,0.5
			c-0.3,0.3-0.5,0.8-0.6,1.3H114.8z M114.6,144.8l-1.6,2h-0.8l1.3-2H114.6z"/>
		<path class="st20" d="M116.9,154v-1.1c0.5,0.4,1.1,0.6,1.8,0.6c0.9,0,1.3-0.3,1.3-0.9c0-0.2,0-0.3-0.1-0.4
			c-0.1-0.1-0.2-0.2-0.3-0.3c-0.1-0.1-0.3-0.2-0.4-0.2s-0.4-0.1-0.5-0.2c-0.3-0.1-0.5-0.2-0.7-0.3s-0.4-0.2-0.5-0.4
			c-0.1-0.1-0.2-0.3-0.3-0.5c-0.1-0.2-0.1-0.4-0.1-0.6c0-0.3,0.1-0.5,0.2-0.8s0.3-0.4,0.5-0.6c0.2-0.2,0.5-0.3,0.8-0.3
			c0.3-0.1,0.6-0.1,0.9-0.1c0.5,0,1,0.1,1.4,0.3v1c-0.5-0.3-1-0.4-1.6-0.4c-0.2,0-0.3,0-0.5,0.1c-0.1,0-0.3,0.1-0.4,0.2
			c-0.1,0.1-0.2,0.2-0.2,0.3s-0.1,0.2-0.1,0.4c0,0.2,0,0.3,0.1,0.4s0.1,0.2,0.3,0.3c0.1,0.1,0.2,0.2,0.4,0.2
			c0.2,0.1,0.3,0.1,0.5,0.2c0.3,0.1,0.5,0.2,0.7,0.3s0.4,0.2,0.6,0.4c0.2,0.1,0.3,0.3,0.4,0.5c0.1,0.2,0.1,0.4,0.1,0.6
			c0,0.3-0.1,0.6-0.2,0.8s-0.3,0.4-0.5,0.6c-0.2,0.1-0.5,0.3-0.8,0.3s-0.6,0.1-0.9,0.1C117.9,154.4,117.3,154.2,116.9,154z"/>
		<path class="st20" d="M127.4,151.4H123c0,0.7,0.2,1.2,0.6,1.6c0.4,0.4,0.8,0.6,1.5,0.6c0.7,0,1.3-0.2,1.9-0.7v0.9
			c-0.5,0.4-1.3,0.6-2.1,0.6c-0.9,0-1.5-0.3-2-0.8c-0.5-0.6-0.7-1.4-0.7-2.4c0-1,0.3-1.8,0.8-2.4s1.2-0.9,2-0.9s1.4,0.3,1.9,0.8
			c0.4,0.5,0.7,1.3,0.7,2.2V151.4z M126.4,150.5c0-0.6-0.1-1-0.4-1.3c-0.3-0.3-0.6-0.5-1.1-0.5c-0.5,0-0.9,0.2-1.2,0.5
			c-0.3,0.3-0.5,0.8-0.6,1.3H126.4z"/>
		<path class="st20" d="M133.2,154.2h-1v-1h0c-0.4,0.7-1.1,1.1-1.9,1.1c-0.6,0-1.1-0.2-1.4-0.5s-0.5-0.8-0.5-1.3c0-1.2,0.7-1.8,2-2
			l1.8-0.3c0-1.1-0.4-1.6-1.3-1.6c-0.7,0-1.4,0.3-2,0.8v-1c0.6-0.4,1.3-0.6,2.1-0.6c1.4,0,2.2,0.8,2.2,2.3V154.2z M132.2,151.1
			l-1.5,0.2c-0.5,0.1-0.8,0.2-1,0.3c-0.2,0.2-0.3,0.5-0.3,0.9c0,0.3,0.1,0.6,0.3,0.7c0.2,0.2,0.5,0.3,0.9,0.3c0.5,0,0.9-0.2,1.2-0.5
			c0.3-0.3,0.5-0.8,0.5-1.3V151.1z"/>
		<path class="st20" d="M140,154.2h-1v-1h0c-0.4,0.8-1,1.1-1.9,1.1c-1.5,0-2.2-0.9-2.2-2.6V148h1v3.6c0,1.3,0.5,2,1.5,2
			c0.5,0,0.9-0.2,1.2-0.5c0.3-0.4,0.5-0.8,0.5-1.4V148h1V154.2z"/>
		<path class="st20" d="M148.9,147.8c0-0.3,0-0.5-0.1-0.7s-0.2-0.4-0.3-0.5c-0.1-0.1-0.3-0.2-0.5-0.3c-0.2-0.1-0.4-0.1-0.6-0.1
			c-0.2,0-0.4,0-0.6,0.1s-0.4,0.1-0.5,0.2c-0.2,0.1-0.3,0.2-0.5,0.3c-0.2,0.1-0.3,0.3-0.5,0.4v-1.1c0.3-0.3,0.6-0.5,0.9-0.6
			c0.3-0.1,0.8-0.2,1.3-0.2c0.4,0,0.7,0.1,1,0.2c0.3,0.1,0.6,0.3,0.8,0.5s0.4,0.4,0.5,0.7c0.1,0.3,0.2,0.6,0.2,1
			c0,0.3,0,0.7-0.1,0.9c-0.1,0.3-0.2,0.5-0.4,0.8s-0.4,0.5-0.6,0.7c-0.2,0.2-0.5,0.5-0.8,0.7c-0.4,0.3-0.7,0.5-1,0.7
			c-0.3,0.2-0.5,0.4-0.6,0.6c-0.2,0.2-0.3,0.4-0.3,0.5c-0.1,0.2-0.1,0.4-0.1,0.6h4.3v0.9h-5.3v-0.4c0-0.4,0-0.7,0.1-1
			c0.1-0.3,0.2-0.6,0.4-0.8c0.2-0.3,0.4-0.5,0.7-0.8c0.3-0.3,0.7-0.5,1.1-0.9c0.3-0.2,0.6-0.4,0.8-0.7c0.2-0.2,0.4-0.4,0.5-0.6
			c0.1-0.2,0.2-0.4,0.3-0.6C148.9,148.3,148.9,148,148.9,147.8z"/>
	</g>
	<g>
		<rect x="33.2" y="134" class="st21" width="50.4" height="33.9"/>
		<path class="st20" d="M43.8,142.9v-1.2c0.1,0.1,0.3,0.2,0.5,0.3c0.2,0.1,0.4,0.2,0.6,0.2c0.2,0.1,0.4,0.1,0.6,0.2s0.4,0.1,0.6,0.1
			c0.6,0,1.1-0.1,1.4-0.3c0.3-0.2,0.5-0.6,0.5-1c0-0.2-0.1-0.4-0.2-0.6c-0.1-0.2-0.2-0.3-0.4-0.5c-0.2-0.1-0.4-0.3-0.6-0.4
			s-0.5-0.3-0.8-0.4c-0.3-0.2-0.6-0.3-0.8-0.5c-0.3-0.2-0.5-0.3-0.7-0.5c-0.2-0.2-0.3-0.4-0.5-0.6c-0.1-0.2-0.2-0.5-0.2-0.8
			c0-0.4,0.1-0.7,0.3-1c0.2-0.3,0.4-0.5,0.7-0.7c0.3-0.2,0.6-0.3,1-0.4c0.4-0.1,0.7-0.1,1.1-0.1c0.8,0,1.5,0.1,1.9,0.3v1.1
			c-0.5-0.4-1.2-0.5-2-0.5c-0.2,0-0.4,0-0.7,0.1c-0.2,0-0.4,0.1-0.6,0.2c-0.2,0.1-0.3,0.2-0.4,0.4c-0.1,0.2-0.2,0.4-0.2,0.6
			c0,0.2,0,0.4,0.1,0.6c0.1,0.2,0.2,0.3,0.4,0.4s0.4,0.3,0.6,0.4c0.2,0.1,0.5,0.3,0.8,0.4c0.3,0.2,0.6,0.3,0.9,0.5
			c0.3,0.2,0.5,0.4,0.7,0.6c0.2,0.2,0.4,0.4,0.5,0.7s0.2,0.5,0.2,0.9c0,0.4-0.1,0.8-0.2,1.1s-0.4,0.5-0.7,0.7
			c-0.3,0.2-0.6,0.3-1,0.4c-0.4,0.1-0.8,0.1-1.2,0.1c-0.1,0-0.3,0-0.5,0c-0.2,0-0.4-0.1-0.6-0.1c-0.2,0-0.4-0.1-0.6-0.2
			C44,143,43.9,142.9,43.8,142.9z"/>
		<path class="st20" d="M53.1,143.4c-0.9,0-1.6-0.3-2.2-0.9s-0.8-1.4-0.8-2.3c0-1,0.3-1.9,0.8-2.4c0.6-0.6,1.3-0.9,2.3-0.9
			c0.9,0,1.6,0.3,2.1,0.9c0.5,0.6,0.8,1.4,0.8,2.4c0,1-0.3,1.8-0.8,2.4C54.8,143.1,54,143.4,53.1,143.4z M53.2,137.7
			c-0.6,0-1.1,0.2-1.5,0.7c-0.4,0.4-0.6,1-0.6,1.8c0,0.7,0.2,1.3,0.6,1.7s0.9,0.6,1.5,0.6c0.6,0,1.1-0.2,1.5-0.6
			c0.3-0.4,0.5-1,0.5-1.8c0-0.8-0.2-1.4-0.5-1.8C54.3,137.9,53.8,137.7,53.2,137.7z"/>
		<path class="st20" d="M62.7,143.2h-1v-1h0c-0.4,0.8-1,1.1-1.9,1.1c-1.5,0-2.2-0.9-2.2-2.6V137h1v3.6c0,1.3,0.5,2,1.5,2
			c0.5,0,0.9-0.2,1.2-0.5c0.3-0.4,0.5-0.8,0.5-1.4V137h1V143.2z"/>
		<path class="st20" d="M64.2,143v-1.1c0.5,0.4,1.1,0.6,1.8,0.6c0.9,0,1.3-0.3,1.3-0.9c0-0.2,0-0.3-0.1-0.4s-0.2-0.2-0.3-0.3
			s-0.3-0.2-0.4-0.2c-0.2-0.1-0.4-0.1-0.5-0.2c-0.3-0.1-0.5-0.2-0.7-0.3s-0.4-0.2-0.5-0.4s-0.2-0.3-0.3-0.5
			c-0.1-0.2-0.1-0.4-0.1-0.6c0-0.3,0.1-0.5,0.2-0.8s0.3-0.4,0.5-0.6c0.2-0.2,0.5-0.3,0.8-0.3c0.3-0.1,0.6-0.1,0.9-0.1
			c0.5,0,1,0.1,1.4,0.3v1c-0.5-0.3-1-0.4-1.6-0.4c-0.2,0-0.3,0-0.5,0.1c-0.1,0-0.3,0.1-0.4,0.2c-0.1,0.1-0.2,0.2-0.2,0.3
			c-0.1,0.1-0.1,0.2-0.1,0.4c0,0.2,0,0.3,0.1,0.4s0.1,0.2,0.3,0.3c0.1,0.1,0.2,0.2,0.4,0.2c0.2,0.1,0.3,0.1,0.5,0.2
			c0.3,0.1,0.5,0.2,0.7,0.3c0.2,0.1,0.4,0.2,0.6,0.4c0.2,0.1,0.3,0.3,0.4,0.5c0.1,0.2,0.1,0.4,0.1,0.7c0,0.3-0.1,0.6-0.2,0.8
			s-0.3,0.4-0.5,0.6s-0.5,0.3-0.8,0.3s-0.6,0.1-0.9,0.1C65.2,143.4,64.7,143.2,64.2,143z"/>
		<path class="st20" d="M72.9,140.1h-3.3v-0.8h3.3V140.1z"/>
		<path class="st20" d="M39.9,149c-0.2-0.1-0.4-0.2-0.7-0.2c-0.4,0-0.8,0.2-1.1,0.6s-0.4,0.9-0.4,1.6v3.2h-1V148h1v1.3h0
			c0.1-0.4,0.4-0.8,0.6-1c0.3-0.2,0.6-0.4,1-0.4c0.3,0,0.5,0,0.6,0.1V149z"/>
		<path class="st20" d="M45.9,151.4h-4.3c0,0.7,0.2,1.2,0.6,1.6c0.4,0.4,0.8,0.6,1.5,0.6c0.7,0,1.3-0.2,1.9-0.7v0.9
			c-0.5,0.4-1.3,0.6-2.1,0.6c-0.9,0-1.5-0.3-2-0.8c-0.5-0.6-0.7-1.4-0.7-2.4c0-1,0.3-1.8,0.8-2.4s1.2-0.9,2-0.9s1.4,0.3,1.9,0.8
			c0.4,0.5,0.7,1.3,0.7,2.2V151.4z M44.9,150.5c0-0.6-0.1-1-0.4-1.3c-0.3-0.3-0.6-0.5-1.1-0.5c-0.5,0-0.9,0.2-1.2,0.5
			c-0.3,0.3-0.5,0.8-0.6,1.3H44.9z M44.7,144.8l-1.6,2h-0.8l1.3-2H44.7z"/>
		<path class="st20" d="M47,154v-1.1c0.5,0.4,1.1,0.6,1.8,0.6c0.9,0,1.3-0.3,1.3-0.9c0-0.2,0-0.3-0.1-0.4c-0.1-0.1-0.2-0.2-0.3-0.3
			c-0.1-0.1-0.3-0.2-0.4-0.2s-0.4-0.1-0.5-0.2c-0.3-0.1-0.5-0.2-0.7-0.3s-0.4-0.2-0.5-0.4c-0.1-0.1-0.2-0.3-0.3-0.5
			c-0.1-0.2-0.1-0.4-0.1-0.6c0-0.3,0.1-0.5,0.2-0.8s0.3-0.4,0.5-0.6c0.2-0.2,0.5-0.3,0.8-0.3c0.3-0.1,0.6-0.1,0.9-0.1
			c0.5,0,1,0.1,1.4,0.3v1c-0.5-0.3-1-0.4-1.6-0.4c-0.2,0-0.3,0-0.5,0.1c-0.1,0-0.3,0.1-0.4,0.2c-0.1,0.1-0.2,0.2-0.2,0.3
			s-0.1,0.2-0.1,0.4c0,0.2,0,0.3,0.1,0.4s0.1,0.2,0.3,0.3c0.1,0.1,0.2,0.2,0.4,0.2c0.2,0.1,0.3,0.1,0.5,0.2c0.3,0.1,0.5,0.2,0.7,0.3
			s0.4,0.2,0.6,0.4c0.2,0.1,0.3,0.3,0.4,0.5c0.1,0.2,0.1,0.4,0.1,0.6c0,0.3-0.1,0.6-0.2,0.8s-0.3,0.4-0.5,0.6
			c-0.2,0.1-0.5,0.3-0.8,0.3s-0.6,0.1-0.9,0.1C48,154.4,47.4,154.2,47,154z"/>
		<path class="st20" d="M57.5,151.4h-4.3c0,0.7,0.2,1.2,0.6,1.6c0.4,0.4,0.8,0.6,1.5,0.6c0.7,0,1.3-0.2,1.9-0.7v0.9
			c-0.5,0.4-1.3,0.6-2.1,0.6c-0.9,0-1.5-0.3-2-0.8c-0.5-0.6-0.7-1.4-0.7-2.4c0-1,0.3-1.8,0.8-2.4s1.2-0.9,2-0.9s1.4,0.3,1.9,0.8
			c0.4,0.5,0.7,1.3,0.7,2.2V151.4z M56.5,150.5c0-0.6-0.1-1-0.4-1.3c-0.3-0.3-0.6-0.5-1.1-0.5c-0.5,0-0.9,0.2-1.2,0.5
			c-0.3,0.3-0.5,0.8-0.6,1.3H56.5z"/>
		<path class="st20" d="M63.3,154.2h-1v-1h0c-0.4,0.7-1.1,1.1-1.9,1.1c-0.6,0-1.1-0.2-1.4-0.5s-0.5-0.8-0.5-1.3c0-1.2,0.7-1.8,2-2
			l1.8-0.3c0-1.1-0.4-1.6-1.3-1.6c-0.7,0-1.4,0.3-2,0.8v-1c0.6-0.4,1.3-0.6,2.1-0.6c1.4,0,2.2,0.8,2.2,2.3V154.2z M62.3,151.1
			l-1.5,0.2c-0.5,0.1-0.8,0.2-1,0.3c-0.2,0.2-0.3,0.5-0.3,0.9c0,0.3,0.1,0.6,0.3,0.7c0.2,0.2,0.5,0.3,0.9,0.3c0.5,0,0.9-0.2,1.2-0.5
			c0.3-0.3,0.5-0.8,0.5-1.3V151.1z"/>
		<path class="st20" d="M70.1,154.2h-1v-1h0c-0.4,0.8-1,1.1-1.9,1.1c-1.5,0-2.2-0.9-2.2-2.6V148h1v3.6c0,1.3,0.5,2,1.5,2
			c0.5,0,0.9-0.2,1.2-0.5c0.3-0.4,0.5-0.8,0.5-1.4V148h1V154.2z"/>
		<path class="st20" d="M78.7,154.2h-1v-7.5c-0.1,0.1-0.2,0.2-0.3,0.3c-0.1,0.1-0.3,0.2-0.5,0.3c-0.2,0.1-0.4,0.2-0.6,0.3
			c-0.2,0.1-0.4,0.2-0.6,0.2v-1c0.2-0.1,0.4-0.1,0.7-0.2c0.2-0.1,0.5-0.2,0.7-0.3c0.2-0.1,0.5-0.3,0.7-0.4s0.4-0.3,0.5-0.4h0.4
			V154.2z"/>
	</g>
</g>
<g id="Source" class="st22">
	<g id="Shapes_1_" class="st23">
		<rect y="0" class="st0" width="170.5" height="202.6"/>
		<g>
			<g>
				<path class="st0" d="M20.5,120.5h145c2.8,0,5,2.2,5,5v45c0,2.8-2.2,5-5,5h-145c-2.8,0-5-2.2-5-5v-45
					C15.5,122.7,17.8,120.5,20.5,120.5z"/>
				<path class="st1" d="M20.5,120.5h145c2.8,0,5,2.2,5,5v45c0,2.8-2.2,5-5,5h-145c-2.8,0-5-2.2-5-5v-45
					C15.5,122.7,17.8,120.5,20.5,120.5z"/>
			</g>
			<path class="st2" d="M164.4,176h-1v-1h1V176z M161.4,176h-1v-1h1V176z M158.4,176h-1v-1h1V176z M155.4,176h-1v-1h1V176z
				 M152.4,176h-1v-1h1V176z M149.4,176h-1v-1h1V176z M146.4,176h-1v-1h1V176z M143.4,176h-1v-1h1V176z M140.4,176h-1v-1h1V176z
				 M137.4,176h-1v-1h1V176z M134.4,176h-1v-1h1V176z M131.4,176h-1v-1h1V176z M128.4,176h-1v-1h1V176z M125.4,176h-1v-1h1V176z
				 M122.4,176h-1v-1h1V176z M119.4,176h-1v-1h1V176z M116.4,176h-1v-1h1V176z M113.4,176h-1v-1h1V176z M110.4,176h-1v-1h1V176z
				 M107.4,176h-1v-1h1V176z M104.4,176h-1v-1h1V176z M101.4,176h-1v-1h1V176z M98.4,176h-1v-1h1V176z M95.4,176h-1v-1h1V176z
				 M92.4,176h-1v-1h1V176z M89.4,176h-1v-1h1V176z M86.4,176h-1v-1h1V176z M83.4,176h-1v-1h1V176z M80.4,176h-1v-1h1V176z
				 M77.4,176h-1v-1h1V176z M74.4,176h-1v-1h1V176z M71.4,176h-1v-1h1V176z M68.4,176h-1v-1h1V176z M65.4,176h-1v-1h1V176z
				 M62.4,176h-1v-1h1V176z M59.4,176h-1v-1h1V176z M56.4,176h-1v-1h1V176z M53.4,176h-1v-1h1V176z M20.3,176
				c-0.4,0-0.7-0.1-1.1-0.2l0.3-1c0.3,0.1,0.6,0.1,0.9,0.1L20.3,176z M166.5,175.9l-0.2-1c0.3-0.1,0.6-0.1,0.9-0.3l0.4,0.9
				C167.2,175.8,166.8,175.9,166.5,175.9L166.5,175.9z M17.2,174.8c-0.3-0.2-0.6-0.5-0.8-0.8l0.8-0.7c0.2,0.2,0.4,0.4,0.6,0.6
				L17.2,174.8z M169.3,174.4l-0.7-0.7c0.2-0.2,0.4-0.4,0.6-0.7l0.8,0.6C169.9,173.9,169.6,174.2,169.3,174.4L169.3,174.4z
				 M15.3,172.2c-0.1-0.4-0.2-0.7-0.2-1.1l1-0.1c0,0.3,0.1,0.6,0.2,0.9L15.3,172.2z M170.9,171.6l-1-0.2c0.1-0.3,0.1-0.6,0.1-0.9
				l1-0.1v0.1C171,170.9,171,171.2,170.9,171.6L170.9,171.6z M16,169.1h-1v-1h1V169.1z M171,168.4h-1v-1h1V168.4z M16,166h-1v-1h1
				V166z M171,165.4h-1v-1h1V165.4z M16,163h-1v-1h1V163z M171,162.4h-1v-1h1V162.4z M16,160h-1v-1h1V160z M171,159.4h-1v-1h1V159.4
				z M16,157h-1v-1h1V157z M171,156.4h-1v-1h1V156.4z M16,154h-1v-1h1V154z M171,153.4h-1v-1h1V153.4z M16,151h-1v-1h1V151z
				 M171,150.4h-1v-1h1V150.4z M16,148h-1v-1h1V148z M171,147.4h-1v-1h1V147.4z M16,145h-1v-1h1V145z M171,144.4h-1v-1h1V144.4z
				 M16,142h-1v-1h1V142z M171,141.4h-1v-1h1V141.4z M16,139h-1v-1h1V139z M171,138.4h-1v-1h1V138.4z M16,136h-1v-1h1V136z
				 M171,135.4h-1v-1h1V135.4z M16,133h-1v-1h1V133z M171,132.4h-1v-1h1V132.4z M16,130h-1v-1h1V130z M171,129.4h-1v-1h1V129.4z
				 M16,127h-1v-1h1V127z M171,126.4h-1v-0.9l1-0.1V126.4z M16.2,124.2l-1-0.3c0.1-0.3,0.3-0.7,0.4-1l0.9,0.5
				C16.4,123.6,16.3,123.9,16.2,124.2L16.2,124.2z M169.6,123.6c-0.1-0.3-0.3-0.5-0.4-0.8l0.8-0.6c0.2,0.3,0.4,0.6,0.5,1
				L169.6,123.6z M17.7,122l-0.6-0.8c0.3-0.2,0.6-0.4,0.9-0.6l0.5,0.9C18.2,121.6,17.9,121.8,17.7,122z M167.9,121.7
				c-0.3-0.2-0.5-0.3-0.8-0.4l0.3-0.9c0.4,0.1,0.7,0.3,1,0.5L167.9,121.7z M20.2,121l-0.1-1h0.4h0.6v1H20.2L20.2,121z M165.3,121h-1
				v-1h1V121z M162.3,121h-1v-1h1V121z M159.3,121h-1v-1h1V121z M156.3,121h-1v-1h1V121z M153.3,121h-1v-1h1V121z M150.3,121h-1v-1
				h1V121z M147.3,121h-1v-1h1V121z M144.3,121h-1v-1h1V121z M141.3,121h-1v-1h1V121z M138.3,121h-1v-1h1V121z M135.3,121h-1v-1h1
				V121z M132.3,121h-1v-1h1V121z M129.3,121h-1v-1h1V121z M126.3,121h-1v-1h1V121z M123.3,121h-1v-1h1V121z M120.3,121h-1v-1h1V121
				z M117.3,121h-1v-1h1V121z M114.3,121h-1v-1h1V121z M111.3,121h-1v-1h1V121z M108.3,121h-1v-1h1V121z M105.3,121h-1v-1h1V121z
				 M102.3,121h-1v-1h1V121z M99.3,121h-1v-1h1V121z M96.3,121h-1v-1h1V121z M93.3,121h-1v-1h1V121z M90.3,121h-1v-1h1V121z
				 M87.3,121h-1v-1h1V121z M84.3,121h-1v-1h1V121z M81.3,121h-1v-1h1V121z M78.3,121h-1v-1h1V121z M75.3,121h-1v-1h1V121z
				 M72.3,121h-1v-1h1V121z M69.3,121h-1v-1h1V121z M66.3,121h-1v-1h1V121z M63.3,121h-1v-1h1V121z M60.3,121h-1v-1h1V121z
				 M57.3,121h-1v-1h1V121z M54.3,121h-1v-1h1V121z M51.3,121h-1v-1h1V121z M48.3,121h-1v-1h1V121z M45.3,121h-1v-1h1V121z
				 M42.3,121h-1v-1h1V121z M39.3,121h-1v-1h1V121z M36.3,121h-1v-1h1V121z M33.3,121h-1v-1h1V121z M30.3,121h-1v-1h1V121z
				 M27.3,121h-1v-1h1V121z M24.3,121h-1v-1h1V121z"/>
		</g>
		<g>
			<path class="st0" d="M25.5,130.5h65.1c0.2,0,0.3,0.1,0.3,0.3v29.4c0,0.2-0.1,0.3-0.3,0.3H25.5c-0.2,0-0.3-0.1-0.3-0.3v-29.4
				C25.2,130.6,25.4,130.5,25.5,130.5z"/>
			<path class="st3" d="M25.5,130.5h65.1c0.2,0,0.3,0.1,0.3,0.3v29.4c0,0.2-0.1,0.3-0.3,0.3H25.5c-0.2,0-0.3-0.1-0.3-0.3v-29.4
				C25.2,130.6,25.4,130.5,25.5,130.5z"/>
		</g>
		<g>
			<path class="st0" d="M95.9,130.5H161c0.2,0,0.3,0.1,0.3,0.3v29.4c0,0.2-0.1,0.3-0.3,0.3H95.9c-0.2,0-0.3-0.1-0.3-0.3v-29.4
				C95.6,130.6,95.7,130.5,95.9,130.5z"/>
			<path class="st3" d="M95.9,130.5H161c0.2,0,0.3,0.1,0.3,0.3v29.4c0,0.2-0.1,0.3-0.3,0.3H95.9c-0.2,0-0.3-0.1-0.3-0.3v-29.4
				C95.6,130.6,95.7,130.5,95.9,130.5z"/>
		</g>
		<g>
			
				<linearGradient id="SVGID_8_" gradientUnits="userSpaceOnUse" x1="83.555" y1="-2014.1987" x2="83.555" y2="-2001.4087" gradientTransform="matrix(1 0 0 -1 0 -1978.9785)">
				<stop  offset="0" style="stop-color:#32BEDD"/>
				<stop  offset="0.18" style="stop-color:#32CAEA"/>
				<stop  offset="0.41" style="stop-color:#32D2F2"/>
				<stop  offset="0.78" style="stop-color:#32D4F5"/>
			</linearGradient>
			<path class="st24" d="M72.7,22.4h21.7v12.1c0,0.4-0.3,0.7-0.7,0.7H73.4c-0.4,0-0.7-0.3-0.7-0.7l0,0L72.7,22.4z"/>
			<path class="st5" d="M73.4,17.8h20.2c0.4,0,0.7,0.3,0.7,0.7v0l0,0v3.9H72.7v-3.9C72.7,18.1,73,17.8,73.4,17.8z"/>
			<path class="st6" d="M76,19.2h15.1c0.2,0,0.4,0.2,0.4,0.4v1.1c0,0.2-0.2,0.4-0.4,0.4H76c-0.2,0-0.4-0.2-0.4-0.4v-1.1
				C75.6,19.4,75.8,19.2,76,19.2z"/>
			
				<linearGradient id="SVGID_9_" gradientUnits="userSpaceOnUse" x1="92.01" y1="-2020.4785" x2="92.01" y2="-2007.6887" gradientTransform="matrix(1 0 0 -1 0 -1978.9785)">
				<stop  offset="0" style="stop-color:#32BEDD"/>
				<stop  offset="0.18" style="stop-color:#32CAEA"/>
				<stop  offset="0.41" style="stop-color:#32D2F2"/>
				<stop  offset="0.78" style="stop-color:#32D4F5"/>
			</linearGradient>
			<path class="st25" d="M81.2,28.7h21.7v12.1c0,0.4-0.3,0.7-0.7,0.7l0,0H81.9c-0.4,0-0.7-0.3-0.7-0.7c0,0,0,0,0,0l0,0V28.7z"/>
			<path class="st5" d="M81.9,24.1h20.2c0.4,0,0.7,0.3,0.7,0.7v0l0,0v3.9H81.2v-3.9C81.2,24.4,81.5,24.1,81.9,24.1z"/>
			<path class="st6" d="M84.4,25.5h15.1c0.2,0,0.4,0.2,0.4,0.4V27c0,0.2-0.2,0.4-0.4,0.4H84.4c-0.2,0-0.4-0.2-0.4-0.4v-1.1
				C84.1,25.6,84.2,25.5,84.4,25.5z"/>
			<g>
				
					<linearGradient id="SVGID_10_" gradientUnits="userSpaceOnUse" x1="100.46" y1="-2026.7585" x2="100.46" y2="-2013.9585" gradientTransform="matrix(1 0 0 -1 0 -1978.9785)">
					<stop  offset="0" style="stop-color:#32BEDD"/>
					<stop  offset="0.18" style="stop-color:#32CAEA"/>
					<stop  offset="0.41" style="stop-color:#32D2F2"/>
					<stop  offset="0.78" style="stop-color:#32D4F5"/>
				</linearGradient>
				<path class="st26" d="M89.6,35h21.7v12.1c0,0.4-0.3,0.7-0.7,0.7c0,0,0,0,0,0H90.4c-0.4,0-0.7-0.3-0.7-0.7c0,0,0,0,0,0l0,0V35z"
					/>
				<path class="st5" d="M90.4,30.4h20.2c0.4,0,0.7,0.3,0.7,0.7c0,0,0,0,0,0V35H89.6v-3.9C89.6,30.7,89.9,30.4,90.4,30.4
					C90.4,30.4,90.4,30.4,90.4,30.4z"/>
				<g>
					<circle class="st6" cx="105.3" cy="40.6" r="1.8"/>
					<circle class="st6" cx="100.5" cy="40.6" r="1.8"/>
					<circle class="st6" cx="95.6" cy="40.6" r="1.8"/>
				</g>
				<path class="st6" d="M92.9,31.7H108c0.2,0,0.4,0.2,0.4,0.4v1.1c0,0.2-0.2,0.4-0.4,0.4H92.9c-0.2,0-0.4-0.2-0.4-0.4v-1.1
					C92.5,31.9,92.7,31.7,92.9,31.7z"/>
			</g>
		</g>
		<g>
			
				<linearGradient id="SVGID_11_" gradientUnits="userSpaceOnUse" x1="22.57" y1="299.4814" x2="22.57" y2="278.9014" gradientTransform="matrix(1 0 0 1 0 -252.6814)">
				<stop  offset="0" style="stop-color:#32BEDD"/>
				<stop  offset="0.18" style="stop-color:#32CAEA"/>
				<stop  offset="0.41" style="stop-color:#32D2F2"/>
				<stop  offset="0.78" style="stop-color:#32D4F5"/>
			</linearGradient>
			<path class="st27" d="M5.1,26.2H40v19.4c0,0.6-0.5,1.2-1.2,1.2H6.3c-0.6,0-1.2-0.5-1.2-1.2V26.2z"/>
			<path class="st5" d="M6.3,18.8h32.5c0.6,0,1.2,0.5,1.2,1.1c0,0,0,0,0,0.1v6.3H5.1V20C5.1,19.4,5.6,18.8,6.3,18.8
				C6.3,18.8,6.3,18.8,6.3,18.8z"/>
			<circle class="st6" cx="30.4" cy="35.2" r="2.8"/>
			<circle class="st6" cx="22.7" cy="35.2" r="2.8"/>
			<circle class="st6" cx="14.7" cy="35.2" r="2.8"/>
			<path class="st6" d="M10.4,21h24.3c0.3,0,0.6,0.3,0.6,0.6v1.9c0,0.3-0.3,0.6-0.6,0.6H10.4c-0.3,0-0.6-0.3-0.6-0.6v-1.9
				C9.8,21.3,10.1,21,10.4,21z"/>
		</g>
		<g>
			<line class="st10" x1="58.1" y1="130.5" x2="58.1" y2="107.9"/>
			<polygon class="st2" points="61.8,109 58.1,102.5 54.3,109 			"/>
		</g>
		<g>
			<path class="st10" d="M45.6,75.6H24.3c-2.8,0-5-2.2-5-5V55.3"/>
			<polygon class="st2" points="23.1,56.4 19.3,49.9 15.6,56.4 			"/>
		</g>
		<g>
			<path class="st10" d="M97.3,55.3v15.3c0,2.8-2.2,5-5,5H69"/>
			<polygon class="st2" points="93.6,56.4 97.3,49.9 101.1,56.4 			"/>
		</g>
		<g>
			
				<linearGradient id="SVGID_12_" gradientUnits="userSpaceOnUse" x1="38.255" y1="428.0264" x2="40.625" y2="430.3964" gradientTransform="matrix(1 0 0 1 2.9 -253.2214)">
				<stop  offset="0" style="stop-color:#86D633"/>
				<stop  offset="0.24" style="stop-color:#83D232"/>
				<stop  offset="0.5" style="stop-color:#7CC52F"/>
				<stop  offset="0.76" style="stop-color:#6FB02A"/>
				<stop  offset="1" style="stop-color:#5E9624"/>
			</linearGradient>
			<circle class="st28" cx="42.1" cy="175.8" r="1.7"/>
			
				<linearGradient id="SVGID_13_" gradientUnits="userSpaceOnUse" x1="32.9067" y1="428.034" x2="35.2667" y2="430.404" gradientTransform="matrix(1 0 0 1 2.9 -253.2214)">
				<stop  offset="0" style="stop-color:#86D633"/>
				<stop  offset="0.24" style="stop-color:#83D232"/>
				<stop  offset="0.5" style="stop-color:#7CC52F"/>
				<stop  offset="0.76" style="stop-color:#6FB02A"/>
				<stop  offset="1" style="stop-color:#5E9624"/>
			</linearGradient>
			<circle class="st29" cx="36.8" cy="175.8" r="1.7"/>
			
				<linearGradient id="SVGID_14_" gradientUnits="userSpaceOnUse" x1="27.5617" y1="428.029" x2="29.9217" y2="430.399" gradientTransform="matrix(1 0 0 1 2.9 -253.2214)">
				<stop  offset="0" style="stop-color:#86D633"/>
				<stop  offset="0.24" style="stop-color:#83D232"/>
				<stop  offset="0.5" style="stop-color:#7CC52F"/>
				<stop  offset="0.76" style="stop-color:#6FB02A"/>
				<stop  offset="1" style="stop-color:#5E9624"/>
			</linearGradient>
			<circle class="st30" cx="31.4" cy="175.8" r="1.7"/>
			<path class="st14" d="M32.6,182.5l-1,1c-0.2,0.2-0.4,0.2-0.6,0l0,0l-7.1-7.1c-0.3-0.3-0.3-0.9,0-1.2l0,0l1-1l0,0l7.7,7.7
				C32.8,182,32.8,182.3,32.6,182.5C32.7,182.4,32.7,182.4,32.6,182.5L32.6,182.5z"/>
			<path class="st15" d="M31.5,168.1l1,1c0.2,0.2,0.2,0.4,0,0.6l-7.6,7.6l0,0l-1-1c-0.3-0.3-0.3-0.9,0-1.2l0,0l7-7
				C31.1,168,31.4,168,31.5,168.1z"/>
			<path class="st14" d="M48.5,174.2l1,1c0.3,0.3,0.3,0.9,0,1.2l0,0l-7.1,7.1c-0.2,0.2-0.4,0.2-0.6,0c0,0,0,0,0,0l0,0l-1-1
				c-0.2-0.2-0.2-0.4,0-0.6c0,0,0,0,0,0l0,0L48.5,174.2z"/>
			<path class="st15" d="M49.5,176.3l-1,0.9l0,0l-7.6-7.6c-0.2-0.2-0.2-0.4,0-0.6l0,0l1-1c0.2-0.2,0.4-0.2,0.6,0c0,0,0,0,0,0l0,0
				l7,7C49.8,175.4,49.8,176,49.5,176.3L49.5,176.3L49.5,176.3z"/>
		</g>
		<g id="ad94e297-0e86-4eaf-aac0-d146ee9aea65_1_">
			<g>
				<path class="st16" d="M54,92.2l-4.7-4.8c-0.3,0.1-0.5,0.1-0.8,0.1c-1.3,0-2.4-1.1-2.4-2.4s1.1-2.4,2.4-2.4c1,0,1.9,0.6,2.3,1.5
					h4.6v1.6h-4.6c-0.1,0.2-0.2,0.4-0.3,0.6l4.3,4.5l2.3-3.6V76.1h-3.2l4-4l3.9,4h-3.2v8.7l5.9-9l-6-6c-0.4-0.4-1-0.4-1.4,0
					c0,0,0,0,0,0l0,0L42.9,84.3c-0.4,0.4-0.4,1,0,1.4c0,0,0,0,0,0l0,0l14.5,14.5L52.2,95L54,92.2z"/>
				<path class="st17" d="M57.3,92.4v-5.2l-2.3,3.6l1.7,1.8C56.8,92.6,57,92.5,57.3,92.4z"/>
				<path class="st17" d="M73.3,84.3l-8.5-8.5l-5.9,9v7.6c0.2,0.1,0.4,0.2,0.5,0.3l6.2-6.3c-0.1-0.2-0.2-0.4-0.3-0.6h-4.7v-1.6h4.7
					c0.5-1.2,1.9-1.8,3.2-1.3s1.8,1.9,1.3,3.2c-0.4,0.9-1.3,1.5-2.2,1.5c-0.2,0-0.5,0-0.7-0.1l-6.6,6.7c0.1,0.2,0.1,0.4,0.1,0.6
					c0.1,1.3-0.9,2.5-2.2,2.6c-1.3,0.1-2.5-0.9-2.6-2.2c0-0.1,0-0.2,0-0.2c0-0.3,0-0.6,0.1-0.9L54,92.3L52.2,95l5.2,5.2
					c0.4,0.4,1,0.4,1.4,0c0,0,0,0,0,0l14.5-14.5C73.6,85.4,73.7,84.7,73.3,84.3C73.3,84.3,73.3,84.3,73.3,84.3L73.3,84.3z"/>
				<path class="st18" d="M65.4,84.2h-4.7v1.6h4.7c-0.1-0.2-0.1-0.5-0.1-0.7C65.2,84.8,65.3,84.5,65.4,84.2z"/>
				<path class="st18" d="M50.8,85.8h4.5v-1.6h-4.6c0.1,0.3,0.2,0.6,0.2,0.9C51,85.4,50.9,85.6,50.8,85.8z"/>
				<path class="st18" d="M60.3,94.1l6.7-6.7c-0.5-0.2-1-0.5-1.3-1l-6.2,6.3C59.9,93.1,60.2,93.5,60.3,94.1z"/>
				<path class="st18" d="M56.7,92.7L55,90.9l-4.4-4.5c-0.3,0.5-0.7,0.8-1.3,1l4.7,4.8l1.7,1.8C55.9,93.5,56.2,93,56.7,92.7z"/>
				<path class="st0" d="M62,76.1l-3.9-4l-4,4h3.2v16.3c-0.2,0-0.4,0.1-0.6,0.3c-0.5,0.3-0.8,0.8-1,1.3c-0.4,1.3,0.3,2.6,1.6,3
					c1.3,0.4,2.6-0.3,3-1.6c0.1-0.2,0.1-0.5,0.1-0.7c0-0.2,0-0.4-0.1-0.6c-0.1-0.5-0.5-1-0.9-1.3c-0.2-0.1-0.3-0.2-0.5-0.3V76.1H62z
					 M58.1,96.1c-0.7,0-1.3-0.6-1.3-1.3c0-0.7,0.6-1.3,1.3-1.3s1.3,0.6,1.3,1.3l0,0l0,0C59.4,95.5,58.8,96.1,58.1,96.1L58.1,96.1z"
					/>
				<path class="st0" d="M50.6,86.4c0.1-0.2,0.2-0.4,0.3-0.6c0.1-0.2,0.1-0.5,0.1-0.7c0-0.3-0.1-0.6-0.2-0.9
					c-0.5-1.2-1.9-1.8-3.1-1.3c-1.2,0.5-1.8,1.9-1.3,3.1c0.4,0.9,1.2,1.5,2.2,1.5c0.3,0,0.5-0.1,0.8-0.1
					C49.8,87.2,50.3,86.9,50.6,86.4z M48.6,86.4c-0.7,0-1.4-0.6-1.4-1.3s0.6-1.3,1.3-1.3c0.7,0,1.4,0.6,1.4,1.3l0,0l0,0
					C50,85.8,49.4,86.4,48.6,86.4C48.6,86.4,48.6,86.4,48.6,86.4L48.6,86.4L48.6,86.4z"/>
				<path class="st0" d="M67,87.4c0.2,0.1,0.4,0.1,0.7,0.1c1.3,0,2.4-1.1,2.4-2.4s-1.1-2.4-2.4-2.4c-1,0-1.9,0.6-2.3,1.5
					c-0.1,0.3-0.2,0.6-0.2,0.9c0,0.2,0,0.5,0.1,0.7c0.1,0.2,0.2,0.4,0.3,0.6C66,86.9,66.5,87.3,67,87.4z M67.7,83.8
					c0.7,0.1,1.3,0.7,1.2,1.5c-0.1,0.7-0.7,1.3-1.5,1.2c-0.6-0.1-1.1-0.6-1.2-1.2c-0.1-0.7,0.4-1.4,1.2-1.5c0,0,0,0,0,0
					C67.5,83.8,67.5,83.8,67.7,83.8L67.7,83.8z"/>
				<path class="st19" d="M58.1,93.4c-0.7,0-1.3,0.6-1.3,1.3c0,0.7,0.6,1.3,1.3,1.3s1.3-0.6,1.3-1.3l0,0l0,0
					C59.4,94,58.8,93.4,58.1,93.4z"/>
				<circle class="st19" cx="48.5" cy="85.1" r="1.3"/>
				<path class="st19" d="M67.6,86.4c0.7,0,1.4-0.6,1.4-1.3c0-0.7-0.6-1.4-1.3-1.4c-0.7,0-1.4,0.6-1.4,1.3c0,0,0,0,0,0l0,0
					C66.3,85.9,66.9,86.4,67.6,86.4z"/>
			</g>
		</g>
	</g>
	<g id="Text_2_" class="st23">
		<g>
			<path class="st20" d="M54,65.2h-1.2l-4.3-6.7c-0.1-0.2-0.2-0.3-0.3-0.5l0,0c0,0.4,0,0.8,0,1.2v6.1h-1v-8.4h1.3l4.2,6.6
				c0.1,0.2,0.2,0.4,0.3,0.6l0,0c0-0.4,0-0.8,0-1.3v-5.9h1V65.2z"/>
			<path class="st20" d="M62.7,65.2h-1.1l-0.9-2.3h-3.6l-0.8,2.3h-1.1l3.2-8.4h1L62.7,65.2z M60.4,62l-1.3-3.6
				C59,58.2,59,58,58.9,57.8l0,0c0,0.2-0.1,0.4-0.1,0.6L57.5,62H60.4z"/>
			<path class="st20" d="M68,57.7h-2.4v7.5h-1v-7.5h-2.4v-0.9H68V57.7z"/>
		</g>
		<g>
			<path class="st20" d="M34.7,148.5v-1.2c0.2,0.1,0.3,0.2,0.5,0.3c0.2,0.1,0.4,0.2,0.6,0.3c0.2,0.1,0.4,0.1,0.6,0.1
				c0.2,0,0.4,0,0.6,0c0.5,0,1-0.1,1.4-0.3c0.3-0.2,0.5-0.6,0.5-1c0-0.2,0-0.4-0.2-0.6c-0.1-0.2-0.3-0.3-0.4-0.5
				c-0.2-0.2-0.4-0.3-0.6-0.4l-0.8-0.4c-0.3-0.1-0.6-0.3-0.8-0.5c-0.2-0.1-0.5-0.3-0.7-0.5c-0.2-0.2-0.4-0.4-0.5-0.6
				c-0.1-0.3-0.2-0.6-0.2-0.8c0-0.4,0.1-0.7,0.3-1c0.2-0.3,0.4-0.5,0.7-0.7c0.3-0.2,0.6-0.3,1-0.4c0.4-0.1,0.7-0.1,1.1-0.1
				c0.6,0,1.3,0.1,1.9,0.3v1.1c-0.6-0.4-1.3-0.6-2-0.5c-0.2,0-0.4,0-0.7,0.1c-0.2,0-0.4,0.1-0.6,0.2c-0.2,0.1-0.3,0.2-0.4,0.4
				c-0.1,0.2-0.2,0.4-0.2,0.6c0,0.2,0,0.4,0.1,0.6c0.1,0.2,0.2,0.3,0.4,0.4c0.2,0.2,0.4,0.3,0.6,0.4l0.8,0.4
				c0.3,0.1,0.6,0.3,0.9,0.5c0.3,0.2,0.5,0.4,0.7,0.6c0.2,0.2,0.4,0.4,0.5,0.7c0.1,0.3,0.2,0.6,0.2,0.9c0,0.4-0.1,0.7-0.3,1.1
				c-0.2,0.3-0.4,0.5-0.7,0.7c-0.3,0.2-0.6,0.3-1,0.4c-0.4,0.1-0.8,0.1-1.2,0.1c-0.2,0-0.3,0-0.5,0l-0.6-0.1l-0.6-0.2
				C35,148.7,34.9,148.6,34.7,148.5z"/>
			<path class="st20" d="M46.4,148.8h-1v-1l0,0c-0.3,0.7-1.1,1.2-1.9,1.1c-1.5,0-2.2-0.9-2.2-2.6v-3.7h1v3.5c0,1.3,0.5,2,1.5,2
				c0.5,0,0.9-0.2,1.2-0.5c0.3-0.4,0.5-0.9,0.5-1.4v-3.6h1L46.4,148.8z"/>
			<path class="st20" d="M49.3,148L49.3,148v0.9h-1v-9.1h1v4.1l0,0c0.4-0.8,1.3-1.3,2.1-1.2c0.7,0,1.4,0.3,1.9,0.8
				c0.5,0.6,0.7,1.4,0.7,2.2c0,0.9-0.2,1.8-0.8,2.5c-0.5,0.6-1.3,1-2.1,0.9C50.4,149.1,49.7,148.7,49.3,148z M49.3,145.5v0.9
				c0,0.5,0.2,1,0.5,1.3c0.7,0.7,1.8,0.7,2.5,0c0.1-0.1,0.1-0.1,0.2-0.2c0.4-0.6,0.6-1.2,0.5-1.9c0-0.6-0.1-1.2-0.5-1.6
				c-0.3-0.4-0.8-0.6-1.3-0.6c-0.5,0-1,0.2-1.4,0.6C49.5,144.4,49.3,144.9,49.3,145.5L49.3,145.5z"/>
			<path class="st20" d="M60.6,148.8h-1v-3.5c0-1.3-0.5-2-1.4-2c-0.5,0-0.9,0.2-1.2,0.6c-0.3,0.4-0.5,0.9-0.5,1.4v3.5h-1v-6.2h1v1
				l0,0c0.4-0.7,1.2-1.2,2-1.2c0.6,0,1.2,0.2,1.6,0.7c0.4,0.6,0.6,1.2,0.5,1.9L60.6,148.8z"/>
			<path class="st20" d="M67.4,146h-4.4c0,0.6,0.2,1.1,0.5,1.6c0.4,0.4,0.9,0.6,1.5,0.6c0.7,0,1.4-0.2,1.9-0.7v0.9
				c-0.6,0.4-1.4,0.6-2.2,0.6c-0.8,0-1.5-0.3-2.1-0.9c-0.5-0.7-0.8-1.5-0.8-2.4c0-0.9,0.3-1.7,0.8-2.4c0.5-0.6,1.2-0.9,2-0.9
				c0.7,0,1.4,0.2,1.9,0.8c0.5,0.6,0.7,1.4,0.7,2.2L67.4,146z M66.4,145.2c0-0.5-0.1-1-0.4-1.3c-0.3-0.3-0.7-0.5-1.1-0.5
				c-0.4,0-0.9,0.2-1.2,0.5c-0.3,0.4-0.5,0.8-0.6,1.3H66.4z"/>
			<path class="st20" d="M71.8,148.8c-0.3,0.1-0.6,0.2-0.9,0.2c-1.1,0-1.6-0.6-1.6-1.8v-3.7h-1.1v-0.8h1.1v-1.5l1-0.3v1.8h1.6v0.8
				h-1.6v3.5c0,0.3,0,0.6,0.2,0.9c0.2,0.2,0.4,0.3,0.7,0.3c0.2,0,0.5-0.1,0.7-0.2V148.8z"/>
			<path class="st20" d="M79.9,148.8h-1v-7.5c-0.1,0.1-0.2,0.2-0.3,0.3c-0.2,0.1-0.3,0.2-0.5,0.3c-0.2,0.1-0.4,0.2-0.6,0.3
				c-0.2,0.1-0.4,0.1-0.6,0.2v-1c0.2-0.1,0.5-0.1,0.7-0.2c0.2-0.1,0.5-0.2,0.7-0.4c0.2-0.1,0.4-0.3,0.7-0.4s0.4-0.3,0.6-0.4h0.4
				L79.9,148.8z"/>
		</g>
		<g>
			<path class="st20" d="M105.1,148.5v-1.2c0.2,0.1,0.3,0.2,0.5,0.3c0.2,0.1,0.4,0.2,0.6,0.3l0.6,0.1c0.2,0,0.4,0,0.6,0
				c0.5,0,1-0.1,1.4-0.3c0.5-0.4,0.6-1.1,0.3-1.6c-0.1-0.2-0.3-0.4-0.4-0.5c-0.2-0.2-0.4-0.3-0.6-0.4l-0.8-0.4
				c-0.3-0.1-0.6-0.3-0.8-0.5c-0.3-0.1-0.5-0.3-0.7-0.5c-0.2-0.2-0.3-0.4-0.4-0.6c-0.3-0.6-0.2-1.3,0.1-1.9c0.2-0.3,0.4-0.5,0.7-0.7
				c0.3-0.2,0.6-0.3,1-0.4c0.4-0.1,0.7-0.1,1.1-0.1c0.6,0,1.3,0.1,1.9,0.3v1.1c-0.6-0.4-1.3-0.6-2-0.5c-0.2,0-0.4,0-0.7,0.1
				c-0.2,0-0.4,0.1-0.6,0.2c-0.2,0.1-0.3,0.2-0.4,0.4c-0.1,0.2-0.2,0.4-0.2,0.6c0,0.2,0,0.4,0.1,0.6c0.1,0.2,0.2,0.3,0.4,0.4
				c0.2,0.2,0.4,0.3,0.6,0.4l0.8,0.4c0.3,0.1,0.6,0.3,0.9,0.5c0.3,0.2,0.5,0.3,0.7,0.6c0.2,0.2,0.4,0.4,0.5,0.7
				c0.1,0.3,0.2,0.6,0.2,0.9c0,0.4-0.1,0.7-0.3,1.1c-0.2,0.3-0.4,0.5-0.7,0.7c-0.3,0.2-0.6,0.3-1,0.4c-0.4,0.1-0.8,0.1-1.2,0.1
				c-0.2,0-0.3,0-0.5,0l-0.6-0.1l-0.6-0.2C105.4,148.6,105.2,148.6,105.1,148.5z"/>
			<path class="st20" d="M116.8,148.8h-1v-1l0,0c-0.4,0.7-1.1,1.2-1.9,1.1c-1.5,0-2.2-0.9-2.2-2.6v-3.7h1v3.5c0,1.3,0.5,2,1.5,2
				c0.5,0,0.9-0.2,1.2-0.5c0.3-0.4,0.5-0.9,0.5-1.4v-3.6h1L116.8,148.8z"/>
			<path class="st20" d="M119.7,148L119.7,148v0.9h-1v-9.1h1v4.1l0,0c0.4-0.8,1.3-1.3,2.1-1.2c0.7,0,1.4,0.3,1.9,0.8
				c0.5,0.6,0.7,1.4,0.7,2.2c0,0.9-0.2,1.8-0.8,2.5c-0.5,0.6-1.3,1-2.1,0.9C120.8,149.1,120,148.7,119.7,148z M119.7,145.5v0.9
				c0,0.5,0.2,0.9,0.5,1.3c0.3,0.3,0.8,0.5,1.3,0.5c0.6,0,1.1-0.2,1.4-0.7c0.4-0.6,0.6-1.2,0.5-1.9c0-0.6-0.1-1.2-0.5-1.6
				c-0.3-0.4-0.8-0.6-1.3-0.6c-0.5,0-1,0.2-1.4,0.6C119.9,144.4,119.7,144.9,119.7,145.5L119.7,145.5z"/>
			<path class="st20" d="M131,148.8h-1v-3.5c0-1.3-0.5-2-1.4-2c-0.5,0-0.9,0.2-1.2,0.6c-0.3,0.4-0.5,0.9-0.5,1.4v3.5h-1v-6.2h1v1
				l0,0c0.4-0.7,1.2-1.2,2-1.2c0.6,0,1.2,0.2,1.6,0.7c0.4,0.5,0.6,1.2,0.5,1.9L131,148.8z"/>
			<path class="st20" d="M137.8,146h-4.4c0,0.6,0.2,1.1,0.6,1.6c0.4,0.4,0.9,0.6,1.5,0.6c0.7,0,1.4-0.2,1.9-0.7v0.9
				c-0.6,0.4-1.4,0.6-2.1,0.6c-0.8,0-1.5-0.3-2.1-0.9c-0.5-0.7-0.8-1.5-0.8-2.4c0-0.9,0.3-1.7,0.8-2.4c0.5-0.6,1.2-0.9,2-0.9
				c0.7,0,1.4,0.3,1.9,0.8c0.5,0.6,0.7,1.4,0.7,2.2L137.8,146z M136.8,145.2c0-0.5-0.1-1-0.4-1.3c-0.3-0.3-0.7-0.5-1.1-0.5
				c-0.4,0-0.9,0.2-1.2,0.5c-0.3,0.4-0.6,0.8-0.6,1.3H136.8z"/>
			<path class="st20" d="M142.2,148.8c-0.3,0.1-0.6,0.2-0.9,0.2c-1.1,0-1.6-0.6-1.6-1.8v-3.7h-1.1v-0.8h1.1v-1.5l1-0.3v1.8h1.6v0.8
				h-1.6v3.5c0,0.3,0,0.6,0.2,0.9c0.2,0.2,0.4,0.3,0.7,0.3c0.2,0,0.5-0.1,0.6-0.2L142.2,148.8z"/>
			<path class="st20" d="M150.6,142.4c0-0.2,0-0.5-0.1-0.7c-0.1-0.2-0.2-0.4-0.3-0.5c-0.1-0.1-0.3-0.2-0.5-0.3
				c-0.2-0.1-0.4-0.1-0.6-0.1c-0.2,0-0.4,0-0.6,0.1c-0.2,0.1-0.4,0.1-0.5,0.2c-0.2,0.1-0.3,0.2-0.5,0.3c-0.2,0.1-0.3,0.3-0.5,0.4
				v-1.1c0.3-0.3,0.6-0.5,0.9-0.6c0.4-0.1,0.8-0.2,1.3-0.2c0.3,0,0.7,0,1,0.1c0.3,0.1,0.6,0.2,0.8,0.4c0.2,0.2,0.4,0.5,0.5,0.7
				c0.1,0.3,0.2,0.7,0.2,1c0,0.3,0,0.6-0.1,0.9c-0.1,0.3-0.2,0.5-0.4,0.8c-0.2,0.3-0.4,0.5-0.6,0.7c-0.3,0.2-0.6,0.5-0.9,0.7
				c-0.4,0.3-0.7,0.5-1,0.7c-0.2,0.2-0.4,0.4-0.6,0.6c-0.1,0.2-0.3,0.3-0.3,0.5c-0.1,0.2-0.1,0.4-0.1,0.6h4.3v0.9h-5.4v-0.4
				c0-0.3,0-0.7,0.1-1c0.1-0.3,0.2-0.6,0.4-0.8c0.2-0.3,0.5-0.5,0.7-0.8c0.3-0.3,0.7-0.5,1.1-0.9c0.3-0.2,0.5-0.4,0.8-0.6
				c0.2-0.2,0.4-0.4,0.5-0.6c0.1-0.2,0.2-0.4,0.3-0.6C150.5,142.9,150.6,142.7,150.6,142.4z"/>
		</g>
		<g>
			<path class="st20" d="M2.1,7v3.2h-1V1.8h2.3C4.2,1.7,4.9,2,5.5,2.5C6,2.9,6.3,3.6,6.2,4.3c0,0.8-0.3,1.5-0.8,2
				C4.8,6.8,4,7.1,3.2,7H2.1z M2.1,2.7v3.5h1c0.6,0,1.1-0.1,1.5-0.5C5,5.3,5.2,4.8,5.2,4.3c0-1.1-0.7-1.7-2-1.7L2.1,2.7z"/>
			<path class="st20" d="M12.5,10.2h-1V9.2l0,0c-0.4,0.7-1.1,1.1-1.9,1.1c-1.4,0-2.2-0.9-2.2-2.5V4.2h1v3.4C8.5,8.9,9,9.5,10,9.5
				c0.4,0,0.9-0.2,1.1-0.5c0.3-0.4,0.5-0.9,0.4-1.3V4.2h1L12.5,10.2z"/>
			<path class="st20" d="M15.5,9.3L15.5,9.3v0.9h-1V1.3h1v3.9l0,0c0.4-0.8,1.2-1.2,2.1-1.2c0.7,0,1.4,0.3,1.8,0.8
				C19.8,5.5,20,6.2,20,7c0,0.9-0.2,1.7-0.7,2.4c-0.5,0.6-1.2,0.9-2,0.9C16.5,10.3,15.8,10,15.5,9.3z M15.5,6.9v0.8
				c0,0.5,0.1,0.9,0.5,1.2c0.7,0.7,1.8,0.7,2.4,0c0.1-0.1,0.1-0.1,0.2-0.2C18.9,8.3,19,7.7,19,7c0-0.6-0.1-1.1-0.5-1.6
				c-0.3-0.4-0.8-0.6-1.3-0.6c-0.5,0-1,0.2-1.3,0.6C15.6,5.9,15.4,6.4,15.5,6.9L15.5,6.9z"/>
			<path class="st20" d="M22.5,10.2h-1V1.3h1V10.2z"/>
			<path class="st20" d="M24.9,2.7c-0.2,0-0.3-0.1-0.4-0.2c-0.1-0.1-0.2-0.3-0.2-0.4c0-0.2,0.1-0.3,0.2-0.4c0.1-0.1,0.3-0.2,0.4-0.2
				c0.2,0,0.3,0.1,0.5,0.2c0.1,0.1,0.2,0.3,0.2,0.4c0,0.2-0.1,0.3-0.2,0.4C25.3,2.6,25.1,2.7,24.9,2.7z M25.4,10.2h-1v-6h1V10.2z"/>
			<path class="st20" d="M31.4,9.9c-0.5,0.3-1.1,0.4-1.6,0.4c-0.8,0-1.5-0.3-2.1-0.8c-0.5-0.6-0.8-1.4-0.8-2.2
				c0-0.9,0.3-1.7,0.9-2.3c0.6-0.6,1.4-0.9,2.3-0.9c0.5,0,1,0.1,1.4,0.3v1C31,5.1,30.5,4.9,30,4.9c-0.6,0-1.1,0.2-1.5,0.7
				c-0.4,0.5-0.6,1.1-0.6,1.7c0,0.6,0.2,1.2,0.5,1.7c0.4,0.4,1,0.7,1.5,0.6c0.5,0,1-0.2,1.4-0.5V9.9z"/>
			<path class="st20" d="M37.3,10.2h-1V1.8h1V10.2z"/>
			<path class="st20" d="M40.5,7v3.2h-1V1.8h2.3c0.8-0.1,1.5,0.2,2.1,0.7c0.5,0.5,0.8,1.2,0.7,1.9c0,0.8-0.3,1.5-0.8,2
				c-0.6,0.5-1.4,0.7-2.2,0.7H40.5z M40.5,2.7v3.5h1c0.6,0,1.1-0.1,1.6-0.5c0.4-0.3,0.6-0.8,0.5-1.3c0-1.1-0.7-1.7-2-1.7L40.5,2.7z"
				/>
		</g>
		<g>
			<path class="st20" d="M70.2,10.2h-1V1.8h1V10.2z"/>
			<path class="st20" d="M73.3,7v3.2h-1V1.8h2.3c0.8-0.1,1.5,0.2,2.1,0.7c0.5,0.5,0.8,1.2,0.7,1.9c0,0.8-0.3,1.5-0.8,2
				C76,6.8,75.2,7.1,74.4,7H73.3z M73.3,2.7v3.5h1c0.6,0,1.1-0.1,1.6-0.5c0.4-0.3,0.6-0.8,0.5-1.3c0-1.1-0.7-1.7-2-1.7L73.3,2.7z"/>
			<path class="st20" d="M83.3,7v3.2h-1V1.8h2.3c0.8-0.1,1.5,0.2,2.1,0.7c0.5,0.5,0.8,1.2,0.7,1.9c0,0.8-0.3,1.5-0.8,2
				C86,6.8,85.3,7.1,84.5,7H83.3z M83.3,2.7v3.5h1c0.6,0,1.1-0.1,1.6-0.5c0.4-0.3,0.6-0.8,0.5-1.3c0-1.1-0.7-1.7-2-1.7L83.3,2.7z"/>
			<path class="st20" d="M92.1,5.2C91.9,5,91.6,5,91.4,5c-0.4,0-0.8,0.2-1,0.6c-0.3,0.5-0.4,1-0.4,1.6v3H89v-6h1v1.2l0,0
				c0.1-0.4,0.3-0.7,0.6-1c0.3-0.2,0.6-0.4,0.9-0.3c0.2,0,0.4,0,0.6,0.1L92.1,5.2z"/>
			<path class="st20" d="M98,7.4h-4.3c0,0.6,0.2,1.1,0.5,1.6c0.4,0.4,0.9,0.6,1.4,0.5c0.7,0,1.3-0.2,1.9-0.7v0.9
				c-0.6,0.4-1.4,0.6-2.1,0.6c-0.8,0-1.5-0.3-2-0.8c-0.5-0.7-0.8-1.5-0.7-2.3c0-0.8,0.2-1.6,0.8-2.3c0.5-0.6,1.2-0.9,2-0.9
				c0.7,0,1.4,0.2,1.8,0.8C97.8,5.4,98,6.2,98,6.9V7.4z M97,6.6c0-0.5-0.1-0.9-0.4-1.3c-0.3-0.3-0.7-0.5-1.1-0.5
				c-0.4,0-0.9,0.2-1.2,0.5c-0.3,0.3-0.5,0.8-0.6,1.3L97,6.6z"/>
			<path class="st20" d="M102.4,2.2C102.2,2.1,102,2,101.7,2c-0.7,0-1,0.4-1,1.3v0.9h1.4V5h-1.4v5.2h-1V5h-1V4.2h1v-1
				c0-0.5,0.2-1.1,0.5-1.5c0.4-0.4,0.8-0.6,1.4-0.5c0.2,0,0.5,0,0.7,0.1L102.4,2.2z"/>
			<path class="st20" d="M103.7,2.7c-0.2,0-0.3-0.1-0.4-0.2c-0.1-0.1-0.2-0.3-0.2-0.4c0-0.2,0.1-0.3,0.2-0.4
				c0.1-0.1,0.3-0.2,0.4-0.2c0.3,0,0.6,0.3,0.6,0.6c0,0,0,0,0,0c0,0.2-0.1,0.3-0.2,0.4C104,2.6,103.8,2.7,103.7,2.7z M104.1,10.2h-1
				v-6h1V10.2z"/>
			<path class="st20" d="M110.4,4.2l-2,3l2,3h-1.1l-1.2-1.9l-0.3-0.5l0,0l-0.3,0.5l-1.2,1.9h-1.1l2.1-2.9l-2-3.1h1.1l1.2,2.1
				c0.1,0.2,0.2,0.3,0.3,0.5l0,0l1.5-2.5L110.4,4.2z"/>
		</g>
		<g>
			<path class="st20" d="M31.3,188.9l-3.2,8.7H27l-3.1-8.7H25l2.4,6.9c0.1,0.3,0.1,0.5,0.2,0.8l0,0c0-0.3,0.1-0.5,0.2-0.8l2.4-6.9
				H31.3z"/>
			<path class="st20" d="M33,189.8c-0.2,0-0.3-0.1-0.5-0.2c-0.1-0.1-0.2-0.3-0.2-0.5c0-0.2,0.1-0.3,0.2-0.5c0.1-0.1,0.3-0.2,0.5-0.2
				c0.2,0,0.3,0.1,0.5,0.2c0.1,0.1,0.2,0.3,0.2,0.5c0,0.2-0.1,0.3-0.2,0.4C33.3,189.7,33.2,189.8,33,189.8z M33.5,197.6h-1v-6.2h1
				V197.6z"/>
			<path class="st20" d="M38.6,192.4c-0.6-0.4-1.4-0.2-1.8,0.4c-0.3,0.5-0.5,1.1-0.4,1.6v3.1h-1v-6.2h1v1.3l0,0
				c0.1-0.4,0.3-0.7,0.6-1c0.3-0.2,0.6-0.4,1-0.4c0.2,0,0.4,0,0.6,0.1L38.6,192.4z"/>
			<path class="st20" d="M42.9,197.5c-0.3,0.1-0.6,0.2-0.9,0.2c-1.1,0-1.6-0.6-1.6-1.8v-3.7h-1.1v-0.8h1.1v-1.5l1-0.3v1.8h1.6v0.8
				h-1.6v3.5c0,0.3,0,0.6,0.2,0.9c0.2,0.2,0.4,0.3,0.7,0.3c0.2,0,0.5-0.1,0.7-0.2L42.9,197.5z"/>
			<path class="st20" d="M49.2,197.6h-1v-1l0,0c-0.4,0.7-1.1,1.2-1.9,1.1c-1.5,0-2.2-0.9-2.2-2.6v-3.7h1v3.5c0,1.3,0.5,2,1.5,2
				c0.5,0,0.9-0.2,1.2-0.5c0.3-0.4,0.5-0.9,0.5-1.4v-3.6h1L49.2,197.6z"/>
			<path class="st20" d="M55.5,197.6h-1v-1l0,0c-0.6,1.1-2,1.4-3.1,0.8c-0.1-0.1-0.2-0.1-0.3-0.2c-0.4-0.3-0.5-0.8-0.5-1.3
				c0-1.2,0.7-1.8,2-2l1.8-0.3c0-1-0.4-1.6-1.3-1.6c-0.7,0-1.4,0.3-2,0.8v-1c0.6-0.4,1.4-0.6,2.1-0.6c1.5,0,2.2,0.8,2.2,2.3
				L55.5,197.6z M54.5,194.4l-1.5,0.2c-0.4,0-0.7,0.2-1,0.3c-0.3,0.2-0.4,0.5-0.3,0.9c0,0.3,0.1,0.5,0.3,0.7
				c0.2,0.2,0.5,0.3,0.9,0.3c0.5,0,0.9-0.2,1.2-0.5c0.3-0.4,0.5-0.8,0.5-1.3L54.5,194.4z"/>
			<path class="st20" d="M58.3,197.6h-1v-9.1h1V197.6z"/>
			<path class="st20" d="M70.8,197.6h-1.2l-4.5-6.9c-0.1-0.2-0.2-0.4-0.3-0.5l0,0c0,0.4,0.1,0.8,0.1,1.2v6.3h-1v-8.7h1.3l4.3,6.8
				c0.1,0.2,0.2,0.4,0.3,0.6l0,0c0-0.4-0.1-0.9-0.1-1.3v-6.1h1L70.8,197.6z"/>
			<path class="st20" d="M77.9,194.7h-4.4c0,0.6,0.2,1.2,0.6,1.6c0.4,0.4,0.9,0.6,1.5,0.6c0.7,0,1.4-0.2,1.9-0.7v0.9
				c-0.6,0.4-1.4,0.6-2.2,0.6c-0.8,0-1.5-0.3-2.1-0.9c-1-1.4-1-3.3,0.1-4.7c0.5-0.6,1.2-0.9,2-0.9c0.7,0,1.4,0.2,1.9,0.8
				c0.5,0.6,0.7,1.4,0.7,2.2L77.9,194.7z M76.9,193.9c0-0.5-0.1-1-0.4-1.3c-0.3-0.3-0.7-0.5-1.1-0.5c-0.5,0-0.9,0.2-1.2,0.5
				c-0.3,0.4-0.6,0.8-0.6,1.3H76.9z"/>
			<path class="st20" d="M82.2,197.5c-0.3,0.1-0.6,0.2-0.9,0.2c-1.1,0-1.6-0.6-1.6-1.8v-3.7h-1.1v-0.8h1.1v-1.5l1-0.3v1.8h1.6v0.8
				h-1.5v3.5c0,0.3,0,0.6,0.2,0.9c0.2,0.2,0.4,0.3,0.7,0.3c0.2,0,0.5-0.1,0.6-0.2V197.5z"/>
			<path class="st20" d="M91.7,191.4l-1.8,6.2h-1l-1.3-4.4c-0.1-0.2-0.1-0.4-0.1-0.6l0,0c0,0.2-0.1,0.4-0.1,0.6l-1.4,4.4h-1
				l-1.9-6.2h1l1.3,4.6c0,0.2,0.1,0.4,0.1,0.6l0,0c0-0.2,0.1-0.4,0.1-0.6l1.4-4.6h0.9l1.3,4.6c0,0.2,0.1,0.4,0.1,0.6l0,0
				c0-0.2,0-0.4,0.1-0.6l1.3-4.7L91.7,191.4z"/>
			<path class="st20" d="M95.3,197.7c-0.8,0-1.6-0.3-2.2-0.9c-0.6-0.6-0.9-1.5-0.8-2.3c-0.1-0.9,0.3-1.8,0.9-2.4
				c0.6-0.6,1.4-0.9,2.3-0.9c0.8,0,1.6,0.3,2.2,0.9c0.5,0.7,0.8,1.5,0.8,2.4c0,0.9-0.3,1.7-0.8,2.4C97,197.4,96.1,197.7,95.3,197.7z
				 M95.4,192.1c-0.6,0-1.1,0.2-1.5,0.6c-0.4,0.5-0.6,1.1-0.6,1.8c0,0.6,0.2,1.2,0.6,1.7c0.4,0.4,0.9,0.7,1.5,0.6
				c0.6,0,1.1-0.2,1.5-0.6c0.4-0.5,0.6-1.1,0.5-1.8c0-0.6-0.1-1.3-0.5-1.8C96.5,192.3,95.9,192,95.4,192.1z"/>
			<path class="st20" d="M103.1,192.4c-0.2-0.1-0.5-0.2-0.8-0.2c-0.4,0-0.8,0.2-1.1,0.6c-0.3,0.5-0.5,1.1-0.4,1.6v3.1h-1v-6.2h1v1.3
				l0,0c0.1-0.4,0.3-0.7,0.7-1c0.3-0.2,0.6-0.4,1-0.4c0.2,0,0.4,0,0.6,0.1L103.1,192.4z"/>
			<path class="st20" d="M109.4,197.6H108l-2.7-3l0,0v3h-1v-9.1h1v5.8l0,0l2.6-2.8h1.3l-2.9,3L109.4,197.6z"/>
		</g>
	</g>
</g>
</svg>
