<?xml version="1.0" encoding="utf-8"?>
<!-- Generator: Adobe Illustrator 23.0.1, SVG Export Plug-In . SVG Version: 6.00 Build 0)  -->
<svg version="1.1" xmlns="http://www.w3.org/2000/svg" xmlns:xlink="http://www.w3.org/1999/xlink" x="0px" y="0px"
	 viewBox="0 0 475 150.6" style="enable-background:new 0 0 475 150.6;" xml:space="preserve">
<style type="text/css">
	.st0{fill:#505050;}
	.st1{fill:#FFFFFF;}
	.st2{display:none;}
	.st3{display:inline;}
	.st4{fill:#EBEBEB;}
	.st5{fill:#A4C639;}
	.st6{fill:#0072C6;}
	.st7{fill:#D2D2D2;}
	.st8{fill:none;stroke:#000000;stroke-miterlimit:10;}
	.st9{fill:#EBEBEB;stroke:#000000;stroke-width:0.75;stroke-miterlimit:10;}
	.st10{fill:#1E1E1E;}
	.st11{fill:none;}
	.st12{stroke:#000000;stroke-width:5.000000e-02;stroke-miterlimit:10;}
	.st13{fill:#1E1E1E;stroke:#1E1E1E;stroke-width:6.000000e-02;stroke-miterlimit:10;}
	.st14{fill:#FFFFFF;stroke:#FFFFFF;stroke-width:5.000000e-02;stroke-miterlimit:10;}
	.st15{fill:#0072C6;stroke:#0072C6;stroke-width:5.000000e-02;stroke-miterlimit:10;}
</style>
<symbol  id="New_Symbol_41" viewBox="-10 -10 20 20">
	<circle class="st0" cx="0" cy="0" r="10"/>
	<path class="st1" d="M1.2-4.2v8.6h-1.4v-6.9C-0.4-2.3-0.7-2.1-1-2c-0.3,0.1-0.7,0.2-1,0.3v-1.2l0.6-0.2l0.6-0.3l0.6-0.3
		C0.1-3.9,0.4-4,0.6-4.2H1.2z"/>
</symbol>
<symbol  id="New_Symbol_42" viewBox="-10 -10 20 20">
	<circle class="st0" cx="0" cy="0" r="10"/>
	<path class="st1" d="M2.5,4.4h-5.3V3.8c0-0.3,0-0.5,0.1-0.8c0.1-0.2,0.2-0.4,0.3-0.7c0.1-0.2,0.3-0.4,0.4-0.6
		c0.2-0.2,0.4-0.4,0.5-0.5l0.6-0.5c0.2-0.1,0.4-0.3,0.6-0.5S0.1,0,0.3-0.2c0.1-0.1,0.3-0.3,0.4-0.4C0.8-0.8,0.9-1,0.9-1.1
		C1-1.3,1-1.5,1-1.7c0-0.2,0-0.4-0.1-0.6C0.8-2.4,0.7-2.6,0.6-2.7C0.5-2.8,0.3-2.9,0.2-2.9C0-3-0.2-3-0.4-3c-0.4,0-0.7,0.1-1.1,0.2
		c-0.4,0.2-0.7,0.4-1,0.7v-1.3c0.2-0.1,0.3-0.2,0.5-0.3c0.2-0.1,0.4-0.2,0.6-0.2C-1.2-4-1-4-0.8-4.1c0.2,0,0.4,0,0.7,0
		c0.3,0,0.7,0,1,0.1c0.3,0.1,0.6,0.2,0.8,0.4C1.9-3.3,2.1-3,2.2-2.8c0.1,0.3,0.2,0.7,0.2,1c0,0.3,0,0.6-0.1,0.9
		C2.2-0.6,2-0.3,1.9-0.1C1.7,0.2,1.5,0.4,1.3,0.6C1.1,0.8,0.9,1,0.6,1.2l-0.7,0.5c-0.2,0.2-0.4,0.4-0.6,0.5C-0.8,2.4-1,2.6-1.1,2.8
		c-0.1,0.1-0.2,0.3-0.2,0.5l0,0h3.8V4.4z"/>
</symbol>
<symbol  id="New_Symbol_43" viewBox="-10 -10 20 20">
	<circle class="st0" cx="0" cy="0" r="10"/>
	<path class="st1" d="M-2.6,4.1V2.8c0.5,0.4,1.2,0.7,1.8,0.6c0.5,0,0.9-0.1,1.3-0.4c0.3-0.2,0.5-0.6,0.5-1c0-0.9-0.7-1.4-2.2-1.4
		h-0.7v-1.1h0.6c1.3,0,1.9-0.4,1.9-1.4S0.3-3-0.7-3c-0.6,0-1.1,0.2-1.6,0.6v-1.2C-1.7-4-1-4.1-0.3-4.1c0.6,0,1.3,0.2,1.8,0.6
		c0.4,0.3,0.7,0.9,0.7,1.4c0.1,1-0.7,1.9-1.7,2.1l0,0c0.5,0,1,0.3,1.4,0.6C2.3,1,2.5,1.5,2.5,2.1c0,0.7-0.3,1.4-0.9,1.8
		C1,4.4,0.2,4.6-0.6,4.6C-1.3,4.6-2,4.5-2.6,4.1z"/>
</symbol>
<symbol  id="New_Symbol_44" viewBox="-10 -10 20 20">
	<circle class="st0" cx="0" cy="0" r="10"/>
	<path class="st1" d="M2-4v5.4h1.3v1.1H2v1.9H0.6V2.6h-3.8V1.4c0.3-0.4,0.7-0.8,1-1.3c0.4-0.4,0.7-0.9,1-1.4s0.6-0.9,0.9-1.4
		S0.4-3.5,0.6-4L2-4z M0.7,1.4v-3.5c-0.4,0.7-0.8,1.4-1.3,2C-1,0.5-1.4,1-1.8,1.4L0.7,1.4z"/>
</symbol>
<g id="src" class="st2">
	<g id="Shapes" class="st3">
		<rect class="st1" width="475" height="150.6"/>
		<rect class="st4" width="105" height="150"/>
		<g>
			<rect x="17.8" y="20.6" class="st5" width="70" height="70"/>
			<path class="st1" d="M50,72.6v6.8c0,1.9-0.9,3.3-2.8,3.3l0,0c-1.9,0-2.8-1.4-2.8-3.3v-6.8h-3.5c-1.4,0-2.1-1.6-2.1-3V46.5h28
				v23.1c0,1.4-0.5,3-2.1,3h-3.5v6.8c0,1.9-0.9,3.3-2.8,3.3l0,0c-1.9,0-2.8-1.4-2.8-3.3v-6.7H50z"/>
			<path class="st1" d="M33.2,45.8L33.2,45.8c1.9,0,3.7,1.4,3.7,3.3v13.1c0,1.9-1.9,3.3-3.7,3.3l0,0c-1.9,0-3.7-1.4-3.7-3.3V49
				C29.5,47.1,31.3,45.7,33.2,45.8L33.2,45.8z"/>
			<path class="st1" d="M72.4,45.8L72.4,45.8c1.9,0,3.7,1.4,3.7,3.3v13.1c0,1.9-1.9,3.3-3.7,3.3l0,0c-1.9,0-3.7-1.4-3.7-3.3V49
				C68.7,47.1,70.5,45.7,72.4,45.8L72.4,45.8z"/>
			<path class="st1" d="M59.6,34.1l2.6-3.5c0.2-0.2,0-0.5-0.2-0.7s-0.5,0-0.7,0.2l-2.6,3.7c-1.9-0.7-3.8-1.1-5.8-1.2
				c-2,0-4,0.4-5.8,1.2l-2.8-4c-0.2-0.2-0.4-0.3-0.7-0.2c0,0.2-0.2,0.5,0,0.7l2.5,3.8c-4.2,1.9-7.2,5.8-7.2,9.6h28
				C66.8,39.9,63.8,36,59.6,34.1z M46.7,40.4c-0.9,0-1.6-0.7-1.6-1.6c0-0.9,0.7-1.6,1.6-1.6c0.9,0,1.6,0.7,1.6,1.6c0,0,0,0,0,0
				C48.4,39.7,47.7,40.4,46.7,40.4C46.8,40.4,46.8,40.4,46.7,40.4z M58.9,40.4c-0.9,0-1.6-0.7-1.6-1.6c0-0.9,0.7-1.6,1.6-1.6
				c0.9,0,1.6,0.7,1.6,1.6c0,0,0,0,0,0C60.5,39.7,59.8,40.4,58.9,40.4C58.9,40.4,58.9,40.4,58.9,40.4z"/>
		</g>
		<rect x="371" class="st6" width="104" height="90"/>
		<rect x="371" y="95" class="st7" width="104" height="55"/>
		<g>
			<line class="st8" x1="105.2" y1="14.6" x2="365.8" y2="14.6"/>
			<polygon points="364.7,18.3 371.2,14.6 364.7,10.9 			"/>
		</g>
		<g>
			<line class="st8" x1="110.6" y1="44.5" x2="371.2" y2="44.5"/>
			<polygon points="111.7,48.2 105.2,44.5 111.7,40.7 			"/>
		</g>
		<g>
			<line class="st8" x1="105.2" y1="103.9" x2="365.8" y2="103.9"/>
			<polygon points="364.7,107.6 371.2,103.9 364.7,100.2 			"/>
		</g>
		<g>
			<line class="st8" x1="110.7" y1="140.1" x2="371.2" y2="140.1"/>
			<polygon points="111.7,143.8 105.3,140.1 111.7,136.3 			"/>
		</g>
		
			<use xlink:href="#New_Symbol_44"  width="20" height="20" x="-10" y="-10" transform="matrix(1 0 0 1 170.1 139.6)" style="overflow:visible;"/>
		
			<use xlink:href="#New_Symbol_43"  width="20" height="20" x="-10" y="-10" transform="matrix(1 0 0 1 170.1 103.9)" style="overflow:visible;"/>
		
			<use xlink:href="#New_Symbol_42"  width="20" height="20" x="-10" y="-10" transform="matrix(1 0 0 1 170.1 44.48)" style="overflow:visible;"/>
		
			<use xlink:href="#New_Symbol_41"  width="20" height="20" x="-10" y="-10" transform="matrix(1 0 0 1 170.1 14.6)" style="overflow:visible;"/>
		<polygon class="st9" points="193,25.6 185.4,31 188.3,39.8 197.6,39.8 200.5,31 		"/>
	</g>
	<g id="Text" class="st3">
		<g>
			<path class="st10" d="M42.6,111.7h-1.9l-3.5-5.3c-0.2-0.2-0.3-0.5-0.4-0.7l0,0c0,0.3,0,0.8,0,1.4v4.6H35v-8.4h2l3.3,5.1
				c0.2,0.2,0.3,0.4,0.4,0.7l0,0c0-0.4,0-0.8,0-1.2v-4.7h1.8L42.6,111.7z"/>
			<path class="st10" d="M49.3,111.7h-1.8v-0.9l0,0c-0.4,0.6-1.1,1-1.8,1c-0.5,0-1-0.1-1.4-0.5c-0.3-0.4-0.5-0.8-0.5-1.3
				c0-1.2,0.7-1.8,2.1-2l1.6-0.2c0-0.7-0.4-1-1.1-1c-0.7,0-1.4,0.2-2,0.6v-1.4c0.3-0.2,0.7-0.3,1.1-0.3c0.4-0.1,0.8-0.1,1.2-0.2
				c1.2-0.2,2.4,0.7,2.6,1.9c0,0.2,0,0.4,0,0.6L49.3,111.7z M47.6,109.3v-0.4l-1.1,0.1c-0.6,0.1-0.9,0.3-0.9,0.8
				c0,0.2,0.1,0.4,0.2,0.5c0.2,0.1,0.4,0.2,0.6,0.2c0.3,0,0.6-0.1,0.8-0.4C47.5,109.9,47.6,109.6,47.6,109.3z"/>
			<path class="st10" d="M54.3,111.7c-0.4,0.2-0.8,0.2-1.2,0.2c-1.3,0-2-0.7-2-2v-2.8h-1v-1.4h1v-1.3l1.9-0.6v1.8h1.3v1.4H53v2.4
				c0,0.6,0.3,0.9,0.8,0.9c0.2,0,0.4-0.1,0.6-0.2L54.3,111.7z"/>
			<path class="st10" d="M56.4,104.8c-0.3,0-0.6-0.1-0.8-0.3c-0.2-0.2-0.3-0.4-0.3-0.7c0-0.3,0.1-0.5,0.3-0.7
				c0.2-0.2,0.5-0.3,0.8-0.3c0.3,0,0.6,0.1,0.8,0.3c0.2,0.2,0.3,0.4,0.3,0.7c0,0.3-0.1,0.5-0.3,0.7
				C56.9,104.7,56.7,104.8,56.4,104.8z M57.3,111.8h-1.9v-6h1.8L57.3,111.8z"/>
			<path class="st10" d="M64.6,105.7l-2.2,6h-2.1l-2.1-6h2l1,3.7c0.1,0.3,0.2,0.7,0.2,1.1l0,0c0-0.3,0.1-0.7,0.2-1l1.1-3.7
				L64.6,105.7z"/>
			<path class="st10" d="M70.6,109.3h-3.9c0.1,0.9,0.6,1.3,1.7,1.3c0.6,0,1.2-0.2,1.7-0.5v1.3c-0.7,0.3-1.4,0.5-2.2,0.4
				c-1.5,0.2-2.9-0.9-3.1-2.5c0-0.2,0-0.4,0-0.6c0-0.9,0.3-1.7,0.9-2.4c0.6-0.6,1.3-0.9,2.1-0.9c0.7,0,1.5,0.2,2,0.8
				c0.5,0.6,0.8,1.3,0.7,2.1L70.6,109.3z M68.9,108.1c0-0.9-0.3-1.3-1-1.3c-0.3,0-0.6,0.1-0.8,0.4c-0.2,0.3-0.4,0.6-0.4,0.9H68.9z"
				/>
			<path class="st10" d="M49.2,126.1h-2.1l-0.6-1.9h-3l-0.6,1.9h-2l3.1-8.4h2.2L49.2,126.1z M46.1,122.8l-0.9-2.8
				c-0.1-0.2-0.1-0.5-0.1-0.8l0,0c0,0.3-0.1,0.5-0.1,0.7l-0.9,2.8L46.1,122.8z"/>
			<path class="st10" d="M51.9,125.4L51.9,125.4v3.5H50v-8.8h1.9v0.9l0,0c0.7-1.1,2.2-1.4,3.3-0.6c0.2,0.1,0.3,0.2,0.5,0.4
				c0.5,0.6,0.7,1.4,0.6,2.2c0,0.9-0.2,1.7-0.8,2.4c-0.5,0.6-1.2,0.9-2,0.9C52.9,126.3,52.3,126,51.9,125.4z M51.9,123v0.5
				c0,0.4,0.1,0.7,0.3,1c0.2,0.3,0.5,0.4,0.9,0.4c0.4,0,0.8-0.2,1-0.5c0.3-0.4,0.4-0.9,0.3-1.4c0-1-0.4-1.6-1.2-1.6
				c-0.4,0-0.7,0.1-0.9,0.4C52,122.2,51.9,122.6,51.9,123z"/>
			<path class="st10" d="M59.4,125.4L59.4,125.4v3.5h-1.9v-8.8h1.8v0.9l0,0c0.7-1.1,2.2-1.4,3.3-0.6c0.2,0.1,0.3,0.2,0.5,0.4
				c0.5,0.6,0.7,1.4,0.6,2.2c0,0.9-0.2,1.7-0.7,2.4c-0.5,0.6-1.2,0.9-2,0.9C60.3,126.3,59.7,126,59.4,125.4z M59.3,123v0.5
				c0,0.4,0.1,0.7,0.3,1c0.2,0.3,0.5,0.4,0.9,0.4c0.4,0,0.8-0.2,1-0.5c0.3-0.4,0.4-0.9,0.3-1.4c0-1-0.4-1.6-1.2-1.6
				c-0.4,0-0.7,0.1-0.9,0.4C59.4,122.2,59.3,122.6,59.3,123z"/>
		</g>
		<g>
			<path class="st1" d="M406.2,33.9h-1.9v-5c0-0.5,0-1.1,0.1-1.8h0c-0.1,0.4-0.2,0.8-0.3,1.1l-2,5.7h-1.5l-2-5.7
				c-0.1-0.4-0.2-0.8-0.3-1.2l0,0c0,0.8,0.1,1.6,0.1,2.2v4.6h-1.7v-8.4h2.8l1.7,5c0.1,0.4,0.2,0.8,0.3,1.2l0,0
				c0.1-0.4,0.2-0.8,0.3-1.2l1.7-5h2.7L406.2,33.9z"/>
			<path class="st1" d="M408.8,26.9c-0.3,0-0.6-0.1-0.8-0.3c-0.2-0.2-0.3-0.4-0.3-0.7c0-0.3,0.1-0.5,0.3-0.7
				c0.2-0.2,0.5-0.3,0.8-0.3c0.3,0,0.6,0.1,0.8,0.3c0.2,0.2,0.3,0.4,0.3,0.7c0,0.3-0.1,0.5-0.3,0.7
				C409.3,26.8,409.1,26.9,408.8,26.9z M409.7,33.9h-1.9v-6h1.9V33.9z"/>
			<path class="st1" d="M415.8,33.6c-0.6,0.3-1.2,0.4-1.8,0.4c-0.8,0-1.6-0.3-2.2-0.8c-0.6-0.6-0.9-1.4-0.9-2.2
				c0-0.9,0.3-1.8,0.9-2.4c0.7-0.6,1.5-0.9,2.5-0.9c0.5,0,1.1,0.1,1.5,0.3v1.6c-0.4-0.3-0.8-0.4-1.3-0.4c-0.5,0-0.9,0.1-1.3,0.5
				c-0.3,0.3-0.5,0.8-0.5,1.3c0,0.5,0.1,0.9,0.5,1.2c0.3,0.3,0.8,0.5,1.2,0.5c0.5,0,1-0.2,1.4-0.4L415.8,33.6z"/>
			<path class="st1" d="M421,29.5c-0.2-0.1-0.5-0.2-0.8-0.2c-0.4,0-0.7,0.1-0.9,0.4c-0.2,0.3-0.4,0.8-0.3,1.2v2.9h-1.9v-6h1.9V29
				l0,0c0.2-0.7,0.8-1.2,1.6-1.2c0.2,0,0.3,0,0.5,0.1L421,29.5z"/>
			<path class="st1" d="M424.8,34c-0.9,0-1.7-0.3-2.4-0.8c-0.6-0.6-0.9-1.4-0.9-2.3c-0.1-0.9,0.3-1.7,0.9-2.3
				c0.7-0.6,1.5-0.9,2.4-0.8c0.9,0,1.7,0.3,2.3,0.8c0.6,0.6,0.9,1.4,0.9,2.2c0,0.9-0.3,1.7-0.9,2.4C426.6,33.7,425.7,34.1,424.8,34z
				 M424.8,29.1c-0.4,0-0.8,0.2-1,0.5c-0.3,0.4-0.4,0.8-0.4,1.3c0,1.1,0.5,1.7,1.4,1.7s1.3-0.6,1.3-1.8S425.8,29.1,424.8,29.1
				L424.8,29.1z"/>
			<path class="st1" d="M428.9,33.7v-1.5c0.3,0.2,0.6,0.3,0.9,0.4c0.3,0.1,0.6,0.1,0.9,0.1c0.3,0,0.5,0,0.8-0.1
				c0.2-0.1,0.3-0.2,0.3-0.4c0-0.1,0-0.2-0.1-0.3c-0.1-0.1-0.2-0.2-0.3-0.2c-0.1-0.1-0.3-0.1-0.5-0.2c-0.2,0-0.3-0.1-0.5-0.1
				c-0.2-0.1-0.4-0.2-0.6-0.3c-0.2-0.1-0.3-0.2-0.5-0.4c-0.1-0.1-0.2-0.3-0.3-0.5c-0.1-0.2-0.1-0.4-0.1-0.6c0-0.3,0.1-0.6,0.2-0.9
				c0.1-0.2,0.4-0.4,0.6-0.6c0.3-0.2,0.5-0.3,0.8-0.3c0.3-0.1,0.7-0.1,1-0.1c0.3,0,0.5,0,0.8,0.1c0.3,0,0.5,0.1,0.8,0.2v1.4
				c-0.2-0.1-0.5-0.2-0.8-0.3c-0.3-0.1-0.5-0.1-0.8-0.1c-0.1,0-0.2,0-0.4,0c-0.1,0-0.2,0.1-0.3,0.1c-0.1,0-0.1,0.1-0.2,0.2
				c0,0.1-0.1,0.1-0.1,0.2c0,0.1,0,0.2,0.1,0.3c0.1,0.1,0.2,0.1,0.3,0.2c0.1,0.1,0.2,0.1,0.4,0.1l0.4,0.1c0.2,0.1,0.5,0.2,0.7,0.3
				c0.2,0.1,0.4,0.2,0.5,0.4c0.1,0.1,0.3,0.3,0.3,0.5c0.2,0.5,0.1,1.1-0.1,1.6c-0.2,0.2-0.4,0.5-0.6,0.6c-0.3,0.2-0.6,0.3-0.9,0.3
				c-0.3,0.1-0.7,0.1-1,0.1C430.2,34,429.5,33.9,428.9,33.7z"/>
			<path class="st1" d="M437.5,34c-0.9,0-1.7-0.3-2.4-0.8c-0.6-0.6-0.9-1.4-0.9-2.3c0-0.9,0.3-1.7,0.9-2.3c0.7-0.6,1.5-0.9,2.4-0.8
				c0.9-0.1,1.7,0.3,2.3,0.8c0.6,0.6,0.9,1.4,0.9,2.2c0,0.9-0.3,1.7-0.9,2.4C439.3,33.7,438.4,34,437.5,34z M437.5,29.1
				c-0.4,0-0.8,0.2-1,0.5c-0.3,0.4-0.4,0.8-0.4,1.3c0,1.1,0.5,1.7,1.4,1.7s1.3-0.6,1.3-1.8S438.5,29.1,437.5,29.1L437.5,29.1z"/>
			<path class="st1" d="M445.9,26.4c-0.2-0.1-0.4-0.1-0.7-0.1c-0.6,0-0.9,0.3-0.9,1v0.6h1.4v1.4h-1.4v4.6h-1.8v-4.7h-1v-1.4h1v-0.8
				c0-0.6,0.2-1.2,0.7-1.6c0.5-0.4,1.1-0.7,1.8-0.6c0.3,0,0.6,0,0.9,0.1L445.9,26.4z"/>
			<path class="st1" d="M450.4,33.8c-0.4,0.2-0.8,0.2-1.2,0.2c-1.3,0-2-0.7-2-2v-2.8h-1v-1.4h1v-1.3l1.8-0.5v1.8h1.4v1.4h-1.4v2.4
				c0,0.6,0.3,0.9,0.8,0.9c0.2,0,0.4-0.1,0.6-0.2V33.8z"/>
			<path class="st1" d="M402.8,41.3c-0.3,0-0.6-0.1-0.8-0.3c-0.2-0.2-0.3-0.4-0.3-0.7c0-0.3,0.1-0.5,0.3-0.7
				c0.2-0.2,0.5-0.3,0.8-0.3c0.3,0,0.6,0.1,0.8,0.3c0.2,0.2,0.3,0.4,0.3,0.7c0,0.3-0.1,0.5-0.3,0.7
				C403.4,41.2,403.1,41.3,402.8,41.3z M403.7,48.3h-1.9v-6h1.9V48.3z"/>
			<path class="st1" d="M411.2,48.3h-1.9v-0.8l0,0c-0.4,0.6-1.1,1-1.9,1c-0.7,0-1.4-0.3-1.8-0.8c-0.5-0.6-0.7-1.4-0.7-2.2
				c-0.1-0.9,0.2-1.7,0.7-2.4c0.5-0.6,1.2-0.9,2-0.9c0.7-0.1,1.3,0.3,1.6,0.8l0,0v-3.5h1.9V48.3z M409.4,45.3v-0.5
				c0-0.4-0.1-0.7-0.3-1c-0.4-0.5-1.2-0.5-1.7-0.1c-0.1,0.1-0.1,0.1-0.2,0.2c-0.2,0.4-0.4,0.9-0.3,1.3c0,0.4,0.1,0.9,0.3,1.2
				c0.2,0.3,0.6,0.4,0.9,0.4c0.4,0,0.7-0.2,0.9-0.5C409.2,46.2,409.4,45.8,409.4,45.3L409.4,45.3z"/>
			<path class="st1" d="M418.1,45.8h-3.9c0.1,0.9,0.6,1.3,1.6,1.3c0.6,0,1.2-0.1,1.7-0.5V48c-0.7,0.3-1.4,0.5-2.2,0.4
				c-1.5,0.2-2.9-1-3-2.5c0-0.2,0-0.3,0-0.5c0-0.9,0.3-1.7,0.9-2.4c0.6-0.6,1.3-0.9,2.1-0.9c0.7,0,1.5,0.2,2,0.8
				c0.5,0.6,0.8,1.3,0.7,2.1L418.1,45.8z M416.4,44.7c0-0.9-0.3-1.3-1-1.3c-0.3,0-0.6,0.1-0.8,0.4c-0.2,0.3-0.4,0.6-0.4,0.9
				L416.4,44.7z"/>
			<path class="st1" d="M425.1,48.3h-1.9v-3.3c0-0.9-0.3-1.4-1-1.4c-0.3,0-0.6,0.1-0.8,0.4c-0.2,0.3-0.3,0.6-0.3,0.9v3.4h-1.8v-6
				h1.9v1l0,0c0.4-0.7,1.1-1.1,1.9-1.1c1.3,0,2,0.8,2,2.5L425.1,48.3z"/>
			<path class="st1" d="M430.1,48.2c-0.4,0.2-0.8,0.2-1.2,0.2c-1.3,0-2-0.7-2-2v-2.8h-1v-1.4h1V41l1.8-0.5v1.8h1.4v1.4h-1.4v2.4
				c0,0.6,0.3,0.9,0.8,0.9c0.2,0,0.4-0.1,0.6-0.2V48.2z"/>
			<path class="st1" d="M432.2,41.3c-0.3,0-0.6-0.1-0.8-0.3c-0.2-0.2-0.3-0.4-0.3-0.7c0-0.3,0.1-0.5,0.3-0.7c0.4-0.4,1.1-0.4,1.5,0
				c0.2,0.2,0.3,0.4,0.3,0.7c0,0.3-0.1,0.5-0.3,0.7C432.7,41.2,432.5,41.3,432.2,41.3z M433.1,48.3h-1.9v-6h1.9V48.3z"/>
			<path class="st1" d="M438.2,48.2c-0.4,0.2-0.8,0.2-1.2,0.2c-1.3,0-2-0.7-2-2v-2.8h-1v-1.4h1V41l1.8-0.5v1.8h1.4v1.4h-1.4v2.4
				c0,0.6,0.3,0.9,0.8,0.9c0.2,0,0.4-0.1,0.6-0.2V48.2z"/>
			<path class="st1" d="M445.2,42.3l-2.4,6.5c-0.6,1.6-1.5,2.3-2.6,2.3c-0.4,0-0.8,0-1.1-0.2v-1.5c0.2,0.1,0.5,0.2,0.8,0.2
				c0.4,0,0.9-0.2,1-0.7l0.3-0.7l-2.4-6h2l1.1,3.7c0.1,0.3,0.1,0.5,0.2,0.8l0,0c0-0.3,0.1-0.5,0.2-0.8l1.1-3.7L445.2,42.3z"/>
			<path class="st1" d="M400.9,62L400.9,62v3.5H399v-8.8h1.9v0.9l0,0c0.7-1.1,2.2-1.4,3.3-0.7c0.2,0.1,0.3,0.2,0.5,0.4
				c0.5,0.6,0.7,1.4,0.6,2.2c0,0.9-0.2,1.7-0.7,2.4c-0.5,0.6-1.2,0.9-2,0.9C401.8,62.8,401.3,62.5,400.9,62z M400.8,59.5V60
				c0,0.4,0.1,0.7,0.3,1c0.2,0.3,0.5,0.4,0.9,0.4c0.4,0,0.8-0.2,1-0.5c0.3-0.4,0.4-0.9,0.4-1.4c0-1-0.4-1.6-1.2-1.6
				c-0.4,0-0.7,0.1-0.9,0.4C401,58.7,400.8,59.1,400.8,59.5L400.8,59.5z"/>
			<path class="st1" d="M408.4,62.7h-1.9v-8.9h1.9V62.7z"/>
			<path class="st1" d="M414.9,62.7h-1.8v-0.9l0,0c-0.4,0.6-1,1-1.8,1c-0.5,0-1-0.1-1.4-0.5c-0.3-0.4-0.5-0.8-0.5-1.3
				c0-1.2,0.7-1.8,2.1-2l1.6-0.2c0-0.7-0.4-1-1.1-1c-0.7,0-1.4,0.2-2,0.6V57c0.3-0.2,0.7-0.3,1.1-0.4c0.4-0.1,0.8-0.1,1.2-0.2
				c1.2-0.2,2.4,0.7,2.6,1.9c0,0.2,0,0.4,0,0.6L414.9,62.7z M413.2,60.2v-0.4l-1.1,0.2c-0.6,0.1-0.9,0.3-0.9,0.8
				c0,0.2,0.1,0.4,0.2,0.5c0.2,0.1,0.4,0.2,0.6,0.2c0.3,0,0.6-0.1,0.9-0.4C413.1,60.9,413.2,60.6,413.2,60.2z"/>
			<path class="st1" d="M419.9,62.6c-0.4,0.2-0.8,0.2-1.2,0.2c-1.3,0-2-0.7-2-2V58h-1v-1.3h1v-1.3l1.9-0.5v1.8h1.3V58h-1.3v2.4
				c0,0.6,0.2,0.9,0.7,0.9c0.2,0,0.4-0.1,0.6-0.2L419.9,62.6z"/>
			<path class="st1" d="M425,55.2c-0.2-0.1-0.4-0.1-0.7-0.1c-0.6,0-0.9,0.3-0.9,1v0.6h1.4V58h-1.4v4.6h-1.9V58h-1v-1.3h1v-0.8
				c0-0.6,0.2-1.2,0.7-1.7c0.5-0.4,1.2-0.7,1.8-0.6c0.3,0,0.6,0,0.9,0.1V55.2z"/>
			<path class="st1" d="M428.6,62.8c-0.9,0-1.7-0.3-2.4-0.8c-1.2-1.3-1.2-3.3,0-4.6c0.7-0.6,1.5-0.9,2.4-0.8
				c0.9-0.1,1.7,0.3,2.3,0.8c0.6,0.6,0.9,1.4,0.9,2.2c0,0.9-0.3,1.7-0.9,2.4C430.3,62.5,429.5,62.8,428.6,62.8z M428.7,57.9
				c-0.4,0-0.8,0.2-1,0.5c-0.3,0.4-0.4,0.8-0.4,1.3c0,1.2,0.5,1.7,1.4,1.7s1.3-0.6,1.3-1.8S429.6,57.9,428.7,57.9L428.7,57.9z"/>
			<path class="st1" d="M437,58.3c-0.2-0.1-0.5-0.2-0.8-0.2c-0.4,0-0.7,0.1-0.9,0.4c-0.2,0.3-0.4,0.8-0.3,1.2v2.9h-1.9v-6h1.9v1.1
				l0,0c0.2-0.7,0.8-1.2,1.6-1.2c0.2,0,0.3,0,0.5,0.1L437,58.3z"/>
			<path class="st1" d="M447.4,62.7h-1.9v-3.4c0-0.9-0.3-1.3-1-1.3c-0.3,0-0.6,0.1-0.7,0.4c-0.2,0.3-0.3,0.6-0.3,1v3.4h-1.8v-3.5
				c0-0.8-0.3-1.3-0.9-1.3c-0.3,0-0.6,0.1-0.8,0.4c-0.2,0.3-0.3,0.6-0.3,1v3.3h-1.9v-6h1.9v0.9l0,0c0.2-0.3,0.5-0.6,0.8-0.8
				c0.3-0.2,0.7-0.3,1.1-0.3c0.8,0,1.5,0.4,1.7,1.1c0.4-0.7,1.2-1.2,2-1.1c1.3,0,2,0.8,2,2.4L447.4,62.7z"/>
		</g>
		<g>
			<path class="st10" d="M192.4,9.6h-1.1l-0.9-2.4h-3.6L186,9.6h-1.1l3.2-8.4h1L192.4,9.6z M190.1,6.4l-1.3-3.6
				c-0.1-0.2-0.1-0.4-0.1-0.6l0,0c0,0.2-0.1,0.4-0.1,0.6l-1.3,3.6H190.1z"/>
			<path class="st10" d="M197.4,9.3c-0.5,0.3-1.1,0.4-1.6,0.4c-0.8,0-1.5-0.3-2.1-0.8c-0.5-0.6-0.8-1.4-0.8-2.2
				c0-0.9,0.3-1.7,0.9-2.4c0.6-0.6,1.4-0.9,2.3-0.9c0.5,0,1,0.1,1.4,0.3v1c-0.4-0.3-0.9-0.5-1.5-0.5c-0.6,0-1.1,0.2-1.5,0.7
				c-0.4,0.5-0.6,1.1-0.6,1.7c0,0.6,0.2,1.2,0.6,1.7c0.4,0.4,0.9,0.6,1.5,0.6c0.5,0,1.1-0.2,1.5-0.5L197.4,9.3z"/>
			<path class="st10" d="M203.9,12.4h-1V8.6l0,0c-0.4,0.8-1.2,1.2-2.1,1.2c-0.7,0-1.4-0.3-1.8-0.8c-0.5-0.6-0.7-1.4-0.7-2.2
				c0-0.9,0.2-1.7,0.8-2.4c0.5-0.6,1.2-0.9,2-0.9c0.7,0,1.4,0.3,1.8,1l0,0V3.6h1L203.9,12.4z M203,6.9V6c0-0.5-0.2-0.9-0.5-1.3
				c-0.3-0.3-0.8-0.5-1.2-0.5c-0.5,0-1,0.2-1.4,0.6c-0.4,0.5-0.5,1.2-0.5,1.8c0,0.6,0.1,1.2,0.5,1.6c0.3,0.4,0.8,0.6,1.3,0.6
				c0.5,0,1-0.2,1.4-0.6C202.8,7.9,203,7.4,203,6.9z"/>
			<path class="st10" d="M210.6,9.6h-1v-1l0,0c-0.4,0.7-1.1,1.1-1.9,1.1c-1.4,0-2.1-0.9-2.1-2.6V3.6h0.9V7c0,1.3,0.5,1.9,1.5,1.9
				c0.4,0,0.9-0.2,1.1-0.5c0.3-0.4,0.5-0.9,0.5-1.4V3.6h1L210.6,9.6z"/>
			<path class="st10" d="M212.9,2.1c-0.3,0-0.6-0.2-0.6-0.6c0,0,0,0,0,0c0-0.2,0.1-0.3,0.2-0.4c0.1-0.1,0.3-0.2,0.4-0.2
				c0.2,0,0.3,0.1,0.4,0.2c0.1,0.1,0.2,0.3,0.2,0.5c0,0.2-0.1,0.3-0.2,0.4C213.3,2,213.1,2.1,212.9,2.1z M213.4,9.6h-1v-6h1V9.6z"/>
			<path class="st10" d="M218.4,4.6c-0.2-0.1-0.5-0.2-0.7-0.2c-0.4,0-0.8,0.2-1,0.6c-0.3,0.5-0.4,1-0.4,1.6v3.1h-1v-6h1v1.2l0,0
				c0.1-0.4,0.3-0.7,0.6-1c0.3-0.2,0.6-0.4,0.9-0.4c0.2,0,0.4,0,0.6,0.1L218.4,4.6z"/>
			<path class="st10" d="M224.3,6.8H220c0,0.6,0.2,1.1,0.5,1.5c0.4,0.4,0.9,0.6,1.4,0.6c0.7,0,1.3-0.2,1.9-0.7v0.9
				c-0.6,0.4-1.3,0.6-2.1,0.6c-0.8,0-1.5-0.3-2-0.8c-0.5-0.7-0.8-1.5-0.7-2.3c0-0.8,0.2-1.6,0.8-2.3c0.5-0.6,1.2-0.9,2-0.9
				c0.7,0,1.4,0.2,1.8,0.8c0.5,0.6,0.7,1.4,0.6,2.1L224.3,6.8z M223.3,6c0-0.5-0.1-0.9-0.4-1.3c-0.3-0.3-0.7-0.5-1.1-0.5
				c-0.4,0-0.8,0.2-1.1,0.5c-0.3,0.3-0.5,0.8-0.6,1.3L223.3,6z"/>
			<path class="st10" d="M231.8,9.5c-0.3,0.1-0.6,0.2-0.9,0.2c-1.1,0-1.6-0.6-1.6-1.8V4.4h-1V3.6h1V2.1l1-0.3v1.8h1.5v0.8h-1.5v3.4
				c0,0.3,0,0.6,0.2,0.9c0.2,0.2,0.4,0.3,0.7,0.3c0.2,0,0.4-0.1,0.6-0.2L231.8,9.5z"/>
			<path class="st10" d="M235.4,9.7c-0.8,0-1.6-0.3-2.1-0.8c-0.5-0.6-0.8-1.4-0.8-2.2c-0.1-0.9,0.2-1.7,0.8-2.4
				c0.6-0.6,1.4-0.9,2.2-0.8c0.8,0,1.6,0.3,2.1,0.8c0.5,0.6,0.8,1.5,0.8,2.3c0,0.8-0.2,1.7-0.8,2.3C237,9.5,236.2,9.8,235.4,9.7z
				 M235.5,4.3c-0.6,0-1.1,0.2-1.5,0.6c-0.4,0.5-0.6,1.1-0.5,1.7c0,0.6,0.2,1.2,0.5,1.7c0.4,0.4,0.9,0.6,1.5,0.6
				c0.5,0,1.1-0.2,1.4-0.6c0.4-0.5,0.5-1.1,0.5-1.7c0-0.6-0.1-1.2-0.5-1.7C236.5,4.5,236,4.2,235.5,4.3z"/>
			<path class="st10" d="M244.9,9.6h-1.4l-2.6-2.9l0,0v2.9h-1V0.7h1v5.6l0,0l2.5-2.8h1.3l-2.8,2.9L244.9,9.6z"/>
			<path class="st10" d="M250.4,6.8h-4.2c0,0.6,0.2,1.1,0.5,1.5c0.4,0.4,0.9,0.6,1.4,0.6c0.7,0,1.4-0.2,1.9-0.7v0.9
				c-0.6,0.4-1.3,0.6-2.1,0.6c-0.8,0-1.5-0.3-2-0.8c-0.5-0.7-0.8-1.5-0.7-2.3c0-0.8,0.3-1.7,0.8-2.3c0.5-0.6,1.2-0.9,2-0.9
				c0.7,0,1.4,0.2,1.8,0.8c0.5,0.6,0.7,1.4,0.6,2.1L250.4,6.8z M249.4,6c0-0.5-0.1-0.9-0.4-1.3c-0.3-0.3-0.7-0.5-1.1-0.5
				c-0.4,0-0.8,0.2-1.1,0.5c-0.3,0.3-0.5,0.8-0.6,1.3L249.4,6z"/>
			<path class="st10" d="M256.8,9.6h-1V6.2c0-1.3-0.5-1.9-1.4-1.9c-0.5,0-0.9,0.2-1.2,0.5c-0.3,0.4-0.5,0.9-0.5,1.4v3.4h-1v-6h1v1
				l0,0c0.4-0.7,1.2-1.2,2-1.1c0.6,0,1.1,0.2,1.5,0.6c0.4,0.5,0.6,1.2,0.5,1.8L256.8,9.6z"/>
		</g>
		<g>
			<path class="st10" d="M211.6,37.3h-1.1l-0.9-2.3H206l-0.8,2.4h-1.1l3.2-8.4h1L211.6,37.3z M209.3,34.1l-1.3-3.6
				c-0.1-0.2-0.1-0.4-0.1-0.6l0,0c0,0.2-0.1,0.4-0.1,0.6l-1.3,3.6H209.3z"/>
			<path class="st10" d="M216.6,37.1c-0.5,0.3-1.1,0.4-1.6,0.4c-0.8,0-1.5-0.3-2.1-0.8c-0.5-0.6-0.8-1.4-0.8-2.2
				c0-0.9,0.3-1.7,0.9-2.4c0.6-0.6,1.4-0.9,2.3-0.9c0.5,0,1,0.1,1.4,0.3v1c-0.4-0.3-0.9-0.5-1.4-0.5c-0.6,0-1.1,0.2-1.5,0.7
				c-0.4,0.5-0.6,1.1-0.6,1.7c0,0.6,0.2,1.2,0.6,1.7c0.4,0.4,0.9,0.6,1.5,0.6c0.5,0,1.1-0.2,1.5-0.5L216.6,37.1z"/>
			<path class="st10" d="M222.1,37.1c-0.5,0.3-1.1,0.4-1.6,0.4c-0.8,0-1.5-0.3-2.1-0.8c-0.5-0.6-0.8-1.4-0.8-2.2
				c0-0.9,0.3-1.7,0.9-2.4c0.6-0.6,1.4-0.9,2.3-0.9c0.5,0,1,0.1,1.4,0.3v1c-0.4-0.3-0.9-0.5-1.4-0.5c-0.6,0-1.1,0.2-1.5,0.7
				c-0.4,0.5-0.6,1.1-0.6,1.7c0,0.6,0.2,1.2,0.6,1.7c0.4,0.4,0.9,0.6,1.5,0.6c0.5,0,1.1-0.2,1.5-0.5L222.1,37.1z"/>
			<path class="st10" d="M228.2,34.6H224c0,0.6,0.2,1.1,0.5,1.5c0.4,0.4,0.9,0.6,1.4,0.5c0.7,0,1.3-0.2,1.8-0.7v0.9
				c-0.6,0.4-1.3,0.6-2.1,0.6c-0.8,0-1.5-0.3-2-0.8c-0.5-0.7-0.8-1.5-0.7-2.3c0-0.8,0.3-1.7,0.8-2.3c0.5-0.6,1.2-0.9,2-0.9
				c0.7,0,1.4,0.2,1.8,0.8c0.5,0.6,0.7,1.4,0.6,2.1L228.2,34.6z M227.2,33.8c0-0.5-0.1-0.9-0.4-1.3c-0.3-0.3-0.7-0.5-1.1-0.5
				c-0.4,0-0.9,0.2-1.1,0.5c-0.3,0.3-0.5,0.8-0.6,1.3H227.2z"/>
			<path class="st10" d="M229.3,37.1v-1c0.5,0.4,1.1,0.6,1.7,0.6c0.8,0,1.3-0.3,1.3-0.8c0-0.1,0-0.3-0.1-0.4
				c-0.1-0.1-0.2-0.2-0.3-0.3c-0.1-0.1-0.3-0.2-0.4-0.2l-0.5-0.2l-0.7-0.3c-0.2-0.1-0.4-0.2-0.5-0.4c-0.1-0.1-0.2-0.3-0.3-0.5
				c-0.1-0.2-0.1-0.4-0.1-0.6c0-0.3,0.1-0.5,0.2-0.8c0.1-0.2,0.3-0.4,0.5-0.5c0.2-0.2,0.5-0.3,0.7-0.3c0.3-0.1,0.6-0.1,0.9-0.1
				c0.5,0,1,0.1,1.4,0.3v1c-0.5-0.3-1-0.4-1.5-0.4c-0.2,0-0.3,0-0.5,0.1c-0.1,0-0.3,0.1-0.4,0.2c-0.1,0.1-0.2,0.2-0.2,0.3
				c-0.1,0.1-0.1,0.2-0.1,0.3c0,0.1,0,0.3,0.1,0.4c0.1,0.1,0.1,0.2,0.3,0.3c0.1,0.1,0.3,0.2,0.4,0.2l0.5,0.2
				c0.3,0.1,0.5,0.2,0.7,0.3c0.2,0.1,0.4,0.2,0.5,0.4c0.3,0.3,0.5,0.7,0.5,1.1c0,0.3-0.1,0.5-0.2,0.8c-0.1,0.2-0.3,0.4-0.5,0.5
				c-0.2,0.1-0.5,0.3-0.8,0.3c-0.3,0.1-0.6,0.1-0.9,0.1C230.3,37.5,229.8,37.4,229.3,37.1z"/>
			<path class="st10" d="M234.4,37.1v-1c0.5,0.4,1.1,0.6,1.7,0.6c0.8,0,1.3-0.3,1.3-0.8c0-0.1,0-0.3-0.1-0.4
				c-0.1-0.1-0.2-0.2-0.3-0.3c-0.1-0.1-0.3-0.2-0.4-0.2l-0.5-0.2l-0.7-0.3c-0.2-0.1-0.4-0.2-0.5-0.4c-0.1-0.1-0.2-0.3-0.3-0.5
				c-0.1-0.2-0.1-0.4-0.1-0.6c0-0.3,0.1-0.5,0.2-0.8c0.1-0.2,0.3-0.4,0.5-0.5c0.2-0.2,0.5-0.3,0.7-0.3c0.3-0.1,0.6-0.1,0.9-0.1
				c0.5,0,1,0.1,1.4,0.3v1c-0.5-0.3-1-0.4-1.5-0.4c-0.2,0-0.3,0-0.5,0.1c-0.1,0-0.3,0.1-0.4,0.2c-0.1,0.1-0.2,0.2-0.2,0.3
				c-0.1,0.1-0.1,0.2-0.1,0.3c0,0.1,0,0.3,0.1,0.4c0.1,0.1,0.1,0.2,0.3,0.3c0.1,0.1,0.3,0.2,0.4,0.2l0.5,0.2
				c0.3,0.1,0.5,0.2,0.7,0.3c0.2,0.1,0.4,0.2,0.5,0.4c0.1,0.1,0.3,0.3,0.3,0.5c0.1,0.2,0.1,0.4,0.1,0.6c0,0.3-0.1,0.5-0.2,0.8
				c-0.1,0.2-0.3,0.4-0.5,0.5c-0.2,0.1-0.5,0.3-0.8,0.3c-0.3,0.1-0.6,0.1-0.9,0.1C235.4,37.5,234.9,37.4,234.4,37.1z"/>
			<path class="st10" d="M245.9,37.3c-0.3,0.1-0.6,0.2-0.9,0.2c-1,0-1.6-0.6-1.6-1.8v-3.5h-1v-0.8h1v-1.5l1-0.3v1.8h1.5v0.8h-1.5
				v3.4c0,0.3,0,0.6,0.2,0.9c0.2,0.2,0.4,0.3,0.7,0.3c0.2,0,0.4-0.1,0.6-0.2L245.9,37.3z"/>
			<path class="st10" d="M249.6,37.5c-0.8,0-1.6-0.3-2.1-0.8c-0.5-0.6-0.8-1.4-0.8-2.2c-0.1-0.9,0.2-1.7,0.8-2.4
				c0.6-0.6,1.4-0.9,2.2-0.9c0.8,0,1.5,0.3,2.1,0.8c0.5,0.6,0.8,1.5,0.8,2.3c0,0.8-0.2,1.7-0.8,2.3
				C251.2,37.2,250.4,37.5,249.6,37.5z M249.6,32c-0.6,0-1.1,0.2-1.5,0.6c-0.4,0.5-0.6,1.1-0.5,1.7c0,0.6,0.2,1.2,0.6,1.7
				c0.4,0.4,0.9,0.6,1.5,0.6c0.5,0,1.1-0.2,1.4-0.6c0.4-0.5,0.5-1.1,0.5-1.7c0-0.6-0.1-1.2-0.5-1.7C250.7,32.2,250.2,32,249.6,32
				L249.6,32z"/>
			<path class="st10" d="M259,37.3h-1.4l-2.6-2.9l0,0v2.9h-1v-8.9h1v5.6l0,0l2.5-2.7h1.3l-2.8,2.9L259,37.3z"/>
			<path class="st10" d="M264.5,34.6h-4.2c0,0.6,0.2,1.1,0.5,1.5c0.4,0.4,0.9,0.6,1.4,0.5c0.7,0,1.3-0.2,1.9-0.7v0.9
				c-0.6,0.4-1.4,0.6-2.1,0.6c-0.8,0-1.5-0.3-2-0.8c-0.5-0.6-0.8-1.5-0.7-2.3c0-0.8,0.2-1.6,0.8-2.3c0.5-0.6,1.2-0.9,2-0.9
				c0.7,0,1.4,0.2,1.8,0.8c0.5,0.6,0.7,1.4,0.6,2.1L264.5,34.6z M263.5,33.8c0-0.5-0.1-0.9-0.4-1.3c-0.3-0.3-0.7-0.5-1.1-0.5
				c-0.4,0-0.9,0.2-1.2,0.5c-0.3,0.3-0.5,0.8-0.6,1.3H263.5z"/>
			<path class="st10" d="M271,37.3h-1v-3.4c0-1.3-0.5-1.9-1.4-1.9c-0.5,0-0.9,0.2-1.2,0.5c-0.3,0.4-0.5,0.9-0.5,1.4v3.4h-1v-6h1v1
				l0,0c0.4-0.7,1.2-1.2,2-1.1c0.6,0,1.1,0.2,1.5,0.6c0.4,0.5,0.6,1.2,0.5,1.8L271,37.3z"/>
		</g>
		<g>
			<path class="st10" d="M192.2,134.6h-1v-3.8h-4.3v3.8h-1v-8.4h1v3.7h4.3v-3.7h1V134.6z"/>
			<path class="st10" d="M199.2,127h-2.4v7.5h-1V127h-2.4v-0.9h5.8V127z"/>
			<path class="st10" d="M205.8,127h-2.4v7.5h-1V127H200v-0.9h5.8V127z"/>
			<path class="st10" d="M208,131.4v3.2h-1v-8.4h2.3c0.8,0,1.5,0.2,2.1,0.7c0.5,0.5,0.8,1.2,0.7,1.8c0,0.8-0.3,1.5-0.8,2
				c-0.6,0.5-1.4,0.8-2.2,0.8L208,131.4z M208,127v3.4h1c0.6,0,1.1-0.1,1.6-0.5c0.4-0.3,0.6-0.8,0.5-1.3c0-1.1-0.7-1.7-2-1.7
				L208,127z"/>
			<path class="st10" d="M220.1,129.5c-0.2-0.1-0.5-0.2-0.7-0.2c-0.4,0-0.8,0.2-1,0.6c-0.3,0.5-0.4,1-0.4,1.6v3.1h-1v-6h1v1.2l0,0
				c0.1-0.4,0.3-0.7,0.6-1c0.3-0.2,0.6-0.4,0.9-0.4c0.2,0,0.4,0,0.6,0.1L220.1,129.5z"/>
			<path class="st10" d="M225.9,131.8h-4.2c0,0.6,0.2,1.1,0.5,1.6c0.4,0.4,0.9,0.6,1.4,0.5c0.7,0,1.3-0.2,1.9-0.7v0.9
				c-0.6,0.4-1.4,0.6-2.1,0.6c-0.8,0-1.5-0.3-2-0.8c-1-1.4-1-3.2,0.1-4.6c0.5-0.6,1.2-0.9,2-0.9c0.7,0,1.4,0.2,1.8,0.8
				c0.5,0.6,0.7,1.4,0.6,2.1L225.9,131.8z M224.9,131c0-0.5-0.1-0.9-0.4-1.3c-0.3-0.3-0.7-0.5-1.1-0.5c-0.4,0-0.9,0.2-1.2,0.5
				c-0.3,0.3-0.5,0.8-0.6,1.3H224.9z"/>
			<path class="st10" d="M227,134.3v-1c0.5,0.4,1.1,0.6,1.7,0.6c0.8,0,1.3-0.3,1.3-0.8c0-0.1,0-0.3-0.1-0.4
				c-0.1-0.1-0.2-0.2-0.3-0.3c-0.1-0.1-0.3-0.2-0.4-0.2l-0.5-0.2c-0.2-0.1-0.5-0.2-0.7-0.3c-0.2-0.1-0.4-0.2-0.5-0.4
				c-0.1-0.1-0.2-0.3-0.3-0.5c-0.1-0.2-0.1-0.4-0.1-0.6c0-0.3,0.1-0.5,0.2-0.8c0.1-0.2,0.3-0.4,0.5-0.6c0.2-0.1,0.5-0.3,0.7-0.3
				c0.3-0.1,0.6-0.1,0.9-0.1c0.5,0,1,0.1,1.4,0.3v1c-0.5-0.3-1-0.4-1.5-0.4c-0.2,0-0.3,0-0.5,0.1c-0.1,0-0.3,0.1-0.4,0.2
				c-0.1,0.1-0.2,0.2-0.2,0.3c-0.1,0.1-0.1,0.2-0.1,0.3c0,0.1,0,0.3,0.1,0.4c0.1,0.1,0.2,0.2,0.3,0.3c0.1,0.1,0.3,0.2,0.4,0.2
				l0.5,0.2c0.2,0.1,0.5,0.2,0.7,0.3c0.2,0.1,0.4,0.2,0.5,0.4c0.1,0.1,0.3,0.3,0.4,0.5c0.1,0.2,0.1,0.4,0.1,0.6
				c0,0.3-0.1,0.5-0.2,0.8c-0.1,0.2-0.3,0.4-0.5,0.5c-0.2,0.2-0.5,0.3-0.8,0.3c-0.3,0.1-0.6,0.1-0.9,0.1
				C228,134.7,227.5,134.6,227,134.3z"/>
			<path class="st10" d="M233.3,133.7L233.3,133.7v3.6h-1v-8.8h1v1.1l0,0c0.4-0.8,1.2-1.2,2.1-1.2c0.7,0,1.4,0.3,1.8,0.8
				c0.5,0.6,0.7,1.4,0.6,2.2c0,0.9-0.2,1.7-0.7,2.4c-0.5,0.6-1.2,0.9-2,0.9C234.4,134.7,233.7,134.3,233.3,133.7z M233.3,131.3v0.8
				c0,0.5,0.2,0.9,0.5,1.3c0.3,0.3,0.8,0.5,1.2,0.5c0.5,0,1.1-0.2,1.4-0.7c0.4-0.6,0.5-1.2,0.5-1.9c0-0.6-0.1-1.1-0.5-1.6
				c-0.3-0.4-0.8-0.6-1.3-0.6c-0.5,0-1,0.2-1.3,0.6C233.5,130.2,233.3,130.7,233.3,131.3L233.3,131.3z"/>
			<path class="st10" d="M241.9,134.7c-0.8,0-1.6-0.3-2.1-0.8c-0.5-0.6-0.8-1.4-0.8-2.2c0-0.9,0.2-1.7,0.8-2.4
				c0.6-0.6,1.4-0.9,2.2-0.9c0.8,0,1.5,0.3,2.1,0.8c1,1.4,1,3.3-0.1,4.6C243.5,134.4,242.7,134.7,241.9,134.7z M242,129.2
				c-0.6,0-1.1,0.2-1.5,0.6c-0.4,0.5-0.6,1.1-0.5,1.7c0,0.6,0.2,1.2,0.6,1.7c0.4,0.4,0.9,0.6,1.5,0.6c0.5,0,1.1-0.2,1.4-0.6
				c0.4-0.5,0.5-1.1,0.5-1.7c0-0.6-0.1-1.2-0.5-1.7C243.1,129.4,242.5,129.2,242,129.2L242,129.2z"/>
			<path class="st10" d="M251.4,134.6h-1v-3.4c0-1.3-0.5-1.9-1.4-1.9c-0.5,0-0.9,0.2-1.2,0.5c-0.3,0.4-0.5,0.9-0.5,1.4v3.4h-1v-6h1
				v1l0,0c0.4-0.7,1.2-1.2,2-1.1c0.6,0,1.1,0.2,1.5,0.6c0.4,0.5,0.6,1.2,0.5,1.8L251.4,134.6z"/>
			<path class="st10" d="M252.8,134.3v-1c0.5,0.4,1.1,0.6,1.7,0.6c0.8,0,1.3-0.3,1.3-0.8c0-0.1,0-0.3-0.1-0.4
				c-0.1-0.1-0.2-0.2-0.3-0.3c-0.1-0.1-0.3-0.2-0.4-0.2l-0.5-0.2c-0.2-0.1-0.5-0.2-0.7-0.3c-0.2-0.1-0.4-0.2-0.5-0.4
				c-0.1-0.1-0.2-0.3-0.3-0.5c-0.1-0.2-0.1-0.4-0.1-0.6c0-0.3,0.1-0.5,0.2-0.8c0.1-0.2,0.3-0.4,0.5-0.6c0.2-0.1,0.5-0.3,0.7-0.3
				c0.7-0.2,1.5-0.1,2.2,0.2v1c-0.5-0.3-1-0.4-1.5-0.4c-0.2,0-0.3,0-0.5,0.1c-0.1,0-0.3,0.1-0.4,0.2c-0.1,0.1-0.2,0.2-0.2,0.3
				c-0.1,0.1-0.1,0.2-0.1,0.3c0,0.1,0,0.3,0.1,0.4c0.1,0.1,0.2,0.2,0.3,0.3c0.1,0.1,0.3,0.2,0.4,0.2l0.5,0.2
				c0.2,0.1,0.5,0.2,0.7,0.3c0.2,0.1,0.4,0.2,0.5,0.4c0.1,0.1,0.3,0.3,0.3,0.5c0.1,0.2,0.1,0.4,0.1,0.6c0,0.3-0.1,0.5-0.2,0.8
				c-0.1,0.2-0.3,0.4-0.5,0.5c-0.2,0.2-0.5,0.3-0.8,0.3c-0.3,0.1-0.6,0.1-0.9,0.1C253.8,134.7,253.3,134.6,252.8,134.3z"/>
			<path class="st10" d="M263,131.8h-4.2c0,0.6,0.2,1.1,0.5,1.6c0.4,0.4,0.9,0.6,1.4,0.5c0.7,0,1.3-0.2,1.9-0.7v0.9
				c-0.6,0.4-1.4,0.6-2.1,0.6c-0.8,0-1.5-0.3-2-0.8c-1-1.4-1-3.2,0.1-4.6c0.5-0.6,1.2-0.9,2-0.9c0.7,0,1.4,0.2,1.8,0.8
				c0.5,0.6,0.7,1.4,0.6,2.1L263,131.8z M262,131c0-0.5-0.1-0.9-0.4-1.3c-0.3-0.3-0.7-0.5-1.1-0.5c-0.4,0-0.9,0.2-1.2,0.5
				c-0.3,0.3-0.5,0.8-0.6,1.3H262z"/>
		</g>
		<g>
			<path class="st6" d="M404.8,118.5h-1.9v-5c0-0.5,0-1.1,0.1-1.8h0c-0.1,0.4-0.1,0.8-0.3,1.1l-2,5.7h-1.5l-2-5.7
				c0-0.2-0.1-0.5-0.3-1.2h0c0,0.8,0.1,1.6,0.1,2.2v4.7h-1.7v-8.4h2.8l1.7,5c0.1,0.4,0.2,0.8,0.3,1.2l0,0c0.1-0.4,0.2-0.8,0.3-1.2
				l1.7-5h2.7L404.8,118.5z"/>
			<path class="st6" d="M407.4,111.6c-0.3,0-0.6-0.1-0.8-0.3c-0.2-0.2-0.3-0.4-0.3-0.7c0-0.3,0.1-0.5,0.3-0.7
				c0.2-0.2,0.5-0.3,0.8-0.3c0.3,0,0.6,0.1,0.8,0.3c0.2,0.2,0.3,0.4,0.3,0.7c0,0.3-0.1,0.5-0.3,0.7
				C407.9,111.5,407.6,111.6,407.4,111.6z M408.3,118.6h-1.9v-6h1.9V118.6z"/>
			<path class="st6" d="M414.4,118.3c-0.6,0.3-1.2,0.4-1.8,0.4c-0.8,0-1.6-0.3-2.2-0.8c-0.6-0.6-0.9-1.4-0.9-2.2
				c0-0.9,0.3-1.8,0.9-2.4c0.7-0.6,1.6-0.9,2.5-0.9c0.5,0,1.1,0.1,1.5,0.3v1.6c-0.4-0.3-0.8-0.4-1.3-0.4c-0.5,0-0.9,0.1-1.3,0.5
				c-0.6,0.7-0.6,1.8,0,2.5c0.3,0.3,0.8,0.5,1.2,0.5c0.5,0,1-0.2,1.4-0.4L414.4,118.3z"/>
			<path class="st6" d="M419.6,114.2c-0.2-0.1-0.5-0.2-0.8-0.2c-0.4,0-0.7,0.1-1,0.4c-0.2,0.4-0.4,0.8-0.3,1.2v2.9h-1.9v-6h1.9v1.1
				l0,0c0.2-0.7,0.8-1.2,1.6-1.2c0.2,0,0.3,0,0.5,0.1L419.6,114.2z"/>
			<path class="st6" d="M423.4,118.7c-0.9,0.1-1.7-0.3-2.4-0.8c-1.2-1.3-1.2-3.3,0-4.6c0.7-0.6,1.5-0.9,2.4-0.8
				c0.9-0.1,1.7,0.3,2.3,0.8c0.6,0.6,0.9,1.4,0.9,2.2c0,0.9-0.3,1.7-0.9,2.4C425.1,118.4,424.3,118.7,423.4,118.7z M423.4,113.8
				c-0.4,0-0.8,0.2-1,0.4c-0.3,0.4-0.4,0.8-0.4,1.3c0,1.2,0.5,1.7,1.4,1.7s1.3-0.6,1.3-1.8S424.3,113.8,423.4,113.8L423.4,113.8z"/>
			<path class="st6" d="M427.5,118.3v-1.5c0.3,0.2,0.6,0.3,0.9,0.4c0.3,0.1,0.6,0.1,0.9,0.1c0.3,0,0.5,0,0.8-0.1
				c0.2-0.1,0.3-0.2,0.3-0.4c0-0.1,0-0.2-0.1-0.3c-0.1-0.1-0.2-0.2-0.3-0.2l-0.4-0.2c-0.2-0.1-0.3-0.1-0.4-0.2
				c-0.2-0.1-0.4-0.2-0.6-0.3c-0.2-0.1-0.3-0.2-0.5-0.4c-0.1-0.1-0.2-0.3-0.3-0.5c-0.1-0.2-0.1-0.4-0.1-0.6c0-0.3,0.1-0.6,0.2-0.9
				c0.1-0.2,0.3-0.4,0.6-0.6c0.3-0.2,0.5-0.3,0.8-0.3c0.3-0.1,0.7-0.1,1-0.1c0.3,0,0.5,0,0.8,0.1c0.3,0,0.5,0.1,0.8,0.2v1.4
				c-0.2-0.1-0.5-0.2-0.8-0.3c-0.3-0.1-0.5-0.1-0.8-0.1c-0.1,0-0.2,0-0.3,0c-0.1,0-0.2,0.1-0.3,0.1c-0.1,0-0.1,0.1-0.2,0.2
				c0,0.1-0.1,0.1-0.1,0.2c0,0.1,0,0.2,0.1,0.3c0.1,0.1,0.2,0.2,0.3,0.2c0.1,0.1,0.2,0.1,0.4,0.2l0.4,0.1c0.2,0.1,0.5,0.2,0.7,0.3
				c0.2,0.1,0.4,0.2,0.5,0.4c0.1,0.1,0.3,0.3,0.3,0.5c0.1,0.2,0.1,0.4,0.1,0.7c0,0.3-0.1,0.6-0.2,0.9c-0.2,0.2-0.4,0.5-0.6,0.6
				c-0.3,0.2-0.6,0.3-0.9,0.3c-0.3,0.1-0.7,0.1-1,0.1C428.8,118.6,428.1,118.5,427.5,118.3z"/>
			<path class="st6" d="M436.1,118.7c-0.9,0.1-1.7-0.3-2.4-0.8c-1.2-1.3-1.2-3.3,0-4.6c0.7-0.6,1.5-0.9,2.4-0.8
				c0.9,0,1.7,0.3,2.4,0.8c0.6,0.6,0.9,1.4,0.9,2.2c0,0.9-0.3,1.7-0.9,2.4C437.8,118.4,437,118.7,436.1,118.7z M436.1,113.8
				c-0.4,0-0.8,0.2-1,0.4c-0.3,0.4-0.4,0.8-0.4,1.3c0,1.2,0.5,1.7,1.4,1.7s1.3-0.6,1.3-1.8S437,113.8,436.1,113.8L436.1,113.8z"/>
			<path class="st6" d="M444.4,111c-0.2-0.1-0.4-0.1-0.7-0.1c-0.6,0-0.9,0.3-0.9,1v0.6h1.4v1.4h-1.4v4.6H441v-4.6h-1v-1.4h1v-0.7
				c0-0.6,0.2-1.2,0.7-1.7c0.5-0.4,1.2-0.7,1.8-0.6c0.3,0,0.6,0,0.9,0.1V111z"/>
			<path class="st6" d="M449,118.4c-0.4,0.2-0.8,0.2-1.2,0.2c-1.3,0-2-0.7-2-2v-2.8h-1v-1.4h1v-1.3l1.9-0.5v1.8h1.4v1.4h-1.3v2.4
				c0,0.6,0.2,0.9,0.7,0.9c0.2,0,0.4-0.1,0.6-0.2V118.4z"/>
			<path class="st6" d="M401,132.4c-0.9,0.5-2,0.7-3,0.7c-1.2,0.1-2.3-0.3-3.2-1.1c-0.8-0.8-1.2-1.9-1.2-3.1c0-1.2,0.4-2.4,1.3-3.2
				c0.9-0.9,2.1-1.3,3.4-1.2c0.8,0,1.6,0.1,2.4,0.4v1.8c-0.7-0.4-1.6-0.6-2.4-0.6c-0.7,0-1.4,0.2-1.9,0.8c-0.5,0.5-0.8,1.3-0.7,2
				c0,0.7,0.2,1.4,0.7,2c0.5,0.5,1.1,0.7,1.8,0.7c0.4,0,0.7-0.1,1.1-0.2v-1.6h-1.7v-1.5h3.5V132.4z"/>
			<path class="st6" d="M406.5,128.6c-0.2-0.1-0.5-0.2-0.8-0.2c-0.4,0-0.7,0.1-0.9,0.4c-0.2,0.4-0.4,0.8-0.3,1.2v2.9h-1.9v-6h1.9
				v1.1l0,0c0.2-0.7,0.8-1.2,1.6-1.2c0.2,0,0.3,0,0.5,0.1L406.5,128.6z"/>
			<path class="st6" d="M412.2,132.9h-1.8v-0.9l0,0c-0.4,0.6-1.1,1-1.8,1c-0.5,0-1-0.2-1.4-0.5c-0.3-0.4-0.5-0.8-0.5-1.3
				c0-1.2,0.7-1.8,2.1-2l1.6-0.2c0-0.7-0.4-1-1.1-1c-0.7,0-1.4,0.2-2,0.6v-1.4c0.3-0.2,0.7-0.3,1-0.4c0.4-0.1,0.8-0.1,1.2-0.2
				c1.2-0.2,2.4,0.7,2.6,1.9c0,0.2,0,0.4,0,0.6L412.2,132.9z M410.5,130.5v-0.4l-1.1,0.1c-0.6,0.1-0.9,0.3-0.9,0.8
				c0,0.2,0.1,0.4,0.2,0.5c0.2,0.1,0.4,0.2,0.6,0.2c0.3,0,0.6-0.1,0.9-0.4C410.4,131.1,410.5,130.8,410.5,130.5z"/>
			<path class="st6" d="M415.6,132.2L415.6,132.2v3.5h-1.9v-8.8h1.9v0.9l0,0c0.7-1.1,2.2-1.4,3.3-0.6c0.2,0.1,0.3,0.2,0.5,0.4
				c0.5,0.6,0.7,1.4,0.6,2.2c0,0.9-0.2,1.7-0.8,2.4c-0.5,0.6-1.2,0.9-2,0.9C416.5,133.1,415.9,132.8,415.6,132.2z M415.5,129.8v0.5
				c0,0.4,0.1,0.7,0.3,1c0.2,0.3,0.5,0.4,0.9,0.4c0.4,0,0.8-0.2,1-0.5c0.3-0.4,0.4-0.9,0.4-1.4c0-1-0.4-1.6-1.2-1.6
				c-0.4,0-0.7,0.1-0.9,0.4C415.6,128.9,415.5,129.3,415.5,129.8z"/>
			<path class="st6" d="M426.9,132.9h-1.9v-3.4c0-0.9-0.3-1.3-1-1.3c-0.3,0-0.6,0.1-0.8,0.4c-0.2,0.3-0.3,0.6-0.3,0.9v3.4h-1.9V124
				h1.9v3.8l0,0c0.4-0.6,1.1-1,1.8-1c1.3,0,2,0.8,2,2.5L426.9,132.9z"/>
			<path class="st6" d="M439.3,132.9h-2.1l-0.6-1.9h-3l-0.6,1.9h-2l3.1-8.4h2.3L439.3,132.9z M436.2,129.6l-0.9-2.8
				c-0.1-0.2-0.1-0.5-0.1-0.8h0c0,0.2-0.1,0.5-0.1,0.7l-0.9,2.8H436.2z"/>
			<path class="st6" d="M442.1,130v2.9h-1.9v-8.4h3c2.1,0,3.2,0.9,3.2,2.7c0,0.8-0.3,1.5-0.9,2c-0.7,0.6-1.6,0.9-2.5,0.8H442.1z
				 M442.1,126v2.6h0.8c1,0,1.5-0.4,1.5-1.3s-0.5-1.3-1.5-1.3L442.1,126z"/>
			<path class="st6" d="M449.3,132.9h-1.9v-8.4h1.9V132.9z"/>
		</g>
		<g>
			<polygon class="st9" points="193.1,85.5 185.5,91 188.4,99.8 197.7,99.8 200.6,91 			"/>
			<g>
				<g>
					<path class="st10" d="M213.4,99h-1.1l-0.9-2.3h-3.6l-0.8,2.3H206l3.2-8.4h1L213.4,99z M211.1,95.8l-1.3-3.6
						c-0.1-0.2-0.1-0.4-0.1-0.6l0,0c0,0.2-0.1,0.4-0.1,0.6l-1.3,3.6H211.1z"/>
					<path class="st10" d="M218.5,98.7c-0.5,0.3-1.1,0.4-1.6,0.4c-0.8,0-1.5-0.3-2.1-0.8c-0.5-0.6-0.8-1.4-0.8-2.2
						c0-0.9,0.3-1.7,0.9-2.4c0.6-0.6,1.4-0.9,2.3-0.9c0.5,0,1,0.1,1.4,0.3v1c-0.4-0.3-0.9-0.5-1.4-0.5c-0.6,0-1.1,0.2-1.5,0.7
						c-0.4,0.5-0.6,1.1-0.6,1.7c0,0.6,0.2,1.2,0.6,1.7c0.4,0.4,0.9,0.6,1.5,0.6c0.5,0,1.1-0.2,1.5-0.5L218.5,98.7z"/>
					<path class="st10" d="M223.9,98.7c-0.5,0.3-1.1,0.4-1.6,0.4c-0.8,0-1.5-0.3-2.1-0.8c-0.5-0.6-0.8-1.4-0.8-2.2
						c0-0.9,0.3-1.7,0.9-2.4c0.6-0.6,1.4-0.9,2.3-0.9c0.5,0,1,0.1,1.4,0.3v1c-0.4-0.3-0.9-0.5-1.4-0.5c-0.6,0-1.1,0.2-1.5,0.7
						c-0.4,0.5-0.6,1.1-0.6,1.7c0,0.6,0.2,1.2,0.6,1.7c0.4,0.4,0.9,0.6,1.5,0.6c0.5,0,1.1-0.2,1.5-0.5V98.7z"/>
					<path class="st10" d="M230.1,96.2h-4.2c0,0.6,0.2,1.1,0.5,1.6c0.4,0.4,0.9,0.6,1.4,0.5c0.7,0,1.3-0.2,1.9-0.7v0.9
						c-0.6,0.4-1.4,0.6-2.1,0.6c-0.8,0-1.5-0.3-2-0.8c-0.5-0.7-0.8-1.5-0.7-2.3c0-0.8,0.2-1.6,0.8-2.3c0.5-0.6,1.2-0.9,2-0.9
						c0.7,0,1.4,0.2,1.8,0.8c0.5,0.6,0.7,1.4,0.6,2.1L230.1,96.2z M229.1,95.4c0-0.5-0.1-0.9-0.4-1.3c-0.3-0.3-0.7-0.5-1.1-0.5
						c-0.4,0-0.9,0.2-1.1,0.5c-0.3,0.3-0.5,0.8-0.6,1.3L229.1,95.4z"/>
					<path class="st10" d="M231.1,98.8v-1c0.5,0.4,1.1,0.6,1.7,0.6c0.9,0,1.3-0.3,1.3-0.8c0-0.1,0-0.3-0.1-0.4
						c-0.1-0.1-0.2-0.2-0.3-0.3c-0.1-0.1-0.3-0.2-0.4-0.2l-0.5-0.2c-0.2-0.1-0.5-0.2-0.7-0.3c-0.2-0.1-0.4-0.2-0.5-0.4
						c-0.1-0.1-0.2-0.3-0.3-0.5c-0.1-0.2-0.1-0.4-0.1-0.6c0-0.3,0.1-0.5,0.2-0.7c0.1-0.2,0.3-0.4,0.5-0.6c0.2-0.1,0.5-0.3,0.7-0.3
						c0.3-0.1,0.6-0.1,0.9-0.1c0.5,0,1,0.1,1.4,0.3v1c-0.5-0.3-1-0.4-1.5-0.4c-0.2,0-0.3,0-0.5,0.1c-0.1,0-0.3,0.1-0.4,0.2
						c-0.1,0.1-0.2,0.2-0.2,0.3c-0.1,0.1-0.1,0.2-0.1,0.3c0,0.1,0,0.3,0.1,0.4c0.1,0.1,0.2,0.2,0.3,0.3c0.1,0.1,0.3,0.2,0.4,0.2
						l0.5,0.2c0.2,0.1,0.5,0.2,0.7,0.3c0.2,0.1,0.4,0.2,0.5,0.4c0.1,0.1,0.3,0.3,0.3,0.5c0.1,0.2,0.1,0.4,0.1,0.6
						c0,0.3-0.1,0.5-0.2,0.8c-0.1,0.2-0.3,0.4-0.5,0.5c-0.2,0.2-0.5,0.3-0.8,0.3c-0.3,0.1-0.6,0.1-0.9,0.1
						C232.2,99.2,231.6,99,231.1,98.8z"/>
					<path class="st10" d="M236.2,98.8v-1c0.5,0.4,1.1,0.6,1.7,0.6c0.9,0,1.3-0.3,1.3-0.8c0-0.1,0-0.3-0.1-0.4
						c-0.1-0.1-0.2-0.2-0.3-0.3c-0.1-0.1-0.3-0.2-0.4-0.2l-0.5-0.2c-0.2-0.1-0.5-0.2-0.7-0.3c-0.2-0.1-0.4-0.2-0.5-0.4
						c-0.1-0.1-0.2-0.3-0.3-0.5c-0.1-0.2-0.1-0.4-0.1-0.6c0-0.3,0.1-0.5,0.2-0.7c0.1-0.2,0.3-0.4,0.5-0.6c0.2-0.1,0.5-0.3,0.7-0.3
						c0.7-0.2,1.5-0.1,2.3,0.2v1c-0.5-0.3-1-0.4-1.5-0.4c-0.2,0-0.3,0-0.5,0.1c-0.1,0-0.3,0.1-0.4,0.2c-0.1,0.1-0.2,0.2-0.2,0.3
						c-0.1,0.1-0.1,0.2-0.1,0.3c0,0.1,0,0.3,0.1,0.4c0.1,0.1,0.1,0.2,0.2,0.3c0.1,0.1,0.3,0.2,0.4,0.2l0.5,0.2
						c0.2,0.1,0.5,0.2,0.7,0.3c0.2,0.1,0.4,0.2,0.5,0.4c0.1,0.1,0.3,0.3,0.3,0.5c0.1,0.2,0.1,0.4,0.1,0.6c0,0.3-0.1,0.5-0.2,0.8
						c-0.1,0.2-0.3,0.4-0.5,0.5c-0.2,0.2-0.5,0.3-0.8,0.3c-0.3,0.1-0.6,0.1-0.9,0.1C237.3,99.2,236.7,99,236.2,98.8z"/>
					<path class="st10" d="M247.8,98.9c-0.3,0.1-0.6,0.2-0.9,0.2c-1.1,0-1.6-0.6-1.6-1.8v-3.6h-1V93h1v-1.5l1-0.3V93h1.5v0.8h-1.5
						v3.4c0,0.3,0,0.6,0.2,0.9c0.2,0.2,0.4,0.3,0.7,0.3c0.2,0,0.4-0.1,0.6-0.2L247.8,98.9z"/>
					<path class="st10" d="M251.4,99.1c-0.8,0-1.6-0.3-2.1-0.8c-0.6-0.6-0.8-1.4-0.8-2.3c0-0.9,0.2-1.7,0.8-2.4
						c0.6-0.6,1.4-0.9,2.2-0.8c0.8,0,1.5,0.3,2.1,0.8c1,1.4,1,3.3-0.1,4.6C253,98.8,252.2,99.1,251.4,99.1z M251.5,93.6
						c-0.6,0-1.1,0.2-1.5,0.6c-0.4,0.5-0.6,1.1-0.5,1.7c0,0.6,0.2,1.2,0.6,1.7c0.4,0.4,0.9,0.6,1.5,0.6c0.5,0,1.1-0.2,1.4-0.6
						c0.4-0.5,0.5-1.1,0.5-1.7c0-0.6-0.1-1.2-0.5-1.7C252.6,93.8,252,93.6,251.5,93.6z"/>
					<path class="st10" d="M260.9,99h-1.4l-2.6-2.9l0,0V99h-1v-8.9h1v5.6l0,0l2.5-2.7h1.3l-2.8,2.9L260.9,99z"/>
					<path class="st10" d="M266.4,96.2h-4.2c0,0.6,0.2,1.1,0.5,1.6c0.4,0.4,0.9,0.6,1.4,0.5c0.7,0,1.3-0.2,1.9-0.7v0.9
						c-0.6,0.4-1.4,0.6-2.1,0.6c-0.8,0-1.5-0.3-2-0.8c-0.5-0.6-0.8-1.5-0.7-2.3c0-0.8,0.3-1.6,0.8-2.3c0.5-0.6,1.2-0.9,2-0.9
						c0.7,0,1.4,0.2,1.8,0.8c0.5,0.6,0.7,1.4,0.6,2.1L266.4,96.2z M265.4,95.4c0-0.5-0.1-0.9-0.4-1.3c-0.3-0.3-0.7-0.5-1.1-0.5
						c-0.4,0-0.9,0.2-1.1,0.5c-0.3,0.3-0.5,0.8-0.6,1.3L265.4,95.4z"/>
					<path class="st10" d="M272.8,99h-1v-3.4c0-1.3-0.5-1.9-1.4-1.9c-0.5,0-0.9,0.2-1.2,0.5c-0.3,0.4-0.5,0.9-0.5,1.4V99h-1v-6h1v1
						l0,0c0.4-0.7,1.2-1.2,2-1.1c0.6,0,1.1,0.2,1.5,0.6c0.4,0.5,0.6,1.2,0.5,1.8L272.8,99z"/>
				</g>
				<g>
					<path class="st10" d="M213.3,84.8h-1v-3.8h-4.4v3.8h-1v-8.4h1v3.7h4.4v-3.7h1V84.8z"/>
					<path class="st10" d="M220.3,77.3h-2.4v7.5h-1v-7.5h-2.4v-0.9h5.8L220.3,77.3z"/>
					<path class="st10" d="M226.9,77.3h-2.4v7.5h-1v-7.5h-2.4v-0.9h5.8L226.9,77.3z"/>
					<path class="st10" d="M229.1,81.6v3.2h-1v-8.4h2.3c0.8-0.1,1.5,0.2,2.1,0.7c0.5,0.5,0.8,1.2,0.7,1.8c0,0.8-0.3,1.5-0.8,2
						c-0.6,0.5-1.4,0.8-2.2,0.8L229.1,81.6z M229.1,77.3v3.4h1c0.6,0,1.1-0.1,1.6-0.5c0.4-0.3,0.6-0.8,0.5-1.3c0-1.1-0.7-1.7-2-1.7
						H229.1z"/>
					<path class="st10" d="M244.4,84.2c-0.9,0.5-1.8,0.7-2.8,0.7c-1.1,0-2.1-0.4-2.9-1.2c-0.8-0.8-1.2-1.9-1.1-3.1
						c0-1.2,0.4-2.4,1.2-3.2c0.8-0.8,2-1.3,3.1-1.3c0.8,0,1.6,0.1,2.3,0.4v1.1c-0.7-0.4-1.6-0.7-2.4-0.7c-0.9,0-1.7,0.3-2.3,1
						c-1.2,1.5-1.2,3.5-0.1,5c0.6,0.6,1.4,1,2.3,0.9c0.6,0,1.2-0.1,1.7-0.4v-2.4h-1.8v-0.9h2.8L244.4,84.2z"/>
					<path class="st10" d="M250.7,84.8h-4.4v-8.4h4.3v0.9h-3.3v2.8h3v0.9h-3v2.9h3.5V84.8z"/>
					<path class="st10" d="M257.4,77.3H255v7.5h-1v-7.5h-2.4v-0.9h5.8L257.4,77.3z"/>
					<path class="st10" d="M267.8,81.7h-2.4V84h-0.8v-2.3h-2.4v-0.8h2.4v-2.4h0.8v2.4h2.4V81.7z"/>
				</g>
			</g>
		</g>
	</g>
</g>
<g id="bg">
	<g id="Shapes_1_">
		<rect class="st1" width="475" height="150.6"/>
		<rect class="st4" width="105" height="150"/>
		<g>
			<rect x="17.8" y="20.6" class="st5" width="70" height="70"/>
			<path class="st1" d="M50,72.6v6.8c0,1.9-0.9,3.3-2.8,3.3l0,0c-1.9,0-2.8-1.4-2.8-3.3v-6.8h-3.5c-1.4,0-2.1-1.6-2.1-3V46.5h28
				v23.1c0,1.4-0.5,3-2.1,3h-3.5v6.8c0,1.9-0.9,3.3-2.8,3.3l0,0c-1.9,0-2.8-1.4-2.8-3.3v-6.7H50z"/>
			<path class="st1" d="M33.2,45.8L33.2,45.8c1.9,0,3.7,1.4,3.7,3.3v13.1c0,1.9-1.9,3.3-3.7,3.3l0,0c-1.9,0-3.7-1.4-3.7-3.3V49
				C29.5,47.1,31.3,45.7,33.2,45.8L33.2,45.8z"/>
			<path class="st1" d="M72.4,45.8L72.4,45.8c1.9,0,3.7,1.4,3.7,3.3v13.1c0,1.9-1.9,3.3-3.7,3.3l0,0c-1.9,0-3.7-1.4-3.7-3.3V49
				C68.7,47.1,70.5,45.7,72.4,45.8L72.4,45.8z"/>
			<path class="st1" d="M59.6,34.1l2.6-3.5c0.2-0.2,0-0.5-0.2-0.7s-0.5,0-0.7,0.2l-2.6,3.7c-1.9-0.7-3.8-1.1-5.8-1.2
				c-2,0-4,0.4-5.8,1.2l-2.8-4c-0.2-0.2-0.4-0.3-0.7-0.2c0,0.2-0.2,0.5,0,0.7l2.5,3.8c-4.2,1.9-7.2,5.8-7.2,9.6h28
				C66.8,39.9,63.8,36,59.6,34.1z M46.7,40.4c-0.9,0-1.6-0.7-1.6-1.6c0-0.9,0.7-1.6,1.6-1.6c0.9,0,1.6,0.7,1.6,1.6c0,0,0,0,0,0
				C48.4,39.7,47.7,40.4,46.7,40.4C46.8,40.4,46.8,40.4,46.7,40.4z M58.9,40.4c-0.9,0-1.6-0.7-1.6-1.6c0-0.9,0.7-1.6,1.6-1.6
				c0.9,0,1.6,0.7,1.6,1.6c0,0,0,0,0,0C60.5,39.7,59.8,40.4,58.9,40.4C58.9,40.4,58.9,40.4,58.9,40.4z"/>
		</g>
		<rect x="371" class="st6" width="104" height="90"/>
		<rect x="371" y="95" class="st7" width="104" height="55"/>
		<g>
			<line class="st8" x1="105.2" y1="14.6" x2="365.8" y2="14.6"/>
			<polygon points="364.7,18.3 371.2,14.6 364.7,10.9 			"/>
		</g>
		<g>
			<line class="st8" x1="110.6" y1="44.5" x2="371.2" y2="44.5"/>
			<polygon points="111.7,48.2 105.2,44.5 111.7,40.7 			"/>
		</g>
		<g>
			<line class="st8" x1="105.2" y1="103.9" x2="365.8" y2="103.9"/>
			<polygon points="364.7,107.6 371.2,103.9 364.7,100.2 			"/>
		</g>
		<g>
			<line class="st8" x1="110.7" y1="140.1" x2="371.2" y2="140.1"/>
			<polygon points="111.7,143.8 105.3,140.1 111.7,136.3 			"/>
		</g>
		
			<use xlink:href="#New_Symbol_44"  width="20" height="20" x="-10" y="-10" transform="matrix(1 0 0 1 170.1 139.6)" style="overflow:visible;"/>
		
			<use xlink:href="#New_Symbol_43"  width="20" height="20" x="-10" y="-10" transform="matrix(1 0 0 1 170.1 103.9)" style="overflow:visible;"/>
		
			<use xlink:href="#New_Symbol_42"  width="20" height="20" x="-10" y="-10" transform="matrix(1 0 0 1 170.1 44.48)" style="overflow:visible;"/>
		
			<use xlink:href="#New_Symbol_41"  width="20" height="20" x="-10" y="-10" transform="matrix(1 0 0 1 170.1 14.6)" style="overflow:visible;"/>
		<polygon class="st9" points="193,25.6 185.4,31 188.3,39.8 197.6,39.8 200.5,31 		"/>
	</g>
	<g>
		<polygon class="st9" points="193.1,85.5 185.5,91 188.4,99.8 197.7,99.8 200.6,91 		"/>
	</g>
</g>
<g id="txt">
	<g>
		<rect x="17.8" y="102.5" class="st11" width="70" height="47.5"/>
		<path class="st12" d="M28.6,111.4h-2.1l-0.6-1.9h-3l-0.6,1.9h-2.1l3.1-8.4h2.2L28.6,111.4z M25.5,108l-0.9-2.8
			c-0.1-0.2-0.1-0.5-0.1-0.8h0c0,0.2-0.1,0.5-0.1,0.7l-0.9,2.8H25.5z"/>
		<path class="st12" d="M31.4,110.7L31.4,110.7l0,3.5h-1.9v-8.8h1.9v0.9h0c0.5-0.7,1.1-1,1.9-1c0.8,0,1.4,0.3,1.8,0.8
			s0.6,1.3,0.6,2.2c0,1-0.2,1.8-0.7,2.4s-1.2,0.9-2,0.9C32.3,111.5,31.8,111.2,31.4,110.7z M31.3,108.2v0.5c0,0.4,0.1,0.8,0.3,1
			s0.5,0.4,0.9,0.4c0.4,0,0.7-0.2,1-0.5s0.3-0.8,0.3-1.4c0-1.1-0.4-1.6-1.2-1.6c-0.4,0-0.7,0.1-0.9,0.4S31.3,107.7,31.3,108.2z"/>
		<path class="st12" d="M38.8,110.7L38.8,110.7l0,3.5H37v-8.8h1.9v0.9h0c0.5-0.7,1.1-1,1.9-1c0.8,0,1.4,0.3,1.8,0.8s0.6,1.3,0.6,2.2
			c0,1-0.2,1.8-0.7,2.4s-1.2,0.9-2,0.9C39.8,111.5,39.2,111.2,38.8,110.7z M38.8,108.2v0.5c0,0.4,0.1,0.8,0.3,1s0.5,0.4,0.9,0.4
			c0.4,0,0.7-0.2,1-0.5s0.3-0.8,0.3-1.4c0-1.1-0.4-1.6-1.2-1.6c-0.4,0-0.7,0.1-0.9,0.4S38.8,107.7,38.8,108.2z"/>
		<path class="st12" d="M46.2,111.4h-1.9v-8.9h1.9V111.4z"/>
		<path class="st12" d="M48.7,104.4c-0.3,0-0.6-0.1-0.8-0.3s-0.3-0.4-0.3-0.7c0-0.3,0.1-0.5,0.3-0.7s0.5-0.3,0.8-0.3
			c0.3,0,0.6,0.1,0.8,0.3s0.3,0.4,0.3,0.7c0,0.3-0.1,0.5-0.3,0.7S49.1,104.4,48.7,104.4z M49.7,111.4h-1.9v-6h1.9V111.4z"/>
		<path class="st12" d="M55.8,111.1c-0.4,0.2-1,0.4-1.8,0.4c-0.9,0-1.7-0.3-2.2-0.8s-0.9-1.3-0.9-2.2c0-1,0.3-1.8,0.9-2.4
			s1.4-0.9,2.5-0.9c0.7,0,1.2,0.1,1.5,0.3v1.6c-0.4-0.3-0.8-0.4-1.3-0.4c-0.5,0-1,0.2-1.3,0.5s-0.5,0.7-0.5,1.3
			c0,0.5,0.1,0.9,0.4,1.3s0.7,0.5,1.2,0.5c0.5,0,0.9-0.1,1.4-0.4V111.1z"/>
		<path class="st12" d="M62,111.4h-1.8v-0.9h0c-0.4,0.7-1,1-1.8,1c-0.6,0-1-0.2-1.4-0.5s-0.5-0.8-0.5-1.3c0-1.2,0.7-1.8,2.1-2
			l1.6-0.2c0-0.7-0.4-1-1.1-1c-0.7,0-1.4,0.2-2,0.6v-1.4c0.3-0.1,0.6-0.3,1.1-0.4s0.9-0.2,1.2-0.2c1.7,0,2.6,0.9,2.6,2.6V111.4z
			 M60.2,108.9v-0.4l-1.1,0.1c-0.6,0.1-0.9,0.3-0.9,0.8c0,0.2,0.1,0.4,0.2,0.5s0.3,0.2,0.6,0.2c0.3,0,0.6-0.1,0.8-0.4
			S60.2,109.3,60.2,108.9z"/>
		<path class="st12" d="M67.1,111.3c-0.3,0.1-0.7,0.2-1.2,0.2c-1.3,0-2-0.7-2-2v-2.7h-1v-1.4h1v-1.3l1.8-0.5v1.8h1.3v1.4h-1.3v2.4
			c0,0.6,0.2,0.9,0.7,0.9c0.2,0,0.4-0.1,0.6-0.2V111.3z"/>
		<path class="st12" d="M69,104.4c-0.3,0-0.6-0.1-0.8-0.3s-0.3-0.4-0.3-0.7c0-0.3,0.1-0.5,0.3-0.7s0.5-0.3,0.8-0.3
			c0.3,0,0.6,0.1,0.8,0.3s0.3,0.4,0.3,0.7c0,0.3-0.1,0.5-0.3,0.7S69.4,104.4,69,104.4z M70,111.4h-1.9v-6H70V111.4z"/>
		<path class="st12" d="M74.4,111.5c-1,0-1.8-0.3-2.4-0.8s-0.9-1.3-0.9-2.3c0-1,0.3-1.8,0.9-2.3s1.4-0.8,2.4-0.8
			c1,0,1.8,0.3,2.3,0.8s0.8,1.3,0.8,2.2c0,1-0.3,1.8-0.9,2.4S75.4,111.5,74.4,111.5z M74.4,106.6c-0.4,0-0.8,0.2-1,0.5
			s-0.4,0.7-0.4,1.3c0,1.2,0.5,1.7,1.4,1.7c0.9,0,1.3-0.6,1.3-1.8C75.8,107.2,75.3,106.6,74.4,106.6z"/>
		<path class="st12" d="M84.6,111.4h-1.8V108c0-0.9-0.3-1.4-1-1.4c-0.3,0-0.6,0.1-0.8,0.4s-0.3,0.6-0.3,0.9v3.4h-1.9v-6h1.9v0.9h0
			c0.4-0.7,1.1-1.1,1.9-1.1c1.3,0,2,0.8,2,2.5V111.4z"/>
		<path class="st12" d="M42,125.8h-1.8v-3.3c0-0.9-0.3-1.4-1-1.4c-0.3,0-0.6,0.1-0.8,0.4s-0.3,0.6-0.3,0.9v3.4h-1.9v-6h1.9v0.9h0
			c0.4-0.7,1.1-1.1,1.9-1.1c1.3,0,2,0.8,2,2.5V125.8z"/>
		<path class="st12" d="M48.5,125.8h-1.8v-0.9h0c-0.4,0.7-1,1-1.8,1c-0.6,0-1-0.2-1.4-0.5s-0.5-0.8-0.5-1.3c0-1.2,0.7-1.8,2.1-2
			l1.6-0.2c0-0.7-0.4-1-1.1-1c-0.7,0-1.4,0.2-2,0.6v-1.4c0.3-0.1,0.6-0.3,1.1-0.4s0.9-0.2,1.2-0.2c1.7,0,2.6,0.9,2.6,2.6V125.8z
			 M46.8,123.3v-0.4l-1.1,0.1c-0.6,0.1-0.9,0.3-0.9,0.8c0,0.2,0.1,0.4,0.2,0.5s0.3,0.2,0.6,0.2c0.3,0,0.6-0.1,0.8-0.4
			S46.8,123.7,46.8,123.3z"/>
		<path class="st12" d="M53.6,125.7c-0.3,0.1-0.7,0.2-1.2,0.2c-1.3,0-2-0.7-2-2v-2.7h-1v-1.4h1v-1.3l1.8-0.5v1.8h1.3v1.4h-1.3v2.4
			c0,0.6,0.2,0.9,0.7,0.9c0.2,0,0.4-0.1,0.6-0.2V125.7z"/>
		<path class="st12" d="M55.6,118.8c-0.3,0-0.6-0.1-0.8-0.3s-0.3-0.4-0.3-0.7c0-0.3,0.1-0.5,0.3-0.7s0.5-0.3,0.8-0.3
			c0.3,0,0.6,0.1,0.8,0.3s0.3,0.4,0.3,0.7c0,0.3-0.1,0.5-0.3,0.7S55.9,118.8,55.6,118.8z M56.5,125.8h-1.9v-6h1.9V125.8z"/>
		<path class="st12" d="M63.8,119.8l-2.2,6h-2.1l-2.1-6h2l1,3.7c0.1,0.4,0.2,0.8,0.2,1.1h0c0-0.3,0.1-0.6,0.2-1l1.1-3.7H63.8z"/>
		<path class="st12" d="M69.8,123.3h-3.9c0.1,0.9,0.6,1.3,1.6,1.3c0.7,0,1.2-0.2,1.7-0.5v1.3c-0.6,0.3-1.3,0.4-2.2,0.4
			c-1,0-1.7-0.3-2.3-0.8s-0.8-1.3-0.8-2.2c0-1,0.3-1.8,0.9-2.4s1.3-0.9,2.1-0.9c0.9,0,1.6,0.3,2,0.8s0.7,1.2,0.7,2.1V123.3z
			 M68.1,122.1c0-0.9-0.3-1.3-1-1.3c-0.3,0-0.6,0.1-0.8,0.4s-0.3,0.6-0.4,0.9H68.1z"/>
	</g>
	<g>
		<g>
			<path class="st13" d="M213.4,85.3h-1v-3.8h-4.3v3.8h-1v-8.4h1v3.7h4.3v-3.7h1V85.3z"/>
			<path class="st13" d="M220.5,77.8h-2.4v7.5h-1v-7.5h-2.4v-0.9h5.8V77.8z"/>
			<path class="st13" d="M227,77.8h-2.4v7.5h-1v-7.5h-2.4v-0.9h5.8V77.8z"/>
			<path class="st13" d="M229.2,82.1v3.2h-1v-8.4h2.3c0.9,0,1.6,0.2,2.1,0.7s0.7,1.1,0.7,1.9s-0.3,1.4-0.8,2s-1.3,0.8-2.2,0.8H229.2
				z M229.2,77.8v3.4h1c0.7,0,1.2-0.2,1.6-0.5s0.5-0.7,0.5-1.3c0-1.1-0.7-1.7-2-1.7H229.2z"/>
			<path class="st13" d="M244.4,84.7c-0.8,0.5-1.8,0.7-2.8,0.7c-1.2,0-2.2-0.4-2.9-1.2s-1.1-1.8-1.1-3.1c0-1.3,0.4-2.4,1.2-3.2
				s1.9-1.3,3.1-1.3c0.9,0,1.7,0.1,2.3,0.4v1.1c-0.7-0.4-1.5-0.6-2.4-0.6c-0.9,0-1.7,0.3-2.3,1s-0.9,1.5-0.9,2.5
				c0,1.1,0.3,1.9,0.8,2.5s1.3,0.9,2.3,0.9c0.7,0,1.2-0.1,1.7-0.4v-2.4h-1.8v-0.9h2.8V84.7z"/>
			<path class="st13" d="M250.7,85.3h-4.5v-8.4h4.3v0.9h-3.3v2.8h3v0.9h-3v2.9h3.5V85.3z"/>
			<path class="st13" d="M257.2,77.8h-2.4v7.5h-1v-7.5h-2.4v-0.9h5.8V77.8z"/>
			<path class="st13" d="M267.4,82.2h-2.4v2.4h-0.8v-2.4h-2.4v-0.8h2.4V79h0.8v2.4h2.4V82.2z"/>
			<path class="st13" d="M209.3,96.5c0,1-0.2,1.8-0.6,2.3s-1,0.8-1.7,0.8c-0.3,0-0.6,0-0.8-0.1v-1c0.2,0.2,0.5,0.2,0.8,0.2
				c0.9,0,1.3-0.8,1.3-2.3v-5.4h1V96.5z"/>
			<path class="st13" d="M216,96.7h-4.2c0,0.7,0.2,1.2,0.5,1.5s0.8,0.5,1.4,0.5c0.7,0,1.3-0.2,1.9-0.7v0.9c-0.5,0.4-1.2,0.6-2.1,0.6
				c-0.8,0-1.5-0.3-2-0.8s-0.7-1.3-0.7-2.3c0-0.9,0.3-1.7,0.8-2.3s1.2-0.9,2-0.9s1.4,0.3,1.8,0.8s0.6,1.2,0.6,2.1V96.7z M215,95.9
				c0-0.6-0.1-1-0.4-1.3s-0.6-0.5-1.1-0.5c-0.5,0-0.8,0.2-1.2,0.5s-0.5,0.7-0.6,1.3H215z"/>
			<path class="st13" d="M220.2,99.4c-0.2,0.1-0.5,0.2-0.9,0.2c-1.1,0-1.6-0.6-1.6-1.8v-3.6h-1v-0.8h1V92l1-0.3v1.8h1.5v0.8h-1.5
				v3.4c0,0.4,0.1,0.7,0.2,0.9s0.4,0.3,0.7,0.3c0.2,0,0.5-0.1,0.6-0.2V99.4z"/>
			<path class="st13" d="M223.9,99.6c-0.9,0-1.6-0.3-2.1-0.8s-0.8-1.3-0.8-2.2c0-1,0.3-1.8,0.8-2.4s1.3-0.8,2.2-0.8
				c0.9,0,1.6,0.3,2.1,0.8s0.8,1.3,0.8,2.3c0,1-0.3,1.7-0.8,2.3S224.8,99.6,223.9,99.6z M224,94.2c-0.6,0-1.1,0.2-1.5,0.6
				s-0.5,1-0.5,1.7c0,0.7,0.2,1.3,0.5,1.7s0.8,0.6,1.5,0.6c0.6,0,1.1-0.2,1.4-0.6s0.5-1,0.5-1.7c0-0.8-0.2-1.3-0.5-1.7
				S224.6,94.2,224,94.2z"/>
			<path class="st13" d="M233.3,99.5h-1v-3.4c0-1.3-0.5-1.9-1.4-1.9c-0.5,0-0.9,0.2-1.2,0.5s-0.5,0.8-0.5,1.4v3.4h-1v-6h1v1h0
				c0.5-0.8,1.1-1.1,2-1.1c0.7,0,1.2,0.2,1.5,0.6s0.5,1,0.5,1.8V99.5z"/>
			<path class="st13" d="M243.4,99.5h-1v-1h0c-0.4,0.8-1.1,1.2-2.1,1.2c-0.8,0-1.4-0.3-1.8-0.8s-0.7-1.3-0.7-2.2
				c0-1,0.3-1.8,0.8-2.4s1.2-0.9,2-0.9c0.8,0,1.4,0.3,1.8,1h0v-3.7h1V99.5z M242.4,96.8v-0.9c0-0.5-0.2-0.9-0.5-1.2
				s-0.7-0.5-1.2-0.5c-0.6,0-1,0.2-1.4,0.6s-0.5,1-0.5,1.8c0,0.7,0.2,1.2,0.5,1.6s0.8,0.6,1.3,0.6c0.5,0,1-0.2,1.3-0.6
				S242.4,97.4,242.4,96.8z"/>
			<path class="st13" d="M246.5,91l-0.8,2.6h-0.7l0.7-2.6H246.5z"/>
			<path class="st13" d="M252.2,99.5h-1v-0.9h0c-0.4,0.7-1,1.1-1.8,1.1c-0.6,0-1.1-0.2-1.4-0.5s-0.5-0.7-0.5-1.3c0-1.1,0.7-1.8,2-2
				l1.8-0.3c0-1-0.4-1.5-1.2-1.5c-0.7,0-1.4,0.2-2,0.7v-1c0.6-0.4,1.3-0.6,2-0.6c1.4,0,2.1,0.7,2.1,2.2V99.5z M251.3,96.5l-1.4,0.2
				c-0.4,0.1-0.8,0.2-1,0.3s-0.3,0.4-0.3,0.8c0,0.3,0.1,0.5,0.3,0.7s0.5,0.3,0.8,0.3c0.5,0,0.9-0.2,1.2-0.5s0.5-0.8,0.5-1.3V96.5z"
				/>
			<path class="st13" d="M258.1,99.2c-0.5,0.3-1,0.4-1.6,0.4c-0.9,0-1.5-0.3-2.1-0.8s-0.8-1.3-0.8-2.2c0-1,0.3-1.8,0.8-2.4
				s1.3-0.9,2.3-0.9c0.5,0,1,0.1,1.4,0.3v1c-0.4-0.3-0.9-0.5-1.4-0.5c-0.6,0-1.1,0.2-1.5,0.7s-0.6,1-0.6,1.7c0,0.7,0.2,1.3,0.6,1.7
				s0.9,0.6,1.5,0.6c0.5,0,1-0.2,1.5-0.5V99.2z"/>
			<path class="st13" d="M263.5,99.2c-0.5,0.3-1,0.4-1.6,0.4c-0.9,0-1.5-0.3-2.1-0.8s-0.8-1.3-0.8-2.2c0-1,0.3-1.8,0.8-2.4
				s1.3-0.9,2.3-0.9c0.5,0,1,0.1,1.4,0.3v1c-0.4-0.3-0.9-0.5-1.4-0.5c-0.6,0-1.1,0.2-1.5,0.7s-0.6,1-0.6,1.7c0,0.7,0.2,1.3,0.6,1.7
				s0.9,0.6,1.5,0.6c0.5,0,1-0.2,1.5-0.5V99.2z"/>
			<path class="st13" d="M269.7,96.7h-4.2c0,0.7,0.2,1.2,0.5,1.5s0.8,0.5,1.4,0.5c0.7,0,1.3-0.2,1.9-0.7v0.9
				c-0.5,0.4-1.2,0.6-2.1,0.6c-0.8,0-1.5-0.3-2-0.8s-0.7-1.3-0.7-2.3c0-0.9,0.3-1.7,0.8-2.3s1.2-0.9,2-0.9s1.4,0.3,1.8,0.8
				s0.6,1.2,0.6,2.1V96.7z M268.8,95.9c0-0.6-0.1-1-0.4-1.3s-0.6-0.5-1.1-0.5c-0.5,0-0.8,0.2-1.2,0.5s-0.5,0.7-0.6,1.3H268.8z
				 M268.2,92.4h-0.7l-1.5-1.9h1L268.2,92.4z"/>
			<path class="st13" d="M270.8,99.3v-1c0.5,0.4,1.1,0.6,1.7,0.6c0.8,0,1.3-0.3,1.3-0.8c0-0.2,0-0.3-0.1-0.4s-0.2-0.2-0.3-0.3
				s-0.3-0.2-0.4-0.2s-0.3-0.1-0.5-0.2c-0.3-0.1-0.5-0.2-0.7-0.3s-0.4-0.2-0.5-0.4s-0.2-0.3-0.3-0.5s-0.1-0.4-0.1-0.6
				c0-0.3,0.1-0.5,0.2-0.7s0.3-0.4,0.5-0.5s0.5-0.3,0.7-0.3s0.6-0.1,0.9-0.1c0.5,0,1,0.1,1.4,0.3v1c-0.4-0.3-0.9-0.4-1.5-0.4
				c-0.2,0-0.3,0-0.5,0.1s-0.3,0.1-0.4,0.2s-0.2,0.2-0.2,0.3s-0.1,0.2-0.1,0.3c0,0.2,0,0.3,0.1,0.4s0.1,0.2,0.2,0.3s0.2,0.2,0.4,0.2
				s0.3,0.1,0.5,0.2c0.3,0.1,0.5,0.2,0.7,0.3s0.4,0.2,0.5,0.4s0.3,0.3,0.3,0.5s0.1,0.4,0.1,0.6c0,0.3-0.1,0.6-0.2,0.8
				s-0.3,0.4-0.5,0.5s-0.5,0.3-0.8,0.3s-0.6,0.1-0.9,0.1C271.8,99.6,271.2,99.5,270.8,99.3z"/>
		</g>
	</g>
	<g>
		<rect x="390.6" y="25.3" class="st11" width="64.5" height="60.7"/>
		<path class="st14" d="M394.4,31.3v2.9h-1.9v-8.4h3c2.1,0,3.2,0.9,3.2,2.7c0,0.8-0.3,1.5-0.9,2s-1.4,0.8-2.4,0.8H394.4z
			 M394.4,27.3v2.6h0.7c1,0,1.5-0.4,1.5-1.3c0-0.9-0.5-1.3-1.5-1.3H394.4z"/>
		<path class="st14" d="M401.5,34.2h-1.9v-8.9h1.9V34.2z"/>
		<path class="st14" d="M408.1,34.2h-1.8v-0.9h0c-0.4,0.7-1,1-1.8,1c-0.6,0-1-0.2-1.4-0.5s-0.5-0.8-0.5-1.3c0-1.2,0.7-1.8,2.1-2
			l1.6-0.2c0-0.7-0.4-1-1.1-1c-0.7,0-1.4,0.2-2,0.6v-1.4c0.3-0.1,0.6-0.3,1.1-0.4s0.9-0.2,1.2-0.2c1.7,0,2.6,0.9,2.6,2.6V34.2z
			 M406.4,31.8v-0.4l-1.1,0.1c-0.6,0.1-0.9,0.3-0.9,0.8c0,0.2,0.1,0.4,0.2,0.5s0.3,0.2,0.6,0.2c0.3,0,0.6-0.1,0.8-0.4
			S406.4,32.1,406.4,31.8z"/>
		<path class="st14" d="M413.2,34.1c-0.3,0.1-0.7,0.2-1.2,0.2c-1.3,0-2-0.7-2-2v-2.7h-1v-1.4h1v-1.3l1.8-0.5v1.8h1.3v1.4h-1.3V32
			c0,0.6,0.2,0.9,0.7,0.9c0.2,0,0.4-0.1,0.6-0.2V34.1z"/>
		<path class="st14" d="M419.6,31.7h-3.9c0.1,0.9,0.6,1.3,1.6,1.3c0.7,0,1.2-0.2,1.7-0.5v1.3c-0.6,0.3-1.3,0.4-2.2,0.4
			c-1,0-1.7-0.3-2.3-0.8s-0.8-1.3-0.8-2.2c0-1,0.3-1.8,0.9-2.4s1.3-0.9,2.1-0.9c0.9,0,1.6,0.3,2,0.8s0.7,1.2,0.7,2.1V31.7z
			 M417.9,30.6c0-0.9-0.3-1.3-1-1.3c-0.3,0-0.6,0.1-0.8,0.4s-0.3,0.6-0.4,0.9H417.9z"/>
		<path class="st14" d="M424.6,26.7c-0.2-0.1-0.5-0.1-0.7-0.1c-0.6,0-0.9,0.3-0.9,1v0.6h1.4v1.4H423v4.6h-1.8v-4.6h-1v-1.4h1v-0.7
			c0-0.7,0.2-1.2,0.7-1.7s1.1-0.6,1.8-0.6c0.4,0,0.7,0,0.9,0.1V26.7z"/>
		<path class="st14" d="M428.1,34.4c-1,0-1.8-0.3-2.4-0.8s-0.9-1.3-0.9-2.3c0-1,0.3-1.8,0.9-2.3s1.4-0.8,2.4-0.8
			c1,0,1.8,0.3,2.3,0.8s0.8,1.3,0.8,2.2c0,1-0.3,1.8-0.9,2.4S429.2,34.4,428.1,34.4z M428.2,29.5c-0.4,0-0.8,0.2-1,0.5
			s-0.4,0.7-0.4,1.3c0,1.2,0.5,1.7,1.4,1.7c0.9,0,1.3-0.6,1.3-1.8C429.5,30,429.1,29.5,428.2,29.5z"/>
		<path class="st14" d="M436.5,29.9c-0.2-0.1-0.5-0.2-0.8-0.2c-0.4,0-0.7,0.1-0.9,0.4s-0.3,0.7-0.3,1.2v2.9h-1.9v-6h1.9v1.1h0
			c0.3-0.8,0.8-1.2,1.6-1.2c0.2,0,0.3,0,0.5,0.1V29.9z"/>
		<path class="st14" d="M447,34.2h-1.8v-3.4c0-0.9-0.3-1.3-1-1.3c-0.3,0-0.6,0.1-0.7,0.4s-0.3,0.6-0.3,1v3.4h-1.9v-3.5
			c0-0.8-0.3-1.3-0.9-1.3c-0.3,0-0.6,0.1-0.8,0.4s-0.3,0.6-0.3,1v3.3h-1.9v-6h1.9v0.9h0c0.2-0.3,0.5-0.6,0.8-0.8s0.7-0.3,1.1-0.3
			c0.8,0,1.4,0.4,1.7,1.1c0.5-0.7,1.1-1.1,2-1.1c1.3,0,2,0.8,2,2.4V34.2z"/>
		<path class="st14" d="M453.8,31.7h-3.9c0.1,0.9,0.6,1.3,1.6,1.3c0.7,0,1.2-0.2,1.7-0.5v1.3c-0.6,0.3-1.3,0.4-2.2,0.4
			c-1,0-1.7-0.3-2.3-0.8s-0.8-1.3-0.8-2.2c0-1,0.3-1.8,0.9-2.4s1.3-0.9,2.1-0.9c0.9,0,1.6,0.3,2,0.8s0.7,1.2,0.7,2.1V31.7z
			 M452.1,30.6c0-0.9-0.3-1.3-1-1.3c-0.3,0-0.6,0.1-0.8,0.4s-0.3,0.6-0.4,0.9H452.1z"/>
		<path class="st14" d="M406,48.6h-1.9v-5c0-0.5,0-1.1,0.1-1.8h0c-0.1,0.5-0.2,0.9-0.3,1.1l-2,5.7h-1.5l-2-5.7
			c-0.1-0.2-0.1-0.5-0.3-1.2h-0.1c0.1,0.8,0.1,1.6,0.1,2.2v4.6h-1.7v-8.4h2.8l1.7,5c0.1,0.4,0.2,0.8,0.3,1.2h0
			c0.1-0.5,0.2-0.9,0.3-1.2l1.7-5h2.7V48.6z"/>
		<path class="st14" d="M408.7,41.7c-0.3,0-0.6-0.1-0.8-0.3s-0.3-0.4-0.3-0.7c0-0.3,0.1-0.5,0.3-0.7s0.5-0.3,0.8-0.3
			c0.3,0,0.6,0.1,0.8,0.3s0.3,0.4,0.3,0.7c0,0.3-0.1,0.5-0.3,0.7S409,41.7,408.7,41.7z M409.6,48.6h-1.9v-6h1.9V48.6z"/>
		<path class="st14" d="M415.7,48.4c-0.4,0.2-1,0.4-1.8,0.4c-0.9,0-1.7-0.3-2.2-0.8s-0.9-1.3-0.9-2.2c0-1,0.3-1.8,0.9-2.4
			s1.4-0.9,2.5-0.9c0.7,0,1.2,0.1,1.5,0.3v1.6c-0.4-0.3-0.8-0.4-1.3-0.4c-0.5,0-1,0.2-1.3,0.5s-0.5,0.7-0.5,1.3
			c0,0.5,0.1,0.9,0.4,1.3s0.7,0.5,1.2,0.5c0.5,0,0.9-0.1,1.4-0.4V48.4z"/>
		<path class="st14" d="M420.9,44.3c-0.2-0.1-0.5-0.2-0.8-0.2c-0.4,0-0.7,0.1-0.9,0.4s-0.3,0.7-0.3,1.2v2.9h-1.9v-6h1.9v1.1h0
			c0.3-0.8,0.8-1.2,1.6-1.2c0.2,0,0.3,0,0.5,0.1V44.3z"/>
		<path class="st14" d="M424.5,48.8c-1,0-1.8-0.3-2.4-0.8s-0.9-1.3-0.9-2.3c0-1,0.3-1.8,0.9-2.3s1.4-0.8,2.4-0.8
			c1,0,1.8,0.3,2.3,0.8s0.8,1.3,0.8,2.2c0,1-0.3,1.8-0.9,2.4S425.6,48.8,424.5,48.8z M424.6,43.9c-0.4,0-0.8,0.2-1,0.5
			s-0.4,0.7-0.4,1.3c0,1.2,0.5,1.7,1.4,1.7c0.9,0,1.3-0.6,1.3-1.8C425.9,44.4,425.5,43.9,424.6,43.9z"/>
		<path class="st14" d="M428.6,48.5V47c0.3,0.2,0.6,0.3,0.9,0.4s0.6,0.1,0.9,0.1c0.3,0,0.6,0,0.8-0.1s0.3-0.2,0.3-0.4
			c0-0.1,0-0.2-0.1-0.3s-0.2-0.1-0.3-0.2s-0.3-0.1-0.4-0.2s-0.3-0.1-0.5-0.2c-0.2-0.1-0.4-0.2-0.6-0.3s-0.3-0.2-0.5-0.4
			s-0.2-0.3-0.3-0.5s-0.1-0.4-0.1-0.6c0-0.3,0.1-0.6,0.2-0.9s0.3-0.4,0.6-0.6s0.5-0.3,0.8-0.3s0.6-0.1,1-0.1c0.3,0,0.5,0,0.8,0.1
			s0.5,0.1,0.8,0.2v1.4c-0.2-0.1-0.5-0.2-0.8-0.3s-0.5-0.1-0.8-0.1c-0.1,0-0.2,0-0.3,0s-0.2,0.1-0.3,0.1s-0.1,0.1-0.2,0.2
			s-0.1,0.1-0.1,0.2c0,0.1,0,0.2,0.1,0.3s0.2,0.1,0.3,0.2s0.2,0.1,0.4,0.2s0.3,0.1,0.4,0.1c0.2,0.1,0.5,0.2,0.7,0.3s0.4,0.2,0.5,0.4
			s0.3,0.3,0.3,0.5s0.1,0.4,0.1,0.7c0,0.4-0.1,0.7-0.2,0.9s-0.4,0.5-0.6,0.6s-0.6,0.3-0.9,0.3s-0.7,0.1-1,0.1
			C429.8,48.8,429.2,48.7,428.6,48.5z"/>
		<path class="st14" d="M437.2,48.8c-1,0-1.8-0.3-2.4-0.8s-0.9-1.3-0.9-2.3c0-1,0.3-1.8,0.9-2.3s1.4-0.8,2.4-0.8
			c1,0,1.8,0.3,2.3,0.8s0.8,1.3,0.8,2.2c0,1-0.3,1.8-0.9,2.4S438.2,48.8,437.2,48.8z M437.2,43.9c-0.4,0-0.8,0.2-1,0.5
			s-0.4,0.7-0.4,1.3c0,1.2,0.5,1.7,1.4,1.7c0.9,0,1.3-0.6,1.3-1.8C438.5,44.4,438.1,43.9,437.2,43.9z"/>
		<path class="st14" d="M445.4,41.1c-0.2-0.1-0.5-0.1-0.7-0.1c-0.6,0-0.9,0.3-0.9,1v0.6h1.4V44h-1.4v4.6h-1.8V44h-1v-1.4h1v-0.7
			c0-0.7,0.2-1.2,0.7-1.7s1.1-0.6,1.8-0.6c0.4,0,0.7,0,0.9,0.1V41.1z"/>
		<path class="st14" d="M449.9,48.5c-0.3,0.1-0.7,0.2-1.2,0.2c-1.3,0-2-0.7-2-2V44h-1v-1.4h1v-1.3l1.8-0.5v1.8h1.3V44h-1.3v2.4
			c0,0.6,0.2,0.9,0.7,0.9c0.2,0,0.4-0.1,0.6-0.2V48.5z"/>
		<path class="st14" d="M403.6,63h-1.9v-8.4h1.9V63z"/>
		<path class="st14" d="M411.2,63h-1.9v-0.8h0c-0.4,0.6-1,1-1.9,1c-0.8,0-1.4-0.3-1.8-0.8s-0.7-1.3-0.7-2.2c0-1,0.3-1.8,0.8-2.4
			s1.2-0.9,2-0.9c0.8,0,1.3,0.3,1.6,0.8h0v-3.6h1.9V63z M409.4,60.1v-0.5c0-0.4-0.1-0.7-0.3-1s-0.5-0.4-0.9-0.4
			c-0.4,0-0.7,0.2-1,0.5s-0.3,0.8-0.3,1.3c0,0.5,0.1,0.9,0.3,1.2s0.5,0.4,0.9,0.4c0.4,0,0.7-0.2,0.9-0.5S409.4,60.6,409.4,60.1z"/>
		<path class="st14" d="M418.1,60.5h-3.9c0.1,0.9,0.6,1.3,1.6,1.3c0.7,0,1.2-0.2,1.7-0.5v1.3c-0.6,0.3-1.3,0.4-2.2,0.4
			c-1,0-1.7-0.3-2.3-0.8s-0.8-1.3-0.8-2.2c0-1,0.3-1.8,0.9-2.4s1.3-0.9,2.1-0.9c0.9,0,1.6,0.3,2,0.8s0.7,1.2,0.7,2.1V60.5z
			 M416.4,59.4c0-0.9-0.3-1.3-1-1.3c-0.3,0-0.6,0.1-0.8,0.4s-0.3,0.6-0.4,0.9H416.4z"/>
		<path class="st14" d="M425,63h-1.8v-3.3c0-0.9-0.3-1.4-1-1.4c-0.3,0-0.6,0.1-0.8,0.4s-0.3,0.6-0.3,0.9V63h-1.9v-6h1.9V58h0
			c0.4-0.7,1.1-1.1,1.9-1.1c1.3,0,2,0.8,2,2.5V63z"/>
		<path class="st14" d="M430.1,62.9c-0.3,0.1-0.7,0.2-1.2,0.2c-1.3,0-2-0.7-2-2v-2.7h-1V57h1v-1.3l1.8-0.5V57h1.3v1.4h-1.3v2.4
			c0,0.6,0.2,0.9,0.7,0.9c0.2,0,0.4-0.1,0.6-0.2V62.9z"/>
		<path class="st14" d="M432.1,56.1c-0.3,0-0.6-0.1-0.8-0.3s-0.3-0.4-0.3-0.7c0-0.3,0.1-0.5,0.3-0.7s0.5-0.3,0.8-0.3
			c0.3,0,0.6,0.1,0.8,0.3s0.3,0.4,0.3,0.7c0,0.3-0.1,0.5-0.3,0.7S432.4,56.1,432.1,56.1z M433,63h-1.9v-6h1.9V63z"/>
		<path class="st14" d="M438.2,62.9c-0.3,0.1-0.7,0.2-1.2,0.2c-1.3,0-2-0.7-2-2v-2.7h-1V57h1v-1.3l1.8-0.5V57h1.3v1.4h-1.3v2.4
			c0,0.6,0.2,0.9,0.7,0.9c0.2,0,0.4-0.1,0.6-0.2V62.9z"/>
		<path class="st14" d="M445,57l-2.4,6.5c-0.6,1.6-1.5,2.3-2.6,2.3c-0.4,0-0.8-0.1-1.1-0.2v-1.5c0.2,0.1,0.5,0.2,0.8,0.2
			c0.5,0,0.8-0.2,1-0.7l0.3-0.7l-2.4-6h2.1l1.1,3.7c0.1,0.2,0.1,0.5,0.2,0.8h0c0-0.2,0.1-0.5,0.2-0.8l1.1-3.7H445z"/>
	</g>
	<g>
		<rect x="371" y="109.4" class="st11" width="104" height="30.5"/>
		<path class="st15" d="M392.5,118.2h-2.1l-0.6-1.9h-3l-0.6,1.9h-2.1l3.1-8.4h2.2L392.5,118.2z M389.5,114.9l-0.9-2.8
			c-0.1-0.2-0.1-0.5-0.1-0.8h0c0,0.2-0.1,0.5-0.1,0.7l-0.9,2.8H389.5z"/>
		<path class="st15" d="M395.5,115.3v2.9h-1.9v-8.4h3c2.1,0,3.2,0.9,3.2,2.7c0,0.8-0.3,1.5-0.9,2s-1.4,0.8-2.4,0.8H395.5z
			 M395.5,111.3v2.6h0.7c1,0,1.5-0.4,1.5-1.3c0-0.9-0.5-1.3-1.5-1.3H395.5z"/>
		<path class="st15" d="M402.9,118.2H401v-8.4h1.9V118.2z"/>
		<path class="st15" d="M417.7,118.2h-1.9v-5c0-0.5,0-1.1,0.1-1.8h0c-0.1,0.5-0.2,0.9-0.3,1.1l-2,5.7H412l-2-5.7
			c-0.1-0.2-0.1-0.5-0.3-1.2h-0.1c0.1,0.8,0.1,1.6,0.1,2.2v4.6h-1.7v-8.4h2.8l1.7,5c0.1,0.4,0.2,0.8,0.3,1.2h0
			c0.1-0.5,0.2-0.9,0.3-1.2l1.7-5h2.7V118.2z"/>
		<path class="st15" d="M420.3,111.3c-0.3,0-0.6-0.1-0.8-0.3s-0.3-0.4-0.3-0.7c0-0.3,0.1-0.5,0.3-0.7s0.5-0.3,0.8-0.3
			c0.3,0,0.6,0.1,0.8,0.3s0.3,0.4,0.3,0.7c0,0.3-0.1,0.5-0.3,0.7S420.6,111.3,420.3,111.3z M421.2,118.2h-1.9v-6h1.9V118.2z"/>
		<path class="st15" d="M427.3,118c-0.4,0.2-1,0.4-1.8,0.4c-0.9,0-1.7-0.3-2.2-0.8s-0.9-1.3-0.9-2.2c0-1,0.3-1.8,0.9-2.4
			s1.4-0.9,2.5-0.9c0.7,0,1.2,0.1,1.5,0.3v1.6c-0.4-0.3-0.8-0.4-1.3-0.4c-0.5,0-1,0.2-1.3,0.5s-0.5,0.7-0.5,1.3
			c0,0.5,0.1,0.9,0.4,1.3s0.7,0.5,1.2,0.5c0.5,0,0.9-0.1,1.4-0.4V118z"/>
		<path class="st15" d="M432.5,113.9c-0.2-0.1-0.5-0.2-0.8-0.2c-0.4,0-0.7,0.1-0.9,0.4s-0.3,0.7-0.3,1.2v2.9h-1.9v-6h1.9v1.1h0
			c0.3-0.8,0.8-1.2,1.6-1.2c0.2,0,0.3,0,0.5,0.1V113.9z"/>
		<path class="st15" d="M436.1,118.4c-1,0-1.8-0.3-2.4-0.8s-0.9-1.3-0.9-2.3c0-1,0.3-1.8,0.9-2.3s1.4-0.8,2.4-0.8
			c1,0,1.8,0.3,2.3,0.8s0.8,1.3,0.8,2.2c0,1-0.3,1.8-0.9,2.4S437.2,118.4,436.1,118.4z M436.2,113.5c-0.4,0-0.8,0.2-1,0.5
			s-0.4,0.7-0.4,1.3c0,1.2,0.5,1.7,1.4,1.7c0.9,0,1.3-0.6,1.3-1.8C437.5,114.1,437.1,113.5,436.2,113.5z"/>
		<path class="st15" d="M440.2,118.1v-1.5c0.3,0.2,0.6,0.3,0.9,0.4s0.6,0.1,0.9,0.1c0.3,0,0.6,0,0.8-0.1s0.3-0.2,0.3-0.4
			c0-0.1,0-0.2-0.1-0.3s-0.2-0.1-0.3-0.2s-0.3-0.1-0.4-0.2s-0.3-0.1-0.5-0.2c-0.2-0.1-0.4-0.2-0.6-0.3s-0.3-0.2-0.5-0.4
			s-0.2-0.3-0.3-0.5s-0.1-0.4-0.1-0.6c0-0.3,0.1-0.6,0.2-0.9s0.3-0.4,0.6-0.6s0.5-0.3,0.8-0.3s0.6-0.1,1-0.1c0.3,0,0.5,0,0.8,0.1
			s0.5,0.1,0.8,0.2v1.4c-0.2-0.1-0.5-0.2-0.8-0.3s-0.5-0.1-0.8-0.1c-0.1,0-0.2,0-0.3,0s-0.2,0.1-0.3,0.1s-0.1,0.1-0.2,0.2
			s-0.1,0.1-0.1,0.2c0,0.1,0,0.2,0.1,0.3s0.2,0.1,0.3,0.2s0.2,0.1,0.4,0.2s0.3,0.1,0.4,0.1c0.2,0.1,0.5,0.2,0.7,0.3s0.4,0.2,0.5,0.4
			s0.3,0.3,0.3,0.5s0.1,0.4,0.1,0.7c0,0.4-0.1,0.7-0.2,0.9s-0.4,0.5-0.6,0.6s-0.6,0.3-0.9,0.3s-0.7,0.1-1,0.1
			C441.4,118.4,440.8,118.3,440.2,118.1z"/>
		<path class="st15" d="M448.8,118.4c-1,0-1.8-0.3-2.4-0.8s-0.9-1.3-0.9-2.3c0-1,0.3-1.8,0.9-2.3s1.4-0.8,2.4-0.8
			c1,0,1.8,0.3,2.3,0.8s0.8,1.3,0.8,2.2c0,1-0.3,1.8-0.9,2.4S449.8,118.4,448.8,118.4z M448.8,113.5c-0.4,0-0.8,0.2-1,0.5
			s-0.4,0.7-0.4,1.3c0,1.2,0.5,1.7,1.4,1.7c0.9,0,1.3-0.6,1.3-1.8C450.1,114.1,449.7,113.5,448.8,113.5z"/>
		<path class="st15" d="M457,110.8c-0.2-0.1-0.5-0.1-0.7-0.1c-0.6,0-0.9,0.3-0.9,1v0.6h1.4v1.4h-1.4v4.6h-1.8v-4.6h-1v-1.4h1v-0.7
			c0-0.7,0.2-1.2,0.7-1.7s1.1-0.6,1.8-0.6c0.4,0,0.7,0,0.9,0.1V110.8z"/>
		<path class="st15" d="M461.5,118.2c-0.3,0.1-0.7,0.2-1.2,0.2c-1.3,0-2-0.7-2-2v-2.7h-1v-1.4h1v-1.3l1.8-0.5v1.8h1.3v1.4h-1.3v2.4
			c0,0.6,0.2,0.9,0.7,0.9c0.2,0,0.4-0.1,0.6-0.2V118.2z"/>
		<path class="st15" d="M413.6,132.1c-0.8,0.5-1.8,0.7-3.1,0.7c-1.4,0-2.4-0.4-3.2-1.1s-1.2-1.8-1.2-3.1c0-1.3,0.4-2.4,1.3-3.2
			s2-1.2,3.4-1.2c0.9,0,1.7,0.1,2.4,0.4v1.8c-0.6-0.4-1.4-0.6-2.4-0.6c-0.8,0-1.4,0.3-1.9,0.8s-0.7,1.2-0.7,2c0,0.9,0.2,1.5,0.7,2
			s1,0.7,1.8,0.7c0.5,0,0.8-0.1,1.1-0.2v-1.6h-1.7v-1.5h3.6V132.1z"/>
		<path class="st15" d="M419,128.3c-0.2-0.1-0.5-0.2-0.8-0.2c-0.4,0-0.7,0.1-0.9,0.4s-0.3,0.7-0.3,1.2v2.9h-1.9v-6h1.9v1.1h0
			c0.3-0.8,0.8-1.2,1.6-1.2c0.2,0,0.3,0,0.5,0.1V128.3z"/>
		<path class="st15" d="M424.8,132.6h-1.8v-0.9h0c-0.4,0.7-1,1-1.8,1c-0.6,0-1-0.2-1.4-0.5s-0.5-0.8-0.5-1.3c0-1.2,0.7-1.8,2.1-2
			l1.6-0.2c0-0.7-0.4-1-1.1-1c-0.7,0-1.4,0.2-2,0.6V127c0.3-0.1,0.6-0.3,1.1-0.4s0.9-0.2,1.2-0.2c1.7,0,2.6,0.9,2.6,2.6V132.6z
			 M423.1,130.2v-0.4l-1.1,0.1c-0.6,0.1-0.9,0.3-0.9,0.8c0,0.2,0.1,0.4,0.2,0.5s0.3,0.2,0.6,0.2c0.3,0,0.6-0.1,0.8-0.4
			S423.1,130.6,423.1,130.2z"/>
		<path class="st15" d="M428.2,131.9L428.2,131.9l0,3.5h-1.9v-8.8h1.9v0.9h0c0.5-0.7,1.1-1,1.9-1c0.8,0,1.4,0.3,1.8,0.8
			s0.6,1.3,0.6,2.2c0,1-0.2,1.8-0.7,2.4s-1.2,0.9-2,0.9C429.1,132.8,428.6,132.5,428.2,131.9z M428.1,129.5v0.5c0,0.4,0.1,0.8,0.3,1
			s0.5,0.4,0.9,0.4c0.4,0,0.7-0.2,1-0.5s0.3-0.8,0.3-1.4c0-1.1-0.4-1.6-1.2-1.6c-0.4,0-0.7,0.1-0.9,0.4S428.1,129,428.1,129.5z"/>
		<path class="st15" d="M439.5,132.6h-1.8v-3.4c0-0.9-0.3-1.3-1-1.3c-0.3,0-0.6,0.1-0.8,0.4s-0.3,0.6-0.3,0.9v3.4h-1.9v-8.9h1.9v3.8
			h0c0.5-0.7,1.1-1,1.8-1c1.4,0,2,0.8,2,2.5V132.6z"/>
	</g>
	<g>
		<path class="st13" d="M192.5,9.6h-1.1l-0.9-2.4H187l-0.8,2.4H185l3.2-8.4h1L192.5,9.6z M190.2,6.3l-1.3-3.6c0-0.1-0.1-0.3-0.1-0.6
			h0c0,0.2-0.1,0.4-0.1,0.6l-1.3,3.6H190.2z"/>
		<path class="st13" d="M197.6,9.3c-0.5,0.3-1,0.4-1.6,0.4c-0.9,0-1.5-0.3-2.1-0.8s-0.8-1.3-0.8-2.2c0-1,0.3-1.8,0.8-2.4
			s1.3-0.9,2.3-0.9c0.5,0,1,0.1,1.4,0.3v1c-0.4-0.3-0.9-0.5-1.4-0.5c-0.6,0-1.1,0.2-1.5,0.7s-0.6,1-0.6,1.7c0,0.7,0.2,1.3,0.6,1.7
			s0.9,0.6,1.5,0.6c0.5,0,1-0.2,1.5-0.5V9.3z"/>
		<path class="st13" d="M204.1,12.3h-1V8.5h0c-0.4,0.8-1.1,1.2-2.1,1.2c-0.8,0-1.4-0.3-1.8-0.8s-0.7-1.3-0.7-2.2
			c0-1,0.3-1.8,0.8-2.4s1.2-0.9,2-0.9c0.8,0,1.4,0.3,1.8,1h0V3.6h1V12.3z M203.1,6.9V6c0-0.5-0.2-0.9-0.5-1.2s-0.7-0.5-1.2-0.5
			c-0.6,0-1,0.2-1.4,0.6s-0.5,1-0.5,1.8c0,0.7,0.2,1.2,0.5,1.6s0.7,0.6,1.3,0.6c0.6,0,1-0.2,1.3-0.6S203.1,7.5,203.1,6.9z"/>
		<path class="st13" d="M210.8,9.6h-1V8.6h0c-0.4,0.7-1,1.1-1.9,1.1c-1.4,0-2.1-0.9-2.1-2.6V3.6h1V7c0,1.3,0.5,1.9,1.5,1.9
			c0.5,0,0.9-0.2,1.2-0.5s0.5-0.8,0.5-1.4V3.6h1V9.6z"/>
		<path class="st13" d="M217.5,6.8h-4.2c0,0.7,0.2,1.2,0.5,1.5s0.8,0.5,1.4,0.5c0.7,0,1.3-0.2,1.9-0.7v0.9c-0.5,0.4-1.2,0.6-2.1,0.6
			c-0.8,0-1.5-0.3-2-0.8s-0.7-1.3-0.7-2.3c0-0.9,0.3-1.7,0.8-2.3s1.2-0.9,2-0.9s1.4,0.3,1.8,0.8s0.6,1.2,0.6,2.1V6.8z M216.5,6
			c0-0.6-0.1-1-0.4-1.3s-0.6-0.5-1.1-0.5c-0.5,0-0.8,0.2-1.2,0.5s-0.5,0.7-0.6,1.3H216.5z M216.3,0.5l-1.5,1.9H214l1.3-1.9H216.3z"
			/>
		<path class="st13" d="M221.9,4.5c-0.2-0.1-0.4-0.2-0.7-0.2c-0.4,0-0.8,0.2-1,0.6s-0.4,0.9-0.4,1.6v3.1h-1v-6h1v1.2h0
			c0.1-0.4,0.3-0.8,0.6-1s0.6-0.4,0.9-0.4c0.3,0,0.4,0,0.6,0.1V4.5z"/>
		<path class="st13" d="M223.4,2c-0.2,0-0.3-0.1-0.4-0.2s-0.2-0.3-0.2-0.4s0.1-0.3,0.2-0.4s0.3-0.2,0.4-0.2c0.2,0,0.3,0.1,0.4,0.2
			s0.2,0.3,0.2,0.4c0,0.2-0.1,0.3-0.2,0.4S223.6,2,223.4,2z M223.8,9.6h-1v-6h1V9.6z"/>
		<path class="st13" d="M228.8,4.5c-0.2-0.1-0.4-0.2-0.7-0.2c-0.4,0-0.8,0.2-1,0.6s-0.4,0.9-0.4,1.6v3.1h-1v-6h1v1.2h0
			c0.1-0.4,0.3-0.8,0.6-1s0.6-0.4,0.9-0.4c0.3,0,0.4,0,0.6,0.1V4.5z"/>
		<path class="st13" d="M237.8,9.6h-1V8.6h0c-0.4,0.7-1,1.1-1.9,1.1c-1.4,0-2.1-0.9-2.1-2.6V3.6h1V7c0,1.3,0.5,1.9,1.5,1.9
			c0.5,0,0.9-0.2,1.2-0.5s0.5-0.8,0.5-1.4V3.6h1V9.6z"/>
		<path class="st13" d="M244.6,9.6h-1V6.1c0-1.3-0.5-1.9-1.4-1.9c-0.5,0-0.9,0.2-1.2,0.5s-0.5,0.8-0.5,1.4v3.4h-1v-6h1v1h0
			c0.5-0.8,1.1-1.1,2-1.1c0.7,0,1.2,0.2,1.5,0.6s0.5,1,0.5,1.8V9.6z"/>
		<path class="st13" d="M250.5,9.3c0,1-0.2,1.7-0.6,2.3s-1,0.8-1.7,0.8c-0.3,0-0.5-0.1-0.8-0.2v-0.9c0.3,0.2,0.6,0.3,0.8,0.3
			c0.9,0,1.3-0.7,1.3-2.1V3.6h1V9.3z M250,2c-0.2,0-0.3-0.1-0.4-0.2s-0.2-0.3-0.2-0.4s0.1-0.3,0.2-0.4s0.3-0.2,0.4-0.2
			c0.2,0,0.3,0.1,0.4,0.2s0.2,0.3,0.2,0.4c0,0.2-0.1,0.3-0.2,0.4S250.2,2,250,2z"/>
		<path class="st13" d="M257.2,6.8h-4.2c0,0.7,0.2,1.2,0.5,1.5s0.8,0.5,1.4,0.5c0.7,0,1.3-0.2,1.9-0.7v0.9c-0.5,0.4-1.2,0.6-2.1,0.6
			c-0.8,0-1.5-0.3-2-0.8s-0.7-1.3-0.7-2.3c0-0.9,0.3-1.7,0.8-2.3s1.2-0.9,2-0.9s1.4,0.3,1.8,0.8s0.6,1.2,0.6,2.1V6.8z M256.2,6
			c0-0.6-0.1-1-0.4-1.3s-0.6-0.5-1.1-0.5c-0.5,0-0.8,0.2-1.2,0.5S253,5.5,253,6H256.2z"/>
		<path class="st13" d="M261.3,9.5c-0.2,0.1-0.5,0.2-0.9,0.2c-1.1,0-1.6-0.6-1.6-1.8V4.4h-1V3.6h1V2.1l1-0.3v1.8h1.5v0.8h-1.5v3.4
			c0,0.4,0.1,0.7,0.2,0.9s0.4,0.3,0.7,0.3c0.2,0,0.5-0.1,0.6-0.2V9.5z"/>
		<path class="st13" d="M265,9.7c-0.9,0-1.6-0.3-2.1-0.8s-0.8-1.3-0.8-2.2c0-1,0.3-1.8,0.8-2.4s1.3-0.8,2.2-0.8
			c0.9,0,1.6,0.3,2.1,0.8s0.8,1.3,0.8,2.3c0,1-0.3,1.7-0.8,2.3S265.9,9.7,265,9.7z M265.1,4.2c-0.6,0-1.1,0.2-1.5,0.6
			s-0.5,1-0.5,1.7c0,0.7,0.2,1.3,0.5,1.7s0.8,0.6,1.5,0.6c0.6,0,1.1-0.2,1.4-0.6s0.5-1,0.5-1.7c0-0.8-0.2-1.3-0.5-1.7
			S265.7,4.2,265.1,4.2z"/>
		<path class="st13" d="M274.4,9.6h-1V6.1c0-1.3-0.5-1.9-1.4-1.9c-0.5,0-0.9,0.2-1.2,0.5s-0.5,0.8-0.5,1.4v3.4h-1v-6h1v1h0
			c0.5-0.8,1.1-1.1,2-1.1c0.7,0,1.2,0.2,1.5,0.6s0.5,1,0.5,1.8V9.6z"/>
	</g>
	<g>
		<path class="st13" d="M207.7,34.4c0,1-0.2,1.8-0.6,2.3s-1,0.8-1.7,0.8c-0.3,0-0.6,0-0.8-0.1v-1c0.2,0.2,0.5,0.2,0.8,0.2
			c0.9,0,1.3-0.8,1.3-2.3v-5.4h1V34.4z"/>
		<path class="st13" d="M214.4,34.7h-4.2c0,0.7,0.2,1.2,0.5,1.5s0.8,0.5,1.4,0.5c0.7,0,1.3-0.2,1.9-0.7V37c-0.5,0.4-1.2,0.6-2.1,0.6
			c-0.8,0-1.5-0.3-2-0.8s-0.7-1.3-0.7-2.3c0-0.9,0.3-1.7,0.8-2.3s1.2-0.9,2-0.9s1.4,0.3,1.8,0.8s0.6,1.2,0.6,2.1V34.7z M213.4,33.9
			c0-0.6-0.1-1-0.4-1.3s-0.6-0.5-1.1-0.5c-0.5,0-0.8,0.2-1.2,0.5s-0.5,0.7-0.6,1.3H213.4z"/>
		<path class="st13" d="M218.6,37.4c-0.2,0.1-0.5,0.2-0.9,0.2c-1.1,0-1.6-0.6-1.6-1.8v-3.6h-1v-0.8h1V30l1-0.3v1.8h1.5v0.8h-1.5v3.4
			c0,0.4,0.1,0.7,0.2,0.9s0.4,0.3,0.7,0.3c0.2,0,0.5-0.1,0.6-0.2V37.4z"/>
		<path class="st13" d="M222.3,37.6c-0.9,0-1.6-0.3-2.1-0.8s-0.8-1.3-0.8-2.2c0-1,0.3-1.8,0.8-2.4s1.3-0.8,2.2-0.8
			c0.9,0,1.6,0.3,2.1,0.8s0.8,1.3,0.8,2.3c0,1-0.3,1.7-0.8,2.3S223.2,37.6,222.3,37.6z M222.4,32.1c-0.6,0-1.1,0.2-1.5,0.6
			s-0.5,1-0.5,1.7c0,0.7,0.2,1.3,0.5,1.7s0.8,0.6,1.5,0.6c0.6,0,1.1-0.2,1.4-0.6s0.5-1,0.5-1.7c0-0.8-0.2-1.3-0.5-1.7
			S223,32.1,222.4,32.1z"/>
		<path class="st13" d="M231.7,37.5h-1V34c0-1.3-0.5-1.9-1.4-1.9c-0.5,0-0.9,0.2-1.2,0.5s-0.5,0.8-0.5,1.4v3.4h-1v-6h1v1h0
			c0.5-0.8,1.1-1.1,2-1.1c0.7,0,1.2,0.2,1.5,0.6s0.5,1,0.5,1.8V37.5z"/>
		<path class="st13" d="M241.8,37.5h-1v-1h0c-0.4,0.8-1.1,1.2-2.1,1.2c-0.8,0-1.4-0.3-1.8-0.8s-0.7-1.3-0.7-2.2c0-1,0.3-1.8,0.8-2.4
			s1.2-0.9,2-0.9c0.8,0,1.4,0.3,1.8,1h0v-3.7h1V37.5z M240.8,34.7v-0.9c0-0.5-0.2-0.9-0.5-1.2s-0.7-0.5-1.2-0.5
			c-0.6,0-1,0.2-1.4,0.6s-0.5,1-0.5,1.8c0,0.7,0.2,1.2,0.5,1.6s0.8,0.6,1.3,0.6c0.5,0,1-0.2,1.3-0.6S240.8,35.3,240.8,34.7z"/>
		<path class="st13" d="M244.9,28.9l-0.8,2.6h-0.7l0.7-2.6H244.9z"/>
		<path class="st13" d="M250.6,37.5h-1v-0.9h0c-0.4,0.7-1,1.1-1.8,1.1c-0.6,0-1.1-0.2-1.4-0.5s-0.5-0.7-0.5-1.3c0-1.1,0.7-1.8,2-2
			l1.8-0.3c0-1-0.4-1.5-1.2-1.5c-0.7,0-1.4,0.2-2,0.7v-1c0.6-0.4,1.3-0.6,2-0.6c1.4,0,2.1,0.7,2.1,2.2V37.5z M249.7,34.4l-1.4,0.2
			c-0.4,0.1-0.8,0.2-1,0.3s-0.3,0.4-0.3,0.8c0,0.3,0.1,0.5,0.3,0.7s0.5,0.3,0.8,0.3c0.5,0,0.9-0.2,1.2-0.5s0.5-0.8,0.5-1.3V34.4z"/>
		<path class="st13" d="M256.5,37.2c-0.5,0.3-1,0.4-1.6,0.4c-0.9,0-1.5-0.3-2.1-0.8s-0.8-1.3-0.8-2.2c0-1,0.3-1.8,0.8-2.4
			s1.3-0.9,2.3-0.9c0.5,0,1,0.1,1.4,0.3v1c-0.4-0.3-0.9-0.5-1.4-0.5c-0.6,0-1.1,0.2-1.5,0.7s-0.6,1-0.6,1.7c0,0.7,0.2,1.3,0.6,1.7
			s0.9,0.6,1.5,0.6c0.5,0,1-0.2,1.5-0.5V37.2z"/>
		<path class="st13" d="M261.9,37.2c-0.5,0.3-1,0.4-1.6,0.4c-0.9,0-1.5-0.3-2.1-0.8s-0.8-1.3-0.8-2.2c0-1,0.3-1.8,0.8-2.4
			s1.3-0.9,2.3-0.9c0.5,0,1,0.1,1.4,0.3v1c-0.4-0.3-0.9-0.5-1.4-0.5c-0.6,0-1.1,0.2-1.5,0.7s-0.6,1-0.6,1.7c0,0.7,0.2,1.3,0.6,1.7
			s0.9,0.6,1.5,0.6c0.5,0,1-0.2,1.5-0.5V37.2z"/>
		<path class="st13" d="M268.1,34.7h-4.2c0,0.7,0.2,1.2,0.5,1.5s0.8,0.5,1.4,0.5c0.7,0,1.3-0.2,1.9-0.7V37c-0.5,0.4-1.2,0.6-2.1,0.6
			c-0.8,0-1.5-0.3-2-0.8s-0.7-1.3-0.7-2.3c0-0.9,0.3-1.7,0.8-2.3s1.2-0.9,2-0.9s1.4,0.3,1.8,0.8s0.6,1.2,0.6,2.1V34.7z M267.2,33.9
			c0-0.6-0.1-1-0.4-1.3s-0.6-0.5-1.1-0.5c-0.5,0-0.8,0.2-1.2,0.5s-0.5,0.7-0.6,1.3H267.2z M266.6,30.3h-0.7l-1.5-1.9h1L266.6,30.3z"
			/>
		<path class="st13" d="M269.2,37.2v-1c0.5,0.4,1.1,0.6,1.7,0.6c0.8,0,1.3-0.3,1.3-0.8c0-0.2,0-0.3-0.1-0.4s-0.2-0.2-0.3-0.3
			s-0.3-0.2-0.4-0.2s-0.3-0.1-0.5-0.2c-0.3-0.1-0.5-0.2-0.7-0.3s-0.4-0.2-0.5-0.4s-0.2-0.3-0.3-0.5s-0.1-0.4-0.1-0.6
			c0-0.3,0.1-0.5,0.2-0.7s0.3-0.4,0.5-0.5s0.5-0.3,0.7-0.3s0.6-0.1,0.9-0.1c0.5,0,1,0.1,1.4,0.3v1c-0.4-0.3-0.9-0.4-1.5-0.4
			c-0.2,0-0.3,0-0.5,0.1s-0.3,0.1-0.4,0.2s-0.2,0.2-0.2,0.3s-0.1,0.2-0.1,0.3c0,0.2,0,0.3,0.1,0.4s0.1,0.2,0.2,0.3s0.2,0.2,0.4,0.2
			s0.3,0.1,0.5,0.2c0.3,0.1,0.5,0.2,0.7,0.3s0.4,0.2,0.5,0.4s0.3,0.3,0.3,0.5s0.1,0.4,0.1,0.6c0,0.3-0.1,0.6-0.2,0.8
			s-0.3,0.4-0.5,0.5s-0.5,0.3-0.8,0.3s-0.6,0.1-0.9,0.1C270.2,37.6,269.6,37.5,269.2,37.2z"/>
	</g>
	<g>
		<path class="st13" d="M192,134.4h-1.2l-1.4-2.4c-0.1-0.2-0.3-0.4-0.4-0.6s-0.2-0.3-0.4-0.4s-0.3-0.2-0.4-0.2s-0.3-0.1-0.5-0.1H187
			v3.6h-1V126h2.5c0.4,0,0.7,0,1,0.1s0.6,0.2,0.8,0.4s0.4,0.4,0.5,0.7s0.2,0.6,0.2,1c0,0.3,0,0.6-0.1,0.8s-0.2,0.5-0.4,0.7
			s-0.4,0.4-0.6,0.5s-0.5,0.2-0.8,0.3v0c0.1,0.1,0.3,0.1,0.4,0.2s0.2,0.2,0.3,0.3s0.2,0.2,0.3,0.4s0.2,0.3,0.3,0.5L192,134.4z
			 M187,126.9v3h1.3c0.2,0,0.5,0,0.7-0.1s0.4-0.2,0.5-0.3s0.3-0.3,0.4-0.5s0.1-0.4,0.1-0.7c0-0.4-0.1-0.8-0.4-1.1s-0.7-0.4-1.3-0.4
			H187z"/>
		<path class="st13" d="M197.5,131.7h-4.2c0,0.7,0.2,1.2,0.5,1.5s0.8,0.5,1.4,0.5c0.7,0,1.3-0.2,1.9-0.7v0.9
			c-0.5,0.4-1.2,0.6-2.1,0.6c-0.8,0-1.5-0.3-2-0.8s-0.7-1.3-0.7-2.3c0-0.9,0.3-1.7,0.8-2.3s1.2-0.9,2-0.9s1.4,0.3,1.8,0.8
			s0.6,1.2,0.6,2.1V131.7z M196.5,130.9c0-0.6-0.1-1-0.4-1.3s-0.6-0.5-1.1-0.5c-0.5,0-0.8,0.2-1.2,0.5s-0.5,0.7-0.6,1.3H196.5z
			 M196.3,125.4l-1.5,1.9h-0.7l1.3-1.9H196.3z"/>
		<path class="st13" d="M199.9,133.6L199.9,133.6l0,3.6h-1v-8.8h1v1.1h0c0.5-0.8,1.2-1.2,2.1-1.2c0.8,0,1.4,0.3,1.8,0.8
			s0.7,1.3,0.7,2.2c0,1-0.2,1.8-0.7,2.4s-1.2,0.9-2,0.9C200.9,134.6,200.3,134.2,199.9,133.6z M199.9,131.1v0.8
			c0,0.5,0.2,0.9,0.5,1.3s0.7,0.5,1.2,0.5c0.6,0,1-0.2,1.4-0.7s0.5-1.1,0.5-1.9c0-0.7-0.2-1.2-0.5-1.6s-0.7-0.6-1.3-0.6
			c-0.6,0-1,0.2-1.3,0.6S199.9,130.6,199.9,131.1z"/>
		<path class="st13" d="M208.4,134.6c-0.9,0-1.6-0.3-2.1-0.8s-0.8-1.3-0.8-2.2c0-1,0.3-1.8,0.8-2.4s1.3-0.8,2.2-0.8
			c0.9,0,1.6,0.3,2.1,0.8s0.8,1.3,0.8,2.3c0,1-0.3,1.7-0.8,2.3S209.3,134.6,208.4,134.6z M208.5,129.1c-0.6,0-1.1,0.2-1.5,0.6
			s-0.5,1-0.5,1.7c0,0.7,0.2,1.3,0.5,1.7s0.8,0.6,1.5,0.6c0.6,0,1.1-0.2,1.4-0.6s0.5-1,0.5-1.7c0-0.8-0.2-1.3-0.5-1.7
			S209.1,129.1,208.5,129.1z"/>
		<path class="st13" d="M217.9,134.4h-1V131c0-1.3-0.5-1.9-1.4-1.9c-0.5,0-0.9,0.2-1.2,0.5s-0.5,0.8-0.5,1.4v3.4h-1v-6h1v1h0
			c0.5-0.8,1.1-1.1,2-1.1c0.7,0,1.2,0.2,1.5,0.6s0.5,1,0.5,1.8V134.4z"/>
		<path class="st13" d="M219.3,134.2v-1c0.5,0.4,1.1,0.6,1.7,0.6c0.8,0,1.3-0.3,1.3-0.8c0-0.2,0-0.3-0.1-0.4s-0.2-0.2-0.3-0.3
			s-0.3-0.2-0.4-0.2s-0.3-0.1-0.5-0.2c-0.3-0.1-0.5-0.2-0.7-0.3s-0.4-0.2-0.5-0.4s-0.2-0.3-0.3-0.5s-0.1-0.4-0.1-0.6
			c0-0.3,0.1-0.5,0.2-0.7s0.3-0.4,0.5-0.5s0.5-0.3,0.7-0.3s0.6-0.1,0.9-0.1c0.5,0,1,0.1,1.4,0.3v1c-0.4-0.3-0.9-0.4-1.5-0.4
			c-0.2,0-0.3,0-0.5,0.1s-0.3,0.1-0.4,0.2s-0.2,0.2-0.2,0.3s-0.1,0.2-0.1,0.3c0,0.2,0,0.3,0.1,0.4s0.1,0.2,0.2,0.3s0.2,0.2,0.4,0.2
			s0.3,0.1,0.5,0.2c0.3,0.1,0.5,0.2,0.7,0.3s0.4,0.2,0.5,0.4s0.3,0.3,0.3,0.5s0.1,0.4,0.1,0.6c0,0.3-0.1,0.6-0.2,0.8
			s-0.3,0.4-0.5,0.5s-0.5,0.3-0.8,0.3s-0.6,0.1-0.9,0.1C220.3,134.6,219.8,134.5,219.3,134.2z"/>
		<path class="st13" d="M229.6,131.7h-4.2c0,0.7,0.2,1.2,0.5,1.5s0.8,0.5,1.4,0.5c0.7,0,1.3-0.2,1.9-0.7v0.9
			c-0.5,0.4-1.2,0.6-2.1,0.6c-0.8,0-1.5-0.3-2-0.8s-0.7-1.3-0.7-2.3c0-0.9,0.3-1.7,0.8-2.3s1.2-0.9,2-0.9s1.4,0.3,1.8,0.8
			s0.6,1.2,0.6,2.1V131.7z M228.6,130.9c0-0.6-0.1-1-0.4-1.3s-0.6-0.5-1.1-0.5c-0.5,0-0.8,0.2-1.2,0.5s-0.5,0.7-0.6,1.3H228.6z"/>
		<path class="st13" d="M240.7,134.4h-1v-3.8h-4.3v3.8h-1V126h1v3.7h4.3V126h1V134.4z"/>
		<path class="st13" d="M247.8,126.9h-2.4v7.5h-1v-7.5H242V126h5.8V126.9z"/>
		<path class="st13" d="M254.3,126.9h-2.4v7.5h-1v-7.5h-2.4V126h5.8V126.9z"/>
		<path class="st13" d="M256.6,131.3v3.2h-1V126h2.3c0.9,0,1.6,0.2,2.1,0.7s0.7,1.1,0.7,1.9s-0.3,1.4-0.8,2s-1.3,0.8-2.2,0.8H256.6z
			 M256.6,126.9v3.4h1c0.7,0,1.2-0.2,1.6-0.5s0.5-0.7,0.5-1.3c0-1.1-0.7-1.7-2-1.7H256.6z"/>
	</g>
</g>
</svg>
