<?xml version="1.0" encoding="utf-8"?>
<!-- Generator: Adobe Illustrator 22.1.0, SVG Export Plug-In . SVG Version: 6.00 Build 0)  -->
<svg version="1.1" id="Layer_1" xmlns="http://www.w3.org/2000/svg" xmlns:xlink="http://www.w3.org/1999/xlink" x="0px" y="0px"
	 viewBox="0 0 250 41" style="enable-background:new 0 0 250 41;" xml:space="preserve">
<style type="text/css">
	.st0{enable-background:new    ;}
	.st1{fill:#5E5E5E;}
</style>
<image style="overflow:visible;enable-background:new    ;" width="250" height="41" id="Background" xlink:href="B625C36.jpg"  transform="matrix(1 0 0 1 0 1.682073e-05)">
</image>
<g id="Sign_in_with_Microsoft" class="st0">
	<path class="st1" d="M46.1,25.3v-1.8c0.2,0.1,0.4,0.3,0.6,0.4c0.2,0.1,0.5,0.2,0.7,0.3c0.2,0.1,0.5,0.1,0.7,0.2
		c0.2,0,0.5,0.1,0.7,0.1c0.7,0,1.3-0.1,1.6-0.4c0.4-0.2,0.5-0.6,0.5-1.1c0-0.2-0.1-0.5-0.2-0.6c-0.1-0.2-0.3-0.3-0.5-0.5
		s-0.5-0.3-0.8-0.4S49,21.2,48.6,21c-0.4-0.2-0.7-0.4-1-0.6s-0.6-0.4-0.8-0.6s-0.4-0.5-0.5-0.8c-0.1-0.3-0.2-0.6-0.2-1
		c0-0.5,0.1-0.9,0.3-1.3s0.5-0.7,0.9-0.9s0.8-0.4,1.2-0.5c0.5-0.1,0.9-0.2,1.4-0.2c1.1,0,1.9,0.1,2.4,0.4v1.7
		c-0.6-0.4-1.4-0.6-2.3-0.6c-0.3,0-0.5,0-0.8,0.1c-0.3,0-0.5,0.1-0.7,0.2c-0.2,0.1-0.4,0.3-0.5,0.4c-0.1,0.2-0.2,0.4-0.2,0.6
		c0,0.2,0,0.4,0.1,0.6s0.2,0.3,0.4,0.5c0.2,0.1,0.4,0.3,0.7,0.4c0.3,0.1,0.6,0.3,0.9,0.4c0.4,0.2,0.7,0.4,1,0.6
		c0.3,0.2,0.6,0.4,0.9,0.7c0.2,0.3,0.4,0.5,0.6,0.8c0.1,0.3,0.2,0.7,0.2,1.1c0,0.5-0.1,1-0.3,1.3S52,25,51.6,25.2
		c-0.4,0.2-0.8,0.4-1.2,0.5c-0.5,0.1-1,0.2-1.5,0.2c-0.2,0-0.4,0-0.6,0c-0.3,0-0.5-0.1-0.8-0.1c-0.3-0.1-0.5-0.1-0.8-0.2
		C46.5,25.5,46.3,25.4,46.1,25.3z"/>
	<path class="st1" d="M60.8,22.4h-5.1c0,0.7,0.2,1.2,0.6,1.6c0.4,0.4,1,0.6,1.7,0.6c0.8,0,1.5-0.2,2.2-0.7v1.4
		c-0.7,0.4-1.6,0.6-2.7,0.6c-1.1,0-2-0.3-2.6-1c-0.6-0.7-0.9-1.6-0.9-2.9c0-1.2,0.3-2.1,1-2.8s1.5-1.1,2.6-1.1s1.8,0.3,2.4,1
		c0.6,0.7,0.8,1.6,0.8,2.7V22.4z M59.2,21.3c0-0.6-0.1-1.1-0.4-1.4c-0.3-0.3-0.7-0.5-1.2-0.5c-0.5,0-0.9,0.2-1.2,0.5
		c-0.3,0.4-0.5,0.8-0.6,1.4H59.2z"/>
	<path class="st1" d="M71.9,25.4c-0.6,0.3-1.3,0.5-2.1,0.5c-1.1,0-2-0.3-2.7-1c-0.7-0.7-1-1.6-1-2.7c0-1.2,0.4-2.2,1.1-3
		c0.7-0.7,1.7-1.1,2.9-1.1c0.7,0,1.3,0.1,1.8,0.4V20c-0.5-0.4-1.1-0.6-1.7-0.6c-0.7,0-1.3,0.2-1.8,0.7c-0.5,0.5-0.7,1.1-0.7,1.9
		c0,0.8,0.2,1.4,0.6,1.8c0.4,0.4,1,0.7,1.7,0.7c0.6,0,1.2-0.2,1.7-0.6V25.4z"/>
	<path class="st1" d="M76.9,25.9c-1.1,0-2.1-0.3-2.8-1c-0.7-0.7-1-1.6-1-2.8c0-1.3,0.4-2.2,1.1-2.9c0.7-0.7,1.7-1.1,2.9-1.1
		c1.2,0,2.1,0.3,2.7,1s1,1.6,1,2.8c0,1.2-0.4,2.1-1.1,2.9C79,25.5,78,25.9,76.9,25.9z M76.9,19.4c-0.7,0-1.2,0.2-1.6,0.7
		c-0.4,0.5-0.6,1.1-0.6,1.9c0,0.8,0.2,1.4,0.6,1.8s0.9,0.7,1.6,0.7c0.7,0,1.2-0.2,1.5-0.7c0.4-0.4,0.5-1.1,0.5-1.9
		c0-0.8-0.2-1.5-0.5-1.9C78.1,19.7,77.6,19.4,76.9,19.4z"/>
	<path class="st1" d="M89.1,25.7h-1.7v-4.2c0-1.4-0.5-2.1-1.5-2.1c-0.5,0-0.9,0.2-1.3,0.6c-0.3,0.4-0.5,0.9-0.5,1.5v4.2h-1.7v-7.5
		h1.7v1.2h0c0.6-0.9,1.4-1.4,2.4-1.4c0.8,0,1.4,0.3,1.9,0.8s0.6,1.3,0.6,2.3V25.7z"/>
	<path class="st1" d="M97.8,25.7h-1.7v-4.2c0-1.4-0.5-2.1-1.5-2.1c-0.5,0-0.9,0.2-1.3,0.6c-0.3,0.4-0.5,0.9-0.5,1.5v4.2h-1.7v-7.5
		h1.7v1.2h0c0.6-0.9,1.4-1.4,2.4-1.4c0.8,0,1.4,0.3,1.9,0.8s0.6,1.3,0.6,2.3V25.7z"/>
	<path class="st1" d="M106.2,22.4h-5.1c0,0.7,0.2,1.2,0.6,1.6c0.4,0.4,1,0.6,1.7,0.6c0.8,0,1.5-0.2,2.2-0.7v1.4
		c-0.7,0.4-1.6,0.6-2.7,0.6c-1.1,0-2-0.3-2.6-1c-0.6-0.7-0.9-1.6-0.9-2.9c0-1.2,0.3-2.1,1-2.8s1.5-1.1,2.6-1.1s1.8,0.3,2.4,1
		c0.6,0.7,0.8,1.6,0.8,2.7V22.4z M104.5,21.3c0-0.6-0.1-1.1-0.4-1.4c-0.3-0.3-0.7-0.5-1.2-0.5c-0.5,0-0.9,0.2-1.2,0.5
		c-0.3,0.4-0.5,0.8-0.6,1.4H104.5z"/>
	<path class="st1" d="M113.1,25.4c-0.6,0.3-1.3,0.5-2.1,0.5c-1.1,0-2-0.3-2.7-1c-0.7-0.7-1-1.6-1-2.7c0-1.2,0.4-2.2,1.1-3
		c0.7-0.7,1.7-1.1,2.9-1.1c0.7,0,1.3,0.1,1.8,0.4V20c-0.5-0.4-1.1-0.6-1.7-0.6c-0.7,0-1.3,0.2-1.8,0.7c-0.5,0.5-0.7,1.1-0.7,1.9
		c0,0.8,0.2,1.4,0.6,1.8c0.4,0.4,1,0.7,1.7,0.7c0.6,0,1.2-0.2,1.7-0.6V25.4z"/>
	<path class="st1" d="M118.7,25.6c-0.3,0.2-0.8,0.2-1.3,0.2c-1.4,0-2.2-0.7-2.2-2.1v-4.2H114v-1.3h1.2v-1.7l1.7-0.5v2.2h1.8v1.3
		h-1.8v3.7c0,0.4,0.1,0.8,0.2,0.9c0.2,0.2,0.4,0.3,0.8,0.3c0.3,0,0.5-0.1,0.7-0.2V25.6z"/>
	<path class="st1" d="M126.4,22.4h-5.1c0,0.7,0.2,1.2,0.6,1.6c0.4,0.4,1,0.6,1.7,0.6c0.8,0,1.5-0.2,2.2-0.7v1.4
		c-0.7,0.4-1.6,0.6-2.7,0.6c-1.1,0-2-0.3-2.6-1c-0.6-0.7-0.9-1.6-0.9-2.9c0-1.2,0.3-2.1,1-2.8s1.5-1.1,2.6-1.1s1.8,0.3,2.4,1
		c0.6,0.7,0.8,1.6,0.8,2.7V22.4z M124.7,21.3c0-0.6-0.1-1.1-0.4-1.4c-0.3-0.3-0.7-0.5-1.2-0.5c-0.5,0-0.9,0.2-1.2,0.5
		c-0.3,0.4-0.5,0.8-0.6,1.4H124.7z"/>
	<path class="st1" d="M132.3,19.9c-0.2-0.2-0.5-0.2-0.9-0.2c-0.5,0-0.9,0.2-1.3,0.7c-0.3,0.5-0.5,1.1-0.5,1.8v3.6H128v-7.5h1.7v1.5
		h0c0.2-0.5,0.4-0.9,0.8-1.2s0.7-0.4,1.1-0.4c0.3,0,0.5,0,0.7,0.1V19.9z"/>
	<path class="st1" d="M143.3,25.7h-1.6v-1.2h0c-0.5,0.9-1.3,1.3-2.3,1.3c-0.7,0-1.3-0.2-1.7-0.6c-0.4-0.4-0.6-0.9-0.6-1.6
		c0-1.4,0.8-2.2,2.4-2.5l2.2-0.3c0-1.1-0.5-1.6-1.5-1.6c-0.9,0-1.7,0.3-2.4,0.9v-1.5c0.8-0.5,1.7-0.7,2.7-0.7c1.9,0,2.8,0.9,2.8,2.8
		V25.7z M141.7,22.1l-1.6,0.2c-0.5,0.1-0.9,0.2-1.1,0.4c-0.2,0.2-0.4,0.5-0.4,0.9c0,0.3,0.1,0.6,0.3,0.8c0.2,0.2,0.5,0.3,0.9,0.3
		c0.5,0,0.9-0.2,1.3-0.5s0.5-0.8,0.5-1.4V22.1z"/>
	<path class="st1" d="M151.8,18.3l-2.9,7.5h-1.8l-2.7-7.5h1.8l1.7,5.2c0.1,0.4,0.2,0.7,0.2,1h0c0-0.4,0.1-0.7,0.2-1l1.7-5.2H151.8z"
		/>
	<path class="st1" d="M159.1,22.4H154c0,0.7,0.2,1.2,0.6,1.6c0.4,0.4,1,0.6,1.7,0.6c0.8,0,1.5-0.2,2.2-0.7v1.4
		c-0.7,0.4-1.6,0.6-2.7,0.6c-1.1,0-2-0.3-2.6-1c-0.6-0.7-0.9-1.6-0.9-2.9c0-1.2,0.3-2.1,1-2.8c0.7-0.7,1.5-1.1,2.6-1.1
		c1,0,1.8,0.3,2.4,1c0.6,0.7,0.8,1.6,0.8,2.7V22.4z M157.5,21.3c0-0.6-0.1-1.1-0.4-1.4c-0.3-0.3-0.7-0.5-1.2-0.5
		c-0.5,0-0.9,0.2-1.2,0.5c-0.3,0.4-0.5,0.8-0.6,1.4H157.5z"/>
	<path class="st1" d="M166.1,25.4c-0.6,0.3-1.3,0.5-2.1,0.5c-1.1,0-2-0.3-2.7-1c-0.7-0.7-1-1.6-1-2.7c0-1.2,0.4-2.2,1.1-3
		c0.7-0.7,1.7-1.1,2.9-1.1c0.7,0,1.3,0.1,1.8,0.4V20c-0.5-0.4-1.1-0.6-1.7-0.6c-0.7,0-1.3,0.2-1.8,0.7c-0.5,0.5-0.7,1.1-0.7,1.9
		c0,0.8,0.2,1.4,0.6,1.8c0.4,0.4,1,0.7,1.7,0.7c0.6,0,1.2-0.2,1.7-0.6V25.4z"/>
	<path class="st1" d="M183.2,25.7h-1.7V19c0-0.6,0-1.2,0.1-2h0c-0.1,0.5-0.2,0.8-0.3,1l-3.1,7.8H177l-3.1-7.7
		c-0.1-0.2-0.2-0.6-0.3-1h0c0,0.4,0.1,1.1,0.1,2v6.7H172V15.3h2.4l2.7,6.9c0.2,0.5,0.3,0.9,0.4,1.2h0c0.2-0.5,0.3-1,0.4-1.2l2.8-6.9
		h2.3V25.7z"/>
	<path class="st1" d="M186.5,16.7c-0.3,0-0.5-0.1-0.7-0.3c-0.2-0.2-0.3-0.4-0.3-0.7s0.1-0.5,0.3-0.7c0.2-0.2,0.4-0.3,0.7-0.3
		c0.3,0,0.5,0.1,0.7,0.3c0.2,0.2,0.3,0.4,0.3,0.7c0,0.3-0.1,0.5-0.3,0.7C187,16.6,186.7,16.7,186.5,16.7z M187.3,25.7h-1.7v-7.5h1.7
		V25.7z"/>
	<path class="st1" d="M194.8,25.4c-0.6,0.3-1.3,0.5-2.1,0.5c-1.1,0-2-0.3-2.7-1c-0.7-0.7-1-1.6-1-2.7c0-1.2,0.4-2.2,1.1-3
		c0.7-0.7,1.7-1.1,2.9-1.1c0.7,0,1.3,0.1,1.8,0.4V20c-0.5-0.4-1.1-0.6-1.7-0.6c-0.7,0-1.3,0.2-1.8,0.7c-0.5,0.5-0.7,1.1-0.7,1.9
		c0,0.8,0.2,1.4,0.6,1.8c0.4,0.4,1,0.7,1.7,0.7c0.6,0,1.2-0.2,1.7-0.6V25.4z"/>
	<path class="st1" d="M200.8,19.9c-0.2-0.2-0.5-0.2-0.9-0.2c-0.5,0-0.9,0.2-1.3,0.7c-0.3,0.5-0.5,1.1-0.5,1.8v3.6h-1.7v-7.5h1.7v1.5
		h0c0.2-0.5,0.4-0.9,0.8-1.2s0.7-0.4,1.1-0.4c0.3,0,0.5,0,0.7,0.1V19.9z"/>
	<path class="st1" d="M205.2,25.9c-1.1,0-2.1-0.3-2.8-1c-0.7-0.7-1-1.6-1-2.8c0-1.3,0.4-2.2,1.1-2.9c0.7-0.7,1.7-1.1,2.9-1.1
		c1.2,0,2.1,0.3,2.7,1c0.6,0.7,1,1.6,1,2.8c0,1.2-0.4,2.1-1.1,2.9C207.3,25.5,206.4,25.9,205.2,25.9z M205.3,19.4
		c-0.7,0-1.2,0.2-1.6,0.7c-0.4,0.5-0.6,1.1-0.6,1.9c0,0.8,0.2,1.4,0.6,1.8c0.4,0.4,0.9,0.7,1.6,0.7c0.7,0,1.2-0.2,1.5-0.7
		s0.5-1.1,0.5-1.9c0-0.8-0.2-1.5-0.5-1.9S205.9,19.4,205.3,19.4z"/>
	<path class="st1" d="M210.3,25.5v-1.6c0.6,0.5,1.3,0.7,2.1,0.7c1,0,1.5-0.3,1.5-0.9c0-0.2,0-0.3-0.1-0.4c-0.1-0.1-0.2-0.2-0.4-0.3
		c-0.1-0.1-0.3-0.2-0.5-0.2s-0.4-0.2-0.7-0.2c-0.3-0.1-0.6-0.3-0.8-0.4c-0.2-0.1-0.4-0.3-0.6-0.5c-0.2-0.2-0.3-0.4-0.4-0.6
		c-0.1-0.2-0.1-0.5-0.1-0.8c0-0.4,0.1-0.7,0.3-0.9c0.2-0.3,0.4-0.5,0.7-0.7s0.6-0.3,1-0.4c0.4-0.1,0.7-0.1,1.1-0.1
		c0.7,0,1.3,0.1,1.8,0.3v1.5c-0.5-0.4-1.1-0.5-1.8-0.5c-0.2,0-0.4,0-0.6,0.1s-0.3,0.1-0.4,0.2s-0.2,0.2-0.3,0.3
		c-0.1,0.1-0.1,0.2-0.1,0.4c0,0.2,0,0.3,0.1,0.4c0.1,0.1,0.2,0.2,0.3,0.3c0.1,0.1,0.3,0.2,0.5,0.2c0.2,0.1,0.4,0.1,0.6,0.2
		c0.3,0.1,0.6,0.3,0.9,0.4c0.3,0.1,0.5,0.3,0.7,0.5s0.3,0.4,0.4,0.6c0.1,0.2,0.1,0.5,0.1,0.8c0,0.4-0.1,0.7-0.3,1
		c-0.2,0.3-0.4,0.5-0.7,0.7s-0.6,0.3-1,0.4c-0.4,0.1-0.8,0.1-1.2,0.1C211.6,25.9,210.9,25.8,210.3,25.5z"/>
	<path class="st1" d="M220.5,25.9c-1.2,0-2.1-0.3-2.8-1c-0.7-0.7-1-1.6-1-2.8c0-1.3,0.4-2.2,1.1-2.9c0.7-0.7,1.7-1.1,2.9-1.1
		c1.2,0,2.1,0.3,2.7,1s1,1.6,1,2.8c0,1.2-0.3,2.1-1.1,2.9S221.7,25.9,220.5,25.9z M220.6,19.4c-0.7,0-1.2,0.2-1.6,0.7
		c-0.4,0.5-0.6,1.1-0.6,1.9c0,0.8,0.2,1.4,0.6,1.8s0.9,0.7,1.6,0.7c0.7,0,1.2-0.2,1.5-0.7c0.4-0.4,0.5-1.1,0.5-1.9
		c0-0.8-0.2-1.5-0.5-1.9C221.8,19.7,221.3,19.4,220.6,19.4z"/>
	<path class="st1" d="M230.1,16.1c-0.2-0.1-0.5-0.2-0.8-0.2c-0.8,0-1.2,0.5-1.2,1.4v1h1.7v1.3h-1.7v6.1h-1.7v-6.1h-1.3v-1.3h1.3
		v-1.2c0-0.8,0.3-1.4,0.8-1.9c0.5-0.5,1.2-0.7,1.9-0.7c0.4,0,0.7,0,1,0.1V16.1z"/>
	<path class="st1" d="M235.2,25.6c-0.3,0.2-0.8,0.2-1.3,0.2c-1.4,0-2.2-0.7-2.2-2.1v-4.2h-1.2v-1.3h1.2v-1.7l1.7-0.5v2.2h1.8v1.3
		h-1.8v3.7c0,0.4,0.1,0.8,0.2,0.9c0.2,0.2,0.4,0.3,0.8,0.3c0.3,0,0.5-0.1,0.7-0.2V25.6z"/>
</g>
</svg>
