<?xml version="1.0" encoding="utf-8"?>
<!-- Generator: Adobe Illustrator 22.1.0, SVG Export Plug-In . SVG Version: 6.00 Build 0)  -->
<svg version="1.1" id="Layer_1" xmlns="http://www.w3.org/2000/svg" xmlns:xlink="http://www.w3.org/1999/xlink" x="0px" y="0px"
	 viewBox="0 0 129 41" style="enable-background:new 0 0 129 41;" xml:space="preserve">
<style type="text/css">
	.st0{enable-background:new    ;}
	.st1{fill:#FFFFFF;}
</style>
<image style="overflow:visible;enable-background:new    ;" width="129" height="41" id="Background" xlink:href="F1C4F21B.jpg"  transform="matrix(1 0 0 1 0 1.682073e-05)">
</image>
<g id="Sign_in" class="st0">
	<path class="st1" d="M53.3,24.9c-0.8,0.4-1.7,0.6-2.8,0.6c-1.5,0-2.6-0.5-3.5-1.4c-0.9-0.9-1.3-2.1-1.3-3.6c0-1.6,0.5-2.9,1.5-3.9
		c1-1,2.2-1.5,3.8-1.5c1,0,1.8,0.1,2.4,0.4v1.7c-0.7-0.4-1.4-0.6-2.3-0.6c-1.1,0-2,0.3-2.7,1c-0.7,0.7-1,1.6-1,2.8
		c0,1.1,0.3,2,0.9,2.7c0.6,0.7,1.5,1,2.5,1c1,0,1.8-0.2,2.5-0.7V24.9z"/>
	<path class="st1" d="M58.2,25.5c-1.1,0-2-0.3-2.7-1c-0.7-0.7-1-1.6-1-2.7c0-1.2,0.3-2.2,1-2.8s1.6-1,2.8-1c1.1,0,2,0.3,2.6,1
		c0.6,0.7,0.9,1.6,0.9,2.7c0,1.1-0.3,2.1-1,2.8C60.3,25.1,59.3,25.5,58.2,25.5z M58.3,19.3c-0.6,0-1.1,0.2-1.5,0.7
		c-0.4,0.4-0.6,1.1-0.6,1.8c0,0.8,0.2,1.3,0.6,1.8s0.9,0.7,1.5,0.7c0.6,0,1.1-0.2,1.5-0.6c0.3-0.4,0.5-1,0.5-1.8
		c0-0.8-0.2-1.4-0.5-1.8C59.4,19.5,58.9,19.3,58.3,19.3z"/>
	<path class="st1" d="M70,25.3h-1.6v-4.1c0-1.3-0.5-2-1.4-2c-0.5,0-0.9,0.2-1.2,0.6c-0.3,0.4-0.5,0.8-0.5,1.4v4.1h-1.6v-7.2h1.6v1.2
		h0c0.5-0.9,1.3-1.4,2.3-1.4c0.8,0,1.4,0.3,1.8,0.8S70,20,70,20.9V25.3z"/>
	<path class="st1" d="M78.4,25.3h-1.6v-4.1c0-1.3-0.5-2-1.4-2c-0.5,0-0.9,0.2-1.2,0.6c-0.3,0.4-0.5,0.8-0.5,1.4v4.1H72v-7.2h1.6v1.2
		h0c0.5-0.9,1.3-1.4,2.3-1.4c0.8,0,1.4,0.3,1.8,0.8s0.6,1.2,0.6,2.2V25.3z"/>
	<path class="st1" d="M86.5,22.2h-4.9c0,0.7,0.2,1.2,0.6,1.5s0.9,0.5,1.6,0.5c0.8,0,1.5-0.2,2.1-0.7v1.3c-0.7,0.4-1.5,0.6-2.6,0.6
		c-1.1,0-1.9-0.3-2.5-1c-0.6-0.7-0.9-1.6-0.9-2.8c0-1.1,0.3-2,1-2.7c0.7-0.7,1.5-1.1,2.5-1.1s1.7,0.3,2.3,0.9s0.8,1.5,0.8,2.6V22.2z
		 M84.9,21c0-0.6-0.1-1-0.4-1.4s-0.6-0.5-1.1-0.5c-0.5,0-0.9,0.2-1.2,0.5c-0.3,0.3-0.5,0.8-0.6,1.3H84.9z"/>
	<path class="st1" d="M94.1,18.1l-2.4,3.6l2.4,3.6h-1.9l-1.3-2.2c-0.1-0.1-0.2-0.3-0.3-0.5h0c0,0-0.1,0.2-0.3,0.5L89,25.3h-1.9
		l2.4-3.5l-2.3-3.7h1.9l1.2,2.3c0.1,0.2,0.2,0.4,0.3,0.5h0l1.6-2.9H94.1z"/>
	<path class="st1" d="M96.1,16.6c-0.3,0-0.5-0.1-0.7-0.3c-0.2-0.2-0.3-0.4-0.3-0.7c0-0.3,0.1-0.5,0.3-0.7s0.4-0.3,0.7-0.3
		c0.3,0,0.5,0.1,0.7,0.3c0.2,0.2,0.3,0.4,0.3,0.7c0,0.3-0.1,0.5-0.3,0.7C96.6,16.5,96.4,16.6,96.1,16.6z M96.9,25.3h-1.6v-7.2h1.6
		V25.3z"/>
	<path class="st1" d="M102.2,25.5c-1.1,0-2-0.3-2.7-1c-0.7-0.7-1-1.6-1-2.7c0-1.2,0.3-2.2,1-2.8s1.6-1,2.8-1c1.1,0,2,0.3,2.6,1
		c0.6,0.7,0.9,1.6,0.9,2.7c0,1.1-0.3,2.1-1,2.8S103.4,25.5,102.2,25.5z M102.3,19.3c-0.6,0-1.1,0.2-1.5,0.7
		c-0.4,0.4-0.6,1.1-0.6,1.8c0,0.8,0.2,1.3,0.6,1.8s0.9,0.7,1.5,0.7c0.6,0,1.1-0.2,1.5-0.6c0.3-0.4,0.5-1,0.5-1.8
		c0-0.8-0.2-1.4-0.5-1.8C103.4,19.5,102.9,19.3,102.3,19.3z"/>
	<path class="st1" d="M114,25.3h-1.6v-4.1c0-1.3-0.5-2-1.4-2c-0.5,0-0.9,0.2-1.2,0.6c-0.3,0.4-0.5,0.8-0.5,1.4v4.1h-1.6v-7.2h1.6
		v1.2h0c0.5-0.9,1.3-1.4,2.3-1.4c0.8,0,1.4,0.3,1.8,0.8c0.4,0.5,0.6,1.2,0.6,2.2V25.3z"/>
</g>
</svg>
