<?xml version="1.0" encoding="utf-8"?>
<!-- Generator: Adobe Illustrator 22.1.0, SVG Export Plug-In . SVG Version: 6.00 Build 0)  -->
<svg version="1.1" id="Layer_1" xmlns="http://www.w3.org/2000/svg" xmlns:xlink="http://www.w3.org/1999/xlink" x="0px" y="0px"
	 viewBox="0 0 130 41" style="enable-background:new 0 0 130 41;" xml:space="preserve">
<style type="text/css">
	.st0{enable-background:new    ;}
	.st1{fill:#5E5E5E;}
</style>
<image style="overflow:visible;enable-background:new    ;" width="130" height="41" id="Background" xlink:href="2868191.jpg"  transform="matrix(1 0 0 1 0 1.682073e-05)">
</image>
<g id="Sign_in" class="st0">
	<path class="st1" d="M53.4,25c-0.8,0.4-1.7,0.6-2.9,0.6c-1.5,0-2.7-0.5-3.5-1.4c-0.9-0.9-1.3-2.2-1.3-3.7c0-1.6,0.5-2.9,1.5-3.9
		c1-1,2.3-1.5,3.8-1.5c1,0,1.8,0.1,2.4,0.4v1.7c-0.7-0.4-1.4-0.6-2.3-0.6c-1.1,0-2,0.4-2.7,1.1c-0.7,0.7-1,1.6-1,2.8
		c0,1.1,0.3,2,1,2.7c0.6,0.7,1.5,1,2.5,1c1,0,1.8-0.2,2.5-0.7V25z"/>
	<path class="st1" d="M58.3,25.6c-1.1,0-2-0.3-2.7-1c-0.7-0.7-1-1.6-1-2.7c0-1.2,0.3-2.2,1-2.9c0.7-0.7,1.6-1,2.8-1
		c1.1,0,2,0.3,2.7,1c0.6,0.7,1,1.6,1,2.8c0,1.2-0.3,2.1-1,2.8C60.4,25.3,59.5,25.6,58.3,25.6z M58.4,19.3c-0.6,0-1.2,0.2-1.5,0.7
		c-0.4,0.4-0.6,1.1-0.6,1.9c0,0.8,0.2,1.4,0.6,1.8c0.4,0.4,0.9,0.7,1.5,0.7c0.6,0,1.1-0.2,1.5-0.6c0.3-0.4,0.5-1,0.5-1.8
		c0-0.8-0.2-1.4-0.5-1.9C59.5,19.5,59,19.3,58.4,19.3z"/>
	<path class="st1" d="M70.3,25.4h-1.6v-4.1c0-1.4-0.5-2-1.4-2c-0.5,0-0.9,0.2-1.2,0.6c-0.3,0.4-0.5,0.9-0.5,1.4v4.1h-1.7v-7.3h1.7
		v1.2h0c0.5-0.9,1.3-1.4,2.4-1.4c0.8,0,1.4,0.3,1.8,0.8c0.4,0.5,0.6,1.3,0.6,2.2V25.4z"/>
	<path class="st1" d="M78.7,25.4h-1.6v-4.1c0-1.4-0.5-2-1.4-2c-0.5,0-0.9,0.2-1.2,0.6c-0.3,0.4-0.5,0.9-0.5,1.4v4.1h-1.7v-7.3h1.7
		v1.2h0c0.5-0.9,1.3-1.4,2.4-1.4c0.8,0,1.4,0.3,1.8,0.8c0.4,0.5,0.6,1.3,0.6,2.2V25.4z"/>
	<path class="st1" d="M86.9,22.2h-5c0,0.7,0.2,1.2,0.6,1.6c0.4,0.4,0.9,0.5,1.6,0.5c0.8,0,1.5-0.2,2.1-0.7V25
		c-0.7,0.4-1.5,0.6-2.6,0.6c-1.1,0-1.9-0.3-2.5-1s-0.9-1.6-0.9-2.8c0-1.1,0.3-2.1,1-2.8c0.7-0.7,1.5-1.1,2.5-1.1c1,0,1.8,0.3,2.3,1
		c0.5,0.6,0.8,1.5,0.8,2.7V22.2z M85.3,21.1c0-0.6-0.1-1.1-0.4-1.4c-0.3-0.3-0.7-0.5-1.1-0.5c-0.5,0-0.9,0.2-1.2,0.5
		c-0.3,0.3-0.5,0.8-0.6,1.4H85.3z"/>
	<path class="st1" d="M94.5,18.2l-2.4,3.7l2.4,3.6h-1.9l-1.3-2.3c-0.1-0.1-0.2-0.3-0.3-0.5h0c0,0-0.1,0.2-0.3,0.5l-1.3,2.3h-1.9
		l2.5-3.6l-2.3-3.7h1.9l1.3,2.4c0.1,0.2,0.2,0.4,0.3,0.5h0l1.6-2.9H94.5z"/>
	<path class="st1" d="M96.6,16.6c-0.3,0-0.5-0.1-0.7-0.3c-0.2-0.2-0.3-0.4-0.3-0.7c0-0.3,0.1-0.5,0.3-0.7c0.2-0.2,0.4-0.3,0.7-0.3
		c0.3,0,0.5,0.1,0.7,0.3c0.2,0.2,0.3,0.4,0.3,0.7c0,0.3-0.1,0.5-0.3,0.7C97.1,16.5,96.9,16.6,96.6,16.6z M97.4,25.4h-1.6v-7.3h1.6
		V25.4z"/>
	<path class="st1" d="M102.8,25.6c-1.1,0-2-0.3-2.7-1c-0.7-0.7-1-1.6-1-2.7c0-1.2,0.3-2.2,1-2.9c0.7-0.7,1.6-1,2.8-1
		c1.1,0,2,0.3,2.7,1c0.6,0.7,1,1.6,1,2.8c0,1.2-0.3,2.1-1,2.8C104.8,25.3,103.9,25.6,102.8,25.6z M102.8,19.3
		c-0.6,0-1.2,0.2-1.5,0.7c-0.4,0.4-0.6,1.1-0.6,1.9c0,0.8,0.2,1.4,0.6,1.8c0.4,0.4,0.9,0.7,1.5,0.7c0.6,0,1.1-0.2,1.5-0.6
		c0.3-0.4,0.5-1,0.5-1.8c0-0.8-0.2-1.4-0.5-1.9C104,19.5,103.5,19.3,102.8,19.3z"/>
	<path class="st1" d="M114.7,25.4h-1.6v-4.1c0-1.4-0.5-2-1.4-2c-0.5,0-0.9,0.2-1.2,0.6c-0.3,0.4-0.5,0.9-0.5,1.4v4.1h-1.7v-7.3h1.7
		v1.2h0c0.5-0.9,1.3-1.4,2.4-1.4c0.8,0,1.4,0.3,1.8,0.8c0.4,0.5,0.6,1.3,0.6,2.2V25.4z"/>
</g>
</svg>
