<svg xmlns="http://www.w3.org/2000/svg" xmlns:xlink="http://www.w3.org/1999/xlink" viewBox="0 0 240.5 395.47"><defs><style>.cls-1{fill:#fff;}.cls-2,.cls-3,.cls-9{fill:#3c3c41;}.cls-2{opacity:0.05;}.cls-2,.cls-9{isolation:isolate;}.cls-4{fill:url(#linear-gradient);}.cls-5{fill:url(#linear-gradient-2);}.cls-6{fill:url(#linear-gradient-3);}.cls-7{fill:#50e6ff;}.cls-8{fill:#1490df;}.cls-9{opacity:0.25;}.cls-10{fill:url(#linear-gradient-4);}.cls-11{fill:url(#linear-gradient-5);}.cls-12{fill:#b4ec36;}.cls-13{fill:#5ea0ef;}.cls-14{fill:url(#linear-gradient-6);}.cls-15{fill:#c3f1ff;}.cls-16{fill:#9cebff;}.cls-17{fill:url(#linear-gradient-7);}.cls-18{fill:url(#linear-gradient-8);}.cls-19{fill:url(#linear-gradient-9);}.cls-20{fill:url(#linear-gradient-10);}.cls-21{fill:url(#linear-gradient-11);}.cls-22{fill:none;stroke:#3c3c41;stroke-miterlimit:10;}.cls-23{fill:url(#linear-gradient-12);}.cls-24{fill:url(#linear-gradient-13);}.cls-25{fill:url(#linear-gradient-14);}.cls-26{fill:url(#linear-gradient-15);}.cls-27{fill:url(#linear-gradient-16);}.cls-28{fill:url(#linear-gradient-17);}.cls-29{fill:url(#linear-gradient-18);}.cls-30,.cls-31,.cls-33,.cls-34{fill:#1e1e1e;}.cls-31,.cls-33,.cls-34{font-size:11px;font-family:SegoeUI, Segoe UI;}.cls-31{letter-spacing:-0.03em;}.cls-32{letter-spacing:0em;}.cls-33,.cls-36{letter-spacing:0em;}.cls-34{letter-spacing:-0.04em;}.cls-35{letter-spacing:-0.05em;}</style><linearGradient id="linear-gradient" x1="21.67" y1="639.04" x2="24.04" y2="641.41" gradientTransform="translate(2.11 -270.55) rotate(-0.08)" gradientUnits="userSpaceOnUse"><stop offset="0" stop-color="#86d633"/><stop offset="0.24" stop-color="#83d232"/><stop offset="0.5" stop-color="#7cc52f"/><stop offset="0.76" stop-color="#6fb02a"/><stop offset="1" stop-color="#5e9624"/></linearGradient><linearGradient id="linear-gradient-2" x1="16.33" y1="639.04" x2="18.69" y2="641.41" xlink:href="#linear-gradient"/><linearGradient id="linear-gradient-3" x1="10.99" y1="639.04" x2="13.35" y2="641.4" xlink:href="#linear-gradient"/><linearGradient id="linear-gradient-4" x1="149.14" y1="265.29" x2="149.14" y2="301.06" gradientTransform="translate(0 -269.39)" gradientUnits="userSpaceOnUse"><stop offset="0.18" stop-color="#5ea0ef"/><stop offset="1" stop-color="#0078d4"/></linearGradient><linearGradient id="linear-gradient-5" x1="149.14" y1="380.98" x2="149.14" y2="343.89" gradientTransform="translate(0 -269.39)" gradientUnits="userSpaceOnUse"><stop offset="0" stop-color="#5e9624"/><stop offset="0.02" stop-color="#5f9724"/><stop offset="1" stop-color="#76bc2d"/></linearGradient><linearGradient id="linear-gradient-6" x1="148.74" y1="438.34" x2="148.74" y2="416.7" gradientTransform="translate(0 -269.39)" gradientUnits="userSpaceOnUse"><stop offset="0" stop-color="#0078d4"/><stop offset="0.82" stop-color="#5ea0ef"/></linearGradient><linearGradient id="linear-gradient-7" x1="148.74" y1="446.7" x2="148.74" y2="438.34" gradientTransform="translate(0 -269.39)" gradientUnits="userSpaceOnUse"><stop offset="0.15" stop-color="#ccc"/><stop offset="1" stop-color="#707070"/></linearGradient><linearGradient id="linear-gradient-8" x1="96.24" y1="438.34" x2="96.24" y2="416.7" xlink:href="#linear-gradient-6"/><linearGradient id="linear-gradient-9" x1="96.24" y1="446.7" x2="96.24" y2="438.34" xlink:href="#linear-gradient-7"/><linearGradient id="linear-gradient-10" x1="201.24" y1="438.34" x2="201.24" y2="416.7" xlink:href="#linear-gradient-6"/><linearGradient id="linear-gradient-11" x1="201.24" y1="446.7" x2="201.24" y2="438.34" xlink:href="#linear-gradient-7"/><linearGradient id="linear-gradient-12" x1="149.14" y1="533.3" x2="149.14" y2="496.2" xlink:href="#linear-gradient-5"/><linearGradient id="linear-gradient-13" x1="148.74" y1="588.34" x2="148.74" y2="566.7" xlink:href="#linear-gradient-6"/><linearGradient id="linear-gradient-14" x1="148.74" y1="596.7" x2="148.74" y2="588.34" xlink:href="#linear-gradient-7"/><linearGradient id="linear-gradient-15" x1="96.24" y1="588.34" x2="96.24" y2="566.7" xlink:href="#linear-gradient-6"/><linearGradient id="linear-gradient-16" x1="96.24" y1="596.7" x2="96.24" y2="588.34" xlink:href="#linear-gradient-7"/><linearGradient id="linear-gradient-17" x1="201.24" y1="588.34" x2="201.24" y2="566.7" xlink:href="#linear-gradient-6"/><linearGradient id="linear-gradient-18" x1="201.24" y1="596.7" x2="201.24" y2="588.34" xlink:href="#linear-gradient-7"/></defs><title>OJ104939016</title><g id="src"><g id="Shapes"><rect class="cls-1" width="240.5" height="395.47"/><rect class="cls-1" x="0.5" y="64.8" width="240" height="305" rx="5"/><rect class="cls-2" x="0.5" y="64.8" width="240" height="305" rx="5"/><path class="cls-3" d="M234.34,370.3h-1v-1h1Zm-3,0h-1v-1h1Zm-3,0h-1v-1h1Zm-3,0h-1v-1h1Zm-3,0h-1v-1h1Zm-3,0h-1v-1h1Zm-3,0h-1v-1h1Zm-3,0h-1v-1h1Zm-3,0h-1v-1h1Zm-3,0h-1v-1h1Zm-3,0h-1v-1h1Zm-3,0h-1v-1h1Zm-3,0h-1v-1h1Zm-3,0h-1v-1h1Zm-3,0h-1v-1h1Zm-3,0h-1v-1h1Zm-3,0h-1v-1h1Zm-3,0h-1v-1h1Zm-3,0h-1v-1h1Zm-3,0h-1v-1h1Zm-3,0h-1v-1h1Zm-3,0h-1v-1h1Zm-3,0h-1v-1h1Zm-3,0h-1v-1h1Zm-3,0h-1v-1h1Zm-3,0h-1v-1h1Zm-3,0h-1v-1h1Zm-3,0h-1v-1h1Zm-3,0h-1v-1h1Zm-3,0h-1v-1h1Zm-3,0h-1v-1h1Zm-3,0h-1v-1h1Zm-3,0h-1v-1h1Zm-3,0h-1v-1h1Zm-3,0h-1v-1h1Zm-3,0h-1v-1h1Zm-3,0h-1v-1h1Zm-3,0h-1v-1h1Zm-3,0h-1v-1h1Zm-3,0h-1v-1h1Zm-3,0h-1v-1h1Zm-3,0h-1v-1h1Zm-3,0h-1v-1h1Zm-3,0h-1v-1h1Zm-3,0h-1v-1h1Zm-3,0h-1v-1h1Zm-3,0h-1v-1h1Zm-3,0h-1v-1h1Zm-3,0h-1v-1h1Zm-3,0h-1v-1h1Zm-3,0h-1v-1h1Zm-3,0h-1v-1h1Zm-3,0h-1v-1h1Zm-3,0h-1v-1h1Zm-3,0h-1v-1h1Zm-3,0h-1v-1h1Zm-3,0h-1v-1h1Zm-3,0h-1v-1h1Zm-3,0h-1v-1h1Zm-3,0h-1v-1h1Zm-3,0h-1v-1h1Zm-3,0h-1v-1h1Zm-3,0h-1v-1h1Zm-3,0h-1v-1h1Zm-3,0h-1v-1h1Zm-3,0h-1v-1h1Zm-3,0h-1v-1h1Zm-30,0H5.5a4,4,0,0,1-.49,0l.09-1h1Zm230.36-.07-.16-1a4.4,4.4,0,0,0,.86-.24l.36.93a5.37,5.37,0,0,1-1.06.3ZM2.91,369.65A6,6,0,0,1,2,369l.64-.77a4.26,4.26,0,0,0,.75.5Zm236.41-.9-.69-.72a4.82,4.82,0,0,0,.58-.69l.82.57a5.64,5.64,0,0,1-.71.84ZM.63,367.34a5.09,5.09,0,0,1-.42-1l1-.27a4.48,4.48,0,0,0,.33.83Zm240.26-1.44-1-.2a4.58,4.58,0,0,0,.09-.9l1-.05v.05A5.78,5.78,0,0,1,240.89,365.9ZM1,364.2H0v-1H1Zm240-1.46h-1v-1h1ZM1,361.2H0v-1H1Zm240-1.46h-1v-1h1ZM1,358.19H0v-1H1Zm240-1.45h-1v-1h1ZM1,355.19H0v-1H1Zm240-1.46h-1v-1h1ZM1,352.19H0v-1H1Zm240-1.46h-1v-1h1ZM1,349.18H0v-1H1Zm240-1.46h-1v-1h1ZM1,346.18H0v-1H1Zm240-1.46h-1v-1h1ZM1,343.17H0v-1H1Zm240-1.45h-1v-1h1ZM1,340.17H0v-1H1Zm240-1.46h-1v-1h1ZM1,337.17H0v-1H1Zm240-1.46h-1v-1h1ZM1,334.16H0v-1H1Zm240-1.46h-1v-1h1ZM1,331.16H0v-1H1Zm240-1.46h-1v-1h1ZM1,328.16H0v-1H1Zm240-1.46h-1v-1h1ZM1,325.15H0v-1H1Zm240-1.46h-1v-1h1ZM1,322.15H0v-1H1Zm240-1.46h-1v-1h1ZM1,319.14H0v-1H1Zm240-1.45h-1v-1h1ZM1,316.14H0v-1H1Zm240-1.46h-1v-1h1ZM1,313.14H0v-1H1Zm240-1.46h-1v-1h1ZM1,310.13H0v-1H1Zm240-1.46h-1v-1h1ZM1,307.13H0v-1H1Zm240-1.46h-1v-1h1ZM1,304.13H0v-1H1Zm240-1.46h-1v-1h1ZM1,301.12H0v-1H1Zm240-1.46h-1v-1h1ZM1,298.12H0v-1H1Zm240-1.46h-1v-1h1ZM1,295.11H0v-1H1Zm240-1.45h-1v-1h1ZM1,292.11H0v-1H1Zm240-1.46h-1v-1h1ZM1,289.11H0v-1H1Zm240-1.46h-1v-1h1ZM1,286.1H0v-1H1Zm240-1.46h-1v-1h1ZM1,283.1H0v-1H1Zm240-1.46h-1v-1h1ZM1,280.1H0v-1H1Zm240-1.46h-1v-1h1ZM1,277.09H0v-1H1Zm240-1.46h-1v-1h1ZM1,274.09H0v-1H1Zm240-1.46h-1v-1h1ZM1,271.08H0v-1H1Zm240-1.45h-1v-1h1ZM1,268.08H0v-1H1Zm240-1.46h-1v-1h1ZM1,265.08H0v-1H1Zm240-1.46h-1v-1h1ZM1,262.07H0v-1H1Zm240-1.45h-1v-1h1ZM1,259.07H0v-1H1Zm240-1.46h-1v-1h1ZM1,256.07H0v-1H1Zm240-1.46h-1v-1h1ZM1,253.06H0v-1H1Zm240-1.46h-1v-1h1ZM1,250.06H0v-1H1Zm240-1.46h-1v-1h1ZM1,247.05H0v-1H1Zm240-1.45h-1v-1h1ZM1,244.05H0v-1H1Zm240-1.46h-1v-1h1ZM1,241.05H0v-1H1Zm240-1.46h-1v-1h1ZM1,238H0v-1H1Zm240-1.46h-1v-1h1ZM1,235H0v-1H1Zm240-1.46h-1v-1h1ZM1,232H0v-1H1Zm240-1.46h-1v-1h1ZM1,229H0v-1H1Zm240-1.46h-1v-1h1ZM1,226H0v-1H1Zm240-1.46h-1v-1h1ZM1,223H0v-1H1Zm240-1.45h-1v-1h1ZM1,220H0v-1H1Zm240-1.46h-1v-1h1ZM1,217H0v-1H1Zm240-1.46h-1v-1h1ZM1,214H0v-1H1Zm240-1.45h-1v-1h1ZM1,211H0v-1H1Zm240-1.46h-1v-1h1ZM1,208H0v-1H1Zm240-1.46h-1v-1h1ZM1,205H0v-1H1Zm240-1.46h-1v-1h1ZM1,202H0v-1H1Zm240-1.46h-1v-1h1ZM1,199H0v-1H1Zm240-1.45h-1v-1h1ZM1,196H0v-1H1Zm240-1.46h-1v-1h1ZM1,193H0v-1H1Zm240-1.46h-1v-1h1ZM1,190H0v-1H1Zm240-1.46h-1v-1h1ZM1,187H0v-1H1Zm240-1.46h-1v-1h1ZM1,184H0v-1H1Zm240-1.46h-1v-1h1ZM1,181H0v-1H1Zm240-1.46h-1v-1h1ZM1,178H0v-1H1Zm240-1.46h-1v-1h1ZM1,175H0v-1H1Zm240-1.45h-1v-1h1ZM1,172H0v-1H1Zm240-1.46h-1v-1h1ZM1,169H0v-1H1Zm240-1.46h-1v-1h1ZM1,166H0v-1H1Zm240-1.45h-1v-1h1ZM1,163H0v-1H1Zm240-1.46h-1v-1h1ZM1,160H0v-1H1Zm240-1.46h-1v-1h1ZM1,156.94H0v-1H1Zm240-1.46h-1v-1h1ZM1,153.94H0v-1H1Zm240-1.46h-1v-1h1ZM1,150.93H0v-1H1Zm240-1.45h-1v-1h1ZM1,147.93H0v-1H1Zm240-1.46h-1v-1h1ZM1,144.93H0v-1H1Zm240-1.46h-1v-1h1ZM1,141.92H0v-1H1Zm240-1.46h-1v-1h1ZM1,138.92H0v-1H1Zm240-1.46h-1v-1h1ZM1,135.92H0v-1H1Zm240-1.46h-1v-1h1ZM1,132.91H0v-1H1Zm240-1.46h-1v-1h1ZM1,129.91H0v-1H1Zm240-1.46h-1v-1h1ZM1,126.9H0v-1H1Zm240-1.45h-1v-1h1ZM1,123.9H0v-1H1Zm240-1.46h-1v-1h1ZM1,120.9H0v-1H1Zm240-1.46h-1v-1h1ZM1,117.89H0v-1H1Zm240-1.46h-1v-1h1ZM1,114.89H0v-1H1Zm240-1.46h-1v-1h1ZM1,111.89H0v-1H1Zm240-1.46h-1v-1h1ZM1,108.88H0v-1H1Zm240-1.46h-1v-1h1ZM1,105.88H0v-1H1Zm240-1.46h-1v-1h1ZM1,102.87H0v-1H1Zm240-1.45h-1v-1h1ZM1,99.87H0v-1H1Zm240-1.46h-1v-1h1ZM1,96.87H0v-1H1Zm240-1.46h-1v-1h1ZM1,93.86H0v-1H1ZM241,92.4h-1v-1h1ZM1,90.86H0v-1H1ZM241,89.4h-1v-1h1ZM1,87.86H0v-1H1ZM241,86.4h-1v-1h1ZM1,84.85H0v-1H1Zm240-1.46h-1v-1h1ZM1,81.85H0v-1H1Zm240-1.46h-1v-1h1ZM1,78.84H0v-1H1Zm240-1.45h-1v-1h1ZM1,75.84H0v-1H1Zm240-1.46h-1v-1h1ZM1,72.84H0v-1H1Zm240-1.46h-1v-1h1ZM0,69.83v0a5.44,5.44,0,0,1,.1-1.06l1,.2A4.91,4.91,0,0,0,1,69.8Zm239.82-1.29a5.09,5.09,0,0,0-.34-.84l.88-.46a6,6,0,0,1,.42,1Zm-238-1.25L1,66.72a6.24,6.24,0,0,1,.7-.84l.7.71A5.45,5.45,0,0,0,1.78,67.29Zm236.56-1a4.26,4.26,0,0,0-.75-.5l.47-.88a5,5,0,0,1,.91.61ZM3.86,65.62l-.37-.93a4.84,4.84,0,0,1,1-.3l.18,1A4.06,4.06,0,0,0,3.86,65.62Zm232-.3-.37,0h-.59v-1h.59l.46,0Zm-3,0h-1v-1h1Zm-3,0h-1v-1h1Zm-3,0h-1v-1h1Zm-3,0h-1v-1h1Zm-3,0h-1v-1h1Zm-3,0h-1v-1h1Zm-3,0h-1v-1h1Zm-3,0h-1v-1h1Zm-3,0h-1v-1h1Zm-3,0h-1v-1h1Zm-3,0h-1v-1h1Zm-3,0h-1v-1h1Zm-3,0h-1v-1h1Zm-3,0h-1v-1h1Zm-3,0h-1v-1h1Zm-3,0h-1v-1h1Zm-3,0h-1v-1h1Zm-3,0h-1v-1h1Zm-3,0h-1v-1h1Zm-3,0h-1v-1h1Zm-3,0h-1v-1h1Zm-3,0h-1v-1h1Zm-3,0h-1v-1h1Zm-3,0h-1v-1h1Zm-3,0h-1v-1h1Zm-3,0h-1v-1h1Zm-3,0h-1v-1h1Zm-3,0h-1v-1h1Zm-3,0h-1v-1h1Zm-3,0h-1v-1h1Zm-3,0h-1v-1h1Zm-3,0h-1v-1h1Zm-3,0h-1v-1h1Zm-3,0h-1v-1h1Zm-3,0h-1v-1h1Zm-3,0h-1v-1h1Zm-3,0h-1v-1h1Zm-3,0h-1v-1h1Zm-3,0h-1v-1h1Zm-3,0h-1v-1h1Zm-3,0h-1v-1h1Zm-3,0h-1v-1h1Zm-3,0h-1v-1h1Zm-3,0h-1v-1h1Zm-3,0h-1v-1h1Zm-3,0h-1v-1h1Zm-3,0h-1v-1h1Zm-3,0h-1v-1h1Zm-3,0h-1v-1h1Zm-3,0h-1v-1h1Zm-3,0h-1v-1h1Zm-3,0h-1v-1h1Zm-3,0h-1v-1h1Zm-3,0h-1v-1h1Zm-3,0h-1v-1h1Zm-3,0h-1v-1h1Zm-3,0h-1v-1h1Zm-3,0h-1v-1h1Zm-3,0h-1v-1h1Zm-3,0h-1v-1h1Zm-3,0h-1v-1h1Zm-3,0h-1v-1h1Zm-3,0h-1v-1h1Zm-3,0h-1v-1h1Zm-3,0h-1v-1h1Zm-3,0h-1v-1h1Zm-3,0h-1v-1h1Zm-3,0h-1v-1h1Zm-3,0h-1v-1h1Zm-3,0h-1v-1h1Zm-3,0h-1v-1h1Zm-3,0h-1v-1h1Zm-3,0h-1v-1h1Zm-3,0h-1v-1h1Zm-3,0h-1v-1h1Zm-3,0h-1v-1h1Z"/><circle class="cls-4" cx="25.86" cy="369.64" r="1.67"/><circle class="cls-5" cx="20.52" cy="369.65" r="1.67"/><circle class="cls-6" cx="15.18" cy="369.65" r="1.67"/><path class="cls-7" d="M16.39,376.35l-1,1a.44.44,0,0,1-.62,0h0l-7.09-7.07a.87.87,0,0,1,0-1.23h0l.95-1h0l7.71,7.69a.43.43,0,0,1,0,.61Z"/><path class="cls-8" d="M15.29,362l1,1a.43.43,0,0,1,0,.61l-7.57,7.6h0l-1-1a.87.87,0,0,1,0-1.22h0l7-7A.43.43,0,0,1,15.29,362Z"/><path class="cls-7" d="M32.24,368l1,1a.86.86,0,0,1,0,1.22h0l-7.1,7.08a.43.43,0,0,1-.61,0h0l-1-1a.43.43,0,0,1,0-.61h0L32.24,368Z"/><path class="cls-8" d="M33.2,370.21l-1,1h0l-7.58-7.6a.43.43,0,0,1,0-.61h0l1-1a.44.44,0,0,1,.61,0h0l7,7a.86.86,0,0,1,0,1.22h0Z"/><rect class="cls-1" x="10" y="139.3" width="220" height="65"/><rect class="cls-9" x="10" y="139.3" width="220" height="65"/><path class="cls-10" d="M167,17.85a8.16,8.16,0,0,0-7-7.91A10.26,10.26,0,0,0,149.59,0a10.52,10.52,0,0,0-9.94,7,9.67,9.67,0,0,0-8.4,9.45A10,10,0,0,0,141.34,26H159A8.25,8.25,0,0,0,167,17.85Z"/><path class="cls-11" d="M133.47,91.54l14.91-14.91a1.05,1.05,0,0,1,1.51,0l0,0,14.91,14.91a1.07,1.07,0,0,1,0,1.51l0,0L149.89,108a1.08,1.08,0,0,1-1.49,0L133.47,93.07a1.06,1.06,0,0,1,0-1.51Z"/><path class="cls-12" d="M153.05,83.42l-3.76-3.75a.21.21,0,0,0-.29,0l-3.77,3.75a.18.18,0,0,0,0,.24.22.22,0,0,0,.2.08h2.2a.19.19,0,0,1,.2.19v3.56a.19.19,0,0,0,.19.19h2.35a.19.19,0,0,0,.19-.19V83.93a.19.19,0,0,1,.2-.19h2.2a.19.19,0,0,0,.22-.13.16.16,0,0,0-.08-.19Z"/><path class="cls-12" d="M140.26,88.06l-3.74,3.78a.2.2,0,0,0,0,.27l3.74,3.75a.19.19,0,0,0,.27,0,.18.18,0,0,0,.06-.15V93.53a.2.2,0,0,1,.2-.2h3.55a.17.17,0,0,0,.18-.17V90.79a.18.18,0,0,0-.06-.24l-.06,0h-3.56a.18.18,0,0,1-.19-.16V88.2a.21.21,0,0,0-.13-.27A.2.2,0,0,0,140.26,88.06Z"/><path class="cls-12" d="M158.17,95.86,162,92.09a.2.2,0,0,0,0-.27l-3.79-3.76a.19.19,0,0,0-.27,0,.22.22,0,0,0-.05.12v2.22a.18.18,0,0,1-.17.18H154.1a.18.18,0,0,0-.18.17h0v2.37a.19.19,0,0,0,.16.19h3.58a.19.19,0,0,1,.19.2h0v2.2a.19.19,0,0,0,.22.17A.18.18,0,0,0,158.17,95.86Z"/><path class="cls-1" d="M154.1,92.3a5,5,0,1,0-6.29,4.75v1.69a3.05,3.05,0,1,0,2.79,0V97A4.92,4.92,0,0,0,154.1,92.3Z"/><circle id="e99c3387-15c3-4f28-bd4b-cb209b430e06" class="cls-13" cx="149.16" cy="92.29" r="2.88"/><rect class="cls-14" x="132.5" y="147.3" width="32.47" height="21.65" rx="1.08"/><polygon class="cls-7" points="154.15 154.97 154.15 161.27 148.74 164.44 148.74 158.13 154.15 154.97"/><polygon class="cls-15" points="154.15 154.97 148.74 158.15 143.32 154.97 148.74 151.81 154.15 154.97"/><polygon class="cls-16" points="148.74 158.15 148.74 164.44 143.32 161.27 143.32 154.97 148.74 158.15"/><polygon class="cls-15" points="143.32 161.27 148.74 158.13 148.74 164.44 143.32 161.27"/><polygon class="cls-16" points="154.15 161.27 148.74 158.13 148.74 164.44 154.15 161.27"/><path class="cls-17" d="M155.25,175.5c-3.21-.51-3.34-2.81-3.34-6.55h-6.37c0,3.74-.11,6-3.32,6.55a1.8,1.8,0,0,0-1.6,1.8h16.23A1.79,1.79,0,0,0,155.25,175.5Z"/><rect class="cls-18" x="80" y="147.3" width="32.47" height="21.65" rx="1.08"/><polygon class="cls-7" points="101.65 154.97 101.65 161.27 96.24 164.44 96.24 158.13 101.65 154.97"/><polygon class="cls-15" points="101.65 154.97 96.24 158.15 90.82 154.97 96.24 151.81 101.65 154.97"/><polygon class="cls-16" points="96.24 158.15 96.24 164.44 90.82 161.27 90.82 154.97 96.24 158.15"/><polygon class="cls-15" points="90.82 161.27 96.24 158.13 96.24 164.44 90.82 161.27"/><polygon class="cls-16" points="101.65 161.27 96.24 158.13 96.24 164.44 101.65 161.27"/><path class="cls-19" d="M102.75,175.5c-3.21-.51-3.34-2.81-3.34-6.55H93c0,3.74-.11,6-3.32,6.55a1.8,1.8,0,0,0-1.6,1.8h16.23A1.79,1.79,0,0,0,102.75,175.5Z"/><rect class="cls-20" x="185" y="147.3" width="32.47" height="21.65" rx="1.08"/><polygon class="cls-7" points="206.65 154.97 206.65 161.27 201.24 164.44 201.24 158.13 206.65 154.97"/><polygon class="cls-15" points="206.65 154.97 201.24 158.15 195.82 154.97 201.24 151.81 206.65 154.97"/><polygon class="cls-16" points="201.24 158.15 201.24 164.44 195.82 161.27 195.82 154.97 201.24 158.15"/><polygon class="cls-15" points="195.82 161.27 201.24 158.13 201.24 164.44 195.82 161.27"/><polygon class="cls-16" points="206.65 161.27 201.24 158.13 201.24 164.44 206.65 161.27"/><path class="cls-21" d="M207.75,175.5c-3.21-.51-3.34-2.81-3.34-6.55H198c0,3.74-.11,6-3.32,6.55a1.8,1.8,0,0,0-1.6,1.8h16.23A1.79,1.79,0,0,0,207.75,175.5Z"/><line class="cls-22" x1="149.14" y1="29.3" x2="149.14" y2="41.8"/><line class="cls-22" x1="149.14" y1="59.3" x2="149.14" y2="73.3"/><path class="cls-23" d="M133.47,243.86l14.91-14.92a1.07,1.07,0,0,1,1.51,0l0,0,14.91,14.92a1.06,1.06,0,0,1,0,1.5l0,0-14.93,14.94a1.08,1.08,0,0,1-1.49,0l-14.93-14.94a1.05,1.05,0,0,1,0-1.5h0Z"/><path class="cls-12" d="M153.05,235.73,149.29,232a.23.23,0,0,0-.29,0l-3.77,3.75a.18.18,0,0,0,.15.32h2.2a.2.2,0,0,1,.2.2v3.55a.19.19,0,0,0,.19.2h2.35a.19.19,0,0,0,.19-.2v-3.55a.2.2,0,0,1,.2-.2h2.2a.18.18,0,0,0,.22-.13.17.17,0,0,0-.08-.19Z"/><path class="cls-12" d="M140.26,240.37l-3.74,3.79a.19.19,0,0,0,0,.26l3.74,3.76a.19.19,0,0,0,.27,0,.17.17,0,0,0,.06-.15v-2.18a.2.2,0,0,1,.2-.2h3.55a.18.18,0,0,0,.18-.18h0v-2.35a.17.17,0,0,0-.06-.24s0,0-.06,0h-3.56a.18.18,0,0,1-.19-.16v-2.17a.2.2,0,0,0-.13-.26.2.2,0,0,0-.26.12Z"/><path class="cls-12" d="M158.17,248.18l3.79-3.77a.2.2,0,0,0,0-.27l-3.79-3.77a.18.18,0,0,0-.27,0,.16.16,0,0,0-.05.11v2.23a.18.18,0,0,1-.17.17H154.1a.18.18,0,0,0-.18.18h0v2.37a.19.19,0,0,0,.16.19h3.58a.19.19,0,0,1,.19.2h0v2.2a.2.2,0,0,0,.22.17l.1,0Z"/><path class="cls-1" d="M154.1,244.62a5,5,0,1,0-6.29,4.75v1.68a3,3,0,1,0,2.79,0v-1.77A4.92,4.92,0,0,0,154.1,244.62Z"/><circle id="e99c3387-15c3-4f28-bd4b-cb209b430e06-2" class="cls-13" cx="149.16" cy="244.6" r="2.88"/><line class="cls-22" x1="149.14" y1="197.12" x2="149.14" y2="226.44"/><line class="cls-22" x1="149.14" y1="132.69" x2="149.14" y2="144.8"/><line class="cls-22" x1="149.14" y1="112.99" x2="149.14" y2="121.66"/><path class="cls-22" d="M100.91,128.09l-2.45,1a4.62,4.62,0,0,0-2.44,4V144.8"/><line class="cls-22" x1="143.96" y1="110.3" x2="115.93" y2="121.88"/><path class="cls-22" d="M144,228.79l-25.25-10.43-5.55-2.29-9.48-3.92L98.46,210A4.6,4.6,0,0,1,96,206v-8.86"/><path class="cls-22" d="M156,228.79l25.26-10.43,5.54-2.29,9.48-3.92L201.5,210a4.58,4.58,0,0,0,2.44-4v-8.86"/><path class="cls-22" d="M199.05,128.09l2.45,1a4.6,4.6,0,0,1,2.44,4V144.8"/><line class="cls-22" x1="156" y1="110.3" x2="184.03" y2="121.88"/><rect class="cls-1" x="10" y="289.3" width="220" height="65"/><rect class="cls-9" x="10" y="289.3" width="220" height="65"/><rect class="cls-24" x="132.5" y="297.3" width="32.47" height="21.65" rx="1.08"/><polygon class="cls-7" points="154.15 304.97 154.15 311.27 148.74 314.44 148.74 308.13 154.15 304.97"/><polygon class="cls-15" points="154.15 304.97 148.74 308.14 143.32 304.97 148.74 301.81 154.15 304.97"/><polygon class="cls-16" points="148.74 308.14 148.74 314.44 143.32 311.27 143.32 304.97 148.74 308.14"/><polygon class="cls-15" points="143.32 311.27 148.74 308.13 148.74 314.44 143.32 311.27"/><polygon class="cls-16" points="154.15 311.27 148.74 308.13 148.74 314.44 154.15 311.27"/><path class="cls-25" d="M155.25,325.5c-3.21-.51-3.34-2.81-3.34-6.55h-6.37c0,3.74-.11,6-3.32,6.55a1.8,1.8,0,0,0-1.6,1.8h16.23A1.79,1.79,0,0,0,155.25,325.5Z"/><rect class="cls-26" x="80" y="297.3" width="32.47" height="21.65" rx="1.08"/><polygon class="cls-7" points="101.65 304.97 101.65 311.27 96.24 314.44 96.24 308.13 101.65 304.97"/><polygon class="cls-15" points="101.65 304.97 96.24 308.14 90.82 304.97 96.24 301.81 101.65 304.97"/><polygon class="cls-16" points="96.24 308.14 96.24 314.44 90.82 311.27 90.82 304.97 96.24 308.14"/><polygon class="cls-15" points="90.82 311.27 96.24 308.13 96.24 314.44 90.82 311.27"/><polygon class="cls-16" points="101.65 311.27 96.24 308.13 96.24 314.44 101.65 311.27"/><path class="cls-27" d="M102.75,325.5c-3.21-.51-3.34-2.81-3.34-6.55H93c0,3.74-.11,6-3.32,6.55a1.8,1.8,0,0,0-1.6,1.8h16.23A1.79,1.79,0,0,0,102.75,325.5Z"/><rect class="cls-28" x="185" y="297.3" width="32.47" height="21.65" rx="1.08"/><polygon class="cls-7" points="206.65 304.97 206.65 311.27 201.24 314.44 201.24 308.13 206.65 304.97"/><polygon class="cls-15" points="206.65 304.97 201.24 308.14 195.82 304.97 201.24 301.81 206.65 304.97"/><polygon class="cls-16" points="201.24 308.14 201.24 314.44 195.82 311.27 195.82 304.97 201.24 308.14"/><polygon class="cls-15" points="195.82 311.27 201.24 308.13 201.24 314.44 195.82 311.27"/><polygon class="cls-16" points="206.65 311.27 201.24 308.13 201.24 314.44 206.65 311.27"/><path class="cls-29" d="M207.75,325.5c-3.21-.51-3.34-2.81-3.34-6.55H198c0,3.74-.11,6-3.32,6.55a1.8,1.8,0,0,0-1.6,1.8h16.23A1.79,1.79,0,0,0,207.75,325.5Z"/><line class="cls-22" x1="149.14" y1="284.6" x2="149.14" y2="296.71"/><line class="cls-22" x1="149.14" y1="262.1" x2="149.14" y2="272.71"/><path class="cls-22" d="M100.91,280l-2.45,1A4.6,4.6,0,0,0,96,285v11.69"/><line class="cls-22" x1="143.96" y1="262.21" x2="121.18" y2="271.62"/><path class="cls-22" d="M195.32,280l2.44,1a4.59,4.59,0,0,1,2.45,4v11.69"/><line class="cls-22" x1="152.27" y1="262.21" x2="175.04" y2="271.62"/></g><g id="Text"><path class="cls-30" d="M98.66,86.13V89.3h-1V80.9H100a3,3,0,0,1,2.09.66,2.33,2.33,0,0,1,.74,1.85,2.6,2.6,0,0,1-.82,2,3.19,3.19,0,0,1-2.23.76Zm0-4.34v3.45h1a2.28,2.28,0,0,0,1.55-.47,1.63,1.63,0,0,0,.54-1.31c0-1.11-.66-1.67-2-1.67Z"/><path class="cls-30" d="M109.12,89.3h-1v-1h0a2,2,0,0,1-1.85,1.09c-1.43,0-2.15-.85-2.15-2.55V83.3h1v3.44c0,1.26.48,1.9,1.45,1.9a1.47,1.47,0,0,0,1.16-.52,2,2,0,0,0,.45-1.36V83.3h1Z"/><path class="cls-30" d="M112.05,88.44h0v.86h-1V80.42h1v3.94h0a2.29,2.29,0,0,1,2.07-1.2,2.21,2.21,0,0,1,1.81.81,3.33,3.33,0,0,1,.65,2.16,3.67,3.67,0,0,1-.73,2.41,2.43,2.43,0,0,1-2,.9A2,2,0,0,1,112.05,88.44ZM112,86v.83a1.81,1.81,0,0,0,.49,1.27,1.72,1.72,0,0,0,2.44,0l.15-.17a3.06,3.06,0,0,0,.5-1.86,2.39,2.39,0,0,0-.47-1.57,1.5,1.5,0,0,0-1.25-.57,1.74,1.74,0,0,0-1.35.58A2.23,2.23,0,0,0,112,86Z"/><path class="cls-30" d="M119.08,89.3h-1V80.42h1Z"/><path class="cls-30" d="M121.52,81.78a.59.59,0,0,1-.44-.18.6.6,0,0,1-.19-.44.63.63,0,0,1,.61-.63h0a.62.62,0,0,1,.44.18.63.63,0,0,1,0,.89h0A.6.6,0,0,1,121.52,81.78ZM122,89.3h-1v-6h1Z"/><path class="cls-30" d="M128,89a3.06,3.06,0,0,1-1.64.41,2.69,2.69,0,0,1-2.07-.83,3,3,0,0,1-.79-2.17,3.32,3.32,0,0,1,.85-2.38,3,3,0,0,1,2.27-.9,3,3,0,0,1,1.39.3v1A2.42,2.42,0,0,0,126.6,84a1.94,1.94,0,0,0-1.51.66,2.58,2.58,0,0,0-.59,1.73,2.42,2.42,0,0,0,.56,1.67,1.92,1.92,0,0,0,1.48.61,2.41,2.41,0,0,0,1.48-.53Z"/><path class="cls-30" d="M60,102.5H55.69V94.1h1v7.51H60Z"/><path class="cls-30" d="M63.71,102.64a2.77,2.77,0,0,1-2.12-.84,3.15,3.15,0,0,1-.8-2.23,3.27,3.27,0,0,1,.83-2.36,3,3,0,0,1,2.23-.85,2.72,2.72,0,0,1,2.1.83,3.29,3.29,0,0,1,.75,2.29,3.24,3.24,0,0,1-.81,2.3A2.83,2.83,0,0,1,63.71,102.64Zm.07-5.47a1.83,1.83,0,0,0-1.46.63,2.55,2.55,0,0,0-.54,1.74,2.43,2.43,0,0,0,.54,1.68,1.89,1.89,0,0,0,1.46.62,1.76,1.76,0,0,0,1.44-.61,2.61,2.61,0,0,0,.5-1.71,2.69,2.69,0,0,0-.5-1.74,1.79,1.79,0,0,0-1.44-.61Z"/><path class="cls-30" d="M72.53,102.5h-1v-.93h0a2,2,0,0,1-1.85,1.07,2,2,0,0,1-1.4-.47,1.63,1.63,0,0,1-.51-1.26c0-1.12.66-1.77,2-2l1.8-.25c0-1-.41-1.53-1.24-1.53a2.92,2.92,0,0,0-2,.74v-1a3.68,3.68,0,0,1,2-.57c1.41,0,2.11.75,2.11,2.24Zm-1-3-1.45.2a2.24,2.24,0,0,0-1,.33.93.93,0,0,0-.34.84.91.91,0,0,0,.31.72,1.25,1.25,0,0,0,.83.28,1.52,1.52,0,0,0,1.18-.51,1.74,1.74,0,0,0,.47-1.26Z"/><path class="cls-30" d="M79.46,102.5h-1v-1h0a2.19,2.19,0,0,1-2.06,1.16,2.23,2.23,0,0,1-1.81-.8,3.35,3.35,0,0,1-.68-2.2,3.6,3.6,0,0,1,.75-2.38,2.48,2.48,0,0,1,2-.9,1.93,1.93,0,0,1,1.8,1h0V93.62h1Zm-1-2.71v-.88A1.7,1.7,0,0,0,78,97.68a1.6,1.6,0,0,0-1.22-.51,1.66,1.66,0,0,0-1.38.65,2.81,2.81,0,0,0-.5,1.78,2.49,2.49,0,0,0,.48,1.64,1.61,1.61,0,0,0,1.3.6,1.65,1.65,0,0,0,1.3-.58A2.19,2.19,0,0,0,78.5,99.79Z"/><path class="cls-30" d="M84.82,102.5V94.1h2.39a2.66,2.66,0,0,1,1.73.53A1.72,1.72,0,0,1,89.58,96a2.07,2.07,0,0,1-.38,1.25,2.14,2.14,0,0,1-1.07.75v0a2.15,2.15,0,0,1,1.36.64,2,2,0,0,1,.51,1.41,2.2,2.2,0,0,1-.78,1.75,2.87,2.87,0,0,1-2,.66Zm1-7.51v2.72h1a2,2,0,0,0,1.27-.39,1.4,1.4,0,0,0,.46-1.1c0-.82-.54-1.23-1.61-1.23Zm0,3.6v3h1.33a2,2,0,0,0,1.35-.41,1.4,1.4,0,0,0,.48-1.12c0-1-.68-1.49-2-1.49Z"/><path class="cls-30" d="M95.87,102.5h-1v-.93h0a2.19,2.19,0,0,1-3.24.6,1.63,1.63,0,0,1-.51-1.26c0-1.12.66-1.77,2-2l1.8-.25c0-1-.41-1.53-1.24-1.53a3,3,0,0,0-2,.74v-1a3.71,3.71,0,0,1,2-.57c1.41,0,2.12.75,2.12,2.24Zm-1-3-1.45.2a2.28,2.28,0,0,0-1,.33,1,1,0,0,0-.34.84.92.92,0,0,0,.32.72,1.25,1.25,0,0,0,.83.28,1.52,1.52,0,0,0,1.18-.51,1.78,1.78,0,0,0,.47-1.26Z"/><path class="cls-30" d="M98.64,102.5h-1V93.62h1Z"/><path class="cls-30" d="M104.88,102.5h-1v-.93h0a2,2,0,0,1-1.85,1.07,2,2,0,0,1-1.4-.47,1.63,1.63,0,0,1-.51-1.26c0-1.12.66-1.77,2-2l1.8-.25c0-1-.41-1.53-1.24-1.53a2.92,2.92,0,0,0-2,.74v-1a3.68,3.68,0,0,1,2-.57c1.41,0,2.11.75,2.11,2.24Zm-1-3-1.45.2a2.32,2.32,0,0,0-1,.33,1,1,0,0,0-.34.84,1,1,0,0,0,.32.72,1.25,1.25,0,0,0,.83.28,1.52,1.52,0,0,0,1.18-.51,1.74,1.74,0,0,0,.47-1.26Z"/><path class="cls-30" d="M111.67,102.5h-1V99.08c0-1.27-.46-1.91-1.39-1.91a1.54,1.54,0,0,0-1.2.54,2,2,0,0,0-.47,1.37v3.42h-1v-6h1v1h0a2.16,2.16,0,0,1,2-1.14,1.84,1.84,0,0,1,1.51.64,2.8,2.8,0,0,1,.52,1.84Z"/><path class="cls-30" d="M117.57,102.23a3,3,0,0,1-1.64.41,2.69,2.69,0,0,1-2.07-.83,3,3,0,0,1-.79-2.17,3.36,3.36,0,0,1,.85-2.38,3,3,0,0,1,2.27-.9,3,3,0,0,1,1.39.3v1a2.42,2.42,0,0,0-1.43-.47,2,2,0,0,0-1.5.66,2.48,2.48,0,0,0-.59,1.73,2.36,2.36,0,0,0,.55,1.67,1.94,1.94,0,0,0,1.49.61,2.41,2.41,0,0,0,1.47-.53Z"/><path class="cls-30" d="M123.85,99.74h-4.24a2.25,2.25,0,0,0,.54,1.55,1.88,1.88,0,0,0,1.42.55,3,3,0,0,0,1.86-.67v.9a3.45,3.45,0,0,1-2.09.57,2.56,2.56,0,0,1-2-.81,3.3,3.3,0,0,1-.72-2.3,3.26,3.26,0,0,1,.79-2.29,2.56,2.56,0,0,1,2-.88,2.24,2.24,0,0,1,1.82.76,3.24,3.24,0,0,1,.65,2.12Zm-1-.81a1.9,1.9,0,0,0-.4-1.3,1.38,1.38,0,0,0-1.1-.46,1.54,1.54,0,0,0-1.15.49,2.24,2.24,0,0,0-.59,1.27Z"/><path class="cls-30" d="M128.43,97.48a1.17,1.17,0,0,0-.73-.2,1.24,1.24,0,0,0-1,.58,2.7,2.7,0,0,0-.42,1.59v3h-1v-6h1v1.24h0a2.11,2.11,0,0,1,.62-1,1.43,1.43,0,0,1,1-.35,1.58,1.58,0,0,1,.57.08Z"/><path class="cls-30" d="M90.29,241.62h-1v-8.4h1Z"/><path class="cls-30" d="M97.35,241.62h-1V238.2c0-1.27-.46-1.91-1.39-1.91a1.5,1.5,0,0,0-1.19.54,2,2,0,0,0-.47,1.37v3.42h-1v-6h1v1h0a2.18,2.18,0,0,1,2-1.14,1.8,1.8,0,0,1,1.5.64,2.79,2.79,0,0,1,.53,1.83Z"/><path class="cls-30" d="M101.94,241.56a1.87,1.87,0,0,1-.9.19c-1.05,0-1.57-.59-1.57-1.76v-3.55h-1v-.82h1v-1.46l1-.31v1.77h1.51v.82h-1.51v3.38a1.36,1.36,0,0,0,.2.86.81.81,0,0,0,.68.26,1,1,0,0,0,.63-.2Z"/><path class="cls-30" d="M108,238.86h-4.23a2.25,2.25,0,0,0,.54,1.55,1.87,1.87,0,0,0,1.42.54,2.89,2.89,0,0,0,1.86-.67v.91a3.45,3.45,0,0,1-2.09.57,2.52,2.52,0,0,1-2-.82,3.36,3.36,0,0,1-.73-2.3,3.29,3.29,0,0,1,.8-2.28,2.55,2.55,0,0,1,2-.88,2.26,2.26,0,0,1,1.82.76,3.17,3.17,0,0,1,.64,2.12Zm-1-.81a2,2,0,0,0-.4-1.3,1.39,1.39,0,0,0-1.1-.46,1.55,1.55,0,0,0-1.15.48,2.2,2.2,0,0,0-.59,1.28Z"/><path class="cls-30" d="M112.63,236.59a1.18,1.18,0,0,0-.73-.19,1.21,1.21,0,0,0-1,.58,2.66,2.66,0,0,0-.41,1.58v3.06h-1v-6h1v1.24h0a2.08,2.08,0,0,1,.63-1,1.37,1.37,0,0,1,.94-.35,1.43,1.43,0,0,1,.58.08Z"/><path class="cls-30" d="M118.65,241.62h-1V238.2c0-1.27-.46-1.91-1.39-1.91a1.54,1.54,0,0,0-1.2.54,2,2,0,0,0-.47,1.37v3.42h-1v-6h1v1h0a2.19,2.19,0,0,1,2-1.14,1.82,1.82,0,0,1,1.51.64,2.84,2.84,0,0,1,.52,1.83Z"/><path class="cls-30" d="M124.76,241.62h-1v-.94h0a2.2,2.2,0,0,1-3.25.61A1.66,1.66,0,0,1,120,240c0-1.12.66-1.78,2-2l1.79-.25q0-1.53-1.23-1.53a3,3,0,0,0-2,.74v-1a3.76,3.76,0,0,1,2-.56c1.41,0,2.12.75,2.12,2.24Zm-1-3-1.44.19a2.42,2.42,0,0,0-1,.34.93.93,0,0,0-.34.84.92.92,0,0,0,.31.71,1.18,1.18,0,0,0,.84.28,1.54,1.54,0,0,0,1.18-.5,1.78,1.78,0,0,0,.46-1.27Z"/><path class="cls-30" d="M127.53,241.62h-1v-8.88h1Z"/><path class="cls-30" d="M60,254.82H55.69v-8.4h1v7.51H60Z"/><path class="cls-30" d="M63.71,255a2.77,2.77,0,0,1-2.12-.84,3.15,3.15,0,0,1-.8-2.23,3.25,3.25,0,0,1,.83-2.36,3,3,0,0,1,2.23-.85,2.72,2.72,0,0,1,2.1.83,3.29,3.29,0,0,1,.75,2.29,3.24,3.24,0,0,1-.81,2.3A2.86,2.86,0,0,1,63.71,255Zm.07-5.47a1.8,1.8,0,0,0-1.46.63,2.53,2.53,0,0,0-.54,1.74,2.46,2.46,0,0,0,.54,1.68,1.84,1.84,0,0,0,1.46.61,1.75,1.75,0,0,0,1.44-.6,2.64,2.64,0,0,0,.5-1.72,2.67,2.67,0,0,0-.5-1.73,1.76,1.76,0,0,0-1.44-.61Z"/><path class="cls-30" d="M72.53,254.82h-1v-.94h0a2.2,2.2,0,0,1-3.25.61,1.67,1.67,0,0,1-.51-1.26c0-1.12.66-1.78,2-2l1.8-.25c0-1-.41-1.53-1.24-1.53a2.92,2.92,0,0,0-2,.74v-1a3.76,3.76,0,0,1,2-.56c1.41,0,2.11.75,2.11,2.24Zm-1-3-1.45.19a2.38,2.38,0,0,0-1,.34.93.93,0,0,0-.34.84.89.89,0,0,0,.31.71,1.15,1.15,0,0,0,.83.28,1.51,1.51,0,0,0,1.18-.5,1.75,1.75,0,0,0,.47-1.27Z"/><path class="cls-30" d="M79.46,254.82h-1v-1h0a2.43,2.43,0,0,1-3.87.36,3.35,3.35,0,0,1-.68-2.2,3.58,3.58,0,0,1,.75-2.38,2.45,2.45,0,0,1,2-.9,1.92,1.92,0,0,1,1.8,1h0v-3.71h1Zm-1-2.71v-.89A1.72,1.72,0,0,0,78,250a1.63,1.63,0,0,0-1.22-.5,1.67,1.67,0,0,0-1.38.64,2.82,2.82,0,0,0-.5,1.78,2.46,2.46,0,0,0,.48,1.64,1.56,1.56,0,0,0,1.3.6,1.59,1.59,0,0,0,1.3-.58,2.16,2.16,0,0,0,.5-1.46Z"/><path class="cls-30" d="M84.82,254.82v-8.4h2.39a2.55,2.55,0,0,1,1.73.53,1.71,1.71,0,0,1,.64,1.39,2,2,0,0,1-.38,1.24,2.08,2.08,0,0,1-1.07.75v0a2.15,2.15,0,0,1,1.36.64,2,2,0,0,1,.51,1.41,2.16,2.16,0,0,1-.78,1.74,2.83,2.83,0,0,1-2,.67Zm1-7.51V250h1a1.9,1.9,0,0,0,1.27-.39,1.38,1.38,0,0,0,.46-1.1c0-.81-.54-1.22-1.61-1.22Zm0,3.6v3h1.33a2,2,0,0,0,1.35-.41,1.42,1.42,0,0,0,.48-1.13c0-1-.68-1.48-2-1.48Z"/><path class="cls-30" d="M95.87,254.82h-1v-.94h0a2.19,2.19,0,0,1-3.24.61,1.63,1.63,0,0,1-.51-1.26c0-1.12.66-1.78,2-2l1.8-.25c0-1-.41-1.53-1.24-1.53a3,3,0,0,0-2,.74v-1a3.78,3.78,0,0,1,2-.56c1.41,0,2.12.75,2.12,2.24Zm-1-3-1.45.19a2.42,2.42,0,0,0-1,.34,1,1,0,0,0-.34.84.9.9,0,0,0,.32.71,1.15,1.15,0,0,0,.83.28,1.51,1.51,0,0,0,1.18-.5,1.79,1.79,0,0,0,.47-1.27Z"/><path class="cls-30" d="M98.64,254.82h-1v-8.88h1Z"/><path class="cls-30" d="M104.88,254.82h-1v-.94h0a2.2,2.2,0,0,1-3.25.61,1.63,1.63,0,0,1-.51-1.26c0-1.12.66-1.78,2-2l1.8-.25c0-1-.41-1.53-1.24-1.53a2.92,2.92,0,0,0-2,.74v-1a3.76,3.76,0,0,1,2-.56c1.41,0,2.11.75,2.11,2.24Zm-1-3-1.45.19a2.47,2.47,0,0,0-1,.34,1,1,0,0,0-.34.84.93.93,0,0,0,.32.71,1.15,1.15,0,0,0,.83.28,1.51,1.51,0,0,0,1.18-.5,1.75,1.75,0,0,0,.47-1.27Z"/><path class="cls-30" d="M111.67,254.82h-1V251.4c0-1.27-.46-1.91-1.39-1.91a1.54,1.54,0,0,0-1.2.54,2,2,0,0,0-.47,1.37v3.42h-1v-6h1v1h0a2.16,2.16,0,0,1,2-1.14,1.81,1.81,0,0,1,1.51.64,2.79,2.79,0,0,1,.52,1.83Z"/><path class="cls-30" d="M117.57,254.55a3.13,3.13,0,0,1-1.64.41,2.72,2.72,0,0,1-2.07-.83,3,3,0,0,1-.79-2.17,3.36,3.36,0,0,1,.85-2.38,3,3,0,0,1,2.27-.9,3.15,3.15,0,0,1,1.39.29v1a2.36,2.36,0,0,0-1.43-.47,1.89,1.89,0,0,0-1.5.66,2.48,2.48,0,0,0-.59,1.73,2.34,2.34,0,0,0,.55,1.66,1.87,1.87,0,0,0,1.49.61,2.4,2.4,0,0,0,1.47-.52Z"/><path class="cls-30" d="M123.85,252.06h-4.24a2.25,2.25,0,0,0,.54,1.55,1.87,1.87,0,0,0,1.42.54,2.87,2.87,0,0,0,1.86-.67v.91a3.45,3.45,0,0,1-2.09.57,2.53,2.53,0,0,1-2-.82,3.3,3.3,0,0,1-.72-2.3,3.23,3.23,0,0,1,.79-2.28,2.56,2.56,0,0,1,2-.88,2.24,2.24,0,0,1,1.82.76,3.24,3.24,0,0,1,.65,2.12Zm-1-.81a1.9,1.9,0,0,0-.4-1.3,1.38,1.38,0,0,0-1.1-.46,1.56,1.56,0,0,0-1.15.48,2.27,2.27,0,0,0-.59,1.28Z"/><path class="cls-30" d="M128.43,249.79a1.16,1.16,0,0,0-.73-.19,1.19,1.19,0,0,0-1,.58,2.67,2.67,0,0,0-.42,1.58v3.06h-1v-6h1v1.24h0a2.07,2.07,0,0,1,.62-1,1.63,1.63,0,0,1,1.52-.27Z"/><path class="cls-30" d="M30.06,159.17l-2.37,8.41H26.54l-1.73-6.14a4.17,4.17,0,0,1-.14-.86h0a3.89,3.89,0,0,1-.15.84l-1.74,6.16H21.61l-2.46-8.41h1.09L22,165.62a3.51,3.51,0,0,1,.14.84h0a5.08,5.08,0,0,1,.19-.84l1.85-6.45h.95l1.78,6.5a5.1,5.1,0,0,1,.14.78h0a4.64,4.64,0,0,1,.16-.81L29,159.17Z"/><path class="cls-30" d="M35.54,164.82H31.3a2.24,2.24,0,0,0,.54,1.54,1.84,1.84,0,0,0,1.42.55,3,3,0,0,0,1.86-.67v.9a3.52,3.52,0,0,1-2.09.58,2.52,2.52,0,0,1-2-.82,3.36,3.36,0,0,1-.73-2.3,3.29,3.29,0,0,1,.8-2.28,2.51,2.51,0,0,1,2-.88,2.26,2.26,0,0,1,1.82.76,3.19,3.19,0,0,1,.65,2.11Zm-1-.82a1.94,1.94,0,0,0-.4-1.29,1.33,1.33,0,0,0-1.1-.46,1.53,1.53,0,0,0-1.15.48,2.2,2.2,0,0,0-.59,1.27Z"/><path class="cls-30" d="M38,166.71h0v.87H37v-8.89h1v3.94h0a2.28,2.28,0,0,1,2.08-1.19,2.2,2.2,0,0,1,1.81.8,3.35,3.35,0,0,1,.65,2.16,3.76,3.76,0,0,1-.73,2.41,2.44,2.44,0,0,1-2,.91A2,2,0,0,1,38,166.71Zm0-2.42v.84a1.78,1.78,0,0,0,.48,1.26,1.73,1.73,0,0,0,2.44,0l.16-.18a3.05,3.05,0,0,0,.49-1.86,2.4,2.4,0,0,0-.46-1.57,1.58,1.58,0,0,0-1.25-.57,1.73,1.73,0,0,0-1.35.59,2.11,2.11,0,0,0-.51,1.46Z"/><path class="cls-30" d="M52.43,160.07H50v7.51H49v-7.51H46.6v-.9h5.83Z"/><path class="cls-30" d="M54.11,160.05a.61.61,0,0,1-.44-.17.59.59,0,0,1-.18-.45.6.6,0,0,1,.6-.62h0a.62.62,0,0,1,.45.17.64.64,0,0,1,0,.89h0A.59.59,0,0,1,54.11,160.05Zm.47,7.53h-1v-6h1Z"/><path class="cls-30" d="M61.35,164.82H57.11a2.24,2.24,0,0,0,.54,1.54,1.84,1.84,0,0,0,1.42.55,3,3,0,0,0,1.86-.67v.9a3.52,3.52,0,0,1-2.09.58,2.52,2.52,0,0,1-2-.82,3.36,3.36,0,0,1-.73-2.3,3.29,3.29,0,0,1,.8-2.28,2.51,2.51,0,0,1,2-.88,2.26,2.26,0,0,1,1.82.76,3.19,3.19,0,0,1,.65,2.11Zm-1-.82a1.94,1.94,0,0,0-.4-1.29,1.33,1.33,0,0,0-1.1-.46,1.53,1.53,0,0,0-1.15.48,2.2,2.2,0,0,0-.59,1.27Z"/><path class="cls-30" d="M65.93,162.55a1.18,1.18,0,0,0-.73-.19,1.21,1.21,0,0,0-1,.58,2.66,2.66,0,0,0-.41,1.58v3.06h-1v-6h1v1.23h0a2.13,2.13,0,0,1,.63-1,1.43,1.43,0,0,1,.94-.36,1.63,1.63,0,0,1,.58.08Z"/><path class="cls-30" d="M24.53,180.44v-1.16a2.46,2.46,0,0,0,.48.31,3,3,0,0,0,.59.24,6,6,0,0,0,.61.15,3.79,3.79,0,0,0,.58.05,2.21,2.21,0,0,0,1.35-.33,1.27,1.27,0,0,0,.3-1.57,1.62,1.62,0,0,0-.41-.46,4,4,0,0,0-.62-.39l-.78-.4c-.29-.15-.57-.3-.82-.46a3.58,3.58,0,0,1-.66-.5,1.9,1.9,0,0,1-.44-.62,2,2,0,0,1,.75-2.52,2.87,2.87,0,0,1,.93-.41,5,5,0,0,1,2.88.16v1.11a3.29,3.29,0,0,0-1.91-.51,3.47,3.47,0,0,0-.64.06,2,2,0,0,0-.58.22,1.42,1.42,0,0,0-.41.4,1,1,0,0,0-.15.58,1.11,1.11,0,0,0,.12.56,1.3,1.3,0,0,0,.35.43,4.28,4.28,0,0,0,.57.37l.78.4c.3.15.58.3.85.47a3.41,3.41,0,0,1,.71.54,2.63,2.63,0,0,1,.49.66,1.86,1.86,0,0,1,.17.84,2,2,0,0,1-.24,1.05,2.07,2.07,0,0,1-.65.7,3.08,3.08,0,0,1-1,.39,5.35,5.35,0,0,1-1.13.12,4.19,4.19,0,0,1-.5,0l-.59-.1a5.47,5.47,0,0,1-.58-.15A2.48,2.48,0,0,1,24.53,180.44Z"/><path class="cls-30" d="M36,180.78h-1v-.95h0a2,2,0,0,1-1.85,1.09c-1.43,0-2.15-.85-2.15-2.56v-3.58h1v3.43c0,1.27.48,1.9,1.45,1.9a1.49,1.49,0,0,0,1.16-.52,2,2,0,0,0,.45-1.36v-3.45h1Z"/><path class="cls-30" d="M39,179.91h0v.87H38v-8.89h1v3.94h0A2.25,2.25,0,0,1,41,174.64a2.17,2.17,0,0,1,1.81.8,3.35,3.35,0,0,1,.65,2.16,3.65,3.65,0,0,1-.73,2.41,2.43,2.43,0,0,1-2,.91A2,2,0,0,1,39,179.91Zm0-2.42v.84a1.78,1.78,0,0,0,.49,1.26,1.72,1.72,0,0,0,2.43,0l.16-.18a3.06,3.06,0,0,0,.5-1.86A2.41,2.41,0,0,0,42,176a1.54,1.54,0,0,0-1.25-.56,1.7,1.7,0,0,0-1.35.58A2.15,2.15,0,0,0,38.92,177.49Z"/><path class="cls-30" d="M50,180.78H49v-3.42c0-1.28-.47-1.91-1.4-1.91a1.5,1.5,0,0,0-1.19.54,2,2,0,0,0-.47,1.37v3.42H45v-6h1v1h0a2.15,2.15,0,0,1,2-1.13,1.86,1.86,0,0,1,1.51.63,2.89,2.89,0,0,1,.52,1.84Z"/><path class="cls-30" d="M56.63,178H52.39a2.22,2.22,0,0,0,.54,1.54,1.85,1.85,0,0,0,1.42.55,2.93,2.93,0,0,0,1.86-.67v.9a3.5,3.5,0,0,1-2.09.58,2.54,2.54,0,0,1-2-.82,3.35,3.35,0,0,1-.72-2.3,3.28,3.28,0,0,1,.79-2.28,2.54,2.54,0,0,1,2-.88,2.26,2.26,0,0,1,1.83.76,3.13,3.13,0,0,1,.64,2.11Zm-1-.82a2,2,0,0,0-.41-1.29,1.31,1.31,0,0,0-1.09-.46,1.53,1.53,0,0,0-1.16.48,2.19,2.19,0,0,0-.58,1.27Z"/><path class="cls-30" d="M60.87,180.72a1.87,1.87,0,0,1-.9.19c-1,0-1.58-.59-1.58-1.76V175.6h-1v-.82h1v-1.47l1-.31v1.78h1.52v.82H59.35V179a1.45,1.45,0,0,0,.21.86.83.83,0,0,0,.68.26,1.1,1.1,0,0,0,.63-.2Z"/><path class="cls-30" d="M124.75,46.79h-2.43V54.3h-1V46.79h-2.42V45.9h5.83Z"/><path class="cls-30" d="M131.23,54a4.92,4.92,0,0,1-2.32.49A3.76,3.76,0,0,1,126,53.29a4.26,4.26,0,0,1-1.07-3A4.44,4.44,0,0,1,126.17,47a4.12,4.12,0,0,1,3.08-1.24,5,5,0,0,1,2,.35v1a4.09,4.09,0,0,0-2-.5,3,3,0,0,0-2.34,1,3.6,3.6,0,0,0-.9,2.58,3.45,3.45,0,0,0,.84,2.45,2.86,2.86,0,0,0,2.2.91,4.24,4.24,0,0,0,2.2-.56Z"/><path class="cls-30" d="M133.92,51.13V54.3h-1V45.9h2.31a3,3,0,0,1,2.08.66,2.34,2.34,0,0,1,.75,1.85,2.57,2.57,0,0,1-.83,2,3.15,3.15,0,0,1-2.22.76Zm0-4.34v3.45h1a2.31,2.31,0,0,0,1.56-.47,1.63,1.63,0,0,0,.53-1.31c0-1.11-.65-1.67-2-1.67Z"/><path class="cls-30" d="M143.93,51.13V54.3h-1V45.9h2.31a3,3,0,0,1,2.09.66,2.33,2.33,0,0,1,.74,1.85,2.53,2.53,0,0,1-.82,2,3.17,3.17,0,0,1-2.22.76Zm0-4.34v3.45h1a2.31,2.31,0,0,0,1.56-.47,1.66,1.66,0,0,0,.53-1.31c0-1.11-.65-1.67-2-1.67Z"/><path class="cls-30" d="M151.6,54.44a2.79,2.79,0,0,1-2.13-.84,3.14,3.14,0,0,1-.79-2.23,3.27,3.27,0,0,1,.83-2.36,3,3,0,0,1,2.23-.85,2.69,2.69,0,0,1,2.09.83,3.75,3.75,0,0,1-.05,4.59A2.84,2.84,0,0,1,151.6,54.44Zm.07-5.47a1.87,1.87,0,0,0-1.47.63,2.65,2.65,0,0,0-.54,1.74,2.44,2.44,0,0,0,.55,1.68,1.87,1.87,0,0,0,1.46.62A1.78,1.78,0,0,0,153.1,53a2.61,2.61,0,0,0,.5-1.71,2.69,2.69,0,0,0-.5-1.74,1.73,1.73,0,0,0-1.43-.61Z"/><path class="cls-30" d="M159.25,49.28a1.17,1.17,0,0,0-.73-.2,1.25,1.25,0,0,0-1,.58,2.69,2.69,0,0,0-.42,1.58V54.3h-1v-6h1v1.24h0a2.11,2.11,0,0,1,.62-1,1.43,1.43,0,0,1,1-.35,1.58,1.58,0,0,1,.57.08Z"/><path class="cls-30" d="M163.08,54.24a1.76,1.76,0,0,1-.9.19c-1.05,0-1.58-.58-1.58-1.76V49.12h-1V48.3h1V46.84l1-.31V48.3h1.51v.82h-1.51V52.5a1.39,1.39,0,0,0,.2.87.82.82,0,0,0,.68.25,1,1,0,0,0,.63-.2Z"/><path class="cls-30" d="M167.2,52a2.19,2.19,0,0,1,.11-.67,2.43,2.43,0,0,1,.3-.63,2.24,2.24,0,0,1,.49-.53,2.16,2.16,0,0,1,.65-.39,2.38,2.38,0,0,1-.86-.78,1.74,1.74,0,0,1-.32-1.06,2,2,0,0,1,.67-1.53,2.21,2.21,0,0,1,.75-.45,2.84,2.84,0,0,1,1.88,0,2.41,2.41,0,0,1,.75.46,1.94,1.94,0,0,1,.49.68,2,2,0,0,1,.18.85A1.88,1.88,0,0,1,172,49a2.6,2.6,0,0,1-.86.79,2,2,0,0,1,.65.38,2.2,2.2,0,0,1,.48.53,2.46,2.46,0,0,1,.31.63,2.53,2.53,0,0,1,.1.67,2.34,2.34,0,0,1-.2,1,2.29,2.29,0,0,1-.56.78,2.58,2.58,0,0,1-.86.51,3.43,3.43,0,0,1-1.1.18,3.38,3.38,0,0,1-1.1-.18,2.76,2.76,0,0,1-.86-.51,2.31,2.31,0,0,1-.57-.78A2.67,2.67,0,0,1,167.2,52Zm1.05-.08a1.74,1.74,0,0,0,.12.71,1.46,1.46,0,0,0,.87.88,2,2,0,0,0,.69.12,1.91,1.91,0,0,0,.68-.12,1.54,1.54,0,0,0,.89-.89,1.91,1.91,0,0,0,0-1.36,1.62,1.62,0,0,0-.35-.54,1.5,1.5,0,0,0-.53-.37,1.68,1.68,0,0,0-.7-.14,1.74,1.74,0,0,0-.67.13,1.58,1.58,0,0,0-.53.35,1.82,1.82,0,0,0-.36.54A1.79,1.79,0,0,0,168.25,51.88Zm.29-3.9a1.4,1.4,0,0,0,.85,1.3,1.44,1.44,0,0,0,1.08,0,1.57,1.57,0,0,0,.45-.31,1.71,1.71,0,0,0,.3-.44,1.46,1.46,0,0,0,.11-.55,1.55,1.55,0,0,0-.11-.56,1.38,1.38,0,0,0-1.29-.85,1.36,1.36,0,0,0-.56.11,1.23,1.23,0,0,0-.44.3,1.34,1.34,0,0,0-.29.45A1.72,1.72,0,0,0,168.54,48Z"/><path class="cls-30" d="M179.12,50.07a8.42,8.42,0,0,1-.19,1.87,4.28,4.28,0,0,1-.55,1.37,2.42,2.42,0,0,1-.89.85,2.33,2.33,0,0,1-1.19.29,2.26,2.26,0,0,1-1.13-.28,2.3,2.3,0,0,1-.83-.81,4.13,4.13,0,0,1-.52-1.31,8.14,8.14,0,0,1-.17-1.78,9,9,0,0,1,.18-1.94,4.53,4.53,0,0,1,.54-1.42,2.53,2.53,0,0,1,.89-.86,2.47,2.47,0,0,1,1.22-.29Q179.12,45.76,179.12,50.07Zm-1,.09c0-2.39-.57-3.59-1.71-3.59s-1.8,1.22-1.8,3.65c0,2.27.59,3.41,1.77,3.41s1.74-1.16,1.74-3.47Z"/><path class="cls-30" d="M103.82,129a2.18,2.18,0,0,1,.1-.67,2.43,2.43,0,0,1,.3-.63,2.47,2.47,0,0,1,.49-.53,2.21,2.21,0,0,1,.66-.39,2.33,2.33,0,0,1-.87-.78,1.89,1.89,0,0,1-.32-1.06,2.09,2.09,0,0,1,.18-.85,1.94,1.94,0,0,1,.49-.68,2.31,2.31,0,0,1,.75-.45,2.84,2.84,0,0,1,1.88,0,2.58,2.58,0,0,1,.75.45,2.22,2.22,0,0,1,.5.68,2.26,2.26,0,0,1,.17.85,1.89,1.89,0,0,1-.32,1.06,2.39,2.39,0,0,1-.86.78,2.25,2.25,0,0,1,.65.39,2.47,2.47,0,0,1,.49.53,2.43,2.43,0,0,1,.3.63,2.18,2.18,0,0,1,.1.67,2.34,2.34,0,0,1-.2,1,2.13,2.13,0,0,1-.55.78,2.73,2.73,0,0,1-.87.51,3.38,3.38,0,0,1-1.1.18,3.47,3.47,0,0,1-1.1-.18,2.88,2.88,0,0,1-.86-.51A2.29,2.29,0,0,1,104,130,2.34,2.34,0,0,1,103.82,129Zm1-.08a1.93,1.93,0,0,0,.12.71,1.46,1.46,0,0,0,.87.88,2.06,2.06,0,0,0,.7.12,2,2,0,0,0,.68-.12,1.58,1.58,0,0,0,.53-.35,1.36,1.36,0,0,0,.35-.54,1.91,1.91,0,0,0,0-1.36,1.6,1.6,0,0,0-.34-.54,1.53,1.53,0,0,0-.54-.37,1.64,1.64,0,0,0-.69-.14,1.7,1.7,0,0,0-.67.13,1.54,1.54,0,0,0-.89.89A1.8,1.8,0,0,0,104.86,128.88Zm.3-3.9a1.39,1.39,0,0,0,.85,1.3,1.44,1.44,0,0,0,1.08,0,1.67,1.67,0,0,0,.44-.31,1.32,1.32,0,0,0,.3-.44,1.46,1.46,0,0,0,.11-.55,1.39,1.39,0,0,0-1.39-1.41,1.38,1.38,0,0,0-.57.11,1.43,1.43,0,0,0-.44.3,1.31,1.31,0,0,0-.28.45A1.49,1.49,0,0,0,105.16,125Z"/><path class="cls-30" d="M115.73,127.07a7.87,7.87,0,0,1-.19,1.87,4.28,4.28,0,0,1-.55,1.37,2.47,2.47,0,0,1-.88.85,2.38,2.38,0,0,1-1.19.29,2.21,2.21,0,0,1-1.13-.28,2.33,2.33,0,0,1-.84-.81,4.11,4.11,0,0,1-.51-1.31,7.58,7.58,0,0,1-.18-1.78,9.05,9.05,0,0,1,.19-1.94,4.3,4.3,0,0,1,.54-1.42,2.37,2.37,0,0,1,.89-.86,2.43,2.43,0,0,1,1.21-.29Q115.73,122.76,115.73,127.07Zm-1,.09c0-2.39-.57-3.59-1.71-3.59s-1.79,1.22-1.79,3.65c0,2.27.58,3.41,1.76,3.41S114.75,129.47,114.75,127.16Z"/><path class="cls-30" d="M143.49,129a2.18,2.18,0,0,1,.1-.67,2.43,2.43,0,0,1,.3-.63,2.47,2.47,0,0,1,.49-.53,2.21,2.21,0,0,1,.66-.39,2.33,2.33,0,0,1-.87-.78,1.89,1.89,0,0,1-.32-1.06,2,2,0,0,1,.67-1.53,2.31,2.31,0,0,1,.75-.45,2.84,2.84,0,0,1,1.88,0,2.41,2.41,0,0,1,.75.46,2.1,2.1,0,0,1,.5.68,2.19,2.19,0,0,1,.17.85,1.88,1.88,0,0,1-.32,1,2.51,2.51,0,0,1-.86.79,2,2,0,0,1,.65.38,2.47,2.47,0,0,1,.49.53,2.43,2.43,0,0,1,.3.63,2.18,2.18,0,0,1,.1.67,2.49,2.49,0,0,1-.19,1,2.29,2.29,0,0,1-.56.78,2.73,2.73,0,0,1-.87.51,3.38,3.38,0,0,1-1.1.18,3.47,3.47,0,0,1-1.1-.18,2.88,2.88,0,0,1-.86-.51,2.29,2.29,0,0,1-.56-.78A2.34,2.34,0,0,1,143.49,129Zm1-.08a1.93,1.93,0,0,0,.12.71,1.46,1.46,0,0,0,.87.88,2.06,2.06,0,0,0,.7.12,2,2,0,0,0,.68-.12,1.58,1.58,0,0,0,.53-.35,1.36,1.36,0,0,0,.35-.54,1.91,1.91,0,0,0,0-1.36,1.6,1.6,0,0,0-.34-.54,1.53,1.53,0,0,0-.54-.37,1.64,1.64,0,0,0-.69-.14,1.7,1.7,0,0,0-.67.13,1.54,1.54,0,0,0-.89.89,1.8,1.8,0,0,0-.13.69Zm.3-3.9a1.39,1.39,0,0,0,.85,1.3,1.44,1.44,0,0,0,1.08,0,1.67,1.67,0,0,0,.44-.31,1.32,1.32,0,0,0,.3-.44,1.46,1.46,0,0,0,.11-.55,1.39,1.39,0,0,0-1.39-1.41,1.38,1.38,0,0,0-.57.11,1.43,1.43,0,0,0-.44.3,1.31,1.31,0,0,0-.28.45,1.49,1.49,0,0,0-.1.55Z"/><path class="cls-30" d="M155.4,127.07a7.87,7.87,0,0,1-.19,1.87,4.28,4.28,0,0,1-.55,1.37,2.47,2.47,0,0,1-.88.85,2.38,2.38,0,0,1-1.19.29,2.21,2.21,0,0,1-1.13-.28,2.33,2.33,0,0,1-.84-.81,4.11,4.11,0,0,1-.51-1.31,7.58,7.58,0,0,1-.18-1.78,8.46,8.46,0,0,1,.19-1.94,4.3,4.3,0,0,1,.54-1.42,2.37,2.37,0,0,1,.89-.86,2.43,2.43,0,0,1,1.21-.29Q155.4,122.76,155.4,127.07Zm-1,.09c0-2.39-.57-3.59-1.71-3.59s-1.8,1.22-1.8,3.65c0,2.27.59,3.41,1.77,3.41S154.42,129.47,154.42,127.16Z"/><path class="cls-30" d="M184.06,129a2.18,2.18,0,0,1,.1-.67,2.46,2.46,0,0,1,.31-.63,2.43,2.43,0,0,1,.48-.53,2.21,2.21,0,0,1,.66-.39,2.41,2.41,0,0,1-.87-.78,1.89,1.89,0,0,1-.32-1.06,2,2,0,0,1,.68-1.53,2.12,2.12,0,0,1,.75-.45,2.88,2.88,0,0,1,1.88,0,2.72,2.72,0,0,1,.75.45,2.19,2.19,0,0,1,.49.68,1.93,1.93,0,0,1,.17.85,1.81,1.81,0,0,1-.32,1.06,2.44,2.44,0,0,1-.85.78,2.55,2.55,0,0,1,.65.39,2.43,2.43,0,0,1,.78,1.16,2.19,2.19,0,0,1,.11.67,2.67,2.67,0,0,1-.2,1,2.29,2.29,0,0,1-.56.78,2.68,2.68,0,0,1-.86.51,3.49,3.49,0,0,1-1.11.18,3.37,3.37,0,0,1-1.09-.18,2.76,2.76,0,0,1-.86-.51,2.19,2.19,0,0,1-.57-.78A2.34,2.34,0,0,1,184.06,129Zm1-.08a2.16,2.16,0,0,0,.12.71,1.7,1.7,0,0,0,.34.54,1.55,1.55,0,0,0,.53.34,2.1,2.1,0,0,0,.7.12,2,2,0,0,0,.68-.12,1.73,1.73,0,0,0,.54-.35,1.62,1.62,0,0,0,.35-.54,2,2,0,0,0,0-1.36,1.46,1.46,0,0,0-.34-.54,1.5,1.5,0,0,0-.53-.37,1.68,1.68,0,0,0-.7-.14,1.7,1.7,0,0,0-.67.13,1.58,1.58,0,0,0-.53.35,1.51,1.51,0,0,0-.36.54A1.8,1.8,0,0,0,185.1,128.88Zm.3-3.9a1.39,1.39,0,0,0,.85,1.3,1.44,1.44,0,0,0,1.08,0,1.4,1.4,0,0,0,.44-.31,1.32,1.32,0,0,0,.3-.44,1.15,1.15,0,0,0,.11-.55,1.35,1.35,0,0,0-.1-.56,1.38,1.38,0,0,0-1.29-.85,1.41,1.41,0,0,0-.57.11,1.43,1.43,0,0,0-.44.3,1.31,1.31,0,0,0-.28.45,1.49,1.49,0,0,0-.1.55Z"/><path class="cls-30" d="M196,127.07a9.06,9.06,0,0,1-.19,1.87,4.53,4.53,0,0,1-.55,1.37,2.5,2.5,0,0,1-.89.85,2.36,2.36,0,0,1-1.19.29,2.22,2.22,0,0,1-2-1.09,4.13,4.13,0,0,1-.52-1.31,8.81,8.81,0,0,1-.18-1.78,9.74,9.74,0,0,1,.19-1.94,4.53,4.53,0,0,1,.54-1.42,2.36,2.36,0,0,1,2.1-1.15Q196,122.76,196,127.07Zm-1,.09c0-2.39-.57-3.59-1.7-3.59s-1.8,1.22-1.8,3.65c0,2.27.59,3.41,1.76,3.41s1.74-1.16,1.74-3.47Z"/><path class="cls-30" d="M147.09,182.4,144,190.8H142.9l-3.05-8.4H141l2.32,6.66a3.88,3.88,0,0,1,.17.75h0a4.05,4.05,0,0,1,.2-.76L146,182.4Z"/><path class="cls-30" d="M156.87,190.8h-1v-5.63c0-.45,0-1,.08-1.64h0a6,6,0,0,1-.26.82l-2.87,6.45h-.48l-2.86-6.41a5,5,0,0,1-.26-.86h0c0,.34.05.89.05,1.65v5.62h-.95v-8.4h1.3l2.58,5.86a7.22,7.22,0,0,1,.38,1h0c.17-.46.3-.81.4-1l2.64-5.84h1.23Z"/><path class="cls-30" d="M94.47,182.4l-3.11,8.4H90.27l-3-8.4h1.09l2.33,6.66a3.88,3.88,0,0,1,.17.75h0a4.05,4.05,0,0,1,.2-.76l2.37-6.65Z"/><path class="cls-30" d="M104.24,190.8h-1v-5.63c0-.45,0-1,.09-1.64h0a4.84,4.84,0,0,1-.25.82l-2.87,6.45h-.48l-2.87-6.41a6.09,6.09,0,0,1-.25-.86h0c0,.34,0,.89,0,1.65v5.62h-.95v-8.4H97l2.58,5.86a7.22,7.22,0,0,1,.38,1h0c.17-.46.3-.81.4-1L103,182.4h1.23Z"/><path class="cls-30" d="M199.47,182.4l-3.11,8.4h-1.09l-3-8.4h1.09l2.33,6.66a3.88,3.88,0,0,1,.17.75h0a4.05,4.05,0,0,1,.2-.76l2.37-6.65Z"/><path class="cls-30" d="M209.24,190.8h-1v-5.63c0-.45,0-1,.09-1.64h0a4.84,4.84,0,0,1-.25.82l-2.87,6.45h-.48l-2.87-6.41a6.09,6.09,0,0,1-.25-.86h0c0,.34,0,.89,0,1.65v5.62h-.95v-8.4H202l2.58,5.86a7.22,7.22,0,0,1,.38,1h0c.17-.46.3-.81.4-1L208,182.4h1.23Z"/><path class="cls-30" d="M21.14,313.08v-8.41h2.39a2.63,2.63,0,0,1,1.73.54,1.71,1.71,0,0,1,.64,1.39,2,2,0,0,1-1.45,2v0a2.15,2.15,0,0,1,1.36.64,2,2,0,0,1,.51,1.41,2.21,2.21,0,0,1-.78,1.75,2.88,2.88,0,0,1-1.95.67Zm1-7.51v2.71h1a2,2,0,0,0,1.28-.39,1.39,1.39,0,0,0,.46-1.1c0-.82-.54-1.22-1.61-1.22Zm0,3.59v3h1.33a2,2,0,0,0,1.35-.41,1.44,1.44,0,0,0,.48-1.13c0-1-.68-1.49-2-1.49Z"/><path class="cls-30" d="M32.74,313.08h-1v-.95h0a2,2,0,0,1-1.85,1.09c-1.43,0-2.15-.85-2.15-2.56v-3.58h1v3.43c0,1.27.48,1.9,1.45,1.9a1.47,1.47,0,0,0,1.16-.52,2,2,0,0,0,.45-1.36v-3.45h1Z"/><path class="cls-30" d="M34.32,312.86v-1a2.84,2.84,0,0,0,1.73.58q1.26,0,1.26-.84a.72.72,0,0,0-.1-.41,1.07,1.07,0,0,0-.3-.3,2.22,2.22,0,0,0-.43-.23l-.54-.21c-.24-.1-.47-.2-.7-.32a2.23,2.23,0,0,1-.5-.37,1.33,1.33,0,0,1-.31-.46,1.72,1.72,0,0,1-.1-.6,1.43,1.43,0,0,1,.2-.75,1.64,1.64,0,0,1,.51-.54,2.47,2.47,0,0,1,.74-.33,3,3,0,0,1,.85-.11,3.32,3.32,0,0,1,1.39.27v1a2.72,2.72,0,0,0-1.52-.44,1.66,1.66,0,0,0-.49.07,1,1,0,0,0-.37.17.78.78,0,0,0-.24.27.66.66,0,0,0-.08.34.76.76,0,0,0,.08.39.84.84,0,0,0,.25.28,2,2,0,0,0,.4.23l.53.21a6.58,6.58,0,0,1,.72.32,2.31,2.31,0,0,1,.54.36,1.53,1.53,0,0,1,.34.46,1.72,1.72,0,0,1,.12.63,1.39,1.39,0,0,1-.2.77,1.71,1.71,0,0,1-.52.55,2.32,2.32,0,0,1-.76.32,3.8,3.8,0,0,1-.89.11A3.45,3.45,0,0,1,34.32,312.86Z"/><path class="cls-30" d="M40.27,305.55a.58.58,0,0,1-.44-.17.59.59,0,0,1-.18-.45.6.6,0,0,1,.6-.62h0a.62.62,0,0,1,.45,1.06h0A.59.59,0,0,1,40.27,305.55Zm.47,7.53h-1v-6h1Z"/><path class="cls-30" d="M47.66,313.08h-1v-3.42c0-1.28-.46-1.91-1.39-1.91a1.51,1.51,0,0,0-1.2.54,2,2,0,0,0-.47,1.37v3.42h-1v-6h1v1h0a2.14,2.14,0,0,1,2-1.13,1.83,1.83,0,0,1,1.51.63,2.83,2.83,0,0,1,.52,1.84Z"/><path class="cls-30" d="M54.29,310.32H50.06a2.24,2.24,0,0,0,.54,1.54,1.84,1.84,0,0,0,1.42.55,3,3,0,0,0,1.86-.67v.9a3.52,3.52,0,0,1-2.09.58,2.52,2.52,0,0,1-2-.82,3.36,3.36,0,0,1-.73-2.3,3.29,3.29,0,0,1,.8-2.28,2.51,2.51,0,0,1,2-.88,2.26,2.26,0,0,1,1.82.76,3.13,3.13,0,0,1,.64,2.11Zm-1-.82a1.94,1.94,0,0,0-.4-1.29,1.33,1.33,0,0,0-1.1-.46,1.51,1.51,0,0,0-1.15.48,2.2,2.2,0,0,0-.59,1.27Z"/><path class="cls-30" d="M55.38,312.86v-1a2.86,2.86,0,0,0,1.73.58c.85,0,1.27-.28,1.27-.84a.72.72,0,0,0-.11-.41,1.18,1.18,0,0,0-.29-.3,2.3,2.3,0,0,0-.44-.23l-.53-.21c-.24-.1-.47-.2-.7-.32a2.08,2.08,0,0,1-.51-.37,1.31,1.31,0,0,1-.3-.46,1.52,1.52,0,0,1-.1-.6,1.42,1.42,0,0,1,.19-.75,1.78,1.78,0,0,1,.52-.54,2.41,2.41,0,0,1,.73-.33,3.1,3.1,0,0,1,.85-.11,3.36,3.36,0,0,1,1.4.27v1a2.78,2.78,0,0,0-1.53-.44,1.59,1.59,0,0,0-.48.07,1,1,0,0,0-.37.17.78.78,0,0,0-.24.27.67.67,0,0,0-.09.34.89.89,0,0,0,.09.39.75.75,0,0,0,.25.28,1.9,1.9,0,0,0,.39.23l.54.21a6.43,6.43,0,0,1,.71.32,2,2,0,0,1,.54.36,1.36,1.36,0,0,1,.46,1.09,1.47,1.47,0,0,1-.19.77,1.64,1.64,0,0,1-.53.55,2.27,2.27,0,0,1-.75.32,4,4,0,0,1-.9.11A3.45,3.45,0,0,1,55.38,312.86Z"/><path class="cls-30" d="M60.48,312.86v-1a2.82,2.82,0,0,0,1.73.58q1.26,0,1.26-.84a.65.65,0,0,0-.11-.41,1,1,0,0,0-.29-.3,2.55,2.55,0,0,0-.43-.23l-.54-.21c-.24-.1-.47-.2-.7-.32a1.86,1.86,0,0,1-.5-.37,1.21,1.21,0,0,1-.31-.46,1.52,1.52,0,0,1-.1-.6,1.42,1.42,0,0,1,.19-.75,1.78,1.78,0,0,1,.52-.54,2.41,2.41,0,0,1,.73-.33,3.12,3.12,0,0,1,.86-.11,3.35,3.35,0,0,1,1.39.27v1a2.72,2.72,0,0,0-1.52-.44,1.61,1.61,0,0,0-.49.07,1,1,0,0,0-.37.17.78.78,0,0,0-.24.27.67.67,0,0,0-.09.34.89.89,0,0,0,.09.39.75.75,0,0,0,.25.28,1.74,1.74,0,0,0,.4.23l.53.21a6.43,6.43,0,0,1,.71.32,2,2,0,0,1,.54.36,1.56,1.56,0,0,1,.35.46,1.72,1.72,0,0,1,.12.63,1.58,1.58,0,0,1-.2.77,1.64,1.64,0,0,1-.53.55,2.27,2.27,0,0,1-.75.32,3.89,3.89,0,0,1-.9.11A3.41,3.41,0,0,1,60.48,312.86Z"/><path class="cls-30" d="M38.75,318.77H36.32v7.51h-1v-7.51H32.92v-.9h5.83Z"/><path class="cls-30" d="M40.43,318.75a.61.61,0,0,1-.44-.17.63.63,0,0,1-.18-.45.6.6,0,0,1,.6-.62h0a.62.62,0,0,1,.45,1.06h0A.59.59,0,0,1,40.43,318.75Zm.47,7.53h-1v-6h1Z"/><path class="cls-30" d="M47.67,323.52H43.43a2.22,2.22,0,0,0,.54,1.54,1.84,1.84,0,0,0,1.42.55,2.93,2.93,0,0,0,1.86-.67v.9a3.52,3.52,0,0,1-2.09.58,2.53,2.53,0,0,1-2-.82,3.3,3.3,0,0,1-.72-2.3,3.23,3.23,0,0,1,.79-2.28,2.53,2.53,0,0,1,2-.88,2.24,2.24,0,0,1,1.82.76,3.19,3.19,0,0,1,.65,2.11Zm-1-.82a1.89,1.89,0,0,0-.4-1.29,1.32,1.32,0,0,0-1.1-.46,1.53,1.53,0,0,0-1.15.48,2.27,2.27,0,0,0-.59,1.27Z"/><path class="cls-30" d="M52.25,321.25a1.16,1.16,0,0,0-.73-.19,1.19,1.19,0,0,0-1,.58,2.67,2.67,0,0,0-.42,1.58v3.06h-1v-6h1v1.23h0a2,2,0,0,1,.62-1,1.44,1.44,0,0,1,1-.36,1.58,1.58,0,0,1,.57.08Z"/><path class="cls-30" d="M24.53,339.14V338a2.46,2.46,0,0,0,.48.31,3,3,0,0,0,.59.24,6,6,0,0,0,.61.15,3.79,3.79,0,0,0,.58.05,2.21,2.21,0,0,0,1.35-.33,1.27,1.27,0,0,0,.3-1.57,1.62,1.62,0,0,0-.41-.46,4,4,0,0,0-.62-.39l-.78-.41a7.93,7.93,0,0,1-.82-.45,3.58,3.58,0,0,1-.66-.5,1.9,1.9,0,0,1-.44-.62,2,2,0,0,1,.75-2.52,2.87,2.87,0,0,1,.93-.41,5,5,0,0,1,2.88.16v1.11a3.38,3.38,0,0,0-1.91-.52,3.48,3.48,0,0,0-.64.07,2,2,0,0,0-.58.22,1.38,1.38,0,0,0-.41.39,1,1,0,0,0-.15.59,1.11,1.11,0,0,0,.12.56,1.18,1.18,0,0,0,.35.42,3.53,3.53,0,0,0,.57.38l.78.4c.3.15.58.3.85.47a3.41,3.41,0,0,1,.71.54,2.63,2.63,0,0,1,.49.66,1.86,1.86,0,0,1,.17.84,2.05,2.05,0,0,1-.24,1.05,2.07,2.07,0,0,1-.65.7,3.08,3.08,0,0,1-1,.39,5.35,5.35,0,0,1-1.13.12c-.17,0-.33,0-.5,0l-.59-.1a5.47,5.47,0,0,1-.58-.15A2.48,2.48,0,0,1,24.53,339.14Z"/><path class="cls-30" d="M36,339.48h-1v-1h0a2,2,0,0,1-1.85,1.09c-1.43,0-2.15-.85-2.15-2.56v-3.58h1v3.43c0,1.27.48,1.9,1.45,1.9a1.49,1.49,0,0,0,1.16-.52,2,2,0,0,0,.45-1.36v-3.45h1Z"/><path class="cls-30" d="M39,338.61h0v.87H38v-8.89h1v3.94h0A2.25,2.25,0,0,1,41,333.34a2.17,2.17,0,0,1,1.81.8,3.35,3.35,0,0,1,.65,2.16,3.65,3.65,0,0,1-.73,2.41,2.46,2.46,0,0,1-2,.91A2,2,0,0,1,39,338.61Zm0-2.42V337a1.78,1.78,0,0,0,.49,1.26,1.73,1.73,0,0,0,2.44,0l.15-.18a3.06,3.06,0,0,0,.5-1.86,2.41,2.41,0,0,0-.47-1.57,1.58,1.58,0,0,0-1.25-.57,1.75,1.75,0,0,0-1.35.59,2.15,2.15,0,0,0-.51,1.46Z"/><path class="cls-30" d="M50,339.48H49v-3.43c0-1.27-.47-1.91-1.4-1.91a1.48,1.48,0,0,0-1.19.55,2,2,0,0,0-.47,1.36v3.43H45v-6h1v1h0a2.15,2.15,0,0,1,2-1.13,1.86,1.86,0,0,1,1.51.63,2.87,2.87,0,0,1,.52,1.84Z"/><path class="cls-30" d="M56.63,336.72H52.39a2.24,2.24,0,0,0,.54,1.54,1.85,1.85,0,0,0,1.42.55,2.93,2.93,0,0,0,1.86-.67v.9a3.5,3.5,0,0,1-2.09.58,2.54,2.54,0,0,1-2-.82,3.35,3.35,0,0,1-.72-2.3,3.28,3.28,0,0,1,.79-2.28,2.54,2.54,0,0,1,2-.88,2.26,2.26,0,0,1,1.83.76,3.13,3.13,0,0,1,.64,2.11Zm-1-.82a2,2,0,0,0-.41-1.29,1.35,1.35,0,0,0-1.09-.47,1.58,1.58,0,0,0-1.16.49,2.19,2.19,0,0,0-.58,1.27Z"/><path class="cls-30" d="M60.87,339.42a2,2,0,0,1-.9.19c-1,0-1.58-.59-1.58-1.76V334.3h-1v-.82h1V332l1-.31v1.78h1.52v.82H59.35v3.38a1.45,1.45,0,0,0,.21.86.83.83,0,0,0,.68.26,1.1,1.1,0,0,0,.63-.2Z"/><path class="cls-30" d="M103.75,269.75v5.55h1.08v.88h-1.08v2h-.94v-2h-4v-.84q.54-.61,1.11-1.32c.37-.47.73-.95,1.07-1.44s.66-1,.95-1.45a12.2,12.2,0,0,0,.74-1.38Zm-3.81,5.55h2.87v-4.12c-.3.52-.58,1-.84,1.37s-.51.77-.74,1.1-.47.63-.68.89Z"/><path class="cls-30" d="M110.22,269.75v5.55h1.08v.88h-1.08v2h-1v-2h-3.94v-.84q.54-.61,1.11-1.32c.37-.47.73-.95,1.07-1.44s.66-1,.95-1.45a12.2,12.2,0,0,0,.74-1.38Zm-3.81,5.55h2.86v-4.12c-.29.52-.57,1-.83,1.37s-.51.77-.74,1.1-.47.63-.68.89l-.61.76Z"/><path class="cls-30" d="M117.3,275.77a2.49,2.49,0,0,1-.22,1,2.31,2.31,0,0,1-.6.79,2.8,2.8,0,0,1-.94.52,4,4,0,0,1-1.2.18,3.56,3.56,0,0,1-1.91-.46v-1a3.12,3.12,0,0,0,1.95.67,3,3,0,0,0,.79-.11,1.81,1.81,0,0,0,.61-.33,1.39,1.39,0,0,0,.39-.51,1.42,1.42,0,0,0,.14-.67q0-1.65-2.34-1.65h-.7v-.81h.66c1.39,0,2.08-.52,2.08-1.55s-.53-1.43-1.59-1.43a2.77,2.77,0,0,0-1.67.6v-.93a3.7,3.7,0,0,1,1.92-.48,2.81,2.81,0,0,1,1,.14,2.19,2.19,0,0,1,.73.41,1.75,1.75,0,0,1,.47.64,1.87,1.87,0,0,1,.17.81,2,2,0,0,1-1.67,2.13v0a2.72,2.72,0,0,1,.79.21,2.16,2.16,0,0,1,.62.41,2,2,0,0,1,.42.61A2,2,0,0,1,117.3,275.77Z"/><path class="cls-30" d="M144.7,274.81v5.54h1.08v.88H144.7v2h-.95v-2h-3.94v-.83c.36-.41.73-.86,1.11-1.33s.73-.94,1.07-1.43.66-1,.95-1.45a13.12,13.12,0,0,0,.74-1.38Zm-3.81,5.54h2.86v-4.11c-.29.51-.57,1-.83,1.37s-.51.77-.74,1.1-.47.62-.68.89-.42.52-.61.75Z"/><path class="cls-30" d="M151.17,274.81v5.54h1.08v.88h-1.08v2h-.95v-2h-3.95v-.83c.37-.41.74-.86,1.12-1.33s.73-.94,1.07-1.43.66-1,.95-1.45a15.28,15.28,0,0,0,.74-1.38Zm-3.81,5.54h2.86v-4.11c-.29.51-.57,1-.83,1.37s-.51.77-.75,1.1-.46.62-.67.89S147.55,280.12,147.36,280.35Z"/><path class="cls-30" d="M158.25,280.83a2.41,2.41,0,0,1-.22,1,2.25,2.25,0,0,1-.6.8,2.87,2.87,0,0,1-.94.51,4.21,4.21,0,0,1-3.11-.27v-1a3,3,0,0,0,2,.66,2.36,2.36,0,0,0,.79-.11,1.63,1.63,0,0,0,.61-.32,1.39,1.39,0,0,0,.39-.51,1.55,1.55,0,0,0,.14-.67q0-1.65-2.34-1.65h-.7v-.81h.66c1.38,0,2.08-.52,2.08-1.55s-.53-1.43-1.59-1.43a2.65,2.65,0,0,0-1.67.6v-.94a3.77,3.77,0,0,1,1.91-.48,3.11,3.11,0,0,1,1,.15,2.19,2.19,0,0,1,.73.41,1.87,1.87,0,0,1,.64,1.45,2,2,0,0,1-1.68,2.13v0a2.78,2.78,0,0,1,.8.21,2.19,2.19,0,0,1,.62.42,1.85,1.85,0,0,1,.42.61A2,2,0,0,1,158.25,280.83Z"/><path class="cls-30" d="M181.66,269.75v5.55h1.08v.88h-1.08v2h-.95v-2h-4v-.84c.37-.41.74-.85,1.12-1.32s.73-.95,1.07-1.44.66-1,1-1.45a14,14,0,0,0,.74-1.38Zm-3.81,5.55h2.86v-4.12c-.29.52-.57,1-.83,1.37s-.51.77-.75,1.1-.46.63-.67.89l-.61.76Z"/><path class="cls-30" d="M188.13,269.75v5.55h1.08v.88h-1.08v2h-.95v-2h-4v-.84q.56-.61,1.11-1.32t1.08-1.44c.34-.48.66-1,1-1.45a12.13,12.13,0,0,0,.73-1.38Zm-3.81,5.55h2.86v-4.12c-.29.52-.57,1-.83,1.37s-.51.77-.75,1.1-.46.63-.68.89l-.6.76Z"/><path class="cls-30" d="M195.2,275.77a2.48,2.48,0,0,1-.21,1,2.33,2.33,0,0,1-.61.79,2.75,2.75,0,0,1-.93.52,4.06,4.06,0,0,1-1.2.18,3.54,3.54,0,0,1-1.91-.46v-1a3.09,3.09,0,0,0,2.74.56,1.81,1.81,0,0,0,.61-.33,1.39,1.39,0,0,0,.39-.51,1.71,1.71,0,0,0,.14-.67c0-1.1-.78-1.65-2.35-1.65h-.69v-.81h.66c1.38,0,2.07-.52,2.07-1.55s-.52-1.43-1.58-1.43a2.73,2.73,0,0,0-1.67.6v-.93a3.65,3.65,0,0,1,1.91-.48,2.83,2.83,0,0,1,1,.14,2.4,2.4,0,0,1,.73.41,1.87,1.87,0,0,1,.47.64,2.15,2.15,0,0,1-1.51,2.94v0a2.72,2.72,0,0,1,.79.21,2.08,2.08,0,0,1,.63.41,1.77,1.77,0,0,1,.41.61A1.86,1.86,0,0,1,195.2,275.77Z"/><path class="cls-30" d="M147.09,332.4,144,340.8H142.9l-3.05-8.4H141l2.32,6.66a3.88,3.88,0,0,1,.17.75h0a4.05,4.05,0,0,1,.2-.76L146,332.4Z"/><path class="cls-30" d="M156.87,340.8h-1v-5.63c0-.45,0-1,.08-1.64h0a6,6,0,0,1-.26.82l-2.87,6.45h-.48l-2.86-6.41a5,5,0,0,1-.26-.86h0c0,.34.05.89.05,1.65v5.62h-.95v-8.4h1.3l2.58,5.86a7.22,7.22,0,0,1,.38,1h0c.17-.46.3-.81.4-1l2.64-5.84h1.23Z"/><path class="cls-30" d="M94.47,332.4l-3.11,8.4H90.27l-3-8.4h1.09l2.33,6.66a3.88,3.88,0,0,1,.17.75h0a4.05,4.05,0,0,1,.2-.76l2.37-6.65Z"/><path class="cls-30" d="M104.24,340.8h-1v-5.63c0-.45,0-1,.09-1.64h0a4.84,4.84,0,0,1-.25.82l-2.87,6.45h-.48l-2.87-6.41a6.09,6.09,0,0,1-.25-.86h0c0,.34,0,.89,0,1.65v5.62h-.95v-8.4H97l2.58,5.86a7.22,7.22,0,0,1,.38,1h0c.17-.46.3-.81.4-1L103,332.4h1.23Z"/><path class="cls-30" d="M199.47,332.4l-3.11,8.4h-1.09l-3-8.4h1.09l2.33,6.66a3.88,3.88,0,0,1,.17.75h0a4.05,4.05,0,0,1,.2-.76l2.37-6.65Z"/><path class="cls-30" d="M209.24,340.8h-1v-5.63c0-.45,0-1,.09-1.64h0a4.84,4.84,0,0,1-.25.82l-2.87,6.45h-.48l-2.87-6.41a6.09,6.09,0,0,1-.25-.86h0c0,.34,0,.89,0,1.65v5.62h-.95v-8.4H202l2.58,5.86a7.22,7.22,0,0,1,.38,1h0c.17-.46.3-.81.4-1L208,332.4h1.23Z"/><path class="cls-30" d="M14.82,382.74l-3.11,8.4H10.63l-3.05-8.4H8.67L11,389.4a3.72,3.72,0,0,1,.17.75h0a3.86,3.86,0,0,1,.2-.76l2.37-6.65Z"/><path class="cls-30" d="M16.47,383.62a.6.6,0,0,1-.44-.18.55.55,0,0,1-.18-.44.61.61,0,0,1,.6-.63h0a.62.62,0,0,1,.45,1.06h0A.63.63,0,0,1,16.47,383.62Zm.47,7.52H16v-6h1Z"/><path class="cls-30" d="M21.89,386.12a1.11,1.11,0,0,0-.73-.2,1.25,1.25,0,0,0-1,.58,2.69,2.69,0,0,0-.42,1.58v3.06h-1v-6h1v1.24h0a2.14,2.14,0,0,1,.62-1,1.45,1.45,0,0,1,.95-.35,1.58,1.58,0,0,1,.57.08Z"/><path class="cls-30" d="M26.12,391.08a1.87,1.87,0,0,1-.9.19c-1,0-1.58-.58-1.58-1.76V386h-1v-.82h1v-1.46l1-.31v1.77h1.52V386H24.6v3.38a1.42,1.42,0,0,0,.21.86.79.79,0,0,0,.68.26,1,1,0,0,0,.63-.2Z"/><path class="cls-30" d="M32.23,391.14h-1v-.95h0a2,2,0,0,1-1.85,1.09c-1.43,0-2.14-.85-2.14-2.55v-3.59h.95v3.44c0,1.26.48,1.89,1.45,1.89a1.43,1.43,0,0,0,1.16-.51,1.93,1.93,0,0,0,.45-1.36v-3.46h1Z"/><path class="cls-30" d="M38.37,391.14h-1v-.94h0a2,2,0,0,1-1.85,1.08,2,2,0,0,1-1.4-.47,1.63,1.63,0,0,1-.51-1.26c0-1.12.66-1.77,2-2l1.8-.25c0-1-.41-1.53-1.24-1.53a2.92,2.92,0,0,0-2,.74v-1a3.72,3.72,0,0,1,2-.56c1.41,0,2.12.75,2.12,2.24Zm-1-3-1.45.2a2.32,2.32,0,0,0-1,.33,1,1,0,0,0-.34.84,1,1,0,0,0,.32.72,1.19,1.19,0,0,0,.83.27,1.51,1.51,0,0,0,1.18-.5,1.74,1.74,0,0,0,.47-1.26Z"/><path class="cls-30" d="M41.07,391.14h-1v-8.88h1Z"/><path class="cls-30" d="M53.21,391.14H52l-4.32-6.69a2.94,2.94,0,0,1-.27-.53h0a8.85,8.85,0,0,1,.05,1.15v6.07h-1v-8.4h1.28l4.21,6.59c.17.28.29.46.34.56h0a8.45,8.45,0,0,1-.06-1.23v-5.92h1Z"/><path class="cls-30" d="M60.06,388.38H55.82a2.25,2.25,0,0,0,.54,1.55,1.87,1.87,0,0,0,1.42.54,2.94,2.94,0,0,0,1.86-.66v.9a3.45,3.45,0,0,1-2.09.57,2.54,2.54,0,0,1-2-.81,3.36,3.36,0,0,1-.73-2.3,3.31,3.31,0,0,1,.8-2.29,2.55,2.55,0,0,1,2-.88,2.26,2.26,0,0,1,1.82.76,3.24,3.24,0,0,1,.65,2.12Zm-1-.81a1.9,1.9,0,0,0-.4-1.3,1.38,1.38,0,0,0-1.1-.46,1.54,1.54,0,0,0-1.15.49,2.18,2.18,0,0,0-.59,1.27Z"/><path class="cls-30" d="M64.29,391.08a1.87,1.87,0,0,1-.9.19c-1,0-1.58-.58-1.58-1.76V386h-1v-.82h1v-1.46l1-.31v1.77h1.51V386H62.78v3.38a1.35,1.35,0,0,0,.2.86.8.8,0,0,0,.68.26,1,1,0,0,0,.63-.2Z"/><path class="cls-30" d="M73.46,385.14l-1.8,6h-1l-1.23-4.29a3.45,3.45,0,0,1-.1-.56h0a2.57,2.57,0,0,1-.12.55l-1.34,4.3h-1l-1.81-6h1l1.24,4.51a3.35,3.35,0,0,1,.08.54h0a2.65,2.65,0,0,1,.1-.55l1.39-4.5h.87l1.25,4.53a3.08,3.08,0,0,1,.08.53h0a2.36,2.36,0,0,1,.1-.53l1.22-4.53Z"/><path class="cls-30" d="M77,391.28a2.77,2.77,0,0,1-2.12-.84,3.1,3.1,0,0,1-.8-2.23,3.27,3.27,0,0,1,.83-2.36A3,3,0,0,1,77.1,385a2.72,2.72,0,0,1,2.1.83,3.29,3.29,0,0,1,.75,2.29,3.24,3.24,0,0,1-.81,2.3A2.83,2.83,0,0,1,77,391.28Zm.07-5.47a1.83,1.83,0,0,0-1.46.63,2.55,2.55,0,0,0-.54,1.74,2.43,2.43,0,0,0,.54,1.68,1.84,1.84,0,0,0,1.46.61,1.72,1.72,0,0,0,1.43-.6,2.57,2.57,0,0,0,.5-1.72,2.63,2.63,0,0,0-.5-1.73,1.73,1.73,0,0,0-1.43-.61Z"/><path class="cls-30" d="M84.56,386.12a1.11,1.11,0,0,0-.73-.2,1.24,1.24,0,0,0-1,.58,2.69,2.69,0,0,0-.42,1.58v3.06h-1v-6h1v1.24h0a2.07,2.07,0,0,1,.62-1A1.43,1.43,0,0,1,84,385a1.58,1.58,0,0,1,.57.08Z"/><path class="cls-30" d="M90.61,391.14H89.27l-2.65-2.88h0v2.88h-1v-8.88h1v5.63h0l2.52-2.75H90.4L87.61,388Z"/></g></g><g id="shapes-2" data-name="shapes"><rect class="cls-1" width="240.5" height="395.47"/><rect class="cls-1" x="0.5" y="64.8" width="240" height="305" rx="5"/><rect class="cls-2" x="0.5" y="64.8" width="240" height="305" rx="5"/><path class="cls-3" d="M234.34,370.3h-1v-1h1Zm-3,0h-1v-1h1Zm-3,0h-1v-1h1Zm-3,0h-1v-1h1Zm-3,0h-1v-1h1Zm-3,0h-1v-1h1Zm-3,0h-1v-1h1Zm-3,0h-1v-1h1Zm-3,0h-1v-1h1Zm-3,0h-1v-1h1Zm-3,0h-1v-1h1Zm-3,0h-1v-1h1Zm-3,0h-1v-1h1Zm-3,0h-1v-1h1Zm-3,0h-1v-1h1Zm-3,0h-1v-1h1Zm-3,0h-1v-1h1Zm-3,0h-1v-1h1Zm-3,0h-1v-1h1Zm-3,0h-1v-1h1Zm-3,0h-1v-1h1Zm-3,0h-1v-1h1Zm-3,0h-1v-1h1Zm-3,0h-1v-1h1Zm-3,0h-1v-1h1Zm-3,0h-1v-1h1Zm-3,0h-1v-1h1Zm-3,0h-1v-1h1Zm-3,0h-1v-1h1Zm-3,0h-1v-1h1Zm-3,0h-1v-1h1Zm-3,0h-1v-1h1Zm-3,0h-1v-1h1Zm-3,0h-1v-1h1Zm-3,0h-1v-1h1Zm-3,0h-1v-1h1Zm-3,0h-1v-1h1Zm-3,0h-1v-1h1Zm-3,0h-1v-1h1Zm-3,0h-1v-1h1Zm-3,0h-1v-1h1Zm-3,0h-1v-1h1Zm-3,0h-1v-1h1Zm-3,0h-1v-1h1Zm-3,0h-1v-1h1Zm-3,0h-1v-1h1Zm-3,0h-1v-1h1Zm-3,0h-1v-1h1Zm-3,0h-1v-1h1Zm-3,0h-1v-1h1Zm-3,0h-1v-1h1Zm-3,0h-1v-1h1Zm-3,0h-1v-1h1Zm-3,0h-1v-1h1Zm-3,0h-1v-1h1Zm-3,0h-1v-1h1Zm-3,0h-1v-1h1Zm-3,0h-1v-1h1Zm-3,0h-1v-1h1Zm-3,0h-1v-1h1Zm-3,0h-1v-1h1Zm-3,0h-1v-1h1Zm-3,0h-1v-1h1Zm-3,0h-1v-1h1Zm-3,0h-1v-1h1Zm-3,0h-1v-1h1Zm-3,0h-1v-1h1Zm-30,0H5.5a4,4,0,0,1-.49,0l.09-1h1Zm230.36-.07-.16-1a4.4,4.4,0,0,0,.86-.24l.36.93a5.37,5.37,0,0,1-1.06.3ZM2.91,369.65A6,6,0,0,1,2,369l.64-.77a4.26,4.26,0,0,0,.75.5Zm236.41-.9-.69-.72a4.82,4.82,0,0,0,.58-.69l.82.57a5.64,5.64,0,0,1-.71.84ZM.63,367.34a5.09,5.09,0,0,1-.42-1l1-.27a4.48,4.48,0,0,0,.33.83Zm240.26-1.44-1-.2a4.58,4.58,0,0,0,.09-.9l1-.05v.05A5.78,5.78,0,0,1,240.89,365.9ZM1,364.2H0v-1H1Zm240-1.46h-1v-1h1ZM1,361.2H0v-1H1Zm240-1.46h-1v-1h1ZM1,358.19H0v-1H1Zm240-1.45h-1v-1h1ZM1,355.19H0v-1H1Zm240-1.46h-1v-1h1ZM1,352.19H0v-1H1Zm240-1.46h-1v-1h1ZM1,349.18H0v-1H1Zm240-1.46h-1v-1h1ZM1,346.18H0v-1H1Zm240-1.46h-1v-1h1ZM1,343.17H0v-1H1Zm240-1.45h-1v-1h1ZM1,340.17H0v-1H1Zm240-1.46h-1v-1h1ZM1,337.17H0v-1H1Zm240-1.46h-1v-1h1ZM1,334.16H0v-1H1Zm240-1.46h-1v-1h1ZM1,331.16H0v-1H1Zm240-1.46h-1v-1h1ZM1,328.16H0v-1H1Zm240-1.46h-1v-1h1ZM1,325.15H0v-1H1Zm240-1.46h-1v-1h1ZM1,322.15H0v-1H1Zm240-1.46h-1v-1h1ZM1,319.14H0v-1H1Zm240-1.45h-1v-1h1ZM1,316.14H0v-1H1Zm240-1.46h-1v-1h1ZM1,313.14H0v-1H1Zm240-1.46h-1v-1h1ZM1,310.13H0v-1H1Zm240-1.46h-1v-1h1ZM1,307.13H0v-1H1Zm240-1.46h-1v-1h1ZM1,304.13H0v-1H1Zm240-1.46h-1v-1h1ZM1,301.12H0v-1H1Zm240-1.46h-1v-1h1ZM1,298.12H0v-1H1Zm240-1.46h-1v-1h1ZM1,295.11H0v-1H1Zm240-1.45h-1v-1h1ZM1,292.11H0v-1H1Zm240-1.46h-1v-1h1ZM1,289.11H0v-1H1Zm240-1.46h-1v-1h1ZM1,286.1H0v-1H1Zm240-1.46h-1v-1h1ZM1,283.1H0v-1H1Zm240-1.46h-1v-1h1ZM1,280.1H0v-1H1Zm240-1.46h-1v-1h1ZM1,277.09H0v-1H1Zm240-1.46h-1v-1h1ZM1,274.09H0v-1H1Zm240-1.46h-1v-1h1ZM1,271.08H0v-1H1Zm240-1.45h-1v-1h1ZM1,268.08H0v-1H1Zm240-1.46h-1v-1h1ZM1,265.08H0v-1H1Zm240-1.46h-1v-1h1ZM1,262.07H0v-1H1Zm240-1.45h-1v-1h1ZM1,259.07H0v-1H1Zm240-1.46h-1v-1h1ZM1,256.07H0v-1H1Zm240-1.46h-1v-1h1ZM1,253.06H0v-1H1Zm240-1.46h-1v-1h1ZM1,250.06H0v-1H1Zm240-1.46h-1v-1h1ZM1,247.05H0v-1H1Zm240-1.45h-1v-1h1ZM1,244.05H0v-1H1Zm240-1.46h-1v-1h1ZM1,241.05H0v-1H1Zm240-1.46h-1v-1h1ZM1,238H0v-1H1Zm240-1.46h-1v-1h1ZM1,235H0v-1H1Zm240-1.46h-1v-1h1ZM1,232H0v-1H1Zm240-1.46h-1v-1h1ZM1,229H0v-1H1Zm240-1.46h-1v-1h1ZM1,226H0v-1H1Zm240-1.46h-1v-1h1ZM1,223H0v-1H1Zm240-1.45h-1v-1h1ZM1,220H0v-1H1Zm240-1.46h-1v-1h1ZM1,217H0v-1H1Zm240-1.46h-1v-1h1ZM1,214H0v-1H1Zm240-1.45h-1v-1h1ZM1,211H0v-1H1Zm240-1.46h-1v-1h1ZM1,208H0v-1H1Zm240-1.46h-1v-1h1ZM1,205H0v-1H1Zm240-1.46h-1v-1h1ZM1,202H0v-1H1Zm240-1.46h-1v-1h1ZM1,199H0v-1H1Zm240-1.45h-1v-1h1ZM1,196H0v-1H1Zm240-1.46h-1v-1h1ZM1,193H0v-1H1Zm240-1.46h-1v-1h1ZM1,190H0v-1H1Zm240-1.46h-1v-1h1ZM1,187H0v-1H1Zm240-1.46h-1v-1h1ZM1,184H0v-1H1Zm240-1.46h-1v-1h1ZM1,181H0v-1H1Zm240-1.46h-1v-1h1ZM1,178H0v-1H1Zm240-1.46h-1v-1h1ZM1,175H0v-1H1Zm240-1.45h-1v-1h1ZM1,172H0v-1H1Zm240-1.46h-1v-1h1ZM1,169H0v-1H1Zm240-1.46h-1v-1h1ZM1,166H0v-1H1Zm240-1.45h-1v-1h1ZM1,163H0v-1H1Zm240-1.46h-1v-1h1ZM1,160H0v-1H1Zm240-1.46h-1v-1h1ZM1,156.94H0v-1H1Zm240-1.46h-1v-1h1ZM1,153.94H0v-1H1Zm240-1.46h-1v-1h1ZM1,150.93H0v-1H1Zm240-1.45h-1v-1h1ZM1,147.93H0v-1H1Zm240-1.46h-1v-1h1ZM1,144.93H0v-1H1Zm240-1.46h-1v-1h1ZM1,141.92H0v-1H1Zm240-1.46h-1v-1h1ZM1,138.92H0v-1H1Zm240-1.46h-1v-1h1ZM1,135.92H0v-1H1Zm240-1.46h-1v-1h1ZM1,132.91H0v-1H1Zm240-1.46h-1v-1h1ZM1,129.91H0v-1H1Zm240-1.46h-1v-1h1ZM1,126.9H0v-1H1Zm240-1.45h-1v-1h1ZM1,123.9H0v-1H1Zm240-1.46h-1v-1h1ZM1,120.9H0v-1H1Zm240-1.46h-1v-1h1ZM1,117.89H0v-1H1Zm240-1.46h-1v-1h1ZM1,114.89H0v-1H1Zm240-1.46h-1v-1h1ZM1,111.89H0v-1H1Zm240-1.46h-1v-1h1ZM1,108.88H0v-1H1Zm240-1.46h-1v-1h1ZM1,105.88H0v-1H1Zm240-1.46h-1v-1h1ZM1,102.87H0v-1H1Zm240-1.45h-1v-1h1ZM1,99.87H0v-1H1Zm240-1.46h-1v-1h1ZM1,96.87H0v-1H1Zm240-1.46h-1v-1h1ZM1,93.86H0v-1H1ZM241,92.4h-1v-1h1ZM1,90.86H0v-1H1ZM241,89.4h-1v-1h1ZM1,87.86H0v-1H1ZM241,86.4h-1v-1h1ZM1,84.85H0v-1H1Zm240-1.46h-1v-1h1ZM1,81.85H0v-1H1Zm240-1.46h-1v-1h1ZM1,78.84H0v-1H1Zm240-1.45h-1v-1h1ZM1,75.84H0v-1H1Zm240-1.46h-1v-1h1ZM1,72.84H0v-1H1Zm240-1.46h-1v-1h1ZM0,69.83v0a5.44,5.44,0,0,1,.1-1.06l1,.2A4.91,4.91,0,0,0,1,69.8Zm239.82-1.29a5.09,5.09,0,0,0-.34-.84l.88-.46a6,6,0,0,1,.42,1Zm-238-1.25L1,66.72a6.24,6.24,0,0,1,.7-.84l.7.71A5.45,5.45,0,0,0,1.78,67.29Zm236.56-1a4.26,4.26,0,0,0-.75-.5l.47-.88a5,5,0,0,1,.91.61ZM3.86,65.62l-.37-.93a4.84,4.84,0,0,1,1-.3l.18,1A4.06,4.06,0,0,0,3.86,65.62Zm232-.3-.37,0h-.59v-1h.59l.46,0Zm-3,0h-1v-1h1Zm-3,0h-1v-1h1Zm-3,0h-1v-1h1Zm-3,0h-1v-1h1Zm-3,0h-1v-1h1Zm-3,0h-1v-1h1Zm-3,0h-1v-1h1Zm-3,0h-1v-1h1Zm-3,0h-1v-1h1Zm-3,0h-1v-1h1Zm-3,0h-1v-1h1Zm-3,0h-1v-1h1Zm-3,0h-1v-1h1Zm-3,0h-1v-1h1Zm-3,0h-1v-1h1Zm-3,0h-1v-1h1Zm-3,0h-1v-1h1Zm-3,0h-1v-1h1Zm-3,0h-1v-1h1Zm-3,0h-1v-1h1Zm-3,0h-1v-1h1Zm-3,0h-1v-1h1Zm-3,0h-1v-1h1Zm-3,0h-1v-1h1Zm-3,0h-1v-1h1Zm-3,0h-1v-1h1Zm-3,0h-1v-1h1Zm-3,0h-1v-1h1Zm-3,0h-1v-1h1Zm-3,0h-1v-1h1Zm-3,0h-1v-1h1Zm-3,0h-1v-1h1Zm-3,0h-1v-1h1Zm-3,0h-1v-1h1Zm-3,0h-1v-1h1Zm-3,0h-1v-1h1Zm-3,0h-1v-1h1Zm-3,0h-1v-1h1Zm-3,0h-1v-1h1Zm-3,0h-1v-1h1Zm-3,0h-1v-1h1Zm-3,0h-1v-1h1Zm-3,0h-1v-1h1Zm-3,0h-1v-1h1Zm-3,0h-1v-1h1Zm-3,0h-1v-1h1Zm-3,0h-1v-1h1Zm-3,0h-1v-1h1Zm-3,0h-1v-1h1Zm-3,0h-1v-1h1Zm-3,0h-1v-1h1Zm-3,0h-1v-1h1Zm-3,0h-1v-1h1Zm-3,0h-1v-1h1Zm-3,0h-1v-1h1Zm-3,0h-1v-1h1Zm-3,0h-1v-1h1Zm-3,0h-1v-1h1Zm-3,0h-1v-1h1Zm-3,0h-1v-1h1Zm-3,0h-1v-1h1Zm-3,0h-1v-1h1Zm-3,0h-1v-1h1Zm-3,0h-1v-1h1Zm-3,0h-1v-1h1Zm-3,0h-1v-1h1Zm-3,0h-1v-1h1Zm-3,0h-1v-1h1Zm-3,0h-1v-1h1Zm-3,0h-1v-1h1Zm-3,0h-1v-1h1Zm-3,0h-1v-1h1Zm-3,0h-1v-1h1Zm-3,0h-1v-1h1Zm-3,0h-1v-1h1Zm-3,0h-1v-1h1Z"/><circle class="cls-4" cx="25.86" cy="369.64" r="1.67"/><circle class="cls-5" cx="20.52" cy="369.65" r="1.67"/><circle class="cls-6" cx="15.18" cy="369.65" r="1.67"/><path class="cls-7" d="M16.39,376.35l-1,1a.44.44,0,0,1-.62,0h0l-7.09-7.07a.87.87,0,0,1,0-1.23h0l.95-1h0l7.71,7.69a.43.43,0,0,1,0,.61Z"/><path class="cls-8" d="M15.29,362l1,1a.43.43,0,0,1,0,.61l-7.57,7.6h0l-1-1a.87.87,0,0,1,0-1.22h0l7-7A.43.43,0,0,1,15.29,362Z"/><path class="cls-7" d="M32.24,368l1,1a.86.86,0,0,1,0,1.22h0l-7.1,7.08a.43.43,0,0,1-.61,0h0l-1-1a.43.43,0,0,1,0-.61h0L32.24,368Z"/><path class="cls-8" d="M33.2,370.21l-1,1h0l-7.58-7.6a.43.43,0,0,1,0-.61h0l1-1a.44.44,0,0,1,.61,0h0l7,7a.86.86,0,0,1,0,1.22h0Z"/><rect class="cls-1" x="10" y="139.3" width="220" height="65"/><rect class="cls-9" x="10" y="139.3" width="220" height="65"/><path class="cls-10" d="M167,17.85a8.16,8.16,0,0,0-7-7.91A10.26,10.26,0,0,0,149.59,0a10.52,10.52,0,0,0-9.94,7,9.67,9.67,0,0,0-8.4,9.45A10,10,0,0,0,141.34,26H159A8.25,8.25,0,0,0,167,17.85Z"/><path class="cls-11" d="M133.47,91.54l14.91-14.91a1.05,1.05,0,0,1,1.51,0l0,0,14.91,14.91a1.07,1.07,0,0,1,0,1.51l0,0L149.89,108a1.08,1.08,0,0,1-1.49,0L133.47,93.07a1.06,1.06,0,0,1,0-1.51Z"/><path class="cls-12" d="M153.05,83.42l-3.76-3.75a.21.21,0,0,0-.29,0l-3.77,3.75a.18.18,0,0,0,0,.24.22.22,0,0,0,.2.08h2.2a.19.19,0,0,1,.2.19v3.56a.19.19,0,0,0,.19.19h2.35a.19.19,0,0,0,.19-.19V83.93a.19.19,0,0,1,.2-.19h2.2a.19.19,0,0,0,.22-.13.16.16,0,0,0-.08-.19Z"/><path class="cls-12" d="M140.26,88.06l-3.74,3.78a.2.2,0,0,0,0,.27l3.74,3.75a.19.19,0,0,0,.27,0,.18.18,0,0,0,.06-.15V93.53a.2.2,0,0,1,.2-.2h3.55a.17.17,0,0,0,.18-.17V90.79a.18.18,0,0,0-.06-.24l-.06,0h-3.56a.18.18,0,0,1-.19-.16V88.2a.21.21,0,0,0-.13-.27A.2.2,0,0,0,140.26,88.06Z"/><path class="cls-12" d="M158.17,95.86,162,92.09a.2.2,0,0,0,0-.27l-3.79-3.76a.19.19,0,0,0-.27,0,.22.22,0,0,0-.05.12v2.22a.18.18,0,0,1-.17.18H154.1a.18.18,0,0,0-.18.17h0v2.37a.19.19,0,0,0,.16.19h3.58a.19.19,0,0,1,.19.2h0v2.2a.19.19,0,0,0,.22.17A.18.18,0,0,0,158.17,95.86Z"/><path class="cls-1" d="M154.1,92.3a5,5,0,1,0-6.29,4.75v1.69a3.05,3.05,0,1,0,2.79,0V97A4.92,4.92,0,0,0,154.1,92.3Z"/><circle id="e99c3387-15c3-4f28-bd4b-cb209b430e06-2-2" data-name="e99c3387-15c3-4f28-bd4b-cb209b430e06" class="cls-13" cx="149.16" cy="92.29" r="2.88"/><rect class="cls-14" x="132.5" y="147.3" width="32.47" height="21.65" rx="1.08"/><polygon class="cls-7" points="154.15 154.97 154.15 161.27 148.74 164.44 148.74 158.13 154.15 154.97"/><polygon class="cls-15" points="154.15 154.97 148.74 158.15 143.32 154.97 148.74 151.81 154.15 154.97"/><polygon class="cls-16" points="148.74 158.15 148.74 164.44 143.32 161.27 143.32 154.97 148.74 158.15"/><polygon class="cls-15" points="143.32 161.27 148.74 158.13 148.74 164.44 143.32 161.27"/><polygon class="cls-16" points="154.15 161.27 148.74 158.13 148.74 164.44 154.15 161.27"/><path class="cls-17" d="M155.25,175.5c-3.21-.51-3.34-2.81-3.34-6.55h-6.37c0,3.74-.11,6-3.32,6.55a1.8,1.8,0,0,0-1.6,1.8h16.23A1.79,1.79,0,0,0,155.25,175.5Z"/><rect class="cls-18" x="80" y="147.3" width="32.47" height="21.65" rx="1.08"/><polygon class="cls-7" points="101.65 154.97 101.65 161.27 96.24 164.44 96.24 158.13 101.65 154.97"/><polygon class="cls-15" points="101.65 154.97 96.24 158.15 90.82 154.97 96.24 151.81 101.65 154.97"/><polygon class="cls-16" points="96.24 158.15 96.24 164.44 90.82 161.27 90.82 154.97 96.24 158.15"/><polygon class="cls-15" points="90.82 161.27 96.24 158.13 96.24 164.44 90.82 161.27"/><polygon class="cls-16" points="101.65 161.27 96.24 158.13 96.24 164.44 101.65 161.27"/><path class="cls-19" d="M102.75,175.5c-3.21-.51-3.34-2.81-3.34-6.55H93c0,3.74-.11,6-3.32,6.55a1.8,1.8,0,0,0-1.6,1.8h16.23A1.79,1.79,0,0,0,102.75,175.5Z"/><rect class="cls-20" x="185" y="147.3" width="32.47" height="21.65" rx="1.08"/><polygon class="cls-7" points="206.65 154.97 206.65 161.27 201.24 164.44 201.24 158.13 206.65 154.97"/><polygon class="cls-15" points="206.65 154.97 201.24 158.15 195.82 154.97 201.24 151.81 206.65 154.97"/><polygon class="cls-16" points="201.24 158.15 201.24 164.44 195.82 161.27 195.82 154.97 201.24 158.15"/><polygon class="cls-15" points="195.82 161.27 201.24 158.13 201.24 164.44 195.82 161.27"/><polygon class="cls-16" points="206.65 161.27 201.24 158.13 201.24 164.44 206.65 161.27"/><path class="cls-21" d="M207.75,175.5c-3.21-.51-3.34-2.81-3.34-6.55H198c0,3.74-.11,6-3.32,6.55a1.8,1.8,0,0,0-1.6,1.8h16.23A1.79,1.79,0,0,0,207.75,175.5Z"/><line class="cls-22" x1="149.14" y1="29.3" x2="149.14" y2="41.8"/><line class="cls-22" x1="149.14" y1="59.3" x2="149.14" y2="73.3"/><path class="cls-23" d="M133.47,243.86l14.91-14.92a1.07,1.07,0,0,1,1.51,0l0,0,14.91,14.92a1.06,1.06,0,0,1,0,1.5l0,0-14.93,14.94a1.08,1.08,0,0,1-1.49,0l-14.93-14.94a1.05,1.05,0,0,1,0-1.5h0Z"/><path class="cls-12" d="M153.05,235.73,149.29,232a.23.23,0,0,0-.29,0l-3.77,3.75a.18.18,0,0,0,.15.32h2.2a.2.2,0,0,1,.2.2v3.55a.19.19,0,0,0,.19.2h2.35a.19.19,0,0,0,.19-.2v-3.55a.2.2,0,0,1,.2-.2h2.2a.18.18,0,0,0,.22-.13.17.17,0,0,0-.08-.19Z"/><path class="cls-12" d="M140.26,240.37l-3.74,3.79a.19.19,0,0,0,0,.26l3.74,3.76a.19.19,0,0,0,.27,0,.17.17,0,0,0,.06-.15v-2.18a.2.2,0,0,1,.2-.2h3.55a.18.18,0,0,0,.18-.18h0v-2.35a.17.17,0,0,0-.06-.24s0,0-.06,0h-3.56a.18.18,0,0,1-.19-.16v-2.17a.2.2,0,0,0-.13-.26.2.2,0,0,0-.26.12Z"/><path class="cls-12" d="M158.17,248.18l3.79-3.77a.2.2,0,0,0,0-.27l-3.79-3.77a.18.18,0,0,0-.27,0,.16.16,0,0,0-.05.11v2.23a.18.18,0,0,1-.17.17H154.1a.18.18,0,0,0-.18.18h0v2.37a.19.19,0,0,0,.16.19h3.58a.19.19,0,0,1,.19.2h0v2.2a.2.2,0,0,0,.22.17l.1,0Z"/><path class="cls-1" d="M154.1,244.62a5,5,0,1,0-6.29,4.75v1.68a3,3,0,1,0,2.79,0v-1.77A4.92,4.92,0,0,0,154.1,244.62Z"/><circle id="e99c3387-15c3-4f28-bd4b-cb209b430e06-2-3" data-name="e99c3387-15c3-4f28-bd4b-cb209b430e06-2" class="cls-13" cx="149.16" cy="244.6" r="2.88"/><line class="cls-22" x1="149.14" y1="197.12" x2="149.14" y2="226.44"/><line class="cls-22" x1="149.14" y1="132.69" x2="149.14" y2="144.8"/><line class="cls-22" x1="149.14" y1="112.99" x2="149.14" y2="121.66"/><path class="cls-22" d="M100.91,128.09l-2.45,1a4.62,4.62,0,0,0-2.44,4V144.8"/><line class="cls-22" x1="143.96" y1="110.3" x2="115.93" y2="121.88"/><path class="cls-22" d="M144,228.79l-25.25-10.43-5.55-2.29-9.48-3.92L98.46,210A4.6,4.6,0,0,1,96,206v-8.86"/><path class="cls-22" d="M156,228.79l25.26-10.43,5.54-2.29,9.48-3.92L201.5,210a4.58,4.58,0,0,0,2.44-4v-8.86"/><path class="cls-22" d="M199.05,128.09l2.45,1a4.6,4.6,0,0,1,2.44,4V144.8"/><line class="cls-22" x1="156" y1="110.3" x2="184.03" y2="121.88"/><rect class="cls-1" x="10" y="289.3" width="220" height="65"/><rect class="cls-9" x="10" y="289.3" width="220" height="65"/><rect class="cls-24" x="132.5" y="297.3" width="32.47" height="21.65" rx="1.08"/><polygon class="cls-7" points="154.15 304.97 154.15 311.27 148.74 314.44 148.74 308.13 154.15 304.97"/><polygon class="cls-15" points="154.15 304.97 148.74 308.14 143.32 304.97 148.74 301.81 154.15 304.97"/><polygon class="cls-16" points="148.74 308.14 148.74 314.44 143.32 311.27 143.32 304.97 148.74 308.14"/><polygon class="cls-15" points="143.32 311.27 148.74 308.13 148.74 314.44 143.32 311.27"/><polygon class="cls-16" points="154.15 311.27 148.74 308.13 148.74 314.44 154.15 311.27"/><path class="cls-25" d="M155.25,325.5c-3.21-.51-3.34-2.81-3.34-6.55h-6.37c0,3.74-.11,6-3.32,6.55a1.8,1.8,0,0,0-1.6,1.8h16.23A1.79,1.79,0,0,0,155.25,325.5Z"/><rect class="cls-26" x="80" y="297.3" width="32.47" height="21.65" rx="1.08"/><polygon class="cls-7" points="101.65 304.97 101.65 311.27 96.24 314.44 96.24 308.13 101.65 304.97"/><polygon class="cls-15" points="101.65 304.97 96.24 308.14 90.82 304.97 96.24 301.81 101.65 304.97"/><polygon class="cls-16" points="96.24 308.14 96.24 314.44 90.82 311.27 90.82 304.97 96.24 308.14"/><polygon class="cls-15" points="90.82 311.27 96.24 308.13 96.24 314.44 90.82 311.27"/><polygon class="cls-16" points="101.65 311.27 96.24 308.13 96.24 314.44 101.65 311.27"/><path class="cls-27" d="M102.75,325.5c-3.21-.51-3.34-2.81-3.34-6.55H93c0,3.74-.11,6-3.32,6.55a1.8,1.8,0,0,0-1.6,1.8h16.23A1.79,1.79,0,0,0,102.75,325.5Z"/><rect class="cls-28" x="185" y="297.3" width="32.47" height="21.65" rx="1.08"/><polygon class="cls-7" points="206.65 304.97 206.65 311.27 201.24 314.44 201.24 308.13 206.65 304.97"/><polygon class="cls-15" points="206.65 304.97 201.24 308.14 195.82 304.97 201.24 301.81 206.65 304.97"/><polygon class="cls-16" points="201.24 308.14 201.24 314.44 195.82 311.27 195.82 304.97 201.24 308.14"/><polygon class="cls-15" points="195.82 311.27 201.24 308.13 201.24 314.44 195.82 311.27"/><polygon class="cls-16" points="206.65 311.27 201.24 308.13 201.24 314.44 206.65 311.27"/><path class="cls-29" d="M207.75,325.5c-3.21-.51-3.34-2.81-3.34-6.55H198c0,3.74-.11,6-3.32,6.55a1.8,1.8,0,0,0-1.6,1.8h16.23A1.79,1.79,0,0,0,207.75,325.5Z"/><line class="cls-22" x1="149.14" y1="284.6" x2="149.14" y2="296.71"/><line class="cls-22" x1="149.14" y1="262.1" x2="149.14" y2="272.71"/><path class="cls-22" d="M100.91,280l-2.45,1A4.6,4.6,0,0,0,96,285v11.69"/><line class="cls-22" x1="143.96" y1="262.21" x2="121.18" y2="271.62"/><path class="cls-22" d="M195.32,280l2.44,1a4.59,4.59,0,0,1,2.45,4v11.69"/><line class="cls-22" x1="152.27" y1="262.21" x2="175.04" y2="271.62"/></g><g id="text-2" data-name="text"><text class="cls-31" transform="translate(7.58 391.14)">R<tspan class="cls-32" x="6.27" y="0">seau virtuel</tspan></text><text class="cls-33" transform="translate(128.16 337.8)">Machine<tspan x="1.43" y="10">virtuelle</tspan></text><text class="cls-33" transform="translate(75.49 337.8)">Machine<tspan x="1.43" y="10">virtuelle</tspan></text><text class="cls-33" transform="translate(100.41 278.14)">443</text><text class="cls-33" transform="translate(140.36 283.19)">443</text><text class="cls-33" transform="translate(177.31 278.14)">443</text><text class="cls-33" transform="translate(143.53 131.32)">80</text><text class="cls-33" transform="translate(184.13 131.32)">80</text><text class="cls-33" transform="translate(103.83 131.32)">80</text><text class="cls-33" transform="translate(180.49 337.8)">Machine<tspan x="1.43" y="10">virtuelle</tspan></text><text class="cls-33" transform="translate(128.16 184.8)">Machine<tspan x="1.43" y="10">virtuelle</tspan></text><text class="cls-33" transform="translate(75.49 184.8)">Machine<tspan x="1.43" y="10">virtuelle</tspan></text><text class="cls-33" transform="translate(180.49 184.8)">Machine<tspan x="1.43" y="10">virtuelle</tspan></text><text class="cls-33" transform="translate(29.62 310.26)">Sous-<tspan x="-2.12" y="10">rseau </tspan><tspan x="-11.26" y="20">de couche </tspan><tspan x="-1.81" y="30">mtier</tspan></text><text class="cls-34" transform="translate(121.16 54.3)">P<tspan class="cls-32" x="5.76" y="0">ort </tspan><tspan class="cls-35" x="22.82" y="0">T</tspan><tspan class="cls-36" x="28.08" y="0">CP80</tspan></text><text class="cls-33" transform="translate(29.62 160.6)">Sous-<tspan x="-2.12" y="10">rseau </tspan><tspan x="-11.26" y="20">de couche </tspan><tspan x="3.72" y="30">web</tspan></text><text class="cls-33" transform="translate(60.75 240.77)">quilibreur de <tspan x="-2.55" y="10">charge interne</tspan></text><text class="cls-33" transform="translate(60.75 88.41)">quilibreur de <tspan x="2.07" y="10">charge public</tspan></text></g></svg>