<svg id="Layer_1" data-name="Layer 1" xmlns="http://www.w3.org/2000/svg" xmlns:xlink="http://www.w3.org/1999/xlink" viewBox="0 0 325.49 212.9"><defs><style>.cls-1,.cls-10{fill:#fff;}.cls-2{fill:#0072c6;opacity:0.12;}.cls-2,.cls-6{isolation:isolate;}.cls-3{fill:url(#linear-gradient);}.cls-4{fill:#b4ec36;}.cls-5{fill:#5ea0ef;}.cls-6{opacity:0.9;fill:url(#linear-gradient-2);}.cls-7{fill:url(#linear-gradient-3);}.cls-8{fill:#0078d4;}.cls-10,.cls-8,.cls-9{fill-rule:evenodd;}.cls-9{fill:url(#linear-gradient-4);}.cls-11{fill:none;stroke:#3c3c41;stroke-miterlimit:10;}.cls-12{fill:url(#linear-gradient-5);}.cls-13{fill:#50e6ff;}.cls-14{fill:#c3f1ff;}.cls-15{fill:#9cebff;}.cls-16{fill:url(#linear-gradient-6);}.cls-17{fill:url(#linear-gradient-7);}.cls-18{fill:url(#linear-gradient-8);}.cls-19{fill:url(#linear-gradient-9);}.cls-20{fill:url(#linear-gradient-10);}.cls-21{fill:url(#linear-gradient-11);}.cls-22{fill:#e3e3e3;}.cls-23{fill:#1e1e1e;}</style><linearGradient id="linear-gradient" x1="126.49" y1="963.39" x2="126.49" y2="926.29" gradientTransform="translate(0 -837.21)" gradientUnits="userSpaceOnUse"><stop offset="0" stop-color="#5e9624"/><stop offset="0.02" stop-color="#5f9724"/><stop offset="1" stop-color="#76bc2d"/></linearGradient><linearGradient id="linear-gradient-2" x1="26.52" y1="92.8" x2="26.52" y2="120.83" gradientTransform="matrix(1, 0, 0, -1, 0, 213)" gradientUnits="userSpaceOnUse"><stop offset="0" stop-color="#d2ebff"/><stop offset="1" stop-color="#f0fffd"/></linearGradient><linearGradient id="linear-gradient-3" x1="26.13" y1="931.16" x2="26.13" y2="955.35" gradientTransform="translate(0 -837.21)" gradientUnits="userSpaceOnUse"><stop offset="0.09" stop-color="#6cc6b9"/><stop offset="0.46" stop-color="#6ac4b7"/><stop offset="0.64" stop-color="#62bdb0"/><stop offset="0.77" stop-color="#56b1a4"/><stop offset="0.88" stop-color="#439f93"/><stop offset="0.98" stop-color="#2c897d"/><stop offset="1" stop-color="#258277"/></linearGradient><linearGradient id="linear-gradient-4" x1="26.13" y1="86.52" x2="26.13" y2="89.34" gradientTransform="matrix(1, 0, 0, -1, 0, 213)" gradientUnits="userSpaceOnUse"><stop offset="0" stop-color="#0078d4"/><stop offset="0.17" stop-color="#1c84dc"/><stop offset="0.38" stop-color="#3990e4"/><stop offset="0.59" stop-color="#4d99ea"/><stop offset="0.8" stop-color="#5a9eee"/><stop offset="1" stop-color="#5ea0ef"/></linearGradient><linearGradient id="linear-gradient-5" x1="249.56" y1="898.87" x2="249.56" y2="880.1" gradientTransform="translate(0 -837.21)" gradientUnits="userSpaceOnUse"><stop offset="0" stop-color="#0078d4"/><stop offset="0.82" stop-color="#5ea0ef"/></linearGradient><linearGradient id="linear-gradient-6" x1="249.56" y1="906.1" x2="249.56" y2="898.87" gradientTransform="translate(0 -837.21)" gradientUnits="userSpaceOnUse"><stop offset="0.15" stop-color="#ccc"/><stop offset="1" stop-color="#707070"/></linearGradient><linearGradient id="linear-gradient-7" x1="249.56" y1="952.87" x2="249.56" y2="934.1" xlink:href="#linear-gradient-5"/><linearGradient id="linear-gradient-8" x1="249.56" y1="960.1" x2="249.56" y2="952.87" xlink:href="#linear-gradient-6"/><linearGradient id="linear-gradient-9" x1="249.56" y1="1011.37" x2="249.56" y2="992.6" xlink:href="#linear-gradient-5"/><linearGradient id="linear-gradient-10" x1="249.56" y1="1018.6" x2="249.56" y2="1011.37" xlink:href="#linear-gradient-6"/><linearGradient id="linear-gradient-11" x1="220.69" y1="862.31" x2="220.69" y2="832.51" gradientTransform="translate(0 -837.21)" gradientUnits="userSpaceOnUse"><stop offset="0" stop-color="#0078d4"/><stop offset="0.16" stop-color="#1380da"/><stop offset="0.53" stop-color="#3c91e5"/><stop offset="0.82" stop-color="#559cec"/><stop offset="1" stop-color="#5ea0ef"/></linearGradient></defs><rect class="cls-1" width="325.49" height="212.9"/><path class="cls-1" d="M325.49,187.9h-105V12.9h86.4a18.59,18.59,0,0,1,18.6,18.59Z"/><path class="cls-2" d="M325.49,187.9h-105V12.9h86.4a18.59,18.59,0,0,1,18.6,18.59Z"/><path class="cls-3" d="M110.81,106.13l14.91-14.91a1.07,1.07,0,0,1,1.51,0l0,0,14.91,14.91a1.06,1.06,0,0,1,0,1.51l0,0-14.93,14.93a1.06,1.06,0,0,1-1.49,0l-14.93-14.93a1.07,1.07,0,0,1,0-1.51Z"/><path class="cls-4" d="M130.4,98l-3.77-3.75a.23.23,0,0,0-.29,0L122.58,98a.17.17,0,0,0,0,.25.18.18,0,0,0,.19.07h2.2a.2.2,0,0,1,.2.19h0v3.56a.19.19,0,0,0,.19.19h2.35a.19.19,0,0,0,.2-.19h0V98.52a.19.19,0,0,1,.19-.19h2.21a.18.18,0,0,0,.21-.13.18.18,0,0,0-.07-.19Z"/><path class="cls-4" d="M117.6,102.65l-3.73,3.78a.2.2,0,0,0,0,.27l3.73,3.75a.2.2,0,0,0,.34-.14v-2.19a.18.18,0,0,1,.19-.19h3.56a.18.18,0,0,0,.18-.18s0,0,0,0v-2.35a.16.16,0,0,0-.06-.24l-.06,0h-3.55a.18.18,0,0,1-.2-.16v-2.17a.22.22,0,0,0-.12-.27.21.21,0,0,0-.27.13Z"/><path class="cls-4" d="M135.52,110.45l3.78-3.77a.19.19,0,0,0,0-.26l-3.78-3.77a.2.2,0,0,0-.28,0,.19.19,0,0,0,0,.12V105a.18.18,0,0,1-.18.18h-3.57a.18.18,0,0,0-.18.18v2.36a.18.18,0,0,0,.16.2H135a.19.19,0,0,1,.2.19v2.21a.2.2,0,0,0,.21.17A.22.22,0,0,0,135.52,110.45Z"/><path class="cls-1" d="M131.45,106.9a5,5,0,1,0-6.3,4.74v1.69a3,3,0,1,0,2.79,0v-1.78A4.93,4.93,0,0,0,131.45,106.9Z"/><circle id="e99c3387-15c3-4f28-bd4b-cb209b430e06" class="cls-5" cx="126.5" cy="106.88" r="2.88"/><rect class="cls-6" x="4.02" y="92.17" width="45.01" height="28.04"/><path class="cls-7" d="M13.86,96.72H38.42a.75.75,0,0,1,.78.71v17.06a.75.75,0,0,1-.78.71H13.86a.76.76,0,0,1-.79-.71v-17a.76.76,0,0,1,.79-.74Z"/><path id="bd0aa3dd-0b00-4321-a08d-35d4016600a8" class="cls-1" d="M23.92,98.91H35.65a.23.23,0,0,1,.23.21v6.48a.23.23,0,0,1-.23.22H23.92a.23.23,0,0,1-.23-.22V99.11A.23.23,0,0,1,23.92,98.91Z"/><rect id="bda038fc-05f8-4c73-8191-dcc998cc8c65" class="cls-1" x="16.31" y="98.89" width="4.94" height="13.93" rx="0.22"/><path id="f698805f-4654-42cb-b2bf-38f0a925cdbf" class="cls-1" d="M31.06,107.78h4.55a.21.21,0,0,1,.21.22v4.62a.21.21,0,0,1-.21.2H31.06a.22.22,0,0,1-.22-.2V108a.22.22,0,0,1,.22-.22Z"/><path id="f83fd769-9efd-4d02-bd0d-a012d7e875a2" class="cls-1" d="M23.85,107.78h4.42a.22.22,0,0,1,.22.22h0v4.62a.2.2,0,0,1-.2.2H23.92a.21.21,0,0,1-.21-.21V108A.21.21,0,0,1,23.85,107.78Z"/><path class="cls-8" d="M4.59,93.8a1,1,0,0,1,1-1H46.68a1,1,0,0,1,1,1h0v24.3a1,1,0,0,1-1,1H5.59a1,1,0,0,1-1-1h0ZM2.32,92.63v26.59a2.15,2.15,0,0,0,2.15,2.15H47.8A2.15,2.15,0,0,0,50,119.22h0V92.63a2.15,2.15,0,0,0-2.15-2.15H4.47a2.15,2.15,0,0,0-2.15,2.15Z"/><path class="cls-9" d="M.57,123.66H51.7a.57.57,0,0,1,.57.57h0v1.68a.58.58,0,0,1-.57.57H.57a.58.58,0,0,1-.57-.57H0v-1.68a.56.56,0,0,1,.57-.57Z"/><path class="cls-10" d="M20.3,124.66H32a.16.16,0,0,1,.16.17h0v.48a.17.17,0,0,1-.16.17H20.3a.17.17,0,0,1-.16-.17h0v-.48a.16.16,0,0,1,.16-.17Z"/><line class="cls-11" x1="115.49" y1="94.07" x2="58.17" y2="94.07"/><line class="cls-11" x1="105.49" y1="105.98" x2="58.17" y2="105.98"/><line class="cls-11" x1="230.49" y1="105.98" x2="147.17" y2="105.98"/><line class="cls-11" x1="115.49" y1="117.9" x2="58.17" y2="117.9"/><rect class="cls-12" x="235.49" y="42.9" width="28.14" height="18.76" rx="0.94"/><polygon class="cls-13" points="254.25 49.54 254.25 55 249.56 57.75 249.56 52.28 254.25 49.54"/><polygon class="cls-14" points="254.25 49.54 249.56 52.29 244.87 49.54 249.56 46.8 254.25 49.54"/><polygon class="cls-15" points="249.56 52.29 249.56 57.75 244.87 55 244.87 49.54 249.56 52.29"/><polygon class="cls-14" points="244.87 55 249.56 52.28 249.56 57.75 244.87 55"/><polygon class="cls-15" points="254.25 55 249.56 52.28 249.56 57.75 254.25 55"/><path class="cls-16" d="M255.2,67.33c-2.78-.43-2.89-2.44-2.89-5.67h-5.52c0,3.23-.09,5.24-2.88,5.67a1.58,1.58,0,0,0-1.39,1.57h14.07A1.56,1.56,0,0,0,255.2,67.33Z"/><rect class="cls-17" x="235.49" y="96.9" width="28.14" height="18.76" rx="0.94"/><polygon class="cls-13" points="254.25 103.54 254.25 109 249.56 111.75 249.56 106.28 254.25 103.54"/><polygon class="cls-14" points="254.25 103.54 249.56 106.29 244.87 103.54 249.56 100.81 254.25 103.54"/><polygon class="cls-15" points="249.56 106.29 249.56 111.75 244.87 109 244.87 103.54 249.56 106.29"/><polygon class="cls-14" points="244.87 109 249.56 106.28 249.56 111.75 244.87 109"/><polygon class="cls-15" points="254.25 109 249.56 106.28 249.56 111.75 254.25 109"/><path class="cls-18" d="M255.2,121.33c-2.78-.43-2.89-2.44-2.89-5.67h-5.52c0,3.23-.09,5.24-2.88,5.67a1.58,1.58,0,0,0-1.39,1.57h14.07A1.56,1.56,0,0,0,255.2,121.33Z"/><rect class="cls-19" x="235.49" y="155.4" width="28.14" height="18.76" rx="0.94"/><polygon class="cls-13" points="254.25 162.04 254.25 167.5 249.56 170.25 249.56 164.78 254.25 162.04"/><polygon class="cls-14" points="254.25 162.04 249.56 164.79 244.87 162.04 249.56 159.31 254.25 162.04"/><polygon class="cls-15" points="249.56 164.79 249.56 170.25 244.87 167.5 244.87 162.04 249.56 164.79"/><polygon class="cls-14" points="244.87 167.5 249.56 164.78 249.56 170.25 244.87 167.5"/><polygon class="cls-15" points="254.25 167.5 249.56 164.78 249.56 170.25 254.25 167.5"/><path class="cls-20" d="M255.2,179.83c-2.78-.43-2.89-2.44-2.89-5.67h-5.52c0,3.23-.09,5.24-2.88,5.67a1.58,1.58,0,0,0-1.39,1.57h14.07A1.56,1.56,0,0,0,255.2,179.83Z"/><path class="cls-21" d="M235.69,15a6.84,6.84,0,0,0-5.85-6.66A8.56,8.56,0,0,0,221.09,0a8.76,8.76,0,0,0-8.33,5.79,8.12,8.12,0,0,0-7.07,8,8.24,8.24,0,0,0,8.45,8h14.79A6.89,6.89,0,0,0,235.69,15Z"/><circle class="cls-22" cx="214.43" cy="13.5" r="1.18"/><path class="cls-1" d="M218.59,14V13h-.13l-1-.33-.26-.65.51-1.1-.66-.67h-.14l-.95.5-.65-.26-.41-1.15h-.95v.13l-.34,1-.7.26-1.08-.51-.67.66V11l.49,1-.27.65-1.17.41v1h.14l1,.33.27.65-.52,1.1.67.67h.13l1-.49.65.27.42,1.15h1v-.13l.33-1,.65-.27,1.1.52.67-.67v-.13l-.48-1,.26-.65Zm-4.16,1.39a1.82,1.82,0,1,1,1.83-1.8,1.81,1.81,0,0,1-1.83,1.8Z"/><circle class="cls-22" cx="222.36" cy="8.4" r="1.4"/><path class="cls-1" d="M227.36,8.94V7.8h-.15L226,7.42l-.29-.85.62-1.33-.8-.8h-.15L224.21,5l-.77-.32-.5-1.38h-1.18v.17l-.4,1.21-.78.32-1.3-.62-.8.8.08.15L219,6.59l-.27.83-1.4.45V9.09h.17l1.21.4.29.75-.62,1.33.83.85.17-.08,1.13-.59.79.32.5,1.38H223v-.16l.4-1.22.78-.32,1.32.62.8-.8-.08-.15-.49-1.2.32-.78Zm-5,1.66a2.2,2.2,0,1,1,2.2-2.2h0a2.18,2.18,0,0,1-2.17,2.2Z"/><path class="cls-11" d="M230.49,52.9H210.83A8.31,8.31,0,0,0,205.71,55L169,91.94a8.24,8.24,0,0,1-5.11,2.13H138.17"/><path class="cls-11" d="M138.17,117.9h25.71a7.47,7.47,0,0,1,5,2.26l37,42.65a7.49,7.49,0,0,0,5,2.26h19.66"/><path class="cls-23" d="M93.43,153.36a1.17,1.17,0,0,1-.88-.36,1.19,1.19,0,0,1-.38-.88,1.28,1.28,0,0,1,1.26-1.26,1.25,1.25,0,0,1,1.24,1.26,1.23,1.23,0,0,1-1.23,1.24Z"/><path class="cls-23" d="M93.43,166.56a1.17,1.17,0,0,1-.88-.36,1.19,1.19,0,0,1-.38-.88,1.28,1.28,0,0,1,1.26-1.26,1.25,1.25,0,0,1,1.24,1.26,1.23,1.23,0,0,1-1.23,1.24Z"/><path class="cls-23" d="M93.43,179.76a1.17,1.17,0,0,1-.88-.36,1.19,1.19,0,0,1-.38-.88,1.28,1.28,0,0,1,1.26-1.26,1.25,1.25,0,0,1,1.24,1.26,1.23,1.23,0,0,1-1.23,1.24Z"/><path class="cls-23" d="M93.43,193a1.17,1.17,0,0,1-.88-.36,1.19,1.19,0,0,1-.38-.88,1.28,1.28,0,0,1,1.26-1.26,1.25,1.25,0,0,1,1.24,1.26A1.23,1.23,0,0,1,93.44,193Z"/><path class="cls-23" d="M93.43,206.16a1.17,1.17,0,0,1-.88-.36,1.19,1.19,0,0,1-.38-.88,1.28,1.28,0,0,1,1.26-1.26,1.25,1.25,0,0,1,1.24,1.26,1.23,1.23,0,0,1-1.23,1.24Z"/><path class="cls-23" d="M96.42,141.78h-.74v-2.87H92.42v2.87h-.74v-6.3h.74v2.76h3.26v-2.76h.74Z"/><path class="cls-23" d="M101.2,141.78h-.72v-.7h0a1.5,1.5,0,0,1-1.39.8,1.48,1.48,0,0,1-1-.35,1.25,1.25,0,0,1-.38-.95c0-.84.5-1.33,1.49-1.46l1.35-.19c0-.77-.31-1.15-.93-1.15a2.22,2.22,0,0,0-1.47.55v-.73a2.71,2.71,0,0,1,1.53-.43q1.59,0,1.59,1.68Zm-.72-2.28-1.09.15a1.78,1.78,0,0,0-.75.25.72.72,0,0,0-.26.63.68.68,0,0,0,.24.54.88.88,0,0,0,.62.21,1.18,1.18,0,0,0,.89-.38,1.36,1.36,0,0,0,.35-1Z"/><path class="cls-23" d="M105.62,141.57a2.29,2.29,0,0,1-1.23.31,2,2,0,0,1-1.55-.62,2.25,2.25,0,0,1-.59-1.63,2.5,2.5,0,0,1,.63-1.78,2.26,2.26,0,0,1,1.71-.68,2.45,2.45,0,0,1,1,.22v.74a1.85,1.85,0,0,0-1.07-.35,1.47,1.47,0,0,0-1.13.49,1.86,1.86,0,0,0-.44,1.3,1.76,1.76,0,0,0,.41,1.25,1.43,1.43,0,0,0,1.12.46,1.78,1.78,0,0,0,1.1-.39Z"/><path class="cls-23" d="M110.45,141.78h-.72v-2.59q0-1.41-1-1.41a1.15,1.15,0,0,0-.89.41,1.51,1.51,0,0,0-.36,1v2.55h-.72v-6.66h.72V138h0a1.65,1.65,0,0,1,1.48-.86c1,0,1.52.62,1.52,1.84Z"/><path class="cls-23" d="M115,141.78h-.72v-.7h0a1.5,1.5,0,0,1-1.39.8,1.47,1.47,0,0,1-1.05-.35,1.25,1.25,0,0,1-.38-.95c0-.84.5-1.33,1.49-1.46l1.35-.19c0-.77-.31-1.15-.93-1.15a2.22,2.22,0,0,0-1.47.55v-.73a2.71,2.71,0,0,1,1.53-.43q1.59,0,1.59,1.68Zm-.72-2.28-1.09.15a1.83,1.83,0,0,0-.76.25.72.72,0,0,0-.25.63.68.68,0,0,0,.24.54.88.88,0,0,0,.62.21,1.18,1.18,0,0,0,.89-.38,1.36,1.36,0,0,0,.35-1Z"/><path class="cls-23" d="M120.23,141.42c0,1.65-.8,2.48-2.38,2.48a3.23,3.23,0,0,1-1.46-.32v-.72a3,3,0,0,0,1.45.42c1.11,0,1.66-.59,1.66-1.76V141h0a1.68,1.68,0,0,1-1.55.86,1.71,1.71,0,0,1-1.35-.59,2.44,2.44,0,0,1-.51-1.62,2.78,2.78,0,0,1,.55-1.82,1.85,1.85,0,0,1,1.51-.68,1.5,1.5,0,0,1,1.35.73h0v-.62h.73Zm-.73-1.68v-.66a1.3,1.3,0,0,0-.36-.92,1.2,1.2,0,0,0-.9-.38,1.25,1.25,0,0,0-1,.49,2.16,2.16,0,0,0-.37,1.36,1.87,1.87,0,0,0,.36,1.2,1.17,1.17,0,0,0,1,.45,1.3,1.3,0,0,0,1-.43A1.64,1.64,0,0,0,119.5,139.74Z"/><path class="cls-23" d="M125.3,139.71h-3.18a1.71,1.71,0,0,0,.41,1.16,1.4,1.4,0,0,0,1.06.41,2.24,2.24,0,0,0,1.4-.5v.67a2.61,2.61,0,0,1-1.57.43,1.9,1.9,0,0,1-1.5-.61,2.9,2.9,0,0,1,0-3.44,1.92,1.92,0,0,1,1.48-.66,1.67,1.67,0,0,1,1.37.58,2.37,2.37,0,0,1,.48,1.58Zm-.74-.61a1.43,1.43,0,0,0-.3-1,1,1,0,0,0-.82-.35,1.19,1.19,0,0,0-.87.36,1.71,1.71,0,0,0-.44,1Z"/><path class="cls-23" d="M132.08,141.78h-.72v-.7h0a1.66,1.66,0,0,1-2.44.45,1.25,1.25,0,0,1-.38-.95c0-.84.5-1.33,1.49-1.46l1.35-.19c0-.77-.31-1.15-.93-1.15a2.22,2.22,0,0,0-1.47.55v-.73a2.71,2.71,0,0,1,1.53-.43q1.59,0,1.59,1.68Zm-.72-2.28-1.09.15a1.78,1.78,0,0,0-.75.25.72.72,0,0,0-.26.63.68.68,0,0,0,.24.54.88.88,0,0,0,.62.21,1.18,1.18,0,0,0,.89-.38,1.36,1.36,0,0,0,.35-1Zm-.27-3.07h-.56L129.38,135h.74Z"/><path class="cls-23" d="M139.43,139.85a2.06,2.06,0,0,1-.16.84,1.69,1.69,0,0,1-.45.64,1.88,1.88,0,0,1-.7.41,2.73,2.73,0,0,1-.92.15,2.63,2.63,0,0,1-1.31-.26v-.77a2.38,2.38,0,0,0,1.32.41,1.7,1.7,0,0,0,.61-.1,1.23,1.23,0,0,0,.47-.28,1.19,1.19,0,0,0,.3-.43,1.47,1.47,0,0,0,.1-.56,1.23,1.23,0,0,0-.41-1,1.85,1.85,0,0,0-1.2-.35h-.55l-.28,0-.24,0,.22-3.16h2.91v.65h-2.29l-.13,1.85.3,0h.28a2.75,2.75,0,0,1,.9.13,2,2,0,0,1,.67.37,1.81,1.81,0,0,1,.42.6A2.22,2.22,0,0,1,139.43,139.85Z"/><path class="cls-23" d="M145.31,141.74a1.46,1.46,0,0,1-.68.14c-.79,0-1.18-.44-1.18-1.32v-2.67h-.77v-.61h.77v-1.1l.72-.23v1.33h1.14v.61h-1.14v2.54a1,1,0,0,0,.16.65.59.59,0,0,0,.5.19.78.78,0,0,0,.48-.15Z"/><path class="cls-23" d="M149.91,141.78h-.72v-.71h0a1.48,1.48,0,0,1-1.39.81c-1.07,0-1.61-.63-1.61-1.91v-2.69h.72v2.57c0,1,.36,1.43,1.09,1.43a1.08,1.08,0,0,0,.86-.39,1.49,1.49,0,0,0,.35-1v-2.59h.72Z"/><path class="cls-23" d="M152.1,141.13h0v2.72h-.72v-6.57h.72v.79h0a1.69,1.69,0,0,1,1.55-.9,1.66,1.66,0,0,1,1.36.61,2.47,2.47,0,0,1,.49,1.62,2.79,2.79,0,0,1-.55,1.81,1.84,1.84,0,0,1-1.5.67A1.52,1.52,0,0,1,152.1,141.13Zm0-1.82v.63a1.36,1.36,0,0,0,.36.95,1.3,1.3,0,0,0,1.95-.11,2.31,2.31,0,0,0,.37-1.4,1.79,1.79,0,0,0-.34-1.17,1.16,1.16,0,0,0-.95-.43,1.3,1.3,0,0,0-1,.44A1.63,1.63,0,0,0,152.08,139.31Z"/><path class="cls-23" d="M157.37,141.78h-.72v-6.66h.72Z"/><path class="cls-23" d="M162.45,139.71h-3.18a1.66,1.66,0,0,0,.41,1.16,1.39,1.39,0,0,0,1.06.41,2.24,2.24,0,0,0,1.4-.5v.67a2.61,2.61,0,0,1-1.57.43,1.89,1.89,0,0,1-1.5-.61,2.52,2.52,0,0,1-.55-1.72,2.49,2.49,0,0,1,.6-1.72,1.92,1.92,0,0,1,1.48-.66,1.65,1.65,0,0,1,1.36.58,2.32,2.32,0,0,1,.49,1.58Zm-.74-.61a1.43,1.43,0,0,0-.3-1,1,1,0,0,0-.83-.35,1.18,1.18,0,0,0-.86.36,1.71,1.71,0,0,0-.44,1Z"/><path class="cls-23" d="M163.27,141.62v-.78a2.12,2.12,0,0,0,1.29.44c.64,0,.95-.21.95-.63a.59.59,0,0,0-.08-.31.77.77,0,0,0-.22-.22,1.69,1.69,0,0,0-.33-.18l-.4-.16a2.8,2.8,0,0,1-.52-.24,1.61,1.61,0,0,1-.38-.27,1,1,0,0,1-.23-.34,1.26,1.26,0,0,1-.08-.46,1.07,1.07,0,0,1,.15-.56,1.35,1.35,0,0,1,.39-.4,1.63,1.63,0,0,1,.55-.25,2.25,2.25,0,0,1,.64-.09,2.44,2.44,0,0,1,1,.21v.73a2,2,0,0,0-1.14-.33,1.3,1.3,0,0,0-.36.05.73.73,0,0,0-.28.13.49.49,0,0,0-.18.2.43.43,0,0,0-.07.25.56.56,0,0,0,.07.3.6.6,0,0,0,.18.21,2.14,2.14,0,0,0,.3.17l.4.16a4.61,4.61,0,0,1,.54.23,1.5,1.5,0,0,1,.4.28,1,1,0,0,1,.26.35,1.09,1.09,0,0,1,.09.47,1.11,1.11,0,0,1-.15.58,1.24,1.24,0,0,1-.39.4,2,2,0,0,1-.57.25,2.93,2.93,0,0,1-.67.07A2.65,2.65,0,0,1,163.27,141.62Z"/><path class="cls-23" d="M104.07,155h-.74v-6.3h.74Z"/><path class="cls-23" d="M106.47,152.6V155h-.74v-6.3h1.73a2.31,2.31,0,0,1,1.57.49,1.76,1.76,0,0,1,.55,1.39A1.9,1.9,0,0,1,109,152a2.34,2.34,0,0,1-1.66.57Zm0-3.26v2.59h.77a1.76,1.76,0,0,0,1.17-.35,1.26,1.26,0,0,0,.4-1c0-.83-.49-1.25-1.48-1.25Z"/><path class="cls-23" d="M112.94,154.72v-.87a1.61,1.61,0,0,0,.36.24,2.89,2.89,0,0,0,.44.18,3.43,3.43,0,0,0,.46.11,2.29,2.29,0,0,0,.43,0,1.71,1.71,0,0,0,1-.25.86.86,0,0,0,.33-.73.78.78,0,0,0-.11-.44,1.26,1.26,0,0,0-.31-.35,3.84,3.84,0,0,0-.47-.3l-.58-.3a7,7,0,0,1-.61-.34,2.82,2.82,0,0,1-.5-.37,1.67,1.67,0,0,1-.33-.47,1.49,1.49,0,0,1-.12-.62,1.44,1.44,0,0,1,.19-.75,1.62,1.62,0,0,1,.49-.52,2.33,2.33,0,0,1,.7-.31,3.66,3.66,0,0,1,.81-.1,3.18,3.18,0,0,1,1.35.22v.84a2.44,2.44,0,0,0-1.43-.39,2.61,2.61,0,0,0-.48,0,1.17,1.17,0,0,0-.43.17.86.86,0,0,0-.31.29.78.78,0,0,0-.12.44.93.93,0,0,0,.09.42,1.12,1.12,0,0,0,.27.32,2.67,2.67,0,0,0,.43.28l.58.3c.22.11.44.23.64.35a2.76,2.76,0,0,1,.53.41,1.88,1.88,0,0,1,.36.49,1.42,1.42,0,0,1,.14.63,1.62,1.62,0,0,1-.18.79,1.55,1.55,0,0,1-.5.52,2,2,0,0,1-.71.29,3.89,3.89,0,0,1-.85.09,2.56,2.56,0,0,1-.37,0l-.45-.07-.43-.11A1.27,1.27,0,0,1,112.94,154.72Z"/><path class="cls-23" d="M119.8,155.08a2.06,2.06,0,0,1-1.59-.63,2.31,2.31,0,0,1-.6-1.67,2.46,2.46,0,0,1,.62-1.77,2.24,2.24,0,0,1,1.67-.64,2,2,0,0,1,1.58.62,2.51,2.51,0,0,1,.56,1.72,2.42,2.42,0,0,1-.61,1.73A2.12,2.12,0,0,1,119.8,155.08Zm0-4.1a1.39,1.39,0,0,0-1.1.47,1.94,1.94,0,0,0-.4,1.3,1.82,1.82,0,0,0,.41,1.27,1.4,1.4,0,0,0,1.09.46,1.33,1.33,0,0,0,1.08-.45,2,2,0,0,0,.37-1.29,2,2,0,0,0-.37-1.3A1.3,1.3,0,0,0,119.85,151Z"/><path class="cls-23" d="M126.83,155h-.72v-.71h0a1.48,1.48,0,0,1-1.39.81c-1.07,0-1.61-.63-1.61-1.91v-2.69h.72v2.57c0,.95.36,1.43,1.09,1.43a1.11,1.11,0,0,0,.87-.39,1.48,1.48,0,0,0,.34-1v-2.59h.72Z"/><path class="cls-23" d="M130.63,151.21a.85.85,0,0,0-.54-.15.94.94,0,0,0-.78.44,2,2,0,0,0-.3,1.18V155h-.73v-4.5H129v.93h0a1.58,1.58,0,0,1,.47-.74,1.07,1.07,0,0,1,.71-.27,1.19,1.19,0,0,1,.43.06Z"/><path class="cls-23" d="M134.48,154.77a2.29,2.29,0,0,1-1.23.31,2,2,0,0,1-1.55-.62,2.25,2.25,0,0,1-.59-1.63,2.5,2.5,0,0,1,.63-1.78,2.24,2.24,0,0,1,1.7-.68,2.46,2.46,0,0,1,1.05.22v.74a1.85,1.85,0,0,0-1.07-.35,1.43,1.43,0,0,0-1.13.49,1.87,1.87,0,0,0-.45,1.3,1.77,1.77,0,0,0,.42,1.25,1.42,1.42,0,0,0,1.11.46,1.79,1.79,0,0,0,1.11-.39Z"/><path class="cls-23" d="M139.19,152.91H136a1.71,1.71,0,0,0,.4,1.16,1.42,1.42,0,0,0,1.07.41,2.27,2.27,0,0,0,1.4-.5v.67a2.61,2.61,0,0,1-1.57.43,1.89,1.89,0,0,1-1.5-.61,2.86,2.86,0,0,1,.05-3.44,1.92,1.92,0,0,1,1.48-.66,1.68,1.68,0,0,1,1.36.57,2.36,2.36,0,0,1,.49,1.59Zm-.74-.61a1.43,1.43,0,0,0-.3-1,1,1,0,0,0-.83-.35,1.16,1.16,0,0,0-.86.36,1.65,1.65,0,0,0-.44,1Z"/><path class="cls-23" d="M104.07,165.8v2.38h-.74v-6.3h1.73a2.27,2.27,0,0,1,1.57.49,1.76,1.76,0,0,1,.56,1.39,1.92,1.92,0,0,1-.62,1.47,2.37,2.37,0,0,1-1.67.57Zm0-3.25v2.58h.77a1.76,1.76,0,0,0,1.17-.35,1.23,1.23,0,0,0,.4-1c0-.83-.49-1.24-1.47-1.24Z"/><path class="cls-23" d="M109.82,168.29a2.07,2.07,0,0,1-1.59-.64,2.31,2.31,0,0,1-.6-1.67,2.46,2.46,0,0,1,.62-1.77,2.28,2.28,0,0,1,1.68-.64,2,2,0,0,1,1.57.62,2.86,2.86,0,0,1,0,3.45A2.15,2.15,0,0,1,109.82,168.29Zm.06-4.11a1.38,1.38,0,0,0-1.1.47,2,2,0,0,0-.41,1.31,1.85,1.85,0,0,0,.41,1.26,1.38,1.38,0,0,0,1.1.46,1.32,1.32,0,0,0,1.07-.45,2.4,2.4,0,0,0,0-2.59A1.3,1.3,0,0,0,109.88,164.18Z"/><path class="cls-23" d="M115.56,164.41a.85.85,0,0,0-.54-.15.91.91,0,0,0-.77.44,2,2,0,0,0-.31,1.19v2.29h-.72v-4.5h.72v.93h0a1.58,1.58,0,0,1,.47-.74,1.09,1.09,0,0,1,.71-.27,1.19,1.19,0,0,1,.43.06Z"/><path class="cls-23" d="M118.43,168.14a1.42,1.42,0,0,1-.67.14c-.79,0-1.18-.44-1.18-1.32v-2.67h-.78v-.61h.78v-1.1l.72-.23v1.33h1.13v.61H117.3v2.54a1.09,1.09,0,0,0,.15.65.6.6,0,0,0,.51.19.75.75,0,0,0,.47-.15Z"/><path class="cls-23" d="M121.59,168v-.78a2.12,2.12,0,0,0,1.29.44c.64,0,1-.21,1-.63a.51.51,0,0,0-.08-.31.77.77,0,0,0-.22-.22,1.92,1.92,0,0,0-.32-.18l-.41-.16a4.25,4.25,0,0,1-.52-.23,2,2,0,0,1-.38-.28,1,1,0,0,1-.23-.34,1.25,1.25,0,0,1-.07-.45,1.07,1.07,0,0,1,.14-.57,1.35,1.35,0,0,1,.39-.4,1.63,1.63,0,0,1,.55-.25,2.3,2.3,0,0,1,.64-.09,2.44,2.44,0,0,1,1,.21v.73a2,2,0,0,0-1.14-.33,1.36,1.36,0,0,0-.36,0,.8.8,0,0,0-.28.13.49.49,0,0,0-.18.2.52.52,0,0,0-.07.25.66.66,0,0,0,.07.3.6.6,0,0,0,.18.21,2.14,2.14,0,0,0,.3.17l.4.16a4.61,4.61,0,0,1,.54.23,1.5,1.5,0,0,1,.4.28.89.89,0,0,1,.26.35,1.09,1.09,0,0,1,.09.47,1.11,1.11,0,0,1-.15.58,1.15,1.15,0,0,1-.39.4,1.86,1.86,0,0,1-.57.25,2.86,2.86,0,0,1-.67.08A2.53,2.53,0,0,1,121.59,168Z"/><path class="cls-23" d="M127.56,168.29a2,2,0,0,1-1.59-.64,2.31,2.31,0,0,1-.6-1.67,2.46,2.46,0,0,1,.62-1.77,2.25,2.25,0,0,1,1.68-.64,2,2,0,0,1,1.57.62,2.51,2.51,0,0,1,.56,1.72,2.41,2.41,0,0,1-.61,1.73A2.13,2.13,0,0,1,127.56,168.29Zm0-4.11a1.39,1.39,0,0,0-1.1.47,2,2,0,0,0-.4,1.31,1.85,1.85,0,0,0,.41,1.26,1.38,1.38,0,0,0,1.09.46,1.33,1.33,0,0,0,1.08-.45,2.45,2.45,0,0,0,0-2.59A1.3,1.3,0,0,0,127.61,164.18Z"/><path class="cls-23" d="M134.59,168.18h-.72v-.71h0a1.49,1.49,0,0,1-1.39.82c-1.07,0-1.6-.64-1.6-1.92v-2.69h.71v2.57c0,.95.37,1.43,1.09,1.43a1.11,1.11,0,0,0,.87-.39,1.48,1.48,0,0,0,.34-1v-2.59h.72Z"/><path class="cls-23" d="M138.39,164.41a.85.85,0,0,0-.54-.15.91.91,0,0,0-.77.44,2,2,0,0,0-.31,1.19v2.29h-.72v-4.5h.72v.93h0a1.58,1.58,0,0,1,.47-.74,1.07,1.07,0,0,1,.71-.27,1.19,1.19,0,0,1,.43.06Z"/><path class="cls-23" d="M142.24,168a2.3,2.3,0,0,1-1.23.32,2,2,0,0,1-1.55-.63,2.25,2.25,0,0,1-.59-1.62,2.51,2.51,0,0,1,.63-1.79,2.25,2.25,0,0,1,1.7-.68,2.46,2.46,0,0,1,1.05.22v.74a1.85,1.85,0,0,0-1.07-.35,1.47,1.47,0,0,0-1.13.49,1.87,1.87,0,0,0-.45,1.3,1.77,1.77,0,0,0,.42,1.25,1.42,1.42,0,0,0,1.11.46,1.79,1.79,0,0,0,1.11-.39Z"/><path class="cls-23" d="M147,166.11h-3.18a1.66,1.66,0,0,0,.41,1.16,1.39,1.39,0,0,0,1.06.41,2.24,2.24,0,0,0,1.4-.5v.67a2.61,2.61,0,0,1-1.57.44,1.89,1.89,0,0,1-1.5-.62A2.52,2.52,0,0,1,143,166a2.44,2.44,0,0,1,.6-1.71,1.89,1.89,0,0,1,1.48-.67,1.65,1.65,0,0,1,1.36.58,2.32,2.32,0,0,1,.49,1.58Zm-.74-.61a1.43,1.43,0,0,0-.3-1,1,1,0,0,0-.83-.35,1.18,1.18,0,0,0-.86.36,1.71,1.71,0,0,0-.44,1Z"/><path class="cls-23" d="M104.07,181.38h-.74v-6.3h.74Z"/><path class="cls-23" d="M106.47,179v2.38h-.74v-6.3h1.73a2.31,2.31,0,0,1,1.57.5,1.74,1.74,0,0,1,.55,1.38,1.88,1.88,0,0,1-.62,1.47,2.34,2.34,0,0,1-1.66.57Zm0-3.25v2.58h.77a1.76,1.76,0,0,0,1.17-.34,1.29,1.29,0,0,0,.4-1c0-.83-.49-1.25-1.48-1.25Z"/><path class="cls-23" d="M117,181.38h-.72v-.76h0a1.82,1.82,0,0,1-2.9.27,2.5,2.5,0,0,1-.51-1.65,2.74,2.74,0,0,1,.56-1.79,1.86,1.86,0,0,1,1.5-.67,1.43,1.43,0,0,1,1.35.73h0v-2.79H117Zm-.72-2v-.66a1.31,1.31,0,0,0-.36-.93,1.34,1.34,0,0,0-2,.11,2.08,2.08,0,0,0-.38,1.34,1.91,1.91,0,0,0,.36,1.22,1.19,1.19,0,0,0,1,.45,1.23,1.23,0,0,0,1-.43A1.63,1.63,0,0,0,116.26,179.35Z"/><path class="cls-23" d="M122.05,179.31h-3.17a1.64,1.64,0,0,0,.4,1.16,1.36,1.36,0,0,0,1.06.41,2.17,2.17,0,0,0,1.4-.5v.68a2.59,2.59,0,0,1-1.57.43,1.92,1.92,0,0,1-1.5-.61,2.54,2.54,0,0,1-.54-1.73,2.48,2.48,0,0,1,.59-1.71,1.92,1.92,0,0,1,1.48-.66,1.7,1.7,0,0,1,1.37.57,2.4,2.4,0,0,1,.48,1.59Zm-.74-.61a1.44,1.44,0,0,0-.3-1,1,1,0,0,0-.82-.34,1.19,1.19,0,0,0-.87.36,1.72,1.72,0,0,0-.44.95Z"/><path class="cls-23" d="M129.45,181.38h-.72v-.76h0a1.66,1.66,0,0,1-1.55.87,1.68,1.68,0,0,1-1.35-.6,2.5,2.5,0,0,1-.51-1.65,2.74,2.74,0,0,1,.56-1.79,1.86,1.86,0,0,1,1.5-.67,1.43,1.43,0,0,1,1.35.73h0v-2.79h.72Zm-.72-2v-.66a1.31,1.31,0,0,0-.36-.93,1.34,1.34,0,0,0-2,.11,2.14,2.14,0,0,0-.38,1.34,1.91,1.91,0,0,0,.36,1.22,1.19,1.19,0,0,0,1,.45,1.21,1.21,0,0,0,1-.43A1.63,1.63,0,0,0,128.73,179.35Z"/><path class="cls-23" d="M134.52,179.31h-3.17a1.64,1.64,0,0,0,.4,1.16,1.37,1.37,0,0,0,1.07.41,2.16,2.16,0,0,0,1.39-.5v.68a2.59,2.59,0,0,1-1.57.43,1.88,1.88,0,0,1-1.49-.61,2.5,2.5,0,0,1-.55-1.73,2.44,2.44,0,0,1,.6-1.71,1.9,1.9,0,0,1,1.47-.66,1.7,1.7,0,0,1,1.37.57,2.4,2.4,0,0,1,.48,1.59Zm-.73-.61a1.56,1.56,0,0,0-.3-1,1,1,0,0,0-.83-.34,1.15,1.15,0,0,0-.86.36,1.59,1.59,0,0,0-.44.95Z"/><path class="cls-23" d="M135.34,181.22v-.77a2.14,2.14,0,0,0,1.3.43c.63,0,1-.21,1-.63a.56.56,0,0,0-.08-.3,1,1,0,0,0-.22-.23,2,2,0,0,0-.33-.17l-.4-.16c-.2-.08-.37-.16-.53-.24a1.54,1.54,0,0,1-.37-.27,1,1,0,0,1-.23-.35,1.25,1.25,0,0,1-.08-.45,1,1,0,0,1,.15-.56,1.24,1.24,0,0,1,.38-.41,2,2,0,0,1,.55-.25,2.74,2.74,0,0,1,.64-.08,2.69,2.69,0,0,1,1.05.2v.73a2,2,0,0,0-1.14-.32,1.4,1.4,0,0,0-.37,0,1,1,0,0,0-.28.13.86.86,0,0,0-.18.2.55.55,0,0,0-.06.26.62.62,0,0,0,.06.29.76.76,0,0,0,.19.21,1.07,1.07,0,0,0,.3.17l.4.16a5.46,5.46,0,0,1,.53.24,1.82,1.82,0,0,1,.41.27,1.1,1.1,0,0,1,.26.35,1.13,1.13,0,0,1,.09.47,1.09,1.09,0,0,1-.15.58,1.38,1.38,0,0,1-.39.41,1.81,1.81,0,0,1-.57.24,3,3,0,0,1-.67.08A2.54,2.54,0,0,1,135.34,181.22Z"/><path class="cls-23" d="M141.52,181.34a1.42,1.42,0,0,1-.67.14c-.79,0-1.18-.44-1.18-1.32V177.5h-.78v-.62h.78v-1.09l.72-.24v1.33h1.13v.62h-1.13V180a1.06,1.06,0,0,0,.15.64.61.61,0,0,0,.51.2.75.75,0,0,0,.47-.15Z"/><path class="cls-23" d="M142.85,175.74a.44.44,0,0,1-.46-.46.45.45,0,0,1,.13-.34.44.44,0,0,1,.33-.13.47.47,0,0,1,.34.13.46.46,0,0,1,.14.34.45.45,0,0,1-.14.33A.47.47,0,0,1,142.85,175.74Zm.35,5.64h-.72v-4.5h.72Z"/><path class="cls-23" d="M148.4,181.38h-.72v-2.56c0-1-.35-1.43-1.05-1.43a1.12,1.12,0,0,0-.89.4,1.5,1.5,0,0,0-.36,1v2.56h-.72v-4.5h.72v.75h0a1.62,1.62,0,0,1,1.48-.85,1.38,1.38,0,0,1,1.13.48,2.09,2.09,0,0,1,.39,1.37Z"/><path class="cls-23" d="M153,181.38h-.72v-.7h0a1.51,1.51,0,0,1-1.39.81,1.49,1.49,0,0,1-1-.36,1.23,1.23,0,0,1-.38-.94c0-.84.5-1.33,1.49-1.47l1.35-.19q0-1.14-.93-1.14a2.22,2.22,0,0,0-1.47.55v-.74a2.79,2.79,0,0,1,1.53-.42q1.59,0,1.59,1.68Zm-.72-2.27-1.09.15a1.65,1.65,0,0,0-.75.25.71.71,0,0,0-.26.63.65.65,0,0,0,.24.53.88.88,0,0,0,.62.21,1.17,1.17,0,0,0,.89-.37,1.36,1.36,0,0,0,.35-.95Z"/><path class="cls-23" d="M156.42,181.34a1.42,1.42,0,0,1-.67.14c-.79,0-1.18-.44-1.18-1.32V177.5h-.78v-.62h.78v-1.09l.72-.24v1.33h1.13v.62h-1.13V180a1.06,1.06,0,0,0,.15.64.63.63,0,0,0,.51.2.75.75,0,0,0,.47-.15Z"/><path class="cls-23" d="M157.75,175.74a.48.48,0,0,1-.33-.13.44.44,0,0,1-.13-.33.45.45,0,0,1,.13-.34.48.48,0,0,1,.33-.13.45.45,0,0,1,.34.13.46.46,0,0,1,.14.34.46.46,0,0,1-.48.46Zm.36,5.64h-.72v-4.5h.72Z"/><path class="cls-23" d="M161.45,181.49a2.1,2.1,0,0,1-1.6-.63,2.36,2.36,0,0,1-.59-1.67,2.39,2.39,0,0,1,.62-1.77,2.2,2.2,0,0,1,1.67-.64,2,2,0,0,1,1.57.62,2.8,2.8,0,0,1,0,3.44A2.15,2.15,0,0,1,161.45,181.49Zm.05-4.1a1.36,1.36,0,0,0-1.1.47,1.93,1.93,0,0,0-.4,1.3,1.83,1.83,0,0,0,.4,1.26,1.4,1.4,0,0,0,1.1.46,1.32,1.32,0,0,0,1.07-.45,2,2,0,0,0,.38-1.29,2,2,0,0,0-.38-1.3A1.32,1.32,0,0,0,161.5,177.39Z"/><path class="cls-23" d="M168.57,181.38h-.72v-2.56c0-1-.35-1.43-1-1.43a1.15,1.15,0,0,0-.9.4,1.55,1.55,0,0,0-.35,1v2.56h-.72v-4.5h.72v.75h0a1.61,1.61,0,0,1,1.47-.85,1.38,1.38,0,0,1,1.13.48,2.09,2.09,0,0,1,.39,1.37Z"/><path class="cls-23" d="M104.07,192.2v2.38h-.74v-6.3h1.73a2.27,2.27,0,0,1,1.57.49,1.76,1.76,0,0,1,.56,1.39,1.92,1.92,0,0,1-.62,1.47,2.37,2.37,0,0,1-1.67.57Zm0-3.25v2.58h.77a1.76,1.76,0,0,0,1.17-.35,1.23,1.23,0,0,0,.4-1c0-.83-.49-1.24-1.47-1.24Z"/><path class="cls-23" d="M109.82,194.68a2.09,2.09,0,0,1-1.59-.63,2.31,2.31,0,0,1-.6-1.67,2.46,2.46,0,0,1,.62-1.77,2.28,2.28,0,0,1,1.68-.64,2,2,0,0,1,1.57.62,2.86,2.86,0,0,1,0,3.45A2.15,2.15,0,0,1,109.82,194.68Zm.06-4.1a1.38,1.38,0,0,0-1.1.47,2,2,0,0,0-.41,1.31,1.85,1.85,0,0,0,.41,1.26,1.42,1.42,0,0,0,1.1.46,1.32,1.32,0,0,0,1.07-.45,2.4,2.4,0,0,0,0-2.59A1.3,1.3,0,0,0,109.88,190.58Z"/><path class="cls-23" d="M115.56,190.81a.85.85,0,0,0-.54-.15.91.91,0,0,0-.77.44,2,2,0,0,0-.31,1.19v2.29h-.72v-4.5h.72V191h0a1.58,1.58,0,0,1,.47-.74,1.09,1.09,0,0,1,.71-.27,1.19,1.19,0,0,1,.43.06Z"/><path class="cls-23" d="M118.43,194.54a1.42,1.42,0,0,1-.67.14c-.79,0-1.18-.44-1.18-1.32v-2.67h-.78v-.61h.78V189l.72-.23v1.33h1.13v.61H117.3v2.54a1.09,1.09,0,0,0,.15.65.63.63,0,0,0,.51.19.75.75,0,0,0,.47-.15Z"/><path class="cls-23" d="M125.7,194.58H125v-.77h0a1.66,1.66,0,0,1-1.54.87,1.69,1.69,0,0,1-1.36-.6,2.47,2.47,0,0,1-.51-1.65,2.69,2.69,0,0,1,.56-1.78,1.87,1.87,0,0,1,1.5-.68,1.45,1.45,0,0,1,1.35.73h0v-2.78h.72Zm-.72-2v-.66a1.28,1.28,0,0,0-.36-.92,1.22,1.22,0,0,0-.91-.38,1.25,1.25,0,0,0-1,.48,2.16,2.16,0,0,0-.38,1.34,1.92,1.92,0,0,0,.36,1.23,1.21,1.21,0,0,0,1,.45,1.22,1.22,0,0,0,1-.44A1.62,1.62,0,0,0,125,192.54Z"/><path class="cls-23" d="M130.78,192.51H127.6a1.71,1.71,0,0,0,.4,1.16,1.42,1.42,0,0,0,1.07.41,2.22,2.22,0,0,0,1.39-.5v.67a2.55,2.55,0,0,1-1.56.43,1.89,1.89,0,0,1-1.5-.61,2.86,2.86,0,0,1,0-3.44,1.9,1.9,0,0,1,1.48-.66,1.68,1.68,0,0,1,1.36.57,2.36,2.36,0,0,1,.49,1.59Zm-.74-.61a1.43,1.43,0,0,0-.3-1,1.05,1.05,0,0,0-.83-.35,1.15,1.15,0,0,0-.86.36,1.65,1.65,0,0,0-.44,1Z"/><path class="cls-23" d="M138.17,194.58h-.72v-.77h0a1.66,1.66,0,0,1-1.54.87,1.69,1.69,0,0,1-1.36-.6,2.47,2.47,0,0,1-.51-1.65,2.64,2.64,0,0,1,.57-1.78,1.84,1.84,0,0,1,1.49-.68,1.45,1.45,0,0,1,1.35.73h0v-2.78h.72Zm-.72-2v-.66a1.28,1.28,0,0,0-.36-.92,1.21,1.21,0,0,0-.91-.38,1.25,1.25,0,0,0-1,.48,2.16,2.16,0,0,0-.38,1.34,1.92,1.92,0,0,0,.36,1.23,1.21,1.21,0,0,0,1,.45,1.24,1.24,0,0,0,1-.44A1.61,1.61,0,0,0,137.45,192.54Z"/><path class="cls-23" d="M143.25,192.51h-3.18a1.66,1.66,0,0,0,.41,1.16,1.39,1.39,0,0,0,1.06.41,2.24,2.24,0,0,0,1.4-.5v.67a2.61,2.61,0,0,1-1.57.43,1.89,1.89,0,0,1-1.5-.61,2.52,2.52,0,0,1-.55-1.72,2.49,2.49,0,0,1,.6-1.72,1.92,1.92,0,0,1,1.48-.66,1.68,1.68,0,0,1,1.36.57,2.36,2.36,0,0,1,.49,1.59Zm-.74-.61a1.43,1.43,0,0,0-.3-1,1,1,0,0,0-.83-.35,1.16,1.16,0,0,0-.86.36,1.71,1.71,0,0,0-.44,1Z"/><path class="cls-23" d="M144.07,194.42v-.78a2.12,2.12,0,0,0,1.29.44c.63,0,.95-.21.95-.63a.59.59,0,0,0-.08-.31.77.77,0,0,0-.22-.22,1.69,1.69,0,0,0-.33-.18l-.4-.16a5.2,5.2,0,0,1-.52-.24,1.61,1.61,0,0,1-.38-.27,1,1,0,0,1-.23-.34,1.26,1.26,0,0,1-.08-.46,1.07,1.07,0,0,1,.15-.56,1.24,1.24,0,0,1,.39-.4,1.63,1.63,0,0,1,.55-.25,2.25,2.25,0,0,1,.64-.09,2.44,2.44,0,0,1,1,.21v.73a2,2,0,0,0-1.14-.33,1.3,1.3,0,0,0-.36,0,.73.73,0,0,0-.28.13.49.49,0,0,0-.18.2.43.43,0,0,0-.07.25.56.56,0,0,0,.07.3.6.6,0,0,0,.18.21,1.69,1.69,0,0,0,.3.17l.4.16a4.61,4.61,0,0,1,.54.23,1.5,1.5,0,0,1,.4.28,1,1,0,0,1,.26.35,1.09,1.09,0,0,1,.09.47,1.11,1.11,0,0,1-.15.58,1.24,1.24,0,0,1-.39.4,2,2,0,0,1-.57.25,2.93,2.93,0,0,1-.67.07A2.65,2.65,0,0,1,144.07,194.42Z"/><path class="cls-23" d="M150.24,194.54a1.42,1.42,0,0,1-.67.14c-.79,0-1.18-.44-1.18-1.32v-2.67h-.77v-.61h.77V189l.72-.23v1.33h1.13v.61h-1.13v2.54a1.09,1.09,0,0,0,.15.65.66.66,0,0,0,.51.19.73.73,0,0,0,.47-.15Z"/><path class="cls-23" d="M151.58,188.94a.45.45,0,0,1-.33-.14.42.42,0,0,1-.14-.33.48.48,0,0,1,.14-.34.48.48,0,0,1,.66,0,.48.48,0,0,1,.14.34.48.48,0,0,1-.47.47Zm.35,5.64h-.72v-4.5h.72Z"/><path class="cls-23" d="M157.12,194.58h-.72V192c0-.95-.35-1.43-1.05-1.43a1.14,1.14,0,0,0-.89.41,1.47,1.47,0,0,0-.35,1v2.57h-.72v-4.5h.72v.75h0a1.64,1.64,0,0,1,1.48-.86,1.38,1.38,0,0,1,1.13.48,2.14,2.14,0,0,1,.39,1.38Z"/><path class="cls-23" d="M161.7,194.58H161v-.7h0a1.49,1.49,0,0,1-1.38.8,1.45,1.45,0,0,1-1.05-.35,1.21,1.21,0,0,1-.38-1c0-.84.49-1.33,1.48-1.46l1.35-.19c0-.77-.31-1.15-.93-1.15a2.22,2.22,0,0,0-1.47.55v-.73a2.76,2.76,0,0,1,1.53-.43q1.59,0,1.59,1.68ZM161,192.3l-1.09.15a1.78,1.78,0,0,0-.75.25.72.72,0,0,0-.26.63.68.68,0,0,0,.24.54.9.9,0,0,0,.63.21,1.16,1.16,0,0,0,.88-.38,1.36,1.36,0,0,0,.35-.95Z"/><path class="cls-23" d="M165.15,194.54a1.46,1.46,0,0,1-.68.14c-.78,0-1.18-.44-1.18-1.32v-2.67h-.77v-.61h.77V189l.72-.23v1.33h1.14v.61H164v2.54a1,1,0,0,0,.16.65.63.63,0,0,0,.51.19.78.78,0,0,0,.47-.15Z"/><path class="cls-23" d="M166.48,188.94a.45.45,0,0,1-.33-.14.42.42,0,0,1-.14-.33.48.48,0,0,1,.14-.34.48.48,0,0,1,.66,0,.44.44,0,0,1,.14.34.42.42,0,0,1-.14.33A.45.45,0,0,1,166.48,188.94Zm.35,5.64h-.72v-4.5h.72Z"/><path class="cls-23" d="M170.17,194.68a2.06,2.06,0,0,1-1.59-.63,2.31,2.31,0,0,1-.6-1.67,2.46,2.46,0,0,1,.62-1.77,2.24,2.24,0,0,1,1.67-.64,2,2,0,0,1,1.58.62,2.51,2.51,0,0,1,.56,1.72,2.42,2.42,0,0,1-.61,1.73A2.12,2.12,0,0,1,170.17,194.68Zm.05-4.1a1.39,1.39,0,0,0-1.1.47,2,2,0,0,0-.4,1.31,1.81,1.81,0,0,0,.41,1.26,1.4,1.4,0,0,0,1.09.46,1.33,1.33,0,0,0,1.08-.45,2.45,2.45,0,0,0,0-2.59A1.3,1.3,0,0,0,170.22,190.58Z"/><path class="cls-23" d="M177.3,194.58h-.72V192c0-.95-.35-1.43-1.05-1.43a1.12,1.12,0,0,0-.89.41,1.48,1.48,0,0,0-.36,1v2.57h-.72v-4.5h.72v.75h0a1.63,1.63,0,0,1,1.48-.86,1.39,1.39,0,0,1,1.13.48,2.14,2.14,0,0,1,.39,1.38Z"/><path class="cls-23" d="M104.07,205.4v2.38h-.74v-6.3h1.73a2.27,2.27,0,0,1,1.57.49,1.76,1.76,0,0,1,.56,1.39,1.92,1.92,0,0,1-.62,1.47,2.37,2.37,0,0,1-1.67.57Zm0-3.25v2.58h.77a1.76,1.76,0,0,0,1.17-.35,1.23,1.23,0,0,0,.4-1c0-.83-.49-1.24-1.47-1.24Z"/><path class="cls-23" d="M110.62,204a.83.83,0,0,0-.54-.15.91.91,0,0,0-.77.44,2,2,0,0,0-.31,1.19v2.29h-.72v-4.5H109v.93h0a1.58,1.58,0,0,1,.47-.74,1.09,1.09,0,0,1,.71-.27,1.19,1.19,0,0,1,.43.06Z"/><path class="cls-23" d="M113.29,207.88a2.1,2.1,0,0,1-1.6-.63,2.35,2.35,0,0,1-.59-1.67,2.42,2.42,0,0,1,.62-1.77,2.24,2.24,0,0,1,1.67-.64,2,2,0,0,1,1.57.62,2.82,2.82,0,0,1,0,3.45A2.14,2.14,0,0,1,113.29,207.88Zm0-4.1a1.39,1.39,0,0,0-1.1.47,2,2,0,0,0-.4,1.31,1.85,1.85,0,0,0,.4,1.26,1.4,1.4,0,0,0,1.1.46,1.32,1.32,0,0,0,1.07-.45,2.4,2.4,0,0,0,0-2.59A1.3,1.3,0,0,0,113.34,203.78Z"/><path class="cls-23" d="M118.77,207.74a1.46,1.46,0,0,1-.68.14c-.78,0-1.18-.44-1.18-1.32v-2.67h-.77v-.61h.77v-1.1l.72-.23v1.33h1.14v.61h-1.14v2.54a1,1,0,0,0,.16.65.6.6,0,0,0,.51.19.78.78,0,0,0,.47-.15Z"/><path class="cls-23" d="M121.61,207.88a2.06,2.06,0,0,1-1.59-.63,2.31,2.31,0,0,1-.6-1.67,2.46,2.46,0,0,1,.62-1.77,2.24,2.24,0,0,1,1.67-.64,2,2,0,0,1,1.58.62,2.51,2.51,0,0,1,.56,1.72,2.42,2.42,0,0,1-.61,1.73A2.12,2.12,0,0,1,121.61,207.88Zm0-4.1a1.39,1.39,0,0,0-1.1.47,2,2,0,0,0-.4,1.31,1.85,1.85,0,0,0,.41,1.26,1.38,1.38,0,0,0,1.09.46,1.33,1.33,0,0,0,1.08-.45,2.45,2.45,0,0,0,0-2.59A1.3,1.3,0,0,0,121.66,203.78Z"/><path class="cls-23" d="M128.07,207.57a2.34,2.34,0,0,1-1.23.31,2,2,0,0,1-1.55-.62,2.26,2.26,0,0,1-.6-1.63,2.5,2.5,0,0,1,.64-1.78,2.24,2.24,0,0,1,1.7-.68,2.46,2.46,0,0,1,1.05.22v.74a1.87,1.87,0,0,0-1.07-.35,1.5,1.5,0,0,0-1.14.49,1.91,1.91,0,0,0-.44,1.3,1.77,1.77,0,0,0,.42,1.25,1.42,1.42,0,0,0,1.11.46,1.83,1.83,0,0,0,1.11-.39Z"/><path class="cls-23" d="M131,207.88a2.08,2.08,0,0,1-1.59-.63,2.31,2.31,0,0,1-.6-1.67,2.46,2.46,0,0,1,.62-1.77,2.25,2.25,0,0,1,1.68-.64,2,2,0,0,1,1.57.62,2.51,2.51,0,0,1,.56,1.72,2.42,2.42,0,0,1-.61,1.73A2.12,2.12,0,0,1,131,207.88Zm.05-4.1a1.39,1.39,0,0,0-1.1.47,2,2,0,0,0-.4,1.31,1.85,1.85,0,0,0,.41,1.26,1.38,1.38,0,0,0,1.09.46,1.33,1.33,0,0,0,1.08-.45,2.45,2.45,0,0,0,0-2.59A1.3,1.3,0,0,0,131.09,203.78Z"/><path class="cls-23" d="M135.15,207.78h-.72v-6.66h.72Z"/><path class="cls-23" d="M140.23,205.71h-3.18a1.66,1.66,0,0,0,.41,1.16,1.39,1.39,0,0,0,1.06.41,2.24,2.24,0,0,0,1.4-.5v.67a2.61,2.61,0,0,1-1.57.43,1.89,1.89,0,0,1-1.5-.61,2.52,2.52,0,0,1-.55-1.72,2.49,2.49,0,0,1,.6-1.72,1.92,1.92,0,0,1,1.48-.66,1.69,1.69,0,0,1,1.37.58,2.37,2.37,0,0,1,.48,1.58Zm-.74-.61a1.43,1.43,0,0,0-.3-1,1,1,0,0,0-.82-.35,1.19,1.19,0,0,0-.87.36,1.71,1.71,0,0,0-.44,1Z"/><path class="cls-23" d="M237.05,38.4h-.74V32.09h.74Z"/><path class="cls-23" d="M239.45,36V38.4h-.74V32.09h1.73a2.27,2.27,0,0,1,1.56.5,1.71,1.71,0,0,1,.56,1.38,1.88,1.88,0,0,1-.62,1.47,2.34,2.34,0,0,1-1.66.57Zm0-3.25v2.59h.77a1.76,1.76,0,0,0,1.17-.35,1.29,1.29,0,0,0,.4-1c0-.83-.49-1.25-1.48-1.25Z"/><path class="cls-23" d="M246.85,37.75h0v2.72h-.72V33.9h.72v.79h0a1.72,1.72,0,0,1,1.56-.9,1.66,1.66,0,0,1,1.36.6,2.56,2.56,0,0,1,.49,1.62,2.81,2.81,0,0,1-.55,1.81,1.85,1.85,0,0,1-1.51.68A1.52,1.52,0,0,1,246.85,37.75Zm0-1.82v.63a1.36,1.36,0,0,0,.36.95,1.23,1.23,0,0,0,.92.38,1.2,1.2,0,0,0,1-.5,2.32,2.32,0,0,0,.37-1.39,1.84,1.84,0,0,0-.35-1.18,1.15,1.15,0,0,0-.94-.42,1.27,1.27,0,0,0-1,.43A1.6,1.6,0,0,0,246.84,35.93Z"/><path class="cls-23" d="M253.75,34.63a.83.83,0,0,0-.54-.15.91.91,0,0,0-.77.44,2,2,0,0,0-.31,1.18v2.3h-.72V33.9h.72v.92h0a1.6,1.6,0,0,1,.47-.74,1.08,1.08,0,0,1,.7-.26,1.19,1.19,0,0,1,.43.06Z"/><path class="cls-23" d="M254.91,32.75a.44.44,0,0,1-.33-.13.45.45,0,0,1-.14-.33.46.46,0,0,1,.14-.34.48.48,0,0,1,.66,0,.46.46,0,0,1,.14.34.45.45,0,0,1-.14.33A.44.44,0,0,1,254.91,32.75Zm.35,5.65h-.72V33.9h.72Z"/><path class="cls-23" d="M260.25,33.9l-1.79,4.5h-.71l-1.7-4.5h.79L258,37.17a2.7,2.7,0,0,1,.16.62h0a2.73,2.73,0,0,1,.14-.61l1.19-3.28Z"/><path class="cls-23" d="M264.64,36.33h-3.17a1.68,1.68,0,0,0,.4,1.16,1.39,1.39,0,0,0,1.06.4,2.17,2.17,0,0,0,1.4-.5v.68a2.59,2.59,0,0,1-1.57.43,1.92,1.92,0,0,1-1.5-.61,2.54,2.54,0,0,1-.54-1.73,2.44,2.44,0,0,1,.6-1.71,1.9,1.9,0,0,1,1.47-.66,1.7,1.7,0,0,1,1.37.57,2.4,2.4,0,0,1,.48,1.59Zm-.73-.62a1.52,1.52,0,0,0-.31-1,1,1,0,0,0-.82-.34,1.15,1.15,0,0,0-.86.36,1.59,1.59,0,0,0-.44,1Zm-.12-4.11L262.64,33h-.56l1-1.44Z"/><path class="cls-23" d="M269.35,36.33h-3.18a1.68,1.68,0,0,0,.41,1.16,1.38,1.38,0,0,0,1.06.4,2.19,2.19,0,0,0,1.4-.5v.68a2.61,2.61,0,0,1-1.57.43,1.89,1.89,0,0,1-1.5-.61,2.54,2.54,0,0,1-.54-1.73,2.44,2.44,0,0,1,.59-1.71,1.92,1.92,0,0,1,1.48-.66,1.71,1.71,0,0,1,1.37.57,2.4,2.4,0,0,1,.48,1.59Zm-.74-.62a1.46,1.46,0,0,0-.3-1,1,1,0,0,0-.82-.34,1.19,1.19,0,0,0-.87.36,1.65,1.65,0,0,0-.44,1Z"/><path class="cls-23" d="M271.1,37.39l-.7,2.17h-.52l.52-2.17Z"/><path class="cls-23" d="M275.59,37.75h0v2.72h-.72V33.9h.72v.79h0a1.72,1.72,0,0,1,1.56-.9,1.66,1.66,0,0,1,1.36.6A2.56,2.56,0,0,1,279,36a2.81,2.81,0,0,1-.55,1.81,1.85,1.85,0,0,1-1.51.68A1.52,1.52,0,0,1,275.59,37.75Zm0-1.82v.63a1.36,1.36,0,0,0,.36.95,1.23,1.23,0,0,0,.92.38,1.2,1.2,0,0,0,1-.5,2.32,2.32,0,0,0,.37-1.39,1.84,1.84,0,0,0-.35-1.18,1.15,1.15,0,0,0-.94-.42,1.27,1.27,0,0,0-1,.43A1.65,1.65,0,0,0,275.58,35.93Z"/><path class="cls-23" d="M282,38.5a2.06,2.06,0,0,1-1.59-.63,2.33,2.33,0,0,1-.6-1.67,2.43,2.43,0,0,1,.62-1.77,2.2,2.2,0,0,1,1.67-.64,2.06,2.06,0,0,1,1.58.62,2.49,2.49,0,0,1,.56,1.72,2.38,2.38,0,0,1-.61,1.72A2.11,2.11,0,0,1,282,38.5Zm.05-4.1a1.36,1.36,0,0,0-1.1.47,1.93,1.93,0,0,0-.4,1.3,1.77,1.77,0,0,0,.41,1.26,1.36,1.36,0,0,0,1.09.46,1.33,1.33,0,0,0,1.08-.45,2,2,0,0,0,.37-1.29,2,2,0,0,0-.37-1.3A1.33,1.33,0,0,0,282.08,34.4Z"/><path class="cls-23" d="M287.77,34.63a.88.88,0,0,0-.55-.15.94.94,0,0,0-.77.44,2,2,0,0,0-.31,1.18v2.3h-.72V33.9h.72v.92h0a1.6,1.6,0,0,1,.47-.74,1.11,1.11,0,0,1,.71-.26,1.23,1.23,0,0,1,.43.06Z"/><path class="cls-23" d="M290.64,38.35a1.35,1.35,0,0,1-.68.14c-.78,0-1.18-.44-1.18-1.32V34.51H288V33.9h.77V32.8l.72-.24V33.9h1.14v.61H289.5v2.54a1,1,0,0,0,.16.64.61.61,0,0,0,.51.2.75.75,0,0,0,.47-.15Z"/><path class="cls-23" d="M275.22,54h-.73V49.81q0-.51.06-1.23h0a3.2,3.2,0,0,1-.19.61L272.19,54h-.36l-2.15-4.8a4.59,4.59,0,0,1-.19-.65h0c0,.25,0,.66,0,1.24V54h-.71v-6.3h1l1.94,4.4a6.53,6.53,0,0,1,.29.75h0c.13-.34.23-.6.31-.77l2-4.38h.92Z"/><path class="cls-23" d="M280,54h-.72v-.7h0a1.52,1.52,0,0,1-1.39.81,1.45,1.45,0,0,1-1.05-.36,1.23,1.23,0,0,1-.38-.94c0-.84.49-1.33,1.48-1.47l1.35-.19c0-.76-.31-1.14-.92-1.14a2.2,2.2,0,0,0-1.47.55v-.74a2.79,2.79,0,0,1,1.53-.42c1.06,0,1.58.56,1.58,1.68Zm-.72-2.27-1.08.15a1.65,1.65,0,0,0-.76.25.69.69,0,0,0-.25.63.67.67,0,0,0,.23.53.92.92,0,0,0,.63.21,1.13,1.13,0,0,0,.88-.37,1.31,1.31,0,0,0,.35-.95Z"/><path class="cls-23" d="M284.43,53.83a2.34,2.34,0,0,1-1.23.31,2,2,0,0,1-1.55-.63,2.24,2.24,0,0,1-.6-1.62,2.53,2.53,0,0,1,.64-1.79,2.23,2.23,0,0,1,1.7-.67,2.32,2.32,0,0,1,1.05.22v.74a1.8,1.8,0,0,0-1.07-.35,1.47,1.47,0,0,0-1.14.49,1.89,1.89,0,0,0-.44,1.3,1.78,1.78,0,0,0,.42,1.25,1.45,1.45,0,0,0,1.11.45,1.83,1.83,0,0,0,1.11-.39Z"/><path class="cls-23" d="M289.25,54h-.72V51.44c0-.94-.34-1.4-1-1.4a1.14,1.14,0,0,0-.89.4,1.52,1.52,0,0,0-.36,1.05V54h-.72V47.37h.72v2.91h0a1.62,1.62,0,0,1,1.47-.85c1,0,1.52.61,1.52,1.83Z"/><path class="cls-23" d="M291,48.39a.44.44,0,0,1-.46-.46.45.45,0,0,1,.13-.34.44.44,0,0,1,.33-.13.47.47,0,0,1,.34.13.46.46,0,0,1,.14.34.43.43,0,0,1-.14.32A.44.44,0,0,1,291,48.39Zm.35,5.64h-.72v-4.5h.72Z"/><path class="cls-23" d="M296.53,54h-.72V51.47c0-1-.35-1.43-1.05-1.43a1.12,1.12,0,0,0-.89.4,1.49,1.49,0,0,0-.36,1V54h-.72v-4.5h.72v.75h0a1.62,1.62,0,0,1,1.48-.85,1.38,1.38,0,0,1,1.13.48,2.09,2.09,0,0,1,.39,1.37Z"/><path class="cls-23" d="M301.5,52h-3.17a1.64,1.64,0,0,0,.4,1.16,1.36,1.36,0,0,0,1.06.41,2.17,2.17,0,0,0,1.4-.5v.68a2.61,2.61,0,0,1-1.57.43,1.92,1.92,0,0,1-1.5-.61,2.54,2.54,0,0,1-.54-1.73,2.48,2.48,0,0,1,.59-1.71,1.92,1.92,0,0,1,1.48-.66A1.7,1.7,0,0,1,301,50a2.4,2.4,0,0,1,.48,1.59Zm-.74-.61a1.44,1.44,0,0,0-.3-1,1,1,0,0,0-.82-.34,1.19,1.19,0,0,0-.87.36,1.72,1.72,0,0,0-.44,1Z"/><path class="cls-23" d="M272.24,60.33l-1.79,4.5h-.71L268,60.33h.8L270,63.6a3.23,3.23,0,0,1,.16.63h0a3.42,3.42,0,0,1,.14-.61l1.2-3.29Z"/><path class="cls-23" d="M273.38,59.19a.44.44,0,0,1-.46-.46.45.45,0,0,1,.13-.34.44.44,0,0,1,.33-.13.47.47,0,0,1,.34.13.46.46,0,0,1,.14.34.45.45,0,0,1-.14.32A.44.44,0,0,1,273.38,59.19Zm.35,5.64H273v-4.5h.72Z"/><path class="cls-23" d="M277.54,61.06a1,1,0,0,0-.55-.14.93.93,0,0,0-.77.43,2.07,2.07,0,0,0-.31,1.19v2.29h-.72v-4.5h.72v.93h0a1.6,1.6,0,0,1,.47-.74,1.07,1.07,0,0,1,.71-.27,1.16,1.16,0,0,1,.43.07Z"/><path class="cls-23" d="M280.41,64.79a1.45,1.45,0,0,1-.67.14c-.79,0-1.19-.44-1.19-1.32V61h-.77v-.62h.77V59.24l.73-.24v1.33h1.13V61h-1.13v2.53a1.07,1.07,0,0,0,.15.65.6.6,0,0,0,.51.19.75.75,0,0,0,.47-.15Z"/><path class="cls-23" d="M285,64.83h-.72v-.71h0a1.47,1.47,0,0,1-1.39.82c-1.07,0-1.61-.64-1.61-1.92V60.33H282v2.58c0,1,.36,1.42,1.09,1.42a1.11,1.11,0,0,0,.87-.39,1.45,1.45,0,0,0,.34-1v-2.6H285Z"/><path class="cls-23" d="M290.08,62.76H286.9a1.69,1.69,0,0,0,.41,1.16,1.36,1.36,0,0,0,1.06.41,2.19,2.19,0,0,0,1.4-.5v.68a2.61,2.61,0,0,1-1.57.43,1.9,1.9,0,0,1-1.5-.61,2.54,2.54,0,0,1-.54-1.73,2.48,2.48,0,0,1,.59-1.71,1.92,1.92,0,0,1,1.48-.66,1.7,1.7,0,0,1,1.37.57,2.4,2.4,0,0,1,.48,1.59Zm-.74-.61a1.44,1.44,0,0,0-.3-1,1,1,0,0,0-.82-.35,1.19,1.19,0,0,0-.87.37,1.72,1.72,0,0,0-.44.95Z"/><path class="cls-23" d="M291.89,64.83h-.72V58.17h.72Z"/><path class="cls-23" d="M294.07,64.83h-.72V58.17h.72Z"/><path class="cls-23" d="M299.15,62.76H296a1.69,1.69,0,0,0,.4,1.16,1.39,1.39,0,0,0,1.07.41,2.16,2.16,0,0,0,1.39-.5v.68a2.55,2.55,0,0,1-1.56.43,1.89,1.89,0,0,1-1.5-.61,2.5,2.5,0,0,1-.55-1.73,2.44,2.44,0,0,1,.6-1.71,1.9,1.9,0,0,1,1.48-.66,1.68,1.68,0,0,1,1.36.57,2.35,2.35,0,0,1,.49,1.59Zm-.74-.61a1.44,1.44,0,0,0-.3-1,1,1,0,0,0-.83-.35,1.17,1.17,0,0,0-.86.37,1.59,1.59,0,0,0-.44.95Z"/><path class="cls-23" d="M237.05,92.4h-.74V86.09h.74Z"/><path class="cls-23" d="M239.45,90V92.4h-.74V86.09h1.73a2.27,2.27,0,0,1,1.56.5,1.72,1.72,0,0,1,.56,1.39,1.88,1.88,0,0,1-.62,1.46,2.34,2.34,0,0,1-1.66.57Zm0-3.25v2.59h.77a1.76,1.76,0,0,0,1.17-.35,1.27,1.27,0,0,0,.4-1c0-.83-.49-1.25-1.48-1.25Z"/><path class="cls-23" d="M246.85,91.75h0v2.72h-.72V87.9h.72v.79h0a1.72,1.72,0,0,1,1.56-.9,1.64,1.64,0,0,1,1.36.61,2.51,2.51,0,0,1,.49,1.61,2.81,2.81,0,0,1-.55,1.81,1.85,1.85,0,0,1-1.51.68A1.52,1.52,0,0,1,246.85,91.75Zm0-1.82v.63a1.36,1.36,0,0,0,.36,1,1.29,1.29,0,0,0,2-.12,2.32,2.32,0,0,0,.37-1.39,1.84,1.84,0,0,0-.35-1.18,1.15,1.15,0,0,0-.94-.42,1.27,1.27,0,0,0-1,.43A1.6,1.6,0,0,0,246.84,89.93Z"/><path class="cls-23" d="M253.75,88.63a.83.83,0,0,0-.54-.15.91.91,0,0,0-.77.44,2,2,0,0,0-.31,1.18v2.3h-.72V87.9h.72v.92h0a1.6,1.6,0,0,1,.47-.74,1.08,1.08,0,0,1,.7-.26,1.19,1.19,0,0,1,.43.06Z"/><path class="cls-23" d="M254.91,86.75a.44.44,0,0,1-.33-.13.45.45,0,0,1-.14-.33.46.46,0,0,1,.14-.34.48.48,0,0,1,.66,0,.46.46,0,0,1,.14.34.45.45,0,0,1-.14.33A.44.44,0,0,1,254.91,86.75Zm.35,5.65h-.72V87.9h.72Z"/><path class="cls-23" d="M260.25,87.9l-1.79,4.5h-.71l-1.7-4.5h.79L258,91.17a2.7,2.7,0,0,1,.16.62h0a2.73,2.73,0,0,1,.14-.61l1.19-3.28Z"/><path class="cls-23" d="M264.64,90.33h-3.17a1.68,1.68,0,0,0,.4,1.16,1.4,1.4,0,0,0,1.06.41,2.18,2.18,0,0,0,1.4-.51v.68a2.59,2.59,0,0,1-1.57.43,1.92,1.92,0,0,1-1.5-.61,2.54,2.54,0,0,1-.54-1.73,2.44,2.44,0,0,1,.6-1.71,1.9,1.9,0,0,1,1.47-.66,1.7,1.7,0,0,1,1.37.57,2.4,2.4,0,0,1,.48,1.59Zm-.73-.61a1.53,1.53,0,0,0-.31-1,1,1,0,0,0-.82-.34,1.15,1.15,0,0,0-.86.36,1.62,1.62,0,0,0-.44,1Zm-.12-4.12L262.64,87h-.56l1-1.44Z"/><path class="cls-23" d="M269.35,90.33h-3.18a1.68,1.68,0,0,0,.41,1.16,1.39,1.39,0,0,0,1.06.41,2.2,2.2,0,0,0,1.4-.51v.68a2.61,2.61,0,0,1-1.57.43,1.89,1.89,0,0,1-1.5-.61,2.54,2.54,0,0,1-.54-1.73,2.44,2.44,0,0,1,.59-1.71,1.92,1.92,0,0,1,1.48-.66,1.71,1.71,0,0,1,1.37.57,2.4,2.4,0,0,1,.48,1.59Zm-.74-.61a1.47,1.47,0,0,0-.3-1,1,1,0,0,0-.82-.34,1.19,1.19,0,0,0-.87.36,1.68,1.68,0,0,0-.44,1Z"/><path class="cls-23" d="M271.1,91.39l-.7,2.17h-.52l.52-2.17Z"/><path class="cls-23" d="M275.59,91.75h0v2.72h-.72V87.9h.72v.79h0a1.72,1.72,0,0,1,1.56-.9,1.64,1.64,0,0,1,1.36.61A2.51,2.51,0,0,1,279,90a2.81,2.81,0,0,1-.55,1.81,1.85,1.85,0,0,1-1.51.68A1.52,1.52,0,0,1,275.59,91.75Zm0-1.82v.63a1.36,1.36,0,0,0,.36,1,1.29,1.29,0,0,0,1.95-.12,2.32,2.32,0,0,0,.37-1.39,1.84,1.84,0,0,0-.35-1.18,1.15,1.15,0,0,0-.94-.42,1.27,1.27,0,0,0-1,.43A1.65,1.65,0,0,0,275.58,89.93Z"/><path class="cls-23" d="M282,92.5a2.06,2.06,0,0,1-1.59-.63,2.33,2.33,0,0,1-.6-1.67,2.43,2.43,0,0,1,.62-1.77,2.2,2.2,0,0,1,1.67-.64,2.06,2.06,0,0,1,1.58.62,2.49,2.49,0,0,1,.56,1.72,2.38,2.38,0,0,1-.61,1.72A2.11,2.11,0,0,1,282,92.5Zm.05-4.1a1.36,1.36,0,0,0-1.1.47,1.93,1.93,0,0,0-.4,1.3,1.77,1.77,0,0,0,.41,1.26,1.37,1.37,0,0,0,1.09.47,1.33,1.33,0,0,0,1.08-.46,2,2,0,0,0,.37-1.29,2,2,0,0,0-.37-1.3A1.33,1.33,0,0,0,282.08,88.4Z"/><path class="cls-23" d="M287.77,88.63a.88.88,0,0,0-.55-.15.94.94,0,0,0-.77.44,2,2,0,0,0-.31,1.18v2.3h-.72V87.9h.72v.92h0a1.6,1.6,0,0,1,.47-.74,1.11,1.11,0,0,1,.71-.26,1.23,1.23,0,0,1,.43.06Z"/><path class="cls-23" d="M290.64,92.35a1.35,1.35,0,0,1-.68.14c-.78,0-1.18-.44-1.18-1.32V88.51H288V87.9h.77V86.8l.72-.24V87.9h1.14v.61H289.5v2.54a1,1,0,0,0,.16.64.61.61,0,0,0,.51.2.75.75,0,0,0,.47-.15Z"/><path class="cls-23" d="M275.22,108h-.73v-4.22q0-.51.06-1.23h0a3.2,3.2,0,0,1-.19.61L272.19,108h-.36l-2.15-4.8a4.59,4.59,0,0,1-.19-.65h0c0,.25,0,.66,0,1.24V108h-.71v-6.3h1l1.94,4.4a6.53,6.53,0,0,1,.29.75h0c.13-.34.23-.6.31-.77l2-4.38h.92Z"/><path class="cls-23" d="M280,108h-.72v-.7h0a1.52,1.52,0,0,1-1.39.81,1.45,1.45,0,0,1-1.05-.36,1.23,1.23,0,0,1-.38-.94c0-.84.49-1.33,1.48-1.47l1.35-.19c0-.76-.31-1.14-.92-1.14a2.2,2.2,0,0,0-1.47.55v-.74a2.79,2.79,0,0,1,1.53-.42c1.06,0,1.58.56,1.58,1.68Zm-.72-2.27-1.08.15a1.65,1.65,0,0,0-.76.25.69.69,0,0,0-.25.63.67.67,0,0,0,.23.53.92.92,0,0,0,.63.21,1.13,1.13,0,0,0,.88-.37,1.31,1.31,0,0,0,.35-1Z"/><path class="cls-23" d="M284.43,107.83a2.34,2.34,0,0,1-1.23.31,2,2,0,0,1-1.55-.63,2.22,2.22,0,0,1-.6-1.62,2.53,2.53,0,0,1,.64-1.79,2.23,2.23,0,0,1,1.7-.67,2.32,2.32,0,0,1,1.05.22v.74a1.8,1.8,0,0,0-1.07-.35,1.47,1.47,0,0,0-1.14.49,1.89,1.89,0,0,0-.44,1.3,1.78,1.78,0,0,0,.42,1.25,1.45,1.45,0,0,0,1.11.45,1.83,1.83,0,0,0,1.11-.39Z"/><path class="cls-23" d="M289.25,108h-.72v-2.59c0-.94-.34-1.4-1-1.4a1.14,1.14,0,0,0-.89.4,1.52,1.52,0,0,0-.36,1V108h-.72v-6.66h.72v2.91h0a1.62,1.62,0,0,1,1.47-.85c1,0,1.52.61,1.52,1.83Z"/><path class="cls-23" d="M291,102.39a.44.44,0,0,1-.46-.46.45.45,0,0,1,.13-.34.44.44,0,0,1,.33-.13.47.47,0,0,1,.34.13.46.46,0,0,1,.14.34.45.45,0,0,1-.14.33A.47.47,0,0,1,291,102.39Zm.35,5.64h-.72v-4.5h.72Z"/><path class="cls-23" d="M296.53,108h-.72v-2.56c0-1-.35-1.43-1.05-1.43a1.12,1.12,0,0,0-.89.4,1.5,1.5,0,0,0-.36,1V108h-.72v-4.5h.72v.75h0a1.62,1.62,0,0,1,1.48-.85,1.38,1.38,0,0,1,1.13.48,2.09,2.09,0,0,1,.39,1.37Z"/><path class="cls-23" d="M301.5,106h-3.17a1.64,1.64,0,0,0,.4,1.16,1.36,1.36,0,0,0,1.06.41,2.17,2.17,0,0,0,1.4-.5v.68a2.61,2.61,0,0,1-1.57.43,1.92,1.92,0,0,1-1.5-.61,2.54,2.54,0,0,1-.54-1.73,2.48,2.48,0,0,1,.59-1.71,1.92,1.92,0,0,1,1.48-.66A1.7,1.7,0,0,1,301,104a2.4,2.4,0,0,1,.48,1.59Zm-.74-.61a1.44,1.44,0,0,0-.3-1,1,1,0,0,0-.82-.34,1.19,1.19,0,0,0-.87.36,1.72,1.72,0,0,0-.44.95Z"/><path class="cls-23" d="M272.24,114.33l-1.79,4.5h-.71l-1.71-4.5h.8L270,117.6a3.23,3.23,0,0,1,.16.63h0a3.42,3.42,0,0,1,.14-.61l1.2-3.29Z"/><path class="cls-23" d="M273.38,113.19a.44.44,0,0,1-.46-.46.45.45,0,0,1,.13-.34.44.44,0,0,1,.33-.13.47.47,0,0,1,.34.13.46.46,0,0,1,.14.34.45.45,0,0,1-.14.32A.44.44,0,0,1,273.38,113.19Zm.35,5.64H273v-4.5h.72Z"/><path class="cls-23" d="M277.54,115.06a1,1,0,0,0-.55-.14.93.93,0,0,0-.77.43,2.07,2.07,0,0,0-.31,1.19v2.29h-.72v-4.5h.72v.93h0a1.6,1.6,0,0,1,.47-.74,1.07,1.07,0,0,1,.71-.27,1.16,1.16,0,0,1,.43.07Z"/><path class="cls-23" d="M280.41,118.79a1.45,1.45,0,0,1-.67.14c-.79,0-1.19-.44-1.19-1.32V115h-.77v-.62h.77v-1.09l.73-.24v1.33h1.13V115h-1.13v2.53a1.07,1.07,0,0,0,.15.65.6.6,0,0,0,.51.19.75.75,0,0,0,.47-.15Z"/><path class="cls-23" d="M285,118.83h-.72v-.71h0a1.47,1.47,0,0,1-1.39.82c-1.07,0-1.61-.64-1.61-1.92v-2.69H282v2.58c0,1,.36,1.42,1.09,1.42a1.11,1.11,0,0,0,.87-.39,1.45,1.45,0,0,0,.34-1v-2.6H285Z"/><path class="cls-23" d="M290.08,116.76H286.9a1.69,1.69,0,0,0,.41,1.16,1.36,1.36,0,0,0,1.06.41,2.19,2.19,0,0,0,1.4-.5v.68a2.61,2.61,0,0,1-1.57.43,1.9,1.9,0,0,1-1.5-.61,2.54,2.54,0,0,1-.54-1.73,2.48,2.48,0,0,1,.59-1.71,1.92,1.92,0,0,1,1.48-.66,1.7,1.7,0,0,1,1.37.57,2.4,2.4,0,0,1,.48,1.59Zm-.74-.61a1.44,1.44,0,0,0-.3-1,1,1,0,0,0-.82-.35,1.19,1.19,0,0,0-.87.37,1.72,1.72,0,0,0-.44,1Z"/><path class="cls-23" d="M291.89,118.83h-.72v-6.66h.72Z"/><path class="cls-23" d="M294.07,118.83h-.72v-6.66h.72Z"/><path class="cls-23" d="M299.15,116.76H296a1.69,1.69,0,0,0,.4,1.16,1.39,1.39,0,0,0,1.07.41,2.16,2.16,0,0,0,1.39-.5v.68a2.55,2.55,0,0,1-1.56.43,1.89,1.89,0,0,1-1.5-.61,2.5,2.5,0,0,1-.55-1.73,2.44,2.44,0,0,1,.6-1.71,1.9,1.9,0,0,1,1.48-.66,1.68,1.68,0,0,1,1.36.57,2.35,2.35,0,0,1,.49,1.59Zm-.74-.61a1.44,1.44,0,0,0-.3-1,1,1,0,0,0-.83-.35,1.17,1.17,0,0,0-.86.37,1.59,1.59,0,0,0-.44,1Z"/><path class="cls-23" d="M237.05,150.9h-.74v-6.31h.74Z"/><path class="cls-23" d="M239.45,148.51v2.39h-.74v-6.31h1.73a2.27,2.27,0,0,1,1.56.5,1.73,1.73,0,0,1,.56,1.39,1.88,1.88,0,0,1-.62,1.46,2.34,2.34,0,0,1-1.66.57Zm0-3.25v2.59h.77a1.76,1.76,0,0,0,1.17-.35,1.27,1.27,0,0,0,.4-1c0-.83-.49-1.25-1.48-1.25Z"/><path class="cls-23" d="M246.85,150.25h0V153h-.72V146.4h.72v.79h0a1.72,1.72,0,0,1,1.56-.9,1.64,1.64,0,0,1,1.36.61,2.51,2.51,0,0,1,.49,1.61,2.81,2.81,0,0,1-.55,1.81,1.82,1.82,0,0,1-1.51.68A1.52,1.52,0,0,1,246.85,150.25Zm0-1.82v.63a1.36,1.36,0,0,0,.36.95,1.29,1.29,0,0,0,2-.12,2.32,2.32,0,0,0,.37-1.39,1.84,1.84,0,0,0-.35-1.18,1.15,1.15,0,0,0-.94-.42,1.27,1.27,0,0,0-1,.43A1.6,1.6,0,0,0,246.84,148.43Z"/><path class="cls-23" d="M253.75,147.13a.83.83,0,0,0-.54-.15.91.91,0,0,0-.77.44,2,2,0,0,0-.31,1.18v2.3h-.72v-4.5h.72v.92h0a1.6,1.6,0,0,1,.47-.74,1.08,1.08,0,0,1,.7-.26,1.19,1.19,0,0,1,.43.06Z"/><path class="cls-23" d="M254.91,145.25a.44.44,0,0,1-.33-.13.45.45,0,0,1-.14-.33.46.46,0,0,1,.14-.34.48.48,0,0,1,.66,0,.46.46,0,0,1,.14.34.45.45,0,0,1-.14.33A.44.44,0,0,1,254.91,145.25Zm.35,5.65h-.72v-4.5h.72Z"/><path class="cls-23" d="M260.25,146.4l-1.79,4.5h-.71l-1.7-4.5h.79l1.14,3.27a2.7,2.7,0,0,1,.16.62h0a2.86,2.86,0,0,1,.14-.61l1.19-3.28Z"/><path class="cls-23" d="M264.64,148.83h-3.17a1.68,1.68,0,0,0,.4,1.16,1.4,1.4,0,0,0,1.06.41,2.18,2.18,0,0,0,1.4-.51v.68a2.59,2.59,0,0,1-1.57.43,1.92,1.92,0,0,1-1.5-.61,2.53,2.53,0,0,1-.54-1.73,2.44,2.44,0,0,1,.6-1.71,1.9,1.9,0,0,1,1.47-.66,1.7,1.7,0,0,1,1.37.57,2.4,2.4,0,0,1,.48,1.59Zm-.73-.61a1.53,1.53,0,0,0-.31-1,1,1,0,0,0-.82-.34,1.15,1.15,0,0,0-.86.36,1.62,1.62,0,0,0-.44,1Zm-.12-4.12-1.15,1.44h-.56l1-1.44Z"/><path class="cls-23" d="M269.35,148.83h-3.18a1.68,1.68,0,0,0,.41,1.16,1.39,1.39,0,0,0,1.06.41,2.2,2.2,0,0,0,1.4-.51v.68a2.61,2.61,0,0,1-1.57.43,1.89,1.89,0,0,1-1.5-.61,2.53,2.53,0,0,1-.54-1.73A2.44,2.44,0,0,1,266,147a1.92,1.92,0,0,1,1.48-.66,1.71,1.71,0,0,1,1.37.57,2.4,2.4,0,0,1,.48,1.59Zm-.74-.61a1.47,1.47,0,0,0-.3-1,1,1,0,0,0-.82-.34,1.19,1.19,0,0,0-.87.36,1.68,1.68,0,0,0-.44,1Z"/><path class="cls-23" d="M271.1,149.89l-.7,2.17h-.52l.52-2.17Z"/><path class="cls-23" d="M275.59,150.25h0V153h-.72V146.4h.72v.79h0a1.72,1.72,0,0,1,1.56-.9,1.64,1.64,0,0,1,1.36.61,2.51,2.51,0,0,1,.49,1.61,2.81,2.81,0,0,1-.55,1.81,1.82,1.82,0,0,1-1.51.68A1.52,1.52,0,0,1,275.59,150.25Zm0-1.82v.63a1.36,1.36,0,0,0,.36.95,1.29,1.29,0,0,0,1.95-.12,2.32,2.32,0,0,0,.37-1.39,1.84,1.84,0,0,0-.35-1.18,1.15,1.15,0,0,0-.94-.42,1.27,1.27,0,0,0-1,.43A1.65,1.65,0,0,0,275.58,148.43Z"/><path class="cls-23" d="M282,151a2.06,2.06,0,0,1-1.59-.63,2.33,2.33,0,0,1-.6-1.67,2.43,2.43,0,0,1,.62-1.77,2.2,2.2,0,0,1,1.67-.64,2.06,2.06,0,0,1,1.58.62,2.49,2.49,0,0,1,.56,1.72,2.38,2.38,0,0,1-.61,1.72A2.11,2.11,0,0,1,282,151Zm.05-4.1a1.36,1.36,0,0,0-1.1.47,1.93,1.93,0,0,0-.4,1.3,1.77,1.77,0,0,0,.41,1.26,1.37,1.37,0,0,0,1.09.47,1.3,1.3,0,0,0,1.08-.46,2,2,0,0,0,.37-1.28,2,2,0,0,0-.37-1.31A1.33,1.33,0,0,0,282.08,146.9Z"/><path class="cls-23" d="M287.77,147.13a.88.88,0,0,0-.55-.15.94.94,0,0,0-.77.44,2,2,0,0,0-.31,1.18v2.3h-.72v-4.5h.72v.92h0a1.6,1.6,0,0,1,.47-.74,1.11,1.11,0,0,1,.71-.26,1.23,1.23,0,0,1,.43.06Z"/><path class="cls-23" d="M290.64,150.85a1.35,1.35,0,0,1-.68.14c-.78,0-1.18-.44-1.18-1.32V147H288v-.61h.77v-1.1l.72-.24v1.34h1.14V147H289.5v2.54a1,1,0,0,0,.16.64.61.61,0,0,0,.51.2.75.75,0,0,0,.47-.15Z"/><path class="cls-23" d="M275.22,166.54h-.73v-4.23q0-.51.06-1.23h0a3.2,3.2,0,0,1-.19.61l-2.15,4.85h-.36l-2.15-4.81a4.59,4.59,0,0,1-.19-.65h0c0,.25,0,.67,0,1.24v4.22h-.71v-6.31h1l1.94,4.4a6.53,6.53,0,0,1,.29.75h0c.13-.34.23-.6.31-.77l2-4.38h.92Z"/><path class="cls-23" d="M280,166.54h-.72v-.71h0a1.52,1.52,0,0,1-1.39.81,1.5,1.5,0,0,1-1.05-.35,1.27,1.27,0,0,1-.38-.95c0-.84.49-1.33,1.48-1.47l1.35-.19c0-.76-.31-1.14-.92-1.14a2.2,2.2,0,0,0-1.47.55v-.74a2.79,2.79,0,0,1,1.53-.42c1.06,0,1.58.56,1.58,1.68Zm-.72-2.28-1.08.15a1.78,1.78,0,0,0-.76.25.83.83,0,0,0,0,1.17,1,1,0,0,0,.63.2,1.13,1.13,0,0,0,.88-.37,1.31,1.31,0,0,0,.35-.95Z"/><path class="cls-23" d="M284.43,166.33a2.34,2.34,0,0,1-1.23.31,2,2,0,0,1-1.55-.63,2.22,2.22,0,0,1-.6-1.62,2.53,2.53,0,0,1,.64-1.79,2.23,2.23,0,0,1,1.7-.67,2.32,2.32,0,0,1,1.05.22v.74a1.8,1.8,0,0,0-1.07-.35,1.47,1.47,0,0,0-1.14.49,1.89,1.89,0,0,0-.44,1.3,1.78,1.78,0,0,0,.42,1.25,1.45,1.45,0,0,0,1.11.45,1.83,1.83,0,0,0,1.11-.39Z"/><path class="cls-23" d="M289.25,166.54h-.72v-2.6c0-.94-.34-1.4-1-1.4a1.14,1.14,0,0,0-.89.4,1.52,1.52,0,0,0-.36,1.05v2.55h-.72v-6.67h.72v2.91h0a1.62,1.62,0,0,1,1.47-.85c1,0,1.52.61,1.52,1.83Z"/><path class="cls-23" d="M291,160.89a.44.44,0,0,1-.46-.46.45.45,0,0,1,.13-.34A.44.44,0,0,1,291,160a.47.47,0,0,1,.34.13.46.46,0,0,1,.14.34.45.45,0,0,1-.14.33A.47.47,0,0,1,291,160.89Zm.35,5.65h-.72V162h.72Z"/><path class="cls-23" d="M296.53,166.54h-.72V164c0-1-.35-1.43-1.05-1.43a1.12,1.12,0,0,0-.89.4,1.5,1.5,0,0,0-.36,1v2.57h-.72V162h.72v.74h0a1.62,1.62,0,0,1,1.48-.85,1.38,1.38,0,0,1,1.13.48,2.09,2.09,0,0,1,.39,1.37Z"/><path class="cls-23" d="M301.5,164.46h-3.17a1.69,1.69,0,0,0,.4,1.17,1.39,1.39,0,0,0,1.06.4,2.17,2.17,0,0,0,1.4-.5v.68a2.61,2.61,0,0,1-1.57.43,1.92,1.92,0,0,1-1.5-.61,2.54,2.54,0,0,1-.54-1.73,2.48,2.48,0,0,1,.59-1.71,1.92,1.92,0,0,1,1.48-.66,1.7,1.7,0,0,1,1.37.57,2.4,2.4,0,0,1,.48,1.59Zm-.74-.61a1.46,1.46,0,0,0-.3-1,1,1,0,0,0-.82-.34,1.19,1.19,0,0,0-.87.36,1.72,1.72,0,0,0-.44.95Z"/><path class="cls-23" d="M272.24,172.83l-1.79,4.5h-.71l-1.71-4.5h.8L270,176.1a3.23,3.23,0,0,1,.16.63h0a3.42,3.42,0,0,1,.14-.61l1.2-3.29Z"/><path class="cls-23" d="M273.38,171.69a.44.44,0,0,1-.46-.46.45.45,0,0,1,.13-.34.44.44,0,0,1,.33-.13.47.47,0,0,1,.34.13.46.46,0,0,1,.14.34.45.45,0,0,1-.14.33A.47.47,0,0,1,273.38,171.69Zm.35,5.64H273v-4.5h.72Z"/><path class="cls-23" d="M277.54,173.56a1,1,0,0,0-.55-.14.93.93,0,0,0-.77.43,2.07,2.07,0,0,0-.31,1.19v2.29h-.72v-4.5h.72v.93h0a1.6,1.6,0,0,1,.47-.74,1.06,1.06,0,0,1,.71-.26,1.19,1.19,0,0,1,.43.06Z"/><path class="cls-23" d="M280.41,177.29a1.45,1.45,0,0,1-.67.14c-.79,0-1.19-.44-1.19-1.32v-2.66h-.77v-.62h.77v-1.09l.73-.24v1.33h1.13v.62h-1.13V176a1.06,1.06,0,0,0,.15.64.61.61,0,0,0,.51.2.75.75,0,0,0,.47-.15Z"/><path class="cls-23" d="M285,177.33h-.72v-.71h0a1.47,1.47,0,0,1-1.39.82c-1.07,0-1.61-.64-1.61-1.92v-2.69H282v2.58c0,1,.36,1.42,1.09,1.42a1.14,1.14,0,0,0,.87-.38,1.48,1.48,0,0,0,.34-1v-2.6H285Z"/><path class="cls-23" d="M290.08,175.26H286.9a1.69,1.69,0,0,0,.41,1.16,1.36,1.36,0,0,0,1.06.41,2.19,2.19,0,0,0,1.4-.5V177a2.61,2.61,0,0,1-1.57.43,1.9,1.9,0,0,1-1.5-.61,2.54,2.54,0,0,1-.54-1.73,2.48,2.48,0,0,1,.59-1.71,1.92,1.92,0,0,1,1.48-.66,1.7,1.7,0,0,1,1.37.57,2.4,2.4,0,0,1,.48,1.59Zm-.74-.61a1.46,1.46,0,0,0-.3-1,1,1,0,0,0-.82-.34,1.19,1.19,0,0,0-.87.36,1.72,1.72,0,0,0-.44,1Z"/><path class="cls-23" d="M291.89,177.33h-.72v-6.66h.72Z"/><path class="cls-23" d="M294.07,177.33h-.72v-6.66h.72Z"/><path class="cls-23" d="M299.15,175.26H296a1.69,1.69,0,0,0,.4,1.16,1.39,1.39,0,0,0,1.07.41,2.16,2.16,0,0,0,1.39-.5V177a2.55,2.55,0,0,1-1.56.43,1.89,1.89,0,0,1-1.5-.61,2.5,2.5,0,0,1-.55-1.73,2.44,2.44,0,0,1,.6-1.71,1.9,1.9,0,0,1,1.48-.66,1.68,1.68,0,0,1,1.36.57,2.35,2.35,0,0,1,.49,1.59Zm-.74-.61a1.46,1.46,0,0,0-.3-1,1,1,0,0,0-.83-.34,1.16,1.16,0,0,0-.86.36,1.59,1.59,0,0,0-.44,1Z"/></svg>