<?xml version="1.0" encoding="utf-8"?>
<!-- Generator: Adobe Illustrator 23.0.1, SVG Export Plug-In . SVG Version: 6.00 Build 0)  -->
<svg version="1.1" xmlns="http://www.w3.org/2000/svg" xmlns:xlink="http://www.w3.org/1999/xlink" x="0px" y="0px"
	 viewBox="0 0 475.7 151.4" style="enable-background:new 0 0 475.7 151.4;" xml:space="preserve">
<style type="text/css">
	.st0{fill:#505050;}
	.st1{fill:#FFFFFF;}
	.st2{display:none;}
	.st3{display:inline;}
	.st4{fill:#EBEBEB;}
	.st5{fill:#0072C6;}
	.st6{fill:#D2D2D2;}
	.st7{fill:#1A1A1F;}
	.st8{fill:#009EE1;}
	.st9{fill:#0078DB;}
	.st10{fill:none;stroke:#000000;stroke-miterlimit:10;}
	.st11{fill:#EBEBEB;stroke:#000000;stroke-width:0.75;stroke-miterlimit:10;}
	.st12{fill:#1E1E1E;}
	.st13{fill:none;}
	.st14{stroke:#000000;stroke-width:5.000000e-02;stroke-miterlimit:10;}
	.st15{fill:#1E1E1E;stroke:#1E1E1E;stroke-width:6.000000e-02;stroke-miterlimit:10;}
	.st16{fill:#FFFFFF;stroke:#FFFFFF;stroke-width:5.000000e-02;stroke-miterlimit:10;}
	.st17{fill:#0072C6;stroke:#0072C6;stroke-width:5.000000e-02;stroke-miterlimit:10;}
</style>
<symbol  id="New_Symbol_41" viewBox="-10 -10 20 20">
	<circle class="st0" cx="0" cy="0" r="10"/>
	<path class="st1" d="M1.2-4.2v8.6h-1.4v-6.9C-0.4-2.3-0.7-2.1-1-2c-0.3,0.1-0.7,0.2-1,0.3v-1.2l0.6-0.2l0.6-0.3l0.6-0.3
		C0.1-3.9,0.4-4,0.6-4.2H1.2z"/>
</symbol>
<symbol  id="New_Symbol_42" viewBox="-10 -10 20 20">
	<circle class="st0" cx="0" cy="0" r="10"/>
	<path class="st1" d="M2.5,4.4h-5.3V3.8c0-0.3,0-0.5,0.1-0.8c0.1-0.2,0.2-0.4,0.3-0.7c0.1-0.2,0.3-0.4,0.4-0.6
		c0.2-0.2,0.4-0.4,0.5-0.5l0.6-0.5c0.2-0.1,0.4-0.3,0.6-0.5S0.1,0,0.3-0.2c0.1-0.1,0.3-0.3,0.4-0.4C0.8-0.8,0.9-1,0.9-1.1
		C1-1.3,1-1.5,1-1.7c0-0.2,0-0.4-0.1-0.6C0.8-2.4,0.7-2.6,0.6-2.7C0.5-2.8,0.3-2.9,0.2-2.9C0-3-0.2-3-0.4-3c-0.4,0-0.7,0.1-1.1,0.2
		c-0.4,0.2-0.7,0.4-1,0.7v-1.3c0.2-0.1,0.3-0.2,0.5-0.3c0.2-0.1,0.4-0.2,0.6-0.2C-1.2-4-1-4-0.8-4.1c0.2,0,0.4,0,0.7,0
		c0.3,0,0.7,0,1,0.1c0.3,0.1,0.6,0.2,0.8,0.4C1.9-3.3,2.1-3,2.2-2.8c0.1,0.3,0.2,0.7,0.2,1c0,0.3,0,0.6-0.1,0.9
		C2.2-0.6,2-0.3,1.9-0.1C1.7,0.2,1.5,0.4,1.3,0.6C1.1,0.8,0.9,1,0.6,1.2l-0.7,0.5c-0.2,0.2-0.4,0.4-0.6,0.5C-0.8,2.4-1,2.6-1.1,2.8
		c-0.1,0.1-0.2,0.3-0.2,0.5l0,0h3.8V4.4z"/>
</symbol>
<symbol  id="New_Symbol_43" viewBox="-10 -10 20 20">
	<circle class="st0" cx="0" cy="0" r="10"/>
	<path class="st1" d="M-2.6,4.1V2.8c0.5,0.4,1.2,0.7,1.8,0.6c0.5,0,0.9-0.1,1.3-0.4c0.3-0.2,0.5-0.6,0.5-1c0-0.9-0.7-1.4-2.2-1.4
		h-0.7v-1.1h0.6c1.3,0,1.9-0.4,1.9-1.4S0.3-3-0.7-3c-0.6,0-1.1,0.2-1.6,0.6v-1.2C-1.7-4-1-4.1-0.3-4.1c0.6,0,1.3,0.2,1.8,0.6
		c0.4,0.3,0.7,0.9,0.7,1.4c0.1,1-0.7,1.9-1.7,2.1l0,0c0.5,0,1,0.3,1.4,0.6C2.3,1,2.5,1.5,2.5,2.1c0,0.7-0.3,1.4-0.9,1.8
		C1,4.4,0.2,4.6-0.6,4.6C-1.3,4.6-2,4.5-2.6,4.1z"/>
</symbol>
<symbol  id="New_Symbol_44" viewBox="-10 -10 20 20">
	<circle class="st0" cx="0" cy="0" r="10"/>
	<path class="st1" d="M2-4v5.4h1.3v1.1H2v1.9H0.6V2.6h-3.8V1.4c0.3-0.4,0.7-0.8,1-1.3c0.4-0.4,0.7-0.9,1-1.4s0.6-0.9,0.9-1.4
		S0.4-3.5,0.6-4L2-4z M0.7,1.4v-3.5c-0.4,0.7-0.8,1.4-1.3,2C-1,0.5-1.4,1-1.8,1.4L0.7,1.4z"/>
</symbol>
<g id="src" class="st2">
	<g id="Shapes" class="st3">
		<rect class="st1" width="475.7" height="151.4"/>
		<rect y="0.7" class="st4" width="105" height="150"/>
		<rect x="371" y="0.7" class="st5" width="104.7" height="90"/>
		<rect x="371" y="95.7" class="st6" width="104.7" height="55"/>
		<g>
			<g>
				<path class="st7" d="M18.5,29.2c0-0.8,0.7-1.5,1.5-1.5c0,0,0,0,0,0H83c0.8,0,1.5,0.7,1.5,1.5v37.2c0,0.8-0.7,1.5-1.5,1.5H20.1
					c-0.8,0-1.5-0.7-1.5-1.5L18.5,29.2z M15.1,27.4v40.7c0,1.8,1.5,3.3,3.3,3.3c0,0,0,0,0,0h66.3c1.8,0,3.3-1.4,3.3-3.3c0,0,0,0,0,0
					V27.4c0-1.8-1.5-3.3-3.3-3.3c0,0,0,0,0,0H18.4C16.5,24.1,15.1,25.6,15.1,27.4C15.1,27.4,15.1,27.4,15.1,27.4z"/>
				<path class="st7" d="M12.4,74.9h78.3c0.5,0,0.9,0.4,0.9,0.9c0,0,0,0,0,0v2.6c0,0.5-0.4,0.9-0.9,0.9c0,0,0,0,0,0H12.4
					c-0.5,0-0.9-0.4-0.9-0.9c0,0,0,0,0,0v-2.6C11.5,75.3,11.9,74.9,12.4,74.9C12.4,74.9,12.4,74.9,12.4,74.9z"/>
				<path class="st1" d="M42.6,76.4h17.8c0.1,0,0.3,0.1,0.3,0.3v0.7c0,0.1-0.1,0.3-0.3,0.3H42.6c-0.1,0-0.3-0.1-0.3-0.3v-0.7
					C42.3,76.6,42.5,76.4,42.6,76.4z"/>
			</g>
			<g>
				<path class="st8" d="M58.4,51.5l0.7-1.6l-0.2-0.2l-1.5-1.3v-1.3l1.7-1.5l-0.7-1.7h-0.3l-2,0.1l-0.9-0.9l0.1-2.3l-1.6-0.7
					l-0.2,0.2l-1.3,1.5h-1.3l-1.5-1.7l-1.7,0.7v0.3l0.1,2l-1,0.9l-2.3-0.1L44,45.5l0.2,0.2l1.5,1.3v1.3L44,49.9l0.7,1.7h0.3l2-0.1
					l0.9,1l-0.1,2.3l1.6,0.7l0.2-0.2l1.3-1.5h1.3l1.5,1.7l1.7-0.7v-0.3l-0.1-2l1-0.9L58.4,51.5z M50.1,51.1
					c-1.9-0.8-2.7-2.9-1.9-4.8s2.9-2.7,4.8-1.9c1.9,0.8,2.7,2.9,1.9,4.8l0,0C54.1,51,52,51.9,50.1,51.1L50.1,51.1"/>
				<path class="st8" d="M51.5,65c-9.6,0-17.3-7.8-17.3-17.3s7.8-17.3,17.3-17.3s17.3,7.8,17.3,17.3c0,0,0,0,0,0
					C68.8,57.3,61.1,65,51.5,65z M51.5,34.5c-7.3,0-13.1,5.9-13.1,13.1c0,7.3,5.9,13.1,13.1,13.1c7.2,0,13.1-5.9,13.1-13.1
					C64.7,40.5,58.8,34.6,51.5,34.5C51.5,34.6,51.5,34.6,51.5,34.5L51.5,34.5z"/>
				<path class="st8" d="M51.5,65c-9.6,0-17.3-7.8-17.3-17.3s7.8-17.3,17.3-17.3s17.3,7.8,17.3,17.3c0,0,0,0,0,0
					C68.8,57.3,61.1,65,51.5,65z M51.5,34.5c-7.3,0-13.1,5.9-13.1,13.1c0,7.3,5.9,13.1,13.1,13.1c7.2,0,13.1-5.9,13.1-13.1
					C64.7,40.5,58.8,34.6,51.5,34.5C51.5,34.6,51.5,34.6,51.5,34.5L51.5,34.5z"/>
				<path class="st8" d="M51.5,65c-9.6,0-17.3-7.8-17.3-17.3s7.8-17.3,17.3-17.3s17.3,7.8,17.3,17.3c0,0,0,0,0,0
					C68.8,57.3,61.1,65,51.5,65z M51.5,34.5c-7.3,0-13.1,5.9-13.1,13.1c0,7.3,5.9,13.1,13.1,13.1c7.2,0,13.1-5.9,13.1-13.1
					C64.7,40.5,58.8,34.6,51.5,34.5C51.5,34.6,51.5,34.6,51.5,34.5L51.5,34.5z"/>
				<path class="st9" d="M51.5,65.9c-10,0-18.1-8.1-18.1-18.2s8.1-18.1,18.2-18.1c10,0,18.1,8.1,18.1,18.1
					C69.7,57.8,61.5,65.9,51.5,65.9z M51.5,30.3c-9.6,0-17.4,7.8-17.4,17.5s7.8,17.4,17.5,17.4c9.6,0,17.4-7.8,17.4-17.5
					C69,38.1,61.2,30.3,51.5,30.3C51.5,30.3,51.5,30.3,51.5,30.3z"/>
				<path class="st9" d="M51.5,65.9c-10,0-18.1-8.1-18.1-18.2s8.1-18.1,18.2-18.1c10,0,18.1,8.1,18.1,18.1
					C69.7,57.8,61.5,65.9,51.5,65.9z M51.5,30.3c-9.6,0-17.4,7.8-17.4,17.5s7.8,17.4,17.5,17.4c9.6,0,17.4-7.8,17.4-17.5
					C69,38.1,61.2,30.3,51.5,30.3C51.5,30.3,51.5,30.3,51.5,30.3z"/>
				<path class="st9" d="M51.5,66.2C41.3,66.2,33,58,33,47.7c0-10.2,8.3-18.5,18.5-18.5S70,37.5,70,47.7c0,0,0,0,0,0
					C70,57.9,61.7,66.2,51.5,66.2z M51.5,30.6c-9.4,0-17.1,7.7-17.1,17.1s7.7,17.1,17.1,17.1s17.1-7.7,17.1-17.1S61,30.6,51.5,30.6
					L51.5,30.6z"/>
			</g>
		</g>
		<g>
			<line class="st10" x1="104.9" y1="14.6" x2="365.5" y2="14.6"/>
			<polygon points="364.4,18.3 370.9,14.6 364.4,10.8 			"/>
		</g>
		<g>
			<line class="st10" x1="110.3" y1="44.5" x2="370.9" y2="44.5"/>
			<polygon points="111.4,48.2 104.9,44.5 111.4,40.7 			"/>
		</g>
		<g>
			<line class="st10" x1="104.9" y1="103.9" x2="365.5" y2="103.9"/>
			<polygon points="364.4,107.6 370.9,103.9 364.4,100.1 			"/>
		</g>
		<g>
			<line class="st10" x1="110.3" y1="140" x2="370.9" y2="140"/>
			<polygon points="111.4,143.8 105,140 111.4,136.3 			"/>
		</g>
		
			<use xlink:href="#New_Symbol_44"  width="20" height="20" x="-10" y="-10" transform="matrix(1 0 0 1 164.14 139.57)" style="overflow:visible;"/>
		
			<use xlink:href="#New_Symbol_43"  width="20" height="20" x="-10" y="-10" transform="matrix(1 0 0 1 164.14 103.88)" style="overflow:visible;"/>
		
			<use xlink:href="#New_Symbol_42"  width="20" height="20" x="-10" y="-10" transform="matrix(1 0 0 1 164.14 44.45)" style="overflow:visible;"/>
		
			<use xlink:href="#New_Symbol_41"  width="20" height="20" x="-10" y="-10" transform="matrix(1 0 0 1 164.14 14.57)" style="overflow:visible;"/>
		<polygon class="st11" points="187.1,26.6 179.5,32 182.4,40.8 191.8,40.8 194.6,32 		"/>
	</g>
	<g id="Text" class="st3">
		<g>
			<path class="st12" d="M186.7,9.6h-1.1l-0.9-2.4h-3.6l-0.8,2.4h-1.1l3.2-8.4h1L186.7,9.6z M184.4,6.3l-1.3-3.6
				c-0.1-0.2-0.1-0.4-0.1-0.6l0,0c0,0.2-0.1,0.4-0.1,0.6l-1.3,3.6H184.4z"/>
			<path class="st12" d="M191.8,9.3c-0.5,0.3-1.1,0.4-1.6,0.4c-0.8,0-1.5-0.3-2.1-0.8c-0.5-0.6-0.8-1.4-0.8-2.2
				c0-0.9,0.3-1.7,0.9-2.4c0.6-0.6,1.4-0.9,2.3-0.9c0.5,0,1,0.1,1.4,0.3v1c-0.4-0.3-0.9-0.5-1.4-0.5c-0.6,0-1.1,0.2-1.5,0.7
				c-0.4,0.5-0.6,1.1-0.6,1.7c0,0.6,0.2,1.2,0.6,1.7c0.4,0.4,0.9,0.6,1.5,0.6c0.5,0,1.1-0.2,1.5-0.5V9.3z"/>
			<path class="st12" d="M198.2,12.3h-1V8.5l0,0c-0.4,0.8-1.2,1.2-2.1,1.2c-0.7,0-1.4-0.3-1.8-0.8c-0.5-0.6-0.7-1.4-0.7-2.2
				c0-0.9,0.2-1.7,0.8-2.4c0.5-0.6,1.2-0.9,2-0.9c0.7,0,1.4,0.3,1.8,1l0,0V3.6h1L198.2,12.3z M197.2,6.9V6c0-0.5-0.2-0.9-0.5-1.2
				c-0.3-0.3-0.8-0.5-1.2-0.5c-0.5,0-1,0.2-1.4,0.6c-0.4,0.5-0.5,1.2-0.5,1.8c0,0.6,0.1,1.2,0.5,1.6c0.3,0.4,0.8,0.6,1.3,0.6
				c0.5,0,1-0.2,1.3-0.6C197.1,7.9,197.3,7.4,197.2,6.9L197.2,6.9z"/>
			<path class="st12" d="M204.9,9.6h-1v-1l0,0c-0.4,0.7-1.1,1.1-1.9,1.1c-1.4,0-2.1-0.9-2.1-2.6V3.6h1V7c0,1.3,0.5,1.9,1.4,1.9
				c0.4,0,0.9-0.2,1.2-0.5C203.9,8,204,7.5,204,7V3.6h1L204.9,9.6z"/>
			<path class="st12" d="M207.3,2c-0.2,0-0.3-0.1-0.4-0.2c-0.1-0.1-0.2-0.3-0.2-0.5c0-0.2,0.1-0.3,0.2-0.4c0.1-0.1,0.3-0.2,0.4-0.2
				c0.2,0,0.3,0.1,0.4,0.2c0.1,0.1,0.2,0.3,0.2,0.4c0,0.2-0.1,0.3-0.2,0.4C207.6,2,207.4,2,207.3,2z M207.7,9.6h-1v-6h1V9.6z"/>
			<path class="st12" d="M212.7,4.5c-0.2-0.1-0.5-0.2-0.7-0.2c-0.4,0-0.8,0.2-1,0.6c-0.3,0.5-0.5,1-0.4,1.6v3.1h-1v-6h1v1.2l0,0
				c0.1-0.4,0.3-0.7,0.6-1c0.3-0.2,0.6-0.4,1-0.4c0.2,0,0.4,0,0.6,0.1L212.7,4.5z"/>
			<path class="st12" d="M218.6,6.8h-4.2c0,0.6,0.2,1.1,0.5,1.5c0.4,0.4,0.9,0.6,1.4,0.5c0.7,0,1.3-0.2,1.9-0.7v0.9
				c-0.6,0.4-1.4,0.6-2.1,0.6c-0.8,0-1.5-0.3-2-0.8c-0.5-0.7-0.8-1.5-0.7-2.3c0-0.8,0.2-1.6,0.8-2.3c0.5-0.6,1.2-0.9,2-0.9
				c0.7,0,1.4,0.2,1.8,0.8c0.5,0.6,0.7,1.4,0.6,2.1L218.6,6.8z M217.6,6c0-0.5-0.1-0.9-0.4-1.3c-0.3-0.3-0.7-0.5-1.1-0.5
				c-0.4,0-0.9,0.2-1.2,0.5c-0.3,0.4-0.5,0.8-0.6,1.3L217.6,6z"/>
			<path class="st12" d="M226.1,9.5c-0.3,0.1-0.6,0.2-0.9,0.2c-1.1,0-1.6-0.6-1.6-1.8V4.4h-1V3.6h1V2.1l1-0.3v1.8h1.5v0.8h-1.5v3.4
				c0,0.3,0,0.6,0.2,0.9c0.2,0.2,0.4,0.3,0.7,0.3c0.2,0,0.4-0.1,0.6-0.2L226.1,9.5z"/>
			<path class="st12" d="M229.7,9.7c-0.8,0-1.6-0.3-2.1-0.8c-0.5-0.6-0.8-1.4-0.8-2.2c-0.1-0.9,0.2-1.7,0.8-2.4
				c0.6-0.6,1.4-0.9,2.2-0.8c0.8,0,1.6,0.3,2.1,0.8c0.5,0.6,0.8,1.5,0.8,2.3c0,0.8-0.3,1.7-0.8,2.3C231.3,9.4,230.6,9.7,229.7,9.7z
				 M229.8,4.2c-0.6,0-1.1,0.2-1.5,0.6c-0.4,0.5-0.6,1.1-0.5,1.7c0,0.6,0.2,1.2,0.5,1.7c0.4,0.4,0.9,0.6,1.5,0.6
				c0.5,0,1.1-0.2,1.4-0.6c0.4-0.5,0.5-1.1,0.5-1.7c0-0.6-0.1-1.2-0.5-1.7C230.9,4.4,230.4,4.2,229.8,4.2L229.8,4.2z"/>
			<path class="st12" d="M239.2,9.6h-1.3l-2.7-2.9l0,0v2.9h-1V0.7h1v5.6l0,0l2.5-2.8h1.3l-2.8,2.9L239.2,9.6z"/>
			<path class="st12" d="M244.7,6.8h-4.2c0,0.6,0.2,1.1,0.5,1.5c0.4,0.4,0.9,0.6,1.4,0.5c0.7,0,1.3-0.2,1.9-0.7v0.9
				c-0.6,0.4-1.4,0.6-2.1,0.6c-0.8,0-1.5-0.3-2-0.8c-0.5-0.7-0.8-1.5-0.7-2.3c0-0.8,0.2-1.6,0.8-2.3c0.5-0.6,1.2-0.9,2-0.9
				c0.7,0,1.4,0.2,1.8,0.8c0.5,0.6,0.7,1.4,0.6,2.1L244.7,6.8z M243.7,6c0-0.5-0.1-0.9-0.4-1.3c-0.3-0.3-0.7-0.5-1.1-0.5
				c-0.4,0-0.9,0.2-1.2,0.5c-0.3,0.4-0.5,0.8-0.6,1.3L243.7,6z"/>
			<path class="st12" d="M251.1,9.6h-1V6.2c0-1.3-0.5-1.9-1.4-1.9c-0.5,0-0.9,0.2-1.2,0.5c-0.3,0.4-0.5,0.9-0.5,1.4v3.4h-1v-6h1v1
				l0,0c0.4-0.7,1.2-1.2,2-1.1c0.6,0,1.1,0.2,1.5,0.6c0.4,0.5,0.6,1.2,0.5,1.8L251.1,9.6z"/>
		</g>
		<g>
			<path class="st12" d="M205.6,38.3h-1.1l-0.9-2.4h-3.6l-0.8,2.4h-1.1l3.2-8.4h1L205.6,38.3z M203.3,35.1l-1.3-3.6
				c-0.1-0.2-0.1-0.4-0.1-0.6l0,0c0,0.2-0.1,0.4-0.1,0.6l-1.3,3.6H203.3z"/>
			<path class="st12" d="M210.7,38c-0.5,0.3-1.1,0.4-1.6,0.4c-0.8,0-1.5-0.3-2.1-0.8c-0.5-0.6-0.8-1.4-0.8-2.2
				c0-0.9,0.3-1.7,0.9-2.4c0.6-0.6,1.4-0.9,2.3-0.9c0.5,0,1,0.1,1.4,0.3v1c-0.4-0.3-0.9-0.5-1.4-0.5c-0.6,0-1.1,0.2-1.5,0.7
				c-0.4,0.5-0.6,1.1-0.6,1.7c0,0.6,0.2,1.2,0.6,1.7c0.4,0.4,0.9,0.6,1.5,0.6c0.5,0,1.1-0.2,1.5-0.5L210.7,38z"/>
			<path class="st12" d="M216.1,38c-0.5,0.3-1.1,0.4-1.6,0.4c-0.8,0-1.5-0.3-2.1-0.8c-0.5-0.6-0.8-1.4-0.8-2.2
				c0-0.9,0.3-1.7,0.8-2.4c0.6-0.6,1.4-0.9,2.3-0.9c0.5,0,1,0.1,1.4,0.3v1c-0.4-0.3-0.9-0.5-1.4-0.5c-0.6,0-1.1,0.2-1.5,0.7
				c-0.4,0.5-0.6,1.1-0.6,1.7c0,0.6,0.2,1.2,0.6,1.7c0.4,0.4,0.9,0.6,1.5,0.6c0.5,0,1.1-0.2,1.5-0.5L216.1,38z"/>
			<path class="st12" d="M222.3,35.5H218c0,0.6,0.2,1.1,0.5,1.5c0.4,0.4,0.9,0.6,1.4,0.5c0.7,0,1.3-0.2,1.9-0.7v0.9
				c-0.6,0.4-1.3,0.6-2.1,0.6c-0.8,0-1.5-0.3-2-0.8c-0.5-0.7-0.8-1.5-0.7-2.3c0-0.8,0.2-1.6,0.8-2.3c0.5-0.6,1.2-0.9,2-0.9
				c0.7,0,1.4,0.2,1.8,0.8c0.5,0.6,0.7,1.4,0.6,2.1L222.3,35.5z M221.3,34.7c0-0.5-0.1-0.9-0.4-1.3c-0.3-0.3-0.7-0.5-1.1-0.5
				c-0.4,0-0.9,0.2-1.2,0.5c-0.3,0.3-0.5,0.8-0.6,1.3H221.3z"/>
			<path class="st12" d="M223.3,38.1v-1c0.5,0.4,1.1,0.6,1.7,0.6c0.9,0,1.3-0.3,1.3-0.8c0-0.1,0-0.3-0.1-0.4
				c-0.1-0.1-0.2-0.2-0.3-0.3c-0.1-0.1-0.3-0.2-0.4-0.2l-0.5-0.2c-0.3-0.1-0.5-0.2-0.7-0.3c-0.2-0.1-0.4-0.2-0.5-0.4
				c-0.1-0.1-0.2-0.3-0.3-0.5c-0.1-0.2-0.1-0.4-0.1-0.6c0-0.3,0.1-0.5,0.2-0.8c0.1-0.2,0.3-0.4,0.5-0.5c0.2-0.2,0.5-0.3,0.7-0.3
				c0.3-0.1,0.6-0.1,0.9-0.1c0.5,0,1,0.1,1.4,0.3v1c-0.5-0.3-1-0.5-1.5-0.5c-0.2,0-0.3,0-0.5,0c-0.1,0-0.3,0.1-0.4,0.2
				c-0.1,0.1-0.2,0.2-0.2,0.3c-0.1,0.1-0.1,0.2-0.1,0.3c0,0.1,0,0.3,0.1,0.4c0.1,0.1,0.1,0.2,0.3,0.3c0.1,0.1,0.3,0.2,0.4,0.2
				l0.5,0.2c0.3,0.1,0.5,0.2,0.7,0.3c0.2,0.1,0.4,0.2,0.5,0.4c0.1,0.1,0.3,0.3,0.3,0.5c0.1,0.2,0.1,0.4,0.1,0.6
				c0,0.3-0.1,0.5-0.2,0.8c-0.1,0.2-0.3,0.4-0.5,0.5c-0.2,0.1-0.5,0.3-0.8,0.3c-0.3,0.1-0.6,0.1-0.9,0.1
				C224.4,38.4,223.8,38.3,223.3,38.1z"/>
			<path class="st12" d="M228.4,38.1v-1c0.5,0.4,1.1,0.6,1.7,0.6c0.8,0,1.3-0.3,1.3-0.8c0-0.1,0-0.3-0.1-0.4
				c-0.1-0.1-0.2-0.2-0.3-0.3c-0.1-0.1-0.3-0.2-0.4-0.2l-0.5-0.2c-0.3-0.1-0.5-0.2-0.7-0.3c-0.2-0.1-0.4-0.2-0.5-0.4
				c-0.1-0.1-0.2-0.3-0.3-0.5c-0.1-0.2-0.1-0.4-0.1-0.6c0-0.3,0.1-0.5,0.2-0.8c0.1-0.2,0.3-0.4,0.5-0.5c0.2-0.2,0.5-0.3,0.7-0.3
				c0.3-0.1,0.6-0.1,0.9-0.1c0.5,0,1,0.1,1.4,0.3v1c-0.5-0.3-1-0.5-1.5-0.5c-0.2,0-0.3,0-0.5,0.1c-0.1,0-0.3,0.1-0.4,0.2
				c-0.1,0.1-0.2,0.2-0.2,0.3c-0.1,0.1-0.1,0.2-0.1,0.3c0,0.1,0,0.3,0.1,0.4c0.1,0.1,0.1,0.2,0.3,0.3c0.1,0.1,0.3,0.2,0.4,0.2
				l0.5,0.2c0.3,0.1,0.5,0.2,0.7,0.3c0.2,0.1,0.4,0.2,0.5,0.4c0.1,0.1,0.3,0.3,0.4,0.5c0.1,0.2,0.1,0.4,0.1,0.6
				c0,0.3-0.1,0.5-0.2,0.8c-0.1,0.2-0.3,0.4-0.5,0.5c-0.2,0.1-0.5,0.3-0.8,0.3c-0.3,0.1-0.6,0.1-0.9,0.1
				C229.5,38.5,228.9,38.3,228.4,38.1z"/>
			<path class="st12" d="M239.9,38.2c-0.3,0.1-0.6,0.2-0.9,0.2c-1.1,0-1.6-0.6-1.6-1.8v-3.6h-1v-0.8h1v-1.5l1-0.3v1.8h1.5v0.8h-1.5
				v3.4c0,0.3,0,0.6,0.2,0.9c0.2,0.2,0.4,0.3,0.7,0.3c0.2,0,0.4-0.1,0.6-0.2L239.9,38.2z"/>
			<path class="st12" d="M243.6,38.4c-0.8,0-1.6-0.3-2.1-0.8c-0.5-0.6-0.8-1.4-0.8-2.2c0-0.9,0.2-1.7,0.8-2.4
				c0.6-0.6,1.4-0.9,2.2-0.8c0.8,0,1.6,0.3,2.1,0.8c0.5,0.6,0.8,1.5,0.8,2.3c0,0.8-0.2,1.7-0.8,2.3
				C245.2,38.2,244.4,38.5,243.6,38.4z M243.7,33c-0.6,0-1.1,0.2-1.5,0.6c-0.4,0.5-0.6,1.1-0.5,1.7c0,0.6,0.2,1.2,0.5,1.7
				c0.4,0.4,0.9,0.6,1.5,0.6c0.5,0,1.1-0.2,1.4-0.6c0.4-0.5,0.5-1.1,0.5-1.7c0-0.6-0.1-1.2-0.5-1.7C244.7,33.2,244.2,33,243.7,33
				L243.7,33z"/>
			<path class="st12" d="M253.1,38.3h-1.4l-2.6-2.9l0,0v2.9h-1v-8.9h1V35l0,0l2.5-2.7h1.3l-2.8,2.9L253.1,38.3z"/>
			<path class="st12" d="M258.6,35.5h-4.2c0,0.6,0.2,1.1,0.5,1.5c0.4,0.4,0.9,0.6,1.4,0.5c0.7,0,1.3-0.2,1.9-0.7v0.9
				c-0.6,0.4-1.3,0.6-2.1,0.6c-0.8,0-1.5-0.3-2-0.8c-0.5-0.7-0.8-1.5-0.7-2.3c0-0.8,0.2-1.6,0.8-2.3c0.5-0.6,1.2-0.9,2-0.9
				c0.7,0,1.4,0.2,1.8,0.8c0.5,0.6,0.7,1.4,0.6,2.1L258.6,35.5z M257.6,34.7c0-0.5-0.1-0.9-0.4-1.3c-0.3-0.3-0.7-0.5-1.1-0.5
				c-0.4,0-0.9,0.2-1.1,0.5c-0.3,0.3-0.5,0.8-0.6,1.3H257.6z"/>
			<path class="st12" d="M265,38.3h-1v-3.4c0-1.3-0.5-1.9-1.4-1.9c-0.5,0-0.9,0.2-1.2,0.5c-0.3,0.4-0.5,0.9-0.5,1.4v3.4h-1v-6h1v1
				l0,0c0.4-0.7,1.2-1.2,2-1.1c0.6,0,1.1,0.2,1.5,0.6c0.4,0.5,0.6,1.2,0.5,1.8L265,38.3z"/>
		</g>
		<g>
			<path class="st12" d="M186.5,134.5h-1v-3.8h-4.4v3.8h-1v-8.4h1v3.7h4.4v-3.7h1V134.5z"/>
			<path class="st12" d="M193.6,127h-2.4v7.5h-1V127h-2.4v-0.9h5.8L193.6,127z"/>
			<path class="st12" d="M200.1,127h-2.4v7.5h-1V127h-2.4v-0.9h5.8L200.1,127z"/>
			<path class="st12" d="M202.3,131.4v3.2h-1v-8.4h2.3c0.8-0.1,1.5,0.2,2.1,0.7c0.5,0.5,0.8,1.2,0.7,1.8c0,0.8-0.3,1.5-0.8,2
				c-0.6,0.5-1.4,0.8-2.2,0.8L202.3,131.4z M202.3,127v3.4h1c0.6,0,1.1-0.1,1.6-0.5c0.4-0.3,0.6-0.8,0.5-1.3c0-1.1-0.7-1.7-2-1.7
				H202.3z"/>
			<path class="st12" d="M214.4,129.5c-0.2-0.1-0.5-0.2-0.7-0.2c-0.4,0-0.8,0.2-1,0.6c-0.3,0.5-0.4,1-0.4,1.6v3.1h-1v-6h1v1.2l0,0
				c0.1-0.4,0.3-0.7,0.6-1c0.3-0.2,0.6-0.3,0.9-0.4c0.2,0,0.4,0,0.6,0.1L214.4,129.5z"/>
			<path class="st12" d="M220.2,131.8H216c0,0.6,0.2,1.1,0.5,1.6c0.4,0.4,0.9,0.6,1.4,0.6c0.7,0,1.3-0.2,1.9-0.7v0.9
				c-0.6,0.4-1.4,0.6-2.1,0.6c-0.8,0-1.5-0.3-2-0.8c-0.5-0.7-0.8-1.5-0.7-2.3c0-0.8,0.3-1.7,0.8-2.3c0.5-0.6,1.2-0.9,2-0.9
				c0.7,0,1.4,0.2,1.8,0.8c0.5,0.6,0.7,1.4,0.6,2.1L220.2,131.8z M219.2,130.9c0-0.5-0.1-0.9-0.4-1.3c-0.3-0.3-0.7-0.5-1.1-0.5
				c-0.4,0-0.9,0.2-1.1,0.5c-0.3,0.4-0.5,0.8-0.6,1.3L219.2,130.9z"/>
			<path class="st12" d="M221.3,134.3v-1c0.5,0.4,1.1,0.6,1.7,0.6c0.8,0,1.3-0.3,1.3-0.9c0-0.1,0-0.3-0.1-0.4
				c-0.1-0.1-0.2-0.2-0.3-0.3c-0.1-0.1-0.3-0.2-0.4-0.2l-0.5-0.2c-0.2-0.1-0.5-0.2-0.7-0.3c-0.2-0.1-0.4-0.2-0.5-0.4
				c-0.1-0.1-0.2-0.3-0.3-0.5c-0.1-0.2-0.1-0.4-0.1-0.6c0-0.3,0.1-0.5,0.2-0.8c0.1-0.2,0.3-0.4,0.5-0.5c0.2-0.2,0.5-0.3,0.7-0.3
				c0.7-0.2,1.5-0.1,2.2,0.2v1c-0.5-0.3-1-0.4-1.5-0.4c-0.2,0-0.3,0-0.5,0.1c-0.1,0-0.3,0.1-0.4,0.2c-0.1,0.1-0.2,0.2-0.2,0.3
				c-0.1,0.1-0.1,0.2-0.1,0.4c0,0.3,0.1,0.5,0.3,0.7c0.1,0.1,0.3,0.2,0.4,0.2l0.5,0.2c0.2,0.1,0.5,0.2,0.7,0.3
				c0.2,0.1,0.4,0.2,0.5,0.4c0.3,0.3,0.5,0.7,0.5,1.1c0,0.3-0.1,0.5-0.2,0.8c-0.1,0.2-0.3,0.4-0.5,0.6c-0.2,0.1-0.5,0.3-0.8,0.3
				c-0.3,0.1-0.6,0.1-0.9,0.1C222.4,134.7,221.8,134.6,221.3,134.3z"/>
			<path class="st12" d="M227.6,133.7L227.6,133.7v3.6h-1v-8.8h1v1.1l0,0c0.4-0.8,1.2-1.2,2.1-1.2c0.7,0,1.4,0.3,1.8,0.8
				c0.5,0.6,0.7,1.4,0.6,2.2c0,0.9-0.2,1.7-0.7,2.4c-0.5,0.6-1.2,0.9-2,0.9C228.7,134.7,228,134.3,227.6,133.7z M227.6,131.2v0.8
				c0,0.5,0.2,0.9,0.5,1.3c0.7,0.7,1.8,0.7,2.4,0c0.1-0.1,0.1-0.1,0.2-0.2c0.4-0.6,0.5-1.2,0.5-1.9c0-0.6-0.1-1.1-0.5-1.6
				c-0.3-0.4-0.8-0.6-1.3-0.6c-0.5,0-1,0.2-1.4,0.6C227.8,130.2,227.6,130.7,227.6,131.2L227.6,131.2z"/>
			<path class="st12" d="M236.2,134.7c-0.8,0-1.6-0.3-2.1-0.8c-0.6-0.6-0.8-1.4-0.8-2.2c0-0.9,0.3-1.7,0.8-2.4
				c0.6-0.6,1.4-0.9,2.2-0.9c0.8,0,1.6,0.3,2.1,0.8c0.5,0.6,0.8,1.5,0.8,2.3c0,0.8-0.2,1.7-0.8,2.3
				C237.8,134.4,237,134.7,236.2,134.7z M236.3,129.2c-0.6,0-1.1,0.2-1.5,0.6c-0.4,0.5-0.6,1.1-0.5,1.7c0,0.6,0.2,1.2,0.5,1.7
				c0.4,0.4,0.9,0.6,1.5,0.6c0.5,0,1.1-0.2,1.4-0.6c0.4-0.5,0.5-1.1,0.5-1.7c0-0.6-0.1-1.2-0.5-1.7
				C237.4,129.4,236.8,129.2,236.3,129.2L236.3,129.2z"/>
			<path class="st12" d="M245.7,134.5h-1v-3.4c0-1.3-0.5-1.9-1.4-1.9c-0.5,0-0.9,0.2-1.2,0.5c-0.3,0.4-0.5,0.9-0.5,1.4v3.4h-1v-6h1
				v1l0,0c0.4-0.7,1.2-1.2,2-1.1c0.6,0,1.1,0.2,1.5,0.6c0.4,0.5,0.6,1.2,0.5,1.8L245.7,134.5z"/>
			<path class="st12" d="M247.1,134.3v-1c0.5,0.4,1.1,0.6,1.7,0.6c0.8,0,1.3-0.3,1.3-0.9c0-0.1,0-0.3-0.1-0.4
				c-0.1-0.1-0.2-0.2-0.3-0.3c-0.1-0.1-0.3-0.2-0.4-0.2l-0.5-0.2c-0.2-0.1-0.5-0.2-0.7-0.3c-0.2-0.1-0.4-0.2-0.5-0.4
				c-0.1-0.1-0.2-0.3-0.3-0.5c-0.1-0.2-0.1-0.4-0.1-0.6c0-0.3,0.1-0.5,0.2-0.8c0.1-0.2,0.3-0.4,0.5-0.5c0.2-0.2,0.5-0.3,0.7-0.3
				c0.3-0.1,0.6-0.1,0.9-0.1c0.5,0,1,0.1,1.4,0.3v1c-0.5-0.3-1-0.4-1.5-0.4c-0.2,0-0.3,0-0.5,0.1c-0.1,0-0.3,0.1-0.4,0.2
				c-0.1,0.1-0.2,0.2-0.2,0.3c-0.1,0.1-0.1,0.2-0.1,0.4c0,0.3,0.1,0.5,0.3,0.7c0.1,0.1,0.3,0.2,0.4,0.2l0.5,0.2
				c0.2,0.1,0.5,0.2,0.7,0.3c0.2,0.1,0.4,0.2,0.5,0.4c0.1,0.1,0.3,0.3,0.3,0.5c0.1,0.2,0.1,0.4,0.1,0.6c0,0.3-0.1,0.5-0.2,0.8
				c-0.1,0.2-0.3,0.4-0.5,0.6c-0.2,0.1-0.5,0.3-0.8,0.3c-0.3,0.1-0.6,0.1-0.9,0.1C248.1,134.7,247.6,134.6,247.1,134.3z"/>
			<path class="st12" d="M257.3,131.8h-4.2c0,0.6,0.2,1.1,0.5,1.6c0.4,0.4,0.9,0.6,1.4,0.6c0.7,0,1.3-0.2,1.9-0.7v0.9
				c-0.6,0.4-1.4,0.6-2.1,0.6c-0.8,0-1.5-0.3-2-0.8c-1-1.4-1-3.2,0.1-4.6c0.5-0.6,1.2-0.9,2-0.9c0.7,0,1.4,0.2,1.8,0.8
				c0.5,0.6,0.7,1.4,0.6,2.1L257.3,131.8z M256.3,130.9c0-0.5-0.1-0.9-0.4-1.3c-0.3-0.3-0.7-0.5-1.1-0.5c-0.4,0-0.9,0.2-1.1,0.5
				c-0.3,0.3-0.5,0.8-0.6,1.3H256.3z"/>
		</g>
		<g>
			<path class="st5" d="M404.9,118.3H403v-5c0-0.5,0-1.1,0.1-1.8l0,0c-0.1,0.4-0.2,0.7-0.3,1.1l-2,5.7h-1.5l-2-5.7
				c0-0.2-0.1-0.5-0.3-1.2h0c0,0.8,0.1,1.6,0.1,2.2v4.7h-1.7v-8.4h2.8l1.7,5c0.1,0.4,0.2,0.8,0.3,1.2l0,0c0.1-0.5,0.2-0.9,0.3-1.2
				l1.7-5h2.7L404.9,118.3z"/>
			<path class="st5" d="M407.5,111.3c-0.3,0-0.6-0.1-0.8-0.3c-0.2-0.2-0.3-0.4-0.3-0.7c0-0.3,0.1-0.5,0.3-0.7
				c0.2-0.2,0.5-0.3,0.8-0.3c0.3,0,0.6,0.1,0.8,0.3c0.2,0.2,0.3,0.4,0.3,0.7c0,0.3-0.1,0.5-0.3,0.7
				C408,111.2,407.8,111.3,407.5,111.3z M408.4,118.3h-1.9v-6h1.9V118.3z"/>
			<path class="st5" d="M414.5,118c-0.6,0.3-1.2,0.4-1.8,0.4c-0.8,0-1.6-0.3-2.2-0.8c-0.6-0.6-0.9-1.4-0.9-2.2
				c0-0.9,0.3-1.8,0.9-2.4c0.7-0.6,1.6-0.9,2.5-0.9c0.5,0,1.1,0.1,1.5,0.3v1.7c-0.4-0.3-0.8-0.4-1.3-0.4c-1,0.1-1.8,0.9-1.7,1.9
				c0,0.4,0.2,0.8,0.4,1.1c0.3,0.3,0.8,0.5,1.2,0.4c0.5,0,1-0.2,1.4-0.4V118z"/>
			<path class="st5" d="M419.7,113.9c-0.2-0.1-0.5-0.2-0.8-0.2c-0.4,0-0.7,0.2-1,0.4c-0.2,0.4-0.4,0.8-0.3,1.2v2.9h-1.9v-6h1.9v1.1
				l0,0c0.2-0.7,0.8-1.2,1.6-1.2c0.2,0,0.3,0,0.5,0.1L419.7,113.9z"/>
			<path class="st5" d="M423.5,118.4c-0.9,0-1.7-0.3-2.4-0.8c-1.2-1.3-1.2-3.3,0-4.6c0.7-0.6,1.5-0.9,2.4-0.8
				c0.9-0.1,1.7,0.3,2.3,0.8c0.6,0.6,0.9,1.4,0.9,2.2c0,0.9-0.3,1.7-0.9,2.4C425.2,118.1,424.4,118.4,423.5,118.4z M423.5,113.5
				c-0.4,0-0.8,0.2-1,0.4c-0.3,0.4-0.4,0.8-0.4,1.3c0,1.2,0.5,1.7,1.4,1.7s1.3-0.6,1.3-1.8S424.4,113.5,423.5,113.5z"/>
			<path class="st5" d="M427.6,118.1v-1.5c0.3,0.2,0.6,0.3,0.9,0.4c0.3,0.1,0.6,0.1,0.9,0.1c0.3,0,0.5,0,0.8-0.1
				c0.2-0.1,0.3-0.2,0.3-0.4c0-0.1,0-0.2-0.1-0.3c-0.1-0.1-0.2-0.1-0.3-0.2l-0.4-0.2l-0.5-0.2c-0.2-0.1-0.4-0.2-0.6-0.3
				c-0.2-0.1-0.3-0.2-0.5-0.4c-0.1-0.1-0.2-0.3-0.3-0.5c-0.1-0.2-0.1-0.4-0.1-0.6c0-0.3,0.1-0.6,0.2-0.9c0.1-0.2,0.3-0.4,0.6-0.6
				c0.3-0.2,0.5-0.3,0.8-0.3c0.3-0.1,0.7-0.1,1-0.1c0.3,0,0.5,0,0.8,0.1c0.3,0,0.5,0.1,0.8,0.2v1.4c-0.2-0.1-0.5-0.2-0.8-0.3
				c-0.3-0.1-0.5-0.1-0.8-0.1c-0.1,0-0.2,0-0.3,0c-0.1,0-0.2,0.1-0.3,0.1c-0.1,0-0.1,0.1-0.2,0.2c0,0.1-0.1,0.1-0.1,0.2
				c0,0.1,0,0.2,0.1,0.3c0.1,0.1,0.2,0.2,0.3,0.2l0.4,0.2l0.4,0.1c0.2,0.1,0.5,0.2,0.7,0.3c0.2,0.1,0.4,0.2,0.5,0.4
				c0.1,0.1,0.3,0.3,0.3,0.5c0.1,0.2,0.1,0.4,0.1,0.7c0,0.3-0.1,0.6-0.2,0.9c-0.1,0.3-0.4,0.5-0.6,0.6c-0.3,0.2-0.6,0.3-0.9,0.3
				c-0.3,0.1-0.7,0.1-1,0.1C428.9,118.4,428.2,118.3,427.6,118.1z"/>
			<path class="st5" d="M436.2,118.4c-0.9,0-1.7-0.3-2.4-0.8c-1.2-1.3-1.2-3.3,0-4.6c0.7-0.6,1.5-0.9,2.4-0.8c0.9,0,1.7,0.3,2.4,0.8
				c0.6,0.6,0.9,1.4,0.9,2.2c0,0.9-0.3,1.7-0.9,2.4C437.9,118.1,437.1,118.4,436.2,118.4z M436.3,113.5c-0.4,0-0.8,0.2-1,0.4
				c-0.3,0.4-0.4,0.8-0.4,1.3c0,1.2,0.5,1.7,1.4,1.7s1.3-0.6,1.3-1.8S437.1,113.5,436.3,113.5z"/>
			<path class="st5" d="M444.5,110.8c-0.2-0.1-0.5-0.1-0.7-0.1c-0.6,0-0.9,0.3-0.9,1v0.6h1.4v1.4H443v4.6h-1.9v-4.6h-1v-1.4h1v-0.8
				c0-0.6,0.2-1.2,0.7-1.7c0.5-0.4,1.2-0.7,1.8-0.6c0.3,0,0.6,0,0.9,0.1L444.5,110.8z"/>
			<path class="st5" d="M449.1,118.2c-0.4,0.2-0.8,0.2-1.2,0.2c-1,0.1-1.9-0.5-2-1.5c0-0.2,0-0.3,0-0.5v-2.8h-1v-1.4h1V111l1.9-0.5
				v1.8h1.3v1.4h-1.3v2.3c0,0.6,0.3,0.9,0.7,0.9c0.2,0,0.4-0.1,0.6-0.2L449.1,118.2z"/>
			<path class="st5" d="M401.2,132.1c-0.9,0.5-2,0.7-3.1,0.7c-1.2,0.1-2.3-0.3-3.2-1.1c-0.8-0.8-1.2-1.9-1.2-3.1
				c0-1.2,0.4-2.4,1.3-3.2c0.9-0.9,2.1-1.3,3.4-1.3c0.8,0,1.6,0.1,2.4,0.4v1.8c-0.7-0.4-1.6-0.6-2.4-0.6c-0.7,0-1.4,0.2-1.9,0.8
				c-0.5,0.5-0.8,1.3-0.8,2c0,0.7,0.2,1.4,0.7,2c0.5,0.5,1.1,0.7,1.8,0.7c0.4,0,0.7-0.1,1.1-0.2v-1.6h-1.7v-1.5h3.6L401.2,132.1z"/>
			<path class="st5" d="M406.6,128.3c-0.2-0.1-0.5-0.2-0.8-0.2c-0.4,0-0.7,0.2-0.9,0.4c-0.2,0.3-0.4,0.8-0.3,1.2v2.9h-1.9v-6h1.9
				v1.1l0,0c0.2-0.7,0.8-1.2,1.6-1.2c0.2,0,0.3,0,0.5,0.1L406.6,128.3z"/>
			<path class="st5" d="M412.4,132.6h-1.8v-0.9l0,0c-0.4,0.6-1.1,1-1.8,1c-0.5,0-1-0.1-1.4-0.5c-0.3-0.3-0.5-0.8-0.5-1.3
				c0-1.2,0.7-1.8,2.1-2l1.6-0.2c0-0.6-0.4-1-1.1-1c-0.7,0-1.4,0.2-2,0.6V127c0.3-0.2,0.7-0.3,1-0.3c0.4-0.1,0.8-0.1,1.2-0.2
				c1.2-0.2,2.4,0.7,2.6,1.9c0,0.2,0,0.4,0,0.6L412.4,132.6z M410.6,130.2v-0.4l-1.1,0.1c-0.6,0.1-0.9,0.3-0.9,0.8
				c0,0.2,0.1,0.4,0.2,0.5c0.2,0.1,0.4,0.2,0.6,0.2c0.3,0,0.6-0.1,0.9-0.4C410.5,130.9,410.6,130.5,410.6,130.2L410.6,130.2z"/>
			<path class="st5" d="M415.7,132L415.7,132v3.5h-1.9v-8.8h1.9v0.9l0,0c0.7-1.1,2.2-1.4,3.3-0.6c0.2,0.1,0.3,0.2,0.5,0.4
				c0.5,0.6,0.7,1.4,0.6,2.2c0,0.9-0.2,1.7-0.7,2.4c-0.5,0.6-1.2,0.9-2,0.9C416.7,132.9,416.1,132.5,415.7,132z M415.7,129.5v0.5
				c0,0.4,0.1,0.7,0.3,1c0.2,0.3,0.5,0.4,0.9,0.4c0.4,0,0.8-0.2,1-0.5c0.3-0.4,0.4-0.9,0.4-1.4c0-1.1-0.4-1.6-1.2-1.6
				c-0.4,0-0.7,0.1-0.9,0.4C415.8,128.7,415.6,129.1,415.7,129.5L415.7,129.5z"/>
			<path class="st5" d="M427,132.6h-1.8v-3.4c0-0.9-0.3-1.3-1-1.3c-0.3,0-0.6,0.1-0.8,0.4c-0.2,0.3-0.3,0.6-0.3,0.9v3.4h-1.9v-8.9
				h1.9v3.8l0,0c0.4-0.6,1.1-1,1.8-1c1.3,0,2,0.8,2,2.5L427,132.6z"/>
			<path class="st5" d="M439.4,132.6h-2.1l-0.6-1.9h-3l-0.6,1.9h-2l3-8.4h2.3L439.4,132.6z M436.3,129.3l-0.9-2.8
				c-0.1-0.2-0.1-0.5-0.1-0.8h0c0,0.3-0.1,0.5-0.1,0.7l-0.9,2.8H436.3z"/>
			<path class="st5" d="M442.2,129.8v2.9h-1.9v-8.4h3c2.1,0,3.2,0.9,3.2,2.7c0,0.8-0.3,1.5-0.9,2c-0.7,0.5-1.6,0.8-2.4,0.8
				L442.2,129.8z M442.2,125.8v2.6h0.8c1,0,1.5-0.4,1.5-1.3s-0.5-1.3-1.5-1.3L442.2,125.8z"/>
			<path class="st5" d="M449.5,132.6h-1.9v-8.4h1.9V132.6z"/>
		</g>
		<g>
			<path class="st12" d="M26.4,99.4c-0.3,0-0.6-0.1-0.8-0.3c-0.2-0.2-0.3-0.4-0.3-0.7c0-0.3,0.1-0.5,0.3-0.7
				c0.2-0.2,0.5-0.3,0.8-0.3c0.3,0,0.6,0.1,0.8,0.3c0.2,0.2,0.3,0.4,0.3,0.7c0,0.3-0.1,0.5-0.3,0.7C27,99.3,26.7,99.4,26.4,99.4z"/>
			<path class="st12" d="M36.6,99.2h-1.9L31.3,94c-0.2-0.3-0.3-0.5-0.4-0.7l0,0c0,0.3,0,0.8,0,1.4v4.6h-1.8v-8.4h2l3.4,5.1
				c0.2,0.2,0.3,0.5,0.4,0.7l0,0c0-0.4,0-0.8,0-1.2v-4.7h1.8L36.6,99.2z"/>
			<path class="st12" d="M43.5,99.2h-5v-8.4h4.8v1.5h-3v1.9h2.8v1.5h-2.8v1.9h3.1L43.5,99.2z"/>
			<path class="st12" d="M50.8,92.4h-2.4v6.9h-1.9v-6.9h-2.4v-1.5h6.7V92.4z"/>
			<path class="st12" d="M61.3,98.9c-0.8,0.3-1.6,0.5-2.4,0.4c-1.1,0.1-2.2-0.4-3-1.1c-0.8-0.8-1.1-1.9-1.1-3c0-1.2,0.4-2.4,1.3-3.3
				c0.9-0.8,2-1.3,3.2-1.3c0.7,0,1.4,0.1,2.1,0.3v1.8c-0.6-0.3-1.3-0.5-1.9-0.5c-0.7,0-1.4,0.2-1.9,0.8c-1,1.2-1,2.8,0,4
				c0.5,0.5,1.2,0.8,1.8,0.7c0.7,0,1.4-0.2,2-0.5L61.3,98.9z"/>
			<path class="st12" d="M65.3,99.4c-0.9,0-1.7-0.3-2.3-0.8c-1.2-1.3-1.2-3.3,0-4.6c0.7-0.6,1.5-0.9,2.4-0.8c0.9,0,1.7,0.3,2.3,0.8
				c0.6,0.6,0.9,1.4,0.8,2.2c0,0.9-0.3,1.7-0.9,2.4C67.1,99.1,66.2,99.4,65.3,99.4z M65.3,94.5c-0.4,0-0.8,0.2-1,0.4
				c-0.3,0.4-0.4,0.8-0.3,1.3c0,1.2,0.5,1.7,1.4,1.7s1.3-0.6,1.3-1.8S66.3,94.5,65.3,94.5L65.3,94.5z"/>
			<path class="st12" d="M73.7,94.9c-0.2-0.1-0.5-0.2-0.8-0.2c-0.4,0-0.7,0.1-0.9,0.4c-0.2,0.4-0.4,0.8-0.3,1.2v2.9h-1.8v-6h1.8v1.1
				l0,0c0.2-0.7,0.8-1.2,1.6-1.2c0.2,0,0.3,0,0.5,0.1L73.7,94.9z"/>
			<path class="st12" d="M80,96.8h-3.9c0.1,0.9,0.6,1.3,1.7,1.3c0.6,0,1.2-0.1,1.7-0.5v1.3c-0.7,0.3-1.4,0.5-2.2,0.4
				c-0.8,0.1-1.7-0.2-2.3-0.8c-0.6-0.6-0.8-1.4-0.8-2.3c0-0.9,0.3-1.7,0.9-2.3c0.6-0.6,1.3-0.9,2.1-0.9c0.7,0,1.5,0.2,2,0.8
				c0.5,0.6,0.7,1.3,0.7,2.1V96.8z M78.3,95.6c0-0.9-0.3-1.3-1-1.3c-0.3,0-0.6,0.1-0.8,0.4c-0.2,0.3-0.4,0.6-0.4,0.9H78.3z"/>
			<path class="st12" d="M16.6,113.6v-8.4h3c3,0,4.5,1.4,4.5,4.1c0.1,1.2-0.4,2.3-1.2,3.1c-0.9,0.8-2.1,1.2-3.3,1.2H16.6z
				 M18.5,106.8v5.3h0.9c0.7,0,1.4-0.2,1.9-0.7c0.5-0.5,0.7-1.3,0.7-2c0-0.7-0.2-1.4-0.7-1.9c-0.5-0.5-1.2-0.7-2-0.7L18.5,106.8z"/>
			<path class="st12" d="M30.7,111.2h-3.9c0.1,0.9,0.6,1.3,1.6,1.3c0.6,0,1.2-0.1,1.7-0.5v1.3c-0.7,0.3-1.4,0.5-2.2,0.4
				c-1.5,0.2-2.9-1-3.1-2.5c0-0.2,0-0.4,0-0.5c0-0.9,0.3-1.7,0.9-2.4c0.6-0.6,1.3-0.9,2.1-0.9c0.7,0,1.5,0.2,2,0.8
				c0.5,0.6,0.8,1.3,0.7,2.1L30.7,111.2z M28.9,110c0-0.9-0.4-1.3-1-1.3c-0.3,0-0.6,0.1-0.8,0.4c-0.2,0.3-0.4,0.6-0.4,0.9H28.9z"/>
			<path class="st12" d="M31.5,113.5V112c0.3,0.2,0.6,0.3,0.9,0.4c0.3,0.1,0.6,0.1,0.8,0.1c0.3,0,0.5,0,0.8-0.1
				c0.2-0.1,0.3-0.2,0.3-0.4c0-0.1,0-0.2-0.1-0.3c-0.1-0.1-0.2-0.2-0.3-0.2c-0.1-0.1-0.3-0.1-0.4-0.2c-0.2,0-0.3-0.1-0.5-0.2
				c-0.2-0.1-0.4-0.2-0.6-0.3c-0.2-0.1-0.3-0.2-0.5-0.4c-0.1-0.1-0.2-0.3-0.3-0.5c-0.1-0.2-0.1-0.4-0.1-0.6c0-0.3,0.1-0.6,0.2-0.9
				c0.1-0.2,0.3-0.5,0.6-0.6c0.3-0.2,0.5-0.3,0.8-0.3c0.3-0.1,0.7-0.1,1-0.1c0.3,0,0.5,0,0.8,0.1c0.3,0,0.5,0.1,0.8,0.2v1.4
				c-0.2-0.1-0.5-0.2-0.8-0.3c-0.3-0.1-0.5-0.1-0.8-0.1c-0.1,0-0.2,0-0.3,0c-0.1,0-0.2,0.1-0.3,0.1c-0.1,0-0.1,0.1-0.2,0.2
				c0,0.1-0.1,0.1-0.1,0.2c0,0.1,0,0.2,0.1,0.3c0.1,0.1,0.2,0.2,0.3,0.2c0.1,0.1,0.2,0.1,0.4,0.2l0.4,0.1c0.2,0.1,0.4,0.2,0.7,0.3
				c0.2,0.1,0.4,0.2,0.5,0.4c0.1,0.1,0.3,0.3,0.3,0.5c0.2,0.5,0.1,1.1-0.1,1.6c-0.2,0.2-0.4,0.5-0.6,0.6c-0.3,0.2-0.6,0.3-0.9,0.3
				c-0.3,0.1-0.7,0.1-1,0.1C32.8,113.8,32.1,113.7,31.5,113.5z"/>
			<path class="st12" d="M43.3,113.6H41l-1.9-3l0,0v3h-1.8v-8.9h1.8v5.7l0,0l1.8-2.8h2.2l-2.1,2.8L43.3,113.6z"/>
			<path class="st12" d="M47.8,113.6c-0.4,0.2-0.8,0.2-1.2,0.2c-1.3,0-2-0.7-2-2V109h-1v-1.4h1v-1.3l1.8-0.5v1.8h1.3v1.4h-1.3v2.4
				c0,0.6,0.3,0.9,0.7,0.9c0.2,0,0.4-0.1,0.6-0.2L47.8,113.6z"/>
			<path class="st12" d="M51.7,113.8c-0.9,0-1.7-0.3-2.4-0.8c-1.2-1.3-1.2-3.3,0-4.6c0.7-0.6,1.5-0.9,2.4-0.8c0.9,0,1.7,0.3,2.3,0.8
				c0.6,0.6,0.9,1.4,0.8,2.2c0,0.9-0.3,1.7-0.9,2.4C53.5,113.5,52.6,113.8,51.7,113.8z M51.7,108.9c-0.4,0-0.8,0.2-1,0.4
				c-0.3,0.4-0.4,0.8-0.4,1.3c0,1.2,0.5,1.7,1.4,1.7s1.3-0.6,1.3-1.8S52.7,108.9,51.7,108.9L51.7,108.9z"/>
			<path class="st12" d="M58.1,112.9L58.1,112.9v3.5h-1.9v-8.8h1.8v0.9l0,0c0.7-1.1,2.2-1.4,3.3-0.7c0.2,0.1,0.3,0.2,0.5,0.4
				c0.5,0.6,0.7,1.4,0.6,2.2c0,0.9-0.2,1.7-0.7,2.4c-0.5,0.6-1.2,0.9-2,0.9C59,113.8,58.4,113.5,58.1,112.9z M58,110.5v0.5
				c0,0.4,0.1,0.7,0.3,1c0.2,0.3,0.5,0.4,0.9,0.4c0.4,0,0.8-0.2,1-0.5c0.3-0.4,0.4-0.9,0.3-1.4c0-1-0.4-1.6-1.2-1.6
				c-0.4,0-0.7,0.1-0.9,0.4C58.1,109.7,58,110.1,58,110.5z"/>
			<path class="st12" d="M74.5,113.6h-2.1l-0.6-1.9h-3l-0.6,1.9h-2l3.1-8.4h2.2L74.5,113.6z M71.4,110.3l-0.9-2.8
				c-0.1-0.2-0.1-0.5-0.1-0.8h-0.1c0,0.2-0.1,0.5-0.2,0.7l-0.9,2.8H71.4z"/>
			<path class="st12" d="M77.3,112.9L77.3,112.9v3.5h-1.9v-8.8h1.8v0.9l0,0c0.7-1.1,2.2-1.4,3.3-0.6c0.2,0.1,0.3,0.2,0.5,0.4
				c0.5,0.6,0.7,1.4,0.6,2.2c0,0.9-0.2,1.7-0.7,2.4c-0.5,0.6-1.2,0.9-2,0.9C78.2,113.8,77.6,113.5,77.3,112.9z M77.3,110.5v0.5
				c0,0.4,0.1,0.7,0.3,1c0.2,0.3,0.5,0.4,0.9,0.4c0.4,0,0.8-0.2,1-0.5c0.3-0.4,0.4-0.9,0.3-1.4c0-1-0.4-1.6-1.2-1.6
				c-0.4,0-0.7,0.1-0.9,0.4C77.4,109.7,77.2,110.1,77.3,110.5L77.3,110.5z"/>
			<path class="st12" d="M84.7,112.9L84.7,112.9v3.5h-1.9v-8.8h1.9v0.9l0,0c0.7-1.1,2.2-1.4,3.3-0.6c0.2,0.1,0.3,0.2,0.5,0.4
				c0.4,0.6,0.7,1.4,0.6,2.2c0,0.9-0.2,1.7-0.7,2.4c-0.5,0.6-1.2,0.9-2,0.9C85.7,113.8,85.1,113.5,84.7,112.9z M84.7,110.5v0.5
				c0,0.4,0.1,0.7,0.3,1c0.2,0.3,0.5,0.4,0.9,0.4c0.4,0,0.8-0.2,1-0.5c0.3-0.4,0.4-0.9,0.3-1.4c0-1-0.4-1.6-1.2-1.6
				c-0.4,0-0.7,0.1-0.9,0.4C84.8,109.7,84.7,110.1,84.7,110.5L84.7,110.5z"/>
			<path class="st12" d="M8.5,130H7c-1.3-1.4-1.9-3.2-1.9-5.1c0-1.9,0.6-3.8,1.9-5.2h1.5c-1.2,1.5-1.8,3.3-1.8,5.2
				C6.7,126.7,7.3,128.5,8.5,130z"/>
			<path class="st12" d="M17,128h-1.9l-3.5-5.3c-0.2-0.2-0.3-0.5-0.4-0.7l0,0c0,0.3,0,0.8,0,1.4v4.6H9.5v-8.4h2l3.3,5.1
				c0.1,0.2,0.3,0.5,0.4,0.7l0,0c0-0.4-0.1-0.8-0.1-1.2v-4.6H17L17,128z"/>
			<path class="st12" d="M21.6,128.2c-0.9,0-1.7-0.3-2.4-0.8c-1.2-1.3-1.2-3.3,0-4.6c0.7-0.6,1.5-0.9,2.4-0.8c0.9,0,1.7,0.3,2.3,0.8
				c0.6,0.6,0.9,1.4,0.9,2.2c0,0.9-0.3,1.7-0.9,2.4C23.3,127.9,22.5,128.2,21.6,128.2z M21.6,123.3c-0.4,0-0.8,0.2-1,0.4
				c-0.3,0.4-0.4,0.8-0.4,1.3c0,1.2,0.5,1.7,1.4,1.7s1.4-0.6,1.4-1.8S22.5,123.3,21.6,123.3L21.6,123.3z"/>
			<path class="st12" d="M31.9,128H30v-3.3c0-0.9-0.3-1.4-1-1.4c-0.3,0-0.6,0.1-0.8,0.4c-0.2,0.3-0.3,0.6-0.3,0.9v3.4h-1.8v-6h1.9v1
				l0,0c0.4-0.7,1.1-1.1,1.9-1.1c1.3,0,2,0.8,2,2.5L31.9,128z"/>
			<path class="st12" d="M36.5,125.5h-3.2v-1.3h3.2V125.5z"/>
			<path class="st12" d="M38.9,121.1c-0.3,0-0.6-0.1-0.8-0.3c-0.2-0.2-0.3-0.4-0.3-0.7c0-0.3,0.1-0.5,0.3-0.7c0.4-0.4,1.1-0.4,1.5,0
				c0.2,0.2,0.3,0.4,0.3,0.7c0,0.3-0.1,0.5-0.3,0.7C39.4,121,39.2,121.1,38.9,121.1z M39.8,128h-1.8v-6h1.8V128z"/>
			<path class="st12" d="M47.1,128h-1.8v-3.3c0-0.9-0.3-1.4-1-1.4c-0.3,0-0.6,0.1-0.8,0.4c-0.2,0.3-0.3,0.6-0.3,0.9v3.4h-1.8v-6h1.8
				v1l0,0c0.4-0.7,1.1-1.1,1.9-1.1c1.3,0,2,0.8,2,2.5L47.1,128z"/>
			<path class="st12" d="M52.1,128c-0.4,0.2-0.8,0.2-1.2,0.2c-1.3,0-2-0.7-2-2v-2.8H48V122h1v-1.3l1.8-0.5v1.8h1.3v1.4h-1.4v2.4
				c0,0.6,0.2,0.9,0.7,0.9c0.2,0,0.4-0.1,0.6-0.2V128z"/>
			<path class="st12" d="M58.6,125.6h-3.9c0.1,0.9,0.6,1.3,1.7,1.3c0.6,0,1.2-0.2,1.7-0.5v1.3c-0.7,0.3-1.4,0.5-2.2,0.4
				c-0.8,0.1-1.7-0.2-2.3-0.8c-0.6-0.6-0.8-1.4-0.8-2.3c0-0.9,0.3-1.7,0.9-2.4c0.6-0.6,1.3-0.9,2.1-0.9c0.7,0,1.5,0.2,2,0.8
				c0.5,0.6,0.8,1.3,0.7,2.1L58.6,125.6z M56.8,124.4c0-0.9-0.3-1.3-1-1.3c-0.3,0-0.6,0.1-0.8,0.4c-0.2,0.3-0.4,0.6-0.4,0.9H56.8z"
				/>
			<path class="st12" d="M63.7,123.7c-0.2-0.1-0.5-0.2-0.8-0.2c-0.4,0-0.7,0.1-0.9,0.4c-0.2,0.4-0.4,0.8-0.3,1.2v2.8h-1.9v-6h1.8
				v1.1l0,0c0.2-0.7,0.8-1.2,1.6-1.2c0.2,0,0.3,0,0.5,0.1L63.7,123.7z"/>
			<path class="st12" d="M69.4,128h-1.8v-0.9l0,0c-0.4,0.6-1.1,1-1.8,1c-0.5,0-1-0.1-1.4-0.5c-0.3-0.4-0.5-0.8-0.5-1.3
				c0-1.2,0.7-1.8,2.1-2l1.6-0.2c0-0.7-0.3-1-1.1-1c-0.7,0-1.4,0.2-2,0.6v-1.4c0.3-0.2,0.7-0.3,1.1-0.4c0.4-0.1,0.8-0.1,1.2-0.2
				c1.2-0.2,2.4,0.7,2.6,1.9c0,0.2,0,0.4,0,0.6L69.4,128z M67.7,125.6v-0.4l-1.1,0.1c-0.6,0.1-0.9,0.3-0.9,0.8
				c0,0.2,0.1,0.4,0.2,0.5c0.2,0.1,0.4,0.2,0.6,0.2c0.3,0,0.6-0.1,0.8-0.4C67.6,126.2,67.7,125.9,67.7,125.6L67.7,125.6z"/>
			<path class="st12" d="M75.4,127.8c-0.6,0.3-1.2,0.4-1.8,0.4c-0.8,0-1.6-0.3-2.2-0.8c-0.6-0.6-0.9-1.4-0.9-2.2
				c0-0.9,0.3-1.8,0.9-2.4c0.7-0.6,1.5-0.9,2.4-0.9c0.5,0,1.1,0.1,1.5,0.3v1.6c-0.4-0.3-0.8-0.4-1.3-0.4c-0.5,0-0.9,0.1-1.3,0.5
				c-0.3,0.3-0.5,0.8-0.5,1.3c0,0.5,0.1,0.9,0.4,1.3c0.3,0.3,0.8,0.5,1.2,0.5c0.5,0,1-0.2,1.3-0.4L75.4,127.8z"/>
			<path class="st12" d="M80.4,128c-0.4,0.2-0.8,0.2-1.2,0.2c-1.3,0-2-0.7-2-2v-2.8h-1V122h1v-1.3l1.8-0.5v1.8h1.3v1.4H79v2.4
				c0,0.6,0.3,0.9,0.7,0.9c0.2,0,0.4-0.1,0.6-0.2L80.4,128z"/>
			<path class="st12" d="M82.4,121.1c-0.3,0-0.6-0.1-0.8-0.3c-0.2-0.2-0.3-0.4-0.3-0.7c0-0.3,0.1-0.5,0.3-0.7c0.4-0.4,1.1-0.4,1.5,0
				c0.2,0.2,0.3,0.4,0.3,0.7c0,0.3-0.1,0.5-0.3,0.7C83,121,82.7,121.1,82.4,121.1z M83.3,128h-1.8v-6h1.8V128z"/>
			<path class="st12" d="M90.6,122l-2.2,6h-2.1l-2.1-6h2l1,3.7c0.1,0.3,0.2,0.7,0.2,1.1l0,0c0-0.3,0.1-0.7,0.2-1l1.1-3.8H90.6z"/>
			<path class="st12" d="M96.6,125.6h-3.9c0.1,0.9,0.6,1.3,1.7,1.3c0.6,0,1.2-0.1,1.7-0.5v1.3c-0.7,0.3-1.4,0.5-2.2,0.4
				c-1.5,0.2-2.9-0.9-3.1-2.5c0-0.2,0-0.4,0-0.6c0-0.9,0.3-1.7,0.9-2.4c0.6-0.6,1.3-0.9,2.1-0.9c0.7,0,1.5,0.2,2,0.8
				c0.5,0.6,0.8,1.3,0.7,2.1L96.6,125.6z M94.9,124.4c0-0.9-0.3-1.3-1-1.3c-0.3,0-0.6,0.1-0.8,0.4c-0.2,0.3-0.4,0.6-0.4,0.9H94.9z"
				/>
			<path class="st12" d="M98.1,130h-1.5c1.2-1.5,1.8-3.3,1.8-5.1c0-1.9-0.6-3.7-1.8-5.2h1.5c1.2,1.4,1.9,3.3,1.9,5.2
				C100.1,126.8,99.4,128.6,98.1,130z"/>
		</g>
		<g>
			<path class="st1" d="M406.2,34h-1.9v-5c0-0.5,0-1.1,0.1-1.8h0c-0.1,0.4-0.2,0.8-0.3,1.1l-2,5.7h-1.5l-2-5.6
				c-0.1-0.2-0.1-0.5-0.3-1.2l0,0c0,0.8,0.1,1.6,0.1,2.2V34h-1.7v-8.4h2.8l1.7,5c0.1,0.4,0.2,0.8,0.3,1.2l0,0
				c0.1-0.4,0.2-0.8,0.3-1.2l1.7-5h2.7L406.2,34z"/>
			<path class="st1" d="M408.8,27.1c-0.3,0-0.6-0.1-0.8-0.3c-0.2-0.2-0.3-0.4-0.3-0.7c0-0.3,0.1-0.5,0.3-0.7
				c0.2-0.2,0.5-0.3,0.8-0.3c0.3,0,0.6,0.1,0.8,0.3c0.2,0.2,0.3,0.4,0.3,0.7c0,0.3-0.1,0.5-0.3,0.7C409.3,27,409.1,27.1,408.8,27.1z
				 M409.7,34.1h-1.9V28h1.9V34.1z"/>
			<path class="st1" d="M415.8,33.8c-0.6,0.3-1.2,0.4-1.8,0.4c-0.8,0-1.6-0.3-2.2-0.8c-0.6-0.6-0.9-1.4-0.9-2.2
				c0-0.9,0.3-1.8,0.9-2.4c0.7-0.6,1.5-0.9,2.5-0.9c0.5,0,1.1,0.1,1.5,0.3v1.6c-0.4-0.3-0.8-0.4-1.3-0.4c-0.5,0-0.9,0.1-1.3,0.5
				c-0.3,0.3-0.5,0.8-0.5,1.3c0,0.5,0.1,0.9,0.5,1.3c0.3,0.3,0.8,0.5,1.2,0.5c0.5,0,1-0.2,1.4-0.4L415.8,33.8z"/>
			<path class="st1" d="M421,29.7c-0.2-0.1-0.5-0.2-0.8-0.2c-0.4,0-0.7,0.2-0.9,0.4c-0.2,0.4-0.4,0.8-0.3,1.2V34h-1.9v-6h1.9v1.1
				l0,0c0.2-0.7,0.8-1.2,1.6-1.2c0.2,0,0.3,0,0.5,0.1V29.7z"/>
			<path class="st1" d="M424.8,34.2c-0.9,0-1.7-0.3-2.4-0.8c-0.6-0.6-0.9-1.4-0.9-2.3c-0.1-0.9,0.3-1.7,0.9-2.3
				c0.7-0.6,1.5-0.9,2.4-0.9c0.9,0,1.7,0.3,2.3,0.9c0.6,0.6,0.9,1.4,0.9,2.2c0,0.9-0.3,1.7-0.9,2.4
				C426.6,33.9,425.7,34.2,424.8,34.2z M424.8,29.3c-0.4,0-0.8,0.2-1,0.5c-0.3,0.4-0.4,0.8-0.4,1.3c0,1.1,0.5,1.7,1.4,1.7
				s1.3-0.6,1.3-1.8S425.8,29.3,424.8,29.3L424.8,29.3z"/>
			<path class="st1" d="M428.9,33.8v-1.5c0.3,0.2,0.6,0.3,0.9,0.4c0.3,0.1,0.6,0.1,0.9,0.1c0.3,0,0.5,0,0.8-0.1
				c0.2-0.1,0.3-0.2,0.3-0.4c0-0.1,0-0.2-0.1-0.3c-0.1-0.1-0.2-0.2-0.3-0.2c-0.1-0.1-0.3-0.1-0.4-0.1l-0.5-0.2
				c-0.2-0.1-0.4-0.2-0.6-0.3c-0.2-0.1-0.3-0.2-0.5-0.4c-0.1-0.1-0.2-0.3-0.3-0.5c-0.1-0.2-0.1-0.4-0.1-0.6c0-0.3,0.1-0.6,0.2-0.9
				c0.2-0.2,0.4-0.4,0.6-0.6c0.3-0.2,0.5-0.3,0.8-0.3c0.6-0.1,1.2-0.1,1.8,0c0.3,0,0.5,0.1,0.8,0.2v1.4c-0.2-0.1-0.5-0.2-0.8-0.3
				c-0.3-0.1-0.5-0.1-0.8-0.1c-0.1,0-0.2,0-0.4,0c-0.1,0-0.2,0-0.3,0.1c-0.1,0-0.1,0.1-0.2,0.2c0,0.1-0.1,0.1-0.1,0.2
				c0,0.1,0,0.2,0.1,0.3c0.1,0.1,0.2,0.2,0.3,0.2c0.1,0.1,0.2,0.1,0.4,0.1l0.4,0.1c0.2,0.1,0.5,0.2,0.7,0.3c0.2,0.1,0.4,0.2,0.5,0.4
				c0.1,0.1,0.3,0.3,0.3,0.5c0.1,0.2,0.1,0.4,0.1,0.7c0,0.3-0.1,0.6-0.2,0.9c-0.2,0.2-0.4,0.5-0.6,0.6c-0.3,0.2-0.6,0.3-0.9,0.3
				c-0.3,0.1-0.7,0.1-1,0.1C430.2,34.2,429.5,34.1,428.9,33.8z"/>
			<path class="st1" d="M437.5,34.2c-0.9,0-1.7-0.3-2.4-0.8c-0.6-0.6-0.9-1.4-0.9-2.3c-0.1-0.9,0.3-1.7,0.9-2.3
				c0.7-0.6,1.5-0.9,2.4-0.9c0.9-0.1,1.7,0.3,2.3,0.9c0.6,0.6,0.9,1.4,0.9,2.2c0,0.9-0.3,1.7-0.9,2.4
				C439.3,33.9,438.4,34.2,437.5,34.2z M437.5,29.3c-0.4,0-0.8,0.2-1,0.5c-0.3,0.4-0.4,0.8-0.4,1.3c0,1.1,0.5,1.7,1.4,1.7
				s1.3-0.6,1.3-1.8S438.5,29.3,437.5,29.3L437.5,29.3z"/>
			<path class="st1" d="M445.9,26.5c-0.2-0.1-0.4-0.1-0.7-0.1c-0.6,0-0.9,0.3-0.9,1V28h1.4v1.4h-1.4V34h-1.8v-4.6h-1V28h1v-0.7
				c0-0.6,0.2-1.2,0.7-1.7c0.5-0.4,1.1-0.7,1.8-0.6c0.3,0,0.6,0,0.9,0.1L445.9,26.5z"/>
			<path class="st1" d="M450.4,33.9c-0.4,0.2-0.8,0.2-1.2,0.2c-1.3,0-2-0.7-2-2v-2.8h-1V28h1v-1.3l1.8-0.5V28h1.4v1.4h-1.4v2.4
				c0,0.6,0.3,0.9,0.8,0.9c0.2,0,0.4-0.1,0.6-0.2V33.9z"/>
			<path class="st1" d="M402.8,41.5c-0.3,0-0.6-0.1-0.8-0.3c-0.2-0.2-0.3-0.4-0.3-0.7c0-0.3,0.1-0.5,0.3-0.7
				c0.2-0.2,0.5-0.3,0.8-0.3c0.3,0,0.6,0.1,0.8,0.3c0.2,0.2,0.3,0.4,0.3,0.7c0,0.3-0.1,0.5-0.3,0.7
				C403.4,41.4,403.1,41.5,402.8,41.5z M403.7,48.4h-1.9v-6h1.9V48.4z"/>
			<path class="st1" d="M411.2,48.4h-1.9v-0.8l0,0c-0.4,0.6-1.1,1-1.9,1c-0.7,0-1.4-0.3-1.8-0.8c-0.5-0.6-0.7-1.4-0.7-2.2
				c0-0.9,0.2-1.7,0.8-2.4c0.5-0.6,1.2-0.9,2-0.9c0.7-0.1,1.3,0.3,1.6,0.8l0,0v-3.6h1.9L411.2,48.4z M409.4,45.5V45
				c0-0.4-0.1-0.7-0.3-1c-0.2-0.3-0.5-0.4-0.9-0.4c-0.4,0-0.8,0.2-1,0.5c-0.2,0.4-0.4,0.9-0.3,1.3c0,0.4,0.1,0.9,0.3,1.2
				c0.4,0.5,1.2,0.6,1.7,0.2c0.1-0.1,0.1-0.1,0.2-0.2C409.2,46.3,409.4,45.9,409.4,45.5L409.4,45.5z"/>
			<path class="st1" d="M418.1,45.9h-3.9c0.1,0.9,0.6,1.3,1.6,1.3c0.6,0,1.2-0.1,1.7-0.5v1.3c-0.7,0.3-1.4,0.5-2.2,0.5
				c-1.5,0.2-2.9-1-3.1-2.5c0-0.2,0-0.4,0-0.6c0-0.9,0.3-1.7,0.9-2.4c0.6-0.6,1.3-0.9,2.1-0.9c0.7,0,1.5,0.2,2,0.8
				c0.5,0.6,0.8,1.3,0.7,2.1L418.1,45.9z M416.4,44.8c0-0.9-0.3-1.3-1-1.3c-0.3,0-0.6,0.1-0.8,0.4c-0.2,0.3-0.4,0.6-0.4,0.9
				L416.4,44.8z"/>
			<path class="st1" d="M425.1,48.4h-1.9v-3.3c0-0.9-0.3-1.4-1-1.4c-0.3,0-0.6,0.1-0.8,0.4c-0.2,0.3-0.3,0.6-0.3,0.9v3.4h-1.8v-6
				h1.9v1l0,0c0.4-0.7,1.1-1.1,1.9-1.1c1.3,0,2,0.8,2,2.5L425.1,48.4z"/>
			<path class="st1" d="M430.1,48.3c-0.4,0.2-0.8,0.2-1.2,0.2c-1.3,0-2-0.7-2-2v-2.8h-1v-1.4h1v-1.3l1.8-0.5v1.8h1.4v1.4h-1.4v2.4
				c0,0.6,0.3,0.9,0.8,0.9c0.2,0,0.4-0.1,0.6-0.2V48.3z"/>
			<path class="st1" d="M432.2,41.5c-0.3,0-0.6-0.1-0.8-0.3c-0.2-0.2-0.3-0.4-0.3-0.7c0-0.3,0.1-0.5,0.3-0.7
				c0.2-0.2,0.5-0.3,0.8-0.3c0.3,0,0.6,0.1,0.8,0.3c0.2,0.2,0.3,0.4,0.3,0.7c0,0.3-0.1,0.5-0.3,0.7
				C432.7,41.4,432.5,41.5,432.2,41.5z M433.1,48.4h-1.9v-6h1.9V48.4z"/>
			<path class="st1" d="M438.2,48.3c-0.4,0.2-0.8,0.2-1.2,0.2c-1.3,0-2-0.7-2-2v-2.8h-1v-1.4h1v-1.3l1.8-0.5v1.8h1.4v1.4h-1.4v2.4
				c0,0.6,0.3,0.9,0.8,0.9c0.2,0,0.4-0.1,0.6-0.2V48.3z"/>
			<path class="st1" d="M445.2,42.4l-2.4,6.5c-0.6,1.6-1.5,2.3-2.6,2.3c-0.4,0-0.8,0-1.1-0.2v-1.5c0.2,0.1,0.5,0.2,0.8,0.2
				c0.4,0,0.9-0.3,1-0.7l0.3-0.7l-2.4-6h2l1.1,3.7c0.1,0.3,0.1,0.5,0.2,0.8l0,0c0-0.3,0.1-0.5,0.2-0.8l1.1-3.7L445.2,42.4z"/>
			<path class="st1" d="M400.9,62.1L400.9,62.1v3.5H399v-8.8h1.9v0.9l0,0c0.7-1.1,2.2-1.4,3.3-0.6c0.2,0.1,0.3,0.2,0.5,0.4
				c0.5,0.6,0.7,1.4,0.6,2.2c0,0.9-0.2,1.7-0.7,2.4c-0.5,0.6-1.2,0.9-2,0.9C401.8,63,401.2,62.6,400.9,62.1z M400.8,59.7v0.5
				c0,0.4,0.1,0.7,0.3,1c0.2,0.3,0.5,0.4,0.9,0.4c0.4,0,0.8-0.2,1-0.5c0.3-0.4,0.4-0.9,0.4-1.4c0-1-0.4-1.6-1.2-1.6
				c-0.4,0-0.7,0.2-0.9,0.4C401,58.8,400.8,59.2,400.8,59.7L400.8,59.7z"/>
			<path class="st1" d="M408.4,62.8h-1.9v-8.9h1.9V62.8z"/>
			<path class="st1" d="M414.9,62.8h-1.8V62l0,0c-0.4,0.6-1,1-1.8,1c-0.5,0-1-0.2-1.4-0.5c-0.3-0.4-0.5-0.8-0.5-1.3
				c0-1.2,0.7-1.8,2.1-2l1.6-0.2c0-0.7-0.4-1-1.1-1c-0.7,0-1.4,0.2-2,0.6v-1.4c0.3-0.2,0.7-0.3,1.1-0.3c0.4-0.1,0.8-0.2,1.2-0.2
				c1.2-0.2,2.4,0.7,2.6,1.9c0,0.2,0,0.4,0,0.6L414.9,62.8z M413.2,60.4V60l-1.1,0.1c-0.6,0.1-0.9,0.4-0.9,0.8
				c0,0.2,0.1,0.4,0.2,0.5c0.2,0.1,0.4,0.2,0.6,0.2c0.3,0,0.6-0.1,0.9-0.4C413.1,61.1,413.2,60.7,413.2,60.4z"/>
			<path class="st1" d="M419.9,62.7c-0.4,0.2-0.8,0.2-1.2,0.2c-1.3,0-2-0.7-2-2v-2.8h-1v-1.4h1v-1.3l1.9-0.5v1.8h1.3v1.4h-1.3v2.4
				c0,0.6,0.2,0.9,0.7,0.9c0.2,0,0.4-0.1,0.6-0.2L419.9,62.7z"/>
			<path class="st1" d="M425,55.3c-0.2-0.1-0.4-0.1-0.7-0.1c-0.6,0-0.9,0.3-0.9,1v0.6h1.4v1.4h-1.4v4.6h-1.9v-4.7h-1v-1.4h1v-0.7
				c0-0.6,0.2-1.2,0.7-1.7c0.5-0.4,1.2-0.7,1.8-0.6c0.3,0,0.6,0,0.9,0.1V55.3z"/>
			<path class="st1" d="M428.6,63c-0.9,0-1.7-0.3-2.4-0.8c-1.2-1.3-1.2-3.3,0-4.6c0.7-0.6,1.5-0.9,2.4-0.8c0.9-0.1,1.7,0.3,2.3,0.8
				c0.6,0.6,0.9,1.4,0.9,2.2c0,0.9-0.3,1.7-0.9,2.4C430.3,62.7,429.5,63,428.6,63z M428.7,58.1c-0.4,0-0.8,0.2-1,0.5
				c-0.3,0.4-0.4,0.8-0.4,1.3c0,1.2,0.5,1.7,1.4,1.7s1.3-0.6,1.3-1.8S429.6,58.1,428.7,58.1L428.7,58.1z"/>
			<path class="st1" d="M437,58.5c-0.2-0.1-0.5-0.2-0.8-0.2c-0.4,0-0.7,0.1-0.9,0.4c-0.2,0.4-0.4,0.8-0.3,1.2v2.9h-1.9v-6h1.9v1.1
				l0,0c0.2-0.7,0.8-1.2,1.6-1.2c0.2,0,0.3,0,0.5,0.1L437,58.5z"/>
			<path class="st1" d="M447.4,62.8h-1.9v-3.4c0-0.9-0.3-1.3-1-1.3c-0.3,0-0.6,0.1-0.7,0.4c-0.2,0.3-0.3,0.6-0.3,1v3.4h-1.8v-3.5
				c0-0.8-0.3-1.3-0.9-1.3c-0.3,0-0.6,0.1-0.8,0.4c-0.2,0.3-0.3,0.6-0.3,1v3.3h-1.9v-6h1.9v0.9l0,0c0.2-0.3,0.5-0.6,0.8-0.8
				c0.3-0.2,0.7-0.3,1.1-0.3c0.8,0,1.5,0.4,1.7,1.1c0.4-0.7,1.2-1.1,2-1.1c1.3,0,2,0.8,2,2.4L447.4,62.8z"/>
		</g>
		<g>
			<polygon class="st11" points="187.1,85.1 179.5,90.6 182.4,99.4 191.8,99.4 194.6,90.6 			"/>
			<g>
				<g>
					<path class="st12" d="M207.5,98.6h-1.1l-0.9-2.4h-3.6l-0.8,2.4H200l3.2-8.4h1L207.5,98.6z M205.2,95.3l-1.3-3.6
						c-0.1-0.2-0.1-0.4-0.1-0.6l0,0c0,0.2-0.1,0.4-0.1,0.6l-1.3,3.6H205.2z"/>
					<path class="st12" d="M212.5,98.3c-0.5,0.3-1.1,0.4-1.6,0.4c-0.8,0-1.5-0.3-2.1-0.8c-0.5-0.6-0.8-1.4-0.8-2.2
						c0-0.9,0.3-1.7,0.9-2.4c0.6-0.6,1.4-0.9,2.3-0.9c0.5,0,1,0.1,1.4,0.3v1c-0.4-0.3-0.9-0.5-1.4-0.5c-0.6,0-1.1,0.2-1.5,0.7
						c-0.4,0.5-0.6,1.1-0.6,1.7c0,0.6,0.2,1.2,0.6,1.7c0.4,0.4,0.9,0.6,1.5,0.6c0.5,0,1.1-0.2,1.5-0.5L212.5,98.3z"/>
					<path class="st12" d="M218,98.3c-0.5,0.3-1.1,0.4-1.6,0.4c-0.8,0-1.5-0.3-2.1-0.8c-0.5-0.6-0.8-1.4-0.8-2.2
						c0-0.9,0.3-1.7,0.9-2.4c0.6-0.6,1.4-0.9,2.3-0.9c0.5,0,1,0.1,1.4,0.3v1c-0.4-0.3-0.9-0.5-1.4-0.5c-0.6,0-1.1,0.2-1.5,0.7
						c-0.4,0.5-0.6,1.1-0.6,1.7c0,0.6,0.1,1.2,0.5,1.6c0.4,0.4,0.9,0.6,1.5,0.6c0.5,0,1.1-0.2,1.5-0.5L218,98.3z"/>
					<path class="st12" d="M224.1,95.8h-4.2c0,0.6,0.2,1.1,0.5,1.5c0.4,0.4,0.9,0.6,1.4,0.6c0.7,0,1.3-0.2,1.9-0.7v0.9
						c-0.6,0.4-1.3,0.6-2.1,0.6c-0.8,0-1.5-0.3-2-0.8c-1-1.4-1-3.2,0.1-4.6c0.5-0.6,1.2-0.9,2-0.9c0.7,0,1.4,0.2,1.8,0.8
						c0.5,0.6,0.7,1.4,0.6,2.1L224.1,95.8z M223.1,95c0-0.5-0.1-0.9-0.4-1.3c-0.3-0.3-0.7-0.5-1.1-0.5c-0.4,0-0.9,0.2-1.2,0.5
						c-0.3,0.3-0.5,0.8-0.6,1.3L223.1,95z"/>
					<path class="st12" d="M225.2,98.4v-1c0.5,0.4,1.1,0.6,1.7,0.6c0.8,0,1.3-0.3,1.3-0.8c0-0.1,0-0.3-0.1-0.4
						c-0.1-0.1-0.2-0.2-0.3-0.3c-0.1-0.1-0.3-0.2-0.4-0.2l-0.5-0.2c-0.3-0.1-0.5-0.2-0.7-0.3c-0.2-0.1-0.4-0.2-0.5-0.4
						c-0.1-0.1-0.2-0.3-0.3-0.5c-0.1-0.2-0.1-0.4-0.1-0.6c0-0.3,0.1-0.5,0.2-0.8c0.1-0.2,0.3-0.4,0.5-0.5c0.2-0.2,0.5-0.3,0.7-0.3
						c0.3-0.1,0.6-0.1,0.9-0.1c0.5,0,1,0.1,1.4,0.3v1c-0.5-0.3-1-0.4-1.5-0.4c-0.2,0-0.3,0-0.5,0.1c-0.1,0-0.3,0.1-0.4,0.2
						c-0.1,0.1-0.2,0.2-0.2,0.3c-0.1,0.1-0.1,0.2-0.1,0.3c0,0.1,0,0.3,0.1,0.4c0.1,0.1,0.1,0.2,0.3,0.3c0.1,0.1,0.3,0.2,0.4,0.2
						l0.5,0.2c0.3,0.1,0.5,0.2,0.7,0.3c0.2,0.1,0.4,0.2,0.5,0.4c0.1,0.1,0.3,0.3,0.4,0.5c0.1,0.2,0.1,0.4,0.1,0.6
						c0,0.3-0.1,0.5-0.2,0.8c-0.1,0.2-0.3,0.4-0.5,0.6c-0.2,0.1-0.5,0.3-0.8,0.3c-0.3,0.1-0.6,0.1-0.9,0.1
						C226.2,98.8,225.7,98.6,225.2,98.4z"/>
					<path class="st12" d="M230.3,98.4v-1c0.5,0.4,1.1,0.6,1.7,0.6c0.8,0,1.3-0.3,1.3-0.8c0-0.1,0-0.3-0.1-0.4
						c-0.1-0.1-0.2-0.2-0.3-0.3c-0.1-0.1-0.3-0.2-0.4-0.2l-0.5-0.2l-0.7-0.3c-0.2-0.1-0.4-0.2-0.5-0.4c-0.1-0.1-0.2-0.3-0.3-0.5
						c-0.1-0.2-0.1-0.4-0.1-0.6c0-0.3,0.1-0.5,0.2-0.8c0.1-0.2,0.3-0.4,0.5-0.5c0.2-0.2,0.5-0.3,0.7-0.3c0.3-0.1,0.6-0.1,0.9-0.1
						c0.5,0,1,0.1,1.4,0.3v1c-0.5-0.3-1-0.4-1.5-0.4c-0.2,0-0.3,0-0.5,0.1c-0.1,0-0.3,0.1-0.4,0.2c-0.1,0.1-0.2,0.2-0.2,0.3
						c-0.1,0.1-0.1,0.2-0.1,0.3c0,0.1,0,0.3,0.1,0.4c0.1,0.1,0.1,0.2,0.3,0.3c0.1,0.1,0.3,0.2,0.4,0.2l0.5,0.2
						c0.3,0.1,0.5,0.2,0.7,0.3c0.2,0.1,0.4,0.2,0.5,0.4c0.1,0.1,0.3,0.3,0.4,0.5c0.1,0.2,0.1,0.4,0.1,0.6c0,0.3-0.1,0.5-0.2,0.8
						c-0.1,0.2-0.3,0.4-0.5,0.6c-0.2,0.1-0.5,0.3-0.8,0.3c-0.3,0.1-0.6,0.1-0.9,0.1C231.3,98.8,230.8,98.6,230.3,98.4z"/>
					<path class="st12" d="M241.8,98.5c-0.3,0.1-0.6,0.2-0.9,0.2c-1.1,0-1.6-0.6-1.6-1.8v-3.5h-1v-0.8h1v-1.5l1-0.3v1.8h1.5v0.8
						h-1.5v3.4c0,0.3,0,0.6,0.2,0.9c0.2,0.2,0.4,0.3,0.7,0.3c0.2,0,0.4-0.1,0.6-0.2L241.8,98.5z"/>
					<path class="st12" d="M245.4,98.7c-0.8,0-1.6-0.3-2.1-0.8c-0.5-0.6-0.8-1.4-0.8-2.2c-0.1-0.9,0.2-1.7,0.8-2.4
						c0.6-0.6,1.4-0.9,2.2-0.8c0.8,0,1.6,0.3,2.1,0.8c0.5,0.6,0.8,1.5,0.8,2.3c0,0.8-0.2,1.7-0.8,2.3
						C247.1,98.4,246.3,98.8,245.4,98.7z M245.5,93.2c-0.6,0-1.1,0.2-1.5,0.6c-0.4,0.5-0.6,1.1-0.5,1.7c0,0.6,0.2,1.2,0.5,1.7
						c0.4,0.4,0.9,0.6,1.5,0.6c0.6,0,1.1-0.2,1.5-0.6c0.4-0.5,0.5-1.1,0.5-1.7c0-0.6-0.1-1.2-0.5-1.7
						C246.6,93.4,246.1,93.2,245.5,93.2z"/>
					<path class="st12" d="M254.9,98.6h-1.3l-2.6-2.9l0,0v2.9h-1v-8.9h1v5.6l0,0l2.5-2.7h1.3l-2.8,2.9L254.9,98.6z"/>
					<path class="st12" d="M260.4,95.8h-4.2c0,0.6,0.2,1.1,0.5,1.5c0.4,0.4,0.9,0.6,1.4,0.6c0.7,0,1.3-0.2,1.9-0.7v0.9
						c-0.6,0.4-1.3,0.6-2.1,0.6c-0.8,0-1.5-0.3-2-0.8c-0.5-0.7-0.8-1.5-0.7-2.3c0-0.8,0.2-1.6,0.8-2.3c0.5-0.6,1.2-0.9,2-0.9
						c0.7,0,1.4,0.2,1.8,0.8c0.5,0.6,0.7,1.4,0.6,2.1L260.4,95.8z M259.4,95c0-0.5-0.1-0.9-0.4-1.3c-0.3-0.3-0.7-0.5-1.1-0.5
						c-0.4,0-0.9,0.2-1.2,0.5c-0.3,0.4-0.5,0.8-0.6,1.3H259.4z"/>
					<path class="st12" d="M266.9,98.6h-1v-3.4c0-1.3-0.5-1.9-1.4-1.9c-0.5,0-0.9,0.2-1.2,0.6c-0.3,0.4-0.5,0.9-0.5,1.4v3.4h-1v-6h1
						v1l0,0c0.4-0.7,1.2-1.2,2-1.1c0.6,0,1.1,0.2,1.5,0.6c0.4,0.5,0.6,1.2,0.5,1.8L266.9,98.6z"/>
				</g>
				<g>
					<path class="st12" d="M207.3,84.4h-1v-3.8H202v3.8h-1V76h1v3.7h4.4V76h1L207.3,84.4z"/>
					<path class="st12" d="M214.3,76.9h-2.4v7.5h-1v-7.5h-2.4V76h5.8V76.9z"/>
					<path class="st12" d="M220.9,76.9h-2.4v7.5h-1v-7.5h-2.4V76h5.8L220.9,76.9z"/>
					<path class="st12" d="M223.1,81.2v3.2h-1V76h2.3c0.7,0,1.5,0.2,2.1,0.7c0.5,0.5,0.8,1.2,0.8,1.9c0,0.8-0.3,1.5-0.8,2
						c-0.6,0.5-1.4,0.8-2.2,0.8L223.1,81.2z M223.1,76.9v3.4h1c0.6,0,1.1-0.1,1.6-0.5c0.4-0.3,0.6-0.8,0.5-1.3c0-1.1-0.6-1.7-2-1.7
						H223.1z"/>
					<path class="st12" d="M238.4,83.8c-0.9,0.5-1.8,0.7-2.8,0.7c-1.1,0-2.1-0.4-2.9-1.2c-0.8-0.8-1.2-1.9-1.1-3.1
						c0-1.2,0.4-2.3,1.2-3.2c0.8-0.8,2-1.3,3.2-1.3c0.8,0,1.6,0.1,2.3,0.4v1.1c-0.7-0.4-1.6-0.7-2.4-0.6c-0.9,0-1.7,0.3-2.3,1
						c-0.6,0.7-0.9,1.6-0.9,2.5c-0.1,0.9,0.2,1.8,0.8,2.5c0.6,0.6,1.4,1,2.3,0.9c0.6,0,1.2-0.1,1.7-0.4v-2.4h-1.9V80h2.8L238.4,83.8
						z"/>
					<path class="st12" d="M244.8,84.4h-4.5V76h4.3v0.9h-3.3v2.8h3v0.9h-3v2.9h3.5V84.4z"/>
					<path class="st12" d="M251.4,76.9H249v7.5h-1v-7.5h-2.4V76h5.8L251.4,76.9z"/>
					<path class="st12" d="M261.8,81.3h-2.4v2.4h-0.8v-2.4h-2.4v-0.8h2.4v-2.4h0.8v2.4h2.4V81.3z"/>
				</g>
			</g>
		</g>
	</g>
</g>
<g id="bg">
	<g id="Shapes_1_">
		<rect class="st1" width="475.7" height="151.4"/>
		<rect y="0.7" class="st4" width="105" height="150"/>
		<rect x="371" y="0.7" class="st5" width="104.7" height="90"/>
		<rect x="371" y="95.7" class="st6" width="104.7" height="55"/>
		<g>
			<g>
				<path class="st7" d="M18.5,29.2c0-0.8,0.7-1.5,1.5-1.5c0,0,0,0,0,0H83c0.8,0,1.5,0.7,1.5,1.5v37.2c0,0.8-0.7,1.5-1.5,1.5H20.1
					c-0.8,0-1.5-0.7-1.5-1.5L18.5,29.2z M15.1,27.4v40.7c0,1.8,1.5,3.3,3.3,3.3c0,0,0,0,0,0h66.3c1.8,0,3.3-1.4,3.3-3.3c0,0,0,0,0,0
					V27.4c0-1.8-1.5-3.3-3.3-3.3c0,0,0,0,0,0H18.4C16.5,24.1,15.1,25.6,15.1,27.4C15.1,27.4,15.1,27.4,15.1,27.4z"/>
				<path class="st7" d="M12.4,74.9h78.3c0.5,0,0.9,0.4,0.9,0.9c0,0,0,0,0,0v2.6c0,0.5-0.4,0.9-0.9,0.9c0,0,0,0,0,0H12.4
					c-0.5,0-0.9-0.4-0.9-0.9c0,0,0,0,0,0v-2.6C11.5,75.3,11.9,74.9,12.4,74.9C12.4,74.9,12.4,74.9,12.4,74.9z"/>
				<path class="st1" d="M42.6,76.4h17.8c0.1,0,0.3,0.1,0.3,0.3v0.7c0,0.1-0.1,0.3-0.3,0.3H42.6c-0.1,0-0.3-0.1-0.3-0.3v-0.7
					C42.3,76.6,42.5,76.4,42.6,76.4z"/>
			</g>
			<g>
				<path class="st8" d="M58.4,51.5l0.7-1.6l-0.2-0.2l-1.5-1.3v-1.3l1.7-1.5l-0.7-1.7h-0.3l-2,0.1l-0.9-0.9l0.1-2.3l-1.6-0.7
					l-0.2,0.2l-1.3,1.5h-1.3l-1.5-1.7l-1.7,0.7v0.3l0.1,2l-1,0.9l-2.3-0.1L44,45.5l0.2,0.2l1.5,1.3v1.3L44,49.9l0.7,1.7h0.3l2-0.1
					l0.9,1l-0.1,2.3l1.6,0.7l0.2-0.2l1.3-1.5h1.3l1.5,1.7l1.7-0.7v-0.3l-0.1-2l1-0.9L58.4,51.5z M50.1,51.1
					c-1.9-0.8-2.7-2.9-1.9-4.8s2.9-2.7,4.8-1.9c1.9,0.8,2.7,2.9,1.9,4.8l0,0C54.1,51,52,51.9,50.1,51.1L50.1,51.1"/>
				<path class="st8" d="M51.5,65c-9.6,0-17.3-7.8-17.3-17.3s7.8-17.3,17.3-17.3s17.3,7.8,17.3,17.3c0,0,0,0,0,0
					C68.8,57.3,61.1,65,51.5,65z M51.5,34.5c-7.3,0-13.1,5.9-13.1,13.1c0,7.3,5.9,13.1,13.1,13.1c7.2,0,13.1-5.9,13.1-13.1
					C64.7,40.5,58.8,34.6,51.5,34.5C51.5,34.6,51.5,34.6,51.5,34.5L51.5,34.5z"/>
				<path class="st8" d="M51.5,65c-9.6,0-17.3-7.8-17.3-17.3s7.8-17.3,17.3-17.3s17.3,7.8,17.3,17.3c0,0,0,0,0,0
					C68.8,57.3,61.1,65,51.5,65z M51.5,34.5c-7.3,0-13.1,5.9-13.1,13.1c0,7.3,5.9,13.1,13.1,13.1c7.2,0,13.1-5.9,13.1-13.1
					C64.7,40.5,58.8,34.6,51.5,34.5C51.5,34.6,51.5,34.6,51.5,34.5L51.5,34.5z"/>
				<path class="st8" d="M51.5,65c-9.6,0-17.3-7.8-17.3-17.3s7.8-17.3,17.3-17.3s17.3,7.8,17.3,17.3c0,0,0,0,0,0
					C68.8,57.3,61.1,65,51.5,65z M51.5,34.5c-7.3,0-13.1,5.9-13.1,13.1c0,7.3,5.9,13.1,13.1,13.1c7.2,0,13.1-5.9,13.1-13.1
					C64.7,40.5,58.8,34.6,51.5,34.5C51.5,34.6,51.5,34.6,51.5,34.5L51.5,34.5z"/>
				<path class="st9" d="M51.5,65.9c-10,0-18.1-8.1-18.1-18.2s8.1-18.1,18.2-18.1c10,0,18.1,8.1,18.1,18.1
					C69.7,57.8,61.5,65.9,51.5,65.9z M51.5,30.3c-9.6,0-17.4,7.8-17.4,17.5s7.8,17.4,17.5,17.4c9.6,0,17.4-7.8,17.4-17.5
					C69,38.1,61.2,30.3,51.5,30.3C51.5,30.3,51.5,30.3,51.5,30.3z"/>
				<path class="st9" d="M51.5,65.9c-10,0-18.1-8.1-18.1-18.2s8.1-18.1,18.2-18.1c10,0,18.1,8.1,18.1,18.1
					C69.7,57.8,61.5,65.9,51.5,65.9z M51.5,30.3c-9.6,0-17.4,7.8-17.4,17.5s7.8,17.4,17.5,17.4c9.6,0,17.4-7.8,17.4-17.5
					C69,38.1,61.2,30.3,51.5,30.3C51.5,30.3,51.5,30.3,51.5,30.3z"/>
				<path class="st9" d="M51.5,66.2C41.3,66.2,33,58,33,47.7c0-10.2,8.3-18.5,18.5-18.5S70,37.5,70,47.7c0,0,0,0,0,0
					C70,57.9,61.7,66.2,51.5,66.2z M51.5,30.6c-9.4,0-17.1,7.7-17.1,17.1s7.7,17.1,17.1,17.1s17.1-7.7,17.1-17.1S61,30.6,51.5,30.6
					L51.5,30.6z"/>
			</g>
		</g>
		<g>
			<line class="st10" x1="104.9" y1="14.6" x2="365.5" y2="14.6"/>
			<polygon points="364.4,18.3 370.9,14.6 364.4,10.8 			"/>
		</g>
		<g>
			<line class="st10" x1="110.3" y1="44.5" x2="370.9" y2="44.5"/>
			<polygon points="111.4,48.2 104.9,44.5 111.4,40.7 			"/>
		</g>
		<g>
			<line class="st10" x1="104.9" y1="103.9" x2="365.5" y2="103.9"/>
			<polygon points="364.4,107.6 370.9,103.9 364.4,100.1 			"/>
		</g>
		<g>
			<line class="st10" x1="110.3" y1="140" x2="370.9" y2="140"/>
			<polygon points="111.4,143.8 105,140 111.4,136.3 			"/>
		</g>
		
			<use xlink:href="#New_Symbol_44"  width="20" height="20" x="-10" y="-10" transform="matrix(1 0 0 1 164.14 139.57)" style="overflow:visible;"/>
		
			<use xlink:href="#New_Symbol_43"  width="20" height="20" x="-10" y="-10" transform="matrix(1 0 0 1 164.14 103.88)" style="overflow:visible;"/>
		
			<use xlink:href="#New_Symbol_42"  width="20" height="20" x="-10" y="-10" transform="matrix(1 0 0 1 164.14 44.45)" style="overflow:visible;"/>
		
			<use xlink:href="#New_Symbol_41"  width="20" height="20" x="-10" y="-10" transform="matrix(1 0 0 1 164.14 14.57)" style="overflow:visible;"/>
		<polygon class="st11" points="187.1,26.6 179.5,32 182.4,40.8 191.8,40.8 194.6,32 		"/>
	</g>
	<g id="Text_1_">
		<g>
			<polygon class="st11" points="187.1,85.1 179.5,90.6 182.4,99.4 191.8,99.4 194.6,90.6 			"/>
		</g>
	</g>
</g>
<g id="txt">
	<g>
		<rect x="1.5" y="90.4" class="st13" width="102.5" height="60.4"/>
		<path class="st14" d="M20,99.3h-2.1l-0.6-1.9h-3l-0.6,1.9h-2.1l3.1-8.4H17L20,99.3z M16.9,95.9L16,93.1c-0.1-0.2-0.1-0.5-0.1-0.8
			h0c0,0.2-0.1,0.5-0.1,0.7l-0.9,2.8H16.9z"/>
		<path class="st14" d="M22.7,98.6L22.7,98.6l0,3.5h-1.9v-8.8h1.9v0.9h0c0.5-0.7,1.1-1,1.9-1c0.8,0,1.4,0.3,1.8,0.8s0.6,1.3,0.6,2.2
			c0,1-0.2,1.8-0.7,2.4s-1.2,0.9-2,0.9C23.7,99.4,23.1,99.1,22.7,98.6z M22.7,96.1v0.5c0,0.4,0.1,0.8,0.3,1s0.5,0.4,0.9,0.4
			c0.4,0,0.7-0.2,1-0.5s0.3-0.8,0.3-1.4c0-1.1-0.4-1.6-1.2-1.6c-0.4,0-0.7,0.1-0.9,0.4S22.7,95.6,22.7,96.1z"/>
		<path class="st14" d="M30.2,98.6L30.2,98.6l0,3.5h-1.9v-8.8h1.9v0.9h0c0.5-0.7,1.1-1,1.9-1c0.8,0,1.4,0.3,1.8,0.8s0.6,1.3,0.6,2.2
			c0,1-0.2,1.8-0.7,2.4s-1.2,0.9-2,0.9C31.1,99.4,30.6,99.1,30.2,98.6z M30.1,96.1v0.5c0,0.4,0.1,0.8,0.3,1S31,98,31.3,98
			c0.4,0,0.7-0.2,1-0.5s0.3-0.8,0.3-1.4c0-1.1-0.4-1.6-1.2-1.6c-0.4,0-0.7,0.1-0.9,0.4S30.1,95.6,30.1,96.1z"/>
		<path class="st14" d="M37.6,99.3h-1.9v-8.9h1.9V99.3z"/>
		<path class="st14" d="M40.1,92.3c-0.3,0-0.6-0.1-0.8-0.3S39,91.6,39,91.3c0-0.3,0.1-0.5,0.3-0.7s0.5-0.3,0.8-0.3
			c0.3,0,0.6,0.1,0.8,0.3s0.3,0.4,0.3,0.7c0,0.3-0.1,0.5-0.3,0.7S40.4,92.3,40.1,92.3z M41,99.3h-1.9v-6H41V99.3z"/>
		<path class="st14" d="M47.1,99c-0.4,0.2-1,0.4-1.8,0.4c-0.9,0-1.7-0.3-2.2-0.8s-0.9-1.3-0.9-2.2c0-1,0.3-1.8,0.9-2.4
			s1.4-0.9,2.5-0.9c0.7,0,1.2,0.1,1.5,0.3V95c-0.4-0.3-0.8-0.4-1.3-0.4c-0.5,0-1,0.2-1.3,0.5s-0.5,0.7-0.5,1.3
			c0,0.5,0.1,0.9,0.4,1.3s0.7,0.5,1.2,0.5c0.5,0,0.9-0.1,1.4-0.4V99z"/>
		<path class="st14" d="M53.3,99.3h-1.8v-0.9h0c-0.4,0.7-1,1-1.8,1c-0.6,0-1-0.2-1.4-0.5s-0.5-0.8-0.5-1.3c0-1.2,0.7-1.8,2.1-2
			l1.6-0.2c0-0.7-0.4-1-1.1-1c-0.7,0-1.4,0.2-2,0.6v-1.4c0.3-0.1,0.6-0.3,1.1-0.4s0.9-0.2,1.2-0.2c1.7,0,2.6,0.9,2.6,2.6V99.3z
			 M51.6,96.8v-0.4l-1.1,0.1c-0.6,0.1-0.9,0.3-0.9,0.8c0,0.2,0.1,0.4,0.2,0.5s0.3,0.2,0.6,0.2c0.3,0,0.6-0.1,0.8-0.4
			S51.6,97.2,51.6,96.8z"/>
		<path class="st14" d="M58.4,99.2c-0.3,0.1-0.7,0.2-1.2,0.2c-1.3,0-2-0.7-2-2v-2.7h-1v-1.4h1V92l1.8-0.5v1.8h1.3v1.4h-1.3V97
			c0,0.6,0.2,0.9,0.7,0.9c0.2,0,0.4-0.1,0.6-0.2V99.2z"/>
		<path class="st14" d="M60.4,92.3c-0.3,0-0.6-0.1-0.8-0.3s-0.3-0.4-0.3-0.7c0-0.3,0.1-0.5,0.3-0.7s0.5-0.3,0.8-0.3
			c0.3,0,0.6,0.1,0.8,0.3s0.3,0.4,0.3,0.7c0,0.3-0.1,0.5-0.3,0.7S60.7,92.3,60.4,92.3z M61.3,99.3h-1.9v-6h1.9V99.3z"/>
		<path class="st14" d="M65.7,99.4c-1,0-1.8-0.3-2.4-0.8s-0.9-1.3-0.9-2.3c0-1,0.3-1.8,0.9-2.3s1.4-0.8,2.4-0.8c1,0,1.8,0.3,2.3,0.8
			s0.8,1.3,0.8,2.2c0,1-0.3,1.8-0.9,2.4S66.7,99.4,65.7,99.4z M65.8,94.5c-0.4,0-0.8,0.2-1,0.5s-0.4,0.7-0.4,1.3
			c0,1.2,0.5,1.7,1.4,1.7c0.9,0,1.3-0.6,1.3-1.8C67.1,95.1,66.7,94.5,65.8,94.5z"/>
		<path class="st14" d="M76,99.3h-1.8v-3.3c0-0.9-0.3-1.4-1-1.4c-0.3,0-0.6,0.1-0.8,0.4S72,95.5,72,95.8v3.4h-1.9v-6H72v0.9h0
			c0.4-0.7,1.1-1.1,1.9-1.1c1.3,0,2,0.8,2,2.5V99.3z"/>
		<path class="st14" d="M86.6,99.3h-1.9v-0.8h0c-0.4,0.6-1,1-1.9,1c-0.8,0-1.4-0.3-1.8-0.8s-0.7-1.3-0.7-2.2c0-1,0.3-1.8,0.8-2.4
			s1.2-0.9,2-0.9c0.8,0,1.3,0.3,1.6,0.8h0v-3.6h1.9V99.3z M84.8,96.3v-0.5c0-0.4-0.1-0.7-0.3-1s-0.5-0.4-0.9-0.4
			c-0.4,0-0.7,0.2-1,0.5s-0.3,0.8-0.3,1.3c0,0.5,0.1,0.9,0.3,1.2s0.5,0.4,0.9,0.4c0.4,0,0.7-0.2,0.9-0.5S84.8,96.8,84.8,96.3z"/>
		<path class="st14" d="M93.6,96.8h-3.9c0.1,0.9,0.6,1.3,1.6,1.3c0.7,0,1.2-0.2,1.7-0.5V99c-0.6,0.3-1.3,0.4-2.2,0.4
			c-1,0-1.7-0.3-2.3-0.8s-0.8-1.3-0.8-2.2c0-1,0.3-1.8,0.9-2.4s1.3-0.9,2.1-0.9c0.9,0,1.6,0.3,2,0.8s0.7,1.2,0.7,2.1V96.8z
			 M91.9,95.6c0-0.9-0.3-1.3-1-1.3c-0.3,0-0.6,0.1-0.8,0.4s-0.3,0.6-0.4,0.9H91.9z"/>
		<path class="st14" d="M6.1,113L6.1,113l0,0.7H4.3v-8.9h1.9v3.8h0c0.5-0.7,1.1-1,2-1c0.8,0,1.4,0.3,1.8,0.8s0.6,1.3,0.6,2.2
			c0,1-0.2,1.8-0.7,2.4s-1.1,0.9-2,0.9C7.1,113.8,6.5,113.5,6.1,113z M6.1,110.4v0.6c0,0.4,0.1,0.7,0.3,1s0.5,0.4,0.9,0.4
			c0.4,0,0.7-0.2,1-0.5s0.3-0.8,0.3-1.4c0-0.5-0.1-0.9-0.3-1.2s-0.5-0.4-0.9-0.4c-0.4,0-0.7,0.1-0.9,0.4S6.1,110,6.1,110.4z"/>
		<path class="st14" d="M17.4,113.7h-1.8v-0.9h0c-0.5,0.7-1.1,1.1-1.8,1.1c-1.4,0-2.1-0.8-2.1-2.5v-3.6h1.8v3.5c0,0.8,0.3,1.3,1,1.3
			c0.3,0,0.6-0.1,0.8-0.3s0.3-0.5,0.3-0.9v-3.4h1.8V113.7z"/>
		<path class="st14" d="M22.9,109.3c-0.2-0.1-0.5-0.2-0.8-0.2c-0.4,0-0.7,0.1-0.9,0.4s-0.3,0.7-0.3,1.2v2.9H19v-6h1.9v1.1h0
			c0.3-0.8,0.8-1.2,1.6-1.2c0.2,0,0.3,0,0.5,0.1V109.3z"/>
		<path class="st14" d="M29.1,111.2h-3.9c0.1,0.9,0.6,1.3,1.6,1.3c0.7,0,1.2-0.2,1.7-0.5v1.3c-0.6,0.3-1.3,0.4-2.2,0.4
			c-1,0-1.7-0.3-2.3-0.8s-0.8-1.3-0.8-2.2c0-1,0.3-1.8,0.9-2.4s1.3-0.9,2.1-0.9c0.9,0,1.6,0.3,2,0.8s0.7,1.2,0.7,2.1V111.2z
			 M27.4,110c0-0.9-0.3-1.3-1-1.3c-0.3,0-0.6,0.1-0.8,0.4s-0.3,0.6-0.4,0.9H27.4z"/>
		<path class="st14" d="M35.2,113.7h-1.8v-0.9h0c-0.4,0.7-1,1-1.8,1c-0.6,0-1-0.2-1.4-0.5s-0.5-0.8-0.5-1.3c0-1.2,0.7-1.8,2.1-2
			l1.6-0.2c0-0.7-0.4-1-1.1-1c-0.7,0-1.4,0.2-2,0.6V108c0.3-0.1,0.6-0.3,1.1-0.4s0.9-0.2,1.2-0.2c1.7,0,2.6,0.9,2.6,2.6V113.7z
			 M33.4,111.2v-0.4l-1.1,0.1c-0.6,0.1-0.9,0.3-0.9,0.8c0,0.2,0.1,0.4,0.2,0.5s0.3,0.2,0.6,0.2c0.3,0,0.6-0.1,0.8-0.4
			S33.4,111.6,33.4,111.2z"/>
		<path class="st14" d="M42.4,113.7h-1.8v-0.9h0c-0.5,0.7-1.1,1.1-1.8,1.1c-1.4,0-2.1-0.8-2.1-2.5v-3.6h1.8v3.5c0,0.8,0.3,1.3,1,1.3
			c0.3,0,0.6-0.1,0.8-0.3s0.3-0.5,0.3-0.9v-3.4h1.8V113.7z"/>
		<path class="st14" d="M48,113.8c-0.3,0-0.6-0.1-0.8-0.3s-0.3-0.4-0.3-0.7c0-0.3,0.1-0.5,0.3-0.7s0.5-0.3,0.8-0.3
			c0.3,0,0.6,0.1,0.8,0.3s0.3,0.4,0.3,0.7c0,0.3-0.1,0.5-0.3,0.7S48.4,113.8,48,113.8z"/>
		<path class="st14" d="M58.2,113.7h-1.9l-3.5-5.3c-0.2-0.3-0.3-0.5-0.4-0.7h0c0,0.3,0,0.8,0,1.4v4.6h-1.8v-8.4h2l3.3,5.1
			c0.2,0.2,0.3,0.5,0.4,0.7h0c0-0.2,0-0.6,0-1.2v-4.6h1.8V113.7z"/>
		<path class="st14" d="M65.2,113.7h-5v-8.4H65v1.5h-3v1.9h2.7v1.5H62v1.9h3.1V113.7z"/>
		<path class="st14" d="M72.5,106.8h-2.4v6.9h-1.9v-6.9h-2.4v-1.5h6.7V106.8z"/>
		<path class="st14" d="M83,113.4c-0.6,0.3-1.4,0.4-2.4,0.4c-1.3,0-2.3-0.4-3-1.1s-1.1-1.8-1.1-3c0-1.3,0.4-2.4,1.2-3.3
			s1.9-1.3,3.2-1.3c0.8,0,1.5,0.1,2.1,0.3v1.8c-0.6-0.3-1.2-0.5-1.9-0.5c-0.8,0-1.4,0.2-1.9,0.7s-0.7,1.2-0.7,2
			c0,0.8,0.2,1.5,0.7,1.9s1.1,0.7,1.8,0.7c0.7,0,1.4-0.2,2-0.5V113.4z"/>
		<path class="st14" d="M87.1,113.8c-1,0-1.8-0.3-2.4-0.8s-0.9-1.3-0.9-2.3c0-1,0.3-1.8,0.9-2.3s1.4-0.8,2.4-0.8
			c1,0,1.8,0.3,2.3,0.8s0.8,1.3,0.8,2.2c0,1-0.3,1.8-0.9,2.4S88.2,113.8,87.1,113.8z M87.2,108.9c-0.4,0-0.8,0.2-1,0.5
			s-0.4,0.7-0.4,1.3c0,1.2,0.5,1.7,1.4,1.7c0.9,0,1.3-0.6,1.3-1.8C88.5,109.5,88.1,108.9,87.2,108.9z"/>
		<path class="st14" d="M95.5,109.3c-0.2-0.1-0.5-0.2-0.8-0.2c-0.4,0-0.7,0.1-0.9,0.4s-0.3,0.7-0.3,1.2v2.9h-1.9v-6h1.9v1.1h0
			c0.3-0.8,0.8-1.2,1.6-1.2c0.2,0,0.3,0,0.5,0.1V109.3z"/>
		<path class="st14" d="M101.7,111.2h-3.9c0.1,0.9,0.6,1.3,1.6,1.3c0.7,0,1.2-0.2,1.7-0.5v1.3c-0.6,0.3-1.3,0.4-2.2,0.4
			c-1,0-1.7-0.3-2.3-0.8s-0.8-1.3-0.8-2.2c0-1,0.3-1.8,0.9-2.4s1.3-0.9,2.1-0.9c0.9,0,1.6,0.3,2,0.8s0.7,1.2,0.7,2.1V111.2z
			 M100,110c0-0.9-0.3-1.3-1-1.3c-0.3,0-0.6,0.1-0.8,0.4s-0.3,0.6-0.4,0.9H100z"/>
		<path class="st14" d="M10.2,130H8.7c-1.3-1.4-1.9-3.1-1.9-5.1c0-2,0.6-3.7,1.9-5.2h1.5c-1.2,1.6-1.8,3.3-1.8,5.2S9,128.4,10.2,130
			z"/>
		<path class="st14" d="M16.9,128.1h-1.8v-3.3c0-0.9-0.3-1.4-1-1.4c-0.3,0-0.6,0.1-0.8,0.4s-0.3,0.6-0.3,0.9v3.4h-1.9v-6H13v0.9h0
			c0.4-0.7,1.1-1.1,1.9-1.1c1.3,0,2,0.8,2,2.5V128.1z"/>
		<path class="st14" d="M21.2,128.2c-1,0-1.8-0.3-2.4-0.8S18,126,18,125.1c0-1,0.3-1.8,0.9-2.3s1.4-0.8,2.4-0.8c1,0,1.8,0.3,2.3,0.8
			s0.8,1.3,0.8,2.2c0,1-0.3,1.8-0.9,2.4S22.2,128.2,21.2,128.2z M21.3,123.3c-0.4,0-0.8,0.2-1,0.5s-0.4,0.7-0.4,1.3
			c0,1.2,0.5,1.7,1.4,1.7c0.9,0,1.3-0.6,1.3-1.8C22.6,123.9,22.2,123.3,21.3,123.3z"/>
		<path class="st14" d="M31.5,128.1h-1.8v-3.3c0-0.9-0.3-1.4-1-1.4c-0.3,0-0.6,0.1-0.8,0.4s-0.3,0.6-0.3,0.9v3.4h-1.9v-6h1.9v0.9h0
			c0.4-0.7,1.1-1.1,1.9-1.1c1.3,0,2,0.8,2,2.5V128.1z"/>
		<path class="st14" d="M37.2,121.1c-0.3,0-0.6-0.1-0.8-0.3s-0.3-0.4-0.3-0.7c0-0.3,0.1-0.5,0.3-0.7s0.5-0.3,0.8-0.3
			c0.3,0,0.6,0.1,0.8,0.3s0.3,0.4,0.3,0.7c0,0.3-0.1,0.5-0.3,0.7S37.5,121.1,37.2,121.1z M38.1,128.1h-1.9v-6h1.9V128.1z"/>
		<path class="st14" d="M45.5,128.1h-1.8v-3.3c0-0.9-0.3-1.4-1-1.4c-0.3,0-0.6,0.1-0.8,0.4s-0.3,0.6-0.3,0.9v3.4h-1.9v-6h1.9v0.9h0
			c0.4-0.7,1.1-1.1,1.9-1.1c1.3,0,2,0.8,2,2.5V128.1z"/>
		<path class="st14" d="M50.6,128c-0.3,0.1-0.7,0.2-1.2,0.2c-1.3,0-2-0.7-2-2v-2.7h-1v-1.4h1v-1.3l1.8-0.5v1.8h1.3v1.4h-1.3v2.4
			c0,0.6,0.2,0.9,0.7,0.9c0.2,0,0.4-0.1,0.6-0.2V128z"/>
		<path class="st14" d="M57,125.6H53c0.1,0.9,0.6,1.3,1.6,1.3c0.7,0,1.2-0.2,1.7-0.5v1.3c-0.6,0.3-1.3,0.4-2.2,0.4
			c-1,0-1.7-0.3-2.3-0.8s-0.8-1.3-0.8-2.2c0-1,0.3-1.8,0.9-2.4s1.3-0.9,2.1-0.9c0.9,0,1.6,0.3,2,0.8s0.7,1.2,0.7,2.1V125.6z
			 M55.2,124.4c0-0.9-0.3-1.3-1-1.3c-0.3,0-0.6,0.1-0.8,0.4s-0.3,0.6-0.4,0.9H55.2z"/>
		<path class="st14" d="M62,123.7c-0.2-0.1-0.5-0.2-0.8-0.2c-0.4,0-0.7,0.1-0.9,0.4s-0.3,0.7-0.3,1.2v2.9h-1.9v-6h1.9v1.1h0
			c0.3-0.8,0.8-1.2,1.6-1.2c0.2,0,0.3,0,0.5,0.1V123.7z"/>
		<path class="st14" d="M67.8,128.1h-1.8v-0.9h0c-0.4,0.7-1,1-1.8,1c-0.6,0-1-0.2-1.4-0.5s-0.5-0.8-0.5-1.3c0-1.2,0.7-1.8,2.1-2
			l1.6-0.2c0-0.7-0.4-1-1.1-1c-0.7,0-1.4,0.2-2,0.6v-1.4c0.3-0.1,0.6-0.3,1.1-0.4s0.9-0.2,1.2-0.2c1.7,0,2.6,0.9,2.6,2.6V128.1z
			 M66.1,125.6v-0.4l-1.1,0.1c-0.6,0.1-0.9,0.3-0.9,0.8c0,0.2,0.1,0.4,0.2,0.5s0.3,0.2,0.6,0.2c0.3,0,0.6-0.1,0.8-0.4
			S66.1,126,66.1,125.6z"/>
		<path class="st14" d="M73.8,127.8c-0.4,0.2-1,0.4-1.8,0.4c-0.9,0-1.7-0.3-2.2-0.8s-0.9-1.3-0.9-2.2c0-1,0.3-1.8,0.9-2.4
			s1.4-0.9,2.5-0.9c0.7,0,1.2,0.1,1.5,0.3v1.6c-0.4-0.3-0.8-0.4-1.3-0.4c-0.5,0-1,0.2-1.3,0.5s-0.5,0.7-0.5,1.3
			c0,0.5,0.1,0.9,0.4,1.3s0.7,0.5,1.2,0.5c0.5,0,0.9-0.1,1.4-0.4V127.8z"/>
		<path class="st14" d="M78.7,128c-0.3,0.1-0.7,0.2-1.2,0.2c-1.3,0-2-0.7-2-2v-2.7h-1v-1.4h1v-1.3l1.8-0.5v1.8h1.3v1.4h-1.3v2.4
			c0,0.6,0.2,0.9,0.7,0.9c0.2,0,0.4-0.1,0.6-0.2V128z"/>
		<path class="st14" d="M80.7,121.1c-0.3,0-0.6-0.1-0.8-0.3s-0.3-0.4-0.3-0.7c0-0.3,0.1-0.5,0.3-0.7s0.5-0.3,0.8-0.3
			c0.3,0,0.6,0.1,0.8,0.3s0.3,0.4,0.3,0.7c0,0.3-0.1,0.5-0.3,0.7S81,121.1,80.7,121.1z M81.6,128.1h-1.9v-6h1.9V128.1z"/>
		<path class="st14" d="M88.8,122.1l-2.2,6h-2.1l-2.1-6h2l1,3.7c0.1,0.4,0.2,0.8,0.2,1.1h0c0-0.3,0.1-0.6,0.2-1l1.1-3.7H88.8z"/>
		<path class="st14" d="M94.9,125.6H91c0.1,0.9,0.6,1.3,1.6,1.3c0.7,0,1.2-0.2,1.7-0.5v1.3c-0.6,0.3-1.3,0.4-2.2,0.4
			c-1,0-1.7-0.3-2.3-0.8s-0.8-1.3-0.8-2.2c0-1,0.3-1.8,0.9-2.4s1.3-0.9,2.1-0.9c0.9,0,1.6,0.3,2,0.8s0.7,1.2,0.7,2.1V125.6z
			 M93.2,124.4c0-0.9-0.3-1.3-1-1.3c-0.3,0-0.6,0.1-0.8,0.4s-0.3,0.6-0.4,0.9H93.2z"/>
		<path class="st14" d="M96.8,130h-1.5c1.2-1.5,1.8-3.2,1.8-5.1c0-1.9-0.6-3.6-1.8-5.2h1.5c1.3,1.5,1.9,3.2,1.9,5.2
			C98.7,126.8,98.1,128.6,96.8,130z"/>
	</g>
	<g>
		<g>
			<path class="st15" d="M207.3,84.8h-1V81H202v3.8h-1v-8.4h1v3.7h4.3v-3.7h1V84.8z"/>
			<path class="st15" d="M214.4,77.3H212v7.5h-1v-7.5h-2.4v-0.9h5.8V77.3z"/>
			<path class="st15" d="M220.9,77.3h-2.4v7.5h-1v-7.5H215v-0.9h5.8V77.3z"/>
			<path class="st15" d="M223.1,81.6v3.2h-1v-8.4h2.3c0.9,0,1.6,0.2,2.1,0.7s0.7,1.1,0.7,1.9s-0.3,1.4-0.8,2s-1.3,0.8-2.2,0.8H223.1
				z M223.1,77.3v3.4h1c0.7,0,1.2-0.2,1.6-0.5s0.5-0.7,0.5-1.3c0-1.1-0.7-1.7-2-1.7H223.1z"/>
			<path class="st15" d="M238.3,84.2c-0.8,0.5-1.8,0.7-2.8,0.7c-1.2,0-2.2-0.4-2.9-1.2s-1.1-1.8-1.1-3.1c0-1.3,0.4-2.4,1.2-3.2
				s1.9-1.3,3.1-1.3c0.9,0,1.7,0.1,2.3,0.4v1.1c-0.7-0.4-1.5-0.6-2.4-0.6c-0.9,0-1.7,0.3-2.3,1s-0.9,1.5-0.9,2.5
				c0,1.1,0.3,1.9,0.8,2.5s1.3,0.9,2.3,0.9c0.7,0,1.2-0.1,1.7-0.4v-2.4h-1.8v-0.9h2.8V84.2z"/>
			<path class="st15" d="M244.6,84.8h-4.5v-8.4h4.3v0.9h-3.3v2.8h3V81h-3v2.9h3.5V84.8z"/>
			<path class="st15" d="M251.1,77.3h-2.4v7.5h-1v-7.5h-2.4v-0.9h5.8V77.3z"/>
			<path class="st15" d="M261.3,81.7H259v2.4h-0.8v-2.4h-2.4v-0.8h2.4v-2.4h0.8v2.4h2.4V81.7z"/>
			<path class="st15" d="M203.1,96c0,1-0.2,1.8-0.6,2.3s-1,0.8-1.7,0.8c-0.3,0-0.6,0-0.8-0.1v-1c0.2,0.2,0.5,0.2,0.8,0.2
				c0.9,0,1.3-0.8,1.3-2.3v-5.4h1V96z"/>
			<path class="st15" d="M209.9,96.3h-4.2c0,0.7,0.2,1.2,0.5,1.5s0.8,0.5,1.4,0.5c0.7,0,1.3-0.2,1.9-0.7v0.9
				c-0.5,0.4-1.2,0.6-2.1,0.6c-0.8,0-1.5-0.3-2-0.8s-0.7-1.3-0.7-2.3c0-0.9,0.3-1.7,0.8-2.3s1.2-0.9,2-0.9s1.4,0.3,1.8,0.8
				s0.6,1.2,0.6,2.1V96.3z M208.9,95.4c0-0.6-0.1-1-0.4-1.3s-0.6-0.5-1.1-0.5c-0.5,0-0.8,0.2-1.2,0.5s-0.5,0.7-0.6,1.3H208.9z"/>
			<path class="st15" d="M214.1,99c-0.2,0.1-0.5,0.2-0.9,0.2c-1.1,0-1.6-0.6-1.6-1.8v-3.6h-1V93h1v-1.5l1-0.3V93h1.5v0.8h-1.5v3.4
				c0,0.4,0.1,0.7,0.2,0.9s0.4,0.3,0.7,0.3c0.2,0,0.5-0.1,0.6-0.2V99z"/>
			<path class="st15" d="M217.8,99.2c-0.9,0-1.6-0.3-2.1-0.8s-0.8-1.3-0.8-2.2c0-1,0.3-1.8,0.8-2.4s1.3-0.8,2.2-0.8
				c0.9,0,1.6,0.3,2.1,0.8s0.8,1.3,0.8,2.3c0,1-0.3,1.7-0.8,2.3S218.7,99.2,217.8,99.2z M217.9,93.7c-0.6,0-1.1,0.2-1.5,0.6
				s-0.5,1-0.5,1.7c0,0.7,0.2,1.3,0.5,1.7s0.8,0.6,1.5,0.6c0.6,0,1.1-0.2,1.4-0.6s0.5-1,0.5-1.7c0-0.8-0.2-1.3-0.5-1.7
				S218.5,93.7,217.9,93.7z"/>
			<path class="st15" d="M227.2,99h-1v-3.4c0-1.3-0.5-1.9-1.4-1.9c-0.5,0-0.9,0.2-1.2,0.5s-0.5,0.8-0.5,1.4V99h-1v-6h1v1h0
				c0.5-0.8,1.1-1.1,2-1.1c0.7,0,1.2,0.2,1.5,0.6s0.5,1,0.5,1.8V99z"/>
			<path class="st15" d="M237.3,99h-1v-1h0c-0.4,0.8-1.1,1.2-2.1,1.2c-0.8,0-1.4-0.3-1.8-0.8s-0.7-1.3-0.7-2.2c0-1,0.3-1.8,0.8-2.4
				s1.2-0.9,2-0.9c0.8,0,1.4,0.3,1.8,1h0v-3.7h1V99z M236.3,96.3v-0.9c0-0.5-0.2-0.9-0.5-1.2s-0.7-0.5-1.2-0.5c-0.6,0-1,0.2-1.4,0.6
				s-0.5,1-0.5,1.8c0,0.7,0.2,1.2,0.5,1.6s0.8,0.6,1.3,0.6c0.5,0,1-0.2,1.3-0.6S236.3,96.9,236.3,96.3z"/>
			<path class="st15" d="M240.4,90.5l-0.8,2.6h-0.7l0.7-2.6H240.4z"/>
			<path class="st15" d="M246.1,99h-1v-0.9h0c-0.4,0.7-1,1.1-1.8,1.1c-0.6,0-1.1-0.2-1.4-0.5s-0.5-0.7-0.5-1.3c0-1.1,0.7-1.8,2-2
				l1.8-0.3c0-1-0.4-1.5-1.2-1.5c-0.7,0-1.4,0.2-2,0.7v-1c0.6-0.4,1.3-0.6,2-0.6c1.4,0,2.1,0.7,2.1,2.2V99z M245.2,96l-1.4,0.2
				c-0.4,0.1-0.8,0.2-1,0.3s-0.3,0.4-0.3,0.8c0,0.3,0.1,0.5,0.3,0.7s0.5,0.3,0.8,0.3c0.5,0,0.9-0.2,1.2-0.5s0.5-0.8,0.5-1.3V96z"/>
			<path class="st15" d="M252,98.7c-0.5,0.3-1,0.4-1.6,0.4c-0.9,0-1.5-0.3-2.1-0.8s-0.8-1.3-0.8-2.2c0-1,0.3-1.8,0.8-2.4
				s1.3-0.9,2.3-0.9c0.5,0,1,0.1,1.4,0.3v1c-0.4-0.3-0.9-0.5-1.4-0.5c-0.6,0-1.1,0.2-1.5,0.7s-0.6,1-0.6,1.7c0,0.7,0.2,1.3,0.6,1.7
				s0.9,0.6,1.5,0.6c0.5,0,1-0.2,1.5-0.5V98.7z"/>
			<path class="st15" d="M257.4,98.7c-0.5,0.3-1,0.4-1.6,0.4c-0.9,0-1.5-0.3-2.1-0.8s-0.8-1.3-0.8-2.2c0-1,0.3-1.8,0.8-2.4
				s1.3-0.9,2.3-0.9c0.5,0,1,0.1,1.4,0.3v1c-0.4-0.3-0.9-0.5-1.4-0.5c-0.6,0-1.1,0.2-1.5,0.7s-0.6,1-0.6,1.7c0,0.7,0.2,1.3,0.6,1.7
				s0.9,0.6,1.5,0.6c0.5,0,1-0.2,1.5-0.5V98.7z"/>
			<path class="st15" d="M263.6,96.3h-4.2c0,0.7,0.2,1.2,0.5,1.5s0.8,0.5,1.4,0.5c0.7,0,1.3-0.2,1.9-0.7v0.9
				c-0.5,0.4-1.2,0.6-2.1,0.6c-0.8,0-1.5-0.3-2-0.8s-0.7-1.3-0.7-2.3c0-0.9,0.3-1.7,0.8-2.3s1.2-0.9,2-0.9s1.4,0.3,1.8,0.8
				s0.6,1.2,0.6,2.1V96.3z M262.7,95.4c0-0.6-0.1-1-0.4-1.3s-0.6-0.5-1.1-0.5c-0.5,0-0.8,0.2-1.2,0.5s-0.5,0.7-0.6,1.3H262.7z
				 M262.1,91.9h-0.7l-1.5-1.9h1L262.1,91.9z"/>
			<path class="st15" d="M264.7,98.8v-1c0.5,0.4,1.1,0.6,1.7,0.6c0.8,0,1.3-0.3,1.3-0.8c0-0.2,0-0.3-0.1-0.4s-0.2-0.2-0.3-0.3
				s-0.3-0.2-0.4-0.2s-0.3-0.1-0.5-0.2c-0.3-0.1-0.5-0.2-0.7-0.3s-0.4-0.2-0.5-0.4s-0.2-0.3-0.3-0.5s-0.1-0.4-0.1-0.6
				c0-0.3,0.1-0.5,0.2-0.7s0.3-0.4,0.5-0.5s0.5-0.3,0.7-0.3s0.6-0.1,0.9-0.1c0.5,0,1,0.1,1.4,0.3v1c-0.4-0.3-0.9-0.4-1.5-0.4
				c-0.2,0-0.3,0-0.5,0.1s-0.3,0.1-0.4,0.2s-0.2,0.2-0.2,0.3s-0.1,0.2-0.1,0.3c0,0.2,0,0.3,0.1,0.4s0.1,0.2,0.2,0.3s0.2,0.2,0.4,0.2
				s0.3,0.1,0.5,0.2c0.3,0.1,0.5,0.2,0.7,0.3s0.4,0.2,0.5,0.4s0.3,0.3,0.3,0.5s0.1,0.4,0.1,0.6c0,0.3-0.1,0.6-0.2,0.8
				s-0.3,0.4-0.5,0.5s-0.5,0.3-0.8,0.3s-0.6,0.1-0.9,0.1C265.6,99.2,265.1,99,264.7,98.8z"/>
		</g>
	</g>
	<g>
		<rect x="391.3" y="25" class="st13" width="64.5" height="60.7"/>
		<path class="st16" d="M395.1,31v2.9h-1.9v-8.4h3c2.1,0,3.2,0.9,3.2,2.7c0,0.8-0.3,1.5-0.9,2S397,31,396,31H395.1z M395.1,27v2.6
			h0.7c1,0,1.5-0.4,1.5-1.3c0-0.9-0.5-1.3-1.5-1.3H395.1z"/>
		<path class="st16" d="M402.2,33.9h-1.9V25h1.9V33.9z"/>
		<path class="st16" d="M408.8,33.9H407V33h0c-0.4,0.7-1,1-1.8,1c-0.6,0-1-0.2-1.4-0.5s-0.5-0.8-0.5-1.3c0-1.2,0.7-1.8,2.1-2L407,30
			c0-0.7-0.4-1-1.1-1c-0.7,0-1.4,0.2-2,0.6v-1.4c0.3-0.1,0.6-0.3,1.1-0.4s0.9-0.2,1.2-0.2c1.7,0,2.6,0.9,2.6,2.6V33.9z M407,31.5
			v-0.4l-1.1,0.1c-0.6,0.1-0.9,0.3-0.9,0.8c0,0.2,0.1,0.4,0.2,0.5s0.3,0.2,0.6,0.2c0.3,0,0.6-0.1,0.8-0.4S407,31.8,407,31.5z"/>
		<path class="st16" d="M413.9,33.8c-0.3,0.1-0.7,0.2-1.2,0.2c-1.3,0-2-0.7-2-2v-2.7h-1v-1.4h1v-1.3l1.8-0.5v1.8h1.3v1.4h-1.3v2.4
			c0,0.6,0.2,0.9,0.7,0.9c0.2,0,0.4-0.1,0.6-0.2V33.8z"/>
		<path class="st16" d="M420.2,31.4h-3.9c0.1,0.9,0.6,1.3,1.6,1.3c0.7,0,1.2-0.2,1.7-0.5v1.3c-0.6,0.3-1.3,0.4-2.2,0.4
			c-1,0-1.7-0.3-2.3-0.8s-0.8-1.3-0.8-2.2c0-1,0.3-1.8,0.9-2.4s1.3-0.9,2.1-0.9c0.9,0,1.6,0.3,2,0.8s0.7,1.2,0.7,2.1V31.4z
			 M418.5,30.3c0-0.9-0.3-1.3-1-1.3c-0.3,0-0.6,0.1-0.8,0.4s-0.3,0.6-0.4,0.9H418.5z"/>
		<path class="st16" d="M425.3,26.4c-0.2-0.1-0.5-0.1-0.7-0.1c-0.6,0-0.9,0.3-0.9,1v0.6h1.4v1.4h-1.4v4.6h-1.8v-4.6h-1v-1.4h1v-0.7
			c0-0.7,0.2-1.2,0.7-1.7s1.1-0.6,1.8-0.6c0.4,0,0.7,0,0.9,0.1V26.4z"/>
		<path class="st16" d="M428.8,34c-1,0-1.8-0.3-2.4-0.8s-0.9-1.3-0.9-2.3c0-1,0.3-1.8,0.9-2.3s1.4-0.8,2.4-0.8c1,0,1.8,0.3,2.3,0.8
			s0.8,1.3,0.8,2.2c0,1-0.3,1.8-0.9,2.4S429.8,34,428.8,34z M428.9,29.2c-0.4,0-0.8,0.2-1,0.5s-0.4,0.7-0.4,1.3
			c0,1.2,0.5,1.7,1.4,1.7c0.9,0,1.3-0.6,1.3-1.8C430.2,29.7,429.7,29.2,428.9,29.2z"/>
		<path class="st16" d="M437.2,29.6c-0.2-0.1-0.5-0.2-0.8-0.2c-0.4,0-0.7,0.1-0.9,0.4s-0.3,0.7-0.3,1.2v2.9h-1.9v-6h1.9V29h0
			c0.3-0.8,0.8-1.2,1.6-1.2c0.2,0,0.3,0,0.5,0.1V29.6z"/>
		<path class="st16" d="M447.6,33.9h-1.8v-3.4c0-0.9-0.3-1.3-1-1.3c-0.3,0-0.6,0.1-0.7,0.4s-0.3,0.6-0.3,1v3.4h-1.9v-3.5
			c0-0.8-0.3-1.3-0.9-1.3c-0.3,0-0.6,0.1-0.8,0.4s-0.3,0.6-0.3,1v3.3h-1.9v-6h1.9v0.9h0c0.2-0.3,0.5-0.6,0.8-0.8s0.7-0.3,1.1-0.3
			c0.8,0,1.4,0.4,1.7,1.1c0.5-0.7,1.1-1.1,2-1.1c1.3,0,2,0.8,2,2.4V33.9z"/>
		<path class="st16" d="M454.5,31.4h-3.9c0.1,0.9,0.6,1.3,1.6,1.3c0.7,0,1.2-0.2,1.7-0.5v1.3c-0.6,0.3-1.3,0.4-2.2,0.4
			c-1,0-1.7-0.3-2.3-0.8s-0.8-1.3-0.8-2.2c0-1,0.3-1.8,0.9-2.4s1.3-0.9,2.1-0.9c0.9,0,1.6,0.3,2,0.8s0.7,1.2,0.7,2.1V31.4z
			 M452.8,30.3c0-0.9-0.3-1.3-1-1.3c-0.3,0-0.6,0.1-0.8,0.4s-0.3,0.6-0.4,0.9H452.8z"/>
		<path class="st16" d="M406.7,48.3h-1.9v-5c0-0.5,0-1.1,0.1-1.8h0c-0.1,0.5-0.2,0.9-0.3,1.1l-2,5.7h-1.5l-2-5.7
			c-0.1-0.2-0.1-0.5-0.3-1.2h-0.1c0.1,0.8,0.1,1.6,0.1,2.2v4.6h-1.7v-8.4h2.8l1.7,5c0.1,0.4,0.2,0.8,0.3,1.2h0
			c0.1-0.5,0.2-0.9,0.3-1.2l1.7-5h2.7V48.3z"/>
		<path class="st16" d="M409.4,41.4c-0.3,0-0.6-0.1-0.8-0.3s-0.3-0.4-0.3-0.7c0-0.3,0.1-0.5,0.3-0.7s0.5-0.3,0.8-0.3
			c0.3,0,0.6,0.1,0.8,0.3s0.3,0.4,0.3,0.7c0,0.3-0.1,0.5-0.3,0.7S409.7,41.4,409.4,41.4z M410.3,48.3h-1.9v-6h1.9V48.3z"/>
		<path class="st16" d="M416.4,48.1c-0.4,0.2-1,0.4-1.8,0.4c-0.9,0-1.7-0.3-2.2-0.8s-0.9-1.3-0.9-2.2c0-1,0.3-1.8,0.9-2.4
			s1.4-0.9,2.5-0.9c0.7,0,1.2,0.1,1.5,0.3V44c-0.4-0.3-0.8-0.4-1.3-0.4c-0.5,0-1,0.2-1.3,0.5s-0.5,0.7-0.5,1.3
			c0,0.5,0.1,0.9,0.4,1.3s0.7,0.5,1.2,0.5c0.5,0,0.9-0.1,1.4-0.4V48.1z"/>
		<path class="st16" d="M421.5,44c-0.2-0.1-0.5-0.2-0.8-0.2c-0.4,0-0.7,0.1-0.9,0.4s-0.3,0.7-0.3,1.2v2.9h-1.9v-6h1.9v1.1h0
			c0.3-0.8,0.8-1.2,1.6-1.2c0.2,0,0.3,0,0.5,0.1V44z"/>
		<path class="st16" d="M425.2,48.5c-1,0-1.8-0.3-2.4-0.8s-0.9-1.3-0.9-2.3c0-1,0.3-1.8,0.9-2.3s1.4-0.8,2.4-0.8
			c1,0,1.8,0.3,2.3,0.8s0.8,1.3,0.8,2.2c0,1-0.3,1.8-0.9,2.4S426.2,48.5,425.2,48.5z M425.2,43.6c-0.4,0-0.8,0.2-1,0.5
			s-0.4,0.7-0.4,1.3c0,1.2,0.5,1.7,1.4,1.7c0.9,0,1.3-0.6,1.3-1.8C426.6,44.1,426.1,43.6,425.2,43.6z"/>
		<path class="st16" d="M429.3,48.1v-1.5c0.3,0.2,0.6,0.3,0.9,0.4s0.6,0.1,0.9,0.1c0.3,0,0.6,0,0.8-0.1s0.3-0.2,0.3-0.4
			c0-0.1,0-0.2-0.1-0.3s-0.2-0.1-0.3-0.2s-0.3-0.1-0.4-0.2s-0.3-0.1-0.5-0.2c-0.2-0.1-0.4-0.2-0.6-0.3s-0.3-0.2-0.5-0.4
			s-0.2-0.3-0.3-0.5s-0.1-0.4-0.1-0.6c0-0.3,0.1-0.6,0.2-0.9s0.3-0.4,0.6-0.6s0.5-0.3,0.8-0.3s0.6-0.1,1-0.1c0.3,0,0.5,0,0.8,0.1
			s0.5,0.1,0.8,0.2v1.4c-0.2-0.1-0.5-0.2-0.8-0.3s-0.5-0.1-0.8-0.1c-0.1,0-0.2,0-0.3,0s-0.2,0.1-0.3,0.1s-0.1,0.1-0.2,0.2
			s-0.1,0.1-0.1,0.2c0,0.1,0,0.2,0.1,0.3s0.2,0.1,0.3,0.2s0.2,0.1,0.4,0.2s0.3,0.1,0.4,0.1c0.2,0.1,0.5,0.2,0.7,0.3s0.4,0.2,0.5,0.4
			s0.3,0.3,0.3,0.5s0.1,0.4,0.1,0.7c0,0.4-0.1,0.7-0.2,0.9s-0.4,0.5-0.6,0.6s-0.6,0.3-0.9,0.3s-0.7,0.1-1,0.1
			C430.5,48.5,429.8,48.3,429.3,48.1z"/>
		<path class="st16" d="M437.8,48.5c-1,0-1.8-0.3-2.4-0.8s-0.9-1.3-0.9-2.3c0-1,0.3-1.8,0.9-2.3s1.4-0.8,2.4-0.8
			c1,0,1.8,0.3,2.3,0.8s0.8,1.3,0.8,2.2c0,1-0.3,1.8-0.9,2.4S438.8,48.5,437.8,48.5z M437.9,43.6c-0.4,0-0.8,0.2-1,0.5
			s-0.4,0.7-0.4,1.3c0,1.2,0.5,1.7,1.4,1.7c0.9,0,1.3-0.6,1.3-1.8C439.2,44.1,438.8,43.6,437.9,43.6z"/>
		<path class="st16" d="M446,40.8c-0.2-0.1-0.5-0.1-0.7-0.1c-0.6,0-0.9,0.3-0.9,1v0.6h1.4v1.4h-1.4v4.6h-1.8v-4.6h-1v-1.4h1v-0.7
			c0-0.7,0.2-1.2,0.7-1.7s1.1-0.6,1.8-0.6c0.4,0,0.7,0,0.9,0.1V40.8z"/>
		<path class="st16" d="M450.6,48.2c-0.3,0.1-0.7,0.2-1.2,0.2c-1.3,0-2-0.7-2-2v-2.7h-1v-1.4h1V41l1.8-0.5v1.8h1.3v1.4h-1.3v2.4
			c0,0.6,0.2,0.9,0.7,0.9c0.2,0,0.4-0.1,0.6-0.2V48.2z"/>
		<path class="st16" d="M404.3,62.7h-1.9v-8.4h1.9V62.7z"/>
		<path class="st16" d="M411.9,62.7H410v-0.8h0c-0.4,0.6-1,1-1.9,1c-0.8,0-1.4-0.3-1.8-0.8s-0.7-1.3-0.7-2.2c0-1,0.3-1.8,0.8-2.4
			s1.2-0.9,2-0.9c0.8,0,1.3,0.3,1.6,0.8h0v-3.6h1.9V62.7z M410,59.8v-0.5c0-0.4-0.1-0.7-0.3-1s-0.5-0.4-0.9-0.4
			c-0.4,0-0.7,0.2-1,0.5s-0.3,0.8-0.3,1.3c0,0.5,0.1,0.9,0.3,1.2s0.5,0.4,0.9,0.4c0.4,0,0.7-0.2,0.9-0.5S410,60.3,410,59.8z"/>
		<path class="st16" d="M418.8,60.2h-3.9c0.1,0.9,0.6,1.3,1.6,1.3c0.7,0,1.2-0.2,1.7-0.5v1.3c-0.6,0.3-1.3,0.4-2.2,0.4
			c-1,0-1.7-0.3-2.3-0.8s-0.8-1.3-0.8-2.2c0-1,0.3-1.8,0.9-2.4s1.3-0.9,2.1-0.9c0.9,0,1.6,0.3,2,0.8s0.7,1.2,0.7,2.1V60.2z
			 M417.1,59.1c0-0.9-0.3-1.3-1-1.3c-0.3,0-0.6,0.1-0.8,0.4s-0.3,0.6-0.4,0.9H417.1z"/>
		<path class="st16" d="M425.7,62.7h-1.8v-3.3c0-0.9-0.3-1.4-1-1.4c-0.3,0-0.6,0.1-0.8,0.4s-0.3,0.6-0.3,0.9v3.4h-1.9v-6h1.9v0.9h0
			c0.4-0.7,1.1-1.1,1.9-1.1c1.3,0,2,0.8,2,2.5V62.7z"/>
		<path class="st16" d="M430.8,62.6c-0.3,0.1-0.7,0.2-1.2,0.2c-1.3,0-2-0.7-2-2v-2.7h-1v-1.4h1v-1.3l1.8-0.5v1.8h1.3v1.4h-1.3v2.4
			c0,0.6,0.2,0.9,0.7,0.9c0.2,0,0.4-0.1,0.6-0.2V62.6z"/>
		<path class="st16" d="M432.8,55.8c-0.3,0-0.6-0.1-0.8-0.3s-0.3-0.4-0.3-0.7c0-0.3,0.1-0.5,0.3-0.7s0.5-0.3,0.8-0.3
			c0.3,0,0.6,0.1,0.8,0.3s0.3,0.4,0.3,0.7c0,0.3-0.1,0.5-0.3,0.7S433.1,55.8,432.8,55.8z M433.7,62.7h-1.9v-6h1.9V62.7z"/>
		<path class="st16" d="M438.9,62.6c-0.3,0.1-0.7,0.2-1.2,0.2c-1.3,0-2-0.7-2-2v-2.7h-1v-1.4h1v-1.3l1.8-0.5v1.8h1.3v1.4h-1.3v2.4
			c0,0.6,0.2,0.9,0.7,0.9c0.2,0,0.4-0.1,0.6-0.2V62.6z"/>
		<path class="st16" d="M445.6,56.7l-2.4,6.5c-0.6,1.6-1.5,2.3-2.6,2.3c-0.4,0-0.8-0.1-1.1-0.2v-1.5c0.2,0.1,0.5,0.2,0.8,0.2
			c0.5,0,0.8-0.2,1-0.7l0.3-0.7l-2.4-6h2.1l1.1,3.7c0.1,0.2,0.1,0.5,0.2,0.8h0c0-0.2,0.1-0.5,0.2-0.8l1.1-3.7H445.6z"/>
	</g>
	<g>
		<rect x="370.9" y="109.2" class="st13" width="104.8" height="30.5"/>
		<path class="st17" d="M392.8,118.1h-2.1l-0.6-1.9h-3l-0.6,1.9h-2.1l3.1-8.4h2.2L392.8,118.1z M389.7,114.7l-0.9-2.8
			c-0.1-0.2-0.1-0.5-0.1-0.8h0c0,0.2-0.1,0.5-0.1,0.7l-0.9,2.8H389.7z"/>
		<path class="st17" d="M395.8,115.2v2.9h-1.9v-8.4h3c2.1,0,3.2,0.9,3.2,2.7c0,0.8-0.3,1.5-0.9,2s-1.4,0.8-2.4,0.8H395.8z
			 M395.8,111.1v2.6h0.7c1,0,1.5-0.4,1.5-1.3c0-0.9-0.5-1.3-1.5-1.3H395.8z"/>
		<path class="st17" d="M403.1,118.1h-1.9v-8.4h1.9V118.1z"/>
		<path class="st17" d="M417.9,118.1h-1.9v-5c0-0.5,0-1.1,0.1-1.8h0c-0.1,0.5-0.2,0.9-0.3,1.1l-2,5.7h-1.5l-2-5.7
			c-0.1-0.2-0.1-0.5-0.3-1.2H410c0.1,0.8,0.1,1.6,0.1,2.2v4.6h-1.7v-8.4h2.8l1.7,5c0.1,0.4,0.2,0.8,0.3,1.2h0
			c0.1-0.5,0.2-0.9,0.3-1.2l1.7-5h2.7V118.1z"/>
		<path class="st17" d="M420.6,111.1c-0.3,0-0.6-0.1-0.8-0.3s-0.3-0.4-0.3-0.7c0-0.3,0.1-0.5,0.3-0.7s0.5-0.3,0.8-0.3
			c0.3,0,0.6,0.1,0.8,0.3s0.3,0.4,0.3,0.7c0,0.3-0.1,0.5-0.3,0.7S420.9,111.1,420.6,111.1z M421.5,118.1h-1.9v-6h1.9V118.1z"/>
		<path class="st17" d="M427.6,117.8c-0.4,0.2-1,0.4-1.8,0.4c-0.9,0-1.7-0.3-2.2-0.8s-0.9-1.3-0.9-2.2c0-1,0.3-1.8,0.9-2.4
			s1.4-0.9,2.5-0.9c0.7,0,1.2,0.1,1.5,0.3v1.6c-0.4-0.3-0.8-0.4-1.3-0.4c-0.5,0-1,0.2-1.3,0.5s-0.5,0.7-0.5,1.3
			c0,0.5,0.1,0.9,0.4,1.3s0.7,0.5,1.2,0.5c0.5,0,0.9-0.1,1.4-0.4V117.8z"/>
		<path class="st17" d="M432.7,113.7c-0.2-0.1-0.5-0.2-0.8-0.2c-0.4,0-0.7,0.1-0.9,0.4s-0.3,0.7-0.3,1.2v2.9h-1.9v-6h1.9v1.1h0
			c0.3-0.8,0.8-1.2,1.6-1.2c0.2,0,0.3,0,0.5,0.1V113.7z"/>
		<path class="st17" d="M436.4,118.2c-1,0-1.8-0.3-2.4-0.8s-0.9-1.3-0.9-2.3c0-1,0.3-1.8,0.9-2.3s1.4-0.8,2.4-0.8
			c1,0,1.8,0.3,2.3,0.8s0.8,1.3,0.8,2.2c0,1-0.3,1.8-0.9,2.4S437.4,118.2,436.4,118.2z M436.5,113.3c-0.4,0-0.8,0.2-1,0.5
			s-0.4,0.7-0.4,1.3c0,1.2,0.5,1.7,1.4,1.7c0.9,0,1.3-0.6,1.3-1.8C437.8,113.9,437.4,113.3,436.5,113.3z"/>
		<path class="st17" d="M440.5,117.9v-1.5c0.3,0.2,0.6,0.3,0.9,0.4s0.6,0.1,0.9,0.1c0.3,0,0.6,0,0.8-0.1s0.3-0.2,0.3-0.4
			c0-0.1,0-0.2-0.1-0.3s-0.2-0.1-0.3-0.2s-0.3-0.1-0.4-0.2s-0.3-0.1-0.5-0.2c-0.2-0.1-0.4-0.2-0.6-0.3s-0.3-0.2-0.5-0.4
			s-0.2-0.3-0.3-0.5s-0.1-0.4-0.1-0.6c0-0.3,0.1-0.6,0.2-0.9s0.3-0.4,0.6-0.6s0.5-0.3,0.8-0.3s0.6-0.1,1-0.1c0.3,0,0.5,0,0.8,0.1
			s0.5,0.1,0.8,0.2v1.4c-0.2-0.1-0.5-0.2-0.8-0.3s-0.5-0.1-0.8-0.1c-0.1,0-0.2,0-0.3,0s-0.2,0.1-0.3,0.1s-0.1,0.1-0.2,0.2
			s-0.1,0.1-0.1,0.2c0,0.1,0,0.2,0.1,0.3s0.2,0.1,0.3,0.2s0.2,0.1,0.4,0.2s0.3,0.1,0.4,0.1c0.2,0.1,0.5,0.2,0.7,0.3s0.4,0.2,0.5,0.4
			s0.3,0.3,0.3,0.5s0.1,0.4,0.1,0.7c0,0.4-0.1,0.7-0.2,0.9s-0.4,0.5-0.6,0.6s-0.6,0.3-0.9,0.3s-0.7,0.1-1,0.1
			C441.7,118.2,441.1,118.1,440.5,117.9z"/>
		<path class="st17" d="M449,118.2c-1,0-1.8-0.3-2.4-0.8s-0.9-1.3-0.9-2.3c0-1,0.3-1.8,0.9-2.3s1.4-0.8,2.4-0.8c1,0,1.8,0.3,2.3,0.8
			s0.8,1.3,0.8,2.2c0,1-0.3,1.8-0.9,2.4S450.1,118.2,449,118.2z M449.1,113.3c-0.4,0-0.8,0.2-1,0.5s-0.4,0.7-0.4,1.3
			c0,1.2,0.5,1.7,1.4,1.7c0.9,0,1.3-0.6,1.3-1.8C450.4,113.9,450,113.3,449.1,113.3z"/>
		<path class="st17" d="M457.2,110.6c-0.2-0.1-0.5-0.1-0.7-0.1c-0.6,0-0.9,0.3-0.9,1v0.6h1.4v1.4h-1.4v4.6h-1.8v-4.6h-1v-1.4h1v-0.7
			c0-0.7,0.2-1.2,0.7-1.7s1.1-0.6,1.8-0.6c0.4,0,0.7,0,0.9,0.1V110.6z"/>
		<path class="st17" d="M461.8,118c-0.3,0.1-0.7,0.2-1.2,0.2c-1.3,0-2-0.7-2-2v-2.7h-1v-1.4h1v-1.3l1.8-0.5v1.8h1.3v1.4h-1.3v2.4
			c0,0.6,0.2,0.9,0.7,0.9c0.2,0,0.4-0.1,0.6-0.2V118z"/>
		<path class="st17" d="M413.9,132c-0.8,0.5-1.8,0.7-3.1,0.7c-1.4,0-2.4-0.4-3.2-1.1s-1.2-1.8-1.2-3.1c0-1.3,0.4-2.4,1.3-3.2
			s2-1.2,3.4-1.2c0.9,0,1.7,0.1,2.4,0.4v1.8c-0.6-0.4-1.4-0.6-2.4-0.6c-0.8,0-1.4,0.3-1.9,0.8s-0.7,1.2-0.7,2c0,0.9,0.2,1.5,0.7,2
			s1,0.7,1.8,0.7c0.5,0,0.8-0.1,1.1-0.2v-1.6h-1.7v-1.5h3.6V132z"/>
		<path class="st17" d="M419.3,128.2c-0.2-0.1-0.5-0.2-0.8-0.2c-0.4,0-0.7,0.1-0.9,0.4s-0.3,0.7-0.3,1.2v2.9h-1.9v-6h1.9v1.1h0
			c0.3-0.8,0.8-1.2,1.6-1.2c0.2,0,0.3,0,0.5,0.1V128.2z"/>
		<path class="st17" d="M425.1,132.6h-1.8v-0.9h0c-0.4,0.7-1,1-1.8,1c-0.6,0-1-0.2-1.4-0.5s-0.5-0.8-0.5-1.3c0-1.2,0.7-1.8,2.1-2
			l1.6-0.2c0-0.7-0.4-1-1.1-1c-0.7,0-1.4,0.2-2,0.6v-1.4c0.3-0.1,0.6-0.3,1.1-0.4s0.9-0.2,1.2-0.2c1.7,0,2.6,0.9,2.6,2.6V132.6z
			 M423.4,130.1v-0.4l-1.1,0.1c-0.6,0.1-0.9,0.3-0.9,0.8c0,0.2,0.1,0.4,0.2,0.5s0.3,0.2,0.6,0.2c0.3,0,0.6-0.1,0.8-0.4
			S423.4,130.5,423.4,130.1z"/>
		<path class="st17" d="M428.5,131.9L428.5,131.9l0,3.5h-1.9v-8.8h1.9v0.9h0c0.5-0.7,1.1-1,1.9-1c0.8,0,1.4,0.3,1.8,0.8
			s0.6,1.3,0.6,2.2c0,1-0.2,1.8-0.7,2.4s-1.2,0.9-2,0.9C429.4,132.7,428.8,132.4,428.5,131.9z M428.4,129.4v0.5c0,0.4,0.1,0.8,0.3,1
			s0.5,0.4,0.9,0.4c0.4,0,0.7-0.2,1-0.5s0.3-0.8,0.3-1.4c0-1.1-0.4-1.6-1.2-1.6c-0.4,0-0.7,0.1-0.9,0.4S428.4,128.9,428.4,129.4z"/>
		<path class="st17" d="M439.8,132.6h-1.8v-3.4c0-0.9-0.3-1.3-1-1.3c-0.3,0-0.6,0.1-0.8,0.4s-0.3,0.6-0.3,0.9v3.4H434v-8.9h1.9v3.8
			h0c0.5-0.7,1.1-1,1.8-1c1.4,0,2,0.8,2,2.5V132.6z"/>
	</g>
	<g>
		<path class="st15" d="M186.8,9.9h-1.1l-0.9-2.4h-3.6l-0.8,2.4h-1.1l3.2-8.4h1L186.8,9.9z M184.5,6.7l-1.3-3.6
			c0-0.1-0.1-0.3-0.1-0.6h0c0,0.2-0.1,0.4-0.1,0.6l-1.3,3.6H184.5z"/>
		<path class="st15" d="M191.9,9.6c-0.5,0.3-1,0.4-1.6,0.4c-0.9,0-1.5-0.3-2.1-0.8s-0.8-1.3-0.8-2.2c0-1,0.3-1.8,0.8-2.4
			s1.3-0.9,2.3-0.9c0.5,0,1,0.1,1.4,0.3v1c-0.4-0.3-0.9-0.5-1.4-0.5c-0.6,0-1.1,0.2-1.5,0.7s-0.6,1-0.6,1.7c0,0.7,0.2,1.3,0.6,1.7
			s0.9,0.6,1.5,0.6c0.5,0,1-0.2,1.5-0.5V9.6z"/>
		<path class="st15" d="M198.4,12.7h-1V8.9h0c-0.4,0.8-1.1,1.2-2.1,1.2c-0.8,0-1.4-0.3-1.8-0.8S192.9,8,192.9,7c0-1,0.3-1.8,0.8-2.4
			s1.2-0.9,2-0.9c0.8,0,1.4,0.3,1.8,1h0V3.9h1V12.7z M197.4,7.2V6.3c0-0.5-0.2-0.9-0.5-1.2s-0.7-0.5-1.2-0.5c-0.6,0-1,0.2-1.4,0.6
			s-0.5,1-0.5,1.8c0,0.7,0.2,1.2,0.5,1.6s0.7,0.6,1.3,0.6c0.6,0,1-0.2,1.3-0.6S197.4,7.8,197.4,7.2z"/>
		<path class="st15" d="M205.1,9.9h-1V9h0c-0.4,0.7-1,1.1-1.9,1.1c-1.4,0-2.1-0.9-2.1-2.6V3.9h1v3.4c0,1.3,0.5,1.9,1.5,1.9
			c0.5,0,0.9-0.2,1.2-0.5s0.5-0.8,0.5-1.4V3.9h1V9.9z"/>
		<path class="st15" d="M211.8,7.1h-4.2c0,0.7,0.2,1.2,0.5,1.5s0.8,0.5,1.4,0.5c0.7,0,1.3-0.2,1.9-0.7v0.9c-0.5,0.4-1.2,0.6-2.1,0.6
			c-0.8,0-1.5-0.3-2-0.8s-0.7-1.3-0.7-2.3c0-0.9,0.3-1.7,0.8-2.3s1.2-0.9,2-0.9s1.4,0.3,1.8,0.8s0.6,1.2,0.6,2.1V7.1z M210.8,6.3
			c0-0.6-0.1-1-0.4-1.3s-0.6-0.5-1.1-0.5c-0.5,0-0.8,0.2-1.2,0.5s-0.5,0.7-0.6,1.3H210.8z M210.6,0.8l-1.5,1.9h-0.7l1.3-1.9H210.6z"
			/>
		<path class="st15" d="M216.2,4.9c-0.2-0.1-0.4-0.2-0.7-0.2c-0.4,0-0.8,0.2-1,0.6s-0.4,0.9-0.4,1.6v3.1h-1v-6h1v1.2h0
			c0.1-0.4,0.3-0.8,0.6-1s0.6-0.4,0.9-0.4c0.3,0,0.4,0,0.6,0.1V4.9z"/>
		<path class="st15" d="M217.7,2.4c-0.2,0-0.3-0.1-0.4-0.2s-0.2-0.3-0.2-0.4s0.1-0.3,0.2-0.4s0.3-0.2,0.4-0.2c0.2,0,0.3,0.1,0.4,0.2
			s0.2,0.3,0.2,0.4c0,0.2-0.1,0.3-0.2,0.4S217.9,2.4,217.7,2.4z M218.2,9.9h-1v-6h1V9.9z"/>
		<path class="st15" d="M223.1,4.9c-0.2-0.1-0.4-0.2-0.7-0.2c-0.4,0-0.8,0.2-1,0.6S221,6.2,221,6.8v3.1h-1v-6h1v1.2h0
			c0.1-0.4,0.3-0.8,0.6-1s0.6-0.4,0.9-0.4c0.3,0,0.4,0,0.6,0.1V4.9z"/>
		<path class="st15" d="M232.1,9.9h-1V9h0c-0.4,0.7-1,1.1-1.9,1.1c-1.4,0-2.1-0.9-2.1-2.6V3.9h1v3.4c0,1.3,0.5,1.9,1.5,1.9
			c0.5,0,0.9-0.2,1.2-0.5s0.5-0.8,0.5-1.4V3.9h1V9.9z"/>
		<path class="st15" d="M238.9,9.9h-1V6.5c0-1.3-0.5-1.9-1.4-1.9c-0.5,0-0.9,0.2-1.2,0.5s-0.5,0.8-0.5,1.4v3.4h-1v-6h1v1h0
			c0.5-0.8,1.1-1.1,2-1.1c0.7,0,1.2,0.2,1.5,0.6s0.5,1,0.5,1.8V9.9z"/>
		<path class="st15" d="M244.8,9.7c0,1-0.2,1.7-0.6,2.3s-1,0.8-1.7,0.8c-0.3,0-0.5-0.1-0.8-0.2v-0.9c0.3,0.2,0.6,0.3,0.8,0.3
			c0.9,0,1.3-0.7,1.3-2.1V3.9h1V9.7z M244.3,2.4c-0.2,0-0.3-0.1-0.4-0.2s-0.2-0.3-0.2-0.4s0.1-0.3,0.2-0.4s0.3-0.2,0.4-0.2
			c0.2,0,0.3,0.1,0.4,0.2s0.2,0.3,0.2,0.4c0,0.2-0.1,0.3-0.2,0.4S244.5,2.4,244.3,2.4z"/>
		<path class="st15" d="M251.5,7.1h-4.2c0,0.7,0.2,1.2,0.5,1.5s0.8,0.5,1.4,0.5c0.7,0,1.3-0.2,1.9-0.7v0.9c-0.5,0.4-1.2,0.6-2.1,0.6
			c-0.8,0-1.5-0.3-2-0.8s-0.7-1.3-0.7-2.3c0-0.9,0.3-1.7,0.8-2.3s1.2-0.9,2-0.9s1.4,0.3,1.8,0.8s0.6,1.2,0.6,2.1V7.1z M250.5,6.3
			c0-0.6-0.1-1-0.4-1.3s-0.6-0.5-1.1-0.5c-0.5,0-0.8,0.2-1.2,0.5s-0.5,0.7-0.6,1.3H250.5z"/>
		<path class="st15" d="M255.6,9.8c-0.2,0.1-0.5,0.2-0.9,0.2c-1.1,0-1.6-0.6-1.6-1.8V4.7h-1V3.9h1V2.4l1-0.3v1.8h1.5v0.8h-1.5v3.4
			c0,0.4,0.1,0.7,0.2,0.9s0.4,0.3,0.7,0.3c0.2,0,0.5-0.1,0.6-0.2V9.8z"/>
		<path class="st15" d="M259.3,10c-0.9,0-1.6-0.3-2.1-0.8s-0.8-1.3-0.8-2.2c0-1,0.3-1.8,0.8-2.4s1.3-0.8,2.2-0.8
			c0.9,0,1.6,0.3,2.1,0.8s0.8,1.3,0.8,2.3c0,1-0.3,1.7-0.8,2.3S260.2,10,259.3,10z M259.4,4.6c-0.6,0-1.1,0.2-1.5,0.6
			s-0.5,1-0.5,1.7c0,0.7,0.2,1.3,0.5,1.7s0.8,0.6,1.5,0.6c0.6,0,1.1-0.2,1.4-0.6s0.5-1,0.5-1.7c0-0.8-0.2-1.3-0.5-1.7
			S260,4.6,259.4,4.6z"/>
		<path class="st15" d="M268.7,9.9h-1V6.5c0-1.3-0.5-1.9-1.4-1.9c-0.5,0-0.9,0.2-1.2,0.5s-0.5,0.8-0.5,1.4v3.4h-1v-6h1v1h0
			c0.5-0.8,1.1-1.1,2-1.1c0.7,0,1.2,0.2,1.5,0.6s0.5,1,0.5,1.8V9.9z"/>
	</g>
	<g>
		<path class="st15" d="M201.5,35.3c0,1-0.2,1.8-0.6,2.3s-1,0.8-1.7,0.8c-0.3,0-0.6,0-0.8-0.1v-1c0.2,0.2,0.5,0.2,0.8,0.2
			c0.9,0,1.3-0.8,1.3-2.3v-5.4h1V35.3z"/>
		<path class="st15" d="M208.2,35.5H204c0,0.7,0.2,1.2,0.5,1.5s0.8,0.5,1.4,0.5c0.7,0,1.3-0.2,1.9-0.7v0.9c-0.5,0.4-1.2,0.6-2.1,0.6
			c-0.8,0-1.5-0.3-2-0.8s-0.7-1.3-0.7-2.3c0-0.9,0.3-1.7,0.8-2.3s1.2-0.9,2-0.9s1.4,0.3,1.8,0.8s0.6,1.2,0.6,2.1V35.5z M207.2,34.7
			c0-0.6-0.1-1-0.4-1.3s-0.6-0.5-1.1-0.5c-0.5,0-0.8,0.2-1.2,0.5s-0.5,0.7-0.6,1.3H207.2z"/>
		<path class="st15" d="M212.4,38.2c-0.2,0.1-0.5,0.2-0.9,0.2c-1.1,0-1.6-0.6-1.6-1.8v-3.6h-1v-0.8h1v-1.5l1-0.3v1.8h1.5v0.8h-1.5
			v3.4c0,0.4,0.1,0.7,0.2,0.9s0.4,0.3,0.7,0.3c0.2,0,0.5-0.1,0.6-0.2V38.2z"/>
		<path class="st15" d="M216.1,38.4c-0.9,0-1.6-0.3-2.1-0.8s-0.8-1.3-0.8-2.2c0-1,0.3-1.8,0.8-2.4s1.3-0.8,2.2-0.8
			c0.9,0,1.6,0.3,2.1,0.8s0.8,1.3,0.8,2.3c0,1-0.3,1.7-0.8,2.3S217,38.4,216.1,38.4z M216.2,33c-0.6,0-1.1,0.2-1.5,0.6
			s-0.5,1-0.5,1.7c0,0.7,0.2,1.3,0.5,1.7s0.8,0.6,1.5,0.6c0.6,0,1.1-0.2,1.4-0.6s0.5-1,0.5-1.7c0-0.8-0.2-1.3-0.5-1.7
			S216.8,33,216.2,33z"/>
		<path class="st15" d="M225.5,38.3h-1v-3.4c0-1.3-0.5-1.9-1.4-1.9c-0.5,0-0.9,0.2-1.2,0.5s-0.5,0.8-0.5,1.4v3.4h-1v-6h1v1h0
			c0.5-0.8,1.1-1.1,2-1.1c0.7,0,1.2,0.2,1.5,0.6s0.5,1,0.5,1.8V38.3z"/>
		<path class="st15" d="M235.6,38.3h-1v-1h0c-0.4,0.8-1.1,1.2-2.1,1.2c-0.8,0-1.4-0.3-1.8-0.8s-0.7-1.3-0.7-2.2c0-1,0.3-1.8,0.8-2.4
			s1.2-0.9,2-0.9c0.8,0,1.4,0.3,1.8,1h0v-3.7h1V38.3z M234.7,35.6v-0.9c0-0.5-0.2-0.9-0.5-1.2S233.4,33,233,33c-0.6,0-1,0.2-1.4,0.6
			s-0.5,1-0.5,1.8c0,0.7,0.2,1.2,0.5,1.6s0.8,0.6,1.3,0.6c0.5,0,1-0.2,1.3-0.6S234.7,36.2,234.7,35.6z"/>
		<path class="st15" d="M238.7,29.8l-0.8,2.6h-0.7l0.7-2.6H238.7z"/>
		<path class="st15" d="M244.5,38.3h-1v-0.9h0c-0.4,0.7-1,1.1-1.8,1.1c-0.6,0-1.1-0.2-1.4-0.5s-0.5-0.7-0.5-1.3c0-1.1,0.7-1.8,2-2
			l1.8-0.3c0-1-0.4-1.5-1.2-1.5c-0.7,0-1.4,0.2-2,0.7v-1c0.6-0.4,1.3-0.6,2-0.6c1.4,0,2.1,0.7,2.1,2.2V38.3z M243.5,35.3l-1.4,0.2
			c-0.4,0.1-0.8,0.2-1,0.3s-0.3,0.4-0.3,0.8c0,0.3,0.1,0.5,0.3,0.7s0.5,0.3,0.8,0.3c0.5,0,0.9-0.2,1.2-0.5s0.5-0.8,0.5-1.3V35.3z"/>
		<path class="st15" d="M250.3,38c-0.5,0.3-1,0.4-1.6,0.4c-0.9,0-1.5-0.3-2.1-0.8s-0.8-1.3-0.8-2.2c0-1,0.3-1.8,0.8-2.4
			s1.3-0.9,2.3-0.9c0.5,0,1,0.1,1.4,0.3v1c-0.4-0.3-0.9-0.5-1.4-0.5c-0.6,0-1.1,0.2-1.5,0.7s-0.6,1-0.6,1.7c0,0.7,0.2,1.3,0.6,1.7
			s0.9,0.6,1.5,0.6c0.5,0,1-0.2,1.5-0.5V38z"/>
		<path class="st15" d="M255.8,38c-0.5,0.3-1,0.4-1.6,0.4c-0.9,0-1.5-0.3-2.1-0.8s-0.8-1.3-0.8-2.2c0-1,0.3-1.8,0.8-2.4
			s1.3-0.9,2.3-0.9c0.5,0,1,0.1,1.4,0.3v1c-0.4-0.3-0.9-0.5-1.4-0.5c-0.6,0-1.1,0.2-1.5,0.7s-0.6,1-0.6,1.7c0,0.7,0.2,1.3,0.6,1.7
			s0.9,0.6,1.5,0.6c0.5,0,1-0.2,1.5-0.5V38z"/>
		<path class="st15" d="M262,35.5h-4.2c0,0.7,0.2,1.2,0.5,1.5s0.8,0.5,1.4,0.5c0.7,0,1.3-0.2,1.9-0.7v0.9c-0.5,0.4-1.2,0.6-2.1,0.6
			c-0.8,0-1.5-0.3-2-0.8s-0.7-1.3-0.7-2.3c0-0.9,0.3-1.7,0.8-2.3s1.2-0.9,2-0.9s1.4,0.3,1.8,0.8s0.6,1.2,0.6,2.1V35.5z M261,34.7
			c0-0.6-0.1-1-0.4-1.3s-0.6-0.5-1.1-0.5c-0.5,0-0.8,0.2-1.2,0.5s-0.5,0.7-0.6,1.3H261z M260.4,31.2h-0.7l-1.5-1.9h1L260.4,31.2z"/>
		<path class="st15" d="M263,38.1v-1c0.5,0.4,1.1,0.6,1.7,0.6c0.8,0,1.3-0.3,1.3-0.8c0-0.2,0-0.3-0.1-0.4s-0.2-0.2-0.3-0.3
			s-0.3-0.2-0.4-0.2s-0.3-0.1-0.5-0.2c-0.3-0.1-0.5-0.2-0.7-0.3s-0.4-0.2-0.5-0.4s-0.2-0.3-0.3-0.5s-0.1-0.4-0.1-0.6
			c0-0.3,0.1-0.5,0.2-0.7s0.3-0.4,0.5-0.5s0.5-0.3,0.7-0.3s0.6-0.1,0.9-0.1c0.5,0,1,0.1,1.4,0.3v1c-0.4-0.3-0.9-0.4-1.5-0.4
			c-0.2,0-0.3,0-0.5,0.1s-0.3,0.1-0.4,0.2s-0.2,0.2-0.2,0.3s-0.1,0.2-0.1,0.3c0,0.2,0,0.3,0.1,0.4s0.1,0.2,0.2,0.3s0.2,0.2,0.4,0.2
			s0.3,0.1,0.5,0.2c0.3,0.1,0.5,0.2,0.7,0.3s0.4,0.2,0.5,0.4s0.3,0.3,0.3,0.5s0.1,0.4,0.1,0.6c0,0.3-0.1,0.6-0.2,0.8
			s-0.3,0.4-0.5,0.5s-0.5,0.3-0.8,0.3s-0.6,0.1-0.9,0.1C264,38.4,263.4,38.3,263,38.1z"/>
	</g>
	<g>
		<path class="st15" d="M186.3,134.7h-1.2l-1.4-2.4c-0.1-0.2-0.3-0.4-0.4-0.6s-0.2-0.3-0.4-0.4s-0.3-0.2-0.4-0.2s-0.3-0.1-0.5-0.1
			h-0.8v3.6h-1v-8.4h2.5c0.4,0,0.7,0,1,0.1s0.6,0.2,0.8,0.4s0.4,0.4,0.5,0.7s0.2,0.6,0.2,1c0,0.3,0,0.6-0.1,0.8s-0.2,0.5-0.4,0.7
			s-0.4,0.4-0.6,0.5s-0.5,0.2-0.8,0.3v0c0.1,0.1,0.3,0.1,0.4,0.2s0.2,0.2,0.3,0.3s0.2,0.2,0.3,0.4s0.2,0.3,0.3,0.5L186.3,134.7z
			 M181.3,127.2v3h1.3c0.2,0,0.5,0,0.7-0.1s0.4-0.2,0.5-0.3s0.3-0.3,0.4-0.5s0.1-0.4,0.1-0.7c0-0.4-0.1-0.8-0.4-1.1
			s-0.7-0.4-1.3-0.4H181.3z"/>
		<path class="st15" d="M191.8,131.9h-4.2c0,0.7,0.2,1.2,0.5,1.5s0.8,0.5,1.4,0.5c0.7,0,1.3-0.2,1.9-0.7v0.9
			c-0.5,0.4-1.2,0.6-2.1,0.6c-0.8,0-1.5-0.3-2-0.8s-0.7-1.3-0.7-2.3c0-0.9,0.3-1.7,0.8-2.3s1.2-0.9,2-0.9s1.4,0.3,1.8,0.8
			s0.6,1.2,0.6,2.1V131.9z M190.8,131.1c0-0.6-0.1-1-0.4-1.3s-0.6-0.5-1.1-0.5c-0.5,0-0.8,0.2-1.2,0.5s-0.5,0.7-0.6,1.3H190.8z
			 M190.7,125.6l-1.5,1.9h-0.7l1.3-1.9H190.7z"/>
		<path class="st15" d="M194.2,133.8L194.2,133.8l0,3.6h-1v-8.8h1v1.1h0c0.5-0.8,1.2-1.2,2.1-1.2c0.8,0,1.4,0.3,1.8,0.8
			s0.7,1.3,0.7,2.2c0,1-0.2,1.8-0.7,2.4s-1.2,0.9-2,0.9C195.2,134.8,194.6,134.5,194.2,133.8z M194.2,131.4v0.8
			c0,0.5,0.2,0.9,0.5,1.3s0.7,0.5,1.2,0.5c0.6,0,1-0.2,1.4-0.7s0.5-1.1,0.5-1.9c0-0.7-0.2-1.2-0.5-1.6s-0.7-0.6-1.3-0.6
			c-0.6,0-1,0.2-1.3,0.6S194.2,130.8,194.2,131.4z"/>
		<path class="st15" d="M202.7,134.8c-0.9,0-1.6-0.3-2.1-0.8s-0.8-1.3-0.8-2.2c0-1,0.3-1.8,0.8-2.4s1.3-0.8,2.2-0.8
			c0.9,0,1.6,0.3,2.1,0.8s0.8,1.3,0.8,2.3c0,1-0.3,1.7-0.8,2.3S203.6,134.8,202.7,134.8z M202.8,129.4c-0.6,0-1.1,0.2-1.5,0.6
			s-0.5,1-0.5,1.7c0,0.7,0.2,1.3,0.5,1.7s0.8,0.6,1.5,0.6c0.6,0,1.1-0.2,1.4-0.6s0.5-1,0.5-1.7c0-0.8-0.2-1.3-0.5-1.7
			S203.4,129.4,202.8,129.4z"/>
		<path class="st15" d="M212.2,134.7h-1v-3.4c0-1.3-0.5-1.9-1.4-1.9c-0.5,0-0.9,0.2-1.2,0.5s-0.5,0.8-0.5,1.4v3.4h-1v-6h1v1h0
			c0.5-0.8,1.1-1.1,2-1.1c0.7,0,1.2,0.2,1.5,0.6s0.5,1,0.5,1.8V134.7z"/>
		<path class="st15" d="M213.6,134.5v-1c0.5,0.4,1.1,0.6,1.7,0.6c0.8,0,1.3-0.3,1.3-0.8c0-0.2,0-0.3-0.1-0.4s-0.2-0.2-0.3-0.3
			s-0.3-0.2-0.4-0.2s-0.3-0.1-0.5-0.2c-0.3-0.1-0.5-0.2-0.7-0.3s-0.4-0.2-0.5-0.4s-0.2-0.3-0.3-0.5s-0.1-0.4-0.1-0.6
			c0-0.3,0.1-0.5,0.2-0.7s0.3-0.4,0.5-0.5s0.5-0.3,0.7-0.3s0.6-0.1,0.9-0.1c0.5,0,1,0.1,1.4,0.3v1c-0.4-0.3-0.9-0.4-1.5-0.4
			c-0.2,0-0.3,0-0.5,0.1s-0.3,0.1-0.4,0.2s-0.2,0.2-0.2,0.3s-0.1,0.2-0.1,0.3c0,0.2,0,0.3,0.1,0.4s0.1,0.2,0.2,0.3s0.2,0.2,0.4,0.2
			s0.3,0.1,0.5,0.2c0.3,0.1,0.5,0.2,0.7,0.3s0.4,0.2,0.5,0.4s0.3,0.3,0.3,0.5s0.1,0.4,0.1,0.6c0,0.3-0.1,0.6-0.2,0.8
			s-0.3,0.4-0.5,0.5s-0.5,0.3-0.8,0.3s-0.6,0.1-0.9,0.1C214.6,134.8,214.1,134.7,213.6,134.5z"/>
		<path class="st15" d="M223.9,131.9h-4.2c0,0.7,0.2,1.2,0.5,1.5s0.8,0.5,1.4,0.5c0.7,0,1.3-0.2,1.9-0.7v0.9
			c-0.5,0.4-1.2,0.6-2.1,0.6c-0.8,0-1.5-0.3-2-0.8s-0.7-1.3-0.7-2.3c0-0.9,0.3-1.7,0.8-2.3s1.2-0.9,2-0.9s1.4,0.3,1.8,0.8
			s0.6,1.2,0.6,2.1V131.9z M222.9,131.1c0-0.6-0.1-1-0.4-1.3s-0.6-0.5-1.1-0.5c-0.5,0-0.8,0.2-1.2,0.5s-0.5,0.7-0.6,1.3H222.9z"/>
		<path class="st15" d="M235,134.7h-1v-3.8h-4.3v3.8h-1v-8.4h1v3.7h4.3v-3.7h1V134.7z"/>
		<path class="st15" d="M242.1,127.2h-2.4v7.5h-1v-7.5h-2.4v-0.9h5.8V127.2z"/>
		<path class="st15" d="M248.6,127.2h-2.4v7.5h-1v-7.5h-2.4v-0.9h5.8V127.2z"/>
		<path class="st15" d="M250.9,131.5v3.2h-1v-8.4h2.3c0.9,0,1.6,0.2,2.1,0.7s0.7,1.1,0.7,1.9s-0.3,1.4-0.8,2s-1.3,0.8-2.2,0.8H250.9
			z M250.9,127.2v3.4h1c0.7,0,1.2-0.2,1.6-0.5s0.5-0.7,0.5-1.3c0-1.1-0.7-1.7-2-1.7H250.9z"/>
	</g>
</g>
</svg>
